G04 Layer_Physical_Order=2*
G04 Layer_Color=16711680*
%FSLAX25Y25*%
%MOIN*%
G70*
G01*
G75*
%ADD10C,0.01000*%
%ADD11C,0.05575*%
%ADD12R,0.06496X0.06496*%
%ADD13C,0.06496*%
%ADD14C,0.04528*%
%ADD15R,0.04528X0.04528*%
%ADD16C,0.06000*%
%ADD17C,0.03150*%
%ADD18R,0.03150X0.06890*%
%ADD19R,0.04134X0.05512*%
%ADD20R,0.03740X0.05709*%
%ADD21R,0.05709X0.03740*%
%ADD22R,0.02559X0.08268*%
%ADD23R,0.04921X0.02953*%
%ADD24R,0.05787X0.04016*%
%ADD25R,0.05787X0.03898*%
G36*
X816400Y-150300D02*
X0D01*
Y0D01*
X816400D01*
Y-150300D01*
D02*
G37*
%LPC*%
G36*
X282343Y-3783D02*
X281494Y-3951D01*
X280774Y-4432D01*
X280476Y-4879D01*
X211700D01*
X211700Y-4878D01*
X211271Y-4964D01*
X210907Y-5207D01*
X210907Y-5207D01*
X206031Y-10083D01*
X205583Y-9739D01*
X204647Y-9351D01*
X203643Y-9219D01*
X202638Y-9351D01*
X201702Y-9739D01*
X200898Y-10356D01*
X200281Y-11159D01*
X199893Y-12095D01*
X199761Y-13100D01*
X199893Y-14105D01*
X200281Y-15041D01*
X200898Y-15844D01*
X201702Y-16461D01*
X202638Y-16849D01*
X203643Y-16981D01*
X204647Y-16849D01*
X205436Y-16522D01*
X210718Y-21804D01*
Y-31771D01*
X210705Y-31784D01*
X209718Y-32214D01*
X209324Y-31951D01*
X208476Y-31783D01*
X207627Y-31951D01*
X206908Y-32432D01*
X206427Y-33151D01*
X206258Y-34000D01*
X206427Y-34849D01*
X206908Y-35568D01*
X207354Y-35866D01*
Y-42473D01*
X207031Y-42606D01*
X206433Y-43065D01*
X205974Y-43664D01*
X205685Y-44360D01*
X205622Y-44846D01*
X204622Y-44781D01*
Y-33166D01*
X205068Y-32868D01*
X205549Y-32149D01*
X205717Y-31300D01*
X205549Y-30451D01*
X205068Y-29732D01*
X204349Y-29251D01*
X203500Y-29083D01*
X202651Y-29251D01*
X201932Y-29732D01*
X201451Y-30451D01*
X201283Y-31300D01*
X201451Y-32149D01*
X201932Y-32868D01*
X202378Y-33166D01*
Y-52159D01*
X201621D01*
Y-61627D01*
X205380D01*
Y-52159D01*
X204622D01*
Y-45435D01*
X205622Y-45370D01*
X205685Y-45856D01*
X205974Y-46552D01*
X206433Y-47150D01*
X207031Y-47609D01*
X207728Y-47898D01*
X208235Y-47965D01*
X208567Y-48583D01*
X208629Y-48985D01*
X207707Y-49907D01*
X207464Y-50271D01*
X207378Y-50700D01*
X207379Y-50700D01*
Y-52159D01*
X206621D01*
Y-61627D01*
X210380D01*
Y-52159D01*
X209635D01*
X209627Y-51159D01*
X211455Y-49332D01*
X212379Y-49714D01*
Y-52159D01*
X211620D01*
Y-61627D01*
X215380D01*
Y-52159D01*
X214621D01*
Y-49514D01*
X215545Y-49132D01*
X217378Y-50965D01*
Y-52159D01*
X216620D01*
Y-61627D01*
X217378D01*
Y-63746D01*
X217378Y-63746D01*
X217464Y-64175D01*
X217707Y-64539D01*
X222786Y-69618D01*
Y-73167D01*
X222786Y-73208D01*
X222687Y-74167D01*
X222386D01*
Y-76616D01*
X226279D01*
Y-77116D01*
X226780D01*
Y-80065D01*
X230173D01*
Y-80045D01*
X233063D01*
Y-77037D01*
X233563D01*
Y-76537D01*
X237457D01*
Y-74180D01*
X237457Y-74029D01*
X237057Y-73195D01*
X237057Y-73029D01*
Y-68130D01*
X230069D01*
Y-68130D01*
X229773Y-68110D01*
Y-68110D01*
X229077Y-68110D01*
X224451D01*
X219621Y-63281D01*
Y-61627D01*
X220379D01*
Y-52159D01*
X219621D01*
Y-50500D01*
X219536Y-50071D01*
X219293Y-49707D01*
X219293Y-49707D01*
X218562Y-48976D01*
X218936Y-47936D01*
X219223Y-47898D01*
X219920Y-47609D01*
X220518Y-47150D01*
X220977Y-46552D01*
X221266Y-45856D01*
X221364Y-45108D01*
X221266Y-44360D01*
X220977Y-43664D01*
X220518Y-43065D01*
X219920Y-42606D01*
X219223Y-42318D01*
X218476Y-42219D01*
X217728Y-42318D01*
X217233Y-42523D01*
X216594Y-42251D01*
X216233Y-41958D01*
Y-21753D01*
X221484Y-16502D01*
X222323Y-16849D01*
X223328Y-16981D01*
X224332Y-16849D01*
X225268Y-16461D01*
X226072Y-15844D01*
X226689Y-15041D01*
X227077Y-14105D01*
X227209Y-13100D01*
X227077Y-12095D01*
X226689Y-11159D01*
X226506Y-10922D01*
X226999Y-9922D01*
X268252D01*
Y-12600D01*
X276748D01*
Y-9922D01*
X278671D01*
X279164Y-10922D01*
X278981Y-11159D01*
X278593Y-12095D01*
X278461Y-13100D01*
X278593Y-14105D01*
X278981Y-15041D01*
X279598Y-15844D01*
X280402Y-16461D01*
X281338Y-16849D01*
X282343Y-16981D01*
X283347Y-16849D01*
X284283Y-16461D01*
X285087Y-15844D01*
X285704Y-15041D01*
X286091Y-14105D01*
X286224Y-13100D01*
X286091Y-12095D01*
X285704Y-11159D01*
X285484Y-10874D01*
X285978Y-9873D01*
X287372D01*
X288775Y-11276D01*
X288436Y-12095D01*
X288304Y-13100D01*
X288436Y-14105D01*
X288710Y-14766D01*
X288287Y-15454D01*
X288032Y-15651D01*
X287688Y-15583D01*
X286840Y-15751D01*
X286120Y-16232D01*
X285640Y-16951D01*
X285471Y-17800D01*
X285640Y-18649D01*
X286120Y-19368D01*
X286567Y-19666D01*
Y-42473D01*
X286244Y-42606D01*
X285646Y-43065D01*
X285187Y-43664D01*
X284898Y-44360D01*
X284800Y-45108D01*
X284898Y-45856D01*
X285187Y-46552D01*
X285646Y-47150D01*
X286244Y-47609D01*
X286941Y-47898D01*
X287688Y-47996D01*
X288436Y-47898D01*
X289132Y-47609D01*
X289731Y-47150D01*
X290190Y-46552D01*
X290478Y-45856D01*
X290577Y-45108D01*
X290478Y-44360D01*
X290190Y-43664D01*
X289731Y-43065D01*
X289132Y-42606D01*
X288810Y-42473D01*
Y-19666D01*
X289256Y-19368D01*
X289737Y-18649D01*
X289906Y-17800D01*
X289813Y-17337D01*
X290626Y-16619D01*
X291180Y-16849D01*
X292185Y-16981D01*
X293190Y-16849D01*
X294126Y-16461D01*
X294930Y-15844D01*
X295546Y-15041D01*
X295934Y-14105D01*
X296066Y-13100D01*
X295934Y-12095D01*
X295595Y-11276D01*
X297150Y-9722D01*
X298534D01*
X299002Y-10722D01*
X298666Y-11159D01*
X298279Y-12095D01*
X298146Y-13100D01*
X298279Y-14105D01*
X298666Y-15041D01*
X299283Y-15844D01*
X300087Y-16461D01*
X301023Y-16849D01*
X302028Y-16981D01*
X303032Y-16849D01*
X303851Y-16510D01*
X305972Y-18630D01*
X305972Y-18630D01*
X306335Y-18873D01*
X306765Y-18959D01*
X327546D01*
Y-20307D01*
X334454D01*
Y-18959D01*
X338846D01*
Y-20307D01*
X345754D01*
Y-15367D01*
X338846D01*
Y-16715D01*
X334454D01*
Y-15367D01*
X335311Y-15021D01*
X337100D01*
X337100Y-15022D01*
X337529Y-14936D01*
X337893Y-14693D01*
X340153Y-12433D01*
X345754D01*
Y-7493D01*
X338846D01*
Y-10568D01*
X336635Y-12778D01*
X335311D01*
X334454Y-12433D01*
Y-7493D01*
X329079D01*
X326793Y-5207D01*
X326429Y-4964D01*
X326000Y-4878D01*
X326000Y-4879D01*
X284209D01*
X283910Y-4432D01*
X283191Y-3951D01*
X282343Y-3783D01*
D02*
G37*
G36*
X198048Y-8852D02*
X194300D01*
Y-12600D01*
X198048D01*
Y-8852D01*
D02*
G37*
G36*
X193300D02*
X189552D01*
Y-12600D01*
X193300D01*
Y-8852D01*
D02*
G37*
G36*
X780833Y-3672D02*
X779596Y-3793D01*
X778407Y-4154D01*
X777311Y-4740D01*
X776350Y-5528D01*
X775562Y-6489D01*
X774976Y-7585D01*
X774615Y-8774D01*
X774494Y-10011D01*
X774615Y-11248D01*
X774976Y-12437D01*
X775562Y-13533D01*
X776350Y-14493D01*
X777311Y-15282D01*
X778407Y-15867D01*
X779596Y-16228D01*
X780833Y-16350D01*
X782069Y-16228D01*
X783259Y-15867D01*
X784355Y-15282D01*
X785315Y-14493D01*
X786103Y-13533D01*
X786689Y-12437D01*
X787050Y-11248D01*
X787172Y-10011D01*
X787050Y-8774D01*
X786689Y-7585D01*
X786103Y-6489D01*
X785315Y-5528D01*
X784355Y-4740D01*
X783259Y-4154D01*
X782069Y-3793D01*
X780833Y-3672D01*
D02*
G37*
G36*
X408195D02*
X406958Y-3793D01*
X405769Y-4154D01*
X404673Y-4740D01*
X403712Y-5528D01*
X402924Y-6489D01*
X402338Y-7585D01*
X401977Y-8774D01*
X401856Y-10011D01*
X401977Y-11248D01*
X402338Y-12437D01*
X402924Y-13533D01*
X403712Y-14493D01*
X404673Y-15282D01*
X405769Y-15867D01*
X406958Y-16228D01*
X408195Y-16350D01*
X409432Y-16228D01*
X410621Y-15867D01*
X411717Y-15282D01*
X412677Y-14493D01*
X413466Y-13533D01*
X414051Y-12437D01*
X414412Y-11248D01*
X414534Y-10011D01*
X414412Y-8774D01*
X414051Y-7585D01*
X413466Y-6489D01*
X412677Y-5528D01*
X411717Y-4740D01*
X410621Y-4154D01*
X409432Y-3793D01*
X408195Y-3672D01*
D02*
G37*
G36*
X35557D02*
X34320Y-3793D01*
X33131Y-4154D01*
X32035Y-4740D01*
X31075Y-5528D01*
X30286Y-6489D01*
X29700Y-7585D01*
X29340Y-8774D01*
X29218Y-10011D01*
X29340Y-11248D01*
X29700Y-12437D01*
X30286Y-13533D01*
X31075Y-14493D01*
X32035Y-15282D01*
X33131Y-15867D01*
X34320Y-16228D01*
X35557Y-16350D01*
X36794Y-16228D01*
X37983Y-15867D01*
X39079Y-15282D01*
X40040Y-14493D01*
X40828Y-13533D01*
X41414Y-12437D01*
X41774Y-11248D01*
X41896Y-10011D01*
X41774Y-8774D01*
X41414Y-7585D01*
X40828Y-6489D01*
X40040Y-5528D01*
X39079Y-4740D01*
X37983Y-4154D01*
X36794Y-3793D01*
X35557Y-3672D01*
D02*
G37*
G36*
X276748Y-13600D02*
X273000D01*
Y-17348D01*
X276748D01*
Y-13600D01*
D02*
G37*
G36*
X272000D02*
X268252D01*
Y-17348D01*
X272000D01*
Y-13600D01*
D02*
G37*
G36*
X198048D02*
X194300D01*
Y-17348D01*
X198048D01*
Y-13600D01*
D02*
G37*
G36*
X193300D02*
X189552D01*
Y-17348D01*
X193300D01*
Y-13600D01*
D02*
G37*
G36*
X163500Y-15583D02*
X162651Y-15751D01*
X161932Y-16232D01*
X161451Y-16951D01*
X161283Y-17800D01*
X161451Y-18649D01*
X161932Y-19368D01*
X162378Y-19666D01*
Y-36991D01*
X161380Y-37526D01*
X160531Y-37357D01*
X159683Y-37526D01*
X158964Y-38007D01*
X158483Y-38726D01*
X158314Y-39575D01*
X158483Y-40423D01*
X158964Y-41143D01*
X159683Y-41623D01*
X159758Y-41638D01*
Y-52159D01*
X156621D01*
Y-61627D01*
X157378D01*
Y-75034D01*
X156932Y-75332D01*
X156451Y-76051D01*
X156283Y-76900D01*
X156451Y-77749D01*
X156932Y-78468D01*
X157651Y-78949D01*
X158500Y-79117D01*
X159349Y-78949D01*
X160068Y-78468D01*
X160549Y-77749D01*
X160717Y-76900D01*
X160549Y-76051D01*
X160068Y-75332D01*
X159622Y-75034D01*
Y-67119D01*
X160622Y-66705D01*
X167378Y-73462D01*
Y-88773D01*
X166621D01*
Y-98241D01*
X170379D01*
Y-88773D01*
X169622D01*
Y-72998D01*
X169536Y-72568D01*
X169293Y-72205D01*
X169293Y-72205D01*
X162001Y-64913D01*
Y-61627D01*
X165380D01*
Y-52159D01*
X164622D01*
Y-19666D01*
X165068Y-19368D01*
X165549Y-18649D01*
X165717Y-17800D01*
X165549Y-16951D01*
X165068Y-16232D01*
X164349Y-15751D01*
X163500Y-15583D01*
D02*
G37*
G36*
X695088Y-36378D02*
X689754D01*
Y-38612D01*
X685036D01*
X684737Y-38166D01*
X684018Y-37685D01*
X683169Y-37516D01*
X682321Y-37685D01*
X681601Y-38166D01*
X681121Y-38885D01*
X680952Y-39734D01*
X681121Y-40582D01*
X681601Y-41302D01*
X682321Y-41783D01*
X683169Y-41951D01*
X684018Y-41783D01*
X684737Y-41302D01*
X685036Y-40855D01*
X689754D01*
Y-43090D01*
X695088D01*
Y-36378D01*
D02*
G37*
G36*
X188689Y-44781D02*
Y-46813D01*
X190720D01*
X190698Y-46640D01*
X190438Y-46014D01*
X190025Y-45476D01*
X189488Y-45063D01*
X188861Y-44804D01*
X188689Y-44781D01*
D02*
G37*
G36*
X187689D02*
X187517Y-44804D01*
X186890Y-45063D01*
X186353Y-45476D01*
X185940Y-46014D01*
X185680Y-46640D01*
X185658Y-46813D01*
X187689D01*
Y-44781D01*
D02*
G37*
G36*
X127058Y-26383D02*
X126210Y-26551D01*
X125490Y-27032D01*
X125010Y-27751D01*
X124841Y-28600D01*
X125010Y-29449D01*
X125490Y-30168D01*
X125937Y-30466D01*
Y-40770D01*
X125243Y-41058D01*
X124491Y-41635D01*
X123914Y-42387D01*
X123551Y-43263D01*
X123427Y-44202D01*
X123551Y-45142D01*
X123914Y-46018D01*
X124491Y-46770D01*
X125243Y-47347D01*
X126119Y-47710D01*
X127058Y-47833D01*
X127998Y-47710D01*
X128874Y-47347D01*
X129626Y-46770D01*
X130203Y-46018D01*
X130566Y-45142D01*
X130689Y-44202D01*
X130566Y-43263D01*
X130203Y-42387D01*
X129626Y-41635D01*
X128874Y-41058D01*
X128180Y-40770D01*
Y-30466D01*
X128626Y-30168D01*
X129107Y-29449D01*
X129276Y-28600D01*
X129107Y-27751D01*
X128626Y-27032D01*
X127907Y-26551D01*
X127058Y-26383D01*
D02*
G37*
G36*
X117058Y-40571D02*
X116119Y-40695D01*
X115243Y-41058D01*
X114491Y-41635D01*
X113914Y-42387D01*
X113551Y-43263D01*
X113427Y-44202D01*
X113551Y-45142D01*
X113914Y-46018D01*
X114491Y-46770D01*
X115243Y-47347D01*
X116119Y-47710D01*
X117058Y-47833D01*
X117998Y-47710D01*
X118874Y-47347D01*
X119626Y-46770D01*
X120203Y-46018D01*
X120566Y-45142D01*
X120689Y-44202D01*
X120566Y-43263D01*
X120203Y-42387D01*
X119626Y-41635D01*
X118874Y-41058D01*
X117998Y-40695D01*
X117058Y-40571D01*
D02*
G37*
G36*
X107058Y-29083D02*
X106210Y-29251D01*
X105490Y-29732D01*
X105010Y-30451D01*
X104841Y-31300D01*
X105010Y-32149D01*
X105490Y-32868D01*
X105937Y-33166D01*
Y-40770D01*
X105243Y-41058D01*
X104491Y-41635D01*
X103914Y-42387D01*
X103551Y-43263D01*
X103427Y-44202D01*
X103551Y-45142D01*
X103914Y-46018D01*
X104491Y-46770D01*
X105243Y-47347D01*
X106119Y-47710D01*
X107058Y-47833D01*
X107998Y-47710D01*
X108874Y-47347D01*
X109626Y-46770D01*
X110203Y-46018D01*
X110566Y-45142D01*
X110689Y-44202D01*
X110566Y-43263D01*
X110203Y-42387D01*
X109626Y-41635D01*
X108874Y-41058D01*
X108180Y-40770D01*
Y-33166D01*
X108626Y-32868D01*
X109107Y-32149D01*
X109276Y-31300D01*
X109107Y-30451D01*
X108626Y-29732D01*
X107907Y-29251D01*
X107058Y-29083D01*
D02*
G37*
G36*
X97058Y-40571D02*
X96118Y-40695D01*
X95243Y-41058D01*
X94491Y-41635D01*
X93914Y-42387D01*
X93551Y-43263D01*
X93427Y-44202D01*
X93551Y-45142D01*
X93914Y-46018D01*
X94491Y-46770D01*
X95243Y-47347D01*
X96118Y-47710D01*
X97058Y-47833D01*
X97998Y-47710D01*
X98874Y-47347D01*
X99626Y-46770D01*
X100203Y-46018D01*
X100566Y-45142D01*
X100689Y-44202D01*
X100566Y-43263D01*
X100203Y-42387D01*
X99626Y-41635D01*
X98874Y-41058D01*
X97998Y-40695D01*
X97058Y-40571D01*
D02*
G37*
G36*
X87058D02*
X86119Y-40695D01*
X85243Y-41058D01*
X84491Y-41635D01*
X83914Y-42387D01*
X83551Y-43263D01*
X83427Y-44202D01*
X83551Y-45142D01*
X83914Y-46018D01*
X84491Y-46770D01*
X85243Y-47347D01*
X86119Y-47710D01*
X87058Y-47833D01*
X87998Y-47710D01*
X88874Y-47347D01*
X89626Y-46770D01*
X90203Y-46018D01*
X90566Y-45142D01*
X90689Y-44202D01*
X90566Y-43263D01*
X90203Y-42387D01*
X89626Y-41635D01*
X88874Y-41058D01*
X87998Y-40695D01*
X87058Y-40571D01*
D02*
G37*
G36*
X77058Y-15583D02*
X76210Y-15751D01*
X75490Y-16232D01*
X75010Y-16951D01*
X74841Y-17800D01*
X75010Y-18649D01*
X75490Y-19368D01*
X75937Y-19666D01*
Y-40770D01*
X75243Y-41058D01*
X74491Y-41635D01*
X73914Y-42387D01*
X73551Y-43263D01*
X73427Y-44202D01*
X73551Y-45142D01*
X73914Y-46018D01*
X74491Y-46770D01*
X75243Y-47347D01*
X76118Y-47710D01*
X77058Y-47833D01*
X77998Y-47710D01*
X78874Y-47347D01*
X79626Y-46770D01*
X80203Y-46018D01*
X80566Y-45142D01*
X80689Y-44202D01*
X80566Y-43263D01*
X80203Y-42387D01*
X79626Y-41635D01*
X78874Y-41058D01*
X78180Y-40770D01*
Y-19666D01*
X78626Y-19368D01*
X79107Y-18649D01*
X79276Y-17800D01*
X79107Y-16951D01*
X78626Y-16232D01*
X77907Y-15751D01*
X77058Y-15583D01*
D02*
G37*
G36*
X67058Y-40571D02*
X66119Y-40695D01*
X65243Y-41058D01*
X64491Y-41635D01*
X63914Y-42387D01*
X63551Y-43263D01*
X63427Y-44202D01*
X63551Y-45142D01*
X63914Y-46018D01*
X64491Y-46770D01*
X65243Y-47347D01*
X66119Y-47710D01*
X67058Y-47833D01*
X67998Y-47710D01*
X68874Y-47347D01*
X69626Y-46770D01*
X70203Y-46018D01*
X70566Y-45142D01*
X70689Y-44202D01*
X70566Y-43263D01*
X70203Y-42387D01*
X69626Y-41635D01*
X68874Y-41058D01*
X67998Y-40695D01*
X67058Y-40571D01*
D02*
G37*
G36*
X57058D02*
X56119Y-40695D01*
X55243Y-41058D01*
X54491Y-41635D01*
X53914Y-42387D01*
X53551Y-43263D01*
X53427Y-44202D01*
X53551Y-45142D01*
X53914Y-46018D01*
X54491Y-46770D01*
X55243Y-47347D01*
X56119Y-47710D01*
X57058Y-47833D01*
X57998Y-47710D01*
X58874Y-47347D01*
X59626Y-46770D01*
X60203Y-46018D01*
X60566Y-45142D01*
X60689Y-44202D01*
X60566Y-43263D01*
X60203Y-42387D01*
X59626Y-41635D01*
X58874Y-41058D01*
X57998Y-40695D01*
X57058Y-40571D01*
D02*
G37*
G36*
X47058D02*
X46119Y-40695D01*
X45243Y-41058D01*
X44491Y-41635D01*
X43914Y-42387D01*
X43551Y-43263D01*
X43427Y-44202D01*
X43551Y-45142D01*
X43914Y-46018D01*
X44491Y-46770D01*
X45243Y-47347D01*
X46119Y-47710D01*
X47058Y-47833D01*
X47998Y-47710D01*
X48874Y-47347D01*
X49626Y-46770D01*
X50203Y-46018D01*
X50566Y-45142D01*
X50689Y-44202D01*
X50566Y-43263D01*
X50203Y-42387D01*
X49626Y-41635D01*
X48874Y-41058D01*
X47998Y-40695D01*
X47058Y-40571D01*
D02*
G37*
G36*
X806192Y-42219D02*
X805445Y-42318D01*
X804748Y-42606D01*
X804150Y-43065D01*
X803691Y-43664D01*
X803402Y-44360D01*
X803304Y-45108D01*
X803402Y-45856D01*
X803691Y-46552D01*
X804150Y-47150D01*
X804748Y-47609D01*
X805445Y-47898D01*
X806192Y-47996D01*
X806940Y-47898D01*
X807636Y-47609D01*
X808235Y-47150D01*
X808694Y-46552D01*
X808982Y-45856D01*
X809081Y-45108D01*
X808982Y-44360D01*
X808694Y-43664D01*
X808235Y-43065D01*
X807636Y-42606D01*
X806940Y-42318D01*
X806192Y-42219D01*
D02*
G37*
G36*
X796192D02*
X795444Y-42318D01*
X794748Y-42606D01*
X794150Y-43065D01*
X793691Y-43664D01*
X793402Y-44360D01*
X793304Y-45108D01*
X793402Y-45856D01*
X793691Y-46552D01*
X794150Y-47150D01*
X794748Y-47609D01*
X795444Y-47898D01*
X796192Y-47996D01*
X796940Y-47898D01*
X797636Y-47609D01*
X798235Y-47150D01*
X798694Y-46552D01*
X798982Y-45856D01*
X799081Y-45108D01*
X798982Y-44360D01*
X798694Y-43664D01*
X798235Y-43065D01*
X797636Y-42606D01*
X796940Y-42318D01*
X796192Y-42219D01*
D02*
G37*
G36*
X776192D02*
X775445Y-42318D01*
X774748Y-42606D01*
X774150Y-43065D01*
X773691Y-43664D01*
X773402Y-44360D01*
X773304Y-45108D01*
X773402Y-45856D01*
X773691Y-46552D01*
X774150Y-47150D01*
X774748Y-47609D01*
X775445Y-47898D01*
X776192Y-47996D01*
X776940Y-47898D01*
X777636Y-47609D01*
X778235Y-47150D01*
X778694Y-46552D01*
X778982Y-45856D01*
X779081Y-45108D01*
X778982Y-44360D01*
X778694Y-43664D01*
X778235Y-43065D01*
X777636Y-42606D01*
X776940Y-42318D01*
X776192Y-42219D01*
D02*
G37*
G36*
X766192D02*
X765445Y-42318D01*
X764748Y-42606D01*
X764150Y-43065D01*
X763691Y-43664D01*
X763402Y-44360D01*
X763304Y-45108D01*
X763402Y-45856D01*
X763691Y-46552D01*
X764150Y-47150D01*
X764748Y-47609D01*
X765445Y-47898D01*
X766192Y-47996D01*
X766940Y-47898D01*
X767636Y-47609D01*
X768235Y-47150D01*
X768694Y-46552D01*
X768982Y-45856D01*
X769081Y-45108D01*
X768982Y-44360D01*
X768694Y-43664D01*
X768235Y-43065D01*
X767636Y-42606D01*
X766940Y-42318D01*
X766192Y-42219D01*
D02*
G37*
G36*
X756980D02*
X756232Y-42318D01*
X755535Y-42606D01*
X754937Y-43065D01*
X754478Y-43664D01*
X754189Y-44360D01*
X754091Y-45108D01*
X754189Y-45856D01*
X754478Y-46552D01*
X754937Y-47150D01*
X755535Y-47609D01*
X756232Y-47898D01*
X756980Y-47996D01*
X757727Y-47898D01*
X758424Y-47609D01*
X759022Y-47150D01*
X759481Y-46552D01*
X759770Y-45856D01*
X759868Y-45108D01*
X759770Y-44360D01*
X759481Y-43664D01*
X759022Y-43065D01*
X758424Y-42606D01*
X757727Y-42318D01*
X756980Y-42219D01*
D02*
G37*
G36*
X746980D02*
X746232Y-42318D01*
X745535Y-42606D01*
X744937Y-43065D01*
X744478Y-43664D01*
X744190Y-44360D01*
X744091Y-45108D01*
X744190Y-45856D01*
X744478Y-46552D01*
X744937Y-47150D01*
X745535Y-47609D01*
X746232Y-47898D01*
X746980Y-47996D01*
X747727Y-47898D01*
X748424Y-47609D01*
X749022Y-47150D01*
X749481Y-46552D01*
X749770Y-45856D01*
X749868Y-45108D01*
X749770Y-44360D01*
X749481Y-43664D01*
X749022Y-43065D01*
X748424Y-42606D01*
X747727Y-42318D01*
X746980Y-42219D01*
D02*
G37*
G36*
X726979D02*
X726232Y-42318D01*
X725535Y-42606D01*
X724937Y-43065D01*
X724478Y-43664D01*
X724190Y-44360D01*
X724091Y-45108D01*
X724190Y-45856D01*
X724478Y-46552D01*
X724937Y-47150D01*
X725535Y-47609D01*
X726232Y-47898D01*
X726979Y-47996D01*
X727727Y-47898D01*
X728424Y-47609D01*
X729022Y-47150D01*
X729481Y-46552D01*
X729770Y-45856D01*
X729868Y-45108D01*
X729770Y-44360D01*
X729481Y-43664D01*
X729022Y-43065D01*
X728424Y-42606D01*
X727727Y-42318D01*
X726979Y-42219D01*
D02*
G37*
G36*
X716980D02*
X716232Y-42318D01*
X715535Y-42606D01*
X714937Y-43065D01*
X714478Y-43664D01*
X714189Y-44360D01*
X714091Y-45108D01*
X714189Y-45856D01*
X714478Y-46552D01*
X714937Y-47150D01*
X715535Y-47609D01*
X716232Y-47898D01*
X716980Y-47996D01*
X717727Y-47898D01*
X718424Y-47609D01*
X719022Y-47150D01*
X719481Y-46552D01*
X719770Y-45856D01*
X719868Y-45108D01*
X719770Y-44360D01*
X719481Y-43664D01*
X719022Y-43065D01*
X718424Y-42606D01*
X717727Y-42318D01*
X716980Y-42219D01*
D02*
G37*
G36*
X672688Y-15583D02*
X671840Y-15751D01*
X671120Y-16232D01*
X670640Y-16951D01*
X670471Y-17800D01*
X670640Y-18649D01*
X671120Y-19368D01*
X671567Y-19666D01*
Y-42473D01*
X671244Y-42606D01*
X670646Y-43065D01*
X670187Y-43664D01*
X669898Y-44360D01*
X669800Y-45108D01*
X669898Y-45856D01*
X670187Y-46552D01*
X670646Y-47150D01*
X671244Y-47609D01*
X671941Y-47898D01*
X672688Y-47996D01*
X673436Y-47898D01*
X674132Y-47609D01*
X674731Y-47150D01*
X675190Y-46552D01*
X675478Y-45856D01*
X675577Y-45108D01*
X675478Y-44360D01*
X675190Y-43664D01*
X674731Y-43065D01*
X674132Y-42606D01*
X673810Y-42473D01*
Y-19666D01*
X674256Y-19368D01*
X674737Y-18649D01*
X674906Y-17800D01*
X674737Y-16951D01*
X674256Y-16232D01*
X673537Y-15751D01*
X672688Y-15583D01*
D02*
G37*
G36*
X662688Y-18283D02*
X661840Y-18451D01*
X661120Y-18932D01*
X660640Y-19651D01*
X660471Y-20500D01*
X660640Y-21349D01*
X661120Y-22068D01*
X661567Y-22366D01*
Y-42473D01*
X661244Y-42606D01*
X660646Y-43065D01*
X660187Y-43664D01*
X659898Y-44360D01*
X659800Y-45108D01*
X659898Y-45856D01*
X660187Y-46552D01*
X660646Y-47150D01*
X661244Y-47609D01*
X661941Y-47898D01*
X662688Y-47996D01*
X663436Y-47898D01*
X664132Y-47609D01*
X664731Y-47150D01*
X665190Y-46552D01*
X665478Y-45856D01*
X665577Y-45108D01*
X665478Y-44360D01*
X665190Y-43664D01*
X664731Y-43065D01*
X664132Y-42606D01*
X663810Y-42473D01*
Y-22366D01*
X664256Y-22068D01*
X664737Y-21349D01*
X664906Y-20500D01*
X664737Y-19651D01*
X664256Y-18932D01*
X663537Y-18451D01*
X662688Y-18283D01*
D02*
G37*
G36*
X642688Y-20983D02*
X641840Y-21151D01*
X641120Y-21632D01*
X640640Y-22351D01*
X640471Y-23200D01*
X640640Y-24049D01*
X641120Y-24768D01*
X641567Y-25066D01*
Y-42473D01*
X641244Y-42606D01*
X640646Y-43065D01*
X640187Y-43664D01*
X639898Y-44360D01*
X639800Y-45108D01*
X639898Y-45856D01*
X640187Y-46552D01*
X640646Y-47150D01*
X641244Y-47609D01*
X641941Y-47898D01*
X642688Y-47996D01*
X643436Y-47898D01*
X644132Y-47609D01*
X644731Y-47150D01*
X645190Y-46552D01*
X645478Y-45856D01*
X645577Y-45108D01*
X645478Y-44360D01*
X645190Y-43664D01*
X644731Y-43065D01*
X644132Y-42606D01*
X643810Y-42473D01*
Y-25066D01*
X644256Y-24768D01*
X644737Y-24049D01*
X644906Y-23200D01*
X644737Y-22351D01*
X644256Y-21632D01*
X643537Y-21151D01*
X642688Y-20983D01*
D02*
G37*
G36*
X632688Y-23683D02*
X631840Y-23851D01*
X631120Y-24332D01*
X630640Y-25051D01*
X630471Y-25900D01*
X630640Y-26749D01*
X631120Y-27468D01*
X631567Y-27766D01*
Y-42473D01*
X631244Y-42606D01*
X630646Y-43065D01*
X630187Y-43664D01*
X629898Y-44360D01*
X629800Y-45108D01*
X629898Y-45856D01*
X630187Y-46552D01*
X630646Y-47150D01*
X631244Y-47609D01*
X631941Y-47898D01*
X632688Y-47996D01*
X633436Y-47898D01*
X634132Y-47609D01*
X634731Y-47150D01*
X635190Y-46552D01*
X635478Y-45856D01*
X635577Y-45108D01*
X635478Y-44360D01*
X635190Y-43664D01*
X634731Y-43065D01*
X634132Y-42606D01*
X633810Y-42473D01*
Y-27766D01*
X634256Y-27468D01*
X634737Y-26749D01*
X634906Y-25900D01*
X634737Y-25051D01*
X634256Y-24332D01*
X633537Y-23851D01*
X632688Y-23683D01*
D02*
G37*
G36*
X623476Y-26383D02*
X622627Y-26551D01*
X621908Y-27032D01*
X621427Y-27751D01*
X621258Y-28600D01*
X621427Y-29449D01*
X621908Y-30168D01*
X622354Y-30466D01*
Y-42473D01*
X622031Y-42606D01*
X621433Y-43065D01*
X620974Y-43664D01*
X620685Y-44360D01*
X620587Y-45108D01*
X620685Y-45856D01*
X620974Y-46552D01*
X621433Y-47150D01*
X622031Y-47609D01*
X622728Y-47898D01*
X623476Y-47996D01*
X624223Y-47898D01*
X624920Y-47609D01*
X625518Y-47150D01*
X625977Y-46552D01*
X626266Y-45856D01*
X626364Y-45108D01*
X626266Y-44360D01*
X625977Y-43664D01*
X625518Y-43065D01*
X624920Y-42606D01*
X624597Y-42473D01*
Y-30466D01*
X625043Y-30168D01*
X625524Y-29449D01*
X625693Y-28600D01*
X625524Y-27751D01*
X625043Y-27032D01*
X624324Y-26551D01*
X623476Y-26383D01*
D02*
G37*
G36*
X613476Y-29083D02*
X612627Y-29251D01*
X611908Y-29732D01*
X611427Y-30451D01*
X611258Y-31300D01*
X611427Y-32149D01*
X611908Y-32868D01*
X612354Y-33166D01*
Y-42473D01*
X612031Y-42606D01*
X611433Y-43065D01*
X610974Y-43664D01*
X610685Y-44360D01*
X610587Y-45108D01*
X610685Y-45856D01*
X610974Y-46552D01*
X611433Y-47150D01*
X612031Y-47609D01*
X612728Y-47898D01*
X613476Y-47996D01*
X614223Y-47898D01*
X614920Y-47609D01*
X615518Y-47150D01*
X615977Y-46552D01*
X616266Y-45856D01*
X616364Y-45108D01*
X616266Y-44360D01*
X615977Y-43664D01*
X615518Y-43065D01*
X614920Y-42606D01*
X614597Y-42473D01*
Y-33166D01*
X615043Y-32868D01*
X615524Y-32149D01*
X615693Y-31300D01*
X615524Y-30451D01*
X615043Y-29732D01*
X614324Y-29251D01*
X613476Y-29083D01*
D02*
G37*
G36*
X593476Y-31783D02*
X592627Y-31951D01*
X591908Y-32432D01*
X591427Y-33151D01*
X591258Y-34000D01*
X591427Y-34849D01*
X591908Y-35568D01*
X592354Y-35866D01*
Y-42473D01*
X592031Y-42606D01*
X591433Y-43065D01*
X590974Y-43664D01*
X590686Y-44360D01*
X590587Y-45108D01*
X590686Y-45856D01*
X590974Y-46552D01*
X591433Y-47150D01*
X592031Y-47609D01*
X592728Y-47898D01*
X593476Y-47996D01*
X594223Y-47898D01*
X594920Y-47609D01*
X595518Y-47150D01*
X595977Y-46552D01*
X596266Y-45856D01*
X596364Y-45108D01*
X596266Y-44360D01*
X595977Y-43664D01*
X595518Y-43065D01*
X594920Y-42606D01*
X594597Y-42473D01*
Y-35866D01*
X595044Y-35568D01*
X595524Y-34849D01*
X595693Y-34000D01*
X595524Y-33151D01*
X595044Y-32432D01*
X594324Y-31951D01*
X593476Y-31783D01*
D02*
G37*
G36*
X583476Y-34683D02*
X582627Y-34851D01*
X581908Y-35332D01*
X581427Y-36051D01*
X581258Y-36900D01*
X581427Y-37749D01*
X581908Y-38468D01*
X582354Y-38766D01*
Y-42473D01*
X582031Y-42606D01*
X581433Y-43065D01*
X580974Y-43664D01*
X580686Y-44360D01*
X580587Y-45108D01*
X580686Y-45856D01*
X580974Y-46552D01*
X581433Y-47150D01*
X582031Y-47609D01*
X582728Y-47898D01*
X583476Y-47996D01*
X584223Y-47898D01*
X584920Y-47609D01*
X585518Y-47150D01*
X585977Y-46552D01*
X586266Y-45856D01*
X586364Y-45108D01*
X586266Y-44360D01*
X585977Y-43664D01*
X585518Y-43065D01*
X584920Y-42606D01*
X584597Y-42473D01*
Y-38766D01*
X585043Y-38468D01*
X585524Y-37749D01*
X585693Y-36900D01*
X585524Y-36051D01*
X585043Y-35332D01*
X584324Y-34851D01*
X583476Y-34683D01*
D02*
G37*
G36*
X521901Y-15483D02*
X521052Y-15651D01*
X520333Y-16132D01*
X519852Y-16851D01*
X519683Y-17700D01*
X519852Y-18549D01*
X520333Y-19268D01*
X520779Y-19566D01*
Y-42473D01*
X520457Y-42606D01*
X519858Y-43065D01*
X519399Y-43664D01*
X519111Y-44360D01*
X519012Y-45108D01*
X519111Y-45856D01*
X519399Y-46552D01*
X519858Y-47150D01*
X520457Y-47609D01*
X521153Y-47898D01*
X521901Y-47996D01*
X522648Y-47898D01*
X523345Y-47609D01*
X523943Y-47150D01*
X524402Y-46552D01*
X524691Y-45856D01*
X524789Y-45108D01*
X524691Y-44360D01*
X524402Y-43664D01*
X523943Y-43065D01*
X523345Y-42606D01*
X523022Y-42473D01*
Y-19566D01*
X523469Y-19268D01*
X523949Y-18549D01*
X524118Y-17700D01*
X523949Y-16851D01*
X523469Y-16132D01*
X522749Y-15651D01*
X521901Y-15483D01*
D02*
G37*
G36*
X511901Y-18283D02*
X511052Y-18451D01*
X510333Y-18932D01*
X509852Y-19651D01*
X509683Y-20500D01*
X509852Y-21349D01*
X510333Y-22068D01*
X510779Y-22366D01*
Y-42473D01*
X510457Y-42606D01*
X509858Y-43065D01*
X509399Y-43664D01*
X509111Y-44360D01*
X509012Y-45108D01*
X509111Y-45856D01*
X509399Y-46552D01*
X509858Y-47150D01*
X510457Y-47609D01*
X511153Y-47898D01*
X511901Y-47996D01*
X512648Y-47898D01*
X513345Y-47609D01*
X513943Y-47150D01*
X514402Y-46552D01*
X514691Y-45856D01*
X514789Y-45108D01*
X514691Y-44360D01*
X514402Y-43664D01*
X513943Y-43065D01*
X513345Y-42606D01*
X513022Y-42473D01*
Y-22366D01*
X513469Y-22068D01*
X513949Y-21349D01*
X514118Y-20500D01*
X513949Y-19651D01*
X513469Y-18932D01*
X512749Y-18451D01*
X511901Y-18283D01*
D02*
G37*
G36*
X491901Y-20983D02*
X491052Y-21151D01*
X490333Y-21632D01*
X489852Y-22351D01*
X489683Y-23200D01*
X489852Y-24049D01*
X490333Y-24768D01*
X490779Y-25066D01*
Y-42473D01*
X490456Y-42606D01*
X489858Y-43065D01*
X489399Y-43664D01*
X489111Y-44360D01*
X489012Y-45108D01*
X489111Y-45856D01*
X489399Y-46552D01*
X489858Y-47150D01*
X490456Y-47609D01*
X491153Y-47898D01*
X491901Y-47996D01*
X492648Y-47898D01*
X493345Y-47609D01*
X493943Y-47150D01*
X494402Y-46552D01*
X494691Y-45856D01*
X494789Y-45108D01*
X494691Y-44360D01*
X494402Y-43664D01*
X493943Y-43065D01*
X493345Y-42606D01*
X493022Y-42473D01*
Y-25066D01*
X493469Y-24768D01*
X493949Y-24049D01*
X494118Y-23200D01*
X493949Y-22351D01*
X493469Y-21632D01*
X492749Y-21151D01*
X491901Y-20983D01*
D02*
G37*
G36*
X481901Y-23683D02*
X481052Y-23851D01*
X480333Y-24332D01*
X479852Y-25051D01*
X479683Y-25900D01*
X479852Y-26749D01*
X480333Y-27468D01*
X480779Y-27766D01*
Y-42473D01*
X480456Y-42606D01*
X479858Y-43065D01*
X479399Y-43664D01*
X479111Y-44360D01*
X479012Y-45108D01*
X479111Y-45856D01*
X479399Y-46552D01*
X479858Y-47150D01*
X480456Y-47609D01*
X481153Y-47898D01*
X481901Y-47996D01*
X482648Y-47898D01*
X483345Y-47609D01*
X483943Y-47150D01*
X484402Y-46552D01*
X484691Y-45856D01*
X484789Y-45108D01*
X484691Y-44360D01*
X484402Y-43664D01*
X483943Y-43065D01*
X483345Y-42606D01*
X483022Y-42473D01*
Y-27766D01*
X483469Y-27468D01*
X483949Y-26749D01*
X484118Y-25900D01*
X483949Y-25051D01*
X483469Y-24332D01*
X482749Y-23851D01*
X481901Y-23683D01*
D02*
G37*
G36*
X472688Y-26383D02*
X471840Y-26551D01*
X471120Y-27032D01*
X470640Y-27751D01*
X470471Y-28600D01*
X470640Y-29449D01*
X471120Y-30168D01*
X471567Y-30466D01*
Y-42473D01*
X471244Y-42606D01*
X470646Y-43065D01*
X470187Y-43664D01*
X469898Y-44360D01*
X469800Y-45108D01*
X469898Y-45856D01*
X470187Y-46552D01*
X470646Y-47150D01*
X471244Y-47609D01*
X471941Y-47898D01*
X472688Y-47996D01*
X473436Y-47898D01*
X474132Y-47609D01*
X474731Y-47150D01*
X475190Y-46552D01*
X475478Y-45856D01*
X475577Y-45108D01*
X475478Y-44360D01*
X475190Y-43664D01*
X474731Y-43065D01*
X474132Y-42606D01*
X473810Y-42473D01*
Y-30466D01*
X474256Y-30168D01*
X474737Y-29449D01*
X474906Y-28600D01*
X474737Y-27751D01*
X474256Y-27032D01*
X473537Y-26551D01*
X472688Y-26383D01*
D02*
G37*
G36*
X462688Y-29083D02*
X461840Y-29251D01*
X461120Y-29732D01*
X460640Y-30451D01*
X460471Y-31300D01*
X460640Y-32149D01*
X461120Y-32868D01*
X461567Y-33166D01*
Y-42473D01*
X461244Y-42606D01*
X460646Y-43065D01*
X460187Y-43664D01*
X459898Y-44360D01*
X459800Y-45108D01*
X459898Y-45856D01*
X460187Y-46552D01*
X460646Y-47150D01*
X461244Y-47609D01*
X461941Y-47898D01*
X462688Y-47996D01*
X463436Y-47898D01*
X464132Y-47609D01*
X464731Y-47150D01*
X465190Y-46552D01*
X465478Y-45856D01*
X465577Y-45108D01*
X465478Y-44360D01*
X465190Y-43664D01*
X464731Y-43065D01*
X464132Y-42606D01*
X463810Y-42473D01*
Y-33166D01*
X464256Y-32868D01*
X464737Y-32149D01*
X464906Y-31300D01*
X464737Y-30451D01*
X464256Y-29732D01*
X463537Y-29251D01*
X462688Y-29083D01*
D02*
G37*
G36*
X442688Y-31783D02*
X441840Y-31951D01*
X441120Y-32432D01*
X440640Y-33151D01*
X440471Y-34000D01*
X440640Y-34849D01*
X441120Y-35568D01*
X441567Y-35866D01*
Y-42473D01*
X441244Y-42606D01*
X440646Y-43065D01*
X440187Y-43664D01*
X439898Y-44360D01*
X439800Y-45108D01*
X439898Y-45856D01*
X440187Y-46552D01*
X440646Y-47150D01*
X441244Y-47609D01*
X441941Y-47898D01*
X442688Y-47996D01*
X443436Y-47898D01*
X444132Y-47609D01*
X444731Y-47150D01*
X445190Y-46552D01*
X445478Y-45856D01*
X445577Y-45108D01*
X445478Y-44360D01*
X445190Y-43664D01*
X444731Y-43065D01*
X444132Y-42606D01*
X443810Y-42473D01*
Y-35866D01*
X444256Y-35568D01*
X444737Y-34849D01*
X444906Y-34000D01*
X444737Y-33151D01*
X444256Y-32432D01*
X443537Y-31951D01*
X442688Y-31783D01*
D02*
G37*
G36*
X432688Y-34683D02*
X431840Y-34851D01*
X431120Y-35332D01*
X430640Y-36051D01*
X430471Y-36900D01*
X430640Y-37749D01*
X431120Y-38468D01*
X431567Y-38766D01*
Y-42473D01*
X431244Y-42606D01*
X430646Y-43065D01*
X430187Y-43664D01*
X429898Y-44360D01*
X429800Y-45108D01*
X429898Y-45856D01*
X430187Y-46552D01*
X430646Y-47150D01*
X431244Y-47609D01*
X431941Y-47898D01*
X432688Y-47996D01*
X433436Y-47898D01*
X434132Y-47609D01*
X434731Y-47150D01*
X435190Y-46552D01*
X435478Y-45856D01*
X435577Y-45108D01*
X435478Y-44360D01*
X435190Y-43664D01*
X434731Y-43065D01*
X434132Y-42606D01*
X433810Y-42473D01*
Y-38766D01*
X434256Y-38468D01*
X434737Y-37749D01*
X434906Y-36900D01*
X434737Y-36051D01*
X434256Y-35332D01*
X433537Y-34851D01*
X432688Y-34683D01*
D02*
G37*
G36*
X423476Y-15583D02*
X422627Y-15751D01*
X421908Y-16232D01*
X421427Y-16951D01*
X421258Y-17800D01*
X421427Y-18649D01*
X421908Y-19368D01*
X422354Y-19666D01*
Y-42473D01*
X422031Y-42606D01*
X421433Y-43065D01*
X420974Y-43664D01*
X420685Y-44360D01*
X420587Y-45108D01*
X420685Y-45856D01*
X420974Y-46552D01*
X421433Y-47150D01*
X422031Y-47609D01*
X422728Y-47898D01*
X423476Y-47996D01*
X424223Y-47898D01*
X424920Y-47609D01*
X425518Y-47150D01*
X425977Y-46552D01*
X426266Y-45856D01*
X426364Y-45108D01*
X426266Y-44360D01*
X425977Y-43664D01*
X425518Y-43065D01*
X424920Y-42606D01*
X424597Y-42473D01*
Y-19666D01*
X425043Y-19368D01*
X425524Y-18649D01*
X425693Y-17800D01*
X425524Y-16951D01*
X425043Y-16232D01*
X424324Y-15751D01*
X423476Y-15583D01*
D02*
G37*
G36*
X413476Y-18283D02*
X412627Y-18451D01*
X411908Y-18932D01*
X411427Y-19651D01*
X411258Y-20500D01*
X411427Y-21349D01*
X411908Y-22068D01*
X412354Y-22366D01*
Y-42473D01*
X412031Y-42606D01*
X411433Y-43065D01*
X410974Y-43664D01*
X410685Y-44360D01*
X410587Y-45108D01*
X410685Y-45856D01*
X410974Y-46552D01*
X411433Y-47150D01*
X412031Y-47609D01*
X412728Y-47898D01*
X413476Y-47996D01*
X414223Y-47898D01*
X414920Y-47609D01*
X415518Y-47150D01*
X415977Y-46552D01*
X416266Y-45856D01*
X416364Y-45108D01*
X416266Y-44360D01*
X415977Y-43664D01*
X415518Y-43065D01*
X414920Y-42606D01*
X414597Y-42473D01*
Y-22366D01*
X415043Y-22068D01*
X415524Y-21349D01*
X415693Y-20500D01*
X415524Y-19651D01*
X415043Y-18932D01*
X414324Y-18451D01*
X413476Y-18283D01*
D02*
G37*
G36*
X393476Y-20983D02*
X392627Y-21151D01*
X391908Y-21632D01*
X391427Y-22351D01*
X391258Y-23200D01*
X391427Y-24049D01*
X391908Y-24768D01*
X392354Y-25066D01*
Y-42473D01*
X392031Y-42606D01*
X391433Y-43065D01*
X390974Y-43664D01*
X390686Y-44360D01*
X390587Y-45108D01*
X390686Y-45856D01*
X390974Y-46552D01*
X391433Y-47150D01*
X392031Y-47609D01*
X392728Y-47898D01*
X393476Y-47996D01*
X394223Y-47898D01*
X394920Y-47609D01*
X395518Y-47150D01*
X395977Y-46552D01*
X396266Y-45856D01*
X396364Y-45108D01*
X396266Y-44360D01*
X395977Y-43664D01*
X395518Y-43065D01*
X394920Y-42606D01*
X394597Y-42473D01*
Y-25066D01*
X395044Y-24768D01*
X395524Y-24049D01*
X395693Y-23200D01*
X395524Y-22351D01*
X395044Y-21632D01*
X394324Y-21151D01*
X393476Y-20983D01*
D02*
G37*
G36*
X383476Y-23683D02*
X382627Y-23851D01*
X381908Y-24332D01*
X381427Y-25051D01*
X381258Y-25900D01*
X381427Y-26749D01*
X381908Y-27468D01*
X382354Y-27766D01*
Y-42473D01*
X382031Y-42606D01*
X381433Y-43065D01*
X380974Y-43664D01*
X380685Y-44360D01*
X380587Y-45108D01*
X380685Y-45856D01*
X380974Y-46552D01*
X381433Y-47150D01*
X382031Y-47609D01*
X382728Y-47898D01*
X383476Y-47996D01*
X384223Y-47898D01*
X384920Y-47609D01*
X385518Y-47150D01*
X385977Y-46552D01*
X386266Y-45856D01*
X386364Y-45108D01*
X386266Y-44360D01*
X385977Y-43664D01*
X385518Y-43065D01*
X384920Y-42606D01*
X384597Y-42473D01*
Y-27766D01*
X385044Y-27468D01*
X385524Y-26749D01*
X385693Y-25900D01*
X385524Y-25051D01*
X385044Y-24332D01*
X384324Y-23851D01*
X383476Y-23683D01*
D02*
G37*
G36*
X344263Y-31783D02*
X343414Y-31951D01*
X342695Y-32432D01*
X342214Y-33151D01*
X342046Y-34000D01*
X342214Y-34849D01*
X342695Y-35568D01*
X343141Y-35866D01*
Y-42473D01*
X342819Y-42606D01*
X342220Y-43065D01*
X341761Y-43664D01*
X341473Y-44360D01*
X341374Y-45108D01*
X341473Y-45856D01*
X341761Y-46552D01*
X342220Y-47150D01*
X342819Y-47609D01*
X343515Y-47898D01*
X344263Y-47996D01*
X345011Y-47898D01*
X345707Y-47609D01*
X346305Y-47150D01*
X346764Y-46552D01*
X347053Y-45856D01*
X347151Y-45108D01*
X347053Y-44360D01*
X346764Y-43664D01*
X346305Y-43065D01*
X345707Y-42606D01*
X345385Y-42473D01*
Y-35866D01*
X345831Y-35568D01*
X346312Y-34849D01*
X346480Y-34000D01*
X346312Y-33151D01*
X345831Y-32432D01*
X345112Y-31951D01*
X344263Y-31783D01*
D02*
G37*
G36*
X334263Y-34583D02*
X333414Y-34751D01*
X332695Y-35232D01*
X332214Y-35951D01*
X332046Y-36800D01*
X332214Y-37649D01*
X332695Y-38368D01*
X333141Y-38666D01*
Y-42473D01*
X332819Y-42606D01*
X332221Y-43065D01*
X331762Y-43664D01*
X331473Y-44360D01*
X331375Y-45108D01*
X331473Y-45856D01*
X331762Y-46552D01*
X332221Y-47150D01*
X332819Y-47609D01*
X333515Y-47898D01*
X334263Y-47996D01*
X335011Y-47898D01*
X335707Y-47609D01*
X336305Y-47150D01*
X336765Y-46552D01*
X337053Y-45856D01*
X337152Y-45108D01*
X337053Y-44360D01*
X336765Y-43664D01*
X336305Y-43065D01*
X335707Y-42606D01*
X335384Y-42473D01*
Y-38666D01*
X335831Y-38368D01*
X336312Y-37649D01*
X336480Y-36800D01*
X336312Y-35951D01*
X335831Y-35232D01*
X335112Y-34751D01*
X334263Y-34583D01*
D02*
G37*
G36*
X277688Y-18283D02*
X276840Y-18451D01*
X276120Y-18932D01*
X275640Y-19651D01*
X275471Y-20500D01*
X275640Y-21349D01*
X276120Y-22068D01*
X276567Y-22366D01*
Y-42473D01*
X276244Y-42606D01*
X275646Y-43065D01*
X275187Y-43664D01*
X274898Y-44360D01*
X274800Y-45108D01*
X274898Y-45856D01*
X275187Y-46552D01*
X275646Y-47150D01*
X276244Y-47609D01*
X276941Y-47898D01*
X277688Y-47996D01*
X278436Y-47898D01*
X279132Y-47609D01*
X279731Y-47150D01*
X280190Y-46552D01*
X280478Y-45856D01*
X280577Y-45108D01*
X280478Y-44360D01*
X280190Y-43664D01*
X279731Y-43065D01*
X279132Y-42606D01*
X278810Y-42473D01*
Y-22366D01*
X279256Y-22068D01*
X279737Y-21349D01*
X279906Y-20500D01*
X279737Y-19651D01*
X279256Y-18932D01*
X278537Y-18451D01*
X277688Y-18283D01*
D02*
G37*
G36*
X267688Y-42219D02*
X266941Y-42318D01*
X266244Y-42606D01*
X265646Y-43065D01*
X265187Y-43664D01*
X264898Y-44360D01*
X264800Y-45108D01*
X264898Y-45856D01*
X265187Y-46552D01*
X265646Y-47150D01*
X266244Y-47609D01*
X266941Y-47898D01*
X267688Y-47996D01*
X268436Y-47898D01*
X269132Y-47609D01*
X269731Y-47150D01*
X270190Y-46552D01*
X270478Y-45856D01*
X270577Y-45108D01*
X270478Y-44360D01*
X270190Y-43664D01*
X269731Y-43065D01*
X269132Y-42606D01*
X268436Y-42318D01*
X267688Y-42219D01*
D02*
G37*
G36*
X257688Y-20983D02*
X256840Y-21151D01*
X256120Y-21632D01*
X255640Y-22351D01*
X255471Y-23200D01*
X255640Y-24049D01*
X256120Y-24768D01*
X256567Y-25066D01*
Y-42473D01*
X256244Y-42606D01*
X255646Y-43065D01*
X255187Y-43664D01*
X254898Y-44360D01*
X254800Y-45108D01*
X254898Y-45856D01*
X255187Y-46552D01*
X255646Y-47150D01*
X256244Y-47609D01*
X256941Y-47898D01*
X257688Y-47996D01*
X258436Y-47898D01*
X259132Y-47609D01*
X259731Y-47150D01*
X260190Y-46552D01*
X260478Y-45856D01*
X260577Y-45108D01*
X260478Y-44360D01*
X260190Y-43664D01*
X259731Y-43065D01*
X259132Y-42606D01*
X258810Y-42473D01*
Y-25066D01*
X259256Y-24768D01*
X259737Y-24049D01*
X259906Y-23200D01*
X259737Y-22351D01*
X259256Y-21632D01*
X258537Y-21151D01*
X257688Y-20983D01*
D02*
G37*
G36*
X247688Y-23683D02*
X246840Y-23851D01*
X246120Y-24332D01*
X245640Y-25051D01*
X245471Y-25900D01*
X245640Y-26749D01*
X246120Y-27468D01*
X246567Y-27766D01*
Y-42473D01*
X246244Y-42606D01*
X245646Y-43065D01*
X245187Y-43664D01*
X244898Y-44360D01*
X244800Y-45108D01*
X244898Y-45856D01*
X245187Y-46552D01*
X245646Y-47150D01*
X246244Y-47609D01*
X246941Y-47898D01*
X247688Y-47996D01*
X248436Y-47898D01*
X249132Y-47609D01*
X249731Y-47150D01*
X250190Y-46552D01*
X250478Y-45856D01*
X250577Y-45108D01*
X250478Y-44360D01*
X250190Y-43664D01*
X249731Y-43065D01*
X249132Y-42606D01*
X248810Y-42473D01*
Y-27766D01*
X249256Y-27468D01*
X249737Y-26749D01*
X249906Y-25900D01*
X249737Y-25051D01*
X249256Y-24332D01*
X248537Y-23851D01*
X247688Y-23683D01*
D02*
G37*
G36*
X238476Y-26383D02*
X237627Y-26551D01*
X236908Y-27032D01*
X236427Y-27751D01*
X236258Y-28600D01*
X236427Y-29449D01*
X236908Y-30168D01*
X237354Y-30466D01*
Y-42473D01*
X237031Y-42606D01*
X236433Y-43065D01*
X235974Y-43664D01*
X235685Y-44360D01*
X235587Y-45108D01*
X235685Y-45856D01*
X235974Y-46552D01*
X236433Y-47150D01*
X237031Y-47609D01*
X237728Y-47898D01*
X238476Y-47996D01*
X239223Y-47898D01*
X239920Y-47609D01*
X240518Y-47150D01*
X240977Y-46552D01*
X241266Y-45856D01*
X241364Y-45108D01*
X241266Y-44360D01*
X240977Y-43664D01*
X240518Y-43065D01*
X239920Y-42606D01*
X239597Y-42473D01*
Y-30466D01*
X240044Y-30168D01*
X240524Y-29449D01*
X240693Y-28600D01*
X240524Y-27751D01*
X240044Y-27032D01*
X239324Y-26551D01*
X238476Y-26383D01*
D02*
G37*
G36*
X228476Y-29083D02*
X227627Y-29251D01*
X226908Y-29732D01*
X226427Y-30451D01*
X226258Y-31300D01*
X226427Y-32149D01*
X226908Y-32868D01*
X227354Y-33166D01*
Y-42473D01*
X227031Y-42606D01*
X226433Y-43065D01*
X225974Y-43664D01*
X225686Y-44360D01*
X225587Y-45108D01*
X225686Y-45856D01*
X225974Y-46552D01*
X226433Y-47150D01*
X227031Y-47609D01*
X227728Y-47898D01*
X228476Y-47996D01*
X229223Y-47898D01*
X229920Y-47609D01*
X230518Y-47150D01*
X230977Y-46552D01*
X231266Y-45856D01*
X231364Y-45108D01*
X231266Y-44360D01*
X230977Y-43664D01*
X230518Y-43065D01*
X229920Y-42606D01*
X229597Y-42473D01*
Y-33166D01*
X230044Y-32868D01*
X230524Y-32149D01*
X230693Y-31300D01*
X230524Y-30451D01*
X230044Y-29732D01*
X229324Y-29251D01*
X228476Y-29083D01*
D02*
G37*
G36*
X190720Y-47813D02*
X188689D01*
Y-49844D01*
X188861Y-49821D01*
X189488Y-49562D01*
X190025Y-49149D01*
X190438Y-48611D01*
X190698Y-47985D01*
X190720Y-47813D01*
D02*
G37*
G36*
X187689D02*
X185658D01*
X185680Y-47985D01*
X185940Y-48611D01*
X186353Y-49149D01*
X186890Y-49562D01*
X187517Y-49821D01*
X187689Y-49844D01*
Y-47813D01*
D02*
G37*
G36*
X572835Y-37483D02*
X571986Y-37651D01*
X571267Y-38132D01*
X570786Y-38851D01*
X570617Y-39700D01*
X570786Y-40549D01*
X571267Y-41268D01*
X571713Y-41566D01*
Y-51626D01*
X570168D01*
Y-58337D01*
X575502D01*
Y-51626D01*
X573956D01*
Y-41566D01*
X574403Y-41268D01*
X574883Y-40549D01*
X575052Y-39700D01*
X574883Y-38851D01*
X574403Y-38132D01*
X573683Y-37651D01*
X572835Y-37483D01*
D02*
G37*
G36*
X558195Y-51565D02*
X557311Y-51681D01*
X556487Y-52023D01*
X555779Y-52566D01*
X555236Y-53273D01*
X554895Y-54097D01*
X554778Y-54981D01*
X554895Y-55866D01*
X555236Y-56690D01*
X555779Y-57397D01*
X556487Y-57940D01*
X557311Y-58282D01*
X558195Y-58398D01*
X559079Y-58282D01*
X559903Y-57940D01*
X560611Y-57397D01*
X561154Y-56690D01*
X561397Y-56103D01*
X562687D01*
Y-58337D01*
X568021D01*
Y-51626D01*
X562687D01*
Y-53860D01*
X561397D01*
X561154Y-53273D01*
X560611Y-52566D01*
X559903Y-52023D01*
X559079Y-51681D01*
X558195Y-51565D01*
D02*
G37*
G36*
X321171Y-41693D02*
X315050D01*
Y-45846D01*
X316989D01*
Y-53242D01*
X315876D01*
Y-61331D01*
X320226D01*
Y-58408D01*
X325876D01*
Y-61331D01*
X330226D01*
Y-58408D01*
X335876D01*
Y-61331D01*
X340226D01*
Y-53242D01*
X335876D01*
Y-56165D01*
X330226D01*
Y-53242D01*
X325876D01*
Y-56165D01*
X320226D01*
Y-53242D01*
X319232D01*
Y-45846D01*
X321171D01*
Y-41693D01*
D02*
G37*
G36*
X195000Y-26394D02*
X194151Y-26563D01*
X193432Y-27044D01*
X192951Y-27763D01*
X192783Y-28612D01*
X192951Y-29460D01*
X193432Y-30180D01*
X193957Y-30531D01*
Y-46525D01*
X193957Y-46525D01*
X194043Y-46954D01*
X194286Y-47318D01*
X197378Y-50411D01*
Y-52159D01*
X196621D01*
Y-61627D01*
X200379D01*
Y-52159D01*
X199622D01*
Y-49946D01*
X199536Y-49517D01*
X199293Y-49153D01*
X199293Y-49153D01*
X199067Y-48927D01*
X199150Y-48381D01*
X199385Y-47831D01*
X199920Y-47609D01*
X200518Y-47150D01*
X200977Y-46552D01*
X201266Y-45856D01*
X201364Y-45108D01*
X201266Y-44360D01*
X200977Y-43664D01*
X200518Y-43065D01*
X199920Y-42606D01*
X199597Y-42473D01*
Y-38766D01*
X200044Y-38468D01*
X200524Y-37749D01*
X200693Y-36900D01*
X200524Y-36051D01*
X200044Y-35332D01*
X199324Y-34851D01*
X198476Y-34683D01*
X197627Y-34851D01*
X197200Y-35137D01*
X196270Y-34756D01*
X196200Y-34694D01*
Y-30425D01*
X196568Y-30180D01*
X197049Y-29460D01*
X197217Y-28612D01*
X197049Y-27763D01*
X196568Y-27044D01*
X195849Y-26563D01*
X195000Y-26394D01*
D02*
G37*
G36*
X178500Y-31983D02*
X177651Y-32151D01*
X176932Y-32632D01*
X176451Y-33351D01*
X176283Y-34200D01*
X176451Y-35049D01*
X176932Y-35768D01*
X177378Y-36066D01*
Y-52159D01*
X176620D01*
Y-61627D01*
X180379D01*
Y-52159D01*
X179622D01*
Y-36066D01*
X180068Y-35768D01*
X180549Y-35049D01*
X180717Y-34200D01*
X180549Y-33351D01*
X180068Y-32632D01*
X179349Y-32151D01*
X178500Y-31983D01*
D02*
G37*
G36*
X173500Y-34483D02*
X172651Y-34651D01*
X171932Y-35132D01*
X171451Y-35851D01*
X171283Y-36700D01*
X171451Y-37549D01*
X171932Y-38268D01*
X172378Y-38566D01*
Y-52159D01*
X171621D01*
Y-61627D01*
X175380D01*
Y-52159D01*
X174622D01*
Y-38566D01*
X175068Y-38268D01*
X175549Y-37549D01*
X175717Y-36700D01*
X175549Y-35851D01*
X175068Y-35132D01*
X174349Y-34651D01*
X173500Y-34483D01*
D02*
G37*
G36*
X374263Y-26383D02*
X373414Y-26551D01*
X372695Y-27032D01*
X372214Y-27751D01*
X372046Y-28600D01*
X372214Y-29449D01*
X372695Y-30168D01*
X373141Y-30466D01*
Y-42473D01*
X372819Y-42606D01*
X372220Y-43065D01*
X371761Y-43664D01*
X371473Y-44360D01*
X371375Y-45108D01*
X371473Y-45856D01*
X371761Y-46552D01*
X372220Y-47150D01*
X372819Y-47609D01*
X373141Y-47743D01*
Y-51172D01*
X361594Y-62720D01*
X360670Y-62337D01*
Y-58816D01*
X365056Y-54430D01*
X365056Y-54430D01*
X365299Y-54066D01*
X365385Y-53637D01*
Y-47743D01*
X365707Y-47609D01*
X366305Y-47150D01*
X366764Y-46552D01*
X367053Y-45856D01*
X367151Y-45108D01*
X367053Y-44360D01*
X366764Y-43664D01*
X366305Y-43065D01*
X365707Y-42606D01*
X365385Y-42473D01*
Y-33166D01*
X365831Y-32868D01*
X366312Y-32149D01*
X366480Y-31300D01*
X366312Y-30451D01*
X365831Y-29732D01*
X365112Y-29251D01*
X364263Y-29083D01*
X363414Y-29251D01*
X362695Y-29732D01*
X362214Y-30451D01*
X362046Y-31300D01*
X362214Y-32149D01*
X362695Y-32868D01*
X363141Y-33166D01*
Y-42473D01*
X362819Y-42606D01*
X362221Y-43065D01*
X361761Y-43664D01*
X361473Y-44360D01*
X361374Y-45108D01*
X361473Y-45856D01*
X361761Y-46552D01*
X362221Y-47150D01*
X362819Y-47609D01*
X363141Y-47743D01*
Y-53172D01*
X359168Y-57146D01*
X355730Y-57146D01*
X355307Y-56321D01*
Y-47775D01*
X355707Y-47609D01*
X356306Y-47150D01*
X356765Y-46552D01*
X357053Y-45856D01*
X357152Y-45108D01*
X357053Y-44360D01*
X356765Y-43664D01*
X356306Y-43065D01*
X355707Y-42606D01*
X355011Y-42318D01*
X354263Y-42219D01*
X353515Y-42318D01*
X352819Y-42606D01*
X352221Y-43065D01*
X351762Y-43664D01*
X351473Y-44360D01*
X351375Y-45108D01*
X351473Y-45856D01*
X351762Y-46552D01*
X352221Y-47150D01*
X352819Y-47609D01*
X353064Y-47711D01*
Y-56257D01*
X352796Y-57146D01*
X352064Y-57146D01*
X347856D01*
Y-59541D01*
X347740Y-59564D01*
X347376Y-59807D01*
X318115Y-89069D01*
X315876D01*
Y-97158D01*
X320226D01*
Y-90129D01*
X346932Y-63423D01*
X347856Y-63806D01*
Y-64054D01*
X351837Y-64054D01*
X352175Y-64635D01*
X351837Y-65216D01*
X347856D01*
Y-67549D01*
X345669D01*
X345669Y-67549D01*
X345240Y-67635D01*
X344876Y-67878D01*
X327258Y-85496D01*
X327015Y-85860D01*
X326930Y-86289D01*
X326930Y-86289D01*
Y-89069D01*
X325876D01*
Y-97158D01*
X330226D01*
Y-89069D01*
X329173D01*
Y-86753D01*
X346134Y-69792D01*
X347856D01*
Y-72125D01*
X351837Y-72125D01*
X352175Y-72706D01*
X351837Y-73287D01*
X347856D01*
Y-75620D01*
X342520D01*
X342520Y-75620D01*
X342091Y-75706D01*
X341727Y-75949D01*
X341727Y-75949D01*
X337258Y-80417D01*
X337015Y-80781D01*
X336930Y-81210D01*
X336930Y-81210D01*
Y-89069D01*
X335876D01*
Y-97158D01*
X340226D01*
Y-89069D01*
X339173D01*
Y-81675D01*
X342984Y-77863D01*
X347856D01*
Y-80196D01*
X352796Y-80196D01*
X353064Y-81085D01*
Y-102505D01*
X352819Y-102606D01*
X352221Y-103065D01*
X351762Y-103664D01*
X351473Y-104360D01*
X351375Y-105108D01*
X351473Y-105856D01*
X351762Y-106552D01*
X352221Y-107150D01*
X352819Y-107609D01*
X353515Y-107898D01*
X354263Y-107996D01*
X355011Y-107898D01*
X355707Y-107609D01*
X356306Y-107150D01*
X356765Y-106552D01*
X357053Y-105856D01*
X357152Y-105108D01*
X357053Y-104360D01*
X356765Y-103664D01*
X356306Y-103065D01*
X355707Y-102606D01*
X355307Y-102441D01*
Y-85013D01*
X356134Y-84849D01*
X356853Y-84368D01*
X357334Y-83649D01*
X357503Y-82800D01*
X357334Y-81951D01*
X356853Y-81232D01*
X356800Y-81196D01*
X357103Y-80196D01*
X358910D01*
X363141Y-84427D01*
Y-102473D01*
X362819Y-102606D01*
X362221Y-103065D01*
X361761Y-103664D01*
X361473Y-104360D01*
X361374Y-105108D01*
X361473Y-105856D01*
X361761Y-106552D01*
X362221Y-107150D01*
X362819Y-107609D01*
X363141Y-107743D01*
Y-122634D01*
X362695Y-122932D01*
X362214Y-123651D01*
X362046Y-124500D01*
X362214Y-125349D01*
X362695Y-126068D01*
X363414Y-126549D01*
X364263Y-126717D01*
X365112Y-126549D01*
X365831Y-126068D01*
X366312Y-125349D01*
X366480Y-124500D01*
X366312Y-123651D01*
X365831Y-122932D01*
X365385Y-122634D01*
Y-107743D01*
X365707Y-107609D01*
X366305Y-107150D01*
X366764Y-106552D01*
X367053Y-105856D01*
X367151Y-105108D01*
X367053Y-104360D01*
X366764Y-103664D01*
X366305Y-103065D01*
X365707Y-102606D01*
X365385Y-102473D01*
Y-83963D01*
X365385Y-83963D01*
X365299Y-83534D01*
X365056Y-83170D01*
X365056Y-83170D01*
X360670Y-78784D01*
Y-73287D01*
X356600D01*
X356265Y-72706D01*
X356600Y-72125D01*
X360670D01*
Y-66816D01*
X375056Y-52430D01*
X375056Y-52430D01*
X375299Y-52066D01*
X375384Y-51637D01*
Y-47743D01*
X375707Y-47609D01*
X376306Y-47150D01*
X376764Y-46552D01*
X377053Y-45856D01*
X377151Y-45108D01*
X377053Y-44360D01*
X376764Y-43664D01*
X376306Y-43065D01*
X375707Y-42606D01*
X375384Y-42473D01*
Y-30466D01*
X375831Y-30168D01*
X376312Y-29449D01*
X376480Y-28600D01*
X376312Y-27751D01*
X375831Y-27032D01*
X375112Y-26551D01*
X374263Y-26383D01*
D02*
G37*
G36*
X702568Y-36378D02*
X697235D01*
Y-43090D01*
X698780D01*
Y-60548D01*
X698237Y-60773D01*
X697529Y-61316D01*
X696986Y-62023D01*
X696645Y-62847D01*
X696528Y-63731D01*
X696645Y-64616D01*
X696986Y-65440D01*
X697529Y-66147D01*
X698237Y-66690D01*
X699061Y-67032D01*
X699945Y-67148D01*
X700829Y-67032D01*
X701653Y-66690D01*
X702361Y-66147D01*
X702904Y-65440D01*
X703245Y-64616D01*
X703362Y-63731D01*
X703245Y-62847D01*
X702904Y-62023D01*
X702361Y-61316D01*
X701653Y-60773D01*
X701023Y-60512D01*
Y-43090D01*
X702568D01*
Y-36378D01*
D02*
G37*
G36*
X185380Y-52159D02*
X181621D01*
Y-61627D01*
X182378D01*
Y-63534D01*
X181932Y-63832D01*
X181451Y-64551D01*
X181283Y-65400D01*
X181451Y-66249D01*
X181932Y-66968D01*
X182651Y-67449D01*
X183500Y-67617D01*
X184349Y-67449D01*
X185068Y-66968D01*
X185549Y-66249D01*
X185717Y-65400D01*
X185549Y-64551D01*
X185068Y-63832D01*
X184622Y-63534D01*
Y-61627D01*
X185380D01*
Y-52159D01*
D02*
G37*
G36*
X308179Y-41693D02*
X302058D01*
Y-45846D01*
X303997D01*
Y-68767D01*
X302997Y-69301D01*
X302817Y-69181D01*
X301969Y-69012D01*
X301217Y-68300D01*
X301049Y-67451D01*
X300568Y-66732D01*
X299849Y-66251D01*
X299083Y-66099D01*
X299000Y-66083D01*
X298280Y-65400D01*
X298112Y-64551D01*
X297631Y-63832D01*
X296912Y-63351D01*
X296063Y-63183D01*
X296063Y-63183D01*
X295145Y-62670D01*
X294976Y-61822D01*
X294496Y-61102D01*
X293776Y-60622D01*
X292928Y-60453D01*
X292079Y-60622D01*
X291360Y-61102D01*
X290879Y-61822D01*
X290710Y-62670D01*
X290879Y-63519D01*
X291360Y-64238D01*
X291806Y-64536D01*
Y-75072D01*
X291360Y-75371D01*
X290879Y-76090D01*
X290710Y-76939D01*
X290879Y-77787D01*
X291360Y-78506D01*
X292079Y-78987D01*
X292928Y-79156D01*
X293776Y-78987D01*
X293941Y-78877D01*
X294941Y-79411D01*
Y-117234D01*
X294495Y-117532D01*
X294014Y-118251D01*
X293846Y-119100D01*
X294014Y-119949D01*
X294495Y-120668D01*
X295214Y-121149D01*
X295867Y-121278D01*
X296783Y-121800D01*
X296843Y-122104D01*
X296951Y-122649D01*
X297432Y-123368D01*
X298151Y-123849D01*
X298830Y-123984D01*
X299751Y-124478D01*
X299815Y-124797D01*
X299920Y-125327D01*
X300401Y-126046D01*
X301120Y-126527D01*
X301969Y-126695D01*
X302817Y-126527D01*
X303537Y-126046D01*
X304017Y-125327D01*
X304186Y-124478D01*
X304017Y-123629D01*
X303537Y-122910D01*
X303090Y-122612D01*
Y-88163D01*
X304090Y-87629D01*
X304270Y-87749D01*
X305118Y-87917D01*
X305967Y-87749D01*
X306686Y-87268D01*
X307167Y-86549D01*
X307335Y-85700D01*
X307167Y-84851D01*
X306686Y-84132D01*
X306240Y-83834D01*
Y-45846D01*
X308179D01*
Y-41693D01*
D02*
G37*
G36*
X190380Y-52159D02*
X186620D01*
Y-61627D01*
X187378D01*
Y-66434D01*
X186932Y-66732D01*
X186451Y-67451D01*
X186283Y-68300D01*
X186451Y-69149D01*
X186932Y-69868D01*
X187651Y-70349D01*
X188500Y-70517D01*
X189349Y-70349D01*
X190068Y-69868D01*
X190549Y-69149D01*
X190717Y-68300D01*
X190549Y-67451D01*
X190068Y-66732D01*
X189622Y-66434D01*
Y-61627D01*
X190380D01*
Y-52159D01*
D02*
G37*
G36*
X195379D02*
X191621D01*
Y-61627D01*
X192378D01*
Y-69434D01*
X191932Y-69732D01*
X191451Y-70451D01*
X191283Y-71300D01*
X191451Y-72149D01*
X191932Y-72868D01*
X192651Y-73349D01*
X193500Y-73517D01*
X194349Y-73349D01*
X195068Y-72868D01*
X195549Y-72149D01*
X195717Y-71300D01*
X195549Y-70451D01*
X195068Y-69732D01*
X194622Y-69434D01*
Y-61627D01*
X195379D01*
Y-52159D01*
D02*
G37*
G36*
X155379D02*
X151620D01*
Y-61627D01*
X152378D01*
Y-69634D01*
X151932Y-69932D01*
X151451Y-70651D01*
X151283Y-71500D01*
X151451Y-72349D01*
X151932Y-73068D01*
X152651Y-73549D01*
X153500Y-73717D01*
X154349Y-73549D01*
X155068Y-73068D01*
X155549Y-72349D01*
X155717Y-71500D01*
X155549Y-70651D01*
X155068Y-69932D01*
X154622Y-69634D01*
Y-61627D01*
X155379D01*
Y-52159D01*
D02*
G37*
G36*
X237457Y-77537D02*
X234063D01*
Y-80045D01*
X237457D01*
Y-77537D01*
D02*
G37*
G36*
X225780Y-77616D02*
X222386D01*
Y-80065D01*
X225780D01*
Y-77616D01*
D02*
G37*
G36*
X689945Y-60315D02*
X689061Y-60431D01*
X688237Y-60773D01*
X687529Y-61316D01*
X686986Y-62023D01*
X686645Y-62847D01*
X686528Y-63731D01*
X686645Y-64616D01*
X686986Y-65440D01*
X687529Y-66147D01*
X688237Y-66690D01*
X688823Y-66933D01*
Y-83530D01*
X688237Y-83773D01*
X687529Y-84316D01*
X686986Y-85023D01*
X686645Y-85847D01*
X686528Y-86731D01*
X686645Y-87616D01*
X686986Y-88440D01*
X687529Y-89147D01*
X688237Y-89690D01*
X689061Y-90032D01*
X689945Y-90148D01*
X690829Y-90032D01*
X691653Y-89690D01*
X692361Y-89147D01*
X692904Y-88440D01*
X693245Y-87616D01*
X693362Y-86731D01*
X693245Y-85847D01*
X692904Y-85023D01*
X692361Y-84316D01*
X691653Y-83773D01*
X691066Y-83530D01*
Y-66933D01*
X691653Y-66690D01*
X692361Y-66147D01*
X692904Y-65440D01*
X693245Y-64616D01*
X693362Y-63731D01*
X693245Y-62847D01*
X692904Y-62023D01*
X692361Y-61316D01*
X691653Y-60773D01*
X690829Y-60431D01*
X689945Y-60315D01*
D02*
G37*
G36*
X227764Y-90549D02*
Y-92580D01*
X229795D01*
X229772Y-92408D01*
X229513Y-91782D01*
X229100Y-91244D01*
X228562Y-90831D01*
X227936Y-90572D01*
X227764Y-90549D01*
D02*
G37*
G36*
X226764D02*
X226592Y-90572D01*
X225965Y-90831D01*
X225427Y-91244D01*
X225015Y-91782D01*
X224755Y-92408D01*
X224733Y-92580D01*
X226764D01*
Y-90549D01*
D02*
G37*
G36*
X220779Y-88373D02*
X219000D01*
Y-93007D01*
X220779D01*
Y-88373D01*
D02*
G37*
G36*
X229795Y-93580D02*
X227764D01*
Y-95612D01*
X227936Y-95589D01*
X228562Y-95329D01*
X229100Y-94917D01*
X229513Y-94379D01*
X229772Y-93752D01*
X229795Y-93580D01*
D02*
G37*
G36*
X226764D02*
X224733D01*
X224755Y-93752D01*
X225015Y-94379D01*
X225427Y-94917D01*
X225965Y-95329D01*
X226592Y-95589D01*
X226764Y-95612D01*
Y-93580D01*
D02*
G37*
G36*
X208700Y-77683D02*
X207851Y-77851D01*
X207132Y-78332D01*
X206651Y-79051D01*
X206483Y-79900D01*
X206651Y-80749D01*
X207132Y-81468D01*
X207578Y-81766D01*
Y-88773D01*
X206621D01*
Y-98241D01*
X210380D01*
Y-88773D01*
X209822D01*
Y-81766D01*
X210268Y-81468D01*
X210749Y-80749D01*
X210917Y-79900D01*
X210749Y-79051D01*
X210268Y-78332D01*
X209549Y-77851D01*
X208700Y-77683D01*
D02*
G37*
G36*
X203500Y-71883D02*
X202651Y-72051D01*
X201932Y-72532D01*
X201451Y-73251D01*
X201283Y-74100D01*
X201451Y-74949D01*
X201932Y-75668D01*
X202378Y-75966D01*
Y-88773D01*
X201621D01*
Y-98241D01*
X205380D01*
Y-88773D01*
X204622D01*
Y-75966D01*
X205068Y-75668D01*
X205549Y-74949D01*
X205717Y-74100D01*
X205549Y-73251D01*
X205068Y-72532D01*
X204349Y-72051D01*
X203500Y-71883D01*
D02*
G37*
G36*
X198500Y-80583D02*
X197651Y-80751D01*
X196932Y-81232D01*
X196451Y-81951D01*
X196283Y-82800D01*
X196451Y-83649D01*
X196932Y-84368D01*
X197378Y-84666D01*
Y-88773D01*
X196621D01*
Y-98241D01*
X200379D01*
Y-88773D01*
X199622D01*
Y-84666D01*
X200068Y-84368D01*
X200549Y-83649D01*
X200717Y-82800D01*
X200549Y-81951D01*
X200068Y-81232D01*
X199349Y-80751D01*
X198500Y-80583D01*
D02*
G37*
G36*
X193300Y-74783D02*
X192451Y-74951D01*
X191732Y-75432D01*
X191251Y-76151D01*
X191083Y-77000D01*
X191251Y-77849D01*
X191732Y-78568D01*
X192178Y-78866D01*
Y-88773D01*
X191621D01*
Y-98241D01*
X195379D01*
Y-88773D01*
X194422D01*
Y-78866D01*
X194868Y-78568D01*
X195349Y-77849D01*
X195517Y-77000D01*
X195349Y-76151D01*
X194868Y-75432D01*
X194149Y-74951D01*
X193300Y-74783D01*
D02*
G37*
G36*
X168500Y-18283D02*
X167651Y-18451D01*
X166932Y-18932D01*
X166451Y-19651D01*
X166283Y-20500D01*
X166451Y-21349D01*
X166932Y-22068D01*
X167378Y-22366D01*
Y-52159D01*
X166621D01*
Y-61627D01*
X167378D01*
Y-67600D01*
X167378Y-67600D01*
X167464Y-68029D01*
X167707Y-68393D01*
X173778Y-74465D01*
Y-83334D01*
X173332Y-83632D01*
X172851Y-84351D01*
X172683Y-85200D01*
X172851Y-86049D01*
X173332Y-86768D01*
X174051Y-87249D01*
X174900Y-87417D01*
X175749Y-87249D01*
X176468Y-86768D01*
X176478Y-86752D01*
X177478Y-87056D01*
Y-88773D01*
X176620D01*
Y-98241D01*
X180379D01*
Y-88773D01*
X179722D01*
Y-76047D01*
X180168Y-75749D01*
X180649Y-75029D01*
X180817Y-74181D01*
X180752Y-73852D01*
X181674Y-73360D01*
X182378Y-74065D01*
Y-88773D01*
X181621D01*
Y-98241D01*
X185380D01*
Y-88773D01*
X184622D01*
Y-73600D01*
X184622Y-73600D01*
X184536Y-73171D01*
X184293Y-72807D01*
X184293Y-72807D01*
X180813Y-69327D01*
X180917Y-68800D01*
X180749Y-67951D01*
X180268Y-67232D01*
X179549Y-66751D01*
X178700Y-66583D01*
X177851Y-66751D01*
X177132Y-67232D01*
X176651Y-67951D01*
X176483Y-68800D01*
X176651Y-69649D01*
X177132Y-70368D01*
X177851Y-70849D01*
X178660Y-71009D01*
X178600Y-71964D01*
X177751Y-72132D01*
X177032Y-72613D01*
X176766Y-73012D01*
X175970Y-73157D01*
X175810Y-73157D01*
X175592Y-73106D01*
X169622Y-67135D01*
Y-61627D01*
X170379D01*
Y-52159D01*
X169622D01*
Y-22366D01*
X170068Y-22068D01*
X170549Y-21349D01*
X170717Y-20500D01*
X170549Y-19651D01*
X170068Y-18932D01*
X169349Y-18451D01*
X168500Y-18283D01*
D02*
G37*
G36*
X163500Y-77483D02*
X162651Y-77651D01*
X161932Y-78132D01*
X161451Y-78851D01*
X161283Y-79700D01*
X161451Y-80549D01*
X161932Y-81268D01*
X162378Y-81566D01*
Y-88773D01*
X161620D01*
Y-98241D01*
X165380D01*
Y-88773D01*
X164622D01*
Y-81566D01*
X165068Y-81268D01*
X165549Y-80549D01*
X165717Y-79700D01*
X165549Y-78851D01*
X165068Y-78132D01*
X164349Y-77651D01*
X163500Y-77483D01*
D02*
G37*
G36*
X158500Y-80183D02*
X157651Y-80351D01*
X156932Y-80832D01*
X156451Y-81551D01*
X156283Y-82400D01*
X156451Y-83249D01*
X156932Y-83968D01*
X157378Y-84266D01*
Y-88773D01*
X156621D01*
Y-98241D01*
X160380D01*
Y-88773D01*
X159622D01*
Y-84266D01*
X160068Y-83968D01*
X160549Y-83249D01*
X160717Y-82400D01*
X160549Y-81551D01*
X160068Y-80832D01*
X159349Y-80351D01*
X158500Y-80183D01*
D02*
G37*
G36*
X220779Y-94007D02*
X219000D01*
Y-98641D01*
X220779D01*
Y-94007D01*
D02*
G37*
G36*
X213500Y-83483D02*
X212651Y-83651D01*
X211932Y-84132D01*
X211451Y-84851D01*
X211283Y-85700D01*
X211451Y-86549D01*
X211932Y-87268D01*
X212379Y-87566D01*
Y-88773D01*
X211620D01*
Y-98241D01*
X215220D01*
X215380Y-98241D01*
X216220Y-98625D01*
Y-98641D01*
X218000D01*
Y-93507D01*
Y-88373D01*
X216220D01*
Y-88373D01*
X215271Y-88512D01*
X215061Y-88421D01*
X215006Y-88240D01*
X215068Y-87268D01*
X215549Y-86549D01*
X215717Y-85700D01*
X215549Y-84851D01*
X215068Y-84132D01*
X214349Y-83651D01*
X213500Y-83483D01*
D02*
G37*
G36*
X558195Y-92065D02*
X557311Y-92181D01*
X556487Y-92523D01*
X555779Y-93066D01*
X555236Y-93773D01*
X554895Y-94597D01*
X554778Y-95481D01*
X554895Y-96366D01*
X555236Y-97190D01*
X555779Y-97897D01*
X556487Y-98440D01*
X557311Y-98782D01*
X558195Y-98898D01*
X559079Y-98782D01*
X559903Y-98440D01*
X560611Y-97897D01*
X561154Y-97190D01*
X561397Y-96603D01*
X562687D01*
Y-98798D01*
X568021D01*
Y-92087D01*
X562687D01*
Y-94360D01*
X561397D01*
X561154Y-93773D01*
X560611Y-93066D01*
X559903Y-92523D01*
X559079Y-92181D01*
X558195Y-92065D01*
D02*
G37*
G36*
X548195Y-51565D02*
X547311Y-51681D01*
X546487Y-52023D01*
X545779Y-52566D01*
X545236Y-53273D01*
X544895Y-54097D01*
X544778Y-54981D01*
X544895Y-55866D01*
X545236Y-56690D01*
X545779Y-57397D01*
X546487Y-57940D01*
X546973Y-58142D01*
Y-92321D01*
X546487Y-92523D01*
X545779Y-93066D01*
X545236Y-93773D01*
X544895Y-94597D01*
X544778Y-95481D01*
X544895Y-96366D01*
X545236Y-97190D01*
X545779Y-97897D01*
X546487Y-98440D01*
X547311Y-98782D01*
X548195Y-98898D01*
X549079Y-98782D01*
X549903Y-98440D01*
X550611Y-97897D01*
X551154Y-97190D01*
X551495Y-96366D01*
X551612Y-95481D01*
X551495Y-94597D01*
X551154Y-93773D01*
X550611Y-93066D01*
X549903Y-92523D01*
X549216Y-92238D01*
Y-58225D01*
X549903Y-57940D01*
X550611Y-57397D01*
X551154Y-56690D01*
X551495Y-55866D01*
X551612Y-54981D01*
X551495Y-54097D01*
X551154Y-53273D01*
X550611Y-52566D01*
X549903Y-52023D01*
X549079Y-51681D01*
X548195Y-51565D01*
D02*
G37*
G36*
X769056Y-102244D02*
X763328D01*
Y-107972D01*
X769056D01*
Y-102244D01*
D02*
G37*
G36*
X719843D02*
X714116D01*
Y-107972D01*
X719843D01*
Y-102244D01*
D02*
G37*
G36*
X806192Y-102219D02*
X805445Y-102318D01*
X804748Y-102606D01*
X804150Y-103065D01*
X803691Y-103664D01*
X803402Y-104360D01*
X803304Y-105108D01*
X803402Y-105856D01*
X803691Y-106552D01*
X804150Y-107150D01*
X804748Y-107609D01*
X805445Y-107898D01*
X806192Y-107996D01*
X806940Y-107898D01*
X807636Y-107609D01*
X808235Y-107150D01*
X808694Y-106552D01*
X808982Y-105856D01*
X809081Y-105108D01*
X808982Y-104360D01*
X808694Y-103664D01*
X808235Y-103065D01*
X807636Y-102606D01*
X806940Y-102318D01*
X806192Y-102219D01*
D02*
G37*
G36*
X796192D02*
X795444Y-102318D01*
X794748Y-102606D01*
X794150Y-103065D01*
X793691Y-103664D01*
X793402Y-104360D01*
X793304Y-105108D01*
X793402Y-105856D01*
X793691Y-106552D01*
X794150Y-107150D01*
X794748Y-107609D01*
X795444Y-107898D01*
X796192Y-107996D01*
X796940Y-107898D01*
X797636Y-107609D01*
X798235Y-107150D01*
X798694Y-106552D01*
X798982Y-105856D01*
X799081Y-105108D01*
X798982Y-104360D01*
X798694Y-103664D01*
X798235Y-103065D01*
X797636Y-102606D01*
X796940Y-102318D01*
X796192Y-102219D01*
D02*
G37*
G36*
X786192Y-42219D02*
X785444Y-42318D01*
X784748Y-42606D01*
X784150Y-43065D01*
X783691Y-43664D01*
X783402Y-44360D01*
X783304Y-45108D01*
X783402Y-45856D01*
X783691Y-46552D01*
X784150Y-47150D01*
X784748Y-47609D01*
X785115Y-47761D01*
Y-102454D01*
X784748Y-102606D01*
X784150Y-103065D01*
X783691Y-103664D01*
X783402Y-104360D01*
X783304Y-105108D01*
X783402Y-105856D01*
X783691Y-106552D01*
X784150Y-107150D01*
X784748Y-107609D01*
X785444Y-107898D01*
X786192Y-107996D01*
X786940Y-107898D01*
X787636Y-107609D01*
X788235Y-107150D01*
X788694Y-106552D01*
X788982Y-105856D01*
X789081Y-105108D01*
X788982Y-104360D01*
X788694Y-103664D01*
X788235Y-103065D01*
X787636Y-102606D01*
X787358Y-102491D01*
Y-47725D01*
X787636Y-47609D01*
X788235Y-47150D01*
X788694Y-46552D01*
X788982Y-45856D01*
X789081Y-45108D01*
X788982Y-44360D01*
X788694Y-43664D01*
X788235Y-43065D01*
X787636Y-42606D01*
X786940Y-42318D01*
X786192Y-42219D01*
D02*
G37*
G36*
X776192Y-102219D02*
X775445Y-102318D01*
X774748Y-102606D01*
X774150Y-103065D01*
X773691Y-103664D01*
X773402Y-104360D01*
X773304Y-105108D01*
X773402Y-105856D01*
X773691Y-106552D01*
X774150Y-107150D01*
X774748Y-107609D01*
X775445Y-107898D01*
X776192Y-107996D01*
X776940Y-107898D01*
X777636Y-107609D01*
X778235Y-107150D01*
X778694Y-106552D01*
X778982Y-105856D01*
X779081Y-105108D01*
X778982Y-104360D01*
X778694Y-103664D01*
X778235Y-103065D01*
X777636Y-102606D01*
X776940Y-102318D01*
X776192Y-102219D01*
D02*
G37*
G36*
X756980D02*
X756232Y-102318D01*
X755535Y-102606D01*
X754937Y-103065D01*
X754478Y-103664D01*
X754189Y-104360D01*
X754091Y-105108D01*
X754189Y-105856D01*
X754478Y-106552D01*
X754937Y-107150D01*
X755535Y-107609D01*
X756232Y-107898D01*
X756980Y-107996D01*
X757727Y-107898D01*
X758424Y-107609D01*
X759022Y-107150D01*
X759481Y-106552D01*
X759770Y-105856D01*
X759868Y-105108D01*
X759770Y-104360D01*
X759481Y-103664D01*
X759022Y-103065D01*
X758424Y-102606D01*
X757727Y-102318D01*
X756980Y-102219D01*
D02*
G37*
G36*
X746980D02*
X746232Y-102318D01*
X745535Y-102606D01*
X744937Y-103065D01*
X744478Y-103664D01*
X744190Y-104360D01*
X744091Y-105108D01*
X744190Y-105856D01*
X744478Y-106552D01*
X744937Y-107150D01*
X745535Y-107609D01*
X746232Y-107898D01*
X746980Y-107996D01*
X747727Y-107898D01*
X748424Y-107609D01*
X749022Y-107150D01*
X749481Y-106552D01*
X749770Y-105856D01*
X749868Y-105108D01*
X749770Y-104360D01*
X749481Y-103664D01*
X749022Y-103065D01*
X748424Y-102606D01*
X747727Y-102318D01*
X746980Y-102219D01*
D02*
G37*
G36*
X736979Y-42219D02*
X736232Y-42318D01*
X735535Y-42606D01*
X734937Y-43065D01*
X734478Y-43664D01*
X734190Y-44360D01*
X734091Y-45108D01*
X734190Y-45856D01*
X734478Y-46552D01*
X734937Y-47150D01*
X735535Y-47609D01*
X735891Y-47757D01*
Y-102459D01*
X735535Y-102606D01*
X734937Y-103065D01*
X734478Y-103664D01*
X734190Y-104360D01*
X734091Y-105108D01*
X734190Y-105856D01*
X734478Y-106552D01*
X734937Y-107150D01*
X735535Y-107609D01*
X736232Y-107898D01*
X736979Y-107996D01*
X737727Y-107898D01*
X738424Y-107609D01*
X739022Y-107150D01*
X739481Y-106552D01*
X739770Y-105856D01*
X739868Y-105108D01*
X739770Y-104360D01*
X739481Y-103664D01*
X739022Y-103065D01*
X738424Y-102606D01*
X738134Y-102487D01*
Y-47729D01*
X738424Y-47609D01*
X739022Y-47150D01*
X739481Y-46552D01*
X739770Y-45856D01*
X739868Y-45108D01*
X739770Y-44360D01*
X739481Y-43664D01*
X739022Y-43065D01*
X738424Y-42606D01*
X737727Y-42318D01*
X736979Y-42219D01*
D02*
G37*
G36*
X726979Y-102219D02*
X726232Y-102318D01*
X725535Y-102606D01*
X724937Y-103065D01*
X724478Y-103664D01*
X724190Y-104360D01*
X724091Y-105108D01*
X724190Y-105856D01*
X724478Y-106552D01*
X724937Y-107150D01*
X725535Y-107609D01*
X726232Y-107898D01*
X726979Y-107996D01*
X727727Y-107898D01*
X728424Y-107609D01*
X729022Y-107150D01*
X729481Y-106552D01*
X729770Y-105856D01*
X729868Y-105108D01*
X729770Y-104360D01*
X729481Y-103664D01*
X729022Y-103065D01*
X728424Y-102606D01*
X727727Y-102318D01*
X726979Y-102219D01*
D02*
G37*
G36*
X672688D02*
X671941Y-102318D01*
X671244Y-102606D01*
X670646Y-103065D01*
X670187Y-103664D01*
X669898Y-104360D01*
X669800Y-105108D01*
X669898Y-105856D01*
X670187Y-106552D01*
X670646Y-107150D01*
X671244Y-107609D01*
X671941Y-107898D01*
X672688Y-107996D01*
X673436Y-107898D01*
X674132Y-107609D01*
X674731Y-107150D01*
X675190Y-106552D01*
X675478Y-105856D01*
X675577Y-105108D01*
X675478Y-104360D01*
X675190Y-103664D01*
X674731Y-103065D01*
X674132Y-102606D01*
X673436Y-102318D01*
X672688Y-102219D01*
D02*
G37*
G36*
X652688Y-42219D02*
X651941Y-42318D01*
X651244Y-42606D01*
X650646Y-43065D01*
X650187Y-43664D01*
X649898Y-44360D01*
X649800Y-45108D01*
X649898Y-45856D01*
X650187Y-46552D01*
X650646Y-47150D01*
X651244Y-47609D01*
X651567Y-47743D01*
Y-102473D01*
X651244Y-102606D01*
X650646Y-103065D01*
X650187Y-103664D01*
X649898Y-104360D01*
X649800Y-105108D01*
X649898Y-105856D01*
X650187Y-106552D01*
X650646Y-107150D01*
X651244Y-107609D01*
X651941Y-107898D01*
X652688Y-107996D01*
X653436Y-107898D01*
X654132Y-107609D01*
X654731Y-107150D01*
X655190Y-106552D01*
X655478Y-105856D01*
X655577Y-105108D01*
X655478Y-104360D01*
X655190Y-103664D01*
X654731Y-103065D01*
X654132Y-102606D01*
X653810Y-102473D01*
Y-47743D01*
X654132Y-47609D01*
X654731Y-47150D01*
X655190Y-46552D01*
X655478Y-45856D01*
X655577Y-45108D01*
X655478Y-44360D01*
X655190Y-43664D01*
X654731Y-43065D01*
X654132Y-42606D01*
X653436Y-42318D01*
X652688Y-42219D01*
D02*
G37*
G36*
X623476Y-102219D02*
X622728Y-102318D01*
X622031Y-102606D01*
X621433Y-103065D01*
X620974Y-103664D01*
X620685Y-104360D01*
X620587Y-105108D01*
X620685Y-105856D01*
X620974Y-106552D01*
X621433Y-107150D01*
X622031Y-107609D01*
X622728Y-107898D01*
X623476Y-107996D01*
X624223Y-107898D01*
X624920Y-107609D01*
X625518Y-107150D01*
X625977Y-106552D01*
X626266Y-105856D01*
X626364Y-105108D01*
X626266Y-104360D01*
X625977Y-103664D01*
X625518Y-103065D01*
X624920Y-102606D01*
X624223Y-102318D01*
X623476Y-102219D01*
D02*
G37*
G36*
X603476Y-42219D02*
X602728Y-42318D01*
X602031Y-42606D01*
X601433Y-43065D01*
X600974Y-43664D01*
X600686Y-44360D01*
X600587Y-45108D01*
X600686Y-45856D01*
X600974Y-46552D01*
X601433Y-47150D01*
X602031Y-47609D01*
X602354Y-47743D01*
Y-102473D01*
X602031Y-102606D01*
X601433Y-103065D01*
X600974Y-103664D01*
X600686Y-104360D01*
X600587Y-105108D01*
X600686Y-105856D01*
X600974Y-106552D01*
X601433Y-107150D01*
X602031Y-107609D01*
X602728Y-107898D01*
X603476Y-107996D01*
X604223Y-107898D01*
X604920Y-107609D01*
X605518Y-107150D01*
X605977Y-106552D01*
X606266Y-105856D01*
X606364Y-105108D01*
X606266Y-104360D01*
X605977Y-103664D01*
X605518Y-103065D01*
X604920Y-102606D01*
X604597Y-102473D01*
Y-47743D01*
X604920Y-47609D01*
X605518Y-47150D01*
X605977Y-46552D01*
X606266Y-45856D01*
X606364Y-45108D01*
X606266Y-44360D01*
X605977Y-43664D01*
X605518Y-43065D01*
X604920Y-42606D01*
X604223Y-42318D01*
X603476Y-42219D01*
D02*
G37*
G36*
X521901Y-102219D02*
X521153Y-102318D01*
X520457Y-102606D01*
X519858Y-103065D01*
X519399Y-103664D01*
X519111Y-104360D01*
X519012Y-105108D01*
X519111Y-105856D01*
X519399Y-106552D01*
X519858Y-107150D01*
X520457Y-107609D01*
X521153Y-107898D01*
X521901Y-107996D01*
X522648Y-107898D01*
X523345Y-107609D01*
X523943Y-107150D01*
X524402Y-106552D01*
X524691Y-105856D01*
X524789Y-105108D01*
X524691Y-104360D01*
X524402Y-103664D01*
X523943Y-103065D01*
X523345Y-102606D01*
X522648Y-102318D01*
X521901Y-102219D01*
D02*
G37*
G36*
X501901Y-42219D02*
X501153Y-42318D01*
X500456Y-42606D01*
X499858Y-43065D01*
X499399Y-43664D01*
X499111Y-44360D01*
X499012Y-45108D01*
X499111Y-45856D01*
X499399Y-46552D01*
X499858Y-47150D01*
X500456Y-47609D01*
X500835Y-47766D01*
Y-102450D01*
X500456Y-102606D01*
X499858Y-103065D01*
X499399Y-103664D01*
X499111Y-104360D01*
X499012Y-105108D01*
X499111Y-105856D01*
X499399Y-106552D01*
X499858Y-107150D01*
X500456Y-107609D01*
X501153Y-107898D01*
X501901Y-107996D01*
X502648Y-107898D01*
X503345Y-107609D01*
X503943Y-107150D01*
X504402Y-106552D01*
X504691Y-105856D01*
X504789Y-105108D01*
X504691Y-104360D01*
X504402Y-103664D01*
X503943Y-103065D01*
X503345Y-102606D01*
X503078Y-102496D01*
Y-47720D01*
X503345Y-47609D01*
X503943Y-47150D01*
X504402Y-46552D01*
X504691Y-45856D01*
X504789Y-45108D01*
X504691Y-44360D01*
X504402Y-43664D01*
X503943Y-43065D01*
X503345Y-42606D01*
X502648Y-42318D01*
X501901Y-42219D01*
D02*
G37*
G36*
X472688Y-102219D02*
X471941Y-102318D01*
X471244Y-102606D01*
X470646Y-103065D01*
X470187Y-103664D01*
X469898Y-104360D01*
X469800Y-105108D01*
X469898Y-105856D01*
X470187Y-106552D01*
X470646Y-107150D01*
X471244Y-107609D01*
X471941Y-107898D01*
X472688Y-107996D01*
X473436Y-107898D01*
X474132Y-107609D01*
X474731Y-107150D01*
X475190Y-106552D01*
X475478Y-105856D01*
X475577Y-105108D01*
X475478Y-104360D01*
X475190Y-103664D01*
X474731Y-103065D01*
X474132Y-102606D01*
X473436Y-102318D01*
X472688Y-102219D01*
D02*
G37*
G36*
X452688Y-42219D02*
X451941Y-42318D01*
X451244Y-42606D01*
X450646Y-43065D01*
X450187Y-43664D01*
X449898Y-44360D01*
X449800Y-45108D01*
X449898Y-45856D01*
X450187Y-46552D01*
X450646Y-47150D01*
X451244Y-47609D01*
X451611Y-47761D01*
Y-102454D01*
X451244Y-102606D01*
X450646Y-103065D01*
X450187Y-103664D01*
X449898Y-104360D01*
X449800Y-105108D01*
X449898Y-105856D01*
X450187Y-106552D01*
X450646Y-107150D01*
X451244Y-107609D01*
X451941Y-107898D01*
X452688Y-107996D01*
X453436Y-107898D01*
X454132Y-107609D01*
X454731Y-107150D01*
X455190Y-106552D01*
X455478Y-105856D01*
X455577Y-105108D01*
X455478Y-104360D01*
X455190Y-103664D01*
X454731Y-103065D01*
X454132Y-102606D01*
X453854Y-102491D01*
Y-47725D01*
X454132Y-47609D01*
X454731Y-47150D01*
X455190Y-46552D01*
X455478Y-45856D01*
X455577Y-45108D01*
X455478Y-44360D01*
X455190Y-43664D01*
X454731Y-43065D01*
X454132Y-42606D01*
X453436Y-42318D01*
X452688Y-42219D01*
D02*
G37*
G36*
X423476Y-102219D02*
X422728Y-102318D01*
X422031Y-102606D01*
X421433Y-103065D01*
X420974Y-103664D01*
X420685Y-104360D01*
X420587Y-105108D01*
X420685Y-105856D01*
X420974Y-106552D01*
X421433Y-107150D01*
X422031Y-107609D01*
X422728Y-107898D01*
X423476Y-107996D01*
X424223Y-107898D01*
X424920Y-107609D01*
X425518Y-107150D01*
X425977Y-106552D01*
X426266Y-105856D01*
X426364Y-105108D01*
X426266Y-104360D01*
X425977Y-103664D01*
X425518Y-103065D01*
X424920Y-102606D01*
X424223Y-102318D01*
X423476Y-102219D01*
D02*
G37*
G36*
X403476Y-42219D02*
X402728Y-42318D01*
X402031Y-42606D01*
X401433Y-43065D01*
X400974Y-43664D01*
X400686Y-44360D01*
X400587Y-45108D01*
X400686Y-45856D01*
X400974Y-46552D01*
X401433Y-47150D01*
X402031Y-47609D01*
X402363Y-47747D01*
Y-102469D01*
X402031Y-102606D01*
X401433Y-103065D01*
X400974Y-103664D01*
X400686Y-104360D01*
X400587Y-105108D01*
X400686Y-105856D01*
X400974Y-106552D01*
X401433Y-107150D01*
X402031Y-107609D01*
X402728Y-107898D01*
X403476Y-107996D01*
X404223Y-107898D01*
X404920Y-107609D01*
X405518Y-107150D01*
X405977Y-106552D01*
X406266Y-105856D01*
X406364Y-105108D01*
X406266Y-104360D01*
X405977Y-103664D01*
X405518Y-103065D01*
X404920Y-102606D01*
X404606Y-102477D01*
Y-47739D01*
X404920Y-47609D01*
X405518Y-47150D01*
X405977Y-46552D01*
X406266Y-45856D01*
X406364Y-45108D01*
X406266Y-44360D01*
X405977Y-43664D01*
X405518Y-43065D01*
X404920Y-42606D01*
X404223Y-42318D01*
X403476Y-42219D01*
D02*
G37*
G36*
X374263Y-102219D02*
X373515Y-102318D01*
X372819Y-102606D01*
X372220Y-103065D01*
X371761Y-103664D01*
X371473Y-104360D01*
X371375Y-105108D01*
X371473Y-105856D01*
X371761Y-106552D01*
X372220Y-107150D01*
X372819Y-107609D01*
X373515Y-107898D01*
X374263Y-107996D01*
X375011Y-107898D01*
X375707Y-107609D01*
X376306Y-107150D01*
X376764Y-106552D01*
X377053Y-105856D01*
X377151Y-105108D01*
X377053Y-104360D01*
X376764Y-103664D01*
X376306Y-103065D01*
X375707Y-102606D01*
X375011Y-102318D01*
X374263Y-102219D01*
D02*
G37*
G36*
X287688D02*
X286941Y-102318D01*
X286244Y-102606D01*
X285646Y-103065D01*
X285187Y-103664D01*
X284898Y-104360D01*
X284800Y-105108D01*
X284898Y-105856D01*
X285187Y-106552D01*
X285646Y-107150D01*
X286244Y-107609D01*
X286941Y-107898D01*
X287688Y-107996D01*
X288436Y-107898D01*
X289132Y-107609D01*
X289731Y-107150D01*
X290190Y-106552D01*
X290478Y-105856D01*
X290577Y-105108D01*
X290478Y-104360D01*
X290190Y-103664D01*
X289731Y-103065D01*
X289132Y-102606D01*
X288436Y-102318D01*
X287688Y-102219D01*
D02*
G37*
G36*
X267333Y-74783D02*
X266484Y-74951D01*
X265765Y-75432D01*
X265284Y-76151D01*
X265115Y-77000D01*
X265284Y-77849D01*
X265765Y-78568D01*
X266211Y-78866D01*
Y-102632D01*
X265646Y-103065D01*
X265187Y-103664D01*
X264898Y-104360D01*
X264800Y-105108D01*
X264898Y-105856D01*
X265187Y-106552D01*
X265646Y-107150D01*
X266244Y-107609D01*
X266941Y-107898D01*
X267688Y-107996D01*
X268436Y-107898D01*
X269132Y-107609D01*
X269731Y-107150D01*
X270190Y-106552D01*
X270478Y-105856D01*
X270577Y-105108D01*
X270478Y-104360D01*
X270190Y-103664D01*
X269731Y-103065D01*
X269132Y-102606D01*
X268454Y-102325D01*
Y-78866D01*
X268901Y-78568D01*
X269381Y-77849D01*
X269550Y-77000D01*
X269381Y-76151D01*
X268901Y-75432D01*
X268181Y-74951D01*
X267333Y-74783D01*
D02*
G37*
G36*
X238476Y-102219D02*
X237728Y-102318D01*
X237031Y-102606D01*
X236433Y-103065D01*
X235974Y-103664D01*
X235685Y-104360D01*
X235587Y-105108D01*
X235685Y-105856D01*
X235974Y-106552D01*
X236433Y-107150D01*
X237031Y-107609D01*
X237728Y-107898D01*
X238476Y-107996D01*
X239223Y-107898D01*
X239920Y-107609D01*
X240518Y-107150D01*
X240977Y-106552D01*
X241266Y-105856D01*
X241364Y-105108D01*
X241266Y-104360D01*
X240977Y-103664D01*
X240518Y-103065D01*
X239920Y-102606D01*
X239223Y-102318D01*
X238476Y-102219D01*
D02*
G37*
G36*
X218476D02*
X217728Y-102318D01*
X217031Y-102606D01*
X216433Y-103065D01*
X215974Y-103664D01*
X215686Y-104360D01*
X215587Y-105108D01*
X215686Y-105856D01*
X215974Y-106552D01*
X216433Y-107150D01*
X217031Y-107609D01*
X217728Y-107898D01*
X218476Y-107996D01*
X219223Y-107898D01*
X219920Y-107609D01*
X220518Y-107150D01*
X220977Y-106552D01*
X221266Y-105856D01*
X221364Y-105108D01*
X221266Y-104360D01*
X220977Y-103664D01*
X220518Y-103065D01*
X219920Y-102606D01*
X219223Y-102318D01*
X218476Y-102219D01*
D02*
G37*
G36*
X117058Y-102382D02*
X116119Y-102506D01*
X115243Y-102869D01*
X114491Y-103446D01*
X113914Y-104198D01*
X113551Y-105074D01*
X113427Y-106013D01*
X113551Y-106953D01*
X113914Y-107829D01*
X114491Y-108581D01*
X115243Y-109158D01*
X116119Y-109521D01*
X117058Y-109644D01*
X117998Y-109521D01*
X118874Y-109158D01*
X119626Y-108581D01*
X120203Y-107829D01*
X120566Y-106953D01*
X120689Y-106013D01*
X120566Y-105074D01*
X120203Y-104198D01*
X119626Y-103446D01*
X118874Y-102869D01*
X117998Y-102506D01*
X117058Y-102382D01*
D02*
G37*
G36*
X97058D02*
X96118Y-102506D01*
X95243Y-102869D01*
X94491Y-103446D01*
X93914Y-104198D01*
X93551Y-105074D01*
X93427Y-106013D01*
X93551Y-106953D01*
X93914Y-107829D01*
X94491Y-108581D01*
X95243Y-109158D01*
X96118Y-109521D01*
X97058Y-109644D01*
X97998Y-109521D01*
X98874Y-109158D01*
X99626Y-108581D01*
X100203Y-107829D01*
X100566Y-106953D01*
X100689Y-106013D01*
X100566Y-105074D01*
X100203Y-104198D01*
X99626Y-103446D01*
X98874Y-102869D01*
X97998Y-102506D01*
X97058Y-102382D01*
D02*
G37*
G36*
X77058D02*
X76118Y-102506D01*
X75243Y-102869D01*
X74491Y-103446D01*
X73914Y-104198D01*
X73551Y-105074D01*
X73427Y-106013D01*
X73551Y-106953D01*
X73914Y-107829D01*
X74491Y-108581D01*
X75243Y-109158D01*
X76118Y-109521D01*
X77058Y-109644D01*
X77998Y-109521D01*
X78874Y-109158D01*
X79626Y-108581D01*
X80203Y-107829D01*
X80566Y-106953D01*
X80689Y-106013D01*
X80566Y-105074D01*
X80203Y-104198D01*
X79626Y-103446D01*
X78874Y-102869D01*
X77998Y-102506D01*
X77058Y-102382D01*
D02*
G37*
G36*
X67058D02*
X66119Y-102506D01*
X65243Y-102869D01*
X64491Y-103446D01*
X63914Y-104198D01*
X63551Y-105074D01*
X63427Y-106013D01*
X63551Y-106953D01*
X63914Y-107829D01*
X64491Y-108581D01*
X65243Y-109158D01*
X66119Y-109521D01*
X67058Y-109644D01*
X67998Y-109521D01*
X68874Y-109158D01*
X69626Y-108581D01*
X70203Y-107829D01*
X70566Y-106953D01*
X70689Y-106013D01*
X70566Y-105074D01*
X70203Y-104198D01*
X69626Y-103446D01*
X68874Y-102869D01*
X67998Y-102506D01*
X67058Y-102382D01*
D02*
G37*
G36*
X57058D02*
X56119Y-102506D01*
X55243Y-102869D01*
X54491Y-103446D01*
X53914Y-104198D01*
X53551Y-105074D01*
X53427Y-106013D01*
X53551Y-106953D01*
X53914Y-107829D01*
X54491Y-108581D01*
X55243Y-109158D01*
X56119Y-109521D01*
X57058Y-109644D01*
X57998Y-109521D01*
X58874Y-109158D01*
X59626Y-108581D01*
X60203Y-107829D01*
X60566Y-106953D01*
X60689Y-106013D01*
X60566Y-105074D01*
X60203Y-104198D01*
X59626Y-103446D01*
X58874Y-102869D01*
X57998Y-102506D01*
X57058Y-102382D01*
D02*
G37*
G36*
X47058D02*
X46119Y-102506D01*
X45243Y-102869D01*
X44491Y-103446D01*
X43914Y-104198D01*
X43551Y-105074D01*
X43427Y-106013D01*
X43551Y-106953D01*
X43914Y-107829D01*
X44491Y-108581D01*
X45243Y-109158D01*
X46119Y-109521D01*
X47058Y-109644D01*
X47998Y-109521D01*
X48874Y-109158D01*
X49626Y-108581D01*
X50203Y-107829D01*
X50566Y-106953D01*
X50689Y-106013D01*
X50566Y-105074D01*
X50203Y-104198D01*
X49626Y-103446D01*
X48874Y-102869D01*
X47998Y-102506D01*
X47058Y-102382D01*
D02*
G37*
G36*
X695187Y-113044D02*
X689853D01*
Y-115286D01*
X685036D01*
X684737Y-114839D01*
X684018Y-114358D01*
X683169Y-114190D01*
X682321Y-114358D01*
X681601Y-114839D01*
X681121Y-115559D01*
X680952Y-116407D01*
X681121Y-117256D01*
X681601Y-117975D01*
X682321Y-118456D01*
X683169Y-118624D01*
X684018Y-118456D01*
X684737Y-117975D01*
X685036Y-117529D01*
X689853D01*
Y-119756D01*
X695187D01*
Y-113044D01*
D02*
G37*
G36*
X190380Y-88773D02*
X186620D01*
Y-98241D01*
X187378D01*
Y-111734D01*
X186932Y-112032D01*
X186451Y-112751D01*
X186283Y-113600D01*
X186451Y-114449D01*
X186932Y-115168D01*
X187651Y-115649D01*
X188500Y-115817D01*
X189349Y-115649D01*
X190068Y-115168D01*
X190549Y-114449D01*
X190717Y-113600D01*
X190549Y-112751D01*
X190068Y-112032D01*
X189622Y-111734D01*
Y-98241D01*
X190380D01*
Y-88773D01*
D02*
G37*
G36*
X575502Y-92087D02*
X570168D01*
Y-98798D01*
X571713D01*
Y-114534D01*
X571267Y-114832D01*
X570786Y-115551D01*
X570617Y-116400D01*
X570786Y-117249D01*
X571267Y-117968D01*
X571986Y-118449D01*
X572835Y-118617D01*
X573683Y-118449D01*
X574403Y-117968D01*
X574883Y-117249D01*
X575052Y-116400D01*
X574883Y-115551D01*
X574403Y-114832D01*
X573956Y-114534D01*
Y-98798D01*
X575502D01*
Y-92087D01*
D02*
G37*
G36*
X175380Y-88773D02*
X171621D01*
Y-98241D01*
X172378D01*
Y-114534D01*
X171932Y-114832D01*
X171451Y-115551D01*
X171283Y-116400D01*
X171451Y-117249D01*
X171932Y-117968D01*
X172651Y-118449D01*
X173500Y-118617D01*
X174349Y-118449D01*
X175068Y-117968D01*
X175549Y-117249D01*
X175717Y-116400D01*
X175549Y-115551D01*
X175068Y-114832D01*
X174622Y-114534D01*
Y-98241D01*
X175380D01*
Y-88773D01*
D02*
G37*
G36*
X699945Y-83315D02*
X699061Y-83431D01*
X698237Y-83773D01*
X697529Y-84316D01*
X696986Y-85023D01*
X696645Y-85847D01*
X696528Y-86731D01*
X696645Y-87616D01*
X696986Y-88440D01*
X697529Y-89147D01*
X698237Y-89690D01*
X698823Y-89933D01*
Y-113044D01*
X697333D01*
Y-119756D01*
X702667D01*
Y-113044D01*
X701066D01*
Y-89933D01*
X701653Y-89690D01*
X702361Y-89147D01*
X702904Y-88440D01*
X703245Y-87616D01*
X703362Y-86731D01*
X703245Y-85847D01*
X702904Y-85023D01*
X702361Y-84316D01*
X701653Y-83773D01*
X700829Y-83431D01*
X699945Y-83315D01*
D02*
G37*
G36*
X586339Y-102244D02*
X580612D01*
Y-107972D01*
X582354D01*
Y-117234D01*
X581908Y-117532D01*
X581427Y-118251D01*
X581258Y-119100D01*
X581427Y-119949D01*
X581908Y-120668D01*
X582627Y-121149D01*
X583476Y-121317D01*
X584324Y-121149D01*
X585043Y-120668D01*
X585524Y-119949D01*
X585693Y-119100D01*
X585524Y-118251D01*
X585043Y-117532D01*
X584597Y-117234D01*
Y-107972D01*
X586339D01*
Y-102244D01*
D02*
G37*
G36*
X435552D02*
X429824D01*
Y-107972D01*
X431567D01*
Y-117234D01*
X431120Y-117532D01*
X430640Y-118251D01*
X430471Y-119100D01*
X430640Y-119949D01*
X431120Y-120668D01*
X431840Y-121149D01*
X432688Y-121317D01*
X433537Y-121149D01*
X434256Y-120668D01*
X434737Y-119949D01*
X434906Y-119100D01*
X434737Y-118251D01*
X434256Y-117532D01*
X433810Y-117234D01*
Y-107972D01*
X435552D01*
Y-102244D01*
D02*
G37*
G36*
X337127D02*
X331399D01*
Y-107972D01*
X333141D01*
Y-117234D01*
X332695Y-117532D01*
X332214Y-118251D01*
X332046Y-119100D01*
X332214Y-119949D01*
X332695Y-120668D01*
X333414Y-121149D01*
X334263Y-121317D01*
X335112Y-121149D01*
X335831Y-120668D01*
X336312Y-119949D01*
X336480Y-119100D01*
X336312Y-118251D01*
X335831Y-117532D01*
X335384Y-117234D01*
Y-107972D01*
X337127D01*
Y-102244D01*
D02*
G37*
G36*
X201339D02*
X195612D01*
Y-107972D01*
X197354D01*
Y-117234D01*
X196908Y-117532D01*
X196427Y-118251D01*
X196258Y-119100D01*
X196427Y-119949D01*
X196908Y-120668D01*
X197627Y-121149D01*
X198476Y-121317D01*
X199324Y-121149D01*
X200044Y-120668D01*
X200524Y-119949D01*
X200693Y-119100D01*
X200524Y-118251D01*
X200044Y-117532D01*
X199597Y-117234D01*
Y-107972D01*
X201339D01*
Y-102244D01*
D02*
G37*
G36*
X593476Y-102219D02*
X592728Y-102318D01*
X592031Y-102606D01*
X591433Y-103065D01*
X590974Y-103664D01*
X590686Y-104360D01*
X590587Y-105108D01*
X590686Y-105856D01*
X590974Y-106552D01*
X591433Y-107150D01*
X592031Y-107609D01*
X592354Y-107743D01*
Y-119934D01*
X591908Y-120232D01*
X591427Y-120951D01*
X591258Y-121800D01*
X591427Y-122649D01*
X591908Y-123368D01*
X592627Y-123849D01*
X593476Y-124017D01*
X594324Y-123849D01*
X595044Y-123368D01*
X595524Y-122649D01*
X595693Y-121800D01*
X595524Y-120951D01*
X595044Y-120232D01*
X594597Y-119934D01*
Y-107743D01*
X594920Y-107609D01*
X595518Y-107150D01*
X595977Y-106552D01*
X596266Y-105856D01*
X596364Y-105108D01*
X596266Y-104360D01*
X595977Y-103664D01*
X595518Y-103065D01*
X594920Y-102606D01*
X594223Y-102318D01*
X593476Y-102219D01*
D02*
G37*
G36*
X442688D02*
X441941Y-102318D01*
X441244Y-102606D01*
X440646Y-103065D01*
X440187Y-103664D01*
X439898Y-104360D01*
X439800Y-105108D01*
X439898Y-105856D01*
X440187Y-106552D01*
X440646Y-107150D01*
X441244Y-107609D01*
X441567Y-107743D01*
Y-119934D01*
X441120Y-120232D01*
X440640Y-120951D01*
X440471Y-121800D01*
X440640Y-122649D01*
X441120Y-123368D01*
X441840Y-123849D01*
X442688Y-124017D01*
X443537Y-123849D01*
X444256Y-123368D01*
X444737Y-122649D01*
X444906Y-121800D01*
X444737Y-120951D01*
X444256Y-120232D01*
X443810Y-119934D01*
Y-107743D01*
X444132Y-107609D01*
X444731Y-107150D01*
X445190Y-106552D01*
X445478Y-105856D01*
X445577Y-105108D01*
X445478Y-104360D01*
X445190Y-103664D01*
X444731Y-103065D01*
X444132Y-102606D01*
X443436Y-102318D01*
X442688Y-102219D01*
D02*
G37*
G36*
X344263D02*
X343515Y-102318D01*
X342819Y-102606D01*
X342220Y-103065D01*
X341761Y-103664D01*
X341473Y-104360D01*
X341374Y-105108D01*
X341473Y-105856D01*
X341761Y-106552D01*
X342220Y-107150D01*
X342819Y-107609D01*
X343141Y-107743D01*
Y-119934D01*
X342695Y-120232D01*
X342214Y-120951D01*
X342046Y-121800D01*
X342214Y-122649D01*
X342695Y-123368D01*
X343414Y-123849D01*
X344263Y-124017D01*
X345112Y-123849D01*
X345831Y-123368D01*
X346312Y-122649D01*
X346480Y-121800D01*
X346312Y-120951D01*
X345831Y-120232D01*
X345385Y-119934D01*
Y-107743D01*
X345707Y-107609D01*
X346305Y-107150D01*
X346764Y-106552D01*
X347053Y-105856D01*
X347151Y-105108D01*
X347053Y-104360D01*
X346764Y-103664D01*
X346305Y-103065D01*
X345707Y-102606D01*
X345011Y-102318D01*
X344263Y-102219D01*
D02*
G37*
G36*
X208476D02*
X207728Y-102318D01*
X207031Y-102606D01*
X206433Y-103065D01*
X205974Y-103664D01*
X205685Y-104360D01*
X205587Y-105108D01*
X205685Y-105856D01*
X205974Y-106552D01*
X206433Y-107150D01*
X207031Y-107609D01*
X207354Y-107743D01*
Y-119934D01*
X206908Y-120232D01*
X206427Y-120951D01*
X206258Y-121800D01*
X206427Y-122649D01*
X206908Y-123368D01*
X207627Y-123849D01*
X208476Y-124017D01*
X209324Y-123849D01*
X210044Y-123368D01*
X210524Y-122649D01*
X210693Y-121800D01*
X210524Y-120951D01*
X210044Y-120232D01*
X209597Y-119934D01*
Y-107743D01*
X209920Y-107609D01*
X210518Y-107150D01*
X210977Y-106552D01*
X211266Y-105856D01*
X211364Y-105108D01*
X211266Y-104360D01*
X210977Y-103664D01*
X210518Y-103065D01*
X209920Y-102606D01*
X209223Y-102318D01*
X208476Y-102219D01*
D02*
G37*
G36*
X107058Y-102382D02*
X106119Y-102506D01*
X105243Y-102869D01*
X104491Y-103446D01*
X103914Y-104198D01*
X103551Y-105074D01*
X103427Y-106013D01*
X103551Y-106953D01*
X103914Y-107829D01*
X104491Y-108581D01*
X105243Y-109158D01*
X105937Y-109446D01*
Y-119934D01*
X105490Y-120232D01*
X105010Y-120951D01*
X104841Y-121800D01*
X105010Y-122649D01*
X105490Y-123368D01*
X106210Y-123849D01*
X107058Y-124017D01*
X107907Y-123849D01*
X108626Y-123368D01*
X109107Y-122649D01*
X109276Y-121800D01*
X109107Y-120951D01*
X108626Y-120232D01*
X108180Y-119934D01*
Y-109446D01*
X108874Y-109158D01*
X109626Y-108581D01*
X110203Y-107829D01*
X110566Y-106953D01*
X110689Y-106013D01*
X110566Y-105074D01*
X110203Y-104198D01*
X109626Y-103446D01*
X108874Y-102869D01*
X107998Y-102506D01*
X107058Y-102382D01*
D02*
G37*
G36*
X613476Y-102219D02*
X612728Y-102318D01*
X612031Y-102606D01*
X611433Y-103065D01*
X610974Y-103664D01*
X610685Y-104360D01*
X610587Y-105108D01*
X610685Y-105856D01*
X610974Y-106552D01*
X611433Y-107150D01*
X612031Y-107609D01*
X612354Y-107743D01*
Y-122634D01*
X611908Y-122932D01*
X611427Y-123651D01*
X611258Y-124500D01*
X611427Y-125349D01*
X611908Y-126068D01*
X612627Y-126549D01*
X613476Y-126717D01*
X614324Y-126549D01*
X615043Y-126068D01*
X615524Y-125349D01*
X615693Y-124500D01*
X615524Y-123651D01*
X615043Y-122932D01*
X614597Y-122634D01*
Y-107743D01*
X614920Y-107609D01*
X615518Y-107150D01*
X615977Y-106552D01*
X616266Y-105856D01*
X616364Y-105108D01*
X616266Y-104360D01*
X615977Y-103664D01*
X615518Y-103065D01*
X614920Y-102606D01*
X614223Y-102318D01*
X613476Y-102219D01*
D02*
G37*
G36*
X462688D02*
X461941Y-102318D01*
X461244Y-102606D01*
X460646Y-103065D01*
X460187Y-103664D01*
X459898Y-104360D01*
X459800Y-105108D01*
X459898Y-105856D01*
X460187Y-106552D01*
X460646Y-107150D01*
X461244Y-107609D01*
X461567Y-107743D01*
Y-122634D01*
X461120Y-122932D01*
X460640Y-123651D01*
X460471Y-124500D01*
X460640Y-125349D01*
X461120Y-126068D01*
X461840Y-126549D01*
X462688Y-126717D01*
X463537Y-126549D01*
X464256Y-126068D01*
X464737Y-125349D01*
X464906Y-124500D01*
X464737Y-123651D01*
X464256Y-122932D01*
X463810Y-122634D01*
Y-107743D01*
X464132Y-107609D01*
X464731Y-107150D01*
X465190Y-106552D01*
X465478Y-105856D01*
X465577Y-105108D01*
X465478Y-104360D01*
X465190Y-103664D01*
X464731Y-103065D01*
X464132Y-102606D01*
X463436Y-102318D01*
X462688Y-102219D01*
D02*
G37*
G36*
X228476D02*
X227728Y-102318D01*
X227031Y-102606D01*
X226433Y-103065D01*
X225974Y-103664D01*
X225686Y-104360D01*
X225587Y-105108D01*
X225686Y-105856D01*
X225974Y-106552D01*
X226433Y-107150D01*
X227031Y-107609D01*
X227354Y-107743D01*
Y-122634D01*
X226908Y-122932D01*
X226427Y-123651D01*
X226258Y-124500D01*
X226427Y-125349D01*
X226908Y-126068D01*
X227627Y-126549D01*
X228476Y-126717D01*
X229324Y-126549D01*
X230044Y-126068D01*
X230524Y-125349D01*
X230693Y-124500D01*
X230524Y-123651D01*
X230044Y-122932D01*
X229597Y-122634D01*
Y-107743D01*
X229920Y-107609D01*
X230518Y-107150D01*
X230977Y-106552D01*
X231266Y-105856D01*
X231364Y-105108D01*
X231266Y-104360D01*
X230977Y-103664D01*
X230518Y-103065D01*
X229920Y-102606D01*
X229223Y-102318D01*
X228476Y-102219D01*
D02*
G37*
G36*
X127058Y-102382D02*
X126119Y-102506D01*
X125243Y-102869D01*
X124491Y-103446D01*
X123914Y-104198D01*
X123551Y-105074D01*
X123427Y-106013D01*
X123551Y-106953D01*
X123914Y-107829D01*
X124491Y-108581D01*
X125243Y-109158D01*
X125937Y-109446D01*
Y-122634D01*
X125490Y-122932D01*
X125010Y-123651D01*
X124841Y-124500D01*
X125010Y-125349D01*
X125490Y-126068D01*
X126210Y-126549D01*
X127058Y-126717D01*
X127907Y-126549D01*
X128626Y-126068D01*
X129107Y-125349D01*
X129276Y-124500D01*
X129107Y-123651D01*
X128626Y-122932D01*
X128180Y-122634D01*
Y-109446D01*
X128874Y-109158D01*
X129626Y-108581D01*
X130203Y-107829D01*
X130566Y-106953D01*
X130689Y-106013D01*
X130566Y-105074D01*
X130203Y-104198D01*
X129626Y-103446D01*
X128874Y-102869D01*
X127998Y-102506D01*
X127058Y-102382D01*
D02*
G37*
G36*
X635552Y-102244D02*
X629824D01*
Y-107972D01*
X631567D01*
Y-125334D01*
X631120Y-125632D01*
X630640Y-126351D01*
X630471Y-127200D01*
X630640Y-128049D01*
X631120Y-128768D01*
X631840Y-129249D01*
X632688Y-129417D01*
X633537Y-129249D01*
X634256Y-128768D01*
X634737Y-128049D01*
X634906Y-127200D01*
X634737Y-126351D01*
X634256Y-125632D01*
X633810Y-125334D01*
Y-107972D01*
X635552D01*
Y-102244D01*
D02*
G37*
G36*
X484765D02*
X479037D01*
Y-107972D01*
X480779D01*
Y-125334D01*
X480333Y-125632D01*
X479852Y-126351D01*
X479683Y-127200D01*
X479852Y-128049D01*
X480333Y-128768D01*
X481052Y-129249D01*
X481901Y-129417D01*
X482749Y-129249D01*
X483469Y-128768D01*
X483949Y-128049D01*
X484118Y-127200D01*
X483949Y-126351D01*
X483469Y-125632D01*
X483022Y-125334D01*
Y-107972D01*
X484765D01*
Y-102244D01*
D02*
G37*
G36*
X386339D02*
X380612D01*
Y-107972D01*
X382354D01*
Y-125334D01*
X381908Y-125632D01*
X381427Y-126351D01*
X381258Y-127200D01*
X381427Y-128049D01*
X381908Y-128768D01*
X382627Y-129249D01*
X383476Y-129417D01*
X384324Y-129249D01*
X385044Y-128768D01*
X385524Y-128049D01*
X385693Y-127200D01*
X385524Y-126351D01*
X385044Y-125632D01*
X384597Y-125334D01*
Y-107972D01*
X386339D01*
Y-102244D01*
D02*
G37*
G36*
X250552D02*
X244824D01*
Y-107972D01*
X246567D01*
Y-125334D01*
X246120Y-125632D01*
X245640Y-126351D01*
X245471Y-127200D01*
X245640Y-128049D01*
X246120Y-128768D01*
X246840Y-129249D01*
X247688Y-129417D01*
X248537Y-129249D01*
X249256Y-128768D01*
X249737Y-128049D01*
X249906Y-127200D01*
X249737Y-126351D01*
X249256Y-125632D01*
X248810Y-125334D01*
Y-107972D01*
X250552D01*
Y-102244D01*
D02*
G37*
G36*
X155379Y-88773D02*
X151620D01*
Y-98241D01*
X152378D01*
Y-125334D01*
X151932Y-125632D01*
X151451Y-126351D01*
X151283Y-127200D01*
X151451Y-128049D01*
X151932Y-128768D01*
X152651Y-129249D01*
X153500Y-129417D01*
X154349Y-129249D01*
X155068Y-128768D01*
X155549Y-128049D01*
X155717Y-127200D01*
X155549Y-126351D01*
X155068Y-125632D01*
X154622Y-125334D01*
Y-98241D01*
X155379D01*
Y-88773D01*
D02*
G37*
G36*
X87058Y-102382D02*
X86119Y-102506D01*
X85243Y-102869D01*
X84491Y-103446D01*
X83914Y-104198D01*
X83551Y-105074D01*
X83427Y-106013D01*
X83551Y-106953D01*
X83914Y-107829D01*
X84491Y-108581D01*
X85243Y-109158D01*
X85937Y-109446D01*
Y-125334D01*
X85490Y-125632D01*
X85010Y-126351D01*
X84841Y-127200D01*
X85010Y-128049D01*
X85490Y-128768D01*
X86210Y-129249D01*
X87058Y-129417D01*
X87907Y-129249D01*
X88626Y-128768D01*
X89107Y-128049D01*
X89276Y-127200D01*
X89107Y-126351D01*
X88626Y-125632D01*
X88180Y-125334D01*
Y-109446D01*
X88874Y-109158D01*
X89626Y-108581D01*
X90203Y-107829D01*
X90566Y-106953D01*
X90689Y-106013D01*
X90566Y-105074D01*
X90203Y-104198D01*
X89626Y-103446D01*
X88874Y-102869D01*
X87998Y-102506D01*
X87058Y-102382D01*
D02*
G37*
G36*
X642688Y-102219D02*
X641941Y-102318D01*
X641244Y-102606D01*
X640646Y-103065D01*
X640187Y-103664D01*
X639898Y-104360D01*
X639800Y-105108D01*
X639898Y-105856D01*
X640187Y-106552D01*
X640646Y-107150D01*
X641244Y-107609D01*
X641567Y-107743D01*
Y-128034D01*
X641120Y-128332D01*
X640640Y-129051D01*
X640471Y-129900D01*
X640640Y-130749D01*
X641120Y-131468D01*
X641840Y-131949D01*
X642688Y-132117D01*
X643537Y-131949D01*
X644256Y-131468D01*
X644737Y-130749D01*
X644906Y-129900D01*
X644737Y-129051D01*
X644256Y-128332D01*
X643810Y-128034D01*
Y-107743D01*
X644132Y-107609D01*
X644731Y-107150D01*
X645190Y-106552D01*
X645478Y-105856D01*
X645577Y-105108D01*
X645478Y-104360D01*
X645190Y-103664D01*
X644731Y-103065D01*
X644132Y-102606D01*
X643436Y-102318D01*
X642688Y-102219D01*
D02*
G37*
G36*
X491901D02*
X491153Y-102318D01*
X490456Y-102606D01*
X489858Y-103065D01*
X489399Y-103664D01*
X489111Y-104360D01*
X489012Y-105108D01*
X489111Y-105856D01*
X489399Y-106552D01*
X489858Y-107150D01*
X490456Y-107609D01*
X490779Y-107743D01*
Y-128034D01*
X490333Y-128332D01*
X489852Y-129051D01*
X489683Y-129900D01*
X489852Y-130749D01*
X490333Y-131468D01*
X491052Y-131949D01*
X491901Y-132117D01*
X492749Y-131949D01*
X493469Y-131468D01*
X493949Y-130749D01*
X494118Y-129900D01*
X493949Y-129051D01*
X493469Y-128332D01*
X493022Y-128034D01*
Y-107743D01*
X493345Y-107609D01*
X493943Y-107150D01*
X494402Y-106552D01*
X494691Y-105856D01*
X494789Y-105108D01*
X494691Y-104360D01*
X494402Y-103664D01*
X493943Y-103065D01*
X493345Y-102606D01*
X492648Y-102318D01*
X491901Y-102219D01*
D02*
G37*
G36*
X393476D02*
X392728Y-102318D01*
X392031Y-102606D01*
X391433Y-103065D01*
X390974Y-103664D01*
X390686Y-104360D01*
X390587Y-105108D01*
X390686Y-105856D01*
X390974Y-106552D01*
X391433Y-107150D01*
X392031Y-107609D01*
X392354Y-107743D01*
Y-128034D01*
X391908Y-128332D01*
X391427Y-129051D01*
X391258Y-129900D01*
X391427Y-130749D01*
X391908Y-131468D01*
X392627Y-131949D01*
X393476Y-132117D01*
X394324Y-131949D01*
X395044Y-131468D01*
X395524Y-130749D01*
X395693Y-129900D01*
X395524Y-129051D01*
X395044Y-128332D01*
X394597Y-128034D01*
Y-107743D01*
X394920Y-107609D01*
X395518Y-107150D01*
X395977Y-106552D01*
X396266Y-105856D01*
X396364Y-105108D01*
X396266Y-104360D01*
X395977Y-103664D01*
X395518Y-103065D01*
X394920Y-102606D01*
X394223Y-102318D01*
X393476Y-102219D01*
D02*
G37*
G36*
X257688D02*
X256941Y-102318D01*
X256244Y-102606D01*
X255646Y-103065D01*
X255187Y-103664D01*
X254898Y-104360D01*
X254800Y-105108D01*
X254898Y-105856D01*
X255187Y-106552D01*
X255646Y-107150D01*
X256244Y-107609D01*
X256567Y-107743D01*
Y-128034D01*
X256120Y-128332D01*
X255640Y-129051D01*
X255471Y-129900D01*
X255640Y-130749D01*
X256120Y-131468D01*
X256840Y-131949D01*
X257688Y-132117D01*
X258537Y-131949D01*
X259256Y-131468D01*
X259737Y-130749D01*
X259906Y-129900D01*
X259737Y-129051D01*
X259256Y-128332D01*
X258810Y-128034D01*
Y-107743D01*
X259132Y-107609D01*
X259731Y-107150D01*
X260190Y-106552D01*
X260478Y-105856D01*
X260577Y-105108D01*
X260478Y-104360D01*
X260190Y-103664D01*
X259731Y-103065D01*
X259132Y-102606D01*
X258436Y-102318D01*
X257688Y-102219D01*
D02*
G37*
G36*
X138100Y-20983D02*
X137251Y-21151D01*
X136532Y-21632D01*
X136051Y-22351D01*
X135883Y-23200D01*
X136051Y-24049D01*
X136532Y-24768D01*
X136978Y-25066D01*
Y-80534D01*
X136532Y-80832D01*
X136051Y-81551D01*
X135883Y-82400D01*
X136051Y-83249D01*
X136532Y-83968D01*
X137251Y-84449D01*
X138100Y-84617D01*
X138949Y-84449D01*
X139668Y-83968D01*
X140149Y-83249D01*
X140278Y-82596D01*
X140425Y-82334D01*
X141226Y-81843D01*
X141600Y-81917D01*
X142178Y-81802D01*
X142955Y-82245D01*
X143178Y-82464D01*
Y-130790D01*
X142732Y-131088D01*
X142251Y-131808D01*
X142083Y-132656D01*
X142251Y-133505D01*
X142732Y-134224D01*
X143451Y-134705D01*
X144300Y-134874D01*
X145149Y-134705D01*
X145868Y-134224D01*
X146349Y-133505D01*
X146493Y-132778D01*
X146628Y-132577D01*
X147410Y-132020D01*
X147900Y-132117D01*
X148749Y-131949D01*
X149468Y-131468D01*
X149949Y-130749D01*
X150117Y-129900D01*
X149949Y-129051D01*
X149468Y-128332D01*
X149022Y-128034D01*
Y-73366D01*
X149468Y-73068D01*
X149949Y-72349D01*
X150117Y-71500D01*
X149949Y-70651D01*
X149468Y-69932D01*
X148749Y-69451D01*
X147900Y-69283D01*
X147051Y-69451D01*
X146332Y-69932D01*
X145851Y-70651D01*
X145683Y-71500D01*
X145851Y-72349D01*
X146332Y-73068D01*
X146778Y-73366D01*
Y-74895D01*
X146207Y-75169D01*
X145778Y-75272D01*
X145149Y-74851D01*
X144300Y-74683D01*
X143722Y-74798D01*
X142945Y-74355D01*
X142722Y-74136D01*
Y-27766D01*
X143168Y-27468D01*
X143649Y-26749D01*
X143817Y-25900D01*
X143649Y-25051D01*
X143168Y-24332D01*
X142449Y-23851D01*
X141600Y-23683D01*
X141226Y-23757D01*
X140425Y-23266D01*
X140278Y-23004D01*
X140149Y-22351D01*
X139668Y-21632D01*
X138949Y-21151D01*
X138100Y-20983D01*
D02*
G37*
G36*
X413476Y-102219D02*
X412728Y-102318D01*
X412031Y-102606D01*
X411433Y-103065D01*
X410974Y-103664D01*
X410685Y-104360D01*
X410587Y-105108D01*
X410685Y-105856D01*
X410974Y-106552D01*
X411433Y-107150D01*
X412031Y-107609D01*
X412354Y-107743D01*
Y-130790D01*
X411908Y-131088D01*
X411427Y-131808D01*
X411258Y-132656D01*
X411427Y-133505D01*
X410994Y-134656D01*
X410867Y-134733D01*
X410619Y-134600D01*
X409430Y-134239D01*
X408193Y-134118D01*
X406956Y-134239D01*
X405767Y-134600D01*
X404671Y-135186D01*
X403710Y-135974D01*
X402922Y-136935D01*
X402336Y-138031D01*
X401975Y-139220D01*
X401854Y-140457D01*
X401975Y-141694D01*
X402336Y-142883D01*
X402922Y-143979D01*
X403710Y-144939D01*
X404671Y-145728D01*
X405767Y-146314D01*
X406956Y-146674D01*
X408193Y-146796D01*
X409430Y-146674D01*
X410619Y-146314D01*
X411715Y-145728D01*
X412675Y-144939D01*
X413464Y-143979D01*
X414049Y-142883D01*
X414410Y-141694D01*
X414532Y-140457D01*
X414410Y-139220D01*
X414049Y-138031D01*
X413464Y-136935D01*
X412675Y-135974D01*
X412458Y-135796D01*
X412692Y-134750D01*
X412730Y-134725D01*
X413476Y-134874D01*
X414324Y-134705D01*
X415043Y-134224D01*
X415524Y-133505D01*
X415693Y-132656D01*
X415524Y-131808D01*
X415043Y-131088D01*
X414597Y-130790D01*
Y-107743D01*
X414920Y-107609D01*
X415518Y-107150D01*
X415977Y-106552D01*
X416266Y-105856D01*
X416364Y-105108D01*
X416266Y-104360D01*
X415977Y-103664D01*
X415518Y-103065D01*
X414920Y-102606D01*
X414223Y-102318D01*
X413476Y-102219D01*
D02*
G37*
G36*
X511901D02*
X511153Y-102318D01*
X510457Y-102606D01*
X509858Y-103065D01*
X509399Y-103664D01*
X509111Y-104360D01*
X509012Y-105108D01*
X509111Y-105856D01*
X509399Y-106552D01*
X509858Y-107150D01*
X510457Y-107609D01*
X510779Y-107743D01*
Y-130790D01*
X510333Y-131088D01*
X509852Y-131808D01*
X509683Y-132656D01*
X509852Y-133505D01*
X510333Y-134224D01*
X511052Y-134705D01*
X511901Y-134874D01*
X512749Y-134705D01*
X513469Y-134224D01*
X513949Y-133505D01*
X514118Y-132656D01*
X513949Y-131808D01*
X513469Y-131088D01*
X513022Y-130790D01*
Y-107743D01*
X513345Y-107609D01*
X513943Y-107150D01*
X514402Y-106552D01*
X514691Y-105856D01*
X514789Y-105108D01*
X514691Y-104360D01*
X514402Y-103664D01*
X513943Y-103065D01*
X513345Y-102606D01*
X512648Y-102318D01*
X511901Y-102219D01*
D02*
G37*
G36*
X277688D02*
X276941Y-102318D01*
X276244Y-102606D01*
X275646Y-103065D01*
X275187Y-103664D01*
X274898Y-104360D01*
X274800Y-105108D01*
X274898Y-105856D01*
X275187Y-106552D01*
X275646Y-107150D01*
X276244Y-107609D01*
X276567Y-107743D01*
Y-130790D01*
X276120Y-131088D01*
X275640Y-131808D01*
X275471Y-132656D01*
X275640Y-133505D01*
X276120Y-134224D01*
X276840Y-134705D01*
X277688Y-134874D01*
X278537Y-134705D01*
X279256Y-134224D01*
X279737Y-133505D01*
X279906Y-132656D01*
X279737Y-131808D01*
X279256Y-131088D01*
X278810Y-130790D01*
Y-107743D01*
X279132Y-107609D01*
X279731Y-107150D01*
X280190Y-106552D01*
X280478Y-105856D01*
X280577Y-105108D01*
X280478Y-104360D01*
X280190Y-103664D01*
X279731Y-103065D01*
X279132Y-102606D01*
X278436Y-102318D01*
X277688Y-102219D01*
D02*
G37*
G36*
X662688D02*
X661941Y-102318D01*
X661244Y-102606D01*
X660646Y-103065D01*
X660187Y-103664D01*
X659898Y-104360D01*
X659800Y-105108D01*
X659898Y-105856D01*
X660187Y-106552D01*
X660646Y-107150D01*
X661244Y-107609D01*
X661567Y-107743D01*
Y-130834D01*
X661120Y-131132D01*
X660640Y-131851D01*
X660471Y-132700D01*
X660640Y-133549D01*
X661120Y-134268D01*
X661840Y-134749D01*
X662688Y-134917D01*
X663537Y-134749D01*
X664256Y-134268D01*
X664737Y-133549D01*
X664906Y-132700D01*
X664737Y-131851D01*
X664256Y-131132D01*
X663810Y-130834D01*
Y-107743D01*
X664132Y-107609D01*
X664731Y-107150D01*
X665190Y-106552D01*
X665478Y-105856D01*
X665577Y-105108D01*
X665478Y-104360D01*
X665190Y-103664D01*
X664731Y-103065D01*
X664132Y-102606D01*
X663436Y-102318D01*
X662688Y-102219D01*
D02*
G37*
G36*
X780831Y-134118D02*
X779594Y-134239D01*
X778405Y-134600D01*
X777309Y-135186D01*
X776348Y-135974D01*
X775560Y-136935D01*
X774974Y-138031D01*
X774613Y-139220D01*
X774492Y-140457D01*
X774613Y-141694D01*
X774974Y-142883D01*
X775560Y-143979D01*
X776348Y-144939D01*
X777309Y-145728D01*
X778405Y-146314D01*
X779594Y-146674D01*
X780831Y-146796D01*
X782067Y-146674D01*
X783257Y-146314D01*
X784352Y-145728D01*
X785313Y-144939D01*
X786101Y-143979D01*
X786687Y-142883D01*
X787048Y-141694D01*
X787170Y-140457D01*
X787048Y-139220D01*
X786687Y-138031D01*
X786101Y-136935D01*
X785313Y-135974D01*
X784352Y-135186D01*
X783257Y-134600D01*
X782067Y-134239D01*
X780831Y-134118D01*
D02*
G37*
G36*
X35555D02*
X34318Y-134239D01*
X33129Y-134600D01*
X32033Y-135186D01*
X31073Y-135974D01*
X30284Y-136935D01*
X29699Y-138031D01*
X29338Y-139220D01*
X29216Y-140457D01*
X29338Y-141694D01*
X29699Y-142883D01*
X30284Y-143979D01*
X31073Y-144939D01*
X32033Y-145728D01*
X33129Y-146314D01*
X34318Y-146674D01*
X35555Y-146796D01*
X36792Y-146674D01*
X37981Y-146314D01*
X39077Y-145728D01*
X40038Y-144939D01*
X40826Y-143979D01*
X41412Y-142883D01*
X41772Y-141694D01*
X41894Y-140457D01*
X41772Y-139220D01*
X41412Y-138031D01*
X40826Y-136935D01*
X40038Y-135974D01*
X39077Y-135186D01*
X37981Y-134600D01*
X36792Y-134239D01*
X35555Y-134118D01*
D02*
G37*
%LPD*%
D10*
X174900Y-85200D02*
Y-74000D01*
X168500Y-67600D02*
X174900Y-74000D01*
X168500Y-67600D02*
Y-56893D01*
X147900Y-129900D02*
Y-71500D01*
X183500Y-93507D02*
Y-73600D01*
X178700Y-68800D02*
X183500Y-73600D01*
X178600Y-93407D02*
Y-74181D01*
X87058Y-127200D02*
Y-105590D01*
X127058Y-124500D02*
Y-105590D01*
X107058Y-121800D02*
Y-105590D01*
X168500Y-93507D02*
Y-72998D01*
X160880Y-65377D02*
X168500Y-72998D01*
X160880Y-65377D02*
Y-39923D01*
X160531Y-39575D02*
X160880Y-39923D01*
X195079Y-46525D02*
Y-28612D01*
Y-46525D02*
X198500Y-49946D01*
X689945Y-86731D02*
Y-63731D01*
X737013Y-105208D02*
Y-45208D01*
X786237Y-105108D02*
Y-45108D01*
X452733Y-105008D02*
Y-45008D01*
X501956Y-105008D02*
Y-45008D01*
X403485Y-104908D02*
Y-44908D01*
X354185Y-105108D02*
Y-45108D01*
X548095Y-95582D02*
Y-55081D01*
X138100Y-82200D02*
X138300Y-82400D01*
X138100Y-82200D02*
Y-23200D01*
X153500Y-71500D02*
Y-56893D01*
X158500Y-93507D02*
Y-82400D01*
X163500Y-93507D02*
Y-79700D01*
X173500Y-116400D02*
Y-93507D01*
X144300Y-132656D02*
Y-76900D01*
X158500D02*
Y-56893D01*
X141600Y-79700D02*
Y-25900D01*
X163500Y-56893D02*
Y-17800D01*
X168500Y-56893D02*
Y-20500D01*
X173500Y-56893D02*
Y-36700D01*
X178500Y-56893D02*
Y-34200D01*
X203500Y-56893D02*
Y-31300D01*
X153500Y-127200D02*
Y-93507D01*
X193300Y-93307D02*
Y-77000D01*
X198500Y-93507D02*
Y-82400D01*
X203500Y-93507D02*
Y-74100D01*
X208700Y-93307D02*
Y-79700D01*
X183500Y-65400D02*
Y-56893D01*
X188500Y-68300D02*
Y-56893D01*
X193500Y-71300D02*
Y-56893D01*
X267333Y-105108D02*
Y-77000D01*
X213500Y-93507D02*
Y-85700D01*
X198500Y-56893D02*
Y-49946D01*
X213500Y-59927D02*
Y-56893D01*
X208500Y-59750D02*
Y-56893D01*
X301969Y-124478D02*
Y-71230D01*
X299000Y-121800D02*
Y-68300D01*
X296063Y-119100D02*
Y-65400D01*
X292928Y-76939D02*
Y-62670D01*
X572835Y-54981D02*
Y-39700D01*
Y-116400D02*
Y-95442D01*
X699902Y-63688D02*
Y-39734D01*
X699945Y-116400D02*
Y-86731D01*
X683169Y-39734D02*
X692421D01*
X683169Y-116407D02*
X692520D01*
X558071Y-54990D02*
X558203D01*
X558195Y-54981D02*
X563492D01*
X565354Y-53120D01*
X558195Y-95481D02*
X565315D01*
X305118Y-85700D02*
Y-43769D01*
X226279Y-70659D02*
X233191D01*
X218500Y-63746D02*
Y-56893D01*
Y-63746D02*
X225413Y-70659D01*
X226279D01*
X318110Y-57253D02*
Y-43769D01*
X318051Y-90718D02*
X348169Y-60600D01*
X351348D01*
X338051Y-93113D02*
Y-81210D01*
X342520Y-76742D01*
X351348D01*
X328051Y-90718D02*
Y-86289D01*
X345669Y-68671D01*
X351348D01*
X318051Y-57287D02*
X328051D01*
X338051D01*
X642688Y-129900D02*
Y-105108D01*
X632688Y-127200D02*
Y-105108D01*
X613476Y-124500D02*
Y-105108D01*
X662688Y-132700D02*
Y-105108D01*
X583476Y-119100D02*
Y-105108D01*
X593476Y-121800D02*
Y-105108D01*
X583476Y-45108D02*
Y-36900D01*
X593476Y-45108D02*
Y-34000D01*
X613476Y-45108D02*
Y-31300D01*
X623476Y-45108D02*
Y-28600D01*
X632688Y-45108D02*
Y-25900D01*
X642688Y-45108D02*
Y-23200D01*
X662688Y-45108D02*
Y-20500D01*
X672688Y-45108D02*
Y-17800D01*
X603476Y-105108D02*
Y-45108D01*
X652688Y-105108D02*
Y-45108D01*
X521901D02*
Y-17700D01*
X511901Y-45108D02*
Y-20500D01*
X491901Y-45108D02*
Y-23200D01*
X481901Y-45108D02*
Y-25900D01*
X472688Y-45108D02*
Y-28600D01*
X462688Y-45108D02*
Y-31300D01*
X442688Y-45108D02*
Y-34000D01*
X432688Y-45108D02*
Y-36900D01*
X511901Y-132656D02*
Y-105108D01*
X491901Y-129900D02*
Y-105108D01*
X481901Y-127200D02*
Y-105108D01*
X462688Y-124500D02*
Y-105108D01*
X442688Y-121800D02*
Y-105108D01*
X432688Y-119100D02*
Y-105108D01*
X413476Y-132656D02*
Y-105108D01*
X393476Y-129900D02*
Y-105108D01*
X383476Y-127200D02*
Y-105108D01*
X364263Y-124500D02*
Y-105108D01*
X344263Y-121800D02*
Y-105108D01*
X334263Y-119100D02*
Y-105108D01*
X334263Y-45108D02*
Y-36800D01*
X344263Y-45108D02*
Y-34000D01*
X364263Y-45108D02*
Y-31300D01*
X374263Y-51637D02*
Y-28600D01*
X383476Y-45108D02*
Y-25900D01*
X393476Y-45108D02*
Y-23200D01*
X413476Y-45108D02*
Y-20500D01*
X423476Y-45108D02*
Y-17800D01*
X359090Y-68538D02*
Y-66810D01*
X374263Y-51637D01*
X359222Y-60600D02*
Y-58678D01*
X364263Y-53637D01*
Y-45108D01*
X359222Y-78922D02*
Y-76742D01*
Y-78922D02*
X364263Y-83963D01*
Y-105108D02*
Y-83963D01*
X215112Y-47112D02*
X218500Y-50500D01*
Y-56893D02*
Y-50500D01*
X208500Y-56893D02*
Y-50700D01*
X211839Y-47361D01*
X277688Y-132656D02*
Y-105108D01*
X257688Y-129900D02*
Y-105108D01*
X247688Y-127200D02*
Y-105108D01*
X228476Y-124500D02*
Y-105108D01*
X208476Y-121800D02*
Y-105108D01*
X198476Y-119100D02*
Y-105108D01*
Y-45108D02*
Y-36900D01*
X208476Y-45108D02*
Y-34000D01*
X228476Y-45108D02*
Y-31300D01*
X238476Y-45108D02*
Y-28600D01*
X247688Y-45108D02*
Y-25900D01*
X257688Y-45108D02*
Y-23200D01*
X277688Y-45108D02*
Y-20500D01*
X287688Y-45108D02*
Y-17800D01*
X127058Y-43779D02*
Y-28600D01*
X107058Y-43779D02*
Y-31300D01*
X77058Y-43779D02*
Y-17800D01*
X188500Y-113600D02*
Y-93507D01*
X213500Y-56893D02*
Y-13200D01*
X202091Y-11591D02*
X206109D01*
X202091D02*
X211839Y-21339D01*
Y-47361D02*
Y-21339D01*
X215112Y-47112D02*
Y-21288D01*
X223200Y-13200D01*
X268748Y-8800D02*
X268796Y-8752D01*
X276204D01*
X276252Y-8800D01*
X280493D01*
X280541Y-8752D01*
X225129D02*
X225177Y-8800D01*
X268748D01*
X217948Y-8752D02*
X225129D01*
X280541D02*
X287837D01*
X213500Y-13200D02*
X217948Y-8752D01*
X287837D02*
X292185Y-13100D01*
X206109Y-11591D02*
X211700Y-6000D01*
X282100D01*
X302028Y-13100D02*
X306765Y-17837D01*
X331000D01*
X342300D01*
X292185Y-13100D02*
X296685Y-8600D01*
X320800D01*
X326100Y-13900D01*
X282343Y-6000D02*
X326000D01*
X329963Y-9963D01*
X331000D01*
X326100Y-13900D02*
X337100D01*
X341037Y-9963D01*
X342300D01*
D11*
X689945Y-86731D02*
D03*
X699945D02*
D03*
X689945Y-63731D02*
D03*
X699945D02*
D03*
X548195Y-95481D02*
D03*
X558195D02*
D03*
X548195Y-54981D02*
D03*
X558195D02*
D03*
D12*
X193800Y-13100D02*
D03*
X272500D02*
D03*
D13*
X203643D02*
D03*
X213485D02*
D03*
X223328D02*
D03*
X302028D02*
D03*
X292185D02*
D03*
X282343D02*
D03*
D14*
X481901Y-45108D02*
D03*
X491901D02*
D03*
X501901D02*
D03*
X511901D02*
D03*
X521901D02*
D03*
Y-105108D02*
D03*
X511901D02*
D03*
X501901D02*
D03*
X491901D02*
D03*
X766192Y-45108D02*
D03*
X776192D02*
D03*
X786192D02*
D03*
X796192D02*
D03*
X806192D02*
D03*
Y-105108D02*
D03*
X796192D02*
D03*
X786192D02*
D03*
X776192D02*
D03*
X432688Y-45108D02*
D03*
X442688D02*
D03*
X452688D02*
D03*
X462688D02*
D03*
X472688D02*
D03*
Y-105108D02*
D03*
X462688D02*
D03*
X452688D02*
D03*
X442688D02*
D03*
X716980Y-45108D02*
D03*
X726979D02*
D03*
X736979D02*
D03*
X746980D02*
D03*
X756980D02*
D03*
Y-105108D02*
D03*
X746980D02*
D03*
X736979D02*
D03*
X726979D02*
D03*
X383476Y-45108D02*
D03*
X393476D02*
D03*
X403476D02*
D03*
X413476D02*
D03*
X423476D02*
D03*
Y-105108D02*
D03*
X413476D02*
D03*
X403476D02*
D03*
X393476D02*
D03*
X334263Y-45108D02*
D03*
X344263D02*
D03*
X354263D02*
D03*
X364263D02*
D03*
X374263D02*
D03*
Y-105108D02*
D03*
X364263D02*
D03*
X354263D02*
D03*
X344263D02*
D03*
X247688Y-45108D02*
D03*
X257688D02*
D03*
X267688D02*
D03*
X277688D02*
D03*
X287688D02*
D03*
Y-105108D02*
D03*
X277688D02*
D03*
X267688D02*
D03*
X257688D02*
D03*
X632688Y-45108D02*
D03*
X642688D02*
D03*
X652688D02*
D03*
X662688D02*
D03*
X672688D02*
D03*
Y-105108D02*
D03*
X662688D02*
D03*
X652688D02*
D03*
X642688D02*
D03*
X198476Y-45108D02*
D03*
X208476D02*
D03*
X218476D02*
D03*
X228476D02*
D03*
X238476D02*
D03*
Y-105108D02*
D03*
X228476D02*
D03*
X218476D02*
D03*
X208476D02*
D03*
X583476Y-45108D02*
D03*
X593476D02*
D03*
X603476D02*
D03*
X613476D02*
D03*
X623476D02*
D03*
Y-105108D02*
D03*
X613476D02*
D03*
X603476D02*
D03*
X593476D02*
D03*
D15*
X481901D02*
D03*
X766192D02*
D03*
X432688D02*
D03*
X716980D02*
D03*
X383476D02*
D03*
X334263D02*
D03*
X247688D02*
D03*
X632688D02*
D03*
X198476D02*
D03*
X583476D02*
D03*
D16*
X97058Y-106013D02*
D03*
X47058Y-44202D02*
D03*
X57058D02*
D03*
X67058D02*
D03*
X77058D02*
D03*
X87058D02*
D03*
X97058D02*
D03*
X107058D02*
D03*
X117058D02*
D03*
X127058D02*
D03*
Y-106013D02*
D03*
X117058D02*
D03*
X107058D02*
D03*
X87058D02*
D03*
X77058D02*
D03*
X67058D02*
D03*
X57058D02*
D03*
X47058D02*
D03*
D17*
X174900Y-85200D02*
D03*
X147900Y-129900D02*
D03*
Y-71500D02*
D03*
X178700Y-68800D02*
D03*
X107058Y-121800D02*
D03*
X127058Y-124500D02*
D03*
X227264Y-93080D02*
D03*
X188189Y-47313D02*
D03*
X160531Y-39575D02*
D03*
X593476Y-34000D02*
D03*
X613476Y-31300D02*
D03*
X642688Y-23200D02*
D03*
X632688Y-25900D02*
D03*
X662688Y-20500D02*
D03*
X672688Y-17800D02*
D03*
X583476Y-36900D02*
D03*
X623476Y-28600D02*
D03*
X572835Y-39700D02*
D03*
X334263Y-36800D02*
D03*
X344263Y-34000D02*
D03*
X364263Y-31300D02*
D03*
X374263Y-28600D02*
D03*
X383476Y-25900D02*
D03*
X393476Y-23200D02*
D03*
X413476Y-20500D02*
D03*
X423476Y-17800D02*
D03*
X432688Y-36900D02*
D03*
X442688Y-34000D02*
D03*
X462688Y-31300D02*
D03*
X472688Y-28600D02*
D03*
X481901Y-25900D02*
D03*
X491901Y-23200D02*
D03*
X511901Y-20500D02*
D03*
X521901Y-17700D02*
D03*
X572835Y-116400D02*
D03*
X198476Y-36900D02*
D03*
X208476Y-34000D02*
D03*
X228476Y-31300D02*
D03*
X238476Y-28600D02*
D03*
X247688Y-25900D02*
D03*
X257688Y-23200D02*
D03*
X277688Y-20500D02*
D03*
X287688Y-17800D02*
D03*
X583476Y-119100D02*
D03*
X593476Y-121800D02*
D03*
X613476Y-124500D02*
D03*
X632688Y-127200D02*
D03*
X642688Y-129900D02*
D03*
X662688Y-132700D02*
D03*
X334263Y-119100D02*
D03*
X344263Y-121800D02*
D03*
X364263Y-124500D02*
D03*
X383476Y-127200D02*
D03*
X393476Y-129900D02*
D03*
X413476Y-132656D02*
D03*
X432688Y-119100D02*
D03*
X442688Y-121800D02*
D03*
X462688Y-124500D02*
D03*
X481901Y-127200D02*
D03*
X491901Y-129900D02*
D03*
X511901Y-132656D02*
D03*
X198476Y-119100D02*
D03*
X208476Y-121800D02*
D03*
X228476Y-124500D02*
D03*
X247688Y-127200D02*
D03*
X257688Y-129900D02*
D03*
X277688Y-132656D02*
D03*
X87058Y-127200D02*
D03*
X77058Y-17800D02*
D03*
X127058Y-28600D02*
D03*
X107058Y-31300D02*
D03*
X138100Y-23200D02*
D03*
X144300Y-132656D02*
D03*
X141600Y-79700D02*
D03*
X158500Y-82400D02*
D03*
X153500Y-71500D02*
D03*
X163500Y-79700D02*
D03*
X138100Y-82400D02*
D03*
X173500Y-116400D02*
D03*
X158500Y-76900D02*
D03*
X144300D02*
D03*
X168500Y-20500D02*
D03*
X141600Y-25900D02*
D03*
X163500Y-17800D02*
D03*
X203500Y-31300D02*
D03*
X178500Y-34200D02*
D03*
X173500Y-36700D02*
D03*
X153500Y-127200D02*
D03*
X178600Y-74181D02*
D03*
X213500Y-85700D02*
D03*
X198500Y-82800D02*
D03*
X208700Y-79900D02*
D03*
X193300Y-77000D02*
D03*
X203500Y-74100D02*
D03*
X355285Y-82800D02*
D03*
X267333Y-77000D02*
D03*
X188500Y-68300D02*
D03*
X193500Y-71300D02*
D03*
X183500Y-65400D02*
D03*
X299000Y-121800D02*
D03*
X301969Y-124478D02*
D03*
X296063Y-119100D02*
D03*
X195000Y-28612D02*
D03*
X301969Y-71230D02*
D03*
X299000Y-68300D02*
D03*
X296063Y-65400D02*
D03*
X292928Y-62670D02*
D03*
Y-76939D02*
D03*
X683169Y-116407D02*
D03*
X683169Y-39734D02*
D03*
X305118Y-85700D02*
D03*
X188500Y-113600D02*
D03*
X282343Y-6000D02*
D03*
D18*
X318051Y-93113D02*
D03*
X328051D02*
D03*
X338051D02*
D03*
Y-57287D02*
D03*
X328051D02*
D03*
X318051D02*
D03*
D19*
X700000Y-116400D02*
D03*
X692520D02*
D03*
X699902Y-39734D02*
D03*
X692421D02*
D03*
X565354Y-95442D02*
D03*
X572835D02*
D03*
X565354Y-54981D02*
D03*
X572835D02*
D03*
D20*
X350326Y-76742D02*
D03*
X358200D02*
D03*
X350326Y-68671D02*
D03*
X358200D02*
D03*
X350326Y-60600D02*
D03*
X358200D02*
D03*
D21*
X342300Y-17837D02*
D03*
Y-9963D02*
D03*
X331000Y-17837D02*
D03*
Y-9963D02*
D03*
D22*
X218500Y-56893D02*
D03*
X213500D02*
D03*
X208500D02*
D03*
X203500D02*
D03*
X198500D02*
D03*
X193500D02*
D03*
X188500D02*
D03*
X183500D02*
D03*
X178500D02*
D03*
X173500D02*
D03*
X168500D02*
D03*
X163500D02*
D03*
X158500D02*
D03*
X153500D02*
D03*
Y-93507D02*
D03*
X158500D02*
D03*
X163500D02*
D03*
X168500D02*
D03*
X173500D02*
D03*
X178500D02*
D03*
X183500D02*
D03*
X188500D02*
D03*
X193500D02*
D03*
X198500D02*
D03*
X203500D02*
D03*
X208500D02*
D03*
X213500D02*
D03*
X218500D02*
D03*
D23*
X305118Y-43769D02*
D03*
X318110D02*
D03*
D24*
X233563Y-70738D02*
D03*
Y-77037D02*
D03*
D25*
X226279Y-77116D02*
D03*
Y-70659D02*
D03*
M02*
