G04 Layer_Color=32896*
%FSLAX25Y25*%
%MOIN*%
G70*
G01*
G75*
%ADD27C,0.00787*%
%ADD28C,0.00500*%
G36*
X134646Y-70573D02*
Y-80017D01*
Y-96366D01*
X7937D01*
Y-80017D01*
Y-70573D01*
Y-53547D01*
X134646D01*
Y-70573D01*
D02*
G37*
%LPC*%
G36*
X79418Y-82961D02*
X78829D01*
X78585Y-82972D01*
X78340Y-82983D01*
X78085Y-82994D01*
X77841Y-83017D01*
X77741Y-83028D01*
X77652Y-83039D01*
X77640D01*
X77618Y-83050D01*
X77574D01*
X77518Y-83072D01*
X77452Y-83083D01*
X77385Y-83105D01*
X77218Y-83172D01*
X77029Y-83250D01*
X76852Y-83361D01*
X76685Y-83494D01*
X76618Y-83561D01*
X76552Y-83650D01*
X76541Y-83672D01*
X76518Y-83694D01*
X76507Y-83739D01*
X76485Y-83783D01*
X76452Y-83850D01*
X76429Y-83928D01*
X76396Y-84017D01*
X76374Y-84117D01*
X76352Y-84228D01*
X76318Y-84350D01*
X76296Y-84483D01*
X76274Y-84639D01*
X76263Y-84805D01*
X76252Y-84983D01*
Y-85183D01*
Y-85205D01*
Y-85239D01*
Y-85283D01*
Y-85339D01*
X76263Y-85416D01*
Y-85516D01*
X76274Y-85628D01*
X80551D01*
Y-85639D01*
Y-85683D01*
Y-85739D01*
X80540Y-85816D01*
X80529Y-85983D01*
X80518Y-86050D01*
X80507Y-86116D01*
Y-86127D01*
X80496Y-86138D01*
X80474Y-86194D01*
X80418Y-86272D01*
X80340Y-86350D01*
X80329Y-86361D01*
X80285Y-86372D01*
X80218Y-86405D01*
X80107Y-86439D01*
X79962Y-86472D01*
X79874Y-86483D01*
X79774Y-86494D01*
X79663Y-86505D01*
X79529Y-86516D01*
X79396Y-86527D01*
X78929D01*
X78796Y-86516D01*
X78663D01*
X78529Y-86505D01*
X78418Y-86494D01*
X78407D01*
X78374Y-86483D01*
X78329Y-86472D01*
X78263Y-86461D01*
X78140Y-86416D01*
X78085Y-86383D01*
X78040Y-86350D01*
X78029Y-86327D01*
X77996Y-86283D01*
X77963Y-86194D01*
X77929Y-86061D01*
X76296D01*
Y-86072D01*
Y-86094D01*
X76307Y-86127D01*
Y-86183D01*
X76341Y-86305D01*
X76374Y-86461D01*
X76429Y-86627D01*
X76507Y-86805D01*
X76607Y-86961D01*
X76730Y-87094D01*
X76741Y-87105D01*
X76785Y-87138D01*
X76863Y-87183D01*
X76963Y-87238D01*
X77085Y-87305D01*
X77241Y-87361D01*
X77429Y-87416D01*
X77629Y-87461D01*
X77652D01*
X77685Y-87472D01*
X77741Y-87483D01*
X77796D01*
X77874Y-87494D01*
X77963Y-87505D01*
X78063Y-87516D01*
X78174Y-87527D01*
X78307Y-87538D01*
X78452Y-87550D01*
X78607D01*
X78774Y-87561D01*
X78952Y-87572D01*
X79696D01*
X79907Y-87561D01*
X80140Y-87550D01*
X80385Y-87538D01*
X80618Y-87516D01*
X80829Y-87483D01*
X80851D01*
X80918Y-87461D01*
X81007Y-87438D01*
X81118Y-87405D01*
X81251Y-87361D01*
X81385Y-87305D01*
X81518Y-87238D01*
X81640Y-87161D01*
X81651Y-87150D01*
X81696Y-87116D01*
X81740Y-87061D01*
X81807Y-86994D01*
X81884Y-86905D01*
X81951Y-86794D01*
X82018Y-86672D01*
X82073Y-86527D01*
Y-86505D01*
X82096Y-86450D01*
X82107Y-86361D01*
X82129Y-86227D01*
X82151Y-86050D01*
X82162Y-85839D01*
X82184Y-85583D01*
Y-85294D01*
Y-85283D01*
Y-85272D01*
Y-85239D01*
Y-85194D01*
Y-85083D01*
X82173Y-84939D01*
Y-84794D01*
X82162Y-84639D01*
X82151Y-84494D01*
X82140Y-84361D01*
Y-84350D01*
X82129Y-84305D01*
X82118Y-84250D01*
X82107Y-84172D01*
X82085Y-84083D01*
X82051Y-83983D01*
X81973Y-83783D01*
Y-83772D01*
X81962Y-83761D01*
X81918Y-83694D01*
X81851Y-83605D01*
X81751Y-83505D01*
X81618Y-83383D01*
X81462Y-83272D01*
X81251Y-83183D01*
X81018Y-83105D01*
X81007D01*
X80985Y-83094D01*
X80951D01*
X80907Y-83083D01*
X80840Y-83072D01*
X80762Y-83061D01*
X80673Y-83050D01*
X80573Y-83028D01*
X80451Y-83017D01*
X80318Y-83005D01*
X80163Y-82994D01*
X79996Y-82983D01*
X79818Y-82972D01*
X79629D01*
X79418Y-82961D01*
D02*
G37*
G36*
X76730Y-73673D02*
X75096D01*
Y-75684D01*
Y-75706D01*
Y-75762D01*
Y-75851D01*
X75085Y-75951D01*
X75074Y-76173D01*
X75063Y-76273D01*
X75052Y-76362D01*
Y-76373D01*
X75041Y-76395D01*
X75030Y-76428D01*
X75007Y-76473D01*
X74963Y-76584D01*
X74874Y-76695D01*
X74863D01*
X74852Y-76717D01*
X74819Y-76740D01*
X74774Y-76773D01*
X74663Y-76828D01*
X74519Y-76884D01*
X74507D01*
X74474Y-76895D01*
X74419D01*
X74341Y-76906D01*
X74241Y-76917D01*
X74130D01*
X73985Y-76928D01*
X73685D01*
X73552Y-76917D01*
X73385Y-76895D01*
X73208Y-76873D01*
X73030Y-76828D01*
X72863Y-76773D01*
X72796Y-76740D01*
X72741Y-76695D01*
X72730Y-76684D01*
X72708Y-76662D01*
X72685Y-76628D01*
X72641Y-76584D01*
X72608Y-76528D01*
X72563Y-76462D01*
X72530Y-76384D01*
X72508Y-76295D01*
Y-76284D01*
X72497Y-76251D01*
X72486Y-76184D01*
X72474Y-76095D01*
X72463Y-75984D01*
X72452Y-75828D01*
X72441Y-75651D01*
Y-75440D01*
Y-73673D01*
X70808D01*
Y-78051D01*
X72341D01*
Y-77395D01*
X72430D01*
X72441Y-77417D01*
X72463Y-77462D01*
X72519Y-77539D01*
X72585Y-77628D01*
X72674Y-77728D01*
X72774Y-77828D01*
X72908Y-77917D01*
X73052Y-77995D01*
X73074Y-78006D01*
X73130Y-78017D01*
X73230Y-78051D01*
X73363Y-78073D01*
X73541Y-78106D01*
X73763Y-78139D01*
X74019Y-78150D01*
X74308Y-78162D01*
X74496D01*
X74574Y-78150D01*
X74741D01*
X74930Y-78128D01*
X75141Y-78106D01*
X75341Y-78084D01*
X75519Y-78039D01*
X75541Y-78028D01*
X75596Y-78017D01*
X75674Y-77984D01*
X75774Y-77939D01*
X75896Y-77884D01*
X76018Y-77806D01*
X76141Y-77717D01*
X76252Y-77617D01*
X76263Y-77606D01*
X76296Y-77562D01*
X76352Y-77495D01*
X76407Y-77417D01*
X76474Y-77317D01*
X76541Y-77195D01*
X76596Y-77073D01*
X76641Y-76939D01*
Y-76917D01*
X76652Y-76873D01*
X76663Y-76773D01*
X76685Y-76639D01*
X76696Y-76473D01*
X76707Y-76373D01*
X76718Y-76251D01*
Y-76128D01*
X76730Y-75995D01*
Y-75840D01*
Y-75684D01*
Y-73673D01*
D02*
G37*
G36*
X58553D02*
X56765D01*
X55520Y-76862D01*
X54132Y-73673D01*
X52310D01*
X54643Y-78606D01*
Y-78617D01*
X54654Y-78639D01*
X54676Y-78673D01*
X54698Y-78717D01*
X54754Y-78839D01*
X54832Y-78984D01*
X54909Y-79139D01*
X54976Y-79284D01*
X55043Y-79406D01*
X55076Y-79450D01*
X55098Y-79484D01*
Y-79495D01*
X55120Y-79506D01*
X55176Y-79584D01*
X55276Y-79672D01*
X55409Y-79773D01*
X55432Y-79784D01*
X55476Y-79806D01*
X55576Y-79850D01*
X55698Y-79895D01*
X55865Y-79939D01*
X56065Y-79984D01*
X56309Y-80006D01*
X56598Y-80017D01*
X56887D01*
X56998Y-80006D01*
X57220D01*
X57298Y-79995D01*
Y-78861D01*
X56876D01*
X56798Y-78850D01*
X56709Y-78839D01*
X56509Y-78795D01*
X56409Y-78762D01*
X56331Y-78706D01*
X56320Y-78695D01*
X56298Y-78673D01*
X56265Y-78628D01*
X56209Y-78562D01*
X56154Y-78473D01*
X56087Y-78361D01*
X56020Y-78217D01*
X55943Y-78051D01*
X56609D01*
X58553Y-73673D01*
D02*
G37*
G36*
X60276Y-73562D02*
X60187D01*
X60120Y-73573D01*
X60031D01*
X59942Y-73584D01*
X59731Y-73606D01*
X59509Y-73662D01*
X59276Y-73729D01*
X59065Y-73817D01*
X58976Y-73884D01*
X58898Y-73951D01*
X58876Y-73973D01*
X58831Y-74029D01*
X58776Y-74129D01*
X58742Y-74195D01*
X58698Y-74273D01*
X58665Y-74362D01*
X58631Y-74462D01*
X58598Y-74573D01*
X58565Y-74695D01*
X58542Y-74828D01*
X58520Y-74984D01*
X58509Y-75151D01*
Y-75328D01*
Y-75340D01*
Y-75384D01*
Y-75428D01*
Y-75473D01*
X58520Y-75540D01*
Y-75617D01*
X60065D01*
Y-75595D01*
Y-75551D01*
Y-75484D01*
X60076Y-75406D01*
X60098Y-75229D01*
X60120Y-75151D01*
X60142Y-75084D01*
X60153Y-75073D01*
X60176Y-75040D01*
X60220Y-74995D01*
X60298Y-74940D01*
X60398Y-74884D01*
X60531Y-74840D01*
X60709Y-74806D01*
X60920Y-74795D01*
X61020D01*
X61120Y-74806D01*
X61242Y-74840D01*
X61387Y-74873D01*
X61520Y-74928D01*
X61642Y-75006D01*
X61753Y-75117D01*
Y-75129D01*
X61775Y-75140D01*
X61798Y-75184D01*
X61820Y-75229D01*
X61875Y-75351D01*
X61920Y-75506D01*
Y-75517D01*
Y-75551D01*
X61931Y-75606D01*
Y-75684D01*
X61942Y-75784D01*
Y-75917D01*
X61953Y-76062D01*
Y-76240D01*
Y-78051D01*
X63586D01*
Y-73673D01*
X62053D01*
Y-74329D01*
X61975D01*
X61964Y-74306D01*
X61931Y-74262D01*
X61887Y-74184D01*
X61809Y-74095D01*
X61720Y-74006D01*
X61620Y-73906D01*
X61498Y-73817D01*
X61364Y-73740D01*
X61342Y-73729D01*
X61298Y-73706D01*
X61209Y-73684D01*
X61087Y-73651D01*
X60931Y-73618D01*
X60742Y-73584D01*
X60520Y-73573D01*
X60276Y-73562D01*
D02*
G37*
G36*
X79885D02*
X79685D01*
X79607Y-73573D01*
X79429D01*
X79240Y-73595D01*
X79029Y-73618D01*
X78829Y-73651D01*
X78651Y-73695D01*
X78629D01*
X78574Y-73718D01*
X78496Y-73751D01*
X78385Y-73795D01*
X78274Y-73851D01*
X78140Y-73929D01*
X78018Y-74018D01*
X77907Y-74117D01*
X77896Y-74129D01*
X77863Y-74173D01*
X77807Y-74240D01*
X77741Y-74318D01*
X77685Y-74418D01*
X77618Y-74540D01*
X77563Y-74662D01*
X77518Y-74795D01*
Y-74817D01*
X77507Y-74862D01*
X77485Y-74962D01*
X77463Y-75095D01*
X77452Y-75262D01*
X77441Y-75373D01*
X77429Y-75484D01*
Y-75606D01*
X77418Y-75751D01*
Y-75895D01*
Y-76062D01*
Y-78051D01*
X79052D01*
Y-76062D01*
Y-76051D01*
Y-76039D01*
Y-75973D01*
Y-75884D01*
Y-75773D01*
X79063Y-75662D01*
X79074Y-75540D01*
X79085Y-75440D01*
X79096Y-75351D01*
Y-75340D01*
X79107Y-75317D01*
X79118Y-75284D01*
X79129Y-75240D01*
X79185Y-75140D01*
X79263Y-75040D01*
X79274Y-75029D01*
X79318Y-75006D01*
X79385Y-74962D01*
X79496Y-74917D01*
X79640Y-74873D01*
X79729Y-74851D01*
X79829Y-74828D01*
X79940Y-74817D01*
X80074Y-74806D01*
X80207Y-74795D01*
X80496D01*
X80573Y-74806D01*
X80651D01*
X80829Y-74828D01*
X81018Y-74862D01*
X81196Y-74917D01*
X81362Y-74984D01*
X81440Y-75029D01*
X81496Y-75084D01*
X81507Y-75095D01*
X81518Y-75117D01*
X81540Y-75151D01*
X81573Y-75195D01*
X81640Y-75317D01*
X81684Y-75484D01*
Y-75495D01*
X81696Y-75529D01*
Y-75584D01*
X81707Y-75673D01*
X81718Y-75784D01*
Y-75928D01*
X81729Y-76095D01*
Y-76306D01*
Y-78051D01*
X83362D01*
Y-73673D01*
X81829D01*
Y-74340D01*
X81740D01*
X81729Y-74318D01*
X81696Y-74273D01*
X81651Y-74195D01*
X81573Y-74106D01*
X81485Y-74006D01*
X81374Y-73906D01*
X81240Y-73817D01*
X81096Y-73740D01*
X81073Y-73729D01*
X81018Y-73706D01*
X80918Y-73684D01*
X80785Y-73651D01*
X80618Y-73618D01*
X80407Y-73584D01*
X80163Y-73573D01*
X79885Y-73562D01*
D02*
G37*
G36*
X110359Y-76406D02*
X108382D01*
Y-78051D01*
X110359D01*
Y-76406D01*
D02*
G37*
G36*
X125580Y-73673D02*
X123736D01*
X122369Y-76784D01*
X121025Y-73673D01*
X119170D01*
X121325Y-78051D01*
X123436D01*
X125580Y-73673D01*
D02*
G37*
G36*
X86862Y-73562D02*
X86229D01*
X86006Y-73573D01*
X85762Y-73584D01*
X85518Y-73595D01*
X85306Y-73618D01*
X85206Y-73640D01*
X85129Y-73651D01*
X85106D01*
X85062Y-73662D01*
X84984Y-73695D01*
X84895Y-73729D01*
X84784Y-73773D01*
X84673Y-73829D01*
X84562Y-73906D01*
X84451Y-74006D01*
X84440Y-74018D01*
X84418Y-74040D01*
X84384Y-74084D01*
X84340Y-74151D01*
X84284Y-74229D01*
X84240Y-74318D01*
X84195Y-74418D01*
X84162Y-74529D01*
Y-74540D01*
X84151Y-74584D01*
X84129Y-74651D01*
X84118Y-74751D01*
X84095Y-74884D01*
X84084Y-75040D01*
X84073Y-75217D01*
Y-75428D01*
Y-78051D01*
X85651D01*
Y-77451D01*
X85729D01*
X85740Y-77473D01*
X85762Y-77517D01*
X85806Y-77584D01*
X85862Y-77662D01*
X85940Y-77762D01*
X86040Y-77851D01*
X86162Y-77939D01*
X86295Y-78006D01*
X86306D01*
X86329Y-78017D01*
X86384Y-78028D01*
X86451Y-78051D01*
X86528Y-78062D01*
X86629Y-78084D01*
X86751Y-78106D01*
X86884Y-78117D01*
X86906D01*
X86951Y-78128D01*
X87040D01*
X87173Y-78139D01*
X87340Y-78150D01*
X87539D01*
X87784Y-78162D01*
X88295D01*
X88450Y-78150D01*
X88606Y-78139D01*
X88784Y-78128D01*
X88951Y-78106D01*
X89095Y-78073D01*
X89106D01*
X89151Y-78062D01*
X89217Y-78039D01*
X89295Y-78006D01*
X89484Y-77917D01*
X89573Y-77862D01*
X89662Y-77795D01*
X89673Y-77784D01*
X89706Y-77739D01*
X89762Y-77662D01*
X89817Y-77562D01*
X89873Y-77417D01*
X89928Y-77250D01*
X89961Y-77051D01*
X89973Y-76806D01*
Y-76795D01*
Y-76773D01*
Y-76728D01*
X89961Y-76684D01*
X89950Y-76551D01*
X89928Y-76384D01*
X89884Y-76206D01*
X89817Y-76028D01*
X89728Y-75851D01*
X89606Y-75706D01*
X89595Y-75695D01*
X89550Y-75662D01*
X89484Y-75617D01*
X89395Y-75562D01*
X89284Y-75506D01*
X89151Y-75451D01*
X88995Y-75395D01*
X88817Y-75362D01*
X88795D01*
X88762Y-75351D01*
X88717D01*
X88662Y-75340D01*
X88595Y-75328D01*
X88506D01*
X88406Y-75317D01*
X88295Y-75306D01*
X88162Y-75295D01*
X88017D01*
X87851Y-75284D01*
X87673D01*
X87473Y-75273D01*
X86829D01*
X86706Y-75284D01*
X86573D01*
X86440Y-75295D01*
X86317Y-75317D01*
X86217Y-75340D01*
X86206D01*
X86173Y-75351D01*
X86128Y-75373D01*
X86073Y-75395D01*
X86006Y-75440D01*
X85928Y-75484D01*
X85862Y-75540D01*
X85784Y-75617D01*
X85706D01*
Y-75395D01*
Y-75384D01*
Y-75373D01*
Y-75317D01*
X85717Y-75229D01*
X85729Y-75117D01*
X85751Y-75017D01*
X85795Y-74906D01*
X85840Y-74817D01*
X85906Y-74751D01*
X85917Y-74740D01*
X85951Y-74729D01*
X86006Y-74706D01*
X86095Y-74684D01*
X86217Y-74662D01*
X86384Y-74640D01*
X86473Y-74629D01*
X86584Y-74617D01*
X87128D01*
X87306Y-74629D01*
X87495Y-74640D01*
X87673Y-74651D01*
X87817Y-74673D01*
X87884Y-74684D01*
X87928Y-74695D01*
X87940D01*
X87962Y-74706D01*
X87995Y-74729D01*
X88039Y-74762D01*
X88084Y-74806D01*
X88117Y-74873D01*
X88151Y-74951D01*
X88173Y-75051D01*
X89806D01*
Y-75040D01*
Y-75029D01*
X89795Y-74973D01*
X89784Y-74873D01*
X89762Y-74762D01*
X89739Y-74640D01*
X89695Y-74518D01*
X89650Y-74395D01*
X89584Y-74284D01*
X89573Y-74262D01*
X89528Y-74217D01*
X89461Y-74140D01*
X89362Y-74051D01*
X89239Y-73962D01*
X89084Y-73862D01*
X88895Y-73784D01*
X88684Y-73718D01*
X88673D01*
X88651Y-73706D01*
X88617D01*
X88562Y-73695D01*
X88495Y-73684D01*
X88406Y-73673D01*
X88306Y-73651D01*
X88184Y-73640D01*
X88051Y-73629D01*
X87895Y-73606D01*
X87728Y-73595D01*
X87539Y-73584D01*
X87328Y-73573D01*
X87106D01*
X86862Y-73562D01*
D02*
G37*
G36*
X21357Y-71807D02*
X19913D01*
X19502Y-71818D01*
X19302D01*
X19113Y-71829D01*
X18924D01*
X18769Y-71840D01*
X18624D01*
X18513Y-71851D01*
X18491D01*
X18424Y-71862D01*
X18324Y-71873D01*
X18213Y-71895D01*
X18080Y-71929D01*
X17935Y-71962D01*
X17802Y-72018D01*
X17680Y-72073D01*
X17669Y-72084D01*
X17624Y-72107D01*
X17569Y-72151D01*
X17491Y-72218D01*
X17424Y-72295D01*
X17346Y-72395D01*
X17269Y-72507D01*
X17213Y-72640D01*
X17202Y-72662D01*
X17191Y-72707D01*
X17169Y-72795D01*
X17146Y-72918D01*
X17124Y-73073D01*
X17102Y-73262D01*
X17080Y-73495D01*
Y-73762D01*
Y-73773D01*
Y-73784D01*
Y-73851D01*
Y-73951D01*
X17091Y-74073D01*
Y-74206D01*
X17102Y-74351D01*
X17124Y-74495D01*
X17146Y-74617D01*
Y-74629D01*
X17158Y-74673D01*
X17169Y-74729D01*
X17191Y-74795D01*
X17258Y-74973D01*
X17358Y-75151D01*
X17369Y-75162D01*
X17391Y-75195D01*
X17435Y-75251D01*
X17502Y-75306D01*
X17569Y-75373D01*
X17658Y-75451D01*
X17769Y-75506D01*
X17880Y-75562D01*
X17891D01*
X17902Y-75573D01*
X17935Y-75584D01*
X17980Y-75595D01*
X18035Y-75606D01*
X18102Y-75629D01*
X18258Y-75662D01*
X18458Y-75706D01*
X18691Y-75751D01*
X18958Y-75784D01*
X19246Y-75806D01*
X19335D01*
X19424Y-75817D01*
X19557Y-75828D01*
X19713D01*
X19891Y-75840D01*
X20080Y-75851D01*
X20280Y-75873D01*
X20702Y-75895D01*
X20913Y-75906D01*
X21113Y-75928D01*
X21302Y-75940D01*
X21479Y-75951D01*
X21624Y-75962D01*
X21746Y-75973D01*
X21768D01*
X21835Y-75984D01*
X21935Y-75995D01*
X22046Y-76006D01*
X22168Y-76028D01*
X22279Y-76051D01*
X22368Y-76073D01*
X22435Y-76106D01*
X22457Y-76117D01*
X22490Y-76151D01*
X22546Y-76206D01*
X22579Y-76273D01*
Y-76295D01*
X22590Y-76317D01*
Y-76351D01*
X22602Y-76395D01*
Y-76462D01*
X22613Y-76539D01*
X22624Y-76628D01*
X16980D01*
Y-78051D01*
X24346D01*
Y-78039D01*
Y-77984D01*
Y-77917D01*
Y-77828D01*
X24357Y-77728D01*
Y-77606D01*
Y-77350D01*
Y-77339D01*
Y-77306D01*
Y-77250D01*
Y-77173D01*
Y-77084D01*
Y-76984D01*
X24346Y-76762D01*
Y-76506D01*
X24324Y-76262D01*
X24313Y-76028D01*
X24301Y-75917D01*
X24290Y-75828D01*
Y-75817D01*
X24279Y-75795D01*
X24268Y-75751D01*
X24257Y-75684D01*
X24235Y-75617D01*
X24201Y-75540D01*
X24113Y-75373D01*
X24057Y-75273D01*
X23990Y-75184D01*
X23912Y-75095D01*
X23812Y-75006D01*
X23712Y-74928D01*
X23590Y-74862D01*
X23457Y-74795D01*
X23302Y-74751D01*
X23290D01*
X23246Y-74740D01*
X23179Y-74729D01*
X23090Y-74706D01*
X23001Y-74684D01*
X22890Y-74673D01*
X22679Y-74640D01*
X22668D01*
X22613Y-74629D01*
X22579D01*
X22524Y-74617D01*
X22457D01*
X22368Y-74606D01*
X22279Y-74595D01*
X22168Y-74584D01*
X22035Y-74573D01*
X21879Y-74562D01*
X21713Y-74551D01*
X21524Y-74529D01*
X21302Y-74518D01*
X21068Y-74495D01*
X21013D01*
X20946Y-74484D01*
X20857D01*
X20757Y-74473D01*
X20646Y-74462D01*
X20380Y-74451D01*
X20113Y-74429D01*
X19991Y-74418D01*
X19869Y-74406D01*
X19757D01*
X19657Y-74395D01*
X19580Y-74384D01*
X19513D01*
X19480Y-74373D01*
X19435D01*
X19380Y-74362D01*
X19246Y-74329D01*
X19113Y-74295D01*
X19102D01*
X19091Y-74284D01*
X19024Y-74251D01*
X18946Y-74206D01*
X18891Y-74140D01*
X18880Y-74117D01*
X18869Y-74095D01*
X18857Y-74062D01*
Y-74006D01*
X18846Y-73951D01*
X18835Y-73873D01*
Y-73784D01*
Y-73773D01*
Y-73740D01*
Y-73695D01*
X18846Y-73640D01*
X18857Y-73506D01*
X18880Y-73451D01*
X18902Y-73406D01*
Y-73395D01*
X18913Y-73384D01*
X18946Y-73340D01*
X19024Y-73284D01*
X19124Y-73240D01*
X19135D01*
X19169Y-73229D01*
X19202Y-73218D01*
X19246D01*
X19302Y-73207D01*
X19380Y-73195D01*
X19457D01*
X19557Y-73184D01*
X19669D01*
X19802Y-73173D01*
X19957D01*
X20124Y-73162D01*
X21113D01*
X21346Y-73173D01*
X21590Y-73184D01*
X21813Y-73195D01*
X21902D01*
X21991Y-73207D01*
X22013D01*
X22057Y-73218D01*
X22124D01*
X22213Y-73229D01*
X22290Y-73251D01*
X22379Y-73273D01*
X22446Y-73295D01*
X22502Y-73329D01*
X22513Y-73340D01*
X22546Y-73384D01*
X22579Y-73451D01*
X22602Y-73540D01*
Y-73551D01*
Y-73573D01*
Y-73606D01*
Y-73673D01*
X22613Y-73751D01*
Y-73862D01*
Y-74006D01*
Y-74173D01*
X24435D01*
Y-74162D01*
Y-74140D01*
Y-74106D01*
Y-74051D01*
Y-73918D01*
X24424Y-73762D01*
Y-73573D01*
X24412Y-73395D01*
X24401Y-73207D01*
X24379Y-73051D01*
Y-73040D01*
X24368Y-73018D01*
Y-72984D01*
X24357Y-72940D01*
X24313Y-72818D01*
X24257Y-72673D01*
X24179Y-72518D01*
X24068Y-72362D01*
X23935Y-72218D01*
X23757Y-72107D01*
X23746Y-72096D01*
X23690Y-72084D01*
X23613Y-72051D01*
X23502Y-72018D01*
X23368Y-71973D01*
X23201Y-71940D01*
X23013Y-71907D01*
X22790Y-71873D01*
X22757D01*
X22724Y-71862D01*
X22613D01*
X22524Y-71851D01*
X22435D01*
X22324Y-71840D01*
X22202Y-71829D01*
X22057D01*
X21913Y-71818D01*
X21557D01*
X21357Y-71807D01*
D02*
G37*
G36*
X29756D02*
X28312D01*
X27901Y-71818D01*
X27701D01*
X27512Y-71829D01*
X27323D01*
X27168Y-71840D01*
X27023D01*
X26912Y-71851D01*
X26890D01*
X26823Y-71862D01*
X26723Y-71873D01*
X26612Y-71895D01*
X26479Y-71929D01*
X26335Y-71962D01*
X26201Y-72018D01*
X26079Y-72073D01*
X26068Y-72084D01*
X26023Y-72107D01*
X25968Y-72151D01*
X25890Y-72218D01*
X25824Y-72295D01*
X25746Y-72395D01*
X25668Y-72507D01*
X25612Y-72640D01*
X25601Y-72662D01*
X25590Y-72707D01*
X25568Y-72795D01*
X25546Y-72918D01*
X25523Y-73073D01*
X25501Y-73262D01*
X25479Y-73495D01*
Y-73762D01*
Y-73773D01*
Y-73784D01*
Y-73851D01*
Y-73951D01*
X25490Y-74073D01*
Y-74206D01*
X25501Y-74351D01*
X25523Y-74495D01*
X25546Y-74617D01*
Y-74629D01*
X25557Y-74673D01*
X25568Y-74729D01*
X25590Y-74795D01*
X25657Y-74973D01*
X25757Y-75151D01*
X25768Y-75162D01*
X25790Y-75195D01*
X25835Y-75251D01*
X25901Y-75306D01*
X25968Y-75373D01*
X26057Y-75451D01*
X26168Y-75506D01*
X26279Y-75562D01*
X26290D01*
X26301Y-75573D01*
X26335Y-75584D01*
X26379Y-75595D01*
X26434Y-75606D01*
X26501Y-75629D01*
X26657Y-75662D01*
X26857Y-75706D01*
X27090Y-75751D01*
X27357Y-75784D01*
X27645Y-75806D01*
X27734D01*
X27823Y-75817D01*
X27957Y-75828D01*
X28112D01*
X28290Y-75840D01*
X28479Y-75851D01*
X28679Y-75873D01*
X29101Y-75895D01*
X29312Y-75906D01*
X29512Y-75928D01*
X29701Y-75940D01*
X29879Y-75951D01*
X30023Y-75962D01*
X30145Y-75973D01*
X30167D01*
X30234Y-75984D01*
X30334Y-75995D01*
X30445Y-76006D01*
X30567Y-76028D01*
X30678Y-76051D01*
X30767Y-76073D01*
X30834Y-76106D01*
X30856Y-76117D01*
X30890Y-76151D01*
X30945Y-76206D01*
X30979Y-76273D01*
Y-76295D01*
X30990Y-76317D01*
Y-76351D01*
X31001Y-76395D01*
Y-76462D01*
X31012Y-76539D01*
X31023Y-76628D01*
X25379D01*
Y-78051D01*
X32745D01*
Y-78039D01*
Y-77984D01*
Y-77917D01*
Y-77828D01*
X32756Y-77728D01*
Y-77606D01*
Y-77350D01*
Y-77339D01*
Y-77306D01*
Y-77250D01*
Y-77173D01*
Y-77084D01*
Y-76984D01*
X32745Y-76762D01*
Y-76506D01*
X32723Y-76262D01*
X32712Y-76028D01*
X32700Y-75917D01*
X32689Y-75828D01*
Y-75817D01*
X32678Y-75795D01*
X32667Y-75751D01*
X32656Y-75684D01*
X32634Y-75617D01*
X32601Y-75540D01*
X32512Y-75373D01*
X32456Y-75273D01*
X32390Y-75184D01*
X32312Y-75095D01*
X32212Y-75006D01*
X32112Y-74928D01*
X31989Y-74862D01*
X31856Y-74795D01*
X31701Y-74751D01*
X31690D01*
X31645Y-74740D01*
X31578Y-74729D01*
X31490Y-74706D01*
X31401Y-74684D01*
X31290Y-74673D01*
X31078Y-74640D01*
X31067D01*
X31012Y-74629D01*
X30979D01*
X30923Y-74617D01*
X30856D01*
X30767Y-74606D01*
X30678Y-74595D01*
X30567Y-74584D01*
X30434Y-74573D01*
X30279Y-74562D01*
X30112Y-74551D01*
X29923Y-74529D01*
X29701Y-74518D01*
X29467Y-74495D01*
X29412D01*
X29345Y-74484D01*
X29256D01*
X29157Y-74473D01*
X29045Y-74462D01*
X28779Y-74451D01*
X28512Y-74429D01*
X28390Y-74418D01*
X28268Y-74406D01*
X28157D01*
X28057Y-74395D01*
X27979Y-74384D01*
X27912D01*
X27879Y-74373D01*
X27834D01*
X27779Y-74362D01*
X27645Y-74329D01*
X27512Y-74295D01*
X27501D01*
X27490Y-74284D01*
X27423Y-74251D01*
X27345Y-74206D01*
X27290Y-74140D01*
X27279Y-74117D01*
X27268Y-74095D01*
X27257Y-74062D01*
Y-74006D01*
X27246Y-73951D01*
X27234Y-73873D01*
Y-73784D01*
Y-73773D01*
Y-73740D01*
Y-73695D01*
X27246Y-73640D01*
X27257Y-73506D01*
X27279Y-73451D01*
X27301Y-73406D01*
Y-73395D01*
X27312Y-73384D01*
X27345Y-73340D01*
X27423Y-73284D01*
X27523Y-73240D01*
X27534D01*
X27568Y-73229D01*
X27601Y-73218D01*
X27645D01*
X27701Y-73207D01*
X27779Y-73195D01*
X27857D01*
X27957Y-73184D01*
X28068D01*
X28201Y-73173D01*
X28357D01*
X28523Y-73162D01*
X29512D01*
X29745Y-73173D01*
X29990Y-73184D01*
X30212Y-73195D01*
X30301D01*
X30390Y-73207D01*
X30412D01*
X30456Y-73218D01*
X30523D01*
X30612Y-73229D01*
X30690Y-73251D01*
X30779Y-73273D01*
X30845Y-73295D01*
X30901Y-73329D01*
X30912Y-73340D01*
X30945Y-73384D01*
X30979Y-73451D01*
X31001Y-73540D01*
Y-73551D01*
Y-73573D01*
Y-73606D01*
Y-73673D01*
X31012Y-73751D01*
Y-73862D01*
Y-74006D01*
Y-74173D01*
X32834D01*
Y-74162D01*
Y-74140D01*
Y-74106D01*
Y-74051D01*
Y-73918D01*
X32823Y-73762D01*
Y-73573D01*
X32812Y-73395D01*
X32800Y-73207D01*
X32778Y-73051D01*
Y-73040D01*
X32767Y-73018D01*
Y-72984D01*
X32756Y-72940D01*
X32712Y-72818D01*
X32656Y-72673D01*
X32578Y-72518D01*
X32467Y-72362D01*
X32334Y-72218D01*
X32156Y-72107D01*
X32145Y-72096D01*
X32089Y-72084D01*
X32012Y-72051D01*
X31901Y-72018D01*
X31767Y-71973D01*
X31601Y-71940D01*
X31412Y-71907D01*
X31190Y-71873D01*
X31156D01*
X31123Y-71862D01*
X31012D01*
X30923Y-71851D01*
X30834D01*
X30723Y-71840D01*
X30601Y-71829D01*
X30456D01*
X30312Y-71818D01*
X29956D01*
X29756Y-71807D01*
D02*
G37*
G36*
X46555D02*
X45110D01*
X44699Y-71818D01*
X44499D01*
X44311Y-71829D01*
X44122D01*
X43966Y-71840D01*
X43822D01*
X43711Y-71851D01*
X43688D01*
X43622Y-71862D01*
X43522Y-71873D01*
X43411Y-71895D01*
X43277Y-71929D01*
X43133Y-71962D01*
X43000Y-72018D01*
X42877Y-72073D01*
X42866Y-72084D01*
X42822Y-72107D01*
X42766Y-72151D01*
X42688Y-72218D01*
X42622Y-72295D01*
X42544Y-72395D01*
X42466Y-72507D01*
X42411Y-72640D01*
X42400Y-72662D01*
X42388Y-72707D01*
X42366Y-72795D01*
X42344Y-72918D01*
X42322Y-73073D01*
X42300Y-73262D01*
X42277Y-73495D01*
Y-73762D01*
Y-73773D01*
Y-73784D01*
Y-73851D01*
Y-73951D01*
X42289Y-74073D01*
Y-74206D01*
X42300Y-74351D01*
X42322Y-74495D01*
X42344Y-74617D01*
Y-74629D01*
X42355Y-74673D01*
X42366Y-74729D01*
X42388Y-74795D01*
X42455Y-74973D01*
X42555Y-75151D01*
X42566Y-75162D01*
X42588Y-75195D01*
X42633Y-75251D01*
X42700Y-75306D01*
X42766Y-75373D01*
X42855Y-75451D01*
X42966Y-75506D01*
X43077Y-75562D01*
X43088D01*
X43099Y-75573D01*
X43133Y-75584D01*
X43177Y-75595D01*
X43233Y-75606D01*
X43299Y-75629D01*
X43455Y-75662D01*
X43655Y-75706D01*
X43888Y-75751D01*
X44155Y-75784D01*
X44444Y-75806D01*
X44533D01*
X44622Y-75817D01*
X44755Y-75828D01*
X44910D01*
X45088Y-75840D01*
X45277Y-75851D01*
X45477Y-75873D01*
X45899Y-75895D01*
X46110Y-75906D01*
X46310Y-75928D01*
X46499Y-75940D01*
X46677Y-75951D01*
X46821Y-75962D01*
X46944Y-75973D01*
X46966D01*
X47032Y-75984D01*
X47132Y-75995D01*
X47243Y-76006D01*
X47366Y-76028D01*
X47477Y-76051D01*
X47566Y-76073D01*
X47632Y-76106D01*
X47655Y-76117D01*
X47688Y-76151D01*
X47743Y-76206D01*
X47777Y-76273D01*
Y-76295D01*
X47788Y-76317D01*
Y-76351D01*
X47799Y-76395D01*
Y-76462D01*
X47810Y-76539D01*
X47821Y-76628D01*
X42177D01*
Y-78051D01*
X49543D01*
Y-78039D01*
Y-77984D01*
Y-77917D01*
Y-77828D01*
X49554Y-77728D01*
Y-77606D01*
Y-77350D01*
Y-77339D01*
Y-77306D01*
Y-77250D01*
Y-77173D01*
Y-77084D01*
Y-76984D01*
X49543Y-76762D01*
Y-76506D01*
X49521Y-76262D01*
X49510Y-76028D01*
X49499Y-75917D01*
X49488Y-75828D01*
Y-75817D01*
X49477Y-75795D01*
X49466Y-75751D01*
X49454Y-75684D01*
X49432Y-75617D01*
X49399Y-75540D01*
X49310Y-75373D01*
X49254Y-75273D01*
X49188Y-75184D01*
X49110Y-75095D01*
X49010Y-75006D01*
X48910Y-74928D01*
X48788Y-74862D01*
X48654Y-74795D01*
X48499Y-74751D01*
X48488D01*
X48443Y-74740D01*
X48377Y-74729D01*
X48288Y-74706D01*
X48199Y-74684D01*
X48088Y-74673D01*
X47877Y-74640D01*
X47866D01*
X47810Y-74629D01*
X47777D01*
X47721Y-74617D01*
X47655D01*
X47566Y-74606D01*
X47477Y-74595D01*
X47366Y-74584D01*
X47232Y-74573D01*
X47077Y-74562D01*
X46910Y-74551D01*
X46721Y-74529D01*
X46499Y-74518D01*
X46266Y-74495D01*
X46210D01*
X46144Y-74484D01*
X46055D01*
X45955Y-74473D01*
X45844Y-74462D01*
X45577Y-74451D01*
X45310Y-74429D01*
X45188Y-74418D01*
X45066Y-74406D01*
X44955D01*
X44855Y-74395D01*
X44777Y-74384D01*
X44710D01*
X44677Y-74373D01*
X44633D01*
X44577Y-74362D01*
X44444Y-74329D01*
X44311Y-74295D01*
X44299D01*
X44288Y-74284D01*
X44222Y-74251D01*
X44144Y-74206D01*
X44088Y-74140D01*
X44077Y-74117D01*
X44066Y-74095D01*
X44055Y-74062D01*
Y-74006D01*
X44044Y-73951D01*
X44033Y-73873D01*
Y-73784D01*
Y-73773D01*
Y-73740D01*
Y-73695D01*
X44044Y-73640D01*
X44055Y-73506D01*
X44077Y-73451D01*
X44099Y-73406D01*
Y-73395D01*
X44111Y-73384D01*
X44144Y-73340D01*
X44222Y-73284D01*
X44322Y-73240D01*
X44333D01*
X44366Y-73229D01*
X44399Y-73218D01*
X44444D01*
X44499Y-73207D01*
X44577Y-73195D01*
X44655D01*
X44755Y-73184D01*
X44866D01*
X44999Y-73173D01*
X45155D01*
X45322Y-73162D01*
X46310D01*
X46544Y-73173D01*
X46788Y-73184D01*
X47010Y-73195D01*
X47099D01*
X47188Y-73207D01*
X47210D01*
X47255Y-73218D01*
X47321D01*
X47410Y-73229D01*
X47488Y-73251D01*
X47577Y-73273D01*
X47644Y-73295D01*
X47699Y-73329D01*
X47710Y-73340D01*
X47743Y-73384D01*
X47777Y-73451D01*
X47799Y-73540D01*
Y-73551D01*
Y-73573D01*
Y-73606D01*
Y-73673D01*
X47810Y-73751D01*
Y-73862D01*
Y-74006D01*
Y-74173D01*
X49632D01*
Y-74162D01*
Y-74140D01*
Y-74106D01*
Y-74051D01*
Y-73918D01*
X49621Y-73762D01*
Y-73573D01*
X49610Y-73395D01*
X49599Y-73207D01*
X49577Y-73051D01*
Y-73040D01*
X49566Y-73018D01*
Y-72984D01*
X49554Y-72940D01*
X49510Y-72818D01*
X49454Y-72673D01*
X49377Y-72518D01*
X49266Y-72362D01*
X49132Y-72218D01*
X48954Y-72107D01*
X48943Y-72096D01*
X48888Y-72084D01*
X48810Y-72051D01*
X48699Y-72018D01*
X48566Y-71973D01*
X48399Y-71940D01*
X48210Y-71907D01*
X47988Y-71873D01*
X47955D01*
X47921Y-71862D01*
X47810D01*
X47721Y-71851D01*
X47632D01*
X47521Y-71840D01*
X47399Y-71829D01*
X47255D01*
X47110Y-71818D01*
X46755D01*
X46555Y-71807D01*
D02*
G37*
G36*
X58698Y-81250D02*
X55821D01*
X59387Y-84328D01*
X55520Y-87461D01*
X58376D01*
X61142Y-85105D01*
X62164D01*
Y-87461D01*
X64042D01*
Y-81295D01*
X62164D01*
Y-83528D01*
X61142D01*
X58698Y-81250D01*
D02*
G37*
G36*
X67086Y-73562D02*
X66453D01*
X66230Y-73573D01*
X65986Y-73584D01*
X65742Y-73595D01*
X65531Y-73618D01*
X65431Y-73640D01*
X65353Y-73651D01*
X65331D01*
X65286Y-73662D01*
X65208Y-73695D01*
X65119Y-73729D01*
X65008Y-73773D01*
X64897Y-73829D01*
X64786Y-73906D01*
X64675Y-74006D01*
X64664Y-74018D01*
X64642Y-74040D01*
X64609Y-74084D01*
X64564Y-74151D01*
X64508Y-74229D01*
X64464Y-74318D01*
X64420Y-74418D01*
X64386Y-74529D01*
Y-74540D01*
X64375Y-74584D01*
X64353Y-74651D01*
X64342Y-74751D01*
X64320Y-74884D01*
X64309Y-75040D01*
X64297Y-75217D01*
Y-75428D01*
Y-78051D01*
X65875D01*
Y-77451D01*
X65953D01*
X65964Y-77473D01*
X65986Y-77517D01*
X66031Y-77584D01*
X66086Y-77662D01*
X66164Y-77762D01*
X66264Y-77851D01*
X66386Y-77939D01*
X66519Y-78006D01*
X66531D01*
X66553Y-78017D01*
X66608Y-78028D01*
X66675Y-78051D01*
X66753Y-78062D01*
X66853Y-78084D01*
X66975Y-78106D01*
X67108Y-78117D01*
X67130D01*
X67175Y-78128D01*
X67264D01*
X67397Y-78139D01*
X67564Y-78150D01*
X67764D01*
X68008Y-78162D01*
X68519D01*
X68675Y-78150D01*
X68830Y-78139D01*
X69008Y-78128D01*
X69175Y-78106D01*
X69319Y-78073D01*
X69330D01*
X69375Y-78062D01*
X69441Y-78039D01*
X69519Y-78006D01*
X69708Y-77917D01*
X69797Y-77862D01*
X69886Y-77795D01*
X69897Y-77784D01*
X69930Y-77739D01*
X69986Y-77662D01*
X70041Y-77562D01*
X70097Y-77417D01*
X70152Y-77250D01*
X70186Y-77051D01*
X70197Y-76806D01*
Y-76795D01*
Y-76773D01*
Y-76728D01*
X70186Y-76684D01*
X70175Y-76551D01*
X70152Y-76384D01*
X70108Y-76206D01*
X70041Y-76028D01*
X69952Y-75851D01*
X69830Y-75706D01*
X69819Y-75695D01*
X69775Y-75662D01*
X69708Y-75617D01*
X69619Y-75562D01*
X69508Y-75506D01*
X69375Y-75451D01*
X69219Y-75395D01*
X69041Y-75362D01*
X69019D01*
X68986Y-75351D01*
X68941D01*
X68886Y-75340D01*
X68819Y-75328D01*
X68730D01*
X68630Y-75317D01*
X68519Y-75306D01*
X68386Y-75295D01*
X68241D01*
X68075Y-75284D01*
X67897D01*
X67697Y-75273D01*
X67053D01*
X66930Y-75284D01*
X66797D01*
X66664Y-75295D01*
X66542Y-75317D01*
X66442Y-75340D01*
X66430D01*
X66397Y-75351D01*
X66353Y-75373D01*
X66297Y-75395D01*
X66230Y-75440D01*
X66153Y-75484D01*
X66086Y-75540D01*
X66008Y-75617D01*
X65931D01*
Y-75395D01*
Y-75384D01*
Y-75373D01*
Y-75317D01*
X65942Y-75229D01*
X65953Y-75117D01*
X65975Y-75017D01*
X66019Y-74906D01*
X66064Y-74817D01*
X66131Y-74751D01*
X66142Y-74740D01*
X66175Y-74729D01*
X66230Y-74706D01*
X66319Y-74684D01*
X66442Y-74662D01*
X66608Y-74640D01*
X66697Y-74629D01*
X66808Y-74617D01*
X67353D01*
X67530Y-74629D01*
X67719Y-74640D01*
X67897Y-74651D01*
X68041Y-74673D01*
X68108Y-74684D01*
X68152Y-74695D01*
X68164D01*
X68186Y-74706D01*
X68219Y-74729D01*
X68264Y-74762D01*
X68308Y-74806D01*
X68341Y-74873D01*
X68375Y-74951D01*
X68397Y-75051D01*
X70030D01*
Y-75040D01*
Y-75029D01*
X70019Y-74973D01*
X70008Y-74873D01*
X69986Y-74762D01*
X69964Y-74640D01*
X69919Y-74518D01*
X69875Y-74395D01*
X69808Y-74284D01*
X69797Y-74262D01*
X69752Y-74217D01*
X69686Y-74140D01*
X69586Y-74051D01*
X69463Y-73962D01*
X69308Y-73862D01*
X69119Y-73784D01*
X68908Y-73718D01*
X68897D01*
X68875Y-73706D01*
X68841D01*
X68786Y-73695D01*
X68719Y-73684D01*
X68630Y-73673D01*
X68530Y-73651D01*
X68408Y-73640D01*
X68275Y-73629D01*
X68119Y-73606D01*
X67953Y-73595D01*
X67764Y-73584D01*
X67553Y-73573D01*
X67330D01*
X67086Y-73562D01*
D02*
G37*
G36*
X93572Y-82072D02*
X91939D01*
Y-83083D01*
X89350D01*
Y-84250D01*
X91939D01*
Y-85527D01*
Y-85550D01*
Y-85605D01*
Y-85694D01*
X91928Y-85794D01*
Y-85905D01*
X91906Y-86016D01*
X91895Y-86105D01*
X91872Y-86172D01*
X91861Y-86183D01*
X91850Y-86205D01*
X91806Y-86238D01*
X91750Y-86283D01*
X91672Y-86327D01*
X91572Y-86361D01*
X91450Y-86383D01*
X91295Y-86394D01*
X91217D01*
X91139Y-86383D01*
X91039Y-86372D01*
X90939Y-86339D01*
X90839Y-86305D01*
X90761Y-86250D01*
X90706Y-86183D01*
X90695Y-86172D01*
X90684Y-86127D01*
X90661Y-86072D01*
X90650Y-86016D01*
Y-85994D01*
Y-85972D01*
X90639Y-85927D01*
Y-85872D01*
Y-85794D01*
Y-85705D01*
Y-85583D01*
X89151D01*
Y-85594D01*
Y-85605D01*
Y-85639D01*
Y-85683D01*
X89162Y-85794D01*
Y-85939D01*
X89173Y-86083D01*
X89184Y-86238D01*
X89206Y-86372D01*
X89228Y-86494D01*
Y-86505D01*
X89239Y-86538D01*
X89250Y-86594D01*
X89284Y-86661D01*
X89317Y-86739D01*
X89350Y-86827D01*
X89406Y-86927D01*
X89473Y-87016D01*
X89484Y-87027D01*
X89517Y-87072D01*
X89573Y-87116D01*
X89650Y-87183D01*
X89750Y-87261D01*
X89862Y-87327D01*
X89995Y-87394D01*
X90150Y-87450D01*
X90173D01*
X90228Y-87472D01*
X90328Y-87483D01*
X90473Y-87505D01*
X90650Y-87527D01*
X90873Y-87550D01*
X91128Y-87561D01*
X91428Y-87572D01*
X91695D01*
X91872Y-87561D01*
X92061Y-87550D01*
X92261Y-87538D01*
X92439Y-87516D01*
X92606Y-87483D01*
X92617D01*
X92672Y-87472D01*
X92739Y-87450D01*
X92828Y-87416D01*
X92917Y-87372D01*
X93028Y-87316D01*
X93128Y-87249D01*
X93217Y-87172D01*
X93228Y-87161D01*
X93250Y-87138D01*
X93272Y-87105D01*
X93317Y-87061D01*
X93395Y-86939D01*
X93472Y-86794D01*
Y-86783D01*
X93483Y-86761D01*
X93494Y-86716D01*
X93517Y-86650D01*
X93528Y-86572D01*
X93550Y-86472D01*
X93561Y-86361D01*
X93572Y-86238D01*
Y-86227D01*
Y-86205D01*
Y-86161D01*
Y-86094D01*
Y-86005D01*
Y-85883D01*
Y-85728D01*
Y-85527D01*
Y-84250D01*
X94439D01*
Y-83083D01*
X93572D01*
Y-82072D01*
D02*
G37*
G36*
X32912Y-82972D02*
X32278D01*
X32056Y-82983D01*
X31812Y-82994D01*
X31567Y-83005D01*
X31356Y-83028D01*
X31256Y-83050D01*
X31179Y-83061D01*
X31156D01*
X31112Y-83072D01*
X31034Y-83105D01*
X30945Y-83139D01*
X30834Y-83183D01*
X30723Y-83239D01*
X30612Y-83317D01*
X30501Y-83417D01*
X30490Y-83428D01*
X30467Y-83450D01*
X30434Y-83494D01*
X30390Y-83561D01*
X30334Y-83639D01*
X30290Y-83728D01*
X30245Y-83828D01*
X30212Y-83939D01*
Y-83950D01*
X30201Y-83994D01*
X30179Y-84061D01*
X30167Y-84161D01*
X30145Y-84294D01*
X30134Y-84450D01*
X30123Y-84628D01*
Y-84839D01*
Y-87461D01*
X31701D01*
Y-86861D01*
X31778D01*
X31789Y-86883D01*
X31812Y-86927D01*
X31856Y-86994D01*
X31912Y-87072D01*
X31989Y-87172D01*
X32089Y-87261D01*
X32212Y-87349D01*
X32345Y-87416D01*
X32356D01*
X32378Y-87427D01*
X32434Y-87438D01*
X32501Y-87461D01*
X32578Y-87472D01*
X32678Y-87494D01*
X32800Y-87516D01*
X32934Y-87527D01*
X32956D01*
X33000Y-87538D01*
X33089D01*
X33223Y-87550D01*
X33389Y-87561D01*
X33589D01*
X33834Y-87572D01*
X34345D01*
X34500Y-87561D01*
X34656Y-87550D01*
X34834Y-87538D01*
X35000Y-87516D01*
X35145Y-87483D01*
X35156D01*
X35200Y-87472D01*
X35267Y-87450D01*
X35345Y-87416D01*
X35534Y-87327D01*
X35623Y-87272D01*
X35711Y-87205D01*
X35723Y-87194D01*
X35756Y-87150D01*
X35811Y-87072D01*
X35867Y-86972D01*
X35922Y-86827D01*
X35978Y-86661D01*
X36011Y-86461D01*
X36022Y-86216D01*
Y-86205D01*
Y-86183D01*
Y-86138D01*
X36011Y-86094D01*
X36000Y-85961D01*
X35978Y-85794D01*
X35934Y-85616D01*
X35867Y-85439D01*
X35778Y-85261D01*
X35656Y-85116D01*
X35645Y-85105D01*
X35600Y-85072D01*
X35534Y-85027D01*
X35445Y-84972D01*
X35334Y-84916D01*
X35200Y-84861D01*
X35045Y-84805D01*
X34867Y-84772D01*
X34845D01*
X34811Y-84761D01*
X34767D01*
X34712Y-84750D01*
X34645Y-84739D01*
X34556D01*
X34456Y-84728D01*
X34345Y-84716D01*
X34212Y-84705D01*
X34067D01*
X33900Y-84694D01*
X33723D01*
X33523Y-84683D01*
X32878D01*
X32756Y-84694D01*
X32623D01*
X32489Y-84705D01*
X32367Y-84728D01*
X32267Y-84750D01*
X32256D01*
X32223Y-84761D01*
X32178Y-84783D01*
X32123Y-84805D01*
X32056Y-84850D01*
X31978Y-84894D01*
X31912Y-84950D01*
X31834Y-85027D01*
X31756D01*
Y-84805D01*
Y-84794D01*
Y-84783D01*
Y-84728D01*
X31767Y-84639D01*
X31778Y-84528D01*
X31801Y-84428D01*
X31845Y-84316D01*
X31890Y-84228D01*
X31956Y-84161D01*
X31967Y-84150D01*
X32001Y-84139D01*
X32056Y-84117D01*
X32145Y-84094D01*
X32267Y-84072D01*
X32434Y-84050D01*
X32523Y-84039D01*
X32634Y-84028D01*
X33178D01*
X33356Y-84039D01*
X33545Y-84050D01*
X33723Y-84061D01*
X33867Y-84083D01*
X33934Y-84094D01*
X33978Y-84105D01*
X33989D01*
X34012Y-84117D01*
X34045Y-84139D01*
X34089Y-84172D01*
X34134Y-84216D01*
X34167Y-84283D01*
X34200Y-84361D01*
X34223Y-84461D01*
X35856D01*
Y-84450D01*
Y-84439D01*
X35845Y-84383D01*
X35834Y-84283D01*
X35811Y-84172D01*
X35789Y-84050D01*
X35745Y-83928D01*
X35700Y-83805D01*
X35634Y-83694D01*
X35623Y-83672D01*
X35578Y-83628D01*
X35511Y-83550D01*
X35411Y-83461D01*
X35289Y-83372D01*
X35134Y-83272D01*
X34945Y-83194D01*
X34734Y-83128D01*
X34723D01*
X34700Y-83117D01*
X34667D01*
X34611Y-83105D01*
X34545Y-83094D01*
X34456Y-83083D01*
X34356Y-83061D01*
X34234Y-83050D01*
X34100Y-83039D01*
X33945Y-83017D01*
X33778Y-83005D01*
X33589Y-82994D01*
X33378Y-82983D01*
X33156D01*
X32912Y-82972D01*
D02*
G37*
G36*
X102938D02*
X102305D01*
X102083Y-82983D01*
X101838Y-82994D01*
X101594Y-83005D01*
X101383Y-83028D01*
X101283Y-83050D01*
X101205Y-83061D01*
X101183D01*
X101138Y-83072D01*
X101060Y-83105D01*
X100971Y-83139D01*
X100860Y-83183D01*
X100749Y-83239D01*
X100638Y-83317D01*
X100527Y-83417D01*
X100516Y-83428D01*
X100494Y-83450D01*
X100460Y-83494D01*
X100416Y-83561D01*
X100360Y-83639D01*
X100316Y-83728D01*
X100272Y-83828D01*
X100238Y-83939D01*
Y-83950D01*
X100227Y-83994D01*
X100205Y-84061D01*
X100194Y-84161D01*
X100172Y-84294D01*
X100161Y-84450D01*
X100149Y-84628D01*
Y-84839D01*
Y-87461D01*
X101727D01*
Y-86861D01*
X101805D01*
X101816Y-86883D01*
X101838Y-86927D01*
X101883Y-86994D01*
X101938Y-87072D01*
X102016Y-87172D01*
X102116Y-87261D01*
X102238Y-87349D01*
X102371Y-87416D01*
X102383D01*
X102405Y-87427D01*
X102460Y-87438D01*
X102527Y-87461D01*
X102605Y-87472D01*
X102705Y-87494D01*
X102827Y-87516D01*
X102960Y-87527D01*
X102982D01*
X103027Y-87538D01*
X103116D01*
X103249Y-87550D01*
X103416Y-87561D01*
X103616D01*
X103860Y-87572D01*
X104371D01*
X104527Y-87561D01*
X104682Y-87550D01*
X104860Y-87538D01*
X105027Y-87516D01*
X105171Y-87483D01*
X105182D01*
X105227Y-87472D01*
X105293Y-87450D01*
X105371Y-87416D01*
X105560Y-87327D01*
X105649Y-87272D01*
X105738Y-87205D01*
X105749Y-87194D01*
X105782Y-87150D01*
X105838Y-87072D01*
X105893Y-86972D01*
X105949Y-86827D01*
X106004Y-86661D01*
X106038Y-86461D01*
X106049Y-86216D01*
Y-86205D01*
Y-86183D01*
Y-86138D01*
X106038Y-86094D01*
X106026Y-85961D01*
X106004Y-85794D01*
X105960Y-85616D01*
X105893Y-85439D01*
X105804Y-85261D01*
X105682Y-85116D01*
X105671Y-85105D01*
X105627Y-85072D01*
X105560Y-85027D01*
X105471Y-84972D01*
X105360Y-84916D01*
X105227Y-84861D01*
X105071Y-84805D01*
X104893Y-84772D01*
X104871D01*
X104838Y-84761D01*
X104793D01*
X104738Y-84750D01*
X104671Y-84739D01*
X104582D01*
X104482Y-84728D01*
X104371Y-84716D01*
X104238Y-84705D01*
X104093D01*
X103927Y-84694D01*
X103749D01*
X103549Y-84683D01*
X102905D01*
X102782Y-84694D01*
X102649D01*
X102516Y-84705D01*
X102394Y-84728D01*
X102294Y-84750D01*
X102283D01*
X102249Y-84761D01*
X102205Y-84783D01*
X102149Y-84805D01*
X102083Y-84850D01*
X102005Y-84894D01*
X101938Y-84950D01*
X101860Y-85027D01*
X101783D01*
Y-84805D01*
Y-84794D01*
Y-84783D01*
Y-84728D01*
X101794Y-84639D01*
X101805Y-84528D01*
X101827Y-84428D01*
X101871Y-84316D01*
X101916Y-84228D01*
X101982Y-84161D01*
X101994Y-84150D01*
X102027Y-84139D01*
X102083Y-84117D01*
X102171Y-84094D01*
X102294Y-84072D01*
X102460Y-84050D01*
X102549Y-84039D01*
X102660Y-84028D01*
X103205D01*
X103382Y-84039D01*
X103571Y-84050D01*
X103749Y-84061D01*
X103893Y-84083D01*
X103960Y-84094D01*
X104005Y-84105D01*
X104016D01*
X104038Y-84117D01*
X104071Y-84139D01*
X104116Y-84172D01*
X104160Y-84216D01*
X104193Y-84283D01*
X104227Y-84361D01*
X104249Y-84461D01*
X105882D01*
Y-84450D01*
Y-84439D01*
X105871Y-84383D01*
X105860Y-84283D01*
X105838Y-84172D01*
X105815Y-84050D01*
X105771Y-83928D01*
X105727Y-83805D01*
X105660Y-83694D01*
X105649Y-83672D01*
X105604Y-83628D01*
X105538Y-83550D01*
X105438Y-83461D01*
X105315Y-83372D01*
X105160Y-83272D01*
X104971Y-83194D01*
X104760Y-83128D01*
X104749D01*
X104727Y-83117D01*
X104693D01*
X104638Y-83105D01*
X104571Y-83094D01*
X104482Y-83083D01*
X104382Y-83061D01*
X104260Y-83050D01*
X104127Y-83039D01*
X103971Y-83017D01*
X103805Y-83005D01*
X103616Y-82994D01*
X103405Y-82983D01*
X103182D01*
X102938Y-82972D01*
D02*
G37*
G36*
X98938Y-82072D02*
X97305D01*
Y-83083D01*
X94717D01*
Y-84250D01*
X97305D01*
Y-85527D01*
Y-85550D01*
Y-85605D01*
Y-85694D01*
X97294Y-85794D01*
Y-85905D01*
X97272Y-86016D01*
X97261Y-86105D01*
X97238Y-86172D01*
X97227Y-86183D01*
X97216Y-86205D01*
X97172Y-86238D01*
X97116Y-86283D01*
X97039Y-86327D01*
X96939Y-86361D01*
X96816Y-86383D01*
X96661Y-86394D01*
X96583D01*
X96505Y-86383D01*
X96405Y-86372D01*
X96305Y-86339D01*
X96205Y-86305D01*
X96127Y-86250D01*
X96072Y-86183D01*
X96061Y-86172D01*
X96050Y-86127D01*
X96027Y-86072D01*
X96016Y-86016D01*
Y-85994D01*
Y-85972D01*
X96005Y-85927D01*
Y-85872D01*
Y-85794D01*
Y-85705D01*
Y-85583D01*
X94517D01*
Y-85594D01*
Y-85605D01*
Y-85639D01*
Y-85683D01*
X94528Y-85794D01*
Y-85939D01*
X94539Y-86083D01*
X94550Y-86238D01*
X94572Y-86372D01*
X94594Y-86494D01*
Y-86505D01*
X94605Y-86538D01*
X94617Y-86594D01*
X94650Y-86661D01*
X94683Y-86739D01*
X94717Y-86827D01*
X94772Y-86927D01*
X94839Y-87016D01*
X94850Y-87027D01*
X94883Y-87072D01*
X94939Y-87116D01*
X95016Y-87183D01*
X95117Y-87261D01*
X95228Y-87327D01*
X95361Y-87394D01*
X95517Y-87450D01*
X95539D01*
X95594Y-87472D01*
X95694Y-87483D01*
X95839Y-87505D01*
X96016Y-87527D01*
X96239Y-87550D01*
X96494Y-87561D01*
X96794Y-87572D01*
X97061D01*
X97238Y-87561D01*
X97427Y-87550D01*
X97627Y-87538D01*
X97805Y-87516D01*
X97972Y-87483D01*
X97983D01*
X98039Y-87472D01*
X98105Y-87450D01*
X98194Y-87416D01*
X98283Y-87372D01*
X98394Y-87316D01*
X98494Y-87249D01*
X98583Y-87172D01*
X98594Y-87161D01*
X98616Y-87138D01*
X98638Y-87105D01*
X98683Y-87061D01*
X98761Y-86939D01*
X98838Y-86794D01*
Y-86783D01*
X98849Y-86761D01*
X98861Y-86716D01*
X98883Y-86650D01*
X98894Y-86572D01*
X98916Y-86472D01*
X98927Y-86361D01*
X98938Y-86238D01*
Y-86227D01*
Y-86205D01*
Y-86161D01*
Y-86094D01*
Y-86005D01*
Y-85883D01*
Y-85728D01*
Y-85527D01*
Y-84250D01*
X99805D01*
Y-83083D01*
X98938D01*
Y-82072D01*
D02*
G37*
G36*
X76096Y-83083D02*
X74374D01*
X73374Y-86272D01*
X72208Y-83083D01*
X70663D01*
X69475Y-86216D01*
X68453Y-83083D01*
X66708D01*
X68330Y-87461D01*
X70552D01*
X71419Y-84894D01*
X72297Y-87461D01*
X74485D01*
X76096Y-83083D01*
D02*
G37*
G36*
X117181Y-81295D02*
X113781D01*
X111948Y-85305D01*
X110115Y-81295D01*
X106715D01*
Y-87461D01*
X108571D01*
X108526Y-82850D01*
X108837D01*
X111159Y-87461D01*
X112726D01*
X115048Y-82850D01*
X115381D01*
X115337Y-87461D01*
X117181D01*
Y-81295D01*
D02*
G37*
G36*
X49566Y-82972D02*
X49432D01*
X49365Y-82983D01*
X49288D01*
X49110Y-82994D01*
X48910Y-83028D01*
X48699Y-83061D01*
X48499Y-83117D01*
X48310Y-83194D01*
X48288Y-83205D01*
X48232Y-83239D01*
X48143Y-83283D01*
X48044Y-83361D01*
X47921Y-83461D01*
X47799Y-83583D01*
X47688Y-83728D01*
X47577Y-83894D01*
Y-83883D01*
X47566Y-83872D01*
X47543Y-83816D01*
X47488Y-83728D01*
X47421Y-83628D01*
X47332Y-83505D01*
X47221Y-83394D01*
X47088Y-83283D01*
X46933Y-83194D01*
X46910Y-83183D01*
X46855Y-83161D01*
X46744Y-83128D01*
X46610Y-83083D01*
X46433Y-83039D01*
X46210Y-83005D01*
X45966Y-82983D01*
X45677Y-82972D01*
X45566D01*
X45444Y-82983D01*
X45288D01*
X45110Y-83005D01*
X44921Y-83028D01*
X44733Y-83061D01*
X44566Y-83105D01*
X44544Y-83117D01*
X44488Y-83128D01*
X44410Y-83161D01*
X44311Y-83205D01*
X44199Y-83272D01*
X44088Y-83339D01*
X43966Y-83439D01*
X43855Y-83539D01*
X43844Y-83550D01*
X43810Y-83594D01*
X43766Y-83650D01*
X43699Y-83739D01*
X43644Y-83828D01*
X43577Y-83950D01*
X43533Y-84072D01*
X43488Y-84205D01*
Y-84228D01*
X43477Y-84272D01*
X43455Y-84361D01*
X43433Y-84494D01*
X43422Y-84661D01*
X43400Y-84872D01*
X43388Y-85116D01*
Y-85261D01*
Y-85416D01*
Y-87461D01*
X45022D01*
Y-85416D01*
Y-85405D01*
Y-85394D01*
Y-85339D01*
Y-85250D01*
Y-85150D01*
X45044Y-84939D01*
X45055Y-84828D01*
X45066Y-84750D01*
Y-84739D01*
X45077Y-84716D01*
Y-84683D01*
X45099Y-84639D01*
X45144Y-84539D01*
X45210Y-84450D01*
X45221Y-84439D01*
X45255Y-84417D01*
X45322Y-84372D01*
X45421Y-84328D01*
X45544Y-84283D01*
X45710Y-84239D01*
X45910Y-84216D01*
X46144Y-84205D01*
X46255D01*
X46388Y-84216D01*
X46532Y-84239D01*
X46699Y-84272D01*
X46855Y-84328D01*
X46999Y-84394D01*
X47055Y-84439D01*
X47110Y-84483D01*
X47121Y-84494D01*
X47132Y-84505D01*
X47155Y-84550D01*
X47188Y-84594D01*
X47221Y-84650D01*
X47255Y-84716D01*
X47310Y-84883D01*
Y-84894D01*
X47321Y-84927D01*
Y-84983D01*
X47332Y-85072D01*
X47344Y-85183D01*
Y-85316D01*
X47355Y-85472D01*
Y-85661D01*
Y-87461D01*
X48988D01*
Y-85416D01*
Y-85405D01*
Y-85394D01*
Y-85339D01*
Y-85250D01*
Y-85139D01*
X48999Y-85027D01*
Y-84916D01*
X49010Y-84816D01*
X49021Y-84739D01*
Y-84728D01*
X49032Y-84705D01*
X49055Y-84639D01*
X49099Y-84550D01*
X49166Y-84450D01*
X49177Y-84439D01*
X49210Y-84417D01*
X49277Y-84372D01*
X49365Y-84328D01*
X49488Y-84283D01*
X49643Y-84239D01*
X49843Y-84216D01*
X50077Y-84205D01*
X50199D01*
X50321Y-84216D01*
X50476Y-84239D01*
X50643Y-84272D01*
X50810Y-84316D01*
X50954Y-84383D01*
X51077Y-84472D01*
X51088Y-84483D01*
X51099Y-84494D01*
X51121Y-84528D01*
X51154Y-84572D01*
X51188Y-84628D01*
X51221Y-84705D01*
X51254Y-84783D01*
X51276Y-84872D01*
Y-84883D01*
X51288Y-84916D01*
Y-84983D01*
X51299Y-85061D01*
X51310Y-85172D01*
Y-85305D01*
X51321Y-85472D01*
Y-85661D01*
Y-87461D01*
X52954D01*
Y-83083D01*
X51421D01*
Y-83739D01*
X51343D01*
Y-83728D01*
X51321Y-83705D01*
X51299Y-83672D01*
X51265Y-83617D01*
X51221Y-83561D01*
X51154Y-83494D01*
X51077Y-83428D01*
X50988Y-83350D01*
X50876Y-83283D01*
X50754Y-83217D01*
X50610Y-83150D01*
X50443Y-83094D01*
X50254Y-83039D01*
X50054Y-83005D01*
X49821Y-82983D01*
X49566Y-82972D01*
D02*
G37*
G36*
X92484Y-71884D02*
X90606D01*
Y-75573D01*
Y-75584D01*
Y-75606D01*
Y-75662D01*
Y-75717D01*
Y-75784D01*
Y-75873D01*
X90617Y-76062D01*
X90628Y-76273D01*
X90639Y-76484D01*
X90661Y-76684D01*
X90695Y-76862D01*
Y-76884D01*
X90717Y-76928D01*
X90739Y-77006D01*
X90772Y-77095D01*
X90817Y-77206D01*
X90873Y-77317D01*
X90939Y-77428D01*
X91017Y-77539D01*
X91028Y-77551D01*
X91072Y-77595D01*
X91139Y-77650D01*
X91239Y-77728D01*
X91361Y-77806D01*
X91517Y-77884D01*
X91695Y-77962D01*
X91906Y-78017D01*
X91928D01*
X91972Y-78028D01*
X92017Y-78039D01*
X92084Y-78051D01*
X92161D01*
X92250Y-78062D01*
X92350Y-78073D01*
X92472Y-78084D01*
X92617Y-78095D01*
X92772Y-78106D01*
X92939Y-78117D01*
X93117Y-78128D01*
X93317D01*
X93539Y-78139D01*
X94150D01*
X94305Y-78128D01*
X94461D01*
X94639Y-78117D01*
X95005Y-78095D01*
X95383Y-78073D01*
X95561Y-78051D01*
X95728Y-78028D01*
X95883Y-78006D01*
X96027Y-77973D01*
X96039D01*
X96061Y-77962D01*
X96105Y-77951D01*
X96161Y-77928D01*
X96305Y-77862D01*
X96472Y-77773D01*
X96650Y-77639D01*
X96739Y-77551D01*
X96816Y-77462D01*
X96894Y-77350D01*
X96950Y-77239D01*
X97005Y-77106D01*
X97050Y-76962D01*
Y-76951D01*
X97061Y-76895D01*
X97072Y-76817D01*
X97083Y-76717D01*
X97094Y-76584D01*
X97105Y-76428D01*
X97116Y-76240D01*
Y-76039D01*
Y-76028D01*
Y-75995D01*
Y-75940D01*
Y-75862D01*
Y-75762D01*
Y-75651D01*
X97105Y-75529D01*
Y-75384D01*
X95228D01*
Y-75406D01*
Y-75462D01*
Y-75551D01*
Y-75662D01*
X95217Y-75773D01*
Y-75895D01*
Y-75995D01*
X95205Y-76073D01*
Y-76084D01*
X95194Y-76106D01*
X95172Y-76173D01*
X95139Y-76262D01*
X95072Y-76340D01*
X95061Y-76351D01*
X95028Y-76373D01*
X94950Y-76406D01*
X94905Y-76417D01*
X94850Y-76439D01*
X94772Y-76462D01*
X94694Y-76473D01*
X94594Y-76495D01*
X94494Y-76506D01*
X94372Y-76517D01*
X94228Y-76528D01*
X94072Y-76539D01*
X93750D01*
X93661Y-76528D01*
X93572D01*
X93372Y-76517D01*
X93161Y-76495D01*
X92961Y-76451D01*
X92861Y-76428D01*
X92783Y-76406D01*
X92717Y-76373D01*
X92661Y-76340D01*
X92650Y-76317D01*
X92606Y-76273D01*
X92561Y-76195D01*
X92528Y-76095D01*
Y-76084D01*
X92517Y-76062D01*
Y-76028D01*
X92506Y-75962D01*
X92495Y-75895D01*
Y-75795D01*
X92484Y-75673D01*
Y-75540D01*
Y-71884D01*
D02*
G37*
G36*
X38155Y-71807D02*
X36933D01*
X36756Y-71818D01*
X36556D01*
X36145Y-71829D01*
X35734Y-71851D01*
X35545Y-71862D01*
X35356Y-71884D01*
X35189Y-71895D01*
X35045Y-71918D01*
X35034D01*
X35011Y-71929D01*
X34967D01*
X34911Y-71951D01*
X34845Y-71962D01*
X34767Y-71984D01*
X34589Y-72051D01*
X34400Y-72151D01*
X34212Y-72273D01*
X34045Y-72440D01*
X33967Y-72529D01*
X33900Y-72640D01*
X33889Y-72651D01*
X33878Y-72695D01*
X33845Y-72751D01*
X33812Y-72840D01*
X33778Y-72929D01*
X33745Y-73051D01*
X33723Y-73173D01*
X33700Y-73307D01*
Y-73329D01*
Y-73351D01*
X33689Y-73384D01*
Y-73429D01*
Y-73484D01*
X33678Y-73562D01*
Y-73651D01*
Y-73751D01*
X33667Y-73873D01*
Y-74006D01*
Y-74162D01*
X33656Y-74329D01*
Y-74529D01*
Y-74740D01*
Y-74973D01*
Y-74984D01*
Y-75017D01*
Y-75073D01*
Y-75140D01*
Y-75217D01*
Y-75306D01*
Y-75517D01*
Y-75740D01*
X33667Y-75962D01*
Y-76051D01*
Y-76139D01*
X33678Y-76217D01*
Y-76284D01*
Y-76295D01*
Y-76328D01*
Y-76384D01*
X33689Y-76451D01*
X33700Y-76539D01*
Y-76628D01*
X33734Y-76828D01*
Y-76840D01*
X33745Y-76862D01*
Y-76895D01*
X33756Y-76939D01*
X33800Y-77062D01*
X33867Y-77217D01*
X33956Y-77384D01*
X34078Y-77551D01*
X34234Y-77695D01*
X34434Y-77828D01*
X34445D01*
X34478Y-77851D01*
X34534Y-77873D01*
X34600Y-77906D01*
X34678Y-77928D01*
X34778Y-77962D01*
X34889Y-77995D01*
X35011Y-78017D01*
X35023D01*
X35067Y-78028D01*
X35145Y-78039D01*
X35245Y-78051D01*
X35378Y-78062D01*
X35534Y-78073D01*
X35723Y-78084D01*
X35934Y-78095D01*
X36056D01*
X36122Y-78106D01*
X36400D01*
X36645Y-78117D01*
X36911D01*
X37211Y-78128D01*
X37967D01*
X38133Y-78117D01*
X38511D01*
X38922Y-78106D01*
X39333Y-78084D01*
X39522Y-78073D01*
X39711Y-78062D01*
X39878Y-78051D01*
X40022Y-78028D01*
X40033D01*
X40055Y-78017D01*
X40100D01*
X40155Y-77995D01*
X40222Y-77984D01*
X40300Y-77962D01*
X40477Y-77895D01*
X40666Y-77795D01*
X40855Y-77673D01*
X41022Y-77506D01*
X41100Y-77417D01*
X41166Y-77306D01*
X41177Y-77295D01*
X41189Y-77250D01*
X41222Y-77195D01*
X41255Y-77106D01*
X41289Y-77006D01*
X41322Y-76895D01*
X41344Y-76773D01*
X41366Y-76639D01*
Y-76617D01*
Y-76595D01*
Y-76562D01*
X41377Y-76517D01*
Y-76451D01*
Y-76373D01*
Y-76284D01*
X41389Y-76173D01*
Y-76051D01*
Y-75906D01*
Y-75740D01*
X41400Y-75562D01*
Y-75362D01*
Y-75129D01*
Y-74884D01*
Y-74873D01*
Y-74840D01*
Y-74795D01*
Y-74729D01*
Y-74662D01*
Y-74573D01*
Y-74384D01*
Y-74173D01*
Y-73984D01*
X41389Y-73806D01*
Y-73729D01*
Y-73673D01*
Y-73662D01*
Y-73629D01*
X41377Y-73562D01*
Y-73495D01*
X41366Y-73406D01*
X41355Y-73318D01*
X41333Y-73118D01*
Y-73106D01*
X41322Y-73084D01*
Y-73051D01*
X41300Y-73006D01*
X41266Y-72884D01*
X41200Y-72729D01*
X41111Y-72562D01*
X40989Y-72395D01*
X40833Y-72251D01*
X40633Y-72118D01*
X40622Y-72107D01*
X40589Y-72096D01*
X40533Y-72073D01*
X40466Y-72040D01*
X40389Y-72018D01*
X40289Y-71984D01*
X40178Y-71951D01*
X40066Y-71929D01*
X40055D01*
X40000Y-71918D01*
X39933Y-71907D01*
X39822Y-71895D01*
X39689Y-71873D01*
X39533Y-71862D01*
X39344Y-71851D01*
X39133Y-71840D01*
X39067D01*
X39011Y-71829D01*
X38767D01*
X38667Y-71818D01*
X38433D01*
X38155Y-71807D01*
D02*
G37*
G36*
X104293D02*
X103071D01*
X102893Y-71818D01*
X102693D01*
X102283Y-71829D01*
X101871Y-71851D01*
X101682Y-71862D01*
X101494Y-71884D01*
X101327Y-71895D01*
X101183Y-71918D01*
X101172D01*
X101149Y-71929D01*
X101105D01*
X101049Y-71951D01*
X100983Y-71962D01*
X100905Y-71984D01*
X100727Y-72051D01*
X100538Y-72151D01*
X100349Y-72273D01*
X100183Y-72440D01*
X100105Y-72529D01*
X100038Y-72640D01*
X100027Y-72651D01*
X100016Y-72695D01*
X99983Y-72751D01*
X99949Y-72840D01*
X99916Y-72929D01*
X99883Y-73051D01*
X99861Y-73173D01*
X99838Y-73307D01*
Y-73329D01*
Y-73351D01*
X99827Y-73384D01*
Y-73429D01*
Y-73484D01*
X99816Y-73562D01*
Y-73651D01*
Y-73751D01*
X99805Y-73873D01*
Y-74006D01*
Y-74162D01*
X99794Y-74329D01*
Y-74529D01*
Y-74740D01*
Y-74973D01*
Y-74984D01*
Y-75017D01*
Y-75073D01*
Y-75140D01*
Y-75217D01*
Y-75306D01*
Y-75517D01*
Y-75740D01*
X99805Y-75962D01*
Y-76051D01*
Y-76139D01*
X99816Y-76217D01*
Y-76284D01*
Y-76295D01*
Y-76328D01*
Y-76384D01*
X99827Y-76451D01*
X99838Y-76539D01*
Y-76628D01*
X99872Y-76828D01*
Y-76840D01*
X99883Y-76862D01*
Y-76895D01*
X99894Y-76939D01*
X99938Y-77062D01*
X100005Y-77217D01*
X100094Y-77384D01*
X100216Y-77551D01*
X100372Y-77695D01*
X100572Y-77828D01*
X100583D01*
X100616Y-77851D01*
X100672Y-77873D01*
X100738Y-77906D01*
X100816Y-77928D01*
X100916Y-77962D01*
X101027Y-77995D01*
X101149Y-78017D01*
X101160D01*
X101205Y-78028D01*
X101283Y-78039D01*
X101383Y-78051D01*
X101516Y-78062D01*
X101671Y-78073D01*
X101860Y-78084D01*
X102071Y-78095D01*
X102194D01*
X102260Y-78106D01*
X102538D01*
X102782Y-78117D01*
X103049D01*
X103349Y-78128D01*
X104104D01*
X104271Y-78117D01*
X104649D01*
X105060Y-78106D01*
X105471Y-78084D01*
X105660Y-78073D01*
X105849Y-78062D01*
X106015Y-78051D01*
X106160Y-78028D01*
X106171D01*
X106193Y-78017D01*
X106238D01*
X106293Y-77995D01*
X106360Y-77984D01*
X106438Y-77962D01*
X106615Y-77895D01*
X106804Y-77795D01*
X106993Y-77673D01*
X107160Y-77506D01*
X107238Y-77417D01*
X107304Y-77306D01*
X107315Y-77295D01*
X107326Y-77250D01*
X107360Y-77195D01*
X107393Y-77106D01*
X107426Y-77006D01*
X107460Y-76895D01*
X107482Y-76773D01*
X107504Y-76639D01*
Y-76617D01*
Y-76595D01*
Y-76562D01*
X107515Y-76517D01*
Y-76451D01*
Y-76373D01*
Y-76284D01*
X107526Y-76173D01*
Y-76051D01*
Y-75906D01*
Y-75740D01*
X107537Y-75562D01*
Y-75362D01*
Y-75129D01*
Y-74884D01*
Y-74873D01*
Y-74840D01*
Y-74795D01*
Y-74729D01*
Y-74662D01*
Y-74573D01*
Y-74384D01*
Y-74173D01*
Y-73984D01*
X107526Y-73806D01*
Y-73729D01*
Y-73673D01*
Y-73662D01*
Y-73629D01*
X107515Y-73562D01*
Y-73495D01*
X107504Y-73406D01*
X107493Y-73318D01*
X107471Y-73118D01*
Y-73106D01*
X107460Y-73084D01*
Y-73051D01*
X107438Y-73006D01*
X107404Y-72884D01*
X107337Y-72729D01*
X107249Y-72562D01*
X107126Y-72395D01*
X106971Y-72251D01*
X106771Y-72118D01*
X106760Y-72107D01*
X106727Y-72096D01*
X106671Y-72073D01*
X106604Y-72040D01*
X106527Y-72018D01*
X106427Y-71984D01*
X106315Y-71951D01*
X106204Y-71929D01*
X106193D01*
X106138Y-71918D01*
X106071Y-71907D01*
X105960Y-71895D01*
X105827Y-71873D01*
X105671Y-71862D01*
X105482Y-71851D01*
X105271Y-71840D01*
X105204D01*
X105149Y-71829D01*
X104904D01*
X104804Y-71818D01*
X104571D01*
X104293Y-71807D01*
D02*
G37*
G36*
X88706Y-81295D02*
X87073D01*
Y-83750D01*
X87006D01*
X86995Y-83728D01*
X86973Y-83683D01*
X86917Y-83605D01*
X86851Y-83517D01*
X86762Y-83428D01*
X86651Y-83328D01*
X86528Y-83239D01*
X86373Y-83161D01*
X86351Y-83150D01*
X86295Y-83128D01*
X86195Y-83105D01*
X86062Y-83061D01*
X85884Y-83028D01*
X85684Y-83005D01*
X85440Y-82983D01*
X85162Y-82972D01*
X84973D01*
X84906Y-82983D01*
X84740D01*
X84551Y-83005D01*
X84351Y-83028D01*
X84162Y-83061D01*
X83984Y-83105D01*
X83962D01*
X83907Y-83128D01*
X83829Y-83161D01*
X83729Y-83205D01*
X83618Y-83261D01*
X83495Y-83339D01*
X83373Y-83428D01*
X83262Y-83528D01*
X83251Y-83539D01*
X83218Y-83583D01*
X83162Y-83639D01*
X83107Y-83716D01*
X83040Y-83816D01*
X82973Y-83928D01*
X82918Y-84061D01*
X82873Y-84194D01*
Y-84216D01*
X82862Y-84261D01*
X82840Y-84350D01*
X82818Y-84472D01*
X82807Y-84628D01*
X82784Y-84828D01*
X82773Y-85061D01*
Y-85328D01*
Y-87461D01*
X84407D01*
Y-85328D01*
Y-85305D01*
Y-85261D01*
Y-85194D01*
Y-85116D01*
X84429Y-84939D01*
X84440Y-84850D01*
X84451Y-84772D01*
Y-84761D01*
X84462Y-84739D01*
Y-84705D01*
X84484Y-84661D01*
X84529Y-84561D01*
X84595Y-84472D01*
X84606Y-84461D01*
X84640Y-84428D01*
X84718Y-84383D01*
X84818Y-84339D01*
X84884Y-84316D01*
X84962Y-84294D01*
X85051Y-84272D01*
X85151Y-84250D01*
X85262Y-84228D01*
X85395Y-84216D01*
X85529Y-84205D01*
X85829D01*
X85895Y-84216D01*
X85973D01*
X86151Y-84239D01*
X86340Y-84272D01*
X86528Y-84328D01*
X86695Y-84394D01*
X86773Y-84439D01*
X86829Y-84494D01*
X86840Y-84505D01*
X86851Y-84517D01*
X86873Y-84550D01*
X86906Y-84594D01*
X86973Y-84705D01*
X87028Y-84861D01*
Y-84872D01*
X87040Y-84905D01*
Y-84961D01*
X87051Y-85039D01*
X87062Y-85139D01*
Y-85272D01*
X87073Y-85416D01*
Y-85594D01*
Y-87461D01*
X88706D01*
Y-81295D01*
D02*
G37*
G36*
X42677D02*
X41044D01*
Y-83672D01*
X40977D01*
X40966Y-83650D01*
X40933Y-83605D01*
X40878Y-83539D01*
X40811Y-83450D01*
X40722Y-83361D01*
X40611Y-83272D01*
X40489Y-83194D01*
X40355Y-83128D01*
X40333Y-83117D01*
X40278Y-83105D01*
X40189Y-83083D01*
X40055Y-83050D01*
X39889Y-83017D01*
X39678Y-82994D01*
X39433Y-82983D01*
X39144Y-82972D01*
X38867D01*
X38678Y-82983D01*
X38467Y-82994D01*
X38256Y-83017D01*
X38045Y-83039D01*
X37844Y-83072D01*
X37822D01*
X37767Y-83094D01*
X37678Y-83117D01*
X37567Y-83150D01*
X37444Y-83194D01*
X37311Y-83250D01*
X37178Y-83306D01*
X37067Y-83383D01*
X37056Y-83394D01*
X37011Y-83428D01*
X36967Y-83483D01*
X36900Y-83550D01*
X36822Y-83650D01*
X36756Y-83761D01*
X36689Y-83883D01*
X36634Y-84028D01*
X36622Y-84050D01*
X36611Y-84105D01*
X36589Y-84194D01*
X36567Y-84328D01*
X36545Y-84494D01*
X36533Y-84716D01*
X36511Y-84961D01*
Y-85261D01*
Y-85272D01*
Y-85283D01*
Y-85350D01*
Y-85450D01*
Y-85572D01*
X36522Y-85705D01*
X36533Y-85850D01*
X36545Y-85983D01*
X36556Y-86105D01*
Y-86116D01*
X36567Y-86150D01*
Y-86205D01*
X36578Y-86283D01*
X36600Y-86361D01*
X36622Y-86461D01*
X36678Y-86650D01*
X36689Y-86672D01*
X36711Y-86727D01*
X36767Y-86827D01*
X36845Y-86927D01*
X36945Y-87050D01*
X37067Y-87172D01*
X37222Y-87283D01*
X37411Y-87372D01*
X37422D01*
X37433Y-87383D01*
X37467Y-87394D01*
X37511Y-87405D01*
X37567Y-87416D01*
X37644Y-87438D01*
X37733Y-87450D01*
X37822Y-87472D01*
X37933Y-87494D01*
X38067Y-87505D01*
X38200Y-87527D01*
X38355Y-87538D01*
X38522Y-87550D01*
X38700Y-87561D01*
X38889Y-87572D01*
X39289D01*
X39378Y-87561D01*
X39489D01*
X39722Y-87538D01*
X39989Y-87505D01*
X40244Y-87461D01*
X40366Y-87438D01*
X40489Y-87405D01*
X40589Y-87361D01*
X40677Y-87316D01*
X40689Y-87305D01*
X40711Y-87294D01*
X40755Y-87261D01*
X40800Y-87216D01*
X40855Y-87161D01*
X40922Y-87083D01*
X40989Y-86994D01*
X41055Y-86883D01*
X41133D01*
Y-87461D01*
X42677D01*
Y-81295D01*
D02*
G37*
G36*
X55332D02*
X53698D01*
Y-82528D01*
X55332D01*
Y-81295D01*
D02*
G37*
G36*
X77235Y-64118D02*
X76468D01*
X76357Y-64130D01*
X76235D01*
X75968Y-64141D01*
X75691Y-64163D01*
X75435Y-64185D01*
X75313Y-64196D01*
X75202Y-64218D01*
X75180D01*
X75113Y-64241D01*
X75013Y-64263D01*
X74880Y-64296D01*
X74746Y-64352D01*
X74602Y-64407D01*
X74458Y-64485D01*
X74335Y-64574D01*
X74324Y-64585D01*
X74291Y-64607D01*
X74246Y-64652D01*
X74191Y-64718D01*
X74135Y-64796D01*
X74069Y-64885D01*
X74013Y-64985D01*
X73969Y-65096D01*
Y-65107D01*
X73946Y-65152D01*
X73935Y-65218D01*
X73913Y-65318D01*
X73891Y-65452D01*
X73869Y-65607D01*
X73846Y-65796D01*
X73835Y-66007D01*
X75502D01*
Y-65996D01*
X75513Y-65952D01*
X75535Y-65885D01*
X75557Y-65807D01*
X75602Y-65718D01*
X75669Y-65641D01*
X75746Y-65563D01*
X75846Y-65496D01*
X75857Y-65485D01*
X75902Y-65474D01*
X75980Y-65452D01*
X76079Y-65418D01*
X76213Y-65396D01*
X76391Y-65374D01*
X76602Y-65363D01*
X76846Y-65352D01*
X76968D01*
X77091Y-65363D01*
X77246Y-65374D01*
X77413Y-65385D01*
X77579Y-65407D01*
X77735Y-65452D01*
X77857Y-65496D01*
X77868D01*
X77890Y-65518D01*
X77957Y-65563D01*
X78002Y-65607D01*
X78046Y-65663D01*
X78090Y-65729D01*
X78124Y-65807D01*
Y-65818D01*
X78135Y-65852D01*
X78146Y-65896D01*
X78157Y-65963D01*
X78168Y-66052D01*
X78179Y-66163D01*
X78190Y-66296D01*
Y-66452D01*
Y-66474D01*
Y-66518D01*
Y-66596D01*
X78179Y-66685D01*
X78157Y-66885D01*
X78135Y-66974D01*
X78113Y-67063D01*
Y-67074D01*
X78102Y-67096D01*
X78079Y-67129D01*
X78046Y-67174D01*
X78013Y-67218D01*
X77957Y-67274D01*
X77902Y-67318D01*
X77824Y-67352D01*
X77813D01*
X77768Y-67374D01*
X77691Y-67396D01*
X77591Y-67418D01*
X77446Y-67440D01*
X77279Y-67463D01*
X77068Y-67474D01*
X76824Y-67485D01*
X76702D01*
X76579Y-67474D01*
X76424D01*
X76268Y-67452D01*
X76102Y-67429D01*
X75957Y-67407D01*
X75835Y-67363D01*
X75824Y-67352D01*
X75791Y-67340D01*
X75746Y-67296D01*
X75691Y-67251D01*
X75635Y-67174D01*
X75591Y-67085D01*
X75546Y-66985D01*
X75513Y-66852D01*
X73846D01*
Y-66863D01*
Y-66874D01*
Y-66940D01*
X73857Y-67040D01*
X73869Y-67163D01*
X73880Y-67296D01*
X73902Y-67440D01*
X73924Y-67574D01*
X73958Y-67696D01*
Y-67707D01*
X73980Y-67740D01*
X74002Y-67796D01*
X74024Y-67863D01*
X74124Y-68018D01*
X74180Y-68107D01*
X74257Y-68196D01*
X74269Y-68207D01*
X74313Y-68240D01*
X74380Y-68296D01*
X74480Y-68362D01*
X74602Y-68429D01*
X74746Y-68496D01*
X74913Y-68563D01*
X75102Y-68607D01*
X75124D01*
X75157Y-68618D01*
X75202Y-68629D01*
X75269D01*
X75335Y-68640D01*
X75424Y-68651D01*
X75524Y-68663D01*
X75646Y-68674D01*
X75780Y-68685D01*
X75935Y-68696D01*
X76091D01*
X76279Y-68707D01*
X76480Y-68718D01*
X77268D01*
X77502Y-68707D01*
X77746Y-68696D01*
X78002Y-68685D01*
X78235Y-68663D01*
X78346Y-68640D01*
X78446Y-68629D01*
X78468D01*
X78524Y-68618D01*
X78624Y-68596D01*
X78735Y-68563D01*
X78868Y-68518D01*
X79013Y-68463D01*
X79146Y-68396D01*
X79279Y-68318D01*
X79290Y-68307D01*
X79335Y-68274D01*
X79390Y-68229D01*
X79457Y-68151D01*
X79524Y-68063D01*
X79601Y-67952D01*
X79668Y-67829D01*
X79724Y-67685D01*
Y-67663D01*
X79746Y-67607D01*
X79757Y-67507D01*
X79779Y-67363D01*
X79801Y-67185D01*
X79813Y-66963D01*
X79835Y-66696D01*
Y-66396D01*
Y-66385D01*
Y-66363D01*
Y-66318D01*
Y-66263D01*
Y-66196D01*
X79824Y-66129D01*
Y-65952D01*
X79813Y-65763D01*
X79790Y-65563D01*
X79757Y-65374D01*
X79724Y-65207D01*
X79712Y-65185D01*
X79701Y-65141D01*
X79668Y-65063D01*
X79635Y-64974D01*
X79579Y-64874D01*
X79513Y-64763D01*
X79424Y-64652D01*
X79324Y-64563D01*
X79312Y-64552D01*
X79268Y-64518D01*
X79201Y-64485D01*
X79102Y-64430D01*
X78979Y-64374D01*
X78846Y-64319D01*
X78679Y-64263D01*
X78490Y-64218D01*
X78468D01*
X78435Y-64207D01*
X78390D01*
X78335Y-64196D01*
X78268Y-64185D01*
X78179Y-64174D01*
X78079Y-64163D01*
X77979D01*
X77857Y-64152D01*
X77724Y-64141D01*
X77568Y-64130D01*
X77413D01*
X77235Y-64118D01*
D02*
G37*
G36*
X23585Y-64230D02*
X21796D01*
X20552Y-67418D01*
X19163Y-64230D01*
X17341D01*
X19674Y-69162D01*
Y-69174D01*
X19685Y-69196D01*
X19707Y-69229D01*
X19730Y-69274D01*
X19785Y-69396D01*
X19863Y-69540D01*
X19941Y-69696D01*
X20007Y-69840D01*
X20074Y-69962D01*
X20107Y-70007D01*
X20130Y-70040D01*
Y-70051D01*
X20152Y-70062D01*
X20207Y-70140D01*
X20307Y-70229D01*
X20441Y-70329D01*
X20463Y-70340D01*
X20507Y-70362D01*
X20607Y-70407D01*
X20730Y-70451D01*
X20896Y-70496D01*
X21096Y-70540D01*
X21341Y-70562D01*
X21629Y-70573D01*
X21918D01*
X22029Y-70562D01*
X22252D01*
X22329Y-70551D01*
Y-69418D01*
X21907D01*
X21829Y-69407D01*
X21741Y-69396D01*
X21541Y-69351D01*
X21441Y-69318D01*
X21363Y-69262D01*
X21352Y-69251D01*
X21329Y-69229D01*
X21296Y-69185D01*
X21241Y-69118D01*
X21185Y-69029D01*
X21118Y-68918D01*
X21052Y-68774D01*
X20974Y-68607D01*
X21641D01*
X23585Y-64230D01*
D02*
G37*
G36*
X92100Y-62341D02*
X91134D01*
X91000Y-62352D01*
X90723D01*
X90434Y-62363D01*
X90167Y-62374D01*
X90045Y-62385D01*
X89934Y-62397D01*
X89912D01*
X89845Y-62408D01*
X89745Y-62419D01*
X89623Y-62441D01*
X89478Y-62474D01*
X89334Y-62508D01*
X89201Y-62552D01*
X89067Y-62608D01*
X89045Y-62619D01*
X89000Y-62641D01*
X88923Y-62696D01*
X88834Y-62752D01*
X88734Y-62841D01*
X88645Y-62941D01*
X88556Y-63063D01*
X88478Y-63196D01*
X88467Y-63219D01*
X88445Y-63274D01*
X88423Y-63363D01*
X88389Y-63485D01*
X88356Y-63652D01*
X88323Y-63852D01*
X88312Y-64085D01*
X88301Y-64352D01*
Y-64363D01*
Y-64374D01*
Y-64396D01*
Y-64441D01*
Y-64496D01*
X88312Y-64563D01*
Y-64652D01*
X90189D01*
Y-64641D01*
Y-64607D01*
X90200Y-64552D01*
Y-64485D01*
X90211Y-64352D01*
X90223Y-64296D01*
X90234Y-64252D01*
Y-64230D01*
X90256Y-64185D01*
X90289Y-64130D01*
X90334Y-64074D01*
X90356Y-64052D01*
X90389Y-64041D01*
X90445Y-64018D01*
X90522Y-63996D01*
X90611Y-63974D01*
X90734Y-63952D01*
X90889Y-63930D01*
X90911D01*
X90967Y-63919D01*
X91078D01*
X91211Y-63907D01*
X91400Y-63896D01*
X91633D01*
X91900Y-63885D01*
X92689D01*
X92900Y-63896D01*
X93100Y-63907D01*
X93278Y-63919D01*
X93367D01*
X93433Y-63930D01*
X93445D01*
X93489Y-63941D01*
X93545D01*
X93622Y-63963D01*
X93778Y-64007D01*
X93844Y-64041D01*
X93911Y-64085D01*
X93922Y-64096D01*
X93933Y-64107D01*
X93967Y-64141D01*
X94000Y-64196D01*
X94044Y-64252D01*
X94078Y-64330D01*
X94111Y-64430D01*
X94144Y-64541D01*
Y-64552D01*
X94156Y-64596D01*
X94167Y-64674D01*
Y-64785D01*
X94178Y-64918D01*
X94189Y-65096D01*
X94200Y-65307D01*
Y-65552D01*
Y-65563D01*
Y-65585D01*
Y-65618D01*
Y-65663D01*
Y-65785D01*
X94189Y-65940D01*
Y-66096D01*
X94178Y-66263D01*
X94167Y-66418D01*
X94144Y-66540D01*
Y-66552D01*
X94133Y-66585D01*
X94122Y-66641D01*
X94100Y-66696D01*
X94022Y-66840D01*
X93978Y-66896D01*
X93922Y-66952D01*
X93911D01*
X93889Y-66974D01*
X93856Y-66996D01*
X93800Y-67018D01*
X93733Y-67040D01*
X93644Y-67074D01*
X93545Y-67096D01*
X93422Y-67118D01*
X93356D01*
X93267Y-67129D01*
X93133D01*
X92967Y-67140D01*
X92756D01*
X92633Y-67151D01*
X91611D01*
X91367Y-67140D01*
X91134D01*
X91022Y-67129D01*
X90922D01*
X90834Y-67118D01*
X90745D01*
X90700Y-67107D01*
X90634Y-67096D01*
X90556Y-67085D01*
X90400Y-67040D01*
X90323Y-67007D01*
X90267Y-66963D01*
X90256Y-66952D01*
X90245Y-66929D01*
X90211Y-66885D01*
X90178Y-66807D01*
X90145Y-66718D01*
X90123Y-66585D01*
X90100Y-66429D01*
X90089Y-66229D01*
X88212D01*
Y-66252D01*
Y-66307D01*
X88200Y-66385D01*
Y-66474D01*
Y-66574D01*
X88189Y-66674D01*
Y-66752D01*
Y-66818D01*
Y-66829D01*
Y-66852D01*
Y-66885D01*
Y-66940D01*
X88200Y-67063D01*
X88212Y-67218D01*
X88245Y-67407D01*
X88278Y-67585D01*
X88334Y-67763D01*
X88412Y-67929D01*
X88423Y-67952D01*
X88456Y-68007D01*
X88523Y-68085D01*
X88612Y-68174D01*
X88734Y-68285D01*
X88901Y-68385D01*
X89100Y-68474D01*
X89334Y-68551D01*
X89345D01*
X89367Y-68563D01*
X89411D01*
X89467Y-68574D01*
X89545Y-68585D01*
X89634Y-68596D01*
X89745Y-68618D01*
X89878Y-68629D01*
X90034Y-68640D01*
X90200Y-68663D01*
X90400Y-68674D01*
X90611Y-68685D01*
X90845Y-68696D01*
X91100D01*
X91378Y-68707D01*
X92278D01*
X92456Y-68696D01*
X93067D01*
X93489Y-68674D01*
X93689D01*
X93878Y-68663D01*
X94044Y-68651D01*
X94200Y-68640D01*
X94233D01*
X94267Y-68629D01*
X94322D01*
X94455Y-68607D01*
X94622Y-68585D01*
X94800Y-68551D01*
X94989Y-68507D01*
X95166Y-68451D01*
X95322Y-68385D01*
X95333Y-68374D01*
X95378Y-68351D01*
X95433Y-68307D01*
X95511Y-68262D01*
X95589Y-68185D01*
X95678Y-68107D01*
X95755Y-68018D01*
X95822Y-67907D01*
X95833Y-67896D01*
X95844Y-67852D01*
X95878Y-67785D01*
X95911Y-67696D01*
X95944Y-67574D01*
X95989Y-67429D01*
X96022Y-67274D01*
X96044Y-67085D01*
Y-67063D01*
Y-67040D01*
Y-66996D01*
X96055Y-66952D01*
Y-66896D01*
Y-66818D01*
Y-66741D01*
X96066Y-66641D01*
Y-66529D01*
Y-66407D01*
Y-66263D01*
X96078Y-66107D01*
Y-65940D01*
Y-65763D01*
Y-65563D01*
Y-65552D01*
Y-65518D01*
Y-65463D01*
Y-65385D01*
Y-65296D01*
Y-65196D01*
Y-64974D01*
X96066Y-64718D01*
Y-64463D01*
X96055Y-64218D01*
X96044Y-64118D01*
Y-64018D01*
Y-64007D01*
Y-63996D01*
X96033Y-63941D01*
X96022Y-63852D01*
X96011Y-63752D01*
X95989Y-63630D01*
X95955Y-63507D01*
X95922Y-63385D01*
X95889Y-63285D01*
Y-63274D01*
X95878Y-63263D01*
X95833Y-63185D01*
X95767Y-63085D01*
X95655Y-62963D01*
X95511Y-62841D01*
X95333Y-62708D01*
X95233Y-62652D01*
X95111Y-62608D01*
X94989Y-62552D01*
X94844Y-62519D01*
X94833D01*
X94800Y-62508D01*
X94755Y-62497D01*
X94689Y-62485D01*
X94589Y-62474D01*
X94467Y-62463D01*
X94322Y-62441D01*
X94156Y-62430D01*
X93955Y-62408D01*
X93722Y-62397D01*
X93467Y-62385D01*
X93167Y-62363D01*
X92844Y-62352D01*
X92489D01*
X92100Y-62341D01*
D02*
G37*
G36*
X73258Y-64230D02*
X71624D01*
Y-66241D01*
Y-66263D01*
Y-66318D01*
Y-66407D01*
X71613Y-66507D01*
X71602Y-66729D01*
X71591Y-66829D01*
X71580Y-66918D01*
Y-66929D01*
X71569Y-66952D01*
X71558Y-66985D01*
X71536Y-67029D01*
X71491Y-67140D01*
X71402Y-67251D01*
X71391D01*
X71380Y-67274D01*
X71347Y-67296D01*
X71302Y-67329D01*
X71191Y-67385D01*
X71047Y-67440D01*
X71036D01*
X71002Y-67452D01*
X70947D01*
X70869Y-67463D01*
X70769Y-67474D01*
X70658D01*
X70513Y-67485D01*
X70214D01*
X70080Y-67474D01*
X69914Y-67452D01*
X69736Y-67429D01*
X69558Y-67385D01*
X69391Y-67329D01*
X69325Y-67296D01*
X69269Y-67251D01*
X69258Y-67240D01*
X69236Y-67218D01*
X69214Y-67185D01*
X69169Y-67140D01*
X69136Y-67085D01*
X69091Y-67018D01*
X69058Y-66940D01*
X69036Y-66852D01*
Y-66840D01*
X69025Y-66807D01*
X69014Y-66741D01*
X69002Y-66652D01*
X68991Y-66540D01*
X68980Y-66385D01*
X68969Y-66207D01*
Y-65996D01*
Y-64230D01*
X67336D01*
Y-68607D01*
X68869D01*
Y-67952D01*
X68958D01*
X68969Y-67974D01*
X68991Y-68018D01*
X69047Y-68096D01*
X69114Y-68185D01*
X69202Y-68285D01*
X69302Y-68385D01*
X69436Y-68474D01*
X69580Y-68551D01*
X69602Y-68563D01*
X69658Y-68574D01*
X69758Y-68607D01*
X69891Y-68629D01*
X70069Y-68663D01*
X70291Y-68696D01*
X70547Y-68707D01*
X70836Y-68718D01*
X71025D01*
X71102Y-68707D01*
X71269D01*
X71458Y-68685D01*
X71669Y-68663D01*
X71869Y-68640D01*
X72047Y-68596D01*
X72069Y-68585D01*
X72124Y-68574D01*
X72202Y-68540D01*
X72302Y-68496D01*
X72424Y-68440D01*
X72547Y-68362D01*
X72669Y-68274D01*
X72780Y-68174D01*
X72791Y-68163D01*
X72824Y-68118D01*
X72880Y-68051D01*
X72935Y-67974D01*
X73002Y-67874D01*
X73069Y-67751D01*
X73124Y-67629D01*
X73169Y-67496D01*
Y-67474D01*
X73180Y-67429D01*
X73191Y-67329D01*
X73213Y-67196D01*
X73224Y-67029D01*
X73235Y-66929D01*
X73247Y-66807D01*
Y-66685D01*
X73258Y-66552D01*
Y-66396D01*
Y-66241D01*
Y-64230D01*
D02*
G37*
G36*
X102110Y-64107D02*
X101521D01*
X101277Y-64118D01*
X101033Y-64130D01*
X100777Y-64141D01*
X100533Y-64163D01*
X100433Y-64174D01*
X100344Y-64185D01*
X100333D01*
X100311Y-64196D01*
X100266D01*
X100210Y-64218D01*
X100144Y-64230D01*
X100077Y-64252D01*
X99910Y-64319D01*
X99722Y-64396D01*
X99544Y-64507D01*
X99377Y-64641D01*
X99311Y-64707D01*
X99244Y-64796D01*
X99233Y-64818D01*
X99211Y-64841D01*
X99199Y-64885D01*
X99177Y-64929D01*
X99144Y-64996D01*
X99122Y-65074D01*
X99088Y-65163D01*
X99066Y-65263D01*
X99044Y-65374D01*
X99011Y-65496D01*
X98988Y-65630D01*
X98966Y-65785D01*
X98955Y-65952D01*
X98944Y-66129D01*
Y-66329D01*
Y-66352D01*
Y-66385D01*
Y-66429D01*
Y-66485D01*
X98955Y-66563D01*
Y-66663D01*
X98966Y-66774D01*
X103244D01*
Y-66785D01*
Y-66829D01*
Y-66885D01*
X103232Y-66963D01*
X103221Y-67129D01*
X103210Y-67196D01*
X103199Y-67263D01*
Y-67274D01*
X103188Y-67285D01*
X103166Y-67340D01*
X103110Y-67418D01*
X103032Y-67496D01*
X103021Y-67507D01*
X102977Y-67518D01*
X102910Y-67551D01*
X102799Y-67585D01*
X102655Y-67618D01*
X102566Y-67629D01*
X102466Y-67640D01*
X102355Y-67651D01*
X102221Y-67663D01*
X102088Y-67674D01*
X101621D01*
X101488Y-67663D01*
X101355D01*
X101222Y-67651D01*
X101110Y-67640D01*
X101099D01*
X101066Y-67629D01*
X101022Y-67618D01*
X100955Y-67607D01*
X100833Y-67563D01*
X100777Y-67529D01*
X100733Y-67496D01*
X100722Y-67474D01*
X100688Y-67429D01*
X100655Y-67340D01*
X100621Y-67207D01*
X98988D01*
Y-67218D01*
Y-67240D01*
X99000Y-67274D01*
Y-67329D01*
X99033Y-67452D01*
X99066Y-67607D01*
X99122Y-67774D01*
X99199Y-67952D01*
X99299Y-68107D01*
X99422Y-68240D01*
X99433Y-68251D01*
X99477Y-68285D01*
X99555Y-68329D01*
X99655Y-68385D01*
X99777Y-68451D01*
X99933Y-68507D01*
X100122Y-68563D01*
X100322Y-68607D01*
X100344D01*
X100377Y-68618D01*
X100433Y-68629D01*
X100488D01*
X100566Y-68640D01*
X100655Y-68651D01*
X100755Y-68663D01*
X100866Y-68674D01*
X100999Y-68685D01*
X101144Y-68696D01*
X101299D01*
X101466Y-68707D01*
X101644Y-68718D01*
X102388D01*
X102599Y-68707D01*
X102832Y-68696D01*
X103077Y-68685D01*
X103310Y-68663D01*
X103521Y-68629D01*
X103543D01*
X103610Y-68607D01*
X103699Y-68585D01*
X103810Y-68551D01*
X103943Y-68507D01*
X104077Y-68451D01*
X104210Y-68385D01*
X104332Y-68307D01*
X104343Y-68296D01*
X104388Y-68262D01*
X104432Y-68207D01*
X104499Y-68140D01*
X104577Y-68051D01*
X104643Y-67940D01*
X104710Y-67818D01*
X104766Y-67674D01*
Y-67651D01*
X104788Y-67596D01*
X104799Y-67507D01*
X104821Y-67374D01*
X104843Y-67196D01*
X104854Y-66985D01*
X104877Y-66729D01*
Y-66440D01*
Y-66429D01*
Y-66418D01*
Y-66385D01*
Y-66341D01*
Y-66229D01*
X104866Y-66085D01*
Y-65940D01*
X104854Y-65785D01*
X104843Y-65641D01*
X104832Y-65507D01*
Y-65496D01*
X104821Y-65452D01*
X104810Y-65396D01*
X104799Y-65318D01*
X104777Y-65229D01*
X104743Y-65130D01*
X104666Y-64929D01*
Y-64918D01*
X104655Y-64907D01*
X104610Y-64841D01*
X104543Y-64752D01*
X104443Y-64652D01*
X104310Y-64530D01*
X104155Y-64419D01*
X103943Y-64330D01*
X103710Y-64252D01*
X103699D01*
X103677Y-64241D01*
X103644D01*
X103599Y-64230D01*
X103532Y-64218D01*
X103455Y-64207D01*
X103366Y-64196D01*
X103266Y-64174D01*
X103144Y-64163D01*
X103010Y-64152D01*
X102855Y-64141D01*
X102688Y-64130D01*
X102510Y-64118D01*
X102321D01*
X102110Y-64107D01*
D02*
G37*
G36*
X63714Y-63219D02*
X62081D01*
Y-64230D01*
X59492D01*
Y-65396D01*
X62081D01*
Y-66674D01*
Y-66696D01*
Y-66752D01*
Y-66840D01*
X62070Y-66940D01*
Y-67052D01*
X62048Y-67163D01*
X62037Y-67251D01*
X62014Y-67318D01*
X62003Y-67329D01*
X61992Y-67352D01*
X61948Y-67385D01*
X61892Y-67429D01*
X61814Y-67474D01*
X61714Y-67507D01*
X61592Y-67529D01*
X61437Y-67540D01*
X61359D01*
X61281Y-67529D01*
X61181Y-67518D01*
X61081Y-67485D01*
X60981Y-67452D01*
X60903Y-67396D01*
X60848Y-67329D01*
X60837Y-67318D01*
X60826Y-67274D01*
X60803Y-67218D01*
X60792Y-67163D01*
Y-67140D01*
Y-67118D01*
X60781Y-67074D01*
Y-67018D01*
Y-66940D01*
Y-66852D01*
Y-66729D01*
X59292D01*
Y-66741D01*
Y-66752D01*
Y-66785D01*
Y-66829D01*
X59303Y-66940D01*
Y-67085D01*
X59315Y-67229D01*
X59326Y-67385D01*
X59348Y-67518D01*
X59370Y-67640D01*
Y-67651D01*
X59381Y-67685D01*
X59392Y-67740D01*
X59426Y-67807D01*
X59459Y-67885D01*
X59492Y-67974D01*
X59548Y-68074D01*
X59614Y-68163D01*
X59626Y-68174D01*
X59659Y-68218D01*
X59715Y-68262D01*
X59792Y-68329D01*
X59892Y-68407D01*
X60003Y-68474D01*
X60137Y-68540D01*
X60292Y-68596D01*
X60314D01*
X60370Y-68618D01*
X60470Y-68629D01*
X60614Y-68651D01*
X60792Y-68674D01*
X61014Y-68696D01*
X61270Y-68707D01*
X61570Y-68718D01*
X61836D01*
X62014Y-68707D01*
X62203Y-68696D01*
X62403Y-68685D01*
X62581Y-68663D01*
X62748Y-68629D01*
X62759D01*
X62814Y-68618D01*
X62881Y-68596D01*
X62970Y-68563D01*
X63059Y-68518D01*
X63170Y-68463D01*
X63270Y-68396D01*
X63359Y-68318D01*
X63370Y-68307D01*
X63392Y-68285D01*
X63414Y-68251D01*
X63459Y-68207D01*
X63536Y-68085D01*
X63614Y-67940D01*
Y-67929D01*
X63625Y-67907D01*
X63636Y-67863D01*
X63659Y-67796D01*
X63670Y-67718D01*
X63692Y-67618D01*
X63703Y-67507D01*
X63714Y-67385D01*
Y-67374D01*
Y-67352D01*
Y-67307D01*
Y-67240D01*
Y-67151D01*
Y-67029D01*
Y-66874D01*
Y-66674D01*
Y-65396D01*
X64581D01*
Y-64230D01*
X63714D01*
Y-63219D01*
D02*
G37*
G36*
X29412Y-81295D02*
X27779D01*
Y-87461D01*
X29412D01*
Y-81295D01*
D02*
G37*
G36*
X66592Y-62441D02*
X64958D01*
Y-63674D01*
X66592D01*
Y-62441D01*
D02*
G37*
G36*
X87601D02*
X85967D01*
Y-63674D01*
X87601D01*
Y-62441D01*
D02*
G37*
G36*
X117409D02*
X115776D01*
Y-63674D01*
X117409D01*
Y-62441D01*
D02*
G37*
G36*
X47649D02*
X46016D01*
Y-63674D01*
X47649D01*
Y-62441D01*
D02*
G37*
G36*
X27034Y-81295D02*
X25401D01*
Y-87461D01*
X27034D01*
Y-81295D01*
D02*
G37*
G36*
X26607Y-64118D02*
X25973D01*
X25751Y-64130D01*
X25507Y-64141D01*
X25262Y-64152D01*
X25051Y-64174D01*
X24951Y-64196D01*
X24874Y-64207D01*
X24851D01*
X24807Y-64218D01*
X24729Y-64252D01*
X24640Y-64285D01*
X24529Y-64330D01*
X24418Y-64385D01*
X24307Y-64463D01*
X24196Y-64563D01*
X24185Y-64574D01*
X24162Y-64596D01*
X24129Y-64641D01*
X24085Y-64707D01*
X24029Y-64785D01*
X23985Y-64874D01*
X23940Y-64974D01*
X23907Y-65085D01*
Y-65096D01*
X23896Y-65141D01*
X23874Y-65207D01*
X23863Y-65307D01*
X23840Y-65441D01*
X23829Y-65596D01*
X23818Y-65774D01*
Y-65985D01*
Y-68607D01*
X25396D01*
Y-68007D01*
X25473D01*
X25485Y-68029D01*
X25507Y-68074D01*
X25551Y-68140D01*
X25607Y-68218D01*
X25685Y-68318D01*
X25785Y-68407D01*
X25907Y-68496D01*
X26040Y-68563D01*
X26051D01*
X26073Y-68574D01*
X26129Y-68585D01*
X26196Y-68607D01*
X26273Y-68618D01*
X26373Y-68640D01*
X26496Y-68663D01*
X26629Y-68674D01*
X26651D01*
X26696Y-68685D01*
X26785D01*
X26918Y-68696D01*
X27084Y-68707D01*
X27284D01*
X27529Y-68718D01*
X28040D01*
X28195Y-68707D01*
X28351Y-68696D01*
X28529Y-68685D01*
X28695Y-68663D01*
X28840Y-68629D01*
X28851D01*
X28895Y-68618D01*
X28962Y-68596D01*
X29040Y-68563D01*
X29229Y-68474D01*
X29318Y-68418D01*
X29406Y-68351D01*
X29417Y-68340D01*
X29451Y-68296D01*
X29506Y-68218D01*
X29562Y-68118D01*
X29618Y-67974D01*
X29673Y-67807D01*
X29706Y-67607D01*
X29717Y-67363D01*
Y-67352D01*
Y-67329D01*
Y-67285D01*
X29706Y-67240D01*
X29695Y-67107D01*
X29673Y-66940D01*
X29629Y-66763D01*
X29562Y-66585D01*
X29473Y-66407D01*
X29351Y-66263D01*
X29340Y-66252D01*
X29295Y-66218D01*
X29229Y-66174D01*
X29140Y-66118D01*
X29029Y-66063D01*
X28895Y-66007D01*
X28740Y-65952D01*
X28562Y-65918D01*
X28540D01*
X28506Y-65907D01*
X28462D01*
X28407Y-65896D01*
X28340Y-65885D01*
X28251D01*
X28151Y-65874D01*
X28040Y-65863D01*
X27907Y-65852D01*
X27762D01*
X27595Y-65841D01*
X27418D01*
X27218Y-65829D01*
X26573D01*
X26451Y-65841D01*
X26318D01*
X26184Y-65852D01*
X26062Y-65874D01*
X25962Y-65896D01*
X25951D01*
X25918Y-65907D01*
X25874Y-65929D01*
X25818Y-65952D01*
X25751Y-65996D01*
X25673Y-66040D01*
X25607Y-66096D01*
X25529Y-66174D01*
X25451D01*
Y-65952D01*
Y-65940D01*
Y-65929D01*
Y-65874D01*
X25462Y-65785D01*
X25473Y-65674D01*
X25496Y-65574D01*
X25540Y-65463D01*
X25585Y-65374D01*
X25651Y-65307D01*
X25662Y-65296D01*
X25696Y-65285D01*
X25751Y-65263D01*
X25840Y-65241D01*
X25962Y-65218D01*
X26129Y-65196D01*
X26218Y-65185D01*
X26329Y-65174D01*
X26873D01*
X27051Y-65185D01*
X27240Y-65196D01*
X27418Y-65207D01*
X27562Y-65229D01*
X27629Y-65241D01*
X27673Y-65252D01*
X27684D01*
X27707Y-65263D01*
X27740Y-65285D01*
X27784Y-65318D01*
X27829Y-65363D01*
X27862Y-65430D01*
X27896Y-65507D01*
X27918Y-65607D01*
X29551D01*
Y-65596D01*
Y-65585D01*
X29540Y-65530D01*
X29529Y-65430D01*
X29506Y-65318D01*
X29484Y-65196D01*
X29440Y-65074D01*
X29395Y-64952D01*
X29329Y-64841D01*
X29318Y-64818D01*
X29273Y-64774D01*
X29206Y-64696D01*
X29107Y-64607D01*
X28984Y-64518D01*
X28829Y-64419D01*
X28640Y-64341D01*
X28429Y-64274D01*
X28418D01*
X28395Y-64263D01*
X28362D01*
X28306Y-64252D01*
X28240Y-64241D01*
X28151Y-64230D01*
X28051Y-64207D01*
X27929Y-64196D01*
X27795Y-64185D01*
X27640Y-64163D01*
X27473Y-64152D01*
X27284Y-64141D01*
X27073Y-64130D01*
X26851D01*
X26607Y-64118D01*
D02*
G37*
G36*
X111643D02*
X111509D01*
X111443Y-64130D01*
X111365D01*
X111187Y-64141D01*
X110987Y-64174D01*
X110776Y-64207D01*
X110576Y-64263D01*
X110387Y-64341D01*
X110365Y-64352D01*
X110309Y-64385D01*
X110221Y-64430D01*
X110121Y-64507D01*
X109998Y-64607D01*
X109876Y-64730D01*
X109765Y-64874D01*
X109654Y-65041D01*
Y-65030D01*
X109643Y-65018D01*
X109621Y-64963D01*
X109565Y-64874D01*
X109498Y-64774D01*
X109409Y-64652D01*
X109298Y-64541D01*
X109165Y-64430D01*
X109010Y-64341D01*
X108987Y-64330D01*
X108932Y-64307D01*
X108821Y-64274D01*
X108687Y-64230D01*
X108510Y-64185D01*
X108287Y-64152D01*
X108043Y-64130D01*
X107754Y-64118D01*
X107643D01*
X107521Y-64130D01*
X107365D01*
X107187Y-64152D01*
X106999Y-64174D01*
X106810Y-64207D01*
X106643Y-64252D01*
X106621Y-64263D01*
X106565Y-64274D01*
X106488Y-64307D01*
X106388Y-64352D01*
X106277Y-64419D01*
X106165Y-64485D01*
X106043Y-64585D01*
X105932Y-64685D01*
X105921Y-64696D01*
X105888Y-64741D01*
X105843Y-64796D01*
X105777Y-64885D01*
X105721Y-64974D01*
X105654Y-65096D01*
X105610Y-65218D01*
X105566Y-65352D01*
Y-65374D01*
X105554Y-65418D01*
X105532Y-65507D01*
X105510Y-65641D01*
X105499Y-65807D01*
X105477Y-66018D01*
X105465Y-66263D01*
Y-66407D01*
Y-66563D01*
Y-68607D01*
X107099D01*
Y-66563D01*
Y-66552D01*
Y-66540D01*
Y-66485D01*
Y-66396D01*
Y-66296D01*
X107121Y-66085D01*
X107132Y-65974D01*
X107143Y-65896D01*
Y-65885D01*
X107154Y-65863D01*
Y-65829D01*
X107176Y-65785D01*
X107221Y-65685D01*
X107288Y-65596D01*
X107299Y-65585D01*
X107332Y-65563D01*
X107399Y-65518D01*
X107499Y-65474D01*
X107621Y-65430D01*
X107788Y-65385D01*
X107987Y-65363D01*
X108221Y-65352D01*
X108332D01*
X108465Y-65363D01*
X108610Y-65385D01*
X108776Y-65418D01*
X108932Y-65474D01*
X109076Y-65541D01*
X109132Y-65585D01*
X109187Y-65630D01*
X109198Y-65641D01*
X109210Y-65652D01*
X109232Y-65696D01*
X109265Y-65741D01*
X109298Y-65796D01*
X109332Y-65863D01*
X109387Y-66029D01*
Y-66040D01*
X109398Y-66074D01*
Y-66129D01*
X109409Y-66218D01*
X109421Y-66329D01*
Y-66463D01*
X109432Y-66618D01*
Y-66807D01*
Y-68607D01*
X111065D01*
Y-66563D01*
Y-66552D01*
Y-66540D01*
Y-66485D01*
Y-66396D01*
Y-66285D01*
X111076Y-66174D01*
Y-66063D01*
X111087Y-65963D01*
X111098Y-65885D01*
Y-65874D01*
X111109Y-65852D01*
X111132Y-65785D01*
X111176Y-65696D01*
X111243Y-65596D01*
X111254Y-65585D01*
X111287Y-65563D01*
X111354Y-65518D01*
X111443Y-65474D01*
X111565Y-65430D01*
X111720Y-65385D01*
X111920Y-65363D01*
X112154Y-65352D01*
X112276D01*
X112398Y-65363D01*
X112554Y-65385D01*
X112720Y-65418D01*
X112887Y-65463D01*
X113031Y-65530D01*
X113154Y-65618D01*
X113165Y-65630D01*
X113176Y-65641D01*
X113198Y-65674D01*
X113231Y-65718D01*
X113265Y-65774D01*
X113298Y-65852D01*
X113331Y-65929D01*
X113354Y-66018D01*
Y-66029D01*
X113365Y-66063D01*
Y-66129D01*
X113376Y-66207D01*
X113387Y-66318D01*
Y-66452D01*
X113398Y-66618D01*
Y-66807D01*
Y-68607D01*
X115031D01*
Y-64230D01*
X113498D01*
Y-64885D01*
X113420D01*
Y-64874D01*
X113398Y-64852D01*
X113376Y-64818D01*
X113342Y-64763D01*
X113298Y-64707D01*
X113231Y-64641D01*
X113154Y-64574D01*
X113065Y-64496D01*
X112954Y-64430D01*
X112831Y-64363D01*
X112687Y-64296D01*
X112520Y-64241D01*
X112331Y-64185D01*
X112132Y-64152D01*
X111898Y-64130D01*
X111643Y-64118D01*
D02*
G37*
G36*
X31962Y-62441D02*
X30329D01*
Y-68607D01*
X31962D01*
Y-62441D01*
D02*
G37*
G36*
X47649Y-64230D02*
X46016D01*
Y-68607D01*
X47649D01*
Y-64230D01*
D02*
G37*
G36*
X56470Y-62441D02*
X51126D01*
X50871Y-62452D01*
X50638D01*
X50549Y-62463D01*
X50404D01*
X50338Y-62474D01*
X50238Y-62485D01*
X50127Y-62497D01*
X49993Y-62519D01*
X49704Y-62563D01*
X49693D01*
X49660Y-62574D01*
X49615Y-62585D01*
X49560Y-62608D01*
X49482Y-62630D01*
X49393Y-62663D01*
X49204Y-62763D01*
X49104Y-62830D01*
X49005Y-62896D01*
X48904Y-62985D01*
X48805Y-63085D01*
X48716Y-63196D01*
X48627Y-63319D01*
X48549Y-63452D01*
X48493Y-63607D01*
Y-63619D01*
X48482Y-63663D01*
X48460Y-63730D01*
X48438Y-63819D01*
X48416Y-63930D01*
X48393Y-64052D01*
X48360Y-64319D01*
Y-64341D01*
X48349Y-64385D01*
Y-64474D01*
X48338Y-64596D01*
X48327Y-64752D01*
Y-64941D01*
X48316Y-65174D01*
Y-65441D01*
Y-65452D01*
Y-65474D01*
Y-65518D01*
Y-65574D01*
Y-65641D01*
Y-65718D01*
Y-65907D01*
X48327Y-66107D01*
X48338Y-66318D01*
X48349Y-66518D01*
X48360Y-66696D01*
Y-66718D01*
X48371Y-66763D01*
X48382Y-66852D01*
X48393Y-66952D01*
X48416Y-67074D01*
X48449Y-67196D01*
X48527Y-67463D01*
Y-67474D01*
X48538Y-67496D01*
X48560Y-67540D01*
X48582Y-67596D01*
X48660Y-67729D01*
X48771Y-67896D01*
X48927Y-68063D01*
X49016Y-68151D01*
X49127Y-68229D01*
X49238Y-68296D01*
X49360Y-68362D01*
X49504Y-68418D01*
X49660Y-68463D01*
X49682D01*
X49727Y-68474D01*
X49815Y-68496D01*
X49916Y-68507D01*
X50049Y-68529D01*
X50193Y-68551D01*
X50360Y-68574D01*
X50526Y-68585D01*
X50660D01*
X50726Y-68596D01*
X51093D01*
X51215Y-68607D01*
X56470D01*
Y-62441D01*
D02*
G37*
G36*
X115715Y-71807D02*
X114270D01*
X113859Y-71818D01*
X113659D01*
X113470Y-71829D01*
X113281D01*
X113126Y-71840D01*
X112981D01*
X112870Y-71851D01*
X112848D01*
X112781Y-71862D01*
X112681Y-71873D01*
X112570Y-71895D01*
X112437Y-71929D01*
X112293Y-71962D01*
X112159Y-72018D01*
X112037Y-72073D01*
X112026Y-72084D01*
X111981Y-72107D01*
X111926Y-72151D01*
X111848Y-72218D01*
X111782Y-72295D01*
X111704Y-72395D01*
X111626Y-72507D01*
X111570Y-72640D01*
X111559Y-72662D01*
X111548Y-72707D01*
X111526Y-72795D01*
X111504Y-72918D01*
X111481Y-73073D01*
X111459Y-73262D01*
X111437Y-73495D01*
Y-73762D01*
Y-73773D01*
Y-73784D01*
Y-73851D01*
Y-73951D01*
X111448Y-74073D01*
Y-74206D01*
X111459Y-74351D01*
X111481Y-74495D01*
X111504Y-74617D01*
Y-74629D01*
X111515Y-74673D01*
X111526Y-74729D01*
X111548Y-74795D01*
X111615Y-74973D01*
X111715Y-75151D01*
X111726Y-75162D01*
X111748Y-75195D01*
X111793Y-75251D01*
X111859Y-75306D01*
X111926Y-75373D01*
X112015Y-75451D01*
X112126Y-75506D01*
X112237Y-75562D01*
X112248D01*
X112259Y-75573D01*
X112293Y-75584D01*
X112337Y-75595D01*
X112393Y-75606D01*
X112459Y-75629D01*
X112615Y-75662D01*
X112815Y-75706D01*
X113048Y-75751D01*
X113315Y-75784D01*
X113604Y-75806D01*
X113692D01*
X113781Y-75817D01*
X113915Y-75828D01*
X114070D01*
X114248Y-75840D01*
X114437Y-75851D01*
X114637Y-75873D01*
X115059Y-75895D01*
X115270Y-75906D01*
X115470Y-75928D01*
X115659Y-75940D01*
X115837Y-75951D01*
X115981Y-75962D01*
X116103Y-75973D01*
X116126D01*
X116192Y-75984D01*
X116292Y-75995D01*
X116403Y-76006D01*
X116525Y-76028D01*
X116637Y-76051D01*
X116726Y-76073D01*
X116792Y-76106D01*
X116814Y-76117D01*
X116848Y-76151D01*
X116903Y-76206D01*
X116937Y-76273D01*
Y-76295D01*
X116948Y-76317D01*
Y-76351D01*
X116959Y-76395D01*
Y-76462D01*
X116970Y-76539D01*
X116981Y-76628D01*
X111337D01*
Y-78051D01*
X118703D01*
Y-78039D01*
Y-77984D01*
Y-77917D01*
Y-77828D01*
X118714Y-77728D01*
Y-77606D01*
Y-77350D01*
Y-77339D01*
Y-77306D01*
Y-77250D01*
Y-77173D01*
Y-77084D01*
Y-76984D01*
X118703Y-76762D01*
Y-76506D01*
X118681Y-76262D01*
X118670Y-76028D01*
X118659Y-75917D01*
X118648Y-75828D01*
Y-75817D01*
X118636Y-75795D01*
X118625Y-75751D01*
X118614Y-75684D01*
X118592Y-75617D01*
X118559Y-75540D01*
X118470Y-75373D01*
X118414Y-75273D01*
X118348Y-75184D01*
X118270Y-75095D01*
X118170Y-75006D01*
X118070Y-74928D01*
X117948Y-74862D01*
X117814Y-74795D01*
X117659Y-74751D01*
X117648D01*
X117603Y-74740D01*
X117536Y-74729D01*
X117448Y-74706D01*
X117359Y-74684D01*
X117248Y-74673D01*
X117037Y-74640D01*
X117025D01*
X116970Y-74629D01*
X116937D01*
X116881Y-74617D01*
X116814D01*
X116726Y-74606D01*
X116637Y-74595D01*
X116525Y-74584D01*
X116392Y-74573D01*
X116237Y-74562D01*
X116070Y-74551D01*
X115881Y-74529D01*
X115659Y-74518D01*
X115426Y-74495D01*
X115370D01*
X115303Y-74484D01*
X115215D01*
X115114Y-74473D01*
X115003Y-74462D01*
X114737Y-74451D01*
X114470Y-74429D01*
X114348Y-74418D01*
X114226Y-74406D01*
X114115D01*
X114015Y-74395D01*
X113937Y-74384D01*
X113870D01*
X113837Y-74373D01*
X113792D01*
X113737Y-74362D01*
X113604Y-74329D01*
X113470Y-74295D01*
X113459D01*
X113448Y-74284D01*
X113381Y-74251D01*
X113304Y-74206D01*
X113248Y-74140D01*
X113237Y-74117D01*
X113226Y-74095D01*
X113215Y-74062D01*
Y-74006D01*
X113204Y-73951D01*
X113192Y-73873D01*
Y-73784D01*
Y-73773D01*
Y-73740D01*
Y-73695D01*
X113204Y-73640D01*
X113215Y-73506D01*
X113237Y-73451D01*
X113259Y-73406D01*
Y-73395D01*
X113270Y-73384D01*
X113304Y-73340D01*
X113381Y-73284D01*
X113481Y-73240D01*
X113493D01*
X113526Y-73229D01*
X113559Y-73218D01*
X113604D01*
X113659Y-73207D01*
X113737Y-73195D01*
X113815D01*
X113915Y-73184D01*
X114026D01*
X114159Y-73173D01*
X114315D01*
X114481Y-73162D01*
X115470D01*
X115703Y-73173D01*
X115948Y-73184D01*
X116170Y-73195D01*
X116259D01*
X116348Y-73207D01*
X116370D01*
X116414Y-73218D01*
X116481D01*
X116570Y-73229D01*
X116648Y-73251D01*
X116737Y-73273D01*
X116803Y-73295D01*
X116859Y-73329D01*
X116870Y-73340D01*
X116903Y-73384D01*
X116937Y-73451D01*
X116959Y-73540D01*
Y-73551D01*
Y-73573D01*
Y-73606D01*
Y-73673D01*
X116970Y-73751D01*
Y-73862D01*
Y-74006D01*
Y-74173D01*
X118792D01*
Y-74162D01*
Y-74140D01*
Y-74106D01*
Y-74051D01*
Y-73918D01*
X118781Y-73762D01*
Y-73573D01*
X118770Y-73395D01*
X118759Y-73207D01*
X118736Y-73051D01*
Y-73040D01*
X118725Y-73018D01*
Y-72984D01*
X118714Y-72940D01*
X118670Y-72818D01*
X118614Y-72673D01*
X118536Y-72518D01*
X118425Y-72362D01*
X118292Y-72218D01*
X118114Y-72107D01*
X118103Y-72096D01*
X118048Y-72084D01*
X117970Y-72051D01*
X117859Y-72018D01*
X117725Y-71973D01*
X117559Y-71940D01*
X117370Y-71907D01*
X117148Y-71873D01*
X117114D01*
X117081Y-71862D01*
X116970D01*
X116881Y-71851D01*
X116792D01*
X116681Y-71840D01*
X116559Y-71829D01*
X116414D01*
X116270Y-71818D01*
X115914D01*
X115715Y-71807D01*
D02*
G37*
G36*
X35295Y-64118D02*
X34839D01*
X34650Y-64130D01*
X34439Y-64141D01*
X34217Y-64163D01*
X33995Y-64196D01*
X33806Y-64230D01*
X33784D01*
X33728Y-64252D01*
X33639Y-64274D01*
X33528Y-64319D01*
X33406Y-64374D01*
X33284Y-64441D01*
X33162Y-64518D01*
X33051Y-64607D01*
X33039Y-64618D01*
X33006Y-64652D01*
X32962Y-64696D01*
X32906Y-64774D01*
X32851Y-64863D01*
X32795Y-64963D01*
X32739Y-65096D01*
X32695Y-65229D01*
Y-65252D01*
X32684Y-65307D01*
X32662Y-65396D01*
X32639Y-65530D01*
X32628Y-65696D01*
X32606Y-65907D01*
X32595Y-66152D01*
Y-66440D01*
Y-66452D01*
Y-66463D01*
Y-66529D01*
Y-66629D01*
Y-66752D01*
X32606Y-66896D01*
X32617Y-67040D01*
X32628Y-67185D01*
X32639Y-67307D01*
Y-67318D01*
X32651Y-67363D01*
X32662Y-67418D01*
X32673Y-67496D01*
X32695Y-67585D01*
X32728Y-67685D01*
X32795Y-67885D01*
X32806Y-67907D01*
X32839Y-67963D01*
X32884Y-68040D01*
X32962Y-68140D01*
X33062Y-68251D01*
X33184Y-68362D01*
X33339Y-68463D01*
X33528Y-68540D01*
X33539D01*
X33551Y-68551D01*
X33584D01*
X33628Y-68563D01*
X33684Y-68585D01*
X33750Y-68596D01*
X33839Y-68607D01*
X33928Y-68629D01*
X34039Y-68640D01*
X34161Y-68663D01*
X34306Y-68674D01*
X34450Y-68685D01*
X34617Y-68696D01*
X34806Y-68707D01*
X34995Y-68718D01*
X35406D01*
X35495Y-68707D01*
X35673Y-68696D01*
X35872Y-68685D01*
X36072Y-68663D01*
X36261Y-68629D01*
X36428Y-68585D01*
X36450Y-68574D01*
X36495Y-68551D01*
X36561Y-68518D01*
X36650Y-68463D01*
X36750Y-68385D01*
X36861Y-68296D01*
X36961Y-68174D01*
X37061Y-68040D01*
X37128D01*
Y-70429D01*
X38761D01*
Y-64230D01*
X37217D01*
Y-64818D01*
X37139D01*
X37128Y-64796D01*
X37095Y-64752D01*
X37050Y-64685D01*
X36983Y-64596D01*
X36895Y-64507D01*
X36783Y-64419D01*
X36650Y-64341D01*
X36506Y-64274D01*
X36483Y-64263D01*
X36428Y-64252D01*
X36317Y-64230D01*
X36172Y-64196D01*
X36083Y-64185D01*
X35984Y-64163D01*
X35861Y-64152D01*
X35739Y-64141D01*
X35606Y-64130D01*
X35461D01*
X35295Y-64118D01*
D02*
G37*
G36*
X42672Y-64107D02*
X41983D01*
X41739Y-64118D01*
X41472Y-64130D01*
X41205Y-64141D01*
X40950Y-64163D01*
X40839Y-64185D01*
X40739Y-64196D01*
X40716D01*
X40650Y-64218D01*
X40561Y-64241D01*
X40450Y-64274D01*
X40316Y-64319D01*
X40194Y-64374D01*
X40061Y-64441D01*
X39950Y-64518D01*
X39939Y-64530D01*
X39928Y-64541D01*
X39894Y-64574D01*
X39861Y-64618D01*
X39772Y-64730D01*
X39705Y-64874D01*
Y-64885D01*
X39694Y-64907D01*
X39683Y-64963D01*
X39661Y-65018D01*
X39639Y-65107D01*
X39628Y-65207D01*
X39605Y-65329D01*
X39594Y-65463D01*
X41261D01*
Y-65452D01*
X41272Y-65441D01*
X41294Y-65374D01*
X41328Y-65307D01*
X41350Y-65274D01*
X41372Y-65252D01*
X41383Y-65241D01*
X41416Y-65229D01*
X41483Y-65207D01*
X41583Y-65185D01*
X41716Y-65163D01*
X41805Y-65152D01*
X41894Y-65141D01*
X42005Y-65130D01*
X42127Y-65118D01*
X42661D01*
X42827Y-65130D01*
X42994Y-65141D01*
X43172Y-65152D01*
X43327Y-65174D01*
X43394Y-65185D01*
X43450Y-65196D01*
X43461D01*
X43494Y-65207D01*
X43538Y-65229D01*
X43583Y-65263D01*
X43638Y-65296D01*
X43683Y-65352D01*
X43716Y-65407D01*
X43727Y-65485D01*
Y-65496D01*
X43716Y-65530D01*
X43705Y-65574D01*
X43683Y-65618D01*
X43627Y-65674D01*
X43561Y-65718D01*
X43472Y-65752D01*
X43338Y-65774D01*
X43205D01*
X43138Y-65785D01*
X42950D01*
X42816Y-65796D01*
X42272D01*
X42039Y-65807D01*
X41761D01*
X41461Y-65818D01*
X40961D01*
X40894Y-65829D01*
X40805D01*
X40605Y-65852D01*
X40383Y-65896D01*
X40161Y-65952D01*
X39961Y-66029D01*
X39861Y-66074D01*
X39783Y-66129D01*
X39761Y-66141D01*
X39717Y-66185D01*
X39650Y-66263D01*
X39572Y-66374D01*
X39494Y-66518D01*
X39428Y-66696D01*
X39383Y-66918D01*
X39361Y-67185D01*
Y-67207D01*
Y-67263D01*
X39372Y-67363D01*
X39383Y-67474D01*
X39405Y-67607D01*
X39428Y-67740D01*
X39472Y-67874D01*
X39528Y-67996D01*
X39539Y-68007D01*
X39561Y-68051D01*
X39594Y-68107D01*
X39650Y-68174D01*
X39728Y-68240D01*
X39816Y-68318D01*
X39917Y-68385D01*
X40039Y-68451D01*
X40050D01*
X40072Y-68463D01*
X40105Y-68474D01*
X40161Y-68496D01*
X40228Y-68518D01*
X40316Y-68540D01*
X40428Y-68563D01*
X40561Y-68585D01*
X40716Y-68607D01*
X40894Y-68629D01*
X41094Y-68651D01*
X41316Y-68674D01*
X41572Y-68696D01*
X41850Y-68707D01*
X42161Y-68718D01*
X42905D01*
X43027Y-68707D01*
X43161D01*
X43438Y-68696D01*
X43727Y-68685D01*
X43994Y-68663D01*
X44105Y-68640D01*
X44216Y-68629D01*
X44238D01*
X44305Y-68607D01*
X44394Y-68585D01*
X44505Y-68551D01*
X44638Y-68507D01*
X44772Y-68440D01*
X44905Y-68362D01*
X45027Y-68274D01*
X45038Y-68262D01*
X45083Y-68207D01*
X45149Y-68129D01*
X45216Y-68018D01*
X45283Y-67874D01*
X45349Y-67685D01*
X45394Y-67474D01*
X45416Y-67218D01*
X43749D01*
Y-67229D01*
X43738Y-67263D01*
X43727Y-67318D01*
X43705Y-67374D01*
X43661Y-67440D01*
X43605Y-67507D01*
X43538Y-67563D01*
X43438Y-67607D01*
X43427D01*
X43383Y-67618D01*
X43305Y-67640D01*
X43194Y-67651D01*
X43049Y-67674D01*
X42872Y-67696D01*
X42649Y-67707D01*
X42116D01*
X41950Y-67696D01*
X41761Y-67685D01*
X41583Y-67674D01*
X41427Y-67651D01*
X41350Y-67640D01*
X41294Y-67629D01*
X41283D01*
X41250Y-67607D01*
X41205Y-67585D01*
X41150Y-67551D01*
X41094Y-67507D01*
X41050Y-67452D01*
X41016Y-67385D01*
X41005Y-67307D01*
Y-67296D01*
Y-67274D01*
X41016Y-67229D01*
X41039Y-67185D01*
X41072Y-67129D01*
X41127Y-67074D01*
X41194Y-67029D01*
X41283Y-66996D01*
X41294D01*
X41328Y-66985D01*
X41439D01*
X41505Y-66974D01*
X41683D01*
X41794Y-66963D01*
X42083D01*
X42261Y-66952D01*
X43072D01*
X43305Y-66940D01*
X43561D01*
X43794Y-66929D01*
X43905D01*
X43994Y-66918D01*
X44072D01*
X44138Y-66907D01*
X44172D01*
X44205Y-66896D01*
X44260Y-66885D01*
X44394Y-66852D01*
X44549Y-66807D01*
X44727Y-66741D01*
X44894Y-66652D01*
X45049Y-66540D01*
X45116Y-66474D01*
X45171Y-66407D01*
X45183Y-66396D01*
X45205Y-66352D01*
X45238Y-66285D01*
X45272Y-66196D01*
X45305Y-66074D01*
X45338Y-65940D01*
X45360Y-65774D01*
X45371Y-65596D01*
Y-65585D01*
Y-65552D01*
Y-65507D01*
X45360Y-65441D01*
X45349Y-65363D01*
X45338Y-65274D01*
X45283Y-65074D01*
X45194Y-64863D01*
X45138Y-64752D01*
X45072Y-64652D01*
X44994Y-64563D01*
X44894Y-64474D01*
X44783Y-64396D01*
X44660Y-64330D01*
X44649D01*
X44638Y-64319D01*
X44594Y-64307D01*
X44549Y-64296D01*
X44483Y-64274D01*
X44394Y-64263D01*
X44294Y-64241D01*
X44172Y-64218D01*
X44027Y-64196D01*
X43861Y-64174D01*
X43672Y-64163D01*
X43461Y-64141D01*
X43227Y-64130D01*
X42972Y-64118D01*
X42672Y-64107D01*
D02*
G37*
G36*
X66592Y-64230D02*
X64958D01*
Y-68607D01*
X66592D01*
Y-64230D01*
D02*
G37*
G36*
X117409D02*
X115776D01*
Y-68607D01*
X117409D01*
Y-64230D01*
D02*
G37*
G36*
X125241Y-62441D02*
X117775D01*
Y-64018D01*
X120519D01*
Y-68607D01*
X122497D01*
Y-64018D01*
X125241D01*
Y-62441D01*
D02*
G37*
G36*
X55332Y-83083D02*
X53698D01*
Y-87461D01*
X55332D01*
Y-83083D01*
D02*
G37*
G36*
X81912Y-64118D02*
X81823D01*
X81757Y-64130D01*
X81668D01*
X81579Y-64141D01*
X81368Y-64163D01*
X81146Y-64218D01*
X80912Y-64285D01*
X80701Y-64374D01*
X80612Y-64441D01*
X80535Y-64507D01*
X80512Y-64530D01*
X80468Y-64585D01*
X80412Y-64685D01*
X80379Y-64752D01*
X80335Y-64829D01*
X80301Y-64918D01*
X80268Y-65018D01*
X80235Y-65130D01*
X80201Y-65252D01*
X80179Y-65385D01*
X80157Y-65541D01*
X80146Y-65707D01*
Y-65885D01*
Y-65896D01*
Y-65940D01*
Y-65985D01*
Y-66029D01*
X80157Y-66096D01*
Y-66174D01*
X81701D01*
Y-66152D01*
Y-66107D01*
Y-66040D01*
X81712Y-65963D01*
X81735Y-65785D01*
X81757Y-65707D01*
X81779Y-65641D01*
X81790Y-65630D01*
X81812Y-65596D01*
X81857Y-65552D01*
X81934Y-65496D01*
X82034Y-65441D01*
X82168Y-65396D01*
X82346Y-65363D01*
X82557Y-65352D01*
X82657D01*
X82757Y-65363D01*
X82879Y-65396D01*
X83023Y-65430D01*
X83157Y-65485D01*
X83279Y-65563D01*
X83390Y-65674D01*
Y-65685D01*
X83412Y-65696D01*
X83434Y-65741D01*
X83457Y-65785D01*
X83512Y-65907D01*
X83557Y-66063D01*
Y-66074D01*
Y-66107D01*
X83568Y-66163D01*
Y-66241D01*
X83579Y-66341D01*
Y-66474D01*
X83590Y-66618D01*
Y-66796D01*
Y-68607D01*
X85223D01*
Y-64230D01*
X83690D01*
Y-64885D01*
X83612D01*
X83601Y-64863D01*
X83568Y-64818D01*
X83523Y-64741D01*
X83446Y-64652D01*
X83357Y-64563D01*
X83257Y-64463D01*
X83134Y-64374D01*
X83001Y-64296D01*
X82979Y-64285D01*
X82934Y-64263D01*
X82845Y-64241D01*
X82723Y-64207D01*
X82568Y-64174D01*
X82379Y-64141D01*
X82157Y-64130D01*
X81912Y-64118D01*
D02*
G37*
G36*
X87601Y-64230D02*
X85967D01*
Y-68607D01*
X87601D01*
Y-64230D01*
D02*
G37*
%LPD*%
G36*
X79451Y-83983D02*
X79618Y-83994D01*
X79796Y-84005D01*
X79985Y-84039D01*
X80140Y-84072D01*
X80207Y-84105D01*
X80263Y-84128D01*
X80274Y-84139D01*
X80307Y-84161D01*
X80351Y-84194D01*
X80396Y-84261D01*
X80451Y-84339D01*
X80496Y-84439D01*
X80529Y-84572D01*
X80551Y-84728D01*
X77907D01*
Y-84716D01*
Y-84683D01*
Y-84639D01*
X77918Y-84583D01*
X77929Y-84472D01*
Y-84417D01*
X77940Y-84372D01*
Y-84350D01*
X77963Y-84316D01*
X77996Y-84250D01*
X78040Y-84194D01*
X78052Y-84183D01*
X78085Y-84161D01*
X78152Y-84128D01*
X78263Y-84083D01*
X78329Y-84061D01*
X78407Y-84039D01*
X78507Y-84028D01*
X78607Y-84005D01*
X78729Y-83994D01*
X78863Y-83983D01*
X79007Y-83972D01*
X79374D01*
X79451Y-83983D01*
D02*
G37*
G36*
X87506Y-76217D02*
X87684Y-76228D01*
X87851Y-76251D01*
X87995Y-76273D01*
X88051Y-76284D01*
X88095Y-76306D01*
X88106D01*
X88128Y-76328D01*
X88173Y-76362D01*
X88206Y-76395D01*
X88295Y-76506D01*
X88317Y-76584D01*
X88328Y-76662D01*
Y-76673D01*
Y-76706D01*
X88317Y-76751D01*
X88295Y-76806D01*
X88273Y-76873D01*
X88228Y-76928D01*
X88173Y-76984D01*
X88095Y-77028D01*
X88084D01*
X88051Y-77039D01*
X87984Y-77051D01*
X87895Y-77073D01*
X87773Y-77084D01*
X87617Y-77106D01*
X87428Y-77117D01*
X86995D01*
X86917Y-77106D01*
X86740D01*
X86551Y-77095D01*
X86362Y-77073D01*
X86184Y-77051D01*
X86117Y-77039D01*
X86051Y-77017D01*
X86040D01*
X86006Y-76995D01*
X85951Y-76973D01*
X85895Y-76928D01*
X85840Y-76873D01*
X85784Y-76806D01*
X85751Y-76728D01*
X85740Y-76628D01*
Y-76617D01*
Y-76584D01*
X85751Y-76539D01*
X85773Y-76484D01*
X85806Y-76417D01*
X85851Y-76362D01*
X85917Y-76306D01*
X86006Y-76262D01*
X86017D01*
X86040Y-76251D01*
X86095D01*
X86184Y-76240D01*
X86251Y-76228D01*
X86406D01*
X86506Y-76217D01*
X86629D01*
X86751Y-76206D01*
X87340D01*
X87506Y-76217D01*
D02*
G37*
G36*
X67730D02*
X67908Y-76228D01*
X68075Y-76251D01*
X68219Y-76273D01*
X68275Y-76284D01*
X68319Y-76306D01*
X68330D01*
X68353Y-76328D01*
X68397Y-76362D01*
X68430Y-76395D01*
X68519Y-76506D01*
X68541Y-76584D01*
X68553Y-76662D01*
Y-76673D01*
Y-76706D01*
X68541Y-76751D01*
X68519Y-76806D01*
X68497Y-76873D01*
X68453Y-76928D01*
X68397Y-76984D01*
X68319Y-77028D01*
X68308D01*
X68275Y-77039D01*
X68208Y-77051D01*
X68119Y-77073D01*
X67997Y-77084D01*
X67842Y-77106D01*
X67653Y-77117D01*
X67219D01*
X67141Y-77106D01*
X66964D01*
X66775Y-77095D01*
X66586Y-77073D01*
X66408Y-77051D01*
X66342Y-77039D01*
X66275Y-77017D01*
X66264D01*
X66230Y-76995D01*
X66175Y-76973D01*
X66119Y-76928D01*
X66064Y-76873D01*
X66008Y-76806D01*
X65975Y-76728D01*
X65964Y-76628D01*
Y-76617D01*
Y-76584D01*
X65975Y-76539D01*
X65997Y-76484D01*
X66031Y-76417D01*
X66075Y-76362D01*
X66142Y-76306D01*
X66230Y-76262D01*
X66242D01*
X66264Y-76251D01*
X66319D01*
X66408Y-76240D01*
X66475Y-76228D01*
X66631D01*
X66730Y-76217D01*
X66853D01*
X66975Y-76206D01*
X67564D01*
X67730Y-76217D01*
D02*
G37*
G36*
X33556Y-85628D02*
X33734Y-85639D01*
X33900Y-85661D01*
X34045Y-85683D01*
X34100Y-85694D01*
X34145Y-85716D01*
X34156D01*
X34178Y-85739D01*
X34223Y-85772D01*
X34256Y-85805D01*
X34345Y-85916D01*
X34367Y-85994D01*
X34378Y-86072D01*
Y-86083D01*
Y-86116D01*
X34367Y-86161D01*
X34345Y-86216D01*
X34323Y-86283D01*
X34278Y-86339D01*
X34223Y-86394D01*
X34145Y-86439D01*
X34134D01*
X34100Y-86450D01*
X34034Y-86461D01*
X33945Y-86483D01*
X33823Y-86494D01*
X33667Y-86516D01*
X33478Y-86527D01*
X33045D01*
X32967Y-86516D01*
X32789D01*
X32601Y-86505D01*
X32412Y-86483D01*
X32234Y-86461D01*
X32167Y-86450D01*
X32101Y-86427D01*
X32089D01*
X32056Y-86405D01*
X32001Y-86383D01*
X31945Y-86339D01*
X31890Y-86283D01*
X31834Y-86216D01*
X31801Y-86138D01*
X31789Y-86039D01*
Y-86027D01*
Y-85994D01*
X31801Y-85950D01*
X31823Y-85894D01*
X31856Y-85827D01*
X31901Y-85772D01*
X31967Y-85716D01*
X32056Y-85672D01*
X32067D01*
X32089Y-85661D01*
X32145D01*
X32234Y-85650D01*
X32301Y-85639D01*
X32456D01*
X32556Y-85628D01*
X32678D01*
X32800Y-85616D01*
X33389D01*
X33556Y-85628D01*
D02*
G37*
G36*
X103582D02*
X103760Y-85639D01*
X103927Y-85661D01*
X104071Y-85683D01*
X104127Y-85694D01*
X104171Y-85716D01*
X104182D01*
X104204Y-85739D01*
X104249Y-85772D01*
X104282Y-85805D01*
X104371Y-85916D01*
X104393Y-85994D01*
X104404Y-86072D01*
Y-86083D01*
Y-86116D01*
X104393Y-86161D01*
X104371Y-86216D01*
X104349Y-86283D01*
X104305Y-86339D01*
X104249Y-86394D01*
X104171Y-86439D01*
X104160D01*
X104127Y-86450D01*
X104060Y-86461D01*
X103971Y-86483D01*
X103849Y-86494D01*
X103693Y-86516D01*
X103505Y-86527D01*
X103071D01*
X102994Y-86516D01*
X102816D01*
X102627Y-86505D01*
X102438Y-86483D01*
X102260Y-86461D01*
X102194Y-86450D01*
X102127Y-86427D01*
X102116D01*
X102083Y-86405D01*
X102027Y-86383D01*
X101971Y-86339D01*
X101916Y-86283D01*
X101860Y-86216D01*
X101827Y-86138D01*
X101816Y-86039D01*
Y-86027D01*
Y-85994D01*
X101827Y-85950D01*
X101849Y-85894D01*
X101883Y-85827D01*
X101927Y-85772D01*
X101994Y-85716D01*
X102083Y-85672D01*
X102094D01*
X102116Y-85661D01*
X102171D01*
X102260Y-85650D01*
X102327Y-85639D01*
X102482D01*
X102582Y-85628D01*
X102705D01*
X102827Y-85616D01*
X103416D01*
X103582Y-85628D01*
D02*
G37*
G36*
X38067Y-73418D02*
X38322Y-73429D01*
X38589Y-73451D01*
X38844Y-73484D01*
X38967Y-73506D01*
X39067Y-73529D01*
X39144Y-73551D01*
X39211Y-73584D01*
X39222D01*
X39244Y-73606D01*
X39267Y-73629D01*
X39311Y-73673D01*
X39344Y-73729D01*
X39389Y-73795D01*
X39422Y-73884D01*
X39455Y-73984D01*
Y-73995D01*
X39467Y-74040D01*
X39478Y-74117D01*
X39489Y-74217D01*
X39500Y-74351D01*
X39511Y-74518D01*
X39522Y-74706D01*
Y-74940D01*
Y-74951D01*
Y-74973D01*
Y-75017D01*
Y-75062D01*
Y-75195D01*
X39511Y-75362D01*
X39500Y-75540D01*
X39489Y-75717D01*
X39467Y-75873D01*
X39444Y-76006D01*
Y-76017D01*
X39433Y-76051D01*
X39411Y-76106D01*
X39378Y-76162D01*
X39333Y-76228D01*
X39278Y-76295D01*
X39211Y-76362D01*
X39133Y-76406D01*
X39122D01*
X39100Y-76417D01*
X39078Y-76428D01*
X39033Y-76439D01*
X38911Y-76473D01*
X38767Y-76495D01*
X38722D01*
X38655Y-76506D01*
X38478D01*
X38400Y-76517D01*
X38089D01*
X37967Y-76528D01*
X37467D01*
X37378Y-76517D01*
X37056D01*
X36822Y-76506D01*
X36511D01*
X36434Y-76495D01*
X36300D01*
X36245Y-76484D01*
X36156Y-76462D01*
X36056Y-76428D01*
X35945Y-76395D01*
X35845Y-76340D01*
X35745Y-76262D01*
X35678Y-76173D01*
X35667Y-76162D01*
X35656Y-76117D01*
X35634Y-76039D01*
X35600Y-75917D01*
X35589Y-75840D01*
X35578Y-75762D01*
X35567Y-75662D01*
X35556Y-75551D01*
X35545Y-75428D01*
Y-75284D01*
X35534Y-75140D01*
Y-74973D01*
Y-74962D01*
Y-74940D01*
Y-74906D01*
Y-74851D01*
Y-74729D01*
X35545Y-74573D01*
X35556Y-74406D01*
X35567Y-74229D01*
X35589Y-74073D01*
X35623Y-73951D01*
Y-73940D01*
X35634Y-73906D01*
X35656Y-73851D01*
X35689Y-73784D01*
X35734Y-73718D01*
X35778Y-73651D01*
X35845Y-73584D01*
X35922Y-73540D01*
X35934D01*
X35956Y-73529D01*
X35989Y-73518D01*
X36033Y-73495D01*
X36167Y-73473D01*
X36322Y-73451D01*
X36367D01*
X36445Y-73440D01*
X36567D01*
X36645Y-73429D01*
X36845D01*
X36967Y-73418D01*
X37267D01*
X37444Y-73406D01*
X37956D01*
X38067Y-73418D01*
D02*
G37*
G36*
X104204D02*
X104460Y-73429D01*
X104727Y-73451D01*
X104982Y-73484D01*
X105104Y-73506D01*
X105204Y-73529D01*
X105282Y-73551D01*
X105349Y-73584D01*
X105360D01*
X105382Y-73606D01*
X105404Y-73629D01*
X105449Y-73673D01*
X105482Y-73729D01*
X105527Y-73795D01*
X105560Y-73884D01*
X105593Y-73984D01*
Y-73995D01*
X105604Y-74040D01*
X105615Y-74117D01*
X105627Y-74217D01*
X105638Y-74351D01*
X105649Y-74518D01*
X105660Y-74706D01*
Y-74940D01*
Y-74951D01*
Y-74973D01*
Y-75017D01*
Y-75062D01*
Y-75195D01*
X105649Y-75362D01*
X105638Y-75540D01*
X105627Y-75717D01*
X105604Y-75873D01*
X105582Y-76006D01*
Y-76017D01*
X105571Y-76051D01*
X105549Y-76106D01*
X105516Y-76162D01*
X105471Y-76228D01*
X105415Y-76295D01*
X105349Y-76362D01*
X105271Y-76406D01*
X105260D01*
X105238Y-76417D01*
X105216Y-76428D01*
X105171Y-76439D01*
X105049Y-76473D01*
X104904Y-76495D01*
X104860D01*
X104793Y-76506D01*
X104616D01*
X104538Y-76517D01*
X104227D01*
X104104Y-76528D01*
X103605D01*
X103516Y-76517D01*
X103193D01*
X102960Y-76506D01*
X102649D01*
X102571Y-76495D01*
X102438D01*
X102383Y-76484D01*
X102294Y-76462D01*
X102194Y-76428D01*
X102083Y-76395D01*
X101982Y-76340D01*
X101883Y-76262D01*
X101816Y-76173D01*
X101805Y-76162D01*
X101794Y-76117D01*
X101771Y-76039D01*
X101738Y-75917D01*
X101727Y-75840D01*
X101716Y-75762D01*
X101705Y-75662D01*
X101694Y-75551D01*
X101682Y-75428D01*
Y-75284D01*
X101671Y-75140D01*
Y-74973D01*
Y-74962D01*
Y-74940D01*
Y-74906D01*
Y-74851D01*
Y-74729D01*
X101682Y-74573D01*
X101694Y-74406D01*
X101705Y-74229D01*
X101727Y-74073D01*
X101760Y-73951D01*
Y-73940D01*
X101771Y-73906D01*
X101794Y-73851D01*
X101827Y-73784D01*
X101871Y-73718D01*
X101916Y-73651D01*
X101982Y-73584D01*
X102060Y-73540D01*
X102071D01*
X102094Y-73529D01*
X102127Y-73518D01*
X102171Y-73495D01*
X102305Y-73473D01*
X102460Y-73451D01*
X102505D01*
X102582Y-73440D01*
X102705D01*
X102782Y-73429D01*
X102982D01*
X103105Y-73418D01*
X103405D01*
X103582Y-73406D01*
X104093D01*
X104204Y-73418D01*
D02*
G37*
G36*
X39878Y-84216D02*
X40055Y-84228D01*
X40244Y-84239D01*
X40422Y-84272D01*
X40589Y-84305D01*
X40666Y-84339D01*
X40722Y-84361D01*
X40733D01*
X40755Y-84383D01*
X40822Y-84439D01*
X40911Y-84539D01*
X40944Y-84594D01*
X40977Y-84672D01*
Y-84683D01*
X40989Y-84705D01*
X41000Y-84761D01*
X41011Y-84828D01*
X41022Y-84916D01*
X41033Y-85016D01*
X41044Y-85150D01*
Y-85294D01*
Y-85316D01*
Y-85372D01*
Y-85450D01*
X41033Y-85550D01*
X41011Y-85772D01*
X40989Y-85872D01*
X40966Y-85950D01*
Y-85961D01*
X40955Y-85983D01*
X40933Y-86016D01*
X40900Y-86050D01*
X40855Y-86105D01*
X40800Y-86150D01*
X40733Y-86194D01*
X40644Y-86227D01*
X40633D01*
X40578Y-86250D01*
X40500Y-86261D01*
X40389Y-86283D01*
X40233Y-86305D01*
X40044Y-86316D01*
X39822Y-86339D01*
X39433D01*
X39355Y-86327D01*
X39278D01*
X39100Y-86316D01*
X38911Y-86294D01*
X38722Y-86261D01*
X38555Y-86216D01*
X38478Y-86194D01*
X38422Y-86161D01*
X38411D01*
X38400Y-86138D01*
X38344Y-86094D01*
X38278Y-85994D01*
X38244Y-85939D01*
X38222Y-85861D01*
Y-85850D01*
X38211Y-85816D01*
X38200Y-85772D01*
X38189Y-85705D01*
X38178Y-85616D01*
X38167Y-85505D01*
X38155Y-85383D01*
Y-85239D01*
Y-85216D01*
Y-85172D01*
Y-85094D01*
X38167Y-84994D01*
X38189Y-84794D01*
X38211Y-84694D01*
X38244Y-84617D01*
Y-84605D01*
X38256Y-84583D01*
X38311Y-84505D01*
X38344Y-84461D01*
X38400Y-84417D01*
X38456Y-84372D01*
X38533Y-84339D01*
X38544Y-84328D01*
X38600Y-84316D01*
X38678Y-84294D01*
X38789Y-84272D01*
X38933Y-84250D01*
X39122Y-84228D01*
X39344Y-84205D01*
X39800D01*
X39878Y-84216D01*
D02*
G37*
G36*
X102144Y-65130D02*
X102310Y-65141D01*
X102488Y-65152D01*
X102677Y-65185D01*
X102832Y-65218D01*
X102899Y-65252D01*
X102955Y-65274D01*
X102966Y-65285D01*
X102999Y-65307D01*
X103043Y-65341D01*
X103088Y-65407D01*
X103144Y-65485D01*
X103188Y-65585D01*
X103221Y-65718D01*
X103244Y-65874D01*
X100599D01*
Y-65863D01*
Y-65829D01*
Y-65785D01*
X100610Y-65729D01*
X100621Y-65618D01*
Y-65563D01*
X100633Y-65518D01*
Y-65496D01*
X100655Y-65463D01*
X100688Y-65396D01*
X100733Y-65341D01*
X100744Y-65329D01*
X100777Y-65307D01*
X100844Y-65274D01*
X100955Y-65229D01*
X101022Y-65207D01*
X101099Y-65185D01*
X101199Y-65174D01*
X101299Y-65152D01*
X101421Y-65141D01*
X101555Y-65130D01*
X101699Y-65118D01*
X102066D01*
X102144Y-65130D01*
D02*
G37*
G36*
X27251Y-66774D02*
X27429Y-66785D01*
X27595Y-66807D01*
X27740Y-66829D01*
X27795Y-66840D01*
X27840Y-66863D01*
X27851D01*
X27873Y-66885D01*
X27918Y-66918D01*
X27951Y-66952D01*
X28040Y-67063D01*
X28062Y-67140D01*
X28073Y-67218D01*
Y-67229D01*
Y-67263D01*
X28062Y-67307D01*
X28040Y-67363D01*
X28018Y-67429D01*
X27973Y-67485D01*
X27918Y-67540D01*
X27840Y-67585D01*
X27829D01*
X27795Y-67596D01*
X27729Y-67607D01*
X27640Y-67629D01*
X27518Y-67640D01*
X27362Y-67663D01*
X27173Y-67674D01*
X26740D01*
X26662Y-67663D01*
X26485D01*
X26296Y-67651D01*
X26107Y-67629D01*
X25929Y-67607D01*
X25862Y-67596D01*
X25796Y-67574D01*
X25785D01*
X25751Y-67551D01*
X25696Y-67529D01*
X25640Y-67485D01*
X25585Y-67429D01*
X25529Y-67363D01*
X25496Y-67285D01*
X25485Y-67185D01*
Y-67174D01*
Y-67140D01*
X25496Y-67096D01*
X25518Y-67040D01*
X25551Y-66974D01*
X25596Y-66918D01*
X25662Y-66863D01*
X25751Y-66818D01*
X25762D01*
X25785Y-66807D01*
X25840D01*
X25929Y-66796D01*
X25996Y-66785D01*
X26151D01*
X26251Y-66774D01*
X26373D01*
X26496Y-66763D01*
X27084D01*
X27251Y-66774D01*
D02*
G37*
G36*
X54615Y-67029D02*
X51760D01*
X51604Y-67018D01*
X51426D01*
X51249Y-67007D01*
X51082Y-66996D01*
X50938Y-66985D01*
X50927D01*
X50882Y-66974D01*
X50827Y-66963D01*
X50749Y-66952D01*
X50593Y-66896D01*
X50515Y-66863D01*
X50460Y-66818D01*
X50449Y-66807D01*
X50438Y-66796D01*
X50404Y-66763D01*
X50371Y-66718D01*
X50338Y-66663D01*
X50304Y-66596D01*
X50271Y-66518D01*
X50238Y-66418D01*
Y-66407D01*
X50227Y-66363D01*
X50216Y-66296D01*
X50204Y-66196D01*
X50193Y-66074D01*
X50182Y-65929D01*
X50171Y-65752D01*
Y-65552D01*
Y-65541D01*
Y-65530D01*
Y-65463D01*
Y-65352D01*
X50182Y-65229D01*
Y-65096D01*
X50193Y-64952D01*
X50204Y-64818D01*
X50227Y-64696D01*
Y-64685D01*
X50238Y-64652D01*
X50249Y-64596D01*
X50271Y-64530D01*
X50327Y-64385D01*
X50371Y-64319D01*
X50415Y-64252D01*
X50427Y-64241D01*
X50449Y-64230D01*
X50482Y-64196D01*
X50526Y-64163D01*
X50593Y-64130D01*
X50671Y-64096D01*
X50760Y-64063D01*
X50871Y-64041D01*
X50882D01*
X50927Y-64030D01*
X51004Y-64018D01*
X51126Y-64007D01*
X51282D01*
X51371Y-63996D01*
X51482D01*
X51593Y-63985D01*
X54615D01*
Y-67029D01*
D02*
G37*
G36*
X35872Y-65363D02*
X35972D01*
X36172Y-65374D01*
X36395Y-65407D01*
X36595Y-65441D01*
X36695Y-65463D01*
X36772Y-65496D01*
X36839Y-65530D01*
X36895Y-65563D01*
X36906Y-65574D01*
X36928Y-65607D01*
X36972Y-65663D01*
X37006Y-65752D01*
X37050Y-65874D01*
X37095Y-66040D01*
X37117Y-66229D01*
X37128Y-66352D01*
Y-66474D01*
Y-66485D01*
Y-66529D01*
Y-66596D01*
X37117Y-66685D01*
X37095Y-66863D01*
X37083Y-66963D01*
X37061Y-67040D01*
Y-67052D01*
X37050Y-67074D01*
X37006Y-67140D01*
X36939Y-67240D01*
X36828Y-67318D01*
X36817Y-67329D01*
X36772Y-67340D01*
X36695Y-67374D01*
X36584Y-67396D01*
X36428Y-67429D01*
X36328Y-67440D01*
X36228Y-67463D01*
X36106Y-67474D01*
X35984D01*
X35839Y-67485D01*
X35539D01*
X35461Y-67474D01*
X35384D01*
X35195Y-67463D01*
X34995Y-67440D01*
X34806Y-67407D01*
X34639Y-67363D01*
X34561Y-67340D01*
X34506Y-67307D01*
X34495D01*
X34484Y-67285D01*
X34428Y-67229D01*
X34361Y-67140D01*
X34306Y-67007D01*
Y-66996D01*
X34295Y-66963D01*
X34284Y-66918D01*
X34273Y-66852D01*
X34262Y-66752D01*
X34250Y-66641D01*
X34239Y-66518D01*
Y-66363D01*
Y-66341D01*
Y-66296D01*
Y-66218D01*
X34250Y-66141D01*
X34273Y-65940D01*
X34295Y-65863D01*
X34317Y-65785D01*
Y-65774D01*
X34328Y-65752D01*
X34373Y-65685D01*
X34450Y-65596D01*
X34506Y-65552D01*
X34573Y-65507D01*
X34584Y-65496D01*
X34628Y-65485D01*
X34706Y-65463D01*
X34806Y-65430D01*
X34950Y-65407D01*
X35139Y-65385D01*
X35361Y-65363D01*
X35484Y-65352D01*
X35795D01*
X35872Y-65363D01*
D02*
G37*
D27*
X315098Y-60732D02*
Y-53842D01*
X311201Y-62110D02*
X344902D01*
Y-88291D02*
Y-62110D01*
X311201Y-88291D02*
X344902D01*
X311201D02*
Y-62110D01*
X696260Y-118467D02*
Y-114333D01*
X696161Y-41801D02*
Y-37667D01*
X354263Y-78809D02*
Y-74675D01*
Y-70738D02*
Y-66604D01*
Y-62667D02*
Y-58533D01*
X569095Y-97509D02*
Y-93376D01*
Y-57048D02*
Y-52915D01*
X340233Y-13900D02*
X344367D01*
X328933D02*
X333067D01*
X193800Y-2706D02*
X234076D01*
Y-28297D02*
Y-2706D01*
X184036Y-28297D02*
X234076D01*
X184036D02*
Y-13100D01*
X221158Y-97641D02*
Y-89373D01*
X150756Y-87995D02*
X221244D01*
X150756D02*
Y-62405D01*
X221244D01*
Y-87995D02*
Y-62405D01*
X306299Y-46821D02*
X316929D01*
X306299Y-40718D02*
X320571D01*
X262736Y-28297D02*
Y-13100D01*
Y-28297D02*
X312776D01*
Y-2706D01*
X272500D02*
X312776D01*
D28*
X180383Y-2227D02*
X181383D01*
X180883D01*
Y-4726D01*
X181383Y-5226D01*
X181883D01*
X182383Y-4726D01*
X179384Y-5226D02*
X178384D01*
X178884D01*
Y-2227D01*
X179384Y-2727D01*
X225355Y-82284D02*
X224855Y-81785D01*
Y-80785D01*
X225355Y-80285D01*
X227355D01*
X227854Y-80785D01*
Y-81785D01*
X227355Y-82284D01*
X227854Y-83284D02*
Y-84284D01*
Y-83784D01*
X224855D01*
X225355Y-83284D01*
X232540Y-82284D02*
X232040Y-81785D01*
Y-80785D01*
X232540Y-80285D01*
X234540D01*
X235039Y-80785D01*
Y-81785D01*
X234540Y-82284D01*
X235039Y-85283D02*
Y-83284D01*
X233040Y-85283D01*
X232540D01*
X232040Y-84784D01*
Y-83784D01*
X232540Y-83284D01*
X326181Y-42345D02*
Y-45344D01*
X324682D01*
X324182Y-44844D01*
Y-42845D01*
X324682Y-42345D01*
X326181D01*
X323182Y-45344D02*
X322182D01*
X322682D01*
Y-42345D01*
X323182Y-42845D01*
X145820Y-62568D02*
Y-63568D01*
Y-63068D01*
X148819D01*
Y-62568D01*
Y-63568D01*
X146320Y-67067D02*
X145820Y-66567D01*
Y-65567D01*
X146320Y-65068D01*
X148319D01*
X148819Y-65567D01*
Y-66567D01*
X148319Y-67067D01*
X148819Y-68067D02*
Y-69066D01*
Y-68567D01*
X145820D01*
X146320Y-68067D01*
X332476Y-1498D02*
X329477D01*
Y-2998D01*
X329977Y-3498D01*
X330977D01*
X331477Y-2998D01*
Y-1498D01*
Y-2498D02*
X332476Y-3498D01*
Y-4498D02*
Y-5497D01*
Y-4997D01*
X329477D01*
X329977Y-4498D01*
X343776Y-1498D02*
X340777D01*
Y-2998D01*
X341277Y-3498D01*
X342277D01*
X342777Y-2998D01*
Y-1498D01*
Y-2498D02*
X343776Y-3498D01*
Y-6497D02*
Y-4497D01*
X341777Y-6497D01*
X341277D01*
X340777Y-5997D01*
Y-4997D01*
X341277Y-4497D01*
X366694Y-61978D02*
Y-58979D01*
X365195D01*
X364695Y-59479D01*
Y-60478D01*
X365195Y-60978D01*
X366694D01*
X365694D02*
X364695Y-61978D01*
X361696Y-58979D02*
X363695D01*
Y-60478D01*
X362695Y-59979D01*
X362196D01*
X361696Y-60478D01*
Y-61478D01*
X362196Y-61978D01*
X363195D01*
X363695Y-61478D01*
X366694Y-69950D02*
Y-66951D01*
X365195D01*
X364695Y-67451D01*
Y-68451D01*
X365195Y-68951D01*
X366694D01*
X365694D02*
X364695Y-69950D01*
X361696Y-66951D02*
X362695Y-67451D01*
X363695Y-68451D01*
Y-69451D01*
X363195Y-69950D01*
X362196D01*
X361696Y-69451D01*
Y-68951D01*
X362196Y-68451D01*
X363695D01*
X366497Y-78120D02*
Y-75121D01*
X364998D01*
X364498Y-75621D01*
Y-76620D01*
X364998Y-77120D01*
X366497D01*
X365498D02*
X364498Y-78120D01*
X363498Y-75121D02*
X361499D01*
Y-75621D01*
X363498Y-77620D01*
Y-78120D01*
X306753Y-64273D02*
X306253Y-63773D01*
Y-62773D01*
X306753Y-62273D01*
X307253D01*
X307752Y-62773D01*
Y-63773D01*
X308252Y-64273D01*
X308752D01*
X309252Y-63773D01*
Y-62773D01*
X308752Y-62273D01*
X309252Y-65272D02*
Y-66272D01*
Y-65772D01*
X306253D01*
X306753Y-65272D01*
X581496Y-56663D02*
Y-53664D01*
X579996D01*
X579497Y-54164D01*
Y-55164D01*
X579996Y-55663D01*
X581496D01*
X580496D02*
X579497Y-56663D01*
X578497Y-54164D02*
X577997Y-53664D01*
X576998D01*
X576498Y-54164D01*
Y-54664D01*
X576998Y-55164D01*
X577497D01*
X576998D01*
X576498Y-55663D01*
Y-56163D01*
X576998Y-56663D01*
X577997D01*
X578497Y-56163D01*
X581496Y-97017D02*
Y-94018D01*
X579996D01*
X579497Y-94518D01*
Y-95518D01*
X579996Y-96018D01*
X581496D01*
X580496D02*
X579497Y-97017D01*
X576998D02*
Y-94018D01*
X578497Y-95518D01*
X576498D01*
X708563Y-41210D02*
Y-38211D01*
X707063D01*
X706564Y-38711D01*
Y-39711D01*
X707063Y-40211D01*
X708563D01*
X707563D02*
X706564Y-41210D01*
X705564Y-38711D02*
X705064Y-38211D01*
X704064D01*
X703565Y-38711D01*
Y-39211D01*
X704064Y-39711D01*
X703565Y-40211D01*
Y-40710D01*
X704064Y-41210D01*
X705064D01*
X705564Y-40710D01*
Y-40211D01*
X705064Y-39711D01*
X705564Y-39211D01*
Y-38711D01*
X705064Y-39711D02*
X704064D01*
X708661Y-118080D02*
Y-115081D01*
X707162D01*
X706662Y-115581D01*
Y-116581D01*
X707162Y-117081D01*
X708661D01*
X707662D02*
X706662Y-118080D01*
X705662Y-117580D02*
X705163Y-118080D01*
X704163D01*
X703663Y-117580D01*
Y-115581D01*
X704163Y-115081D01*
X705163D01*
X705662Y-115581D01*
Y-116081D01*
X705163Y-116581D01*
X703663D01*
X258901Y-2201D02*
X259900D01*
X259401D01*
Y-4700D01*
X259900Y-5200D01*
X260400D01*
X260900Y-4700D01*
X255902Y-5200D02*
X257901D01*
X255902Y-3201D01*
Y-2701D01*
X256401Y-2201D01*
X257401D01*
X257901Y-2701D01*
M02*
