G04 Layer_Color=255*
%FSLAX25Y25*%
%MOIN*%
G70*
G01*
G75*
%ADD11C,0.05575*%
%ADD12R,0.06496X0.06496*%
%ADD13C,0.06496*%
%ADD14C,0.04528*%
%ADD15R,0.04528X0.04528*%
%ADD16C,0.06000*%
%ADD18R,0.03150X0.06890*%
%ADD19R,0.04134X0.05512*%
%ADD20R,0.03740X0.05709*%
%ADD21R,0.05709X0.03740*%
%ADD22R,0.02559X0.08268*%
%ADD23R,0.04921X0.02953*%
%ADD24R,0.05787X0.04016*%
%ADD25R,0.05787X0.03898*%
D11*
X689945Y-86731D02*
D03*
X699945D02*
D03*
X689945Y-63731D02*
D03*
X699945D02*
D03*
X548195Y-95481D02*
D03*
X558195D02*
D03*
X548195Y-54981D02*
D03*
X558195D02*
D03*
D12*
X193800Y-13100D02*
D03*
X272500D02*
D03*
D13*
X203643D02*
D03*
X213485D02*
D03*
X223328D02*
D03*
X302028D02*
D03*
X292185D02*
D03*
X282343D02*
D03*
D14*
X481901Y-45108D02*
D03*
X491901D02*
D03*
X501901D02*
D03*
X511901D02*
D03*
X521901D02*
D03*
Y-105108D02*
D03*
X511901D02*
D03*
X501901D02*
D03*
X491901D02*
D03*
X766192Y-45108D02*
D03*
X776192D02*
D03*
X786192D02*
D03*
X796192D02*
D03*
X806192D02*
D03*
Y-105108D02*
D03*
X796192D02*
D03*
X786192D02*
D03*
X776192D02*
D03*
X432688Y-45108D02*
D03*
X442688D02*
D03*
X452688D02*
D03*
X462688D02*
D03*
X472688D02*
D03*
Y-105108D02*
D03*
X462688D02*
D03*
X452688D02*
D03*
X442688D02*
D03*
X716980Y-45108D02*
D03*
X726979D02*
D03*
X736979D02*
D03*
X746980D02*
D03*
X756980D02*
D03*
Y-105108D02*
D03*
X746980D02*
D03*
X736979D02*
D03*
X726979D02*
D03*
X383476Y-45108D02*
D03*
X393476D02*
D03*
X403476D02*
D03*
X413476D02*
D03*
X423476D02*
D03*
Y-105108D02*
D03*
X413476D02*
D03*
X403476D02*
D03*
X393476D02*
D03*
X334263Y-45108D02*
D03*
X344263D02*
D03*
X354263D02*
D03*
X364263D02*
D03*
X374263D02*
D03*
Y-105108D02*
D03*
X364263D02*
D03*
X354263D02*
D03*
X344263D02*
D03*
X247688Y-45108D02*
D03*
X257688D02*
D03*
X267688D02*
D03*
X277688D02*
D03*
X287688D02*
D03*
Y-105108D02*
D03*
X277688D02*
D03*
X267688D02*
D03*
X257688D02*
D03*
X632688Y-45108D02*
D03*
X642688D02*
D03*
X652688D02*
D03*
X662688D02*
D03*
X672688D02*
D03*
Y-105108D02*
D03*
X662688D02*
D03*
X652688D02*
D03*
X642688D02*
D03*
X198476Y-45108D02*
D03*
X208476D02*
D03*
X218476D02*
D03*
X228476D02*
D03*
X238476D02*
D03*
Y-105108D02*
D03*
X228476D02*
D03*
X218476D02*
D03*
X208476D02*
D03*
X583476Y-45108D02*
D03*
X593476D02*
D03*
X603476D02*
D03*
X613476D02*
D03*
X623476D02*
D03*
Y-105108D02*
D03*
X613476D02*
D03*
X603476D02*
D03*
X593476D02*
D03*
D15*
X481901D02*
D03*
X766192D02*
D03*
X432688D02*
D03*
X716980D02*
D03*
X383476D02*
D03*
X334263D02*
D03*
X247688D02*
D03*
X632688D02*
D03*
X198476D02*
D03*
X583476D02*
D03*
D16*
X97058Y-106013D02*
D03*
X47058Y-44202D02*
D03*
X57058D02*
D03*
X67058D02*
D03*
X77058D02*
D03*
X87058D02*
D03*
X97058D02*
D03*
X107058D02*
D03*
X117058D02*
D03*
X127058D02*
D03*
Y-106013D02*
D03*
X117058D02*
D03*
X107058D02*
D03*
X87058D02*
D03*
X77058D02*
D03*
X67058D02*
D03*
X57058D02*
D03*
X47058D02*
D03*
D18*
X318051Y-93113D02*
D03*
X328051D02*
D03*
X338051D02*
D03*
Y-57287D02*
D03*
X328051D02*
D03*
X318051D02*
D03*
D19*
X700000Y-116400D02*
D03*
X692520D02*
D03*
X699902Y-39734D02*
D03*
X692421D02*
D03*
X565354Y-95442D02*
D03*
X572835D02*
D03*
X565354Y-54981D02*
D03*
X572835D02*
D03*
D20*
X350326Y-76742D02*
D03*
X358200D02*
D03*
X350326Y-68671D02*
D03*
X358200D02*
D03*
X350326Y-60600D02*
D03*
X358200D02*
D03*
D21*
X342300Y-17837D02*
D03*
Y-9963D02*
D03*
X331000Y-17837D02*
D03*
Y-9963D02*
D03*
D22*
X218500Y-56893D02*
D03*
X213500D02*
D03*
X208500D02*
D03*
X203500D02*
D03*
X198500D02*
D03*
X193500D02*
D03*
X188500D02*
D03*
X183500D02*
D03*
X178500D02*
D03*
X173500D02*
D03*
X168500D02*
D03*
X163500D02*
D03*
X158500D02*
D03*
X153500D02*
D03*
Y-93507D02*
D03*
X158500D02*
D03*
X163500D02*
D03*
X168500D02*
D03*
X173500D02*
D03*
X178500D02*
D03*
X183500D02*
D03*
X188500D02*
D03*
X193500D02*
D03*
X198500D02*
D03*
X203500D02*
D03*
X208500D02*
D03*
X213500D02*
D03*
X218500D02*
D03*
D23*
X305118Y-43769D02*
D03*
X318110D02*
D03*
D24*
X233563Y-70738D02*
D03*
Y-77037D02*
D03*
D25*
X226279Y-77116D02*
D03*
Y-70659D02*
D03*
M02*
