G04 Layer_Physical_Order=1*
G04 Layer_Color=255*
%FSLAX25Y25*%
%MOIN*%
G70*
G01*
G75*
%ADD10C,0.01000*%
%ADD11C,0.05575*%
%ADD12R,0.06496X0.06496*%
%ADD13C,0.06496*%
%ADD14C,0.04528*%
%ADD15R,0.04528X0.04528*%
%ADD16C,0.06000*%
%ADD17C,0.03150*%
G36*
X816400Y-150300D02*
X0D01*
Y0D01*
X816400D01*
Y-150300D01*
D02*
G37*
%LPC*%
G36*
X292253Y-2204D02*
X292253Y-2204D01*
X233102D01*
X232673Y-2289D01*
X232309Y-2532D01*
X232309Y-2532D01*
X225151Y-9690D01*
X224332Y-9351D01*
X223328Y-9219D01*
X222323Y-9351D01*
X221387Y-9739D01*
X220583Y-10356D01*
X219966Y-11159D01*
X219579Y-12095D01*
X219446Y-13100D01*
X219579Y-14105D01*
X219966Y-15041D01*
X220456Y-15678D01*
X220288Y-16288D01*
X220027Y-16679D01*
X216785D01*
X216525Y-16288D01*
X216357Y-15678D01*
X216846Y-15041D01*
X217234Y-14105D01*
X217366Y-13100D01*
X217234Y-12095D01*
X216846Y-11159D01*
X216230Y-10356D01*
X215426Y-9739D01*
X214490Y-9351D01*
X213485Y-9219D01*
X212480Y-9351D01*
X211544Y-9739D01*
X210741Y-10356D01*
X210124Y-11159D01*
X209736Y-12095D01*
X209604Y-13100D01*
X209736Y-14105D01*
X210124Y-15041D01*
X210613Y-15678D01*
X210445Y-16288D01*
X210185Y-16679D01*
X206943D01*
X206682Y-16288D01*
X206514Y-15678D01*
X207004Y-15041D01*
X207392Y-14105D01*
X207524Y-13100D01*
X207392Y-12095D01*
X207004Y-11159D01*
X206387Y-10356D01*
X205583Y-9739D01*
X204647Y-9351D01*
X203643Y-9219D01*
X202638Y-9351D01*
X201702Y-9739D01*
X200898Y-10356D01*
X200281Y-11159D01*
X199893Y-12095D01*
X199761Y-13100D01*
X199893Y-14105D01*
X200281Y-15041D01*
X200771Y-15678D01*
X200603Y-16288D01*
X200342Y-16679D01*
X198048D01*
Y-13600D01*
X189552D01*
Y-16679D01*
X165366D01*
X165068Y-16232D01*
X164349Y-15751D01*
X163500Y-15583D01*
X162651Y-15751D01*
X161932Y-16232D01*
X161634Y-16679D01*
X78925D01*
X78626Y-16232D01*
X77907Y-15751D01*
X77058Y-15583D01*
X76210Y-15751D01*
X75490Y-16232D01*
X75010Y-16951D01*
X74841Y-17800D01*
X75010Y-18649D01*
X75490Y-19368D01*
X76210Y-19849D01*
X77058Y-20017D01*
X77907Y-19849D01*
X78626Y-19368D01*
X78925Y-18922D01*
X161634D01*
X161932Y-19368D01*
X162651Y-19849D01*
X163500Y-20017D01*
X164349Y-19849D01*
X165053Y-19378D01*
X165086Y-19370D01*
X165607Y-19442D01*
X166294Y-20442D01*
X166283Y-20500D01*
X166398Y-21078D01*
X165955Y-21855D01*
X165736Y-22079D01*
X139966D01*
X139668Y-21632D01*
X138949Y-21151D01*
X138100Y-20983D01*
X137251Y-21151D01*
X136532Y-21632D01*
X136051Y-22351D01*
X135883Y-23200D01*
X136051Y-24049D01*
X136532Y-24768D01*
X137251Y-25249D01*
X138100Y-25417D01*
X138474Y-25343D01*
X139275Y-25834D01*
X139422Y-26096D01*
X139498Y-26478D01*
X139055Y-27255D01*
X138836Y-27478D01*
X128925D01*
X128626Y-27032D01*
X127907Y-26551D01*
X127058Y-26383D01*
X126210Y-26551D01*
X125490Y-27032D01*
X125010Y-27751D01*
X124841Y-28600D01*
X124956Y-29178D01*
X124513Y-29955D01*
X124295Y-30178D01*
X108924D01*
X108626Y-29732D01*
X107907Y-29251D01*
X107058Y-29083D01*
X106210Y-29251D01*
X105490Y-29732D01*
X105010Y-30451D01*
X104841Y-31300D01*
X104956Y-31878D01*
X104514Y-32655D01*
X104295Y-32878D01*
X56837D01*
X56837Y-32878D01*
X56408Y-32964D01*
X56044Y-33207D01*
X56044Y-33207D01*
X48393Y-40859D01*
X47998Y-40695D01*
X47058Y-40571D01*
X46119Y-40695D01*
X45243Y-41058D01*
X44491Y-41635D01*
X43914Y-42387D01*
X43551Y-43263D01*
X43427Y-44202D01*
X43551Y-45142D01*
X43914Y-46018D01*
X44491Y-46770D01*
X45243Y-47347D01*
X46119Y-47710D01*
X47058Y-47833D01*
X47998Y-47710D01*
X48874Y-47347D01*
X49626Y-46770D01*
X50203Y-46018D01*
X50566Y-45142D01*
X50689Y-44202D01*
X50566Y-43263D01*
X50203Y-42387D01*
X50131Y-42293D01*
X57302Y-35122D01*
X103482D01*
X103791Y-36059D01*
X103792Y-36122D01*
X98861Y-41053D01*
X97998Y-40695D01*
X97058Y-40571D01*
X96118Y-40695D01*
X95243Y-41058D01*
X94491Y-41635D01*
X93914Y-42387D01*
X93551Y-43263D01*
X93427Y-44202D01*
X93551Y-45142D01*
X93914Y-46018D01*
X94491Y-46770D01*
X95243Y-47347D01*
X96118Y-47710D01*
X97058Y-47833D01*
X97998Y-47710D01*
X98874Y-47347D01*
X99626Y-46770D01*
X100203Y-46018D01*
X100566Y-45142D01*
X100689Y-44202D01*
X100566Y-43263D01*
X100348Y-42738D01*
X105065Y-38022D01*
X157843D01*
X158424Y-39022D01*
X158314Y-39575D01*
X158483Y-40423D01*
X158964Y-41143D01*
X159683Y-41623D01*
X160531Y-41792D01*
X161380Y-41623D01*
X162100Y-41143D01*
X162398Y-40696D01*
X570885D01*
X571267Y-41268D01*
X571986Y-41749D01*
X572835Y-41917D01*
X573683Y-41749D01*
X574403Y-41268D01*
X574785Y-40696D01*
X681197D01*
X681601Y-41302D01*
X682321Y-41783D01*
X683169Y-41951D01*
X684018Y-41783D01*
X684737Y-41302D01*
X685218Y-40582D01*
X685387Y-39734D01*
X685245Y-39022D01*
X685374Y-38670D01*
X685844Y-38022D01*
X708640D01*
X714421Y-43802D01*
X714189Y-44360D01*
X714091Y-45108D01*
X714189Y-45856D01*
X714478Y-46552D01*
X714937Y-47150D01*
X715535Y-47609D01*
X716232Y-47898D01*
X716980Y-47996D01*
X717727Y-47898D01*
X718424Y-47609D01*
X719022Y-47150D01*
X719481Y-46552D01*
X719770Y-45856D01*
X719868Y-45108D01*
X719770Y-44360D01*
X719481Y-43664D01*
X719022Y-43065D01*
X718424Y-42606D01*
X717727Y-42318D01*
X716980Y-42219D01*
X716232Y-42318D01*
X716145Y-42354D01*
X709913Y-36122D01*
X709914Y-36059D01*
X710223Y-35122D01*
X715740D01*
X724421Y-43802D01*
X724190Y-44360D01*
X724091Y-45108D01*
X724190Y-45856D01*
X724478Y-46552D01*
X724937Y-47150D01*
X725535Y-47609D01*
X726232Y-47898D01*
X726979Y-47996D01*
X727727Y-47898D01*
X728424Y-47609D01*
X729022Y-47150D01*
X729481Y-46552D01*
X729770Y-45856D01*
X729868Y-45108D01*
X729770Y-44360D01*
X729481Y-43664D01*
X729022Y-43065D01*
X728424Y-42606D01*
X727727Y-42318D01*
X726979Y-42219D01*
X726232Y-42318D01*
X726145Y-42354D01*
X717213Y-33422D01*
X717470Y-32576D01*
X717585Y-32422D01*
X733041D01*
X744421Y-43802D01*
X744190Y-44360D01*
X744091Y-45108D01*
X744190Y-45856D01*
X744478Y-46552D01*
X744937Y-47150D01*
X745535Y-47609D01*
X746232Y-47898D01*
X746980Y-47996D01*
X747727Y-47898D01*
X748424Y-47609D01*
X749022Y-47150D01*
X749481Y-46552D01*
X749770Y-45856D01*
X749868Y-45108D01*
X749770Y-44360D01*
X749481Y-43664D01*
X749022Y-43065D01*
X748424Y-42606D01*
X747727Y-42318D01*
X746980Y-42219D01*
X746232Y-42318D01*
X746145Y-42354D01*
X734513Y-30722D01*
X734769Y-29876D01*
X734885Y-29722D01*
X740341D01*
X754421Y-43802D01*
X754189Y-44360D01*
X754091Y-45108D01*
X754189Y-45856D01*
X754478Y-46552D01*
X754937Y-47150D01*
X755535Y-47609D01*
X756232Y-47898D01*
X756980Y-47996D01*
X757727Y-47898D01*
X758424Y-47609D01*
X759022Y-47150D01*
X759481Y-46552D01*
X759770Y-45856D01*
X759868Y-45108D01*
X759770Y-44360D01*
X759481Y-43664D01*
X759022Y-43065D01*
X758424Y-42606D01*
X757727Y-42318D01*
X756980Y-42219D01*
X756232Y-42318D01*
X756145Y-42354D01*
X741813Y-28022D01*
X742069Y-27176D01*
X742184Y-27022D01*
X746164D01*
X763432Y-44289D01*
X763402Y-44360D01*
X763304Y-45108D01*
X763402Y-45856D01*
X763691Y-46552D01*
X764150Y-47150D01*
X764748Y-47609D01*
X765445Y-47898D01*
X766192Y-47996D01*
X766940Y-47898D01*
X767636Y-47609D01*
X768235Y-47150D01*
X768694Y-46552D01*
X768982Y-45856D01*
X769081Y-45108D01*
X768982Y-44360D01*
X768694Y-43664D01*
X768235Y-43065D01*
X767636Y-42606D01*
X766940Y-42318D01*
X766192Y-42219D01*
X765445Y-42318D01*
X764870Y-42556D01*
X747636Y-25321D01*
X747893Y-24476D01*
X748008Y-24321D01*
X753464D01*
X773432Y-44289D01*
X773402Y-44360D01*
X773304Y-45108D01*
X773402Y-45856D01*
X773691Y-46552D01*
X774150Y-47150D01*
X774748Y-47609D01*
X775445Y-47898D01*
X776192Y-47996D01*
X776940Y-47898D01*
X777636Y-47609D01*
X778235Y-47150D01*
X778694Y-46552D01*
X778982Y-45856D01*
X779081Y-45108D01*
X778982Y-44360D01*
X778694Y-43664D01*
X778235Y-43065D01*
X777636Y-42606D01*
X776940Y-42318D01*
X776192Y-42219D01*
X775445Y-42318D01*
X774870Y-42556D01*
X754936Y-22622D01*
X755193Y-21776D01*
X755308Y-21621D01*
X770764D01*
X793432Y-44289D01*
X793402Y-44360D01*
X793304Y-45108D01*
X793402Y-45856D01*
X793691Y-46552D01*
X794150Y-47150D01*
X794748Y-47609D01*
X795444Y-47898D01*
X796192Y-47996D01*
X796940Y-47898D01*
X797636Y-47609D01*
X798235Y-47150D01*
X798694Y-46552D01*
X798982Y-45856D01*
X799081Y-45108D01*
X798982Y-44360D01*
X798694Y-43664D01*
X798235Y-43065D01*
X797636Y-42606D01*
X796940Y-42318D01*
X796192Y-42219D01*
X795444Y-42318D01*
X794870Y-42556D01*
X772236Y-19921D01*
X772493Y-19076D01*
X772608Y-18922D01*
X778064D01*
X803432Y-44289D01*
X803402Y-44360D01*
X803304Y-45108D01*
X803402Y-45856D01*
X803691Y-46552D01*
X804150Y-47150D01*
X804748Y-47609D01*
X805445Y-47898D01*
X806192Y-47996D01*
X806940Y-47898D01*
X807636Y-47609D01*
X808235Y-47150D01*
X808694Y-46552D01*
X808982Y-45856D01*
X809081Y-45108D01*
X808982Y-44360D01*
X808694Y-43664D01*
X808235Y-43065D01*
X807636Y-42606D01*
X806940Y-42318D01*
X806192Y-42219D01*
X805445Y-42318D01*
X804870Y-42556D01*
X779543Y-17228D01*
X779937Y-16262D01*
X780833Y-16350D01*
X782069Y-16228D01*
X783259Y-15867D01*
X784355Y-15282D01*
X785315Y-14493D01*
X786103Y-13533D01*
X786689Y-12437D01*
X787050Y-11248D01*
X787172Y-10011D01*
X787050Y-8774D01*
X786689Y-7585D01*
X786103Y-6489D01*
X785315Y-5528D01*
X784355Y-4740D01*
X783259Y-4154D01*
X782069Y-3793D01*
X780833Y-3672D01*
X779596Y-3793D01*
X778407Y-4154D01*
X777311Y-4740D01*
X776350Y-5528D01*
X775562Y-6489D01*
X774976Y-7585D01*
X774615Y-8774D01*
X774494Y-10011D01*
X774615Y-11248D01*
X774976Y-12437D01*
X775562Y-13533D01*
X776350Y-14493D01*
X777311Y-15282D01*
X778053Y-15678D01*
X777803Y-16679D01*
X674554D01*
X674256Y-16232D01*
X673537Y-15751D01*
X672688Y-15583D01*
X671840Y-15751D01*
X671120Y-16232D01*
X670822Y-16679D01*
X523834D01*
X523469Y-16132D01*
X522749Y-15651D01*
X521901Y-15483D01*
X521052Y-15651D01*
X520333Y-16132D01*
X519968Y-16679D01*
X425342D01*
X425043Y-16232D01*
X424324Y-15751D01*
X423476Y-15583D01*
X422627Y-15751D01*
X421908Y-16232D01*
X421609Y-16679D01*
X411225D01*
X410974Y-15678D01*
X411717Y-15282D01*
X412677Y-14493D01*
X413466Y-13533D01*
X414051Y-12437D01*
X414412Y-11248D01*
X414534Y-10011D01*
X414412Y-8774D01*
X414051Y-7585D01*
X413466Y-6489D01*
X412677Y-5528D01*
X411717Y-4740D01*
X410621Y-4154D01*
X409432Y-3793D01*
X408195Y-3672D01*
X406958Y-3793D01*
X405769Y-4154D01*
X404673Y-4740D01*
X403712Y-5528D01*
X402924Y-6489D01*
X402338Y-7585D01*
X401977Y-8774D01*
X401856Y-10011D01*
X401977Y-11248D01*
X402338Y-12437D01*
X402924Y-13533D01*
X403712Y-14493D01*
X404673Y-15282D01*
X405415Y-15678D01*
X405165Y-16679D01*
X305328D01*
X305067Y-16288D01*
X304899Y-15678D01*
X305389Y-15041D01*
X305777Y-14105D01*
X305909Y-13100D01*
X305777Y-12095D01*
X305389Y-11159D01*
X304772Y-10356D01*
X303968Y-9739D01*
X303032Y-9351D01*
X302028Y-9219D01*
X301023Y-9351D01*
X300204Y-9690D01*
X293046Y-2532D01*
X292682Y-2289D01*
X292253Y-2204D01*
D02*
G37*
G36*
X198048Y-8852D02*
X194300D01*
Y-12600D01*
X198048D01*
Y-8852D01*
D02*
G37*
G36*
X193300D02*
X189552D01*
Y-12600D01*
X193300D01*
Y-8852D01*
D02*
G37*
G36*
X35557Y-3672D02*
X34320Y-3793D01*
X33131Y-4154D01*
X32035Y-4740D01*
X31075Y-5528D01*
X30286Y-6489D01*
X29700Y-7585D01*
X29340Y-8774D01*
X29218Y-10011D01*
X29340Y-11248D01*
X29700Y-12437D01*
X30286Y-13533D01*
X31075Y-14493D01*
X32035Y-15282D01*
X33131Y-15867D01*
X34320Y-16228D01*
X35557Y-16350D01*
X36794Y-16228D01*
X37983Y-15867D01*
X39079Y-15282D01*
X40040Y-14493D01*
X40828Y-13533D01*
X41414Y-12437D01*
X41774Y-11248D01*
X41896Y-10011D01*
X41774Y-8774D01*
X41414Y-7585D01*
X40828Y-6489D01*
X40040Y-5528D01*
X39079Y-4740D01*
X37983Y-4154D01*
X36794Y-3793D01*
X35557Y-3672D01*
D02*
G37*
G36*
X188689Y-44781D02*
Y-46813D01*
X190720D01*
X190698Y-46640D01*
X190438Y-46014D01*
X190025Y-45476D01*
X189488Y-45063D01*
X188861Y-44804D01*
X188689Y-44781D01*
D02*
G37*
G36*
X187689D02*
X187517Y-44804D01*
X186890Y-45063D01*
X186353Y-45476D01*
X185940Y-46014D01*
X185680Y-46640D01*
X185658Y-46813D01*
X187689D01*
Y-44781D01*
D02*
G37*
G36*
X127058Y-40571D02*
X126119Y-40695D01*
X125243Y-41058D01*
X124491Y-41635D01*
X123914Y-42387D01*
X123551Y-43263D01*
X123427Y-44202D01*
X123551Y-45142D01*
X123914Y-46018D01*
X124491Y-46770D01*
X125243Y-47347D01*
X126119Y-47710D01*
X127058Y-47833D01*
X127998Y-47710D01*
X128874Y-47347D01*
X129626Y-46770D01*
X130203Y-46018D01*
X130566Y-45142D01*
X130689Y-44202D01*
X130566Y-43263D01*
X130203Y-42387D01*
X129626Y-41635D01*
X128874Y-41058D01*
X127998Y-40695D01*
X127058Y-40571D01*
D02*
G37*
G36*
X107058D02*
X106119Y-40695D01*
X105243Y-41058D01*
X104491Y-41635D01*
X103914Y-42387D01*
X103551Y-43263D01*
X103427Y-44202D01*
X103551Y-45142D01*
X103914Y-46018D01*
X104491Y-46770D01*
X105243Y-47347D01*
X106119Y-47710D01*
X107058Y-47833D01*
X107998Y-47710D01*
X108874Y-47347D01*
X109626Y-46770D01*
X110203Y-46018D01*
X110566Y-45142D01*
X110689Y-44202D01*
X110566Y-43263D01*
X110203Y-42387D01*
X109626Y-41635D01*
X108874Y-41058D01*
X107998Y-40695D01*
X107058Y-40571D01*
D02*
G37*
G36*
X77058D02*
X76118Y-40695D01*
X75243Y-41058D01*
X74491Y-41635D01*
X73914Y-42387D01*
X73551Y-43263D01*
X73427Y-44202D01*
X73551Y-45142D01*
X73914Y-46018D01*
X74491Y-46770D01*
X75243Y-47347D01*
X76118Y-47710D01*
X77058Y-47833D01*
X77998Y-47710D01*
X78874Y-47347D01*
X79626Y-46770D01*
X80203Y-46018D01*
X80566Y-45142D01*
X80689Y-44202D01*
X80566Y-43263D01*
X80203Y-42387D01*
X79626Y-41635D01*
X78874Y-41058D01*
X77998Y-40695D01*
X77058Y-40571D01*
D02*
G37*
G36*
X736979Y-42219D02*
X736232Y-42318D01*
X735535Y-42606D01*
X734937Y-43065D01*
X734478Y-43664D01*
X734190Y-44360D01*
X734091Y-45108D01*
X734190Y-45856D01*
X734478Y-46552D01*
X734937Y-47150D01*
X735535Y-47609D01*
X736232Y-47898D01*
X736979Y-47996D01*
X737727Y-47898D01*
X738424Y-47609D01*
X739022Y-47150D01*
X739481Y-46552D01*
X739770Y-45856D01*
X739868Y-45108D01*
X739770Y-44360D01*
X739481Y-43664D01*
X739022Y-43065D01*
X738424Y-42606D01*
X737727Y-42318D01*
X736979Y-42219D01*
D02*
G37*
G36*
X672688D02*
X671941Y-42318D01*
X671244Y-42606D01*
X670646Y-43065D01*
X670187Y-43664D01*
X669898Y-44360D01*
X669800Y-45108D01*
X669898Y-45856D01*
X670187Y-46552D01*
X670646Y-47150D01*
X671244Y-47609D01*
X671941Y-47898D01*
X672688Y-47996D01*
X673436Y-47898D01*
X674132Y-47609D01*
X674731Y-47150D01*
X675190Y-46552D01*
X675478Y-45856D01*
X675577Y-45108D01*
X675478Y-44360D01*
X675190Y-43664D01*
X674731Y-43065D01*
X674132Y-42606D01*
X673436Y-42318D01*
X672688Y-42219D01*
D02*
G37*
G36*
X662688D02*
X661941Y-42318D01*
X661244Y-42606D01*
X660646Y-43065D01*
X660187Y-43664D01*
X659898Y-44360D01*
X659800Y-45108D01*
X659898Y-45856D01*
X660187Y-46552D01*
X660646Y-47150D01*
X661244Y-47609D01*
X661941Y-47898D01*
X662688Y-47996D01*
X663436Y-47898D01*
X664132Y-47609D01*
X664731Y-47150D01*
X665190Y-46552D01*
X665478Y-45856D01*
X665577Y-45108D01*
X665478Y-44360D01*
X665190Y-43664D01*
X664731Y-43065D01*
X664132Y-42606D01*
X663436Y-42318D01*
X662688Y-42219D01*
D02*
G37*
G36*
X786192D02*
X785444Y-42318D01*
X784748Y-42606D01*
X784150Y-43065D01*
X783691Y-43664D01*
X783402Y-44360D01*
X783304Y-45108D01*
X783402Y-45856D01*
X783432Y-45927D01*
X747636Y-81723D01*
X675456D01*
X675027Y-81808D01*
X674663Y-82051D01*
X674663Y-82051D01*
X672821Y-83893D01*
X672791Y-83886D01*
X672472Y-82791D01*
X688474Y-66789D01*
X689061Y-67032D01*
X689945Y-67148D01*
X690829Y-67032D01*
X691653Y-66690D01*
X692361Y-66147D01*
X692904Y-65440D01*
X693245Y-64616D01*
X693362Y-63731D01*
X693245Y-62847D01*
X692904Y-62023D01*
X692361Y-61316D01*
X691653Y-60773D01*
X690829Y-60431D01*
X689945Y-60315D01*
X689061Y-60431D01*
X688237Y-60773D01*
X687529Y-61316D01*
X686986Y-62023D01*
X686645Y-62847D01*
X686528Y-63731D01*
X686645Y-64616D01*
X686888Y-65203D01*
X670412Y-81678D01*
X618659D01*
X618350Y-80741D01*
X618348Y-80678D01*
X651367Y-47660D01*
X651941Y-47898D01*
X652688Y-47996D01*
X653436Y-47898D01*
X654132Y-47609D01*
X654731Y-47150D01*
X655190Y-46552D01*
X655478Y-45856D01*
X655577Y-45108D01*
X655478Y-44360D01*
X655190Y-43664D01*
X654731Y-43065D01*
X654132Y-42606D01*
X653436Y-42318D01*
X652688Y-42219D01*
X651941Y-42318D01*
X651244Y-42606D01*
X650646Y-43065D01*
X650187Y-43664D01*
X649898Y-44360D01*
X649800Y-45108D01*
X649898Y-45856D01*
X649928Y-45927D01*
X617076Y-78778D01*
X527356D01*
X527241Y-78624D01*
X526984Y-77778D01*
X546724Y-58039D01*
X547311Y-58282D01*
X548195Y-58398D01*
X549079Y-58282D01*
X549903Y-57940D01*
X550611Y-57397D01*
X551154Y-56690D01*
X551495Y-55866D01*
X551612Y-54981D01*
X551495Y-54097D01*
X551154Y-53273D01*
X550611Y-52566D01*
X549903Y-52023D01*
X549079Y-51681D01*
X548195Y-51565D01*
X547311Y-51681D01*
X546487Y-52023D01*
X545779Y-52566D01*
X545236Y-53273D01*
X544895Y-54097D01*
X544778Y-54981D01*
X544895Y-55866D01*
X545138Y-56453D01*
X525712Y-75878D01*
X472983D01*
X472673Y-74941D01*
X472672Y-74878D01*
X500165Y-47385D01*
X500456Y-47609D01*
X501153Y-47898D01*
X501901Y-47996D01*
X502648Y-47898D01*
X503345Y-47609D01*
X503943Y-47150D01*
X504402Y-46552D01*
X504691Y-45856D01*
X504789Y-45108D01*
X504691Y-44360D01*
X504402Y-43664D01*
X503943Y-43065D01*
X503345Y-42606D01*
X502648Y-42318D01*
X501901Y-42219D01*
X501153Y-42318D01*
X500456Y-42606D01*
X499858Y-43065D01*
X499399Y-43664D01*
X499111Y-44360D01*
X499012Y-45108D01*
X499042Y-45336D01*
X471400Y-72978D01*
X304619D01*
X304072Y-72160D01*
X304037Y-71978D01*
X304186Y-71230D01*
X304017Y-70381D01*
X303537Y-69662D01*
X302817Y-69181D01*
X301969Y-69012D01*
X301217Y-68300D01*
X301049Y-67451D01*
X300568Y-66732D01*
X299849Y-66251D01*
X299083Y-66099D01*
X299000Y-66083D01*
X298280Y-65400D01*
X298112Y-64551D01*
X297631Y-63832D01*
X296912Y-63351D01*
X296063Y-63183D01*
X296063Y-63183D01*
X295145Y-62670D01*
X294976Y-61822D01*
X294496Y-61102D01*
X293776Y-60622D01*
X292928Y-60453D01*
X292079Y-60622D01*
X291360Y-61102D01*
X291061Y-61549D01*
X285359D01*
X270240Y-46430D01*
X270478Y-45856D01*
X270577Y-45108D01*
X270478Y-44360D01*
X270190Y-43664D01*
X269731Y-43065D01*
X269132Y-42606D01*
X268436Y-42318D01*
X267688Y-42219D01*
X266941Y-42318D01*
X266244Y-42606D01*
X265646Y-43065D01*
X265187Y-43664D01*
X264898Y-44360D01*
X264800Y-45108D01*
X264898Y-45856D01*
X264928Y-45927D01*
X263376Y-47478D01*
X260739D01*
X260190Y-46552D01*
X260478Y-45856D01*
X260577Y-45108D01*
X260478Y-44360D01*
X260190Y-43664D01*
X259731Y-43065D01*
X259132Y-42606D01*
X258436Y-42318D01*
X257688Y-42219D01*
X256941Y-42318D01*
X256244Y-42606D01*
X255646Y-43065D01*
X255187Y-43664D01*
X254898Y-44360D01*
X254800Y-45108D01*
X254898Y-45856D01*
X255187Y-46552D01*
X254637Y-47478D01*
X250739D01*
X250190Y-46552D01*
X250478Y-45856D01*
X250577Y-45108D01*
X250478Y-44360D01*
X250190Y-43664D01*
X249731Y-43065D01*
X249132Y-42606D01*
X248436Y-42318D01*
X247688Y-42219D01*
X246941Y-42318D01*
X246244Y-42606D01*
X245646Y-43065D01*
X245187Y-43664D01*
X244898Y-44360D01*
X244800Y-45108D01*
X244898Y-45856D01*
X245187Y-46552D01*
X244637Y-47478D01*
X241527D01*
X240977Y-46552D01*
X241266Y-45856D01*
X241364Y-45108D01*
X241266Y-44360D01*
X240977Y-43664D01*
X240518Y-43065D01*
X239920Y-42606D01*
X239223Y-42318D01*
X238476Y-42219D01*
X237728Y-42318D01*
X237031Y-42606D01*
X236433Y-43065D01*
X235974Y-43664D01*
X235685Y-44360D01*
X235587Y-45108D01*
X235685Y-45856D01*
X235974Y-46552D01*
X235424Y-47478D01*
X231527D01*
X230977Y-46552D01*
X231266Y-45856D01*
X231364Y-45108D01*
X231266Y-44360D01*
X230977Y-43664D01*
X230518Y-43065D01*
X229920Y-42606D01*
X229223Y-42318D01*
X228476Y-42219D01*
X227728Y-42318D01*
X227031Y-42606D01*
X226433Y-43065D01*
X225974Y-43664D01*
X225686Y-44360D01*
X225587Y-45108D01*
X225686Y-45856D01*
X225974Y-46552D01*
X225424Y-47478D01*
X222766D01*
X221230Y-45942D01*
X221266Y-45856D01*
X221364Y-45108D01*
X221266Y-44360D01*
X220977Y-43664D01*
X220518Y-43065D01*
X219920Y-42606D01*
X219223Y-42318D01*
X218476Y-42219D01*
X217728Y-42318D01*
X217031Y-42606D01*
X216433Y-43065D01*
X215974Y-43664D01*
X215686Y-44360D01*
X215587Y-45108D01*
X215686Y-45856D01*
X215974Y-46552D01*
X216433Y-47150D01*
X217031Y-47609D01*
X217728Y-47898D01*
X218476Y-47996D01*
X219223Y-47898D01*
X219782Y-47667D01*
X221508Y-49393D01*
X221508Y-49393D01*
X221872Y-49636D01*
X222301Y-49722D01*
X222301Y-49722D01*
X263841D01*
X263841Y-49722D01*
X264270Y-49636D01*
X264634Y-49393D01*
X266367Y-47660D01*
X266941Y-47898D01*
X267688Y-47996D01*
X268436Y-47898D01*
X268507Y-47868D01*
X283917Y-63278D01*
X283729Y-64000D01*
X283535Y-64278D01*
X185366D01*
X185068Y-63832D01*
X184349Y-63351D01*
X183500Y-63183D01*
X182651Y-63351D01*
X181932Y-63832D01*
X181451Y-64551D01*
X181283Y-65400D01*
X181451Y-66249D01*
X181932Y-66968D01*
X182651Y-67449D01*
X183500Y-67617D01*
X184349Y-67449D01*
X185014Y-67004D01*
X185100Y-66970D01*
X185666Y-67013D01*
X186347Y-67978D01*
X186283Y-68300D01*
X186451Y-69149D01*
X186932Y-69868D01*
X187651Y-70349D01*
X188500Y-70517D01*
X189349Y-70349D01*
X190068Y-69868D01*
X190620Y-69897D01*
X190779Y-70003D01*
X191372Y-70850D01*
X191283Y-71300D01*
X191451Y-72149D01*
X191932Y-72868D01*
X192651Y-73349D01*
X193500Y-73517D01*
X194349Y-73349D01*
X195068Y-72868D01*
X195433Y-72322D01*
X200870D01*
X201433Y-73222D01*
X201437Y-73322D01*
X201283Y-74100D01*
X201437Y-74878D01*
X201433Y-74978D01*
X200870Y-75878D01*
X195166D01*
X194868Y-75432D01*
X194149Y-74951D01*
X193300Y-74783D01*
X192451Y-74951D01*
X191732Y-75432D01*
X191251Y-76151D01*
X191083Y-77000D01*
X191251Y-77849D01*
X191732Y-78568D01*
X192451Y-79049D01*
X193300Y-79217D01*
X194149Y-79049D01*
X194868Y-78568D01*
X195166Y-78122D01*
X206070D01*
X206633Y-79022D01*
X206637Y-79122D01*
X206483Y-79900D01*
X206637Y-80678D01*
X206633Y-80778D01*
X206070Y-81678D01*
X200366D01*
X200068Y-81232D01*
X199349Y-80751D01*
X198500Y-80583D01*
X197651Y-80751D01*
X196932Y-81232D01*
X196451Y-81951D01*
X196283Y-82800D01*
X196451Y-83649D01*
X196932Y-84368D01*
X197651Y-84849D01*
X198500Y-85017D01*
X199349Y-84849D01*
X200068Y-84368D01*
X200366Y-83922D01*
X210870D01*
X211433Y-84822D01*
X211437Y-84922D01*
X211283Y-85700D01*
X211451Y-86549D01*
X211932Y-87268D01*
X212651Y-87749D01*
X213500Y-87917D01*
X214349Y-87749D01*
X215068Y-87268D01*
X215366Y-86822D01*
X303252D01*
X303550Y-87268D01*
X304270Y-87749D01*
X305118Y-87917D01*
X305967Y-87749D01*
X306686Y-87268D01*
X306984Y-86822D01*
X672600D01*
X672600Y-86822D01*
X673029Y-86736D01*
X673393Y-86493D01*
X675920Y-83966D01*
X686537D01*
X687030Y-84966D01*
X686986Y-85023D01*
X686645Y-85847D01*
X686528Y-86731D01*
X686645Y-87616D01*
X686986Y-88440D01*
X687529Y-89147D01*
X688237Y-89690D01*
X689061Y-90032D01*
X689945Y-90148D01*
X690829Y-90032D01*
X691653Y-89690D01*
X692361Y-89147D01*
X692904Y-88440D01*
X693245Y-87616D01*
X693362Y-86731D01*
X693245Y-85847D01*
X692904Y-85023D01*
X692860Y-84966D01*
X693353Y-83966D01*
X696537D01*
X697030Y-84966D01*
X696986Y-85023D01*
X696645Y-85847D01*
X696528Y-86731D01*
X696645Y-87616D01*
X696986Y-88440D01*
X697529Y-89147D01*
X698237Y-89690D01*
X699061Y-90032D01*
X699945Y-90148D01*
X700829Y-90032D01*
X701653Y-89690D01*
X702361Y-89147D01*
X702904Y-88440D01*
X703245Y-87616D01*
X703362Y-86731D01*
X703245Y-85847D01*
X702904Y-85023D01*
X702860Y-84966D01*
X703353Y-83966D01*
X748100D01*
X748100Y-83966D01*
X748530Y-83880D01*
X748893Y-83637D01*
X784870Y-47660D01*
X785444Y-47898D01*
X786192Y-47996D01*
X786940Y-47898D01*
X787636Y-47609D01*
X788235Y-47150D01*
X788694Y-46552D01*
X788982Y-45856D01*
X789081Y-45108D01*
X788982Y-44360D01*
X788694Y-43664D01*
X788235Y-43065D01*
X787636Y-42606D01*
X786940Y-42318D01*
X786192Y-42219D01*
D02*
G37*
G36*
X642688D02*
X641941Y-42318D01*
X641244Y-42606D01*
X640646Y-43065D01*
X640187Y-43664D01*
X639898Y-44360D01*
X639800Y-45108D01*
X639898Y-45856D01*
X640187Y-46552D01*
X640646Y-47150D01*
X641244Y-47609D01*
X641941Y-47898D01*
X642688Y-47996D01*
X643436Y-47898D01*
X644132Y-47609D01*
X644731Y-47150D01*
X645190Y-46552D01*
X645478Y-45856D01*
X645577Y-45108D01*
X645478Y-44360D01*
X645190Y-43664D01*
X644731Y-43065D01*
X644132Y-42606D01*
X643436Y-42318D01*
X642688Y-42219D01*
D02*
G37*
G36*
X632688D02*
X631941Y-42318D01*
X631244Y-42606D01*
X630646Y-43065D01*
X630187Y-43664D01*
X629898Y-44360D01*
X629800Y-45108D01*
X629898Y-45856D01*
X630187Y-46552D01*
X630646Y-47150D01*
X631244Y-47609D01*
X631941Y-47898D01*
X632688Y-47996D01*
X633436Y-47898D01*
X634132Y-47609D01*
X634731Y-47150D01*
X635190Y-46552D01*
X635478Y-45856D01*
X635577Y-45108D01*
X635478Y-44360D01*
X635190Y-43664D01*
X634731Y-43065D01*
X634132Y-42606D01*
X633436Y-42318D01*
X632688Y-42219D01*
D02*
G37*
G36*
X623476D02*
X622728Y-42318D01*
X622031Y-42606D01*
X621433Y-43065D01*
X620974Y-43664D01*
X620685Y-44360D01*
X620587Y-45108D01*
X620685Y-45856D01*
X620974Y-46552D01*
X621433Y-47150D01*
X622031Y-47609D01*
X622728Y-47898D01*
X623476Y-47996D01*
X624223Y-47898D01*
X624920Y-47609D01*
X625518Y-47150D01*
X625977Y-46552D01*
X626266Y-45856D01*
X626364Y-45108D01*
X626266Y-44360D01*
X625977Y-43664D01*
X625518Y-43065D01*
X624920Y-42606D01*
X624223Y-42318D01*
X623476Y-42219D01*
D02*
G37*
G36*
X613476D02*
X612728Y-42318D01*
X612031Y-42606D01*
X611433Y-43065D01*
X610974Y-43664D01*
X610685Y-44360D01*
X610587Y-45108D01*
X610685Y-45856D01*
X610974Y-46552D01*
X611433Y-47150D01*
X612031Y-47609D01*
X612728Y-47898D01*
X613476Y-47996D01*
X614223Y-47898D01*
X614920Y-47609D01*
X615518Y-47150D01*
X615977Y-46552D01*
X616266Y-45856D01*
X616364Y-45108D01*
X616266Y-44360D01*
X615977Y-43664D01*
X615518Y-43065D01*
X614920Y-42606D01*
X614223Y-42318D01*
X613476Y-42219D01*
D02*
G37*
G36*
X603476D02*
X602728Y-42318D01*
X602031Y-42606D01*
X601433Y-43065D01*
X600974Y-43664D01*
X600686Y-44360D01*
X600587Y-45108D01*
X600686Y-45856D01*
X600974Y-46552D01*
X601433Y-47150D01*
X602031Y-47609D01*
X602728Y-47898D01*
X603476Y-47996D01*
X604223Y-47898D01*
X604920Y-47609D01*
X605518Y-47150D01*
X605977Y-46552D01*
X606266Y-45856D01*
X606364Y-45108D01*
X606266Y-44360D01*
X605977Y-43664D01*
X605518Y-43065D01*
X604920Y-42606D01*
X604223Y-42318D01*
X603476Y-42219D01*
D02*
G37*
G36*
X593476D02*
X592728Y-42318D01*
X592031Y-42606D01*
X591433Y-43065D01*
X590974Y-43664D01*
X590686Y-44360D01*
X590587Y-45108D01*
X590686Y-45856D01*
X590974Y-46552D01*
X591433Y-47150D01*
X592031Y-47609D01*
X592728Y-47898D01*
X593476Y-47996D01*
X594223Y-47898D01*
X594920Y-47609D01*
X595518Y-47150D01*
X595977Y-46552D01*
X596266Y-45856D01*
X596364Y-45108D01*
X596266Y-44360D01*
X595977Y-43664D01*
X595518Y-43065D01*
X594920Y-42606D01*
X594223Y-42318D01*
X593476Y-42219D01*
D02*
G37*
G36*
X583476D02*
X582728Y-42318D01*
X582031Y-42606D01*
X581433Y-43065D01*
X580974Y-43664D01*
X580686Y-44360D01*
X580587Y-45108D01*
X580686Y-45856D01*
X580974Y-46552D01*
X581433Y-47150D01*
X582031Y-47609D01*
X582728Y-47898D01*
X583476Y-47996D01*
X584223Y-47898D01*
X584920Y-47609D01*
X585518Y-47150D01*
X585977Y-46552D01*
X586266Y-45856D01*
X586364Y-45108D01*
X586266Y-44360D01*
X585977Y-43664D01*
X585518Y-43065D01*
X584920Y-42606D01*
X584223Y-42318D01*
X583476Y-42219D01*
D02*
G37*
G36*
X521901D02*
X521153Y-42318D01*
X520457Y-42606D01*
X519858Y-43065D01*
X519399Y-43664D01*
X519111Y-44360D01*
X519012Y-45108D01*
X519111Y-45856D01*
X519399Y-46552D01*
X519858Y-47150D01*
X520457Y-47609D01*
X521153Y-47898D01*
X521901Y-47996D01*
X522648Y-47898D01*
X523345Y-47609D01*
X523943Y-47150D01*
X524402Y-46552D01*
X524691Y-45856D01*
X524789Y-45108D01*
X524691Y-44360D01*
X524402Y-43664D01*
X523943Y-43065D01*
X523345Y-42606D01*
X522648Y-42318D01*
X521901Y-42219D01*
D02*
G37*
G36*
X511901D02*
X511153Y-42318D01*
X510457Y-42606D01*
X509858Y-43065D01*
X509399Y-43664D01*
X509111Y-44360D01*
X509012Y-45108D01*
X509111Y-45856D01*
X509399Y-46552D01*
X509858Y-47150D01*
X510457Y-47609D01*
X511153Y-47898D01*
X511901Y-47996D01*
X512648Y-47898D01*
X513345Y-47609D01*
X513943Y-47150D01*
X514402Y-46552D01*
X514691Y-45856D01*
X514789Y-45108D01*
X514691Y-44360D01*
X514402Y-43664D01*
X513943Y-43065D01*
X513345Y-42606D01*
X512648Y-42318D01*
X511901Y-42219D01*
D02*
G37*
G36*
X491901D02*
X491153Y-42318D01*
X490456Y-42606D01*
X489858Y-43065D01*
X489399Y-43664D01*
X489111Y-44360D01*
X489012Y-45108D01*
X489111Y-45856D01*
X489399Y-46552D01*
X489858Y-47150D01*
X490456Y-47609D01*
X491153Y-47898D01*
X491901Y-47996D01*
X492648Y-47898D01*
X493345Y-47609D01*
X493943Y-47150D01*
X494402Y-46552D01*
X494691Y-45856D01*
X494789Y-45108D01*
X494691Y-44360D01*
X494402Y-43664D01*
X493943Y-43065D01*
X493345Y-42606D01*
X492648Y-42318D01*
X491901Y-42219D01*
D02*
G37*
G36*
X481901D02*
X481153Y-42318D01*
X480456Y-42606D01*
X479858Y-43065D01*
X479399Y-43664D01*
X479111Y-44360D01*
X479012Y-45108D01*
X479111Y-45856D01*
X479399Y-46552D01*
X479858Y-47150D01*
X480456Y-47609D01*
X481153Y-47898D01*
X481901Y-47996D01*
X482648Y-47898D01*
X483345Y-47609D01*
X483943Y-47150D01*
X484402Y-46552D01*
X484691Y-45856D01*
X484789Y-45108D01*
X484691Y-44360D01*
X484402Y-43664D01*
X483943Y-43065D01*
X483345Y-42606D01*
X482648Y-42318D01*
X481901Y-42219D01*
D02*
G37*
G36*
X472688D02*
X471941Y-42318D01*
X471244Y-42606D01*
X470646Y-43065D01*
X470187Y-43664D01*
X469898Y-44360D01*
X469800Y-45108D01*
X469898Y-45856D01*
X470187Y-46552D01*
X470646Y-47150D01*
X471244Y-47609D01*
X471941Y-47898D01*
X472688Y-47996D01*
X473436Y-47898D01*
X474132Y-47609D01*
X474731Y-47150D01*
X475190Y-46552D01*
X475478Y-45856D01*
X475577Y-45108D01*
X475478Y-44360D01*
X475190Y-43664D01*
X474731Y-43065D01*
X474132Y-42606D01*
X473436Y-42318D01*
X472688Y-42219D01*
D02*
G37*
G36*
X462688D02*
X461941Y-42318D01*
X461244Y-42606D01*
X460646Y-43065D01*
X460187Y-43664D01*
X459898Y-44360D01*
X459800Y-45108D01*
X459898Y-45856D01*
X460187Y-46552D01*
X460646Y-47150D01*
X461244Y-47609D01*
X461941Y-47898D01*
X462688Y-47996D01*
X463436Y-47898D01*
X464132Y-47609D01*
X464731Y-47150D01*
X465190Y-46552D01*
X465478Y-45856D01*
X465577Y-45108D01*
X465478Y-44360D01*
X465190Y-43664D01*
X464731Y-43065D01*
X464132Y-42606D01*
X463436Y-42318D01*
X462688Y-42219D01*
D02*
G37*
G36*
X452688D02*
X451941Y-42318D01*
X451244Y-42606D01*
X450646Y-43065D01*
X450187Y-43664D01*
X449898Y-44360D01*
X449800Y-45108D01*
X449898Y-45856D01*
X450187Y-46552D01*
X450646Y-47150D01*
X451244Y-47609D01*
X451941Y-47898D01*
X452688Y-47996D01*
X453436Y-47898D01*
X454132Y-47609D01*
X454731Y-47150D01*
X455190Y-46552D01*
X455478Y-45856D01*
X455577Y-45108D01*
X455478Y-44360D01*
X455190Y-43664D01*
X454731Y-43065D01*
X454132Y-42606D01*
X453436Y-42318D01*
X452688Y-42219D01*
D02*
G37*
G36*
X442688D02*
X441941Y-42318D01*
X441244Y-42606D01*
X440646Y-43065D01*
X440187Y-43664D01*
X439898Y-44360D01*
X439800Y-45108D01*
X439898Y-45856D01*
X440187Y-46552D01*
X440646Y-47150D01*
X441244Y-47609D01*
X441941Y-47898D01*
X442688Y-47996D01*
X443436Y-47898D01*
X444132Y-47609D01*
X444731Y-47150D01*
X445190Y-46552D01*
X445478Y-45856D01*
X445577Y-45108D01*
X445478Y-44360D01*
X445190Y-43664D01*
X444731Y-43065D01*
X444132Y-42606D01*
X443436Y-42318D01*
X442688Y-42219D01*
D02*
G37*
G36*
X432688D02*
X431941Y-42318D01*
X431244Y-42606D01*
X430646Y-43065D01*
X430187Y-43664D01*
X429898Y-44360D01*
X429800Y-45108D01*
X429898Y-45856D01*
X430187Y-46552D01*
X430646Y-47150D01*
X431244Y-47609D01*
X431941Y-47898D01*
X432688Y-47996D01*
X433436Y-47898D01*
X434132Y-47609D01*
X434731Y-47150D01*
X435190Y-46552D01*
X435478Y-45856D01*
X435577Y-45108D01*
X435478Y-44360D01*
X435190Y-43664D01*
X434731Y-43065D01*
X434132Y-42606D01*
X433436Y-42318D01*
X432688Y-42219D01*
D02*
G37*
G36*
X423476D02*
X422728Y-42318D01*
X422031Y-42606D01*
X421433Y-43065D01*
X420974Y-43664D01*
X420685Y-44360D01*
X420587Y-45108D01*
X420685Y-45856D01*
X420974Y-46552D01*
X421433Y-47150D01*
X422031Y-47609D01*
X422728Y-47898D01*
X423476Y-47996D01*
X424223Y-47898D01*
X424920Y-47609D01*
X425518Y-47150D01*
X425977Y-46552D01*
X426266Y-45856D01*
X426364Y-45108D01*
X426266Y-44360D01*
X425977Y-43664D01*
X425518Y-43065D01*
X424920Y-42606D01*
X424223Y-42318D01*
X423476Y-42219D01*
D02*
G37*
G36*
X413476D02*
X412728Y-42318D01*
X412031Y-42606D01*
X411433Y-43065D01*
X410974Y-43664D01*
X410685Y-44360D01*
X410587Y-45108D01*
X410685Y-45856D01*
X410974Y-46552D01*
X411433Y-47150D01*
X412031Y-47609D01*
X412728Y-47898D01*
X413476Y-47996D01*
X414223Y-47898D01*
X414920Y-47609D01*
X415518Y-47150D01*
X415977Y-46552D01*
X416266Y-45856D01*
X416364Y-45108D01*
X416266Y-44360D01*
X415977Y-43664D01*
X415518Y-43065D01*
X414920Y-42606D01*
X414223Y-42318D01*
X413476Y-42219D01*
D02*
G37*
G36*
X403476D02*
X402728Y-42318D01*
X402031Y-42606D01*
X401433Y-43065D01*
X400974Y-43664D01*
X400686Y-44360D01*
X400587Y-45108D01*
X400686Y-45856D01*
X400974Y-46552D01*
X401433Y-47150D01*
X402031Y-47609D01*
X402728Y-47898D01*
X403476Y-47996D01*
X404223Y-47898D01*
X404920Y-47609D01*
X405518Y-47150D01*
X405977Y-46552D01*
X406266Y-45856D01*
X406364Y-45108D01*
X406266Y-44360D01*
X405977Y-43664D01*
X405518Y-43065D01*
X404920Y-42606D01*
X404223Y-42318D01*
X403476Y-42219D01*
D02*
G37*
G36*
X393476D02*
X392728Y-42318D01*
X392031Y-42606D01*
X391433Y-43065D01*
X390974Y-43664D01*
X390686Y-44360D01*
X390587Y-45108D01*
X390686Y-45856D01*
X390974Y-46552D01*
X391433Y-47150D01*
X392031Y-47609D01*
X392728Y-47898D01*
X393476Y-47996D01*
X394223Y-47898D01*
X394920Y-47609D01*
X395518Y-47150D01*
X395977Y-46552D01*
X396266Y-45856D01*
X396364Y-45108D01*
X396266Y-44360D01*
X395977Y-43664D01*
X395518Y-43065D01*
X394920Y-42606D01*
X394223Y-42318D01*
X393476Y-42219D01*
D02*
G37*
G36*
X383476D02*
X382728Y-42318D01*
X382031Y-42606D01*
X381433Y-43065D01*
X380974Y-43664D01*
X380685Y-44360D01*
X380587Y-45108D01*
X380685Y-45856D01*
X380974Y-46552D01*
X381433Y-47150D01*
X382031Y-47609D01*
X382728Y-47898D01*
X383476Y-47996D01*
X384223Y-47898D01*
X384920Y-47609D01*
X385518Y-47150D01*
X385977Y-46552D01*
X386266Y-45856D01*
X386364Y-45108D01*
X386266Y-44360D01*
X385977Y-43664D01*
X385518Y-43065D01*
X384920Y-42606D01*
X384223Y-42318D01*
X383476Y-42219D01*
D02*
G37*
G36*
X374263D02*
X373515Y-42318D01*
X372819Y-42606D01*
X372220Y-43065D01*
X371761Y-43664D01*
X371473Y-44360D01*
X371375Y-45108D01*
X371473Y-45856D01*
X371761Y-46552D01*
X372220Y-47150D01*
X372819Y-47609D01*
X373515Y-47898D01*
X374263Y-47996D01*
X375011Y-47898D01*
X375707Y-47609D01*
X376306Y-47150D01*
X376764Y-46552D01*
X377053Y-45856D01*
X377151Y-45108D01*
X377053Y-44360D01*
X376764Y-43664D01*
X376306Y-43065D01*
X375707Y-42606D01*
X375011Y-42318D01*
X374263Y-42219D01*
D02*
G37*
G36*
X364263D02*
X363515Y-42318D01*
X362819Y-42606D01*
X362221Y-43065D01*
X361761Y-43664D01*
X361473Y-44360D01*
X361374Y-45108D01*
X361473Y-45856D01*
X361761Y-46552D01*
X362221Y-47150D01*
X362819Y-47609D01*
X363515Y-47898D01*
X364263Y-47996D01*
X365011Y-47898D01*
X365707Y-47609D01*
X366305Y-47150D01*
X366764Y-46552D01*
X367053Y-45856D01*
X367151Y-45108D01*
X367053Y-44360D01*
X366764Y-43664D01*
X366305Y-43065D01*
X365707Y-42606D01*
X365011Y-42318D01*
X364263Y-42219D01*
D02*
G37*
G36*
X354263D02*
X353515Y-42318D01*
X352819Y-42606D01*
X352221Y-43065D01*
X351762Y-43664D01*
X351473Y-44360D01*
X351375Y-45108D01*
X351473Y-45856D01*
X351762Y-46552D01*
X352221Y-47150D01*
X352819Y-47609D01*
X353515Y-47898D01*
X354263Y-47996D01*
X355011Y-47898D01*
X355707Y-47609D01*
X356306Y-47150D01*
X356765Y-46552D01*
X357053Y-45856D01*
X357152Y-45108D01*
X357053Y-44360D01*
X356765Y-43664D01*
X356306Y-43065D01*
X355707Y-42606D01*
X355011Y-42318D01*
X354263Y-42219D01*
D02*
G37*
G36*
X344263D02*
X343515Y-42318D01*
X342819Y-42606D01*
X342220Y-43065D01*
X341761Y-43664D01*
X341473Y-44360D01*
X341374Y-45108D01*
X341473Y-45856D01*
X341761Y-46552D01*
X342220Y-47150D01*
X342819Y-47609D01*
X343515Y-47898D01*
X344263Y-47996D01*
X345011Y-47898D01*
X345707Y-47609D01*
X346305Y-47150D01*
X346764Y-46552D01*
X347053Y-45856D01*
X347151Y-45108D01*
X347053Y-44360D01*
X346764Y-43664D01*
X346305Y-43065D01*
X345707Y-42606D01*
X345011Y-42318D01*
X344263Y-42219D01*
D02*
G37*
G36*
X334263D02*
X333515Y-42318D01*
X332819Y-42606D01*
X332221Y-43065D01*
X331762Y-43664D01*
X331473Y-44360D01*
X331375Y-45108D01*
X331473Y-45856D01*
X331762Y-46552D01*
X332221Y-47150D01*
X332819Y-47609D01*
X333515Y-47898D01*
X334263Y-47996D01*
X335011Y-47898D01*
X335707Y-47609D01*
X336305Y-47150D01*
X336765Y-46552D01*
X337053Y-45856D01*
X337152Y-45108D01*
X337053Y-44360D01*
X336765Y-43664D01*
X336305Y-43065D01*
X335707Y-42606D01*
X335011Y-42318D01*
X334263Y-42219D01*
D02*
G37*
G36*
X287688D02*
X286941Y-42318D01*
X286244Y-42606D01*
X285646Y-43065D01*
X285187Y-43664D01*
X284898Y-44360D01*
X284800Y-45108D01*
X284898Y-45856D01*
X285187Y-46552D01*
X285646Y-47150D01*
X286244Y-47609D01*
X286941Y-47898D01*
X287688Y-47996D01*
X288436Y-47898D01*
X289132Y-47609D01*
X289731Y-47150D01*
X290190Y-46552D01*
X290478Y-45856D01*
X290577Y-45108D01*
X290478Y-44360D01*
X290190Y-43664D01*
X289731Y-43065D01*
X289132Y-42606D01*
X288436Y-42318D01*
X287688Y-42219D01*
D02*
G37*
G36*
X277688D02*
X276941Y-42318D01*
X276244Y-42606D01*
X275646Y-43065D01*
X275187Y-43664D01*
X274898Y-44360D01*
X274800Y-45108D01*
X274898Y-45856D01*
X275187Y-46552D01*
X275646Y-47150D01*
X276244Y-47609D01*
X276941Y-47898D01*
X277688Y-47996D01*
X278436Y-47898D01*
X279132Y-47609D01*
X279731Y-47150D01*
X280190Y-46552D01*
X280478Y-45856D01*
X280577Y-45108D01*
X280478Y-44360D01*
X280190Y-43664D01*
X279731Y-43065D01*
X279132Y-42606D01*
X278436Y-42318D01*
X277688Y-42219D01*
D02*
G37*
G36*
X208476D02*
X207728Y-42318D01*
X207031Y-42606D01*
X206433Y-43065D01*
X205974Y-43664D01*
X205685Y-44360D01*
X205587Y-45108D01*
X205685Y-45856D01*
X205974Y-46552D01*
X206433Y-47150D01*
X207031Y-47609D01*
X207728Y-47898D01*
X208476Y-47996D01*
X209223Y-47898D01*
X209920Y-47609D01*
X210518Y-47150D01*
X210977Y-46552D01*
X211266Y-45856D01*
X211364Y-45108D01*
X211266Y-44360D01*
X210977Y-43664D01*
X210518Y-43065D01*
X209920Y-42606D01*
X209223Y-42318D01*
X208476Y-42219D01*
D02*
G37*
G36*
X198476D02*
X197728Y-42318D01*
X197031Y-42606D01*
X196433Y-43065D01*
X195974Y-43664D01*
X195686Y-44360D01*
X195587Y-45108D01*
X195686Y-45856D01*
X195974Y-46552D01*
X196433Y-47150D01*
X197031Y-47609D01*
X197728Y-47898D01*
X198476Y-47996D01*
X199223Y-47898D01*
X199920Y-47609D01*
X200518Y-47150D01*
X200977Y-46552D01*
X201266Y-45856D01*
X201364Y-45108D01*
X201266Y-44360D01*
X200977Y-43664D01*
X200518Y-43065D01*
X199920Y-42606D01*
X199223Y-42318D01*
X198476Y-42219D01*
D02*
G37*
G36*
X190720Y-47813D02*
X188689D01*
Y-49844D01*
X188861Y-49821D01*
X189488Y-49562D01*
X190025Y-49149D01*
X190438Y-48611D01*
X190698Y-47985D01*
X190720Y-47813D01*
D02*
G37*
G36*
X187689D02*
X185658D01*
X185680Y-47985D01*
X185940Y-48611D01*
X186353Y-49149D01*
X186890Y-49562D01*
X187517Y-49821D01*
X187689Y-49844D01*
Y-47813D01*
D02*
G37*
G36*
X558195Y-51565D02*
X557311Y-51681D01*
X556487Y-52023D01*
X555779Y-52566D01*
X555236Y-53273D01*
X554895Y-54097D01*
X554778Y-54981D01*
X554895Y-55866D01*
X555236Y-56690D01*
X555779Y-57397D01*
X556487Y-57940D01*
X557311Y-58282D01*
X558195Y-58398D01*
X559079Y-58282D01*
X559903Y-57940D01*
X560611Y-57397D01*
X561154Y-56690D01*
X561495Y-55866D01*
X561612Y-54981D01*
X561495Y-54097D01*
X561154Y-53273D01*
X560611Y-52566D01*
X559903Y-52023D01*
X559079Y-51681D01*
X558195Y-51565D01*
D02*
G37*
G36*
X699945Y-60315D02*
X699061Y-60431D01*
X698237Y-60773D01*
X697529Y-61316D01*
X696986Y-62023D01*
X696645Y-62847D01*
X696528Y-63731D01*
X696645Y-64616D01*
X696986Y-65440D01*
X697529Y-66147D01*
X698237Y-66690D01*
X699061Y-67032D01*
X699945Y-67148D01*
X700829Y-67032D01*
X701653Y-66690D01*
X702361Y-66147D01*
X702904Y-65440D01*
X703245Y-64616D01*
X703362Y-63731D01*
X703245Y-62847D01*
X702904Y-62023D01*
X702361Y-61316D01*
X701653Y-60773D01*
X700829Y-60431D01*
X699945Y-60315D01*
D02*
G37*
G36*
X117058Y-40571D02*
X116119Y-40695D01*
X115243Y-41058D01*
X114491Y-41635D01*
X113914Y-42387D01*
X113551Y-43263D01*
X113427Y-44202D01*
X113551Y-45142D01*
X113914Y-46018D01*
X114491Y-46770D01*
X115243Y-47347D01*
X116119Y-47710D01*
X117058Y-47833D01*
X117998Y-47710D01*
X118874Y-47347D01*
X118968Y-47275D01*
X141072Y-69378D01*
X140815Y-70224D01*
X140700Y-70378D01*
X115244D01*
X90402Y-45537D01*
X90566Y-45142D01*
X90689Y-44202D01*
X90566Y-43263D01*
X90203Y-42387D01*
X89626Y-41635D01*
X88874Y-41058D01*
X87998Y-40695D01*
X87058Y-40571D01*
X86119Y-40695D01*
X85243Y-41058D01*
X84491Y-41635D01*
X83914Y-42387D01*
X83551Y-43263D01*
X83427Y-44202D01*
X83551Y-45142D01*
X83914Y-46018D01*
X84491Y-46770D01*
X85243Y-47347D01*
X86119Y-47710D01*
X87058Y-47833D01*
X87998Y-47710D01*
X88874Y-47347D01*
X88968Y-47275D01*
X113753Y-72059D01*
X113448Y-72982D01*
X113387Y-73059D01*
X97925D01*
X70402Y-45537D01*
X70566Y-45142D01*
X70689Y-44202D01*
X70566Y-43263D01*
X70203Y-42387D01*
X69626Y-41635D01*
X68874Y-41058D01*
X67998Y-40695D01*
X67058Y-40571D01*
X66119Y-40695D01*
X65243Y-41058D01*
X64491Y-41635D01*
X63914Y-42387D01*
X63551Y-43263D01*
X63427Y-44202D01*
X63551Y-45142D01*
X63914Y-46018D01*
X64491Y-46770D01*
X65243Y-47347D01*
X66119Y-47710D01*
X67058Y-47833D01*
X67998Y-47710D01*
X68874Y-47347D01*
X68968Y-47275D01*
X96472Y-74778D01*
X96259Y-75546D01*
X96094Y-75778D01*
X90644D01*
X60402Y-45537D01*
X60566Y-45142D01*
X60689Y-44202D01*
X60566Y-43263D01*
X60203Y-42387D01*
X59626Y-41635D01*
X58874Y-41058D01*
X57998Y-40695D01*
X57058Y-40571D01*
X56119Y-40695D01*
X55243Y-41058D01*
X54491Y-41635D01*
X53914Y-42387D01*
X53551Y-43263D01*
X53427Y-44202D01*
X53551Y-45142D01*
X53914Y-46018D01*
X54491Y-46770D01*
X55243Y-47347D01*
X56119Y-47710D01*
X57058Y-47833D01*
X57998Y-47710D01*
X58874Y-47347D01*
X58968Y-47275D01*
X89272Y-77578D01*
X89195Y-78049D01*
X88911Y-78578D01*
X82948D01*
X82948Y-78578D01*
X82519Y-78664D01*
X82155Y-78907D01*
X82155Y-78907D01*
X58393Y-102670D01*
X57998Y-102506D01*
X57058Y-102382D01*
X56119Y-102506D01*
X55243Y-102869D01*
X54491Y-103446D01*
X53914Y-104198D01*
X53551Y-105074D01*
X53427Y-106013D01*
X53551Y-106953D01*
X53914Y-107829D01*
X54491Y-108581D01*
X55243Y-109158D01*
X56119Y-109521D01*
X57058Y-109644D01*
X57998Y-109521D01*
X58874Y-109158D01*
X59626Y-108581D01*
X60203Y-107829D01*
X60566Y-106953D01*
X60689Y-106013D01*
X60566Y-105074D01*
X60203Y-104198D01*
X60131Y-104104D01*
X83413Y-80822D01*
X98869D01*
X98984Y-80976D01*
X99241Y-81822D01*
X78393Y-102670D01*
X77998Y-102506D01*
X77058Y-102382D01*
X76118Y-102506D01*
X75243Y-102869D01*
X74491Y-103446D01*
X73914Y-104198D01*
X73551Y-105074D01*
X73427Y-106013D01*
X73551Y-106953D01*
X73914Y-107829D01*
X74491Y-108581D01*
X75243Y-109158D01*
X76118Y-109521D01*
X77058Y-109644D01*
X77998Y-109521D01*
X78874Y-109158D01*
X79626Y-108581D01*
X80203Y-107829D01*
X80566Y-106953D01*
X80689Y-106013D01*
X80566Y-105074D01*
X80203Y-104198D01*
X80131Y-104104D01*
X100713Y-83522D01*
X116180D01*
X116464Y-84051D01*
X116541Y-84522D01*
X98393Y-102670D01*
X97998Y-102506D01*
X97058Y-102382D01*
X96118Y-102506D01*
X95243Y-102869D01*
X94491Y-103446D01*
X93914Y-104198D01*
X93551Y-105074D01*
X93427Y-106013D01*
X93551Y-106953D01*
X93914Y-107829D01*
X94491Y-108581D01*
X95243Y-109158D01*
X96118Y-109521D01*
X97058Y-109644D01*
X97998Y-109521D01*
X98874Y-109158D01*
X99626Y-108581D01*
X100203Y-107829D01*
X100566Y-106953D01*
X100689Y-106013D01*
X100566Y-105074D01*
X100203Y-104198D01*
X100131Y-104104D01*
X117913Y-86322D01*
X173034D01*
X173332Y-86768D01*
X174051Y-87249D01*
X174900Y-87417D01*
X175749Y-87249D01*
X176468Y-86768D01*
X176949Y-86049D01*
X177117Y-85200D01*
X176949Y-84351D01*
X176468Y-83632D01*
X175749Y-83151D01*
X174900Y-82983D01*
X174051Y-83151D01*
X173332Y-83632D01*
X173034Y-84078D01*
X161197D01*
X160920Y-83724D01*
X160582Y-83078D01*
X160717Y-82400D01*
X160706Y-82342D01*
X161393Y-81342D01*
X161914Y-81270D01*
X161947Y-81278D01*
X162651Y-81749D01*
X163500Y-81917D01*
X164349Y-81749D01*
X165068Y-81268D01*
X165549Y-80549D01*
X165717Y-79700D01*
X165549Y-78851D01*
X165068Y-78132D01*
X164349Y-77651D01*
X163500Y-77483D01*
X162651Y-77651D01*
X161932Y-78132D01*
X161495Y-78172D01*
X160809Y-78012D01*
X160582Y-77578D01*
X160717Y-76900D01*
X160599Y-76302D01*
X161023Y-75545D01*
X161251Y-75302D01*
X176734D01*
X177032Y-75749D01*
X177751Y-76230D01*
X178600Y-76398D01*
X179449Y-76230D01*
X180168Y-75749D01*
X180649Y-75029D01*
X180817Y-74181D01*
X180649Y-73332D01*
X180168Y-72613D01*
X179522Y-72181D01*
X179449Y-72132D01*
X179316Y-72042D01*
X179222Y-71951D01*
X179397Y-70906D01*
X179440Y-70878D01*
X179549Y-70849D01*
X179576Y-70831D01*
X180268Y-70368D01*
X180749Y-69649D01*
X180917Y-68800D01*
X180749Y-67951D01*
X180268Y-67232D01*
X179549Y-66751D01*
X178700Y-66583D01*
X177851Y-66751D01*
X177132Y-67232D01*
X176834Y-67678D01*
X142544D01*
X120402Y-45537D01*
X120566Y-45142D01*
X120689Y-44202D01*
X120566Y-43263D01*
X120203Y-42387D01*
X119626Y-41635D01*
X118874Y-41058D01*
X117998Y-40695D01*
X117058Y-40571D01*
D02*
G37*
G36*
X227764Y-90549D02*
Y-92580D01*
X229795D01*
X229772Y-92408D01*
X229513Y-91782D01*
X229100Y-91244D01*
X228562Y-90831D01*
X227936Y-90572D01*
X227764Y-90549D01*
D02*
G37*
G36*
X226764D02*
X226592Y-90572D01*
X225965Y-90831D01*
X225427Y-91244D01*
X225015Y-91782D01*
X224755Y-92408D01*
X224733Y-92580D01*
X226764D01*
Y-90549D01*
D02*
G37*
G36*
X229795Y-93580D02*
X227764D01*
Y-95612D01*
X227936Y-95589D01*
X228562Y-95329D01*
X229100Y-94917D01*
X229513Y-94379D01*
X229772Y-93752D01*
X229795Y-93580D01*
D02*
G37*
G36*
X226764D02*
X224733D01*
X224755Y-93752D01*
X225015Y-94379D01*
X225427Y-94917D01*
X225965Y-95329D01*
X226592Y-95589D01*
X226764Y-95612D01*
Y-93580D01*
D02*
G37*
G36*
X558195Y-92065D02*
X557311Y-92181D01*
X556487Y-92523D01*
X555779Y-93066D01*
X555236Y-93773D01*
X554895Y-94597D01*
X554778Y-95481D01*
X554895Y-96366D01*
X555236Y-97190D01*
X555779Y-97897D01*
X556487Y-98440D01*
X557311Y-98782D01*
X558195Y-98898D01*
X559079Y-98782D01*
X559903Y-98440D01*
X560611Y-97897D01*
X561154Y-97190D01*
X561495Y-96366D01*
X561612Y-95481D01*
X561495Y-94597D01*
X561154Y-93773D01*
X560611Y-93066D01*
X559903Y-92523D01*
X559079Y-92181D01*
X558195Y-92065D01*
D02*
G37*
G36*
X548195D02*
X547311Y-92181D01*
X546487Y-92523D01*
X545779Y-93066D01*
X545236Y-93773D01*
X544895Y-94597D01*
X544778Y-95481D01*
X544895Y-96366D01*
X545236Y-97190D01*
X545779Y-97897D01*
X546487Y-98440D01*
X547311Y-98782D01*
X548195Y-98898D01*
X549079Y-98782D01*
X549903Y-98440D01*
X550611Y-97897D01*
X551154Y-97190D01*
X551495Y-96366D01*
X551612Y-95481D01*
X551495Y-94597D01*
X551154Y-93773D01*
X550611Y-93066D01*
X549903Y-92523D01*
X549079Y-92181D01*
X548195Y-92065D01*
D02*
G37*
G36*
X263325Y-99978D02*
X263325Y-99978D01*
X222817D01*
X222817Y-99978D01*
X222388Y-100064D01*
X222024Y-100307D01*
X222024Y-100307D01*
X219782Y-102549D01*
X219223Y-102318D01*
X218476Y-102219D01*
X217728Y-102318D01*
X217031Y-102606D01*
X216433Y-103065D01*
X215974Y-103664D01*
X215686Y-104360D01*
X215587Y-105108D01*
X215686Y-105856D01*
X215974Y-106552D01*
X216433Y-107150D01*
X217031Y-107609D01*
X217728Y-107898D01*
X218476Y-107996D01*
X219223Y-107898D01*
X219920Y-107609D01*
X220518Y-107150D01*
X220977Y-106552D01*
X221266Y-105856D01*
X221364Y-105108D01*
X221266Y-104360D01*
X221230Y-104273D01*
X223282Y-102222D01*
X225890D01*
X226158Y-102637D01*
X226313Y-103222D01*
X225974Y-103664D01*
X225686Y-104360D01*
X225587Y-105108D01*
X225686Y-105856D01*
X225974Y-106552D01*
X226433Y-107150D01*
X227031Y-107609D01*
X227728Y-107898D01*
X228476Y-107996D01*
X229223Y-107898D01*
X229920Y-107609D01*
X230518Y-107150D01*
X230977Y-106552D01*
X231266Y-105856D01*
X231364Y-105108D01*
X231266Y-104360D01*
X230977Y-103664D01*
X230638Y-103222D01*
X230793Y-102637D01*
X231061Y-102222D01*
X235890D01*
X236158Y-102637D01*
X236313Y-103222D01*
X235974Y-103664D01*
X235685Y-104360D01*
X235587Y-105108D01*
X235685Y-105856D01*
X235974Y-106552D01*
X236433Y-107150D01*
X237031Y-107609D01*
X237728Y-107898D01*
X238476Y-107996D01*
X239223Y-107898D01*
X239920Y-107609D01*
X240518Y-107150D01*
X240977Y-106552D01*
X241266Y-105856D01*
X241364Y-105108D01*
X241266Y-104360D01*
X240977Y-103664D01*
X240638Y-103222D01*
X240793Y-102637D01*
X241061Y-102222D01*
X243834D01*
X244824Y-102244D01*
X244824Y-103222D01*
Y-107972D01*
X250552D01*
X250552Y-102244D01*
X251543Y-102222D01*
X255103D01*
X255370Y-102637D01*
X255526Y-103222D01*
X255187Y-103664D01*
X254898Y-104360D01*
X254800Y-105108D01*
X254898Y-105856D01*
X255187Y-106552D01*
X255646Y-107150D01*
X256244Y-107609D01*
X256941Y-107898D01*
X257688Y-107996D01*
X258436Y-107898D01*
X259132Y-107609D01*
X259731Y-107150D01*
X260190Y-106552D01*
X260478Y-105856D01*
X260577Y-105108D01*
X260478Y-104360D01*
X260190Y-103664D01*
X259851Y-103222D01*
X260006Y-102637D01*
X260274Y-102222D01*
X262860D01*
X264928Y-104289D01*
X264898Y-104360D01*
X264800Y-105108D01*
X264898Y-105856D01*
X265187Y-106552D01*
X265646Y-107150D01*
X266244Y-107609D01*
X266941Y-107898D01*
X267688Y-107996D01*
X268436Y-107898D01*
X269132Y-107609D01*
X269731Y-107150D01*
X270190Y-106552D01*
X270478Y-105856D01*
X270577Y-105108D01*
X270478Y-104360D01*
X270190Y-103664D01*
X269731Y-103065D01*
X269132Y-102606D01*
X268436Y-102318D01*
X267688Y-102219D01*
X266941Y-102318D01*
X266367Y-102556D01*
X264118Y-100307D01*
X263754Y-100064D01*
X263325Y-99978D01*
D02*
G37*
G36*
X648725Y-100378D02*
X648725Y-100378D01*
X607417D01*
X607417Y-100378D01*
X606988Y-100464D01*
X606624Y-100707D01*
X606624Y-100707D01*
X604782Y-102549D01*
X604223Y-102318D01*
X603476Y-102219D01*
X602728Y-102318D01*
X602031Y-102606D01*
X601433Y-103065D01*
X600974Y-103664D01*
X600686Y-104360D01*
X600587Y-105108D01*
X600686Y-105856D01*
X600974Y-106552D01*
X601433Y-107150D01*
X602031Y-107609D01*
X602728Y-107898D01*
X603476Y-107996D01*
X604223Y-107898D01*
X604920Y-107609D01*
X605518Y-107150D01*
X605977Y-106552D01*
X606266Y-105856D01*
X606364Y-105108D01*
X606266Y-104360D01*
X606230Y-104273D01*
X607881Y-102622D01*
X610513D01*
X611006Y-103622D01*
X610974Y-103664D01*
X610685Y-104360D01*
X610587Y-105108D01*
X610685Y-105856D01*
X610974Y-106552D01*
X611433Y-107150D01*
X612031Y-107609D01*
X612728Y-107898D01*
X613476Y-107996D01*
X614223Y-107898D01*
X614920Y-107609D01*
X615518Y-107150D01*
X615977Y-106552D01*
X616266Y-105856D01*
X616364Y-105108D01*
X616266Y-104360D01*
X615977Y-103664D01*
X615945Y-103622D01*
X616438Y-102622D01*
X620513D01*
X621006Y-103622D01*
X620974Y-103664D01*
X620685Y-104360D01*
X620587Y-105108D01*
X620685Y-105856D01*
X620974Y-106552D01*
X621433Y-107150D01*
X622031Y-107609D01*
X622728Y-107898D01*
X623476Y-107996D01*
X624223Y-107898D01*
X624920Y-107609D01*
X625518Y-107150D01*
X625977Y-106552D01*
X626266Y-105856D01*
X626364Y-105108D01*
X626266Y-104360D01*
X625977Y-103664D01*
X625945Y-103622D01*
X626438Y-102622D01*
X629824D01*
Y-107972D01*
X635552D01*
Y-102622D01*
X639726D01*
X640219Y-103622D01*
X640187Y-103664D01*
X639898Y-104360D01*
X639800Y-105108D01*
X639898Y-105856D01*
X640187Y-106552D01*
X640646Y-107150D01*
X641244Y-107609D01*
X641941Y-107898D01*
X642688Y-107996D01*
X643436Y-107898D01*
X644132Y-107609D01*
X644731Y-107150D01*
X645190Y-106552D01*
X645478Y-105856D01*
X645577Y-105108D01*
X645478Y-104360D01*
X645190Y-103664D01*
X645157Y-103622D01*
X645650Y-102622D01*
X648260D01*
X649928Y-104289D01*
X649898Y-104360D01*
X649800Y-105108D01*
X649898Y-105856D01*
X650187Y-106552D01*
X650646Y-107150D01*
X651244Y-107609D01*
X651941Y-107898D01*
X652688Y-107996D01*
X653436Y-107898D01*
X654132Y-107609D01*
X654731Y-107150D01*
X655190Y-106552D01*
X655478Y-105856D01*
X655577Y-105108D01*
X655478Y-104360D01*
X655190Y-103664D01*
X654731Y-103065D01*
X654132Y-102606D01*
X653436Y-102318D01*
X652688Y-102219D01*
X651941Y-102318D01*
X651367Y-102556D01*
X649518Y-100707D01*
X649154Y-100464D01*
X648725Y-100378D01*
D02*
G37*
G36*
X782329Y-100478D02*
X782329Y-100478D01*
X740821D01*
X740821Y-100478D01*
X740392Y-100564D01*
X740028Y-100807D01*
X738286Y-102549D01*
X737727Y-102318D01*
X736979Y-102219D01*
X736232Y-102318D01*
X735535Y-102606D01*
X734937Y-103065D01*
X734478Y-103664D01*
X734190Y-104360D01*
X734091Y-105108D01*
X734190Y-105856D01*
X734478Y-106552D01*
X734937Y-107150D01*
X735535Y-107609D01*
X736232Y-107898D01*
X736979Y-107996D01*
X737727Y-107898D01*
X738424Y-107609D01*
X739022Y-107150D01*
X739481Y-106552D01*
X739770Y-105856D01*
X739868Y-105108D01*
X739770Y-104360D01*
X739734Y-104273D01*
X741286Y-102722D01*
X743940D01*
X744478Y-103664D01*
X744190Y-104360D01*
X744091Y-105108D01*
X744190Y-105856D01*
X744421Y-106414D01*
X727456Y-123378D01*
X712000D01*
X711885Y-123224D01*
X711629Y-122378D01*
X726145Y-107862D01*
X726232Y-107898D01*
X726979Y-107996D01*
X727727Y-107898D01*
X728424Y-107609D01*
X729022Y-107150D01*
X729481Y-106552D01*
X729770Y-105856D01*
X729868Y-105108D01*
X729770Y-104360D01*
X729481Y-103664D01*
X729022Y-103065D01*
X728424Y-102606D01*
X727727Y-102318D01*
X726979Y-102219D01*
X726232Y-102318D01*
X725535Y-102606D01*
X724937Y-103065D01*
X724478Y-103664D01*
X724190Y-104360D01*
X724091Y-105108D01*
X724190Y-105856D01*
X724421Y-106414D01*
X710156Y-120678D01*
X704700D01*
X704585Y-120524D01*
X704329Y-119678D01*
X716035Y-107972D01*
X719843D01*
Y-102244D01*
X714116D01*
Y-106719D01*
X702856Y-117978D01*
X685938D01*
X685722Y-117762D01*
X685273Y-116978D01*
X685387Y-116407D01*
X685218Y-115559D01*
X684737Y-114839D01*
X684018Y-114358D01*
X683169Y-114190D01*
X682321Y-114358D01*
X681601Y-114839D01*
X681308Y-115278D01*
X574701D01*
X574403Y-114832D01*
X573683Y-114351D01*
X572835Y-114183D01*
X571986Y-114351D01*
X571267Y-114832D01*
X570968Y-115278D01*
X191197D01*
X190920Y-114924D01*
X190583Y-114278D01*
X190717Y-113600D01*
X190549Y-112751D01*
X190068Y-112032D01*
X189349Y-111551D01*
X188500Y-111383D01*
X187651Y-111551D01*
X186932Y-112032D01*
X186634Y-112478D01*
X75533D01*
X70402Y-107348D01*
X70566Y-106953D01*
X70689Y-106013D01*
X70566Y-105074D01*
X70203Y-104198D01*
X69626Y-103446D01*
X68874Y-102869D01*
X67998Y-102506D01*
X67058Y-102382D01*
X66119Y-102506D01*
X65243Y-102869D01*
X64491Y-103446D01*
X63914Y-104198D01*
X63551Y-105074D01*
X63427Y-106013D01*
X63551Y-106953D01*
X63914Y-107829D01*
X64491Y-108581D01*
X65243Y-109158D01*
X66119Y-109521D01*
X67058Y-109644D01*
X67998Y-109521D01*
X68874Y-109158D01*
X68968Y-109086D01*
X74275Y-114393D01*
X74275Y-114393D01*
X74639Y-114636D01*
X75068Y-114722D01*
X170803D01*
X171080Y-115076D01*
X171417Y-115722D01*
X171283Y-116400D01*
X171398Y-116978D01*
X170955Y-117755D01*
X170736Y-117978D01*
X61033D01*
X50402Y-107348D01*
X50566Y-106953D01*
X50689Y-106013D01*
X50566Y-105074D01*
X50203Y-104198D01*
X49626Y-103446D01*
X48874Y-102869D01*
X47998Y-102506D01*
X47058Y-102382D01*
X46119Y-102506D01*
X45243Y-102869D01*
X44491Y-103446D01*
X43914Y-104198D01*
X43551Y-105074D01*
X43427Y-106013D01*
X43551Y-106953D01*
X43914Y-107829D01*
X44491Y-108581D01*
X45243Y-109158D01*
X46119Y-109521D01*
X47058Y-109644D01*
X47998Y-109521D01*
X48874Y-109158D01*
X48968Y-109086D01*
X59775Y-119893D01*
X59775Y-119893D01*
X60139Y-120136D01*
X60568Y-120222D01*
X60568Y-120222D01*
X104295D01*
X104514Y-120445D01*
X104956Y-121222D01*
X104841Y-121800D01*
X105010Y-122649D01*
X105490Y-123368D01*
X106210Y-123849D01*
X107058Y-124017D01*
X107907Y-123849D01*
X108626Y-123368D01*
X108924Y-122922D01*
X124295D01*
X124513Y-123145D01*
X124956Y-123922D01*
X124841Y-124500D01*
X124956Y-125078D01*
X124513Y-125855D01*
X124295Y-126078D01*
X88924D01*
X88626Y-125632D01*
X87907Y-125151D01*
X87058Y-124983D01*
X86210Y-125151D01*
X85490Y-125632D01*
X85010Y-126351D01*
X84841Y-127200D01*
X85010Y-128049D01*
X85490Y-128768D01*
X86210Y-129249D01*
X87058Y-129417D01*
X87907Y-129249D01*
X88626Y-128768D01*
X88924Y-128322D01*
X145136D01*
X145355Y-128545D01*
X145798Y-129322D01*
X145707Y-129778D01*
X145571Y-129979D01*
X144790Y-130536D01*
X144300Y-130439D01*
X143451Y-130608D01*
X142732Y-131088D01*
X142251Y-131808D01*
X142083Y-132656D01*
X142251Y-133505D01*
X142732Y-134224D01*
X143451Y-134705D01*
X144300Y-134874D01*
X145149Y-134705D01*
X145868Y-134224D01*
X146166Y-133778D01*
X275822D01*
X276120Y-134224D01*
X276840Y-134705D01*
X277688Y-134874D01*
X278537Y-134705D01*
X279256Y-134224D01*
X279554Y-133778D01*
X405184D01*
X405435Y-134778D01*
X404671Y-135186D01*
X403710Y-135974D01*
X402922Y-136935D01*
X402336Y-138031D01*
X401975Y-139220D01*
X401854Y-140457D01*
X401975Y-141694D01*
X402336Y-142883D01*
X402922Y-143979D01*
X403710Y-144939D01*
X404671Y-145728D01*
X405767Y-146314D01*
X406956Y-146674D01*
X408193Y-146796D01*
X409430Y-146674D01*
X410619Y-146314D01*
X411715Y-145728D01*
X412675Y-144939D01*
X413464Y-143979D01*
X414049Y-142883D01*
X414410Y-141694D01*
X414532Y-140457D01*
X414410Y-139220D01*
X414049Y-138031D01*
X413464Y-136935D01*
X412675Y-135974D01*
X412458Y-135796D01*
X412692Y-134750D01*
X412730Y-134725D01*
X413476Y-134874D01*
X414324Y-134705D01*
X415043Y-134224D01*
X415342Y-133778D01*
X510035D01*
X510333Y-134224D01*
X511052Y-134705D01*
X511901Y-134874D01*
X512749Y-134705D01*
X513469Y-134224D01*
X513767Y-133778D01*
X660793D01*
X661120Y-134268D01*
X661840Y-134749D01*
X662688Y-134917D01*
X663537Y-134749D01*
X664256Y-134268D01*
X664584Y-133778D01*
X768288D01*
X768288Y-133778D01*
X768717Y-133693D01*
X769081Y-133449D01*
X794870Y-107660D01*
X795444Y-107898D01*
X796192Y-107996D01*
X796940Y-107898D01*
X797636Y-107609D01*
X798235Y-107150D01*
X798694Y-106552D01*
X798982Y-105856D01*
X799081Y-105108D01*
X798982Y-104360D01*
X798694Y-103664D01*
X798235Y-103065D01*
X797636Y-102606D01*
X796940Y-102318D01*
X796192Y-102219D01*
X795444Y-102318D01*
X794748Y-102606D01*
X794150Y-103065D01*
X793691Y-103664D01*
X793402Y-104360D01*
X793304Y-105108D01*
X793402Y-105856D01*
X793432Y-105927D01*
X767824Y-131535D01*
X752378D01*
X752135Y-131157D01*
X751996Y-130535D01*
X774870Y-107660D01*
X775445Y-107898D01*
X776192Y-107996D01*
X776940Y-107898D01*
X777636Y-107609D01*
X778235Y-107150D01*
X778694Y-106552D01*
X778982Y-105856D01*
X779081Y-105108D01*
X778982Y-104360D01*
X778694Y-103664D01*
X779231Y-102722D01*
X781864D01*
X783432Y-104289D01*
X783402Y-104360D01*
X783304Y-105108D01*
X783402Y-105856D01*
X783691Y-106552D01*
X784150Y-107150D01*
X784748Y-107609D01*
X785444Y-107898D01*
X786192Y-107996D01*
X786940Y-107898D01*
X787636Y-107609D01*
X788235Y-107150D01*
X788694Y-106552D01*
X788982Y-105856D01*
X789081Y-105108D01*
X788982Y-104360D01*
X788694Y-103664D01*
X788235Y-103065D01*
X787636Y-102606D01*
X786940Y-102318D01*
X786192Y-102219D01*
X785444Y-102318D01*
X784870Y-102556D01*
X783122Y-100807D01*
X782758Y-100564D01*
X782329Y-100478D01*
D02*
G37*
G36*
X497448Y-100578D02*
X497448Y-100578D01*
X455741D01*
X455741Y-100578D01*
X455311Y-100664D01*
X454948Y-100907D01*
X454948Y-100907D01*
X453507Y-102347D01*
X453436Y-102318D01*
X452688Y-102219D01*
X451941Y-102318D01*
X451244Y-102606D01*
X450646Y-103065D01*
X450187Y-103664D01*
X449898Y-104360D01*
X449800Y-105108D01*
X449898Y-105856D01*
X450187Y-106552D01*
X450646Y-107150D01*
X451244Y-107609D01*
X451941Y-107898D01*
X452688Y-107996D01*
X453436Y-107898D01*
X454132Y-107609D01*
X454731Y-107150D01*
X455190Y-106552D01*
X455478Y-105856D01*
X455577Y-105108D01*
X455478Y-104360D01*
X455240Y-103786D01*
X456205Y-102822D01*
X459572D01*
X459903Y-103275D01*
X460121Y-103822D01*
X459898Y-104360D01*
X459800Y-105108D01*
X459898Y-105856D01*
X460187Y-106552D01*
X460646Y-107150D01*
X461244Y-107609D01*
X461941Y-107898D01*
X462688Y-107996D01*
X463436Y-107898D01*
X464132Y-107609D01*
X464731Y-107150D01*
X465190Y-106552D01*
X465478Y-105856D01*
X465577Y-105108D01*
X465478Y-104360D01*
X465255Y-103822D01*
X465473Y-103275D01*
X465804Y-102822D01*
X469572D01*
X469903Y-103275D01*
X470121Y-103822D01*
X469898Y-104360D01*
X469800Y-105108D01*
X469898Y-105856D01*
X470187Y-106552D01*
X470646Y-107150D01*
X471244Y-107609D01*
X471941Y-107898D01*
X472688Y-107996D01*
X473436Y-107898D01*
X474132Y-107609D01*
X474731Y-107150D01*
X475190Y-106552D01*
X475478Y-105856D01*
X475577Y-105108D01*
X475478Y-104360D01*
X475255Y-103822D01*
X475473Y-103275D01*
X475804Y-102822D01*
X479037D01*
Y-107972D01*
X484765D01*
Y-102822D01*
X488785D01*
X489116Y-103275D01*
X489334Y-103822D01*
X489111Y-104360D01*
X489012Y-105108D01*
X489111Y-105856D01*
X489399Y-106552D01*
X489858Y-107150D01*
X490456Y-107609D01*
X491153Y-107898D01*
X491901Y-107996D01*
X492648Y-107898D01*
X493345Y-107609D01*
X493943Y-107150D01*
X494402Y-106552D01*
X494691Y-105856D01*
X494789Y-105108D01*
X494691Y-104360D01*
X494468Y-103822D01*
X494686Y-103275D01*
X495017Y-102822D01*
X496984D01*
X499042Y-104880D01*
X499012Y-105108D01*
X499111Y-105856D01*
X499399Y-106552D01*
X499858Y-107150D01*
X500456Y-107609D01*
X501153Y-107898D01*
X501901Y-107996D01*
X502648Y-107898D01*
X503345Y-107609D01*
X503943Y-107150D01*
X504402Y-106552D01*
X504691Y-105856D01*
X504789Y-105108D01*
X504691Y-104360D01*
X504402Y-103664D01*
X503943Y-103065D01*
X503345Y-102606D01*
X502648Y-102318D01*
X501901Y-102219D01*
X501153Y-102318D01*
X500456Y-102606D01*
X500165Y-102830D01*
X498242Y-100907D01*
X497878Y-100664D01*
X497448Y-100578D01*
D02*
G37*
G36*
X400101Y-100278D02*
X400101Y-100278D01*
X358993D01*
X358564Y-100364D01*
X358200Y-100607D01*
X358200Y-100607D01*
X355986Y-102821D01*
X355707Y-102606D01*
X355011Y-102318D01*
X354263Y-102219D01*
X353515Y-102318D01*
X352819Y-102606D01*
X352221Y-103065D01*
X351762Y-103664D01*
X351473Y-104360D01*
X351375Y-105108D01*
X351473Y-105856D01*
X351762Y-106552D01*
X352221Y-107150D01*
X352819Y-107609D01*
X353515Y-107898D01*
X354263Y-107996D01*
X355011Y-107898D01*
X355707Y-107609D01*
X356306Y-107150D01*
X356765Y-106552D01*
X357053Y-105856D01*
X357152Y-105108D01*
X357119Y-104860D01*
X359458Y-102522D01*
X361377D01*
X361871Y-103522D01*
X361761Y-103664D01*
X361473Y-104360D01*
X361374Y-105108D01*
X361473Y-105856D01*
X361761Y-106552D01*
X362221Y-107150D01*
X362819Y-107609D01*
X363515Y-107898D01*
X364263Y-107996D01*
X365011Y-107898D01*
X365707Y-107609D01*
X366305Y-107150D01*
X366764Y-106552D01*
X367053Y-105856D01*
X367151Y-105108D01*
X367053Y-104360D01*
X366764Y-103664D01*
X366655Y-103522D01*
X367149Y-102522D01*
X371377D01*
X371870Y-103522D01*
X371761Y-103664D01*
X371473Y-104360D01*
X371375Y-105108D01*
X371473Y-105856D01*
X371761Y-106552D01*
X372220Y-107150D01*
X372819Y-107609D01*
X373515Y-107898D01*
X374263Y-107996D01*
X375011Y-107898D01*
X375707Y-107609D01*
X376306Y-107150D01*
X376764Y-106552D01*
X377053Y-105856D01*
X377151Y-105108D01*
X377053Y-104360D01*
X376764Y-103664D01*
X376656Y-103522D01*
X377149Y-102522D01*
X380612D01*
Y-107972D01*
X386339D01*
Y-102522D01*
X390590D01*
X391083Y-103522D01*
X390974Y-103664D01*
X390686Y-104360D01*
X390587Y-105108D01*
X390686Y-105856D01*
X390974Y-106552D01*
X391433Y-107150D01*
X392031Y-107609D01*
X392728Y-107898D01*
X393476Y-107996D01*
X394223Y-107898D01*
X394920Y-107609D01*
X395518Y-107150D01*
X395977Y-106552D01*
X396266Y-105856D01*
X396364Y-105108D01*
X396266Y-104360D01*
X395977Y-103664D01*
X395868Y-103522D01*
X396361Y-102522D01*
X399637D01*
X400917Y-103802D01*
X400686Y-104360D01*
X400587Y-105108D01*
X400686Y-105856D01*
X400974Y-106552D01*
X401433Y-107150D01*
X402031Y-107609D01*
X402728Y-107898D01*
X403476Y-107996D01*
X404223Y-107898D01*
X404920Y-107609D01*
X405518Y-107150D01*
X405977Y-106552D01*
X406266Y-105856D01*
X406364Y-105108D01*
X406266Y-104360D01*
X405977Y-103664D01*
X405518Y-103065D01*
X404920Y-102606D01*
X404223Y-102318D01*
X403476Y-102219D01*
X402728Y-102318D01*
X402641Y-102354D01*
X400894Y-100607D01*
X400530Y-100364D01*
X400101Y-100278D01*
D02*
G37*
G36*
X586339Y-102244D02*
X580612D01*
Y-107972D01*
X586339D01*
Y-102244D01*
D02*
G37*
G36*
X435552D02*
X429824D01*
Y-107972D01*
X435552D01*
Y-102244D01*
D02*
G37*
G36*
X337127D02*
X331399D01*
Y-107972D01*
X337127D01*
Y-102244D01*
D02*
G37*
G36*
X201339D02*
X195612D01*
Y-107972D01*
X201339D01*
Y-102244D01*
D02*
G37*
G36*
X806192Y-102219D02*
X805445Y-102318D01*
X804748Y-102606D01*
X804150Y-103065D01*
X803691Y-103664D01*
X803402Y-104360D01*
X803304Y-105108D01*
X803402Y-105856D01*
X803691Y-106552D01*
X804150Y-107150D01*
X804748Y-107609D01*
X805445Y-107898D01*
X806192Y-107996D01*
X806940Y-107898D01*
X807636Y-107609D01*
X808235Y-107150D01*
X808694Y-106552D01*
X808982Y-105856D01*
X809081Y-105108D01*
X808982Y-104360D01*
X808694Y-103664D01*
X808235Y-103065D01*
X807636Y-102606D01*
X806940Y-102318D01*
X806192Y-102219D01*
D02*
G37*
G36*
X672688D02*
X671941Y-102318D01*
X671244Y-102606D01*
X670646Y-103065D01*
X670187Y-103664D01*
X669898Y-104360D01*
X669800Y-105108D01*
X669898Y-105856D01*
X670187Y-106552D01*
X670646Y-107150D01*
X671244Y-107609D01*
X671941Y-107898D01*
X672688Y-107996D01*
X673436Y-107898D01*
X674132Y-107609D01*
X674731Y-107150D01*
X675190Y-106552D01*
X675478Y-105856D01*
X675577Y-105108D01*
X675478Y-104360D01*
X675190Y-103664D01*
X674731Y-103065D01*
X674132Y-102606D01*
X673436Y-102318D01*
X672688Y-102219D01*
D02*
G37*
G36*
X662688D02*
X661941Y-102318D01*
X661244Y-102606D01*
X660646Y-103065D01*
X660187Y-103664D01*
X659898Y-104360D01*
X659800Y-105108D01*
X659898Y-105856D01*
X660187Y-106552D01*
X660646Y-107150D01*
X661244Y-107609D01*
X661941Y-107898D01*
X662688Y-107996D01*
X663436Y-107898D01*
X664132Y-107609D01*
X664731Y-107150D01*
X665190Y-106552D01*
X665478Y-105856D01*
X665577Y-105108D01*
X665478Y-104360D01*
X665190Y-103664D01*
X664731Y-103065D01*
X664132Y-102606D01*
X663436Y-102318D01*
X662688Y-102219D01*
D02*
G37*
G36*
X593476D02*
X592728Y-102318D01*
X592031Y-102606D01*
X591433Y-103065D01*
X590974Y-103664D01*
X590686Y-104360D01*
X590587Y-105108D01*
X590686Y-105856D01*
X590974Y-106552D01*
X591433Y-107150D01*
X592031Y-107609D01*
X592728Y-107898D01*
X593476Y-107996D01*
X594223Y-107898D01*
X594920Y-107609D01*
X595518Y-107150D01*
X595977Y-106552D01*
X596266Y-105856D01*
X596364Y-105108D01*
X596266Y-104360D01*
X595977Y-103664D01*
X595518Y-103065D01*
X594920Y-102606D01*
X594223Y-102318D01*
X593476Y-102219D01*
D02*
G37*
G36*
X521901D02*
X521153Y-102318D01*
X520457Y-102606D01*
X519858Y-103065D01*
X519399Y-103664D01*
X519111Y-104360D01*
X519012Y-105108D01*
X519111Y-105856D01*
X519399Y-106552D01*
X519858Y-107150D01*
X520457Y-107609D01*
X521153Y-107898D01*
X521901Y-107996D01*
X522648Y-107898D01*
X523345Y-107609D01*
X523943Y-107150D01*
X524402Y-106552D01*
X524691Y-105856D01*
X524789Y-105108D01*
X524691Y-104360D01*
X524402Y-103664D01*
X523943Y-103065D01*
X523345Y-102606D01*
X522648Y-102318D01*
X521901Y-102219D01*
D02*
G37*
G36*
X511901D02*
X511153Y-102318D01*
X510457Y-102606D01*
X509858Y-103065D01*
X509399Y-103664D01*
X509111Y-104360D01*
X509012Y-105108D01*
X509111Y-105856D01*
X509399Y-106552D01*
X509858Y-107150D01*
X510457Y-107609D01*
X511153Y-107898D01*
X511901Y-107996D01*
X512648Y-107898D01*
X513345Y-107609D01*
X513943Y-107150D01*
X514402Y-106552D01*
X514691Y-105856D01*
X514789Y-105108D01*
X514691Y-104360D01*
X514402Y-103664D01*
X513943Y-103065D01*
X513345Y-102606D01*
X512648Y-102318D01*
X511901Y-102219D01*
D02*
G37*
G36*
X442688D02*
X441941Y-102318D01*
X441244Y-102606D01*
X440646Y-103065D01*
X440187Y-103664D01*
X439898Y-104360D01*
X439800Y-105108D01*
X439898Y-105856D01*
X440187Y-106552D01*
X440646Y-107150D01*
X441244Y-107609D01*
X441941Y-107898D01*
X442688Y-107996D01*
X443436Y-107898D01*
X444132Y-107609D01*
X444731Y-107150D01*
X445190Y-106552D01*
X445478Y-105856D01*
X445577Y-105108D01*
X445478Y-104360D01*
X445190Y-103664D01*
X444731Y-103065D01*
X444132Y-102606D01*
X443436Y-102318D01*
X442688Y-102219D01*
D02*
G37*
G36*
X423476D02*
X422728Y-102318D01*
X422031Y-102606D01*
X421433Y-103065D01*
X420974Y-103664D01*
X420685Y-104360D01*
X420587Y-105108D01*
X420685Y-105856D01*
X420974Y-106552D01*
X421433Y-107150D01*
X422031Y-107609D01*
X422728Y-107898D01*
X423476Y-107996D01*
X424223Y-107898D01*
X424920Y-107609D01*
X425518Y-107150D01*
X425977Y-106552D01*
X426266Y-105856D01*
X426364Y-105108D01*
X426266Y-104360D01*
X425977Y-103664D01*
X425518Y-103065D01*
X424920Y-102606D01*
X424223Y-102318D01*
X423476Y-102219D01*
D02*
G37*
G36*
X413476D02*
X412728Y-102318D01*
X412031Y-102606D01*
X411433Y-103065D01*
X410974Y-103664D01*
X410685Y-104360D01*
X410587Y-105108D01*
X410685Y-105856D01*
X410974Y-106552D01*
X411433Y-107150D01*
X412031Y-107609D01*
X412728Y-107898D01*
X413476Y-107996D01*
X414223Y-107898D01*
X414920Y-107609D01*
X415518Y-107150D01*
X415977Y-106552D01*
X416266Y-105856D01*
X416364Y-105108D01*
X416266Y-104360D01*
X415977Y-103664D01*
X415518Y-103065D01*
X414920Y-102606D01*
X414223Y-102318D01*
X413476Y-102219D01*
D02*
G37*
G36*
X344263D02*
X343515Y-102318D01*
X342819Y-102606D01*
X342220Y-103065D01*
X341761Y-103664D01*
X341473Y-104360D01*
X341374Y-105108D01*
X341473Y-105856D01*
X341761Y-106552D01*
X342220Y-107150D01*
X342819Y-107609D01*
X343515Y-107898D01*
X344263Y-107996D01*
X345011Y-107898D01*
X345707Y-107609D01*
X346305Y-107150D01*
X346764Y-106552D01*
X347053Y-105856D01*
X347151Y-105108D01*
X347053Y-104360D01*
X346764Y-103664D01*
X346305Y-103065D01*
X345707Y-102606D01*
X345011Y-102318D01*
X344263Y-102219D01*
D02*
G37*
G36*
X287688D02*
X286941Y-102318D01*
X286244Y-102606D01*
X285646Y-103065D01*
X285187Y-103664D01*
X284898Y-104360D01*
X284800Y-105108D01*
X284898Y-105856D01*
X285187Y-106552D01*
X285646Y-107150D01*
X286244Y-107609D01*
X286941Y-107898D01*
X287688Y-107996D01*
X288436Y-107898D01*
X289132Y-107609D01*
X289731Y-107150D01*
X290190Y-106552D01*
X290478Y-105856D01*
X290577Y-105108D01*
X290478Y-104360D01*
X290190Y-103664D01*
X289731Y-103065D01*
X289132Y-102606D01*
X288436Y-102318D01*
X287688Y-102219D01*
D02*
G37*
G36*
X277688D02*
X276941Y-102318D01*
X276244Y-102606D01*
X275646Y-103065D01*
X275187Y-103664D01*
X274898Y-104360D01*
X274800Y-105108D01*
X274898Y-105856D01*
X275187Y-106552D01*
X275646Y-107150D01*
X276244Y-107609D01*
X276941Y-107898D01*
X277688Y-107996D01*
X278436Y-107898D01*
X279132Y-107609D01*
X279731Y-107150D01*
X280190Y-106552D01*
X280478Y-105856D01*
X280577Y-105108D01*
X280478Y-104360D01*
X280190Y-103664D01*
X279731Y-103065D01*
X279132Y-102606D01*
X278436Y-102318D01*
X277688Y-102219D01*
D02*
G37*
G36*
X208476D02*
X207728Y-102318D01*
X207031Y-102606D01*
X206433Y-103065D01*
X205974Y-103664D01*
X205685Y-104360D01*
X205587Y-105108D01*
X205685Y-105856D01*
X205974Y-106552D01*
X206433Y-107150D01*
X207031Y-107609D01*
X207728Y-107898D01*
X208476Y-107996D01*
X209223Y-107898D01*
X209920Y-107609D01*
X210518Y-107150D01*
X210977Y-106552D01*
X211266Y-105856D01*
X211364Y-105108D01*
X211266Y-104360D01*
X210977Y-103664D01*
X210518Y-103065D01*
X209920Y-102606D01*
X209223Y-102318D01*
X208476Y-102219D01*
D02*
G37*
G36*
X127058Y-102382D02*
X126119Y-102506D01*
X125243Y-102869D01*
X124491Y-103446D01*
X123914Y-104198D01*
X123551Y-105074D01*
X123427Y-106013D01*
X123551Y-106953D01*
X123914Y-107829D01*
X124491Y-108581D01*
X125243Y-109158D01*
X126119Y-109521D01*
X127058Y-109644D01*
X127998Y-109521D01*
X128874Y-109158D01*
X129626Y-108581D01*
X130203Y-107829D01*
X130566Y-106953D01*
X130689Y-106013D01*
X130566Y-105074D01*
X130203Y-104198D01*
X129626Y-103446D01*
X128874Y-102869D01*
X127998Y-102506D01*
X127058Y-102382D01*
D02*
G37*
G36*
X117058D02*
X116119Y-102506D01*
X115243Y-102869D01*
X114491Y-103446D01*
X113914Y-104198D01*
X113551Y-105074D01*
X113427Y-106013D01*
X113551Y-106953D01*
X113914Y-107829D01*
X114491Y-108581D01*
X115243Y-109158D01*
X116119Y-109521D01*
X117058Y-109644D01*
X117998Y-109521D01*
X118874Y-109158D01*
X119626Y-108581D01*
X120203Y-107829D01*
X120566Y-106953D01*
X120689Y-106013D01*
X120566Y-105074D01*
X120203Y-104198D01*
X119626Y-103446D01*
X118874Y-102869D01*
X117998Y-102506D01*
X117058Y-102382D01*
D02*
G37*
G36*
X107058D02*
X106119Y-102506D01*
X105243Y-102869D01*
X104491Y-103446D01*
X103914Y-104198D01*
X103551Y-105074D01*
X103427Y-106013D01*
X103551Y-106953D01*
X103914Y-107829D01*
X104491Y-108581D01*
X105243Y-109158D01*
X106119Y-109521D01*
X107058Y-109644D01*
X107998Y-109521D01*
X108874Y-109158D01*
X109626Y-108581D01*
X110203Y-107829D01*
X110566Y-106953D01*
X110689Y-106013D01*
X110566Y-105074D01*
X110203Y-104198D01*
X109626Y-103446D01*
X108874Y-102869D01*
X107998Y-102506D01*
X107058Y-102382D01*
D02*
G37*
G36*
X87058D02*
X86119Y-102506D01*
X85243Y-102869D01*
X84491Y-103446D01*
X83914Y-104198D01*
X83551Y-105074D01*
X83427Y-106013D01*
X83551Y-106953D01*
X83914Y-107829D01*
X84491Y-108581D01*
X85243Y-109158D01*
X86119Y-109521D01*
X87058Y-109644D01*
X87998Y-109521D01*
X88874Y-109158D01*
X89626Y-108581D01*
X90203Y-107829D01*
X90566Y-106953D01*
X90689Y-106013D01*
X90566Y-105074D01*
X90203Y-104198D01*
X89626Y-103446D01*
X88874Y-102869D01*
X87998Y-102506D01*
X87058Y-102382D01*
D02*
G37*
G36*
X780831Y-134118D02*
X779594Y-134239D01*
X778405Y-134600D01*
X777309Y-135186D01*
X776348Y-135974D01*
X775560Y-136935D01*
X774974Y-138031D01*
X774613Y-139220D01*
X774492Y-140457D01*
X774613Y-141694D01*
X774974Y-142883D01*
X775560Y-143979D01*
X776348Y-144939D01*
X777309Y-145728D01*
X778405Y-146314D01*
X779594Y-146674D01*
X780831Y-146796D01*
X782067Y-146674D01*
X783257Y-146314D01*
X784352Y-145728D01*
X785313Y-144939D01*
X786101Y-143979D01*
X786687Y-142883D01*
X787048Y-141694D01*
X787170Y-140457D01*
X787048Y-139220D01*
X786687Y-138031D01*
X786101Y-136935D01*
X785313Y-135974D01*
X784352Y-135186D01*
X783257Y-134600D01*
X782067Y-134239D01*
X780831Y-134118D01*
D02*
G37*
G36*
X35555D02*
X34318Y-134239D01*
X33129Y-134600D01*
X32033Y-135186D01*
X31073Y-135974D01*
X30284Y-136935D01*
X29699Y-138031D01*
X29338Y-139220D01*
X29216Y-140457D01*
X29338Y-141694D01*
X29699Y-142883D01*
X30284Y-143979D01*
X31073Y-144939D01*
X32033Y-145728D01*
X33129Y-146314D01*
X34318Y-146674D01*
X35555Y-146796D01*
X36792Y-146674D01*
X37981Y-146314D01*
X39077Y-145728D01*
X40038Y-144939D01*
X40826Y-143979D01*
X41412Y-142883D01*
X41772Y-141694D01*
X41894Y-140457D01*
X41772Y-139220D01*
X41412Y-138031D01*
X40826Y-136935D01*
X40038Y-135974D01*
X39077Y-135186D01*
X37981Y-134600D01*
X36792Y-134239D01*
X35555Y-134118D01*
D02*
G37*
%LPD*%
G36*
X280235Y-5447D02*
X280125Y-6000D01*
X280294Y-6849D01*
X280774Y-7568D01*
X281221Y-7866D01*
Y-9399D01*
X280402Y-9739D01*
X279598Y-10356D01*
X278981Y-11159D01*
X278593Y-12095D01*
X278461Y-13100D01*
X278593Y-14105D01*
X278981Y-15041D01*
X279471Y-15678D01*
X279303Y-16288D01*
X279042Y-16679D01*
X276748D01*
Y-13600D01*
X268252D01*
Y-16679D01*
X226628D01*
X226367Y-16288D01*
X226199Y-15678D01*
X226689Y-15041D01*
X227077Y-14105D01*
X227209Y-13100D01*
X227077Y-12095D01*
X226737Y-11276D01*
X233567Y-4447D01*
X279654D01*
X280235Y-5447D01*
D02*
G37*
%LPC*%
G36*
X276748Y-8852D02*
X273000D01*
Y-12600D01*
X276748D01*
Y-8852D01*
D02*
G37*
G36*
X272000D02*
X268252D01*
Y-12600D01*
X272000D01*
Y-8852D01*
D02*
G37*
%LPD*%
D10*
X117448Y-85200D02*
X174900D01*
X97058Y-105590D02*
X117448Y-85200D01*
X147900Y-71500D02*
X153500D01*
X114779D02*
X147900D01*
X142079Y-68800D02*
X178700D01*
X117058Y-43779D02*
X142079Y-68800D01*
X87058Y-43779D02*
X114779Y-71500D01*
X90179Y-76900D02*
X144300D01*
X57058Y-43779D02*
X90179Y-76900D01*
X67058Y-43779D02*
X97460Y-74181D01*
X144300Y-76900D02*
X158500D01*
X127058Y-124500D02*
X228476D01*
X126300D02*
X127058D01*
X160531Y-39575D02*
X683169D01*
X778529Y-17800D02*
X805837Y-45108D01*
X753929Y-23200D02*
X775837Y-45108D01*
X746629Y-25900D02*
X765837Y-45108D01*
X740805Y-28600D02*
X757313Y-45108D01*
X733505Y-31300D02*
X747313Y-45108D01*
X716205Y-34000D02*
X727313Y-45108D01*
X751045Y-129900D02*
X775837Y-105108D01*
X743745Y-127200D02*
X765837Y-105108D01*
X727921Y-124500D02*
X747313Y-105108D01*
X710621Y-121800D02*
X727313Y-105108D01*
X703321Y-119100D02*
X717313Y-105108D01*
X593476Y-34000D02*
X716205D01*
X613476Y-31300D02*
X733505D01*
X623476Y-28600D02*
X740805D01*
X613476Y-124500D02*
X727921D01*
X737313Y-105108D02*
X740821Y-101600D01*
X782329D01*
X785837Y-105108D01*
X603809D02*
X607417Y-101500D01*
X648725D01*
X652333Y-105108D01*
X452333D02*
X455741Y-101700D01*
X497448D01*
X500856Y-105108D01*
X355285D02*
X358993Y-101400D01*
X400101D01*
X403809Y-105108D01*
X218809D02*
X222817Y-101100D01*
X263325D01*
X267333Y-105108D01*
X82948Y-79700D02*
X163500D01*
X100248Y-82400D02*
X138100D01*
X158500D01*
X97460Y-74181D02*
X178600D01*
X246833Y-25400D02*
X247333Y-25900D01*
X246333D02*
X246833Y-25400D01*
X141600Y-25900D02*
X246333D01*
X77058Y-17800D02*
X163500D01*
X107058Y-31300D02*
X203500D01*
X87058Y-127200D02*
X153500D01*
X525976Y-77200D02*
X548195Y-54981D01*
X471864Y-74100D02*
X500856Y-45108D01*
X748100Y-82844D02*
X785837Y-45108D01*
X213500Y-85700D02*
X672600D01*
X675456Y-82844D01*
X748100D01*
X198600Y-82800D02*
X670876D01*
X689945Y-63731D01*
X218809Y-45108D02*
X222301Y-48600D01*
X263841D01*
X267333Y-45108D01*
X193500Y-71200D02*
X301969D01*
X198476Y-119100D02*
X296063D01*
X208476Y-121800D02*
X299000D01*
X193300Y-77000D02*
X267333D01*
X525976D01*
X188500Y-68300D02*
X299000D01*
X183500Y-65400D02*
X296063D01*
X284895Y-62670D02*
X292928D01*
X267333Y-45108D02*
X284895Y-62670D01*
X617541Y-79900D02*
X652333Y-45108D01*
X203500Y-74100D02*
X471864D01*
X768288Y-132656D02*
X795837Y-105108D01*
X173500Y-116400D02*
X572835D01*
X683169D01*
X771229Y-20500D02*
X795837Y-45108D01*
X583476Y-36900D02*
X709105D01*
X717313Y-45108D01*
X642688Y-129900D02*
X751045D01*
X632688Y-127200D02*
X743745D01*
X583476Y-119100D02*
X703321D01*
X593476Y-121800D02*
X710621D01*
X632688Y-25900D02*
X746629D01*
X642688Y-23200D02*
X753929D01*
X662688Y-20500D02*
X771229D01*
X672688Y-17800D02*
X778529D01*
X208500Y-79900D02*
X208700D01*
X617541D01*
X511901Y-20500D02*
X662688D01*
X491901Y-23200D02*
X642688D01*
X481901Y-25900D02*
X632688D01*
X472688Y-28600D02*
X623476D01*
X462688Y-31300D02*
X613476D01*
X442688Y-34000D02*
X593476D01*
X432688Y-36900D02*
X583476D01*
X511901Y-132656D02*
X768288D01*
X491901Y-129900D02*
X642688D01*
X481901Y-127200D02*
X632688D01*
X462688Y-124500D02*
X613476D01*
X442688Y-121800D02*
X593476D01*
X432688Y-119100D02*
X583476D01*
X413476Y-132656D02*
X511901D01*
X393476Y-129900D02*
X491901D01*
X383476Y-127200D02*
X481901D01*
X364263Y-124500D02*
X462688D01*
X299000Y-121800D02*
X344263D01*
X442688D01*
X296063Y-119100D02*
X334263D01*
X432688D01*
X208476Y-34000D02*
X344263D01*
X442688D01*
X228476Y-31300D02*
X364263D01*
X462688D01*
X238476Y-28600D02*
X374263D01*
X472688D01*
X383476Y-25900D02*
X481901D01*
X393476Y-23200D02*
X491901D01*
X413476Y-20500D02*
X511901D01*
X423476Y-17800D02*
X672688D01*
X144300Y-132656D02*
X277688D01*
X413476D01*
X147900Y-129900D02*
X257688D01*
X393476D01*
X153500Y-127200D02*
X247688D01*
X383476D01*
X228476Y-124500D02*
X364263D01*
X107058Y-121800D02*
X208476D01*
X104600Y-36900D02*
X198476D01*
X432688D01*
X203500Y-31300D02*
X228476D01*
X127058Y-28600D02*
X238476D01*
X247333Y-25900D02*
X247688D01*
X383476D01*
X138100Y-23200D02*
X257688D01*
X393476D01*
X168500Y-20500D02*
X277688D01*
X413476D01*
X163500Y-17800D02*
X287688D01*
X423476D01*
X97390Y-44110D02*
X104600Y-36900D01*
X56837Y-34000D02*
X208476D01*
X60568Y-119100D02*
X198476D01*
X47058Y-105590D02*
X60568Y-119100D01*
X57058Y-105590D02*
X82948Y-79700D01*
X77058Y-105590D02*
X100248Y-82400D01*
X47058Y-43779D02*
X56837Y-34000D01*
X75068Y-113600D02*
X188500D01*
X67058Y-105590D02*
X75068Y-113600D01*
X282343Y-13100D02*
Y-6000D01*
X233102Y-3325D02*
X292253D01*
X223328Y-13100D02*
X233102Y-3325D01*
X292253D02*
X302028Y-13100D01*
D11*
X689945Y-86731D02*
D03*
X699945D02*
D03*
X689945Y-63731D02*
D03*
X699945D02*
D03*
X548195Y-95481D02*
D03*
X558195D02*
D03*
X548195Y-54981D02*
D03*
X558195D02*
D03*
D12*
X193800Y-13100D02*
D03*
X272500D02*
D03*
D13*
X203643D02*
D03*
X213485D02*
D03*
X223328D02*
D03*
X302028D02*
D03*
X292185D02*
D03*
X282343D02*
D03*
D14*
X481901Y-45108D02*
D03*
X491901D02*
D03*
X501901D02*
D03*
X511901D02*
D03*
X521901D02*
D03*
Y-105108D02*
D03*
X511901D02*
D03*
X501901D02*
D03*
X491901D02*
D03*
X766192Y-45108D02*
D03*
X776192D02*
D03*
X786192D02*
D03*
X796192D02*
D03*
X806192D02*
D03*
Y-105108D02*
D03*
X796192D02*
D03*
X786192D02*
D03*
X776192D02*
D03*
X432688Y-45108D02*
D03*
X442688D02*
D03*
X452688D02*
D03*
X462688D02*
D03*
X472688D02*
D03*
Y-105108D02*
D03*
X462688D02*
D03*
X452688D02*
D03*
X442688D02*
D03*
X716980Y-45108D02*
D03*
X726979D02*
D03*
X736979D02*
D03*
X746980D02*
D03*
X756980D02*
D03*
Y-105108D02*
D03*
X746980D02*
D03*
X736979D02*
D03*
X726979D02*
D03*
X383476Y-45108D02*
D03*
X393476D02*
D03*
X403476D02*
D03*
X413476D02*
D03*
X423476D02*
D03*
Y-105108D02*
D03*
X413476D02*
D03*
X403476D02*
D03*
X393476D02*
D03*
X334263Y-45108D02*
D03*
X344263D02*
D03*
X354263D02*
D03*
X364263D02*
D03*
X374263D02*
D03*
Y-105108D02*
D03*
X364263D02*
D03*
X354263D02*
D03*
X344263D02*
D03*
X247688Y-45108D02*
D03*
X257688D02*
D03*
X267688D02*
D03*
X277688D02*
D03*
X287688D02*
D03*
Y-105108D02*
D03*
X277688D02*
D03*
X267688D02*
D03*
X257688D02*
D03*
X632688Y-45108D02*
D03*
X642688D02*
D03*
X652688D02*
D03*
X662688D02*
D03*
X672688D02*
D03*
Y-105108D02*
D03*
X662688D02*
D03*
X652688D02*
D03*
X642688D02*
D03*
X198476Y-45108D02*
D03*
X208476D02*
D03*
X218476D02*
D03*
X228476D02*
D03*
X238476D02*
D03*
Y-105108D02*
D03*
X228476D02*
D03*
X218476D02*
D03*
X208476D02*
D03*
X583476Y-45108D02*
D03*
X593476D02*
D03*
X603476D02*
D03*
X613476D02*
D03*
X623476D02*
D03*
Y-105108D02*
D03*
X613476D02*
D03*
X603476D02*
D03*
X593476D02*
D03*
D15*
X481901D02*
D03*
X766192D02*
D03*
X432688D02*
D03*
X716980D02*
D03*
X383476D02*
D03*
X334263D02*
D03*
X247688D02*
D03*
X632688D02*
D03*
X198476D02*
D03*
X583476D02*
D03*
D16*
X97058Y-106013D02*
D03*
X47058Y-44202D02*
D03*
X57058D02*
D03*
X67058D02*
D03*
X77058D02*
D03*
X87058D02*
D03*
X97058D02*
D03*
X107058D02*
D03*
X117058D02*
D03*
X127058D02*
D03*
Y-106013D02*
D03*
X117058D02*
D03*
X107058D02*
D03*
X87058D02*
D03*
X77058D02*
D03*
X67058D02*
D03*
X57058D02*
D03*
X47058D02*
D03*
D17*
X174900Y-85200D02*
D03*
X147900Y-129900D02*
D03*
Y-71500D02*
D03*
X178700Y-68800D02*
D03*
X107058Y-121800D02*
D03*
X127058Y-124500D02*
D03*
X227264Y-93080D02*
D03*
X188189Y-47313D02*
D03*
X160531Y-39575D02*
D03*
X593476Y-34000D02*
D03*
X613476Y-31300D02*
D03*
X642688Y-23200D02*
D03*
X632688Y-25900D02*
D03*
X662688Y-20500D02*
D03*
X672688Y-17800D02*
D03*
X583476Y-36900D02*
D03*
X623476Y-28600D02*
D03*
X572835Y-39700D02*
D03*
X334263Y-36800D02*
D03*
X344263Y-34000D02*
D03*
X364263Y-31300D02*
D03*
X374263Y-28600D02*
D03*
X383476Y-25900D02*
D03*
X393476Y-23200D02*
D03*
X413476Y-20500D02*
D03*
X423476Y-17800D02*
D03*
X432688Y-36900D02*
D03*
X442688Y-34000D02*
D03*
X462688Y-31300D02*
D03*
X472688Y-28600D02*
D03*
X481901Y-25900D02*
D03*
X491901Y-23200D02*
D03*
X511901Y-20500D02*
D03*
X521901Y-17700D02*
D03*
X572835Y-116400D02*
D03*
X198476Y-36900D02*
D03*
X208476Y-34000D02*
D03*
X228476Y-31300D02*
D03*
X238476Y-28600D02*
D03*
X247688Y-25900D02*
D03*
X257688Y-23200D02*
D03*
X277688Y-20500D02*
D03*
X287688Y-17800D02*
D03*
X583476Y-119100D02*
D03*
X593476Y-121800D02*
D03*
X613476Y-124500D02*
D03*
X632688Y-127200D02*
D03*
X642688Y-129900D02*
D03*
X662688Y-132700D02*
D03*
X334263Y-119100D02*
D03*
X344263Y-121800D02*
D03*
X364263Y-124500D02*
D03*
X383476Y-127200D02*
D03*
X393476Y-129900D02*
D03*
X413476Y-132656D02*
D03*
X432688Y-119100D02*
D03*
X442688Y-121800D02*
D03*
X462688Y-124500D02*
D03*
X481901Y-127200D02*
D03*
X491901Y-129900D02*
D03*
X511901Y-132656D02*
D03*
X198476Y-119100D02*
D03*
X208476Y-121800D02*
D03*
X228476Y-124500D02*
D03*
X247688Y-127200D02*
D03*
X257688Y-129900D02*
D03*
X277688Y-132656D02*
D03*
X87058Y-127200D02*
D03*
X77058Y-17800D02*
D03*
X127058Y-28600D02*
D03*
X107058Y-31300D02*
D03*
X138100Y-23200D02*
D03*
X144300Y-132656D02*
D03*
X141600Y-79700D02*
D03*
X158500Y-82400D02*
D03*
X153500Y-71500D02*
D03*
X163500Y-79700D02*
D03*
X138100Y-82400D02*
D03*
X173500Y-116400D02*
D03*
X158500Y-76900D02*
D03*
X144300D02*
D03*
X168500Y-20500D02*
D03*
X141600Y-25900D02*
D03*
X163500Y-17800D02*
D03*
X203500Y-31300D02*
D03*
X178500Y-34200D02*
D03*
X173500Y-36700D02*
D03*
X153500Y-127200D02*
D03*
X178600Y-74181D02*
D03*
X213500Y-85700D02*
D03*
X198500Y-82800D02*
D03*
X208700Y-79900D02*
D03*
X193300Y-77000D02*
D03*
X203500Y-74100D02*
D03*
X355285Y-82800D02*
D03*
X267333Y-77000D02*
D03*
X188500Y-68300D02*
D03*
X193500Y-71300D02*
D03*
X183500Y-65400D02*
D03*
X299000Y-121800D02*
D03*
X301969Y-124478D02*
D03*
X296063Y-119100D02*
D03*
X195000Y-28612D02*
D03*
X301969Y-71230D02*
D03*
X299000Y-68300D02*
D03*
X296063Y-65400D02*
D03*
X292928Y-62670D02*
D03*
Y-76939D02*
D03*
X683169Y-116407D02*
D03*
X683169Y-39734D02*
D03*
X305118Y-85700D02*
D03*
X188500Y-113600D02*
D03*
X282343Y-6000D02*
D03*
M02*
