M48
;Layer_Color=9474304
;FILE_FORMAT=2:5
INCH,LZ
;TYPE=PLATED
T1F00S00C0.01575
T2F00S00C0.02953
T3F00S00C0.03000
T4F00S00C0.03583
T5F00S00C0.04331
;TYPE=NON_PLATED
T6F00S00C0.11417
%
T01
X0087058Y-01272
X0107058Y-01218
X0127058Y-01245
X01443Y-0132656
X01479Y-01299
X01535Y-01272
X01735Y-01164
X01885Y-01136
X01933Y-0077
X01935Y-00713
X01885Y-00683
X01835Y-00654
X01787Y-00688
X01786Y-0074181
X01749Y-00852
X01635Y-00797
X01585Y-00824
Y-00769
X01535Y-00715
X01479
X01443Y-00769
X01416Y-00797
X01381Y-00824
X01985Y-00828
X02087Y-00799
X02135Y-00857
X0227264Y-009308
X0228476Y-01245
X0247688Y-01272
X0257688Y-01299
X0277688Y-0132656
X0296063Y-01191
X0299Y-01218
X0301969Y-0124478
X0334263Y-01191
X0344263Y-01218
X0305118Y-00857
X0301969Y-007123
X0299Y-00683
X0296063Y-00654
X0292928Y-006267
Y-0076939
X0267333Y-0077
X02035Y-00741
X0198476Y-01191
X0208476Y-01218
X0364263Y-01245
X0383476Y-01272
X0393476Y-01299
X0413476Y-0132656
X0432688Y-01191
X0442688Y-01218
X0462688Y-01245
X0481901Y-01272
X0491901Y-01299
X0355285Y-00828
X0511901Y-0132656
X0572835Y-01164
X0583476Y-01191
X0593476Y-01218
X0613476Y-01245
X0632688Y-01272
X0642688Y-01299
X0662688Y-01327
X0683169Y-0116407
X0683169Y-0039734
X0672688Y-00178
X0662688Y-00205
X0642688Y-00232
X0632688Y-00259
X0623476Y-00286
X0613476Y-00313
X0593476Y-0034
X0583476Y-00369
X0572835Y-00397
X0521901Y-00177
X0511901Y-00205
X0491901Y-00232
X0481901Y-00259
X0472688Y-00286
X0462688Y-00313
X0442688Y-0034
X0432688Y-00369
X0423476Y-00178
X0413476Y-00205
X0393476Y-00232
X0383476Y-00259
X0374263Y-00286
X0364263Y-00313
X0344263Y-0034
X0334263Y-00368
X0287688Y-00178
X0277688Y-00205
X0282343Y-0006
X0257688Y-00232
X0247688Y-00259
X0238476Y-00286
X0228476Y-00313
X0208476Y-0034
X02035Y-00313
X0198476Y-00369
X0195Y-0028612
X01785Y-00342
X01735Y-00367
X0160531Y-0039575
X01635Y-00178
X01685Y-00205
X01416Y-00259
X01381Y-00232
X0127058Y-00286
X0107058Y-00313
X0077058Y-00178
X0188189Y-0047313
T02
X0198476Y-0105108
X0208476
X0218476
X0228476
X0238476
X0247688
X0257688
X0267688
X0277688
X0287688
X0334263
X0344263
X0354263
X0364263
X0374263
X0383476
X0393476
X0403476
X0413476
X0423476
X0432688
X0442688
X0452688
X0462688
X0472688
X0481901
X0491901
X0501901
X0511901
X0521901
X0583476
X0593476
X0603476
X0613476
X0623476
X0632688
X0642688
X0652688
X0662688
X0672688
X071698
X0726979
X0736979
X074698
X075698
X0766192
X0776192
X0786192
X0796192
X0806192
Y-0045108
X0796192
X0786192
X0776192
X0766192
X075698
X074698
X0736979
X0726979
X071698
X0672688
X0662688
X0652688
X0642688
X0632688
X0623476
X0613476
X0603476
X0593476
X0583476
X0521901
X0511901
X0501901
X0491901
X0481901
X0472688
X0462688
X0452688
X0442688
X0432688
X0423476
X0413476
X0403476
X0393476
X0383476
X0374263
X0364263
X0354263
X0344263
X0334263
X0287688
X0277688
X0267688
X0257688
X0247688
X0238476
X0228476
X0218476
X0208476
X0198476
T03
X0047058Y-0106013
X0057058
X0067058
X0077058
X0087058
X0097058
X0107058
X0117058
X0127058
Y-0044202
X0117058
X0107058
X0097058
X0087058
X0077058
X0067058
X0057058
X0047058
T04
X0548195Y-0095481
X0558195
Y-0054981
X0548195
X0689945Y-0063731
X0699945
Y-0086731
X0689945
T05
X0203643Y-00131
X0213485
X0223328
X02725
X0282343
X0292185
X0302028
X01938
T06
X0035555Y-0140457
X0408193
X0780831
X0780833Y-0010011
X0408195
X0035557
M30
