G04 Layer_Color=65535*
%FSLAX25Y25*%
%MOIN*%
G70*
G01*
G75*
%ADD10C,0.01000*%
%ADD26C,0.00394*%
%ADD27C,0.00787*%
%ADD28C,0.00500*%
G36*
X777964Y-34200D02*
X745200D01*
Y-18034D01*
X777964D01*
Y-34200D01*
D02*
G37*
G36*
X568265Y-45100D02*
X538111D01*
Y-28934D01*
X568265D01*
Y-45100D01*
D02*
G37*
G36*
X567398Y-85600D02*
X538900D01*
Y-69434D01*
X567398D01*
Y-85600D01*
D02*
G37*
G36*
X450841Y-34100D02*
X407500D01*
Y-17934D01*
X450841D01*
Y-34100D01*
D02*
G37*
G36*
X650363Y-34189D02*
X605700D01*
Y-17845D01*
X650363D01*
Y-34189D01*
D02*
G37*
G36*
X261231Y-34100D02*
X225000D01*
Y-17934D01*
X261231D01*
Y-34100D01*
D02*
G37*
G36*
X114840Y-30689D02*
X59300D01*
Y-14345D01*
X114840D01*
Y-30689D01*
D02*
G37*
G36*
X697407Y-148842D02*
X498700D01*
Y-129823D01*
X697407D01*
Y-148842D01*
D02*
G37*
%LPC*%
G36*
X763510Y-23034D02*
X761532D01*
Y-29200D01*
X763510D01*
Y-23034D01*
D02*
G37*
G36*
X772964D02*
X771042D01*
X771087Y-27634D01*
X770898D01*
X767665Y-23034D01*
X764376D01*
Y-29200D01*
X766287D01*
X766243Y-24600D01*
X766443D01*
X769687Y-29200D01*
X772964D01*
Y-23034D01*
D02*
G37*
G36*
X760666D02*
X757266D01*
X755433Y-27045D01*
X753600Y-23034D01*
X750200D01*
Y-29200D01*
X752044D01*
X752000Y-24589D01*
X752333D01*
X754655Y-29200D01*
X756222D01*
X758544Y-24589D01*
X758855D01*
X758810Y-29200D01*
X760666D01*
Y-23034D01*
D02*
G37*
G36*
X549288Y-33934D02*
X546366D01*
X543111Y-40100D01*
X545244D01*
X545766Y-39056D01*
X549855D01*
X550377Y-40100D01*
X552510D01*
X549288Y-33934D01*
D02*
G37*
G36*
X563265D02*
X559865D01*
X558032Y-37945D01*
X556199Y-33934D01*
X552799D01*
Y-40100D01*
X554643D01*
X554599Y-35489D01*
X554932D01*
X557254Y-40100D01*
X558821D01*
X561143Y-35489D01*
X561454D01*
X561409Y-40100D01*
X563265D01*
Y-33934D01*
D02*
G37*
%LPD*%
G36*
X549188Y-37700D02*
X546444D01*
X547633Y-35367D01*
X547999D01*
X549188Y-37700D01*
D02*
G37*
%LPC*%
G36*
X562398Y-74434D02*
X558998D01*
X557165Y-78445D01*
X555332Y-74434D01*
X551932D01*
Y-80600D01*
X553777D01*
X553732Y-75989D01*
X554066D01*
X556388Y-80600D01*
X557954D01*
X560276Y-75989D01*
X560587D01*
X560543Y-80600D01*
X562398D01*
Y-74434D01*
D02*
G37*
G36*
X548533D02*
X543900D01*
Y-80600D01*
X545778D01*
Y-79089D01*
X548677D01*
X548833Y-79078D01*
X549088D01*
X549199Y-79067D01*
X549377D01*
X549444Y-79056D01*
X549555D01*
X549588Y-79045D01*
X549633D01*
X549833Y-79022D01*
X550010Y-78989D01*
X550166Y-78945D01*
X550288Y-78911D01*
X550388Y-78878D01*
X550466Y-78845D01*
X550511Y-78834D01*
X550522Y-78822D01*
X550633Y-78756D01*
X550733Y-78678D01*
X550821Y-78600D01*
X550899Y-78522D01*
X550955Y-78456D01*
X550999Y-78400D01*
X551021Y-78356D01*
X551033Y-78345D01*
X551077Y-78256D01*
X551122Y-78145D01*
X551188Y-77900D01*
X551233Y-77634D01*
X551266Y-77378D01*
X551288Y-77134D01*
Y-77023D01*
X551299Y-76934D01*
Y-76856D01*
Y-76789D01*
Y-76756D01*
Y-76745D01*
Y-76523D01*
X551288Y-76334D01*
X551266Y-76145D01*
X551244Y-75978D01*
X551222Y-75823D01*
X551199Y-75689D01*
X551166Y-75567D01*
X551133Y-75456D01*
X551099Y-75367D01*
X551077Y-75289D01*
X551044Y-75223D01*
X551021Y-75167D01*
X550999Y-75134D01*
X550977Y-75100D01*
X550966Y-75078D01*
X550899Y-74989D01*
X550821Y-74923D01*
X550633Y-74790D01*
X550433Y-74690D01*
X550233Y-74612D01*
X550044Y-74556D01*
X549955Y-74534D01*
X549877Y-74512D01*
X549822Y-74501D01*
X549777D01*
X549744Y-74489D01*
X549733D01*
X549655Y-74478D01*
X549566Y-74467D01*
X549455D01*
X549333Y-74456D01*
X549066Y-74445D01*
X548800D01*
X548533Y-74434D01*
D02*
G37*
%LPD*%
G36*
X548411Y-75989D02*
X548533D01*
X548633Y-76000D01*
X548733D01*
X548811Y-76012D01*
X548877D01*
X548933Y-76023D01*
X549011Y-76034D01*
X549066D01*
X549088Y-76045D01*
X549099D01*
X549211Y-76112D01*
X549277Y-76178D01*
X549322Y-76245D01*
X549333Y-76256D01*
Y-76267D01*
X549355Y-76334D01*
X549377Y-76411D01*
X549399Y-76567D01*
X549411Y-76634D01*
Y-76689D01*
Y-76734D01*
Y-76745D01*
Y-76856D01*
X549399Y-76956D01*
X549388Y-77045D01*
Y-77112D01*
X549377Y-77167D01*
X549366Y-77200D01*
X549355Y-77223D01*
Y-77234D01*
X549299Y-77334D01*
X549233Y-77400D01*
X549177Y-77445D01*
X549166Y-77456D01*
X549155D01*
X549066Y-77500D01*
X548988Y-77522D01*
X548922Y-77534D01*
X548822D01*
X548722Y-77545D01*
X545778D01*
Y-75978D01*
X548277D01*
X548411Y-75989D01*
D02*
G37*
%LPC*%
G36*
X428432Y-22934D02*
X421599D01*
Y-29100D01*
X428465D01*
Y-27622D01*
X423455D01*
Y-26623D01*
X428176D01*
Y-25267D01*
X423455D01*
Y-24389D01*
X428432D01*
Y-22934D01*
D02*
G37*
G36*
X434653D02*
X431731D01*
X428476Y-29100D01*
X430609D01*
X431132Y-28056D01*
X435220D01*
X435742Y-29100D01*
X437875D01*
X434653Y-22934D01*
D02*
G37*
G36*
X421344D02*
X418899D01*
X416977Y-25411D01*
X414966Y-22934D01*
X412500D01*
X416033Y-26922D01*
Y-29100D01*
X417977D01*
Y-26922D01*
X421344Y-22934D01*
D02*
G37*
G36*
X443219D02*
X438164D01*
Y-29100D01*
X440042D01*
Y-27534D01*
X443052D01*
X443175Y-27545D01*
X443286D01*
X443353Y-27556D01*
X443408D01*
X443430Y-27567D01*
X443441D01*
X443564Y-27600D01*
X443652Y-27656D01*
X443708Y-27689D01*
X443730Y-27711D01*
X443797Y-27811D01*
X443841Y-27922D01*
X443863Y-27967D01*
Y-28011D01*
X443875Y-28033D01*
Y-28045D01*
X443886Y-28144D01*
X443897Y-28256D01*
X443919Y-28489D01*
Y-28600D01*
Y-28689D01*
Y-28756D01*
Y-28767D01*
Y-28778D01*
Y-29100D01*
X445774D01*
Y-28533D01*
Y-28389D01*
Y-28256D01*
Y-28144D01*
X445763Y-28033D01*
Y-27933D01*
Y-27856D01*
X445752Y-27711D01*
X445741Y-27611D01*
Y-27545D01*
X445730Y-27500D01*
Y-27489D01*
X445686Y-27311D01*
X445652Y-27245D01*
X445619Y-27178D01*
X445586Y-27122D01*
X445563Y-27089D01*
X445552Y-27067D01*
X445541Y-27056D01*
X445430Y-26956D01*
X445297Y-26878D01*
X445163Y-26811D01*
X445019Y-26767D01*
X444886Y-26745D01*
X444786Y-26722D01*
X444741D01*
X444708Y-26711D01*
X444686D01*
X444863Y-26678D01*
X445019Y-26634D01*
X445141Y-26589D01*
X445252Y-26545D01*
X445330Y-26500D01*
X445397Y-26467D01*
X445430Y-26445D01*
X445441Y-26434D01*
X445519Y-26356D01*
X445586Y-26278D01*
X445641Y-26189D01*
X445686Y-26111D01*
X445708Y-26045D01*
X445730Y-25989D01*
X445752Y-25945D01*
Y-25934D01*
X445786Y-25800D01*
X445808Y-25645D01*
X445819Y-25478D01*
X445830Y-25323D01*
X445841Y-25167D01*
Y-25056D01*
Y-25012D01*
Y-24978D01*
Y-24956D01*
Y-24945D01*
Y-24667D01*
X445819Y-24423D01*
X445797Y-24223D01*
X445774Y-24056D01*
X445752Y-23934D01*
X445730Y-23845D01*
X445719Y-23800D01*
X445708Y-23778D01*
X445652Y-23645D01*
X445575Y-23523D01*
X445497Y-23423D01*
X445419Y-23334D01*
X445341Y-23267D01*
X445274Y-23223D01*
X445230Y-23189D01*
X445219Y-23178D01*
X445108Y-23123D01*
X444997Y-23067D01*
X444897Y-23034D01*
X444808Y-23012D01*
X444730Y-22989D01*
X444663D01*
X444619Y-22978D01*
X444608D01*
X444530Y-22967D01*
X444441D01*
X444319Y-22956D01*
X444030D01*
X443863Y-22945D01*
X443375D01*
X443219Y-22934D01*
D02*
G37*
%LPD*%
G36*
X434553Y-26700D02*
X431809D01*
X432998Y-24367D01*
X433365D01*
X434553Y-26700D01*
D02*
G37*
G36*
X443064Y-24489D02*
X443308D01*
X443375Y-24500D01*
X443453D01*
X443552Y-24512D01*
X443630Y-24534D01*
X443675Y-24545D01*
X443697Y-24556D01*
X443786Y-24612D01*
X443841Y-24689D01*
X443875Y-24745D01*
X443886Y-24756D01*
Y-24767D01*
X443908Y-24823D01*
X443930Y-24900D01*
X443941Y-25045D01*
X443952Y-25111D01*
Y-25167D01*
Y-25200D01*
Y-25212D01*
Y-25323D01*
X443941Y-25411D01*
X443930Y-25500D01*
Y-25556D01*
X443919Y-25611D01*
X443908Y-25645D01*
X443897Y-25667D01*
Y-25678D01*
X443852Y-25778D01*
X443797Y-25845D01*
X443752Y-25889D01*
X443741Y-25900D01*
X443730D01*
X443652Y-25934D01*
X443575Y-25956D01*
X443519Y-25967D01*
X443419D01*
X443308Y-25978D01*
X443041D01*
X442897Y-25989D01*
X440042D01*
Y-24478D01*
X442897D01*
X443064Y-24489D01*
D02*
G37*
%LPC*%
G36*
X618888Y-22934D02*
X616911D01*
Y-25134D01*
X612678D01*
Y-22934D01*
X610700D01*
Y-29100D01*
X612678D01*
Y-26856D01*
X616911D01*
Y-29100D01*
X618888D01*
Y-22934D01*
D02*
G37*
G36*
X636853D02*
X634975D01*
Y-25767D01*
Y-25878D01*
Y-25989D01*
X634964Y-26100D01*
Y-26211D01*
X634953Y-26311D01*
Y-26389D01*
X634942Y-26434D01*
Y-26456D01*
X634931Y-26600D01*
X634920Y-26711D01*
X634909Y-26811D01*
X634898Y-26889D01*
X634887Y-26956D01*
Y-27000D01*
X634875Y-27022D01*
Y-27033D01*
X634842Y-27145D01*
X634787Y-27233D01*
X634753Y-27289D01*
X634731Y-27311D01*
X634664Y-27367D01*
X634586Y-27411D01*
X634409Y-27489D01*
X634331Y-27511D01*
X634264Y-27522D01*
X634220Y-27534D01*
X634198D01*
X634120Y-27545D01*
X634031Y-27556D01*
X633831Y-27567D01*
X633598Y-27578D01*
X633376D01*
X633176Y-27589D01*
X632431D01*
X632242Y-27578D01*
X632076Y-27567D01*
X631931D01*
X631798Y-27556D01*
X631687Y-27545D01*
X631587Y-27534D01*
X631498Y-27522D01*
X631420Y-27511D01*
X631365Y-27500D01*
X631309D01*
X631276Y-27489D01*
X631253Y-27478D01*
X631231D01*
X631098Y-27422D01*
X630998Y-27356D01*
X630920Y-27278D01*
X630854Y-27200D01*
X630820Y-27134D01*
X630798Y-27067D01*
X630776Y-27022D01*
Y-27011D01*
X630765Y-26956D01*
X630754Y-26878D01*
Y-26800D01*
X630742Y-26700D01*
X630731Y-26500D01*
X630720Y-26289D01*
Y-26089D01*
X630709Y-26000D01*
Y-25923D01*
Y-25856D01*
Y-25811D01*
Y-25778D01*
Y-25767D01*
Y-22934D01*
X628831D01*
Y-25767D01*
Y-25967D01*
Y-26134D01*
Y-26300D01*
Y-26445D01*
Y-26567D01*
Y-26689D01*
Y-26789D01*
X628843Y-26867D01*
Y-26945D01*
Y-27000D01*
Y-27056D01*
Y-27089D01*
Y-27145D01*
Y-27156D01*
X628865Y-27389D01*
X628876Y-27500D01*
X628898Y-27600D01*
X628909Y-27678D01*
X628920Y-27756D01*
X628932Y-27800D01*
Y-27811D01*
X628976Y-27989D01*
X629032Y-28144D01*
X629098Y-28278D01*
X629187Y-28411D01*
X629276Y-28522D01*
X629376Y-28611D01*
X629476Y-28700D01*
X629576Y-28778D01*
X629676Y-28833D01*
X629765Y-28889D01*
X629854Y-28922D01*
X629931Y-28956D01*
X629998Y-28978D01*
X630043Y-29000D01*
X630076Y-29011D01*
X630087D01*
X630265Y-29044D01*
X630442Y-29067D01*
X630609Y-29089D01*
X630776Y-29111D01*
X630920Y-29122D01*
X631031Y-29133D01*
X631076Y-29144D01*
X631131D01*
X631253Y-29155D01*
X631387D01*
X631665Y-29167D01*
X631953Y-29178D01*
X632231D01*
X632353Y-29189D01*
X633387D01*
X633620Y-29178D01*
X633831D01*
X634020Y-29167D01*
X634198D01*
X634353Y-29155D01*
X634486Y-29144D01*
X634609D01*
X634720Y-29133D01*
X634798D01*
X634875Y-29122D01*
X634931D01*
X634964Y-29111D01*
X634998D01*
X635231Y-29078D01*
X635431Y-29044D01*
X635609Y-29000D01*
X635753Y-28956D01*
X635864Y-28911D01*
X635942Y-28878D01*
X635997Y-28856D01*
X636009Y-28844D01*
X636120Y-28767D01*
X636220Y-28689D01*
X636397Y-28511D01*
X636520Y-28322D01*
X636620Y-28133D01*
X636686Y-27967D01*
X636708Y-27889D01*
X636731Y-27822D01*
X636742Y-27778D01*
Y-27733D01*
X636753Y-27711D01*
Y-27700D01*
X636764Y-27600D01*
X636775Y-27489D01*
X636786Y-27356D01*
X636797Y-27200D01*
X636820Y-26889D01*
X636831Y-26567D01*
Y-26400D01*
X636842Y-26256D01*
Y-26122D01*
Y-26000D01*
X636853Y-25911D01*
Y-25834D01*
Y-25778D01*
Y-25767D01*
Y-22934D01*
D02*
G37*
G36*
X624554Y-22845D02*
X623188D01*
X622877Y-22856D01*
X622610D01*
X622354Y-22867D01*
X622132Y-22878D01*
X621932Y-22889D01*
X621754D01*
X621599Y-22901D01*
X621477Y-22912D01*
X621366Y-22923D01*
X621277Y-22934D01*
X621210D01*
X621166Y-22945D01*
X621132D01*
X620943Y-22978D01*
X620766Y-23034D01*
X620610Y-23089D01*
X620477Y-23167D01*
X620343Y-23245D01*
X620244Y-23334D01*
X620144Y-23423D01*
X620066Y-23512D01*
X619999Y-23601D01*
X619944Y-23689D01*
X619899Y-23767D01*
X619866Y-23834D01*
X619843Y-23900D01*
X619821Y-23945D01*
X619810Y-23967D01*
Y-23978D01*
X619777Y-24101D01*
X619755Y-24234D01*
X619732Y-24389D01*
X619710Y-24545D01*
X619688Y-24878D01*
X619666Y-25212D01*
X619655Y-25367D01*
Y-25512D01*
X619643Y-25645D01*
Y-25756D01*
Y-25856D01*
Y-25923D01*
Y-25978D01*
Y-25989D01*
Y-26256D01*
X619655Y-26500D01*
Y-26734D01*
X619666Y-26934D01*
X619688Y-27122D01*
X619699Y-27300D01*
X619710Y-27445D01*
X619732Y-27578D01*
X619743Y-27700D01*
X619755Y-27800D01*
X619777Y-27878D01*
X619788Y-27945D01*
X619799Y-28000D01*
Y-28033D01*
X619810Y-28056D01*
Y-28067D01*
X619866Y-28222D01*
X619932Y-28367D01*
X620021Y-28489D01*
X620121Y-28600D01*
X620221Y-28700D01*
X620332Y-28789D01*
X620455Y-28856D01*
X620566Y-28911D01*
X620777Y-29011D01*
X620877Y-29044D01*
X620966Y-29067D01*
X621032Y-29078D01*
X621088Y-29089D01*
X621121Y-29100D01*
X621132D01*
X621288Y-29111D01*
X621466Y-29133D01*
X621666Y-29144D01*
X621877Y-29155D01*
X622332Y-29167D01*
X622799Y-29178D01*
X623010D01*
X623221Y-29189D01*
X624587D01*
X624888Y-29178D01*
X625154D01*
X625410Y-29167D01*
X625632Y-29155D01*
X625832D01*
X625998Y-29144D01*
X626154Y-29133D01*
X626276Y-29122D01*
X626387D01*
X626476Y-29111D01*
X626543D01*
X626587Y-29100D01*
X626621D01*
X626810Y-29067D01*
X626987Y-29011D01*
X627143Y-28956D01*
X627287Y-28878D01*
X627409Y-28800D01*
X627509Y-28711D01*
X627609Y-28622D01*
X627687Y-28533D01*
X627754Y-28444D01*
X627809Y-28356D01*
X627854Y-28278D01*
X627887Y-28211D01*
X627909Y-28144D01*
X627932Y-28100D01*
X627943Y-28078D01*
Y-28067D01*
X627976Y-27945D01*
X627998Y-27811D01*
X628020Y-27656D01*
X628043Y-27489D01*
X628076Y-27156D01*
X628098Y-26822D01*
X628109Y-26656D01*
Y-26511D01*
X628121Y-26378D01*
Y-26256D01*
Y-26156D01*
Y-26089D01*
Y-26034D01*
Y-26022D01*
Y-25756D01*
X628109Y-25523D01*
Y-25300D01*
X628098Y-25089D01*
X628076Y-24912D01*
X628065Y-24745D01*
X628054Y-24589D01*
X628032Y-24456D01*
X628020Y-24345D01*
X627998Y-24245D01*
X627987Y-24156D01*
X627976Y-24089D01*
X627965Y-24045D01*
X627954Y-24012D01*
X627943Y-23989D01*
Y-23978D01*
X627887Y-23823D01*
X627820Y-23678D01*
X627732Y-23556D01*
X627632Y-23445D01*
X627532Y-23345D01*
X627421Y-23256D01*
X627298Y-23189D01*
X627187Y-23123D01*
X626976Y-23034D01*
X626876Y-23001D01*
X626798Y-22978D01*
X626721Y-22967D01*
X626665Y-22956D01*
X626632Y-22945D01*
X626621D01*
X626465Y-22923D01*
X626287Y-22912D01*
X626087Y-22901D01*
X625876Y-22889D01*
X625421Y-22867D01*
X624965Y-22856D01*
X624754D01*
X624554Y-22845D01*
D02*
G37*
G36*
X642741Y-22934D02*
X637686D01*
Y-29100D01*
X639564D01*
Y-27534D01*
X642575D01*
X642697Y-27545D01*
X642808D01*
X642875Y-27556D01*
X642930D01*
X642952Y-27567D01*
X642963D01*
X643086Y-27600D01*
X643175Y-27656D01*
X643230Y-27689D01*
X643252Y-27711D01*
X643319Y-27811D01*
X643363Y-27922D01*
X643386Y-27967D01*
Y-28011D01*
X643397Y-28033D01*
Y-28045D01*
X643408Y-28144D01*
X643419Y-28256D01*
X643441Y-28489D01*
Y-28600D01*
Y-28689D01*
Y-28756D01*
Y-28767D01*
Y-28778D01*
Y-29100D01*
X645296D01*
Y-28533D01*
Y-28389D01*
Y-28256D01*
Y-28144D01*
X645285Y-28033D01*
Y-27933D01*
Y-27856D01*
X645274Y-27711D01*
X645263Y-27611D01*
Y-27545D01*
X645252Y-27500D01*
Y-27489D01*
X645208Y-27311D01*
X645174Y-27245D01*
X645141Y-27178D01*
X645108Y-27122D01*
X645085Y-27089D01*
X645074Y-27067D01*
X645063Y-27056D01*
X644952Y-26956D01*
X644819Y-26878D01*
X644686Y-26811D01*
X644541Y-26767D01*
X644408Y-26745D01*
X644308Y-26722D01*
X644263D01*
X644230Y-26711D01*
X644208D01*
X644385Y-26678D01*
X644541Y-26634D01*
X644663Y-26589D01*
X644774Y-26545D01*
X644852Y-26500D01*
X644919Y-26467D01*
X644952Y-26445D01*
X644963Y-26434D01*
X645041Y-26356D01*
X645108Y-26278D01*
X645163Y-26189D01*
X645208Y-26111D01*
X645230Y-26045D01*
X645252Y-25989D01*
X645274Y-25945D01*
Y-25934D01*
X645308Y-25800D01*
X645330Y-25645D01*
X645341Y-25478D01*
X645352Y-25323D01*
X645363Y-25167D01*
Y-25056D01*
Y-25012D01*
Y-24978D01*
Y-24956D01*
Y-24945D01*
Y-24667D01*
X645341Y-24423D01*
X645319Y-24223D01*
X645296Y-24056D01*
X645274Y-23934D01*
X645252Y-23845D01*
X645241Y-23800D01*
X645230Y-23778D01*
X645174Y-23645D01*
X645097Y-23523D01*
X645019Y-23423D01*
X644941Y-23334D01*
X644863Y-23267D01*
X644797Y-23223D01*
X644752Y-23189D01*
X644741Y-23178D01*
X644630Y-23123D01*
X644519Y-23067D01*
X644419Y-23034D01*
X644330Y-23012D01*
X644252Y-22989D01*
X644185D01*
X644141Y-22978D01*
X644130D01*
X644052Y-22967D01*
X643963D01*
X643841Y-22956D01*
X643552D01*
X643386Y-22945D01*
X642897D01*
X642741Y-22934D01*
D02*
G37*
%LPD*%
G36*
X624687Y-24456D02*
X624843D01*
X624976Y-24467D01*
X625199D01*
X625287Y-24478D01*
X625354D01*
X625410Y-24489D01*
X625454D01*
X625487Y-24500D01*
X625532D01*
X625654Y-24523D01*
X625754Y-24556D01*
X625843Y-24600D01*
X625910Y-24634D01*
X625965Y-24678D01*
X625998Y-24712D01*
X626021Y-24734D01*
X626032Y-24745D01*
X626076Y-24812D01*
X626098Y-24878D01*
X626154Y-25034D01*
X626165Y-25100D01*
X626176Y-25156D01*
X626187Y-25200D01*
Y-25212D01*
X626210Y-25345D01*
X626221Y-25500D01*
X626232Y-25656D01*
Y-25811D01*
X626243Y-25967D01*
Y-26078D01*
Y-26122D01*
Y-26156D01*
Y-26178D01*
Y-26189D01*
Y-26389D01*
X626232Y-26556D01*
X626221Y-26689D01*
X626210Y-26811D01*
X626198Y-26889D01*
X626187Y-26956D01*
X626176Y-26989D01*
Y-27000D01*
X626121Y-27167D01*
X626087Y-27222D01*
X626043Y-27278D01*
X626010Y-27322D01*
X625976Y-27356D01*
X625965Y-27367D01*
X625954Y-27378D01*
X625876Y-27422D01*
X625787Y-27467D01*
X625610Y-27511D01*
X625532Y-27534D01*
X625465Y-27545D01*
X625421Y-27556D01*
X625321D01*
X625221Y-27567D01*
X625121D01*
X624999Y-27578D01*
X624754D01*
X624499Y-27589D01*
X623288D01*
X623121Y-27578D01*
X622843D01*
X622721Y-27567D01*
X622532D01*
X622454Y-27556D01*
X622343D01*
X622299Y-27545D01*
X622254D01*
X622065Y-27500D01*
X621910Y-27422D01*
X621788Y-27334D01*
X621699Y-27245D01*
X621643Y-27156D01*
X621599Y-27078D01*
X621588Y-27022D01*
X621577Y-27000D01*
X621555Y-26889D01*
X621543Y-26767D01*
X621532Y-26623D01*
Y-26489D01*
X621521Y-26367D01*
Y-26267D01*
Y-26200D01*
Y-26189D01*
Y-26178D01*
Y-26011D01*
Y-25856D01*
X621532Y-25712D01*
Y-25589D01*
X621543Y-25478D01*
X621555Y-25378D01*
X621566Y-25289D01*
X621577Y-25200D01*
X621588Y-25078D01*
X621610Y-25000D01*
X621621Y-24945D01*
Y-24934D01*
X621677Y-24823D01*
X621743Y-24734D01*
X621810Y-24667D01*
X621888Y-24612D01*
X621966Y-24567D01*
X622021Y-24545D01*
X622065Y-24523D01*
X622077D01*
X622143Y-24512D01*
X622243Y-24500D01*
X622354Y-24489D01*
X622488Y-24478D01*
X622632Y-24467D01*
X622788D01*
X623099Y-24456D01*
X623243D01*
X623388Y-24445D01*
X624521D01*
X624687Y-24456D01*
D02*
G37*
G36*
X642586Y-24489D02*
X642830D01*
X642897Y-24500D01*
X642975D01*
X643075Y-24512D01*
X643152Y-24534D01*
X643197Y-24545D01*
X643219Y-24556D01*
X643308Y-24612D01*
X643363Y-24689D01*
X643397Y-24745D01*
X643408Y-24756D01*
Y-24767D01*
X643430Y-24823D01*
X643452Y-24900D01*
X643463Y-25045D01*
X643474Y-25111D01*
Y-25167D01*
Y-25200D01*
Y-25212D01*
Y-25323D01*
X643463Y-25411D01*
X643452Y-25500D01*
Y-25556D01*
X643441Y-25611D01*
X643430Y-25645D01*
X643419Y-25667D01*
Y-25678D01*
X643374Y-25778D01*
X643319Y-25845D01*
X643274Y-25889D01*
X643263Y-25900D01*
X643252D01*
X643175Y-25934D01*
X643097Y-25956D01*
X643041Y-25967D01*
X642941D01*
X642830Y-25978D01*
X642563D01*
X642419Y-25989D01*
X639564D01*
Y-24478D01*
X642419D01*
X642586Y-24489D01*
D02*
G37*
%LPC*%
G36*
X235344Y-22934D02*
X230000D01*
Y-29100D01*
X235255D01*
X235377Y-29089D01*
X235744D01*
X235810Y-29078D01*
X235944D01*
X236110Y-29067D01*
X236277Y-29044D01*
X236422Y-29022D01*
X236555Y-29000D01*
X236655Y-28989D01*
X236744Y-28967D01*
X236788Y-28956D01*
X236810D01*
X236966Y-28911D01*
X237110Y-28856D01*
X237233Y-28789D01*
X237344Y-28722D01*
X237455Y-28644D01*
X237544Y-28556D01*
X237699Y-28389D01*
X237810Y-28222D01*
X237888Y-28089D01*
X237910Y-28033D01*
X237932Y-27989D01*
X237944Y-27967D01*
Y-27956D01*
X238021Y-27689D01*
X238055Y-27567D01*
X238077Y-27445D01*
X238088Y-27345D01*
X238099Y-27256D01*
X238110Y-27211D01*
Y-27189D01*
X238121Y-27011D01*
X238133Y-26811D01*
X238144Y-26600D01*
X238155Y-26400D01*
Y-26211D01*
Y-26134D01*
Y-26067D01*
Y-26011D01*
Y-25967D01*
Y-25945D01*
Y-25934D01*
Y-25667D01*
X238144Y-25434D01*
Y-25245D01*
X238133Y-25089D01*
X238121Y-24967D01*
Y-24878D01*
X238110Y-24834D01*
Y-24812D01*
X238077Y-24545D01*
X238055Y-24423D01*
X238033Y-24312D01*
X238010Y-24223D01*
X237988Y-24156D01*
X237977Y-24112D01*
Y-24101D01*
X237921Y-23945D01*
X237844Y-23812D01*
X237755Y-23689D01*
X237666Y-23578D01*
X237566Y-23478D01*
X237466Y-23390D01*
X237366Y-23323D01*
X237266Y-23256D01*
X237077Y-23156D01*
X236988Y-23123D01*
X236910Y-23101D01*
X236855Y-23078D01*
X236810Y-23067D01*
X236777Y-23056D01*
X236766D01*
X236477Y-23012D01*
X236344Y-22989D01*
X236233Y-22978D01*
X236133Y-22967D01*
X236066Y-22956D01*
X235922D01*
X235833Y-22945D01*
X235599D01*
X235344Y-22934D01*
D02*
G37*
G36*
X256231D02*
X253786D01*
X251865Y-25411D01*
X249854Y-22934D01*
X247387D01*
X250920Y-26922D01*
Y-29100D01*
X252864D01*
Y-26922D01*
X256231Y-22934D01*
D02*
G37*
G36*
X244487D02*
X241565D01*
X238310Y-29100D01*
X240443D01*
X240966Y-28056D01*
X245054D01*
X245576Y-29100D01*
X247709D01*
X244487Y-22934D01*
D02*
G37*
%LPD*%
G36*
X234988Y-24489D02*
X235100D01*
X235188Y-24500D01*
X235344D01*
X235466Y-24512D01*
X235544Y-24523D01*
X235588Y-24534D01*
X235599D01*
X235711Y-24556D01*
X235799Y-24589D01*
X235877Y-24623D01*
X235944Y-24656D01*
X235988Y-24689D01*
X236022Y-24723D01*
X236044Y-24734D01*
X236055Y-24745D01*
X236099Y-24812D01*
X236144Y-24878D01*
X236199Y-25023D01*
X236222Y-25089D01*
X236233Y-25145D01*
X236244Y-25178D01*
Y-25189D01*
X236266Y-25311D01*
X236277Y-25445D01*
X236288Y-25589D01*
Y-25723D01*
X236299Y-25845D01*
Y-25956D01*
Y-26022D01*
Y-26034D01*
Y-26045D01*
Y-26245D01*
X236288Y-26423D01*
X236277Y-26567D01*
X236266Y-26689D01*
X236255Y-26789D01*
X236244Y-26856D01*
X236233Y-26900D01*
Y-26911D01*
X236199Y-27011D01*
X236166Y-27089D01*
X236133Y-27156D01*
X236099Y-27211D01*
X236066Y-27256D01*
X236033Y-27289D01*
X236022Y-27300D01*
X236011Y-27311D01*
X235955Y-27356D01*
X235877Y-27389D01*
X235722Y-27445D01*
X235644Y-27456D01*
X235588Y-27467D01*
X235544Y-27478D01*
X235533D01*
X235388Y-27489D01*
X235222Y-27500D01*
X235044Y-27511D01*
X234866D01*
X234711Y-27522D01*
X231855D01*
Y-24478D01*
X234877D01*
X234988Y-24489D01*
D02*
G37*
G36*
X244387Y-26700D02*
X241643D01*
X242832Y-24367D01*
X243199D01*
X244387Y-26700D01*
D02*
G37*
%LPC*%
G36*
X80421Y-19345D02*
X79054D01*
X78743Y-19356D01*
X78476D01*
X78221Y-19367D01*
X77999Y-19378D01*
X77799Y-19389D01*
X77621D01*
X77465Y-19401D01*
X77343Y-19412D01*
X77232Y-19423D01*
X77143Y-19434D01*
X77077D01*
X77032Y-19445D01*
X76999D01*
X76810Y-19478D01*
X76632Y-19534D01*
X76477Y-19590D01*
X76343Y-19667D01*
X76210Y-19745D01*
X76110Y-19834D01*
X76010Y-19923D01*
X75932Y-20012D01*
X75866Y-20101D01*
X75810Y-20189D01*
X75766Y-20267D01*
X75732Y-20334D01*
X75710Y-20401D01*
X75688Y-20445D01*
X75677Y-20467D01*
Y-20478D01*
X75643Y-20601D01*
X75621Y-20734D01*
X75599Y-20889D01*
X75577Y-21045D01*
X75554Y-21378D01*
X75532Y-21711D01*
X75521Y-21867D01*
Y-22012D01*
X75510Y-22145D01*
Y-22256D01*
Y-22356D01*
Y-22422D01*
Y-22478D01*
Y-22489D01*
Y-22756D01*
X75521Y-23000D01*
Y-23234D01*
X75532Y-23434D01*
X75554Y-23622D01*
X75565Y-23800D01*
X75577Y-23945D01*
X75599Y-24078D01*
X75610Y-24200D01*
X75621Y-24300D01*
X75643Y-24378D01*
X75654Y-24445D01*
X75665Y-24500D01*
Y-24533D01*
X75677Y-24556D01*
Y-24567D01*
X75732Y-24722D01*
X75799Y-24867D01*
X75888Y-24989D01*
X75988Y-25100D01*
X76088Y-25200D01*
X76199Y-25289D01*
X76321Y-25356D01*
X76432Y-25411D01*
X76643Y-25511D01*
X76743Y-25545D01*
X76832Y-25567D01*
X76899Y-25578D01*
X76954Y-25589D01*
X76988Y-25600D01*
X76999D01*
X77154Y-25611D01*
X77332Y-25633D01*
X77532Y-25644D01*
X77743Y-25655D01*
X78199Y-25667D01*
X78665Y-25678D01*
X78876D01*
X79087Y-25689D01*
X80454D01*
X80754Y-25678D01*
X81021D01*
X81276Y-25667D01*
X81498Y-25655D01*
X81698D01*
X81865Y-25644D01*
X82020Y-25633D01*
X82143Y-25622D01*
X82254D01*
X82343Y-25611D01*
X82409D01*
X82454Y-25600D01*
X82487D01*
X82676Y-25567D01*
X82854Y-25511D01*
X83009Y-25456D01*
X83154Y-25378D01*
X83276Y-25300D01*
X83376Y-25211D01*
X83476Y-25122D01*
X83554Y-25033D01*
X83620Y-24945D01*
X83676Y-24856D01*
X83720Y-24778D01*
X83754Y-24711D01*
X83776Y-24645D01*
X83798Y-24600D01*
X83809Y-24578D01*
Y-24567D01*
X83842Y-24445D01*
X83865Y-24311D01*
X83887Y-24156D01*
X83909Y-23989D01*
X83943Y-23656D01*
X83965Y-23323D01*
X83976Y-23156D01*
Y-23011D01*
X83987Y-22878D01*
Y-22756D01*
Y-22656D01*
Y-22589D01*
Y-22534D01*
Y-22523D01*
Y-22256D01*
X83976Y-22023D01*
Y-21800D01*
X83965Y-21589D01*
X83943Y-21411D01*
X83931Y-21245D01*
X83920Y-21089D01*
X83898Y-20956D01*
X83887Y-20845D01*
X83865Y-20745D01*
X83854Y-20656D01*
X83842Y-20589D01*
X83831Y-20545D01*
X83820Y-20512D01*
X83809Y-20489D01*
Y-20478D01*
X83754Y-20323D01*
X83687Y-20178D01*
X83598Y-20056D01*
X83498Y-19945D01*
X83398Y-19845D01*
X83287Y-19756D01*
X83165Y-19690D01*
X83054Y-19623D01*
X82843Y-19534D01*
X82743Y-19501D01*
X82665Y-19478D01*
X82587Y-19467D01*
X82531Y-19456D01*
X82498Y-19445D01*
X82487D01*
X82332Y-19423D01*
X82154Y-19412D01*
X81954Y-19401D01*
X81743Y-19389D01*
X81287Y-19367D01*
X80832Y-19356D01*
X80621D01*
X80421Y-19345D01*
D02*
G37*
G36*
X93319Y-19434D02*
X91397D01*
X91442Y-24034D01*
X91253D01*
X88020Y-19434D01*
X84731D01*
Y-25600D01*
X86642D01*
X86598Y-21001D01*
X86798D01*
X90042Y-25600D01*
X93319D01*
Y-19434D01*
D02*
G37*
G36*
X74766D02*
X71366D01*
X69533Y-23445D01*
X67700Y-19434D01*
X64300D01*
Y-25600D01*
X66144D01*
X66100Y-20989D01*
X66433D01*
X68755Y-25600D01*
X70322D01*
X72644Y-20989D01*
X72955D01*
X72910Y-25600D01*
X74766D01*
Y-19434D01*
D02*
G37*
G36*
X109840D02*
X107862D01*
Y-21634D01*
X103629D01*
Y-19434D01*
X101652D01*
Y-25600D01*
X103629D01*
Y-23356D01*
X107862D01*
Y-25600D01*
X109840D01*
Y-19434D01*
D02*
G37*
G36*
X101218D02*
X93753D01*
Y-21012D01*
X96497D01*
Y-25600D01*
X98474D01*
Y-21012D01*
X101218D01*
Y-19434D01*
D02*
G37*
%LPD*%
G36*
X80554Y-20956D02*
X80709D01*
X80843Y-20967D01*
X81065D01*
X81154Y-20978D01*
X81221D01*
X81276Y-20989D01*
X81321D01*
X81354Y-21001D01*
X81398D01*
X81520Y-21023D01*
X81621Y-21056D01*
X81709Y-21101D01*
X81776Y-21134D01*
X81832Y-21178D01*
X81865Y-21212D01*
X81887Y-21234D01*
X81898Y-21245D01*
X81943Y-21312D01*
X81965Y-21378D01*
X82020Y-21534D01*
X82032Y-21600D01*
X82043Y-21656D01*
X82054Y-21700D01*
Y-21711D01*
X82076Y-21845D01*
X82087Y-22000D01*
X82098Y-22156D01*
Y-22311D01*
X82109Y-22467D01*
Y-22578D01*
Y-22623D01*
Y-22656D01*
Y-22678D01*
Y-22689D01*
Y-22889D01*
X82098Y-23056D01*
X82087Y-23189D01*
X82076Y-23311D01*
X82065Y-23389D01*
X82054Y-23456D01*
X82043Y-23489D01*
Y-23500D01*
X81987Y-23667D01*
X81954Y-23722D01*
X81909Y-23778D01*
X81876Y-23822D01*
X81843Y-23856D01*
X81832Y-23867D01*
X81820Y-23878D01*
X81743Y-23922D01*
X81654Y-23967D01*
X81476Y-24011D01*
X81398Y-24034D01*
X81332Y-24045D01*
X81287Y-24056D01*
X81187D01*
X81087Y-24067D01*
X80987D01*
X80865Y-24078D01*
X80621D01*
X80365Y-24089D01*
X79154D01*
X78987Y-24078D01*
X78710D01*
X78588Y-24067D01*
X78399D01*
X78321Y-24056D01*
X78210D01*
X78165Y-24045D01*
X78121D01*
X77932Y-24000D01*
X77776Y-23922D01*
X77654Y-23833D01*
X77565Y-23745D01*
X77510Y-23656D01*
X77465Y-23578D01*
X77454Y-23522D01*
X77443Y-23500D01*
X77421Y-23389D01*
X77410Y-23267D01*
X77399Y-23122D01*
Y-22989D01*
X77388Y-22867D01*
Y-22767D01*
Y-22700D01*
Y-22689D01*
Y-22678D01*
Y-22511D01*
Y-22356D01*
X77399Y-22211D01*
Y-22089D01*
X77410Y-21978D01*
X77421Y-21878D01*
X77432Y-21789D01*
X77443Y-21700D01*
X77454Y-21578D01*
X77477Y-21500D01*
X77488Y-21445D01*
Y-21434D01*
X77543Y-21323D01*
X77610Y-21234D01*
X77676Y-21167D01*
X77754Y-21112D01*
X77832Y-21067D01*
X77887Y-21045D01*
X77932Y-21023D01*
X77943D01*
X78010Y-21012D01*
X78110Y-21001D01*
X78221Y-20989D01*
X78354Y-20978D01*
X78499Y-20967D01*
X78654D01*
X78965Y-20956D01*
X79110D01*
X79254Y-20945D01*
X80387D01*
X80554Y-20956D01*
D02*
G37*
%LPC*%
G36*
X517693Y-134964D02*
X514891D01*
Y-143700D01*
X517693D01*
Y-134964D01*
D02*
G37*
G36*
X641409Y-134823D02*
X639819D01*
X639426Y-134838D01*
X639048D01*
X638718Y-134854D01*
X638419Y-134870D01*
X638167Y-134886D01*
X637931D01*
X637742Y-134901D01*
X637569Y-134917D01*
X637443Y-134933D01*
X637333Y-134949D01*
X637238D01*
X637191Y-134964D01*
X637144D01*
X636829Y-135027D01*
X636561Y-135106D01*
X636341Y-135216D01*
X636152Y-135311D01*
X636010Y-135405D01*
X635900Y-135484D01*
X635837Y-135547D01*
X635822Y-135562D01*
X635727Y-135688D01*
X635633Y-135830D01*
X635507Y-136145D01*
X635412Y-136491D01*
X635334Y-136837D01*
X635302Y-137152D01*
X635286Y-137294D01*
Y-137420D01*
X635271Y-137514D01*
Y-137593D01*
Y-137640D01*
Y-137656D01*
Y-137892D01*
X635286Y-138112D01*
X635318Y-138317D01*
X635349Y-138506D01*
X635381Y-138679D01*
X635428Y-138836D01*
X635475Y-138962D01*
X635523Y-139088D01*
X635601Y-139277D01*
X635680Y-139419D01*
X635743Y-139497D01*
X635759Y-139529D01*
X635869Y-139655D01*
X636010Y-139749D01*
X636136Y-139844D01*
X636262Y-139907D01*
X636388Y-139970D01*
X636483Y-140001D01*
X636546Y-140017D01*
X636561Y-140033D01*
X636782Y-140080D01*
X637018Y-140111D01*
X637254Y-140143D01*
X637490Y-140174D01*
X637710Y-140190D01*
X637884Y-140206D01*
X638151D01*
X638277Y-140222D01*
X638576D01*
X638922Y-140237D01*
X639284Y-140253D01*
X639615Y-140269D01*
X639772Y-140284D01*
X639898D01*
X640008Y-140300D01*
X640166D01*
X640449Y-140316D01*
X640717Y-140332D01*
X640953D01*
X641157Y-140347D01*
X641346D01*
X641519Y-140363D01*
X641803D01*
X641913Y-140379D01*
X642464D01*
X642653Y-140395D01*
X642794Y-140426D01*
X642905Y-140442D01*
X642999Y-140473D01*
X643046Y-140505D01*
X643078Y-140521D01*
X643093D01*
X643172Y-140584D01*
X643219Y-140646D01*
X643282Y-140820D01*
X643298Y-140914D01*
X643314Y-140977D01*
Y-141024D01*
Y-141040D01*
X643298Y-141229D01*
X643267Y-141370D01*
X643219Y-141481D01*
X643172Y-141575D01*
X643109Y-141638D01*
X643062Y-141669D01*
X643031Y-141701D01*
X643015D01*
X642842Y-141748D01*
X642668Y-141780D01*
X642590D01*
X642527Y-141796D01*
X642149D01*
X642007Y-141811D01*
X639001D01*
X638875Y-141796D01*
X638529D01*
X638324Y-141764D01*
X638167Y-141701D01*
X638120Y-141685D01*
X638072Y-141654D01*
X638057Y-141638D01*
X638041D01*
X637947Y-141544D01*
X637884Y-141433D01*
X637836Y-141292D01*
X637805Y-141150D01*
X637789Y-141024D01*
X637773Y-140914D01*
Y-140835D01*
Y-140804D01*
X635192D01*
X635208Y-141229D01*
X635223Y-141559D01*
X635239Y-141843D01*
X635271Y-142079D01*
X635302Y-142283D01*
X635334Y-142425D01*
X635349Y-142535D01*
X635381Y-142614D01*
Y-142630D01*
X635460Y-142787D01*
X635570Y-142945D01*
X635680Y-143070D01*
X635806Y-143165D01*
X635900Y-143259D01*
X635995Y-143322D01*
X636058Y-143354D01*
X636073Y-143369D01*
X636262Y-143464D01*
X636498Y-143527D01*
X636719Y-143590D01*
X636955Y-143637D01*
X637159Y-143668D01*
X637317Y-143700D01*
X637380D01*
X637427Y-143716D01*
X637474D01*
X637663Y-143731D01*
X637868Y-143747D01*
X638324Y-143779D01*
X638812Y-143794D01*
X639284Y-143810D01*
X639505D01*
X639709Y-143826D01*
X641567D01*
X641882Y-143810D01*
X642180D01*
X642448Y-143794D01*
X642684D01*
X642889Y-143779D01*
X643219D01*
X643345Y-143763D01*
X643440D01*
X643518Y-143747D01*
X643613D01*
X643896Y-143716D01*
X644148Y-143668D01*
X644353Y-143637D01*
X644542Y-143574D01*
X644667Y-143543D01*
X644778Y-143495D01*
X644841Y-143480D01*
X644856Y-143464D01*
X645014Y-143369D01*
X645155Y-143259D01*
X645281Y-143165D01*
X645376Y-143055D01*
X645454Y-142960D01*
X645502Y-142882D01*
X645533Y-142819D01*
X645549Y-142803D01*
X645659Y-142551D01*
X645753Y-142268D01*
X645817Y-141953D01*
X645848Y-141654D01*
X645879Y-141386D01*
Y-141260D01*
X645895Y-141166D01*
Y-141087D01*
Y-141008D01*
Y-140977D01*
Y-140961D01*
X645879Y-140631D01*
X645864Y-140332D01*
X645832Y-140080D01*
X645801Y-139875D01*
X645753Y-139718D01*
X645722Y-139608D01*
X645706Y-139529D01*
X645690Y-139513D01*
X645596Y-139340D01*
X645502Y-139183D01*
X645392Y-139041D01*
X645281Y-138931D01*
X645171Y-138836D01*
X645092Y-138773D01*
X645029Y-138742D01*
X645014Y-138726D01*
X644841Y-138647D01*
X644652Y-138584D01*
X644463Y-138522D01*
X644274Y-138474D01*
X644116Y-138443D01*
X643991Y-138427D01*
X643896Y-138411D01*
X643865D01*
X643723Y-138396D01*
X643534Y-138380D01*
X643345Y-138364D01*
X643125Y-138348D01*
X642668Y-138317D01*
X642196Y-138285D01*
X641960D01*
X641755Y-138270D01*
X641551Y-138254D01*
X641394D01*
X641252Y-138238D01*
X641047D01*
X640606Y-138223D01*
X640197Y-138207D01*
X639851D01*
X639536Y-138191D01*
X639269Y-138175D01*
X639048Y-138160D01*
X638844Y-138144D01*
X638686Y-138128D01*
X638560D01*
X638450Y-138112D01*
X638371Y-138097D01*
X638261D01*
X638230Y-138081D01*
X638214D01*
X638088Y-138034D01*
X638009Y-137955D01*
X637947Y-137861D01*
X637899Y-137766D01*
X637868Y-137672D01*
X637852Y-137593D01*
Y-137530D01*
Y-137514D01*
X637868Y-137357D01*
X637915Y-137231D01*
X637962Y-137121D01*
X638041Y-137042D01*
X638104Y-136995D01*
X638151Y-136963D01*
X638198Y-136932D01*
X638214D01*
X638293Y-136916D01*
X638419Y-136900D01*
X638545Y-136885D01*
X638702Y-136869D01*
X639033Y-136853D01*
X639395Y-136837D01*
X639741Y-136822D01*
X641346D01*
X641488Y-136837D01*
X641913D01*
X642039Y-136853D01*
X642133D01*
X642291Y-136869D01*
X642417Y-136885D01*
X642527Y-136916D01*
X642605Y-136932D01*
X642668Y-136963D01*
X642716Y-136979D01*
X642747Y-136995D01*
X642842Y-137058D01*
X642889Y-137136D01*
X642920Y-137184D01*
X642936Y-137215D01*
X642952Y-137278D01*
X642968Y-137341D01*
X642983Y-137498D01*
Y-137577D01*
Y-137640D01*
Y-137687D01*
Y-137703D01*
X645565D01*
Y-137593D01*
X645580Y-137514D01*
Y-137435D01*
Y-137388D01*
Y-137310D01*
Y-137294D01*
Y-137074D01*
X645565Y-136885D01*
X645517Y-136538D01*
X645439Y-136239D01*
X645360Y-136003D01*
X645266Y-135830D01*
X645203Y-135704D01*
X645140Y-135625D01*
X645124Y-135610D01*
X645029Y-135515D01*
X644919Y-135436D01*
X644683Y-135295D01*
X644416Y-135169D01*
X644132Y-135074D01*
X643880Y-135011D01*
X643770Y-134980D01*
X643676Y-134964D01*
X643581Y-134949D01*
X643518D01*
X643487Y-134933D01*
X643471D01*
X643314Y-134917D01*
X643125Y-134901D01*
X642936Y-134886D01*
X642716Y-134870D01*
X642275Y-134854D01*
X641819Y-134838D01*
X641614D01*
X641409Y-134823D01*
D02*
G37*
G36*
X583407D02*
X582038D01*
X581487Y-134838D01*
X580983D01*
X580527Y-134854D01*
X580102Y-134886D01*
X579740Y-134901D01*
X579409Y-134917D01*
X579126Y-134949D01*
X578890Y-134964D01*
X578685Y-134996D01*
X578512Y-135011D01*
X578371Y-135027D01*
X578276Y-135043D01*
X578213Y-135059D01*
X578166Y-135074D01*
X578150D01*
X577946Y-135122D01*
X577772Y-135200D01*
X577599Y-135263D01*
X577458Y-135342D01*
X577206Y-135531D01*
X577001Y-135704D01*
X576844Y-135877D01*
X576749Y-136019D01*
X576686Y-136129D01*
X576671Y-136145D01*
Y-136161D01*
X576623Y-136302D01*
X576576Y-136475D01*
X576529Y-136648D01*
X576498Y-136822D01*
X576482Y-136963D01*
X576466Y-137089D01*
X576450Y-137168D01*
Y-137184D01*
Y-137199D01*
Y-137341D01*
X576435Y-137483D01*
X576419Y-137829D01*
Y-138191D01*
X576403Y-138553D01*
Y-138868D01*
Y-139009D01*
Y-139135D01*
Y-139246D01*
Y-139324D01*
Y-139372D01*
Y-139387D01*
Y-139671D01*
Y-139922D01*
Y-140158D01*
X576419Y-140379D01*
Y-140584D01*
Y-140757D01*
Y-140914D01*
X576435Y-141056D01*
Y-141166D01*
Y-141276D01*
Y-141355D01*
X576450Y-141418D01*
Y-141481D01*
Y-141512D01*
Y-141544D01*
X576482Y-141811D01*
X576529Y-142032D01*
X576592Y-142236D01*
X576639Y-142409D01*
X576686Y-142535D01*
X576734Y-142630D01*
X576749Y-142693D01*
X576765Y-142708D01*
X576860Y-142866D01*
X576970Y-142992D01*
X577096Y-143102D01*
X577206Y-143212D01*
X577316Y-143275D01*
X577395Y-143338D01*
X577458Y-143369D01*
X577473Y-143385D01*
X577694Y-143480D01*
X577946Y-143558D01*
X578213Y-143621D01*
X578465Y-143668D01*
X578701Y-143700D01*
X578890Y-143731D01*
X578969D01*
X579016Y-143747D01*
X579063D01*
X579284Y-143763D01*
X579520Y-143779D01*
X579787Y-143794D01*
X580070D01*
X580669Y-143826D01*
X581534D01*
X581786Y-143842D01*
X583061D01*
X583455Y-143826D01*
X583817D01*
X584147Y-143810D01*
X584446Y-143794D01*
X584729Y-143779D01*
X584966Y-143747D01*
X585186Y-143731D01*
X585375Y-143716D01*
X585532Y-143684D01*
X585658Y-143668D01*
X585768Y-143653D01*
X585847Y-143637D01*
X585910D01*
X585942Y-143621D01*
X585957D01*
X586288Y-143511D01*
X586571Y-143385D01*
X586807Y-143244D01*
X586980Y-143086D01*
X587106Y-142960D01*
X587201Y-142850D01*
X587248Y-142771D01*
X587264Y-142740D01*
X587374Y-142504D01*
X587453Y-142252D01*
X587500Y-142000D01*
X587547Y-141733D01*
X587563Y-141512D01*
X587578Y-141339D01*
Y-141260D01*
Y-141213D01*
Y-141182D01*
Y-141166D01*
Y-141071D01*
Y-140961D01*
X587563Y-140820D01*
Y-140678D01*
Y-140552D01*
X587547Y-140442D01*
Y-140363D01*
Y-140332D01*
X584887D01*
X584871Y-140615D01*
X584840Y-140835D01*
X584808Y-141024D01*
X584761Y-141150D01*
X584714Y-141260D01*
X584667Y-141323D01*
X584651Y-141355D01*
X584635Y-141370D01*
X584556Y-141433D01*
X584446Y-141481D01*
X584226Y-141544D01*
X584116Y-141559D01*
X584021Y-141575D01*
X583958Y-141591D01*
X583832D01*
X583706Y-141607D01*
X583565D01*
X583407Y-141622D01*
X583077D01*
X582730Y-141638D01*
X581283D01*
X581109Y-141622D01*
X580810D01*
X580574Y-141607D01*
X580385D01*
X580259Y-141591D01*
X580165D01*
X579992Y-141559D01*
X579850Y-141528D01*
X579724Y-141481D01*
X579630Y-141449D01*
X579551Y-141418D01*
X579504Y-141386D01*
X579472Y-141355D01*
X579457D01*
X579378Y-141276D01*
X579315Y-141197D01*
X579205Y-140993D01*
X579173Y-140914D01*
X579158Y-140835D01*
X579142Y-140788D01*
Y-140772D01*
X579110Y-140599D01*
X579095Y-140379D01*
X579079Y-140143D01*
Y-139922D01*
X579063Y-139702D01*
Y-139529D01*
Y-139466D01*
Y-139419D01*
Y-139387D01*
Y-139372D01*
Y-139025D01*
X579079Y-138726D01*
X579095Y-138474D01*
X579110Y-138285D01*
Y-138128D01*
X579126Y-138018D01*
X579142Y-137955D01*
Y-137939D01*
X579189Y-137782D01*
X579236Y-137640D01*
X579284Y-137530D01*
X579346Y-137451D01*
X579394Y-137373D01*
X579441Y-137325D01*
X579457Y-137310D01*
X579472Y-137294D01*
X579567Y-137231D01*
X579661Y-137184D01*
X579882Y-137121D01*
X579992Y-137089D01*
X580070D01*
X580133Y-137074D01*
X580149D01*
X580244Y-137058D01*
X580370D01*
X580621Y-137042D01*
X580905Y-137026D01*
X581204Y-137011D01*
X582321D01*
X582699Y-137026D01*
X583030D01*
X583297Y-137042D01*
X583486Y-137058D01*
X583643D01*
X583722Y-137074D01*
X583754D01*
X583974Y-137105D01*
X584147Y-137136D01*
X584273Y-137168D01*
X584383Y-137199D01*
X584462Y-137231D01*
X584509Y-137247D01*
X584541Y-137278D01*
X584604Y-137357D01*
X584651Y-137435D01*
X584682Y-137498D01*
Y-137530D01*
X584698Y-137593D01*
X584714Y-137672D01*
X584729Y-137861D01*
Y-137955D01*
X584745Y-138034D01*
Y-138081D01*
Y-138097D01*
X587405D01*
Y-137971D01*
X587421Y-137876D01*
Y-137797D01*
Y-137734D01*
Y-137703D01*
Y-137687D01*
Y-137672D01*
X587405Y-137294D01*
X587390Y-136963D01*
X587342Y-136680D01*
X587295Y-136444D01*
X587248Y-136271D01*
X587216Y-136145D01*
X587185Y-136066D01*
X587169Y-136035D01*
X587059Y-135846D01*
X586933Y-135673D01*
X586807Y-135531D01*
X586665Y-135405D01*
X586540Y-135326D01*
X586429Y-135248D01*
X586367Y-135216D01*
X586335Y-135200D01*
X586146Y-135122D01*
X585957Y-135059D01*
X585753Y-135011D01*
X585548Y-134964D01*
X585375Y-134933D01*
X585233Y-134917D01*
X585139Y-134901D01*
X585107D01*
X584950Y-134886D01*
X584777Y-134870D01*
X584399Y-134854D01*
X583990Y-134838D01*
X583596D01*
X583407Y-134823D01*
D02*
G37*
G36*
X555642D02*
X554273D01*
X553722Y-134838D01*
X553218D01*
X552762Y-134854D01*
X552337Y-134886D01*
X551975Y-134901D01*
X551644Y-134917D01*
X551361Y-134949D01*
X551125Y-134964D01*
X550920Y-134996D01*
X550747Y-135011D01*
X550605Y-135027D01*
X550511Y-135043D01*
X550448Y-135059D01*
X550401Y-135074D01*
X550385D01*
X550180Y-135122D01*
X550007Y-135200D01*
X549834Y-135263D01*
X549692Y-135342D01*
X549440Y-135531D01*
X549236Y-135704D01*
X549078Y-135877D01*
X548984Y-136019D01*
X548921Y-136129D01*
X548905Y-136145D01*
Y-136161D01*
X548858Y-136302D01*
X548811Y-136475D01*
X548764Y-136648D01*
X548732Y-136822D01*
X548716Y-136963D01*
X548701Y-137089D01*
X548685Y-137168D01*
Y-137184D01*
Y-137199D01*
Y-137341D01*
X548669Y-137483D01*
X548653Y-137829D01*
Y-138191D01*
X548638Y-138553D01*
Y-138868D01*
Y-139009D01*
Y-139135D01*
Y-139246D01*
Y-139324D01*
Y-139372D01*
Y-139387D01*
Y-139671D01*
Y-139922D01*
Y-140158D01*
X548653Y-140379D01*
Y-140584D01*
Y-140757D01*
Y-140914D01*
X548669Y-141056D01*
Y-141166D01*
Y-141276D01*
Y-141355D01*
X548685Y-141418D01*
Y-141481D01*
Y-141512D01*
Y-141544D01*
X548716Y-141811D01*
X548764Y-142032D01*
X548827Y-142236D01*
X548874Y-142409D01*
X548921Y-142535D01*
X548968Y-142630D01*
X548984Y-142693D01*
X549000Y-142708D01*
X549094Y-142866D01*
X549204Y-142992D01*
X549330Y-143102D01*
X549440Y-143212D01*
X549551Y-143275D01*
X549629Y-143338D01*
X549692Y-143369D01*
X549708Y-143385D01*
X549928Y-143480D01*
X550180Y-143558D01*
X550448Y-143621D01*
X550700Y-143668D01*
X550936Y-143700D01*
X551125Y-143731D01*
X551203D01*
X551251Y-143747D01*
X551298D01*
X551518Y-143763D01*
X551754Y-143779D01*
X552022Y-143794D01*
X552305D01*
X552903Y-143826D01*
X553769D01*
X554021Y-143842D01*
X555296D01*
X555689Y-143826D01*
X556051D01*
X556382Y-143810D01*
X556681Y-143794D01*
X556964Y-143779D01*
X557200Y-143747D01*
X557421Y-143731D01*
X557610Y-143716D01*
X557767Y-143684D01*
X557893Y-143668D01*
X558003Y-143653D01*
X558082Y-143637D01*
X558145D01*
X558176Y-143621D01*
X558192D01*
X558522Y-143511D01*
X558806Y-143385D01*
X559042Y-143244D01*
X559215Y-143086D01*
X559341Y-142960D01*
X559435Y-142850D01*
X559483Y-142771D01*
X559498Y-142740D01*
X559609Y-142504D01*
X559687Y-142252D01*
X559734Y-142000D01*
X559782Y-141733D01*
X559797Y-141512D01*
X559813Y-141339D01*
Y-141260D01*
Y-141213D01*
Y-141182D01*
Y-141166D01*
Y-141071D01*
Y-140961D01*
X559797Y-140820D01*
Y-140678D01*
Y-140552D01*
X559782Y-140442D01*
Y-140363D01*
Y-140332D01*
X557122D01*
X557106Y-140615D01*
X557074Y-140835D01*
X557043Y-141024D01*
X556996Y-141150D01*
X556948Y-141260D01*
X556901Y-141323D01*
X556885Y-141355D01*
X556870Y-141370D01*
X556791Y-141433D01*
X556681Y-141481D01*
X556461Y-141544D01*
X556350Y-141559D01*
X556256Y-141575D01*
X556193Y-141591D01*
X556067D01*
X555941Y-141607D01*
X555799D01*
X555642Y-141622D01*
X555311D01*
X554965Y-141638D01*
X553517D01*
X553344Y-141622D01*
X553045D01*
X552809Y-141607D01*
X552620D01*
X552494Y-141591D01*
X552400D01*
X552226Y-141559D01*
X552085Y-141528D01*
X551959Y-141481D01*
X551864Y-141449D01*
X551786Y-141418D01*
X551739Y-141386D01*
X551707Y-141355D01*
X551691D01*
X551613Y-141276D01*
X551550Y-141197D01*
X551439Y-140993D01*
X551408Y-140914D01*
X551392Y-140835D01*
X551376Y-140788D01*
Y-140772D01*
X551345Y-140599D01*
X551329Y-140379D01*
X551313Y-140143D01*
Y-139922D01*
X551298Y-139702D01*
Y-139529D01*
Y-139466D01*
Y-139419D01*
Y-139387D01*
Y-139372D01*
Y-139025D01*
X551313Y-138726D01*
X551329Y-138474D01*
X551345Y-138285D01*
Y-138128D01*
X551361Y-138018D01*
X551376Y-137955D01*
Y-137939D01*
X551424Y-137782D01*
X551471Y-137640D01*
X551518Y-137530D01*
X551581Y-137451D01*
X551628Y-137373D01*
X551676Y-137325D01*
X551691Y-137310D01*
X551707Y-137294D01*
X551801Y-137231D01*
X551896Y-137184D01*
X552116Y-137121D01*
X552226Y-137089D01*
X552305D01*
X552368Y-137074D01*
X552384D01*
X552478Y-137058D01*
X552604D01*
X552856Y-137042D01*
X553139Y-137026D01*
X553438Y-137011D01*
X554556D01*
X554934Y-137026D01*
X555264D01*
X555532Y-137042D01*
X555721Y-137058D01*
X555878D01*
X555957Y-137074D01*
X555988D01*
X556209Y-137105D01*
X556382Y-137136D01*
X556508Y-137168D01*
X556618Y-137199D01*
X556697Y-137231D01*
X556744Y-137247D01*
X556775Y-137278D01*
X556838Y-137357D01*
X556885Y-137435D01*
X556917Y-137498D01*
Y-137530D01*
X556933Y-137593D01*
X556948Y-137672D01*
X556964Y-137861D01*
Y-137955D01*
X556980Y-138034D01*
Y-138081D01*
Y-138097D01*
X559640D01*
Y-137971D01*
X559656Y-137876D01*
Y-137797D01*
Y-137734D01*
Y-137703D01*
Y-137687D01*
Y-137672D01*
X559640Y-137294D01*
X559624Y-136963D01*
X559577Y-136680D01*
X559530Y-136444D01*
X559483Y-136271D01*
X559451Y-136145D01*
X559420Y-136066D01*
X559404Y-136035D01*
X559294Y-135846D01*
X559168Y-135673D01*
X559042Y-135531D01*
X558900Y-135405D01*
X558774Y-135326D01*
X558664Y-135248D01*
X558601Y-135216D01*
X558570Y-135200D01*
X558381Y-135122D01*
X558192Y-135059D01*
X557987Y-135011D01*
X557783Y-134964D01*
X557610Y-134933D01*
X557468Y-134917D01*
X557373Y-134901D01*
X557342D01*
X557185Y-134886D01*
X557011Y-134870D01*
X556634Y-134854D01*
X556224Y-134838D01*
X555831D01*
X555642Y-134823D01*
D02*
G37*
G36*
X514277Y-134964D02*
X503700D01*
Y-137199D01*
X507588D01*
Y-143700D01*
X510390D01*
Y-137199D01*
X514277D01*
Y-134964D01*
D02*
G37*
G36*
X544656D02*
X534975D01*
Y-143700D01*
X544703D01*
Y-141607D01*
X537604D01*
Y-140190D01*
X544293D01*
Y-138270D01*
X537604D01*
Y-137026D01*
X544656D01*
Y-134964D01*
D02*
G37*
G36*
X571933D02*
X564771D01*
Y-143700D01*
X567431D01*
Y-141481D01*
X571697D01*
X571870Y-141496D01*
X572027D01*
X572122Y-141512D01*
X572200D01*
X572232Y-141528D01*
X572248D01*
X572421Y-141575D01*
X572547Y-141654D01*
X572625Y-141701D01*
X572657Y-141733D01*
X572751Y-141874D01*
X572814Y-142032D01*
X572846Y-142095D01*
Y-142157D01*
X572862Y-142189D01*
Y-142205D01*
X572877Y-142346D01*
X572893Y-142504D01*
X572925Y-142834D01*
Y-142992D01*
Y-143118D01*
Y-143212D01*
Y-143228D01*
Y-143244D01*
Y-143700D01*
X575553D01*
Y-142897D01*
Y-142693D01*
Y-142504D01*
Y-142346D01*
X575537Y-142189D01*
Y-142047D01*
Y-141937D01*
X575522Y-141733D01*
X575506Y-141591D01*
Y-141496D01*
X575490Y-141433D01*
Y-141418D01*
X575427Y-141166D01*
X575380Y-141071D01*
X575333Y-140977D01*
X575285Y-140898D01*
X575254Y-140851D01*
X575238Y-140820D01*
X575223Y-140804D01*
X575065Y-140662D01*
X574876Y-140552D01*
X574687Y-140458D01*
X574483Y-140395D01*
X574294Y-140363D01*
X574152Y-140332D01*
X574089D01*
X574042Y-140316D01*
X574011D01*
X574262Y-140269D01*
X574483Y-140206D01*
X574656Y-140143D01*
X574813Y-140080D01*
X574924Y-140017D01*
X575018Y-139970D01*
X575065Y-139938D01*
X575081Y-139922D01*
X575191Y-139812D01*
X575285Y-139702D01*
X575364Y-139576D01*
X575427Y-139466D01*
X575459Y-139372D01*
X575490Y-139293D01*
X575522Y-139230D01*
Y-139214D01*
X575569Y-139025D01*
X575600Y-138805D01*
X575616Y-138569D01*
X575632Y-138348D01*
X575647Y-138128D01*
Y-137971D01*
Y-137908D01*
Y-137861D01*
Y-137829D01*
Y-137813D01*
Y-137420D01*
X575616Y-137074D01*
X575585Y-136790D01*
X575553Y-136554D01*
X575522Y-136381D01*
X575490Y-136255D01*
X575474Y-136192D01*
X575459Y-136161D01*
X575380Y-135972D01*
X575270Y-135799D01*
X575160Y-135657D01*
X575049Y-135531D01*
X574939Y-135436D01*
X574845Y-135373D01*
X574782Y-135326D01*
X574766Y-135311D01*
X574609Y-135232D01*
X574451Y-135153D01*
X574310Y-135106D01*
X574184Y-135074D01*
X574074Y-135043D01*
X573979D01*
X573916Y-135027D01*
X573900D01*
X573790Y-135011D01*
X573664D01*
X573491Y-134996D01*
X573082D01*
X572846Y-134980D01*
X572153D01*
X571933Y-134964D01*
D02*
G37*
G36*
X634279D02*
X631477D01*
Y-143700D01*
X634279D01*
Y-134964D01*
D02*
G37*
G36*
X626456D02*
X618885D01*
Y-143700D01*
X626330D01*
X626504Y-143684D01*
X627023D01*
X627117Y-143668D01*
X627306D01*
X627542Y-143653D01*
X627778Y-143621D01*
X627983Y-143590D01*
X628172Y-143558D01*
X628314Y-143543D01*
X628440Y-143511D01*
X628503Y-143495D01*
X628534D01*
X628754Y-143432D01*
X628959Y-143354D01*
X629132Y-143259D01*
X629289Y-143165D01*
X629447Y-143055D01*
X629573Y-142929D01*
X629793Y-142693D01*
X629951Y-142456D01*
X630061Y-142268D01*
X630092Y-142189D01*
X630124Y-142126D01*
X630139Y-142095D01*
Y-142079D01*
X630250Y-141701D01*
X630297Y-141528D01*
X630328Y-141355D01*
X630344Y-141213D01*
X630360Y-141087D01*
X630375Y-141024D01*
Y-140993D01*
X630391Y-140741D01*
X630407Y-140458D01*
X630423Y-140158D01*
X630439Y-139875D01*
Y-139608D01*
Y-139497D01*
Y-139403D01*
Y-139324D01*
Y-139261D01*
Y-139230D01*
Y-139214D01*
Y-138836D01*
X630423Y-138506D01*
Y-138238D01*
X630407Y-138018D01*
X630391Y-137845D01*
Y-137719D01*
X630375Y-137656D01*
Y-137624D01*
X630328Y-137247D01*
X630297Y-137074D01*
X630265Y-136916D01*
X630234Y-136790D01*
X630202Y-136696D01*
X630187Y-136633D01*
Y-136617D01*
X630108Y-136397D01*
X629998Y-136208D01*
X629872Y-136035D01*
X629746Y-135877D01*
X629604Y-135736D01*
X629463Y-135610D01*
X629321Y-135515D01*
X629179Y-135421D01*
X628912Y-135279D01*
X628786Y-135232D01*
X628676Y-135200D01*
X628597Y-135169D01*
X628534Y-135153D01*
X628487Y-135137D01*
X628471D01*
X628062Y-135074D01*
X627873Y-135043D01*
X627715Y-135027D01*
X627574Y-135011D01*
X627479Y-134996D01*
X627275D01*
X627149Y-134980D01*
X626818D01*
X626456Y-134964D01*
D02*
G37*
G36*
X603806D02*
X601005D01*
Y-143700D01*
X603806D01*
Y-134964D01*
D02*
G37*
G36*
X614997D02*
X604420D01*
Y-137199D01*
X608308D01*
Y-143700D01*
X611110D01*
Y-137199D01*
X614997D01*
Y-134964D01*
D02*
G37*
G36*
X653387D02*
X646824D01*
Y-143700D01*
X649484D01*
Y-141559D01*
X653592D01*
X653812Y-141544D01*
X654174D01*
X654332Y-141528D01*
X654584D01*
X654678Y-141512D01*
X654836D01*
X654883Y-141496D01*
X654946D01*
X655229Y-141465D01*
X655481Y-141418D01*
X655701Y-141355D01*
X655874Y-141307D01*
X656016Y-141260D01*
X656126Y-141213D01*
X656189Y-141197D01*
X656205Y-141182D01*
X656362Y-141087D01*
X656504Y-140977D01*
X656630Y-140867D01*
X656740Y-140757D01*
X656819Y-140662D01*
X656882Y-140584D01*
X656913Y-140521D01*
X656929Y-140505D01*
X656992Y-140379D01*
X657055Y-140222D01*
X657149Y-139875D01*
X657212Y-139497D01*
X657259Y-139135D01*
X657291Y-138789D01*
Y-138632D01*
X657307Y-138506D01*
Y-138396D01*
Y-138301D01*
Y-138254D01*
Y-138238D01*
Y-137923D01*
X657291Y-137656D01*
X657259Y-137388D01*
X657228Y-137152D01*
X657197Y-136932D01*
X657165Y-136743D01*
X657118Y-136570D01*
X657071Y-136412D01*
X657023Y-136286D01*
X656992Y-136176D01*
X656945Y-136082D01*
X656913Y-136003D01*
X656882Y-135956D01*
X656850Y-135909D01*
X656835Y-135877D01*
X656740Y-135751D01*
X656630Y-135657D01*
X656362Y-135468D01*
X656079Y-135326D01*
X655796Y-135216D01*
X655528Y-135137D01*
X655402Y-135106D01*
X655292Y-135074D01*
X655213Y-135059D01*
X655150D01*
X655103Y-135043D01*
X655087D01*
X654977Y-135027D01*
X654851Y-135011D01*
X654694D01*
X654521Y-134996D01*
X654143Y-134980D01*
X653765D01*
X653387Y-134964D01*
D02*
G37*
G36*
X533748D02*
X528931D01*
X526334Y-140646D01*
X523737Y-134964D01*
X518921D01*
Y-143700D01*
X521533D01*
X521470Y-137168D01*
X521943D01*
X525232Y-143700D01*
X527452D01*
X530741Y-137168D01*
X531182D01*
X531119Y-143700D01*
X533748D01*
Y-134964D01*
D02*
G37*
G36*
X692407D02*
X688944D01*
X686221Y-138474D01*
X683372Y-134964D01*
X679878D01*
X684883Y-140615D01*
Y-143700D01*
X687638D01*
Y-140615D01*
X692407Y-134964D01*
D02*
G37*
G36*
X599824D02*
X597164D01*
Y-138978D01*
Y-139135D01*
Y-139293D01*
X597148Y-139450D01*
Y-139608D01*
X597133Y-139749D01*
Y-139859D01*
X597117Y-139922D01*
Y-139954D01*
X597101Y-140158D01*
X597085Y-140316D01*
X597070Y-140458D01*
X597054Y-140568D01*
X597038Y-140662D01*
Y-140725D01*
X597022Y-140757D01*
Y-140772D01*
X596975Y-140930D01*
X596897Y-141056D01*
X596849Y-141134D01*
X596818Y-141166D01*
X596723Y-141245D01*
X596613Y-141307D01*
X596361Y-141418D01*
X596251Y-141449D01*
X596157Y-141465D01*
X596094Y-141481D01*
X596062D01*
X595952Y-141496D01*
X595826Y-141512D01*
X595543Y-141528D01*
X595212Y-141544D01*
X594898D01*
X594614Y-141559D01*
X593560D01*
X593292Y-141544D01*
X593056Y-141528D01*
X592851D01*
X592662Y-141512D01*
X592505Y-141496D01*
X592363Y-141481D01*
X592238Y-141465D01*
X592127Y-141449D01*
X592049Y-141433D01*
X591970D01*
X591923Y-141418D01*
X591891Y-141402D01*
X591860D01*
X591671Y-141323D01*
X591529Y-141229D01*
X591419Y-141119D01*
X591325Y-141008D01*
X591277Y-140914D01*
X591246Y-140820D01*
X591214Y-140757D01*
Y-140741D01*
X591199Y-140662D01*
X591183Y-140552D01*
Y-140442D01*
X591167Y-140300D01*
X591151Y-140017D01*
X591136Y-139718D01*
Y-139435D01*
X591120Y-139309D01*
Y-139198D01*
Y-139104D01*
Y-139041D01*
Y-138994D01*
Y-138978D01*
Y-134964D01*
X588460D01*
Y-138978D01*
Y-139261D01*
Y-139497D01*
Y-139734D01*
Y-139938D01*
Y-140111D01*
Y-140284D01*
Y-140426D01*
X588476Y-140536D01*
Y-140646D01*
Y-140725D01*
Y-140804D01*
Y-140851D01*
Y-140930D01*
Y-140945D01*
X588507Y-141276D01*
X588523Y-141433D01*
X588554Y-141575D01*
X588570Y-141685D01*
X588586Y-141796D01*
X588602Y-141858D01*
Y-141874D01*
X588664Y-142126D01*
X588743Y-142346D01*
X588838Y-142535D01*
X588964Y-142724D01*
X589089Y-142882D01*
X589231Y-143007D01*
X589373Y-143133D01*
X589514Y-143244D01*
X589656Y-143322D01*
X589782Y-143401D01*
X589908Y-143448D01*
X590018Y-143495D01*
X590113Y-143527D01*
X590176Y-143558D01*
X590223Y-143574D01*
X590239D01*
X590490Y-143621D01*
X590742Y-143653D01*
X590978Y-143684D01*
X591214Y-143716D01*
X591419Y-143731D01*
X591576Y-143747D01*
X591639Y-143763D01*
X591718D01*
X591891Y-143779D01*
X592080D01*
X592474Y-143794D01*
X592883Y-143810D01*
X593276D01*
X593449Y-143826D01*
X594913D01*
X595244Y-143810D01*
X595543D01*
X595811Y-143794D01*
X596062D01*
X596283Y-143779D01*
X596472Y-143763D01*
X596645D01*
X596802Y-143747D01*
X596912D01*
X597022Y-143731D01*
X597101D01*
X597148Y-143716D01*
X597196D01*
X597526Y-143668D01*
X597810Y-143621D01*
X598061Y-143558D01*
X598266Y-143495D01*
X598423Y-143432D01*
X598533Y-143385D01*
X598612Y-143354D01*
X598628Y-143338D01*
X598785Y-143228D01*
X598927Y-143118D01*
X599179Y-142866D01*
X599352Y-142598D01*
X599494Y-142331D01*
X599588Y-142095D01*
X599620Y-141984D01*
X599651Y-141890D01*
X599667Y-141827D01*
Y-141764D01*
X599683Y-141733D01*
Y-141717D01*
X599698Y-141575D01*
X599714Y-141418D01*
X599730Y-141229D01*
X599746Y-141008D01*
X599777Y-140568D01*
X599793Y-140111D01*
Y-139875D01*
X599808Y-139671D01*
Y-139482D01*
Y-139309D01*
X599824Y-139183D01*
Y-139072D01*
Y-138994D01*
Y-138978D01*
Y-134964D01*
D02*
G37*
G36*
X675770D02*
X671630D01*
X667223Y-143312D01*
Y-141465D01*
X661006D01*
Y-134964D01*
X658204D01*
Y-143700D01*
X670040D01*
X670780Y-142220D01*
X676572D01*
X677312Y-143700D01*
X680334D01*
X675770Y-134964D01*
D02*
G37*
G36*
X563544D02*
X560742D01*
Y-143700D01*
X563544D01*
Y-134964D01*
D02*
G37*
%LPD*%
G36*
X571712Y-137168D02*
X572059D01*
X572153Y-137184D01*
X572263D01*
X572405Y-137199D01*
X572515Y-137231D01*
X572578Y-137247D01*
X572610Y-137262D01*
X572736Y-137341D01*
X572814Y-137451D01*
X572862Y-137530D01*
X572877Y-137546D01*
Y-137561D01*
X572909Y-137640D01*
X572940Y-137750D01*
X572956Y-137955D01*
X572972Y-138049D01*
Y-138128D01*
Y-138175D01*
Y-138191D01*
Y-138348D01*
X572956Y-138474D01*
X572940Y-138600D01*
Y-138679D01*
X572925Y-138758D01*
X572909Y-138805D01*
X572893Y-138836D01*
Y-138852D01*
X572830Y-138994D01*
X572751Y-139088D01*
X572688Y-139151D01*
X572673Y-139167D01*
X572657D01*
X572547Y-139214D01*
X572437Y-139246D01*
X572358Y-139261D01*
X572216D01*
X572059Y-139277D01*
X571681D01*
X571476Y-139293D01*
X567431D01*
Y-137152D01*
X571476D01*
X571712Y-137168D01*
D02*
G37*
G36*
X625953D02*
X626110D01*
X626236Y-137184D01*
X626456D01*
X626629Y-137199D01*
X626740Y-137215D01*
X626802Y-137231D01*
X626818D01*
X626976Y-137262D01*
X627102Y-137310D01*
X627212Y-137357D01*
X627306Y-137404D01*
X627369Y-137451D01*
X627416Y-137498D01*
X627448Y-137514D01*
X627464Y-137530D01*
X627527Y-137624D01*
X627590Y-137719D01*
X627668Y-137923D01*
X627700Y-138018D01*
X627715Y-138097D01*
X627731Y-138144D01*
Y-138160D01*
X627763Y-138333D01*
X627778Y-138522D01*
X627794Y-138726D01*
Y-138915D01*
X627810Y-139088D01*
Y-139246D01*
Y-139340D01*
Y-139356D01*
Y-139372D01*
Y-139655D01*
X627794Y-139907D01*
X627778Y-140111D01*
X627763Y-140284D01*
X627747Y-140426D01*
X627731Y-140521D01*
X627715Y-140584D01*
Y-140599D01*
X627668Y-140741D01*
X627621Y-140851D01*
X627574Y-140945D01*
X627527Y-141024D01*
X627479Y-141087D01*
X627432Y-141134D01*
X627416Y-141150D01*
X627401Y-141166D01*
X627322Y-141229D01*
X627212Y-141276D01*
X626991Y-141355D01*
X626881Y-141370D01*
X626802Y-141386D01*
X626740Y-141402D01*
X626724D01*
X626519Y-141418D01*
X626283Y-141433D01*
X626031Y-141449D01*
X625779D01*
X625559Y-141465D01*
X621514D01*
Y-137152D01*
X625795D01*
X625953Y-137168D01*
D02*
G37*
G36*
X653214D02*
X653387D01*
X653529Y-137184D01*
X653671D01*
X653781Y-137199D01*
X653875D01*
X653954Y-137215D01*
X654064Y-137231D01*
X654143D01*
X654174Y-137247D01*
X654190D01*
X654348Y-137341D01*
X654442Y-137435D01*
X654505Y-137530D01*
X654521Y-137546D01*
Y-137561D01*
X654552Y-137656D01*
X654584Y-137766D01*
X654615Y-137986D01*
X654631Y-138081D01*
Y-138160D01*
Y-138223D01*
Y-138238D01*
Y-138396D01*
X654615Y-138537D01*
X654599Y-138663D01*
Y-138758D01*
X654584Y-138836D01*
X654568Y-138884D01*
X654552Y-138915D01*
Y-138931D01*
X654473Y-139072D01*
X654379Y-139167D01*
X654300Y-139230D01*
X654285Y-139246D01*
X654269D01*
X654143Y-139309D01*
X654033Y-139340D01*
X653938Y-139356D01*
X653797D01*
X653655Y-139372D01*
X649484D01*
Y-137152D01*
X653025D01*
X653214Y-137168D01*
D02*
G37*
G36*
X675628Y-140300D02*
X671740D01*
X673424Y-136995D01*
X673944D01*
X675628Y-140300D01*
D02*
G37*
D10*
X12452Y-116643D02*
Y-33573D01*
X161665D01*
X12452Y-116643D02*
X161665D01*
Y-33573D01*
D26*
X686283Y-86731D02*
G03*
X685890Y-86731I-197J0D01*
G01*
D02*
G03*
X686283Y-86731I197J0D01*
G01*
Y-63731D02*
G03*
X685890Y-63731I-197J0D01*
G01*
D02*
G03*
X686283Y-63731I197J0D01*
G01*
X544533Y-95481D02*
G03*
X544140Y-95481I-197J0D01*
G01*
D02*
G03*
X544533Y-95481I197J0D01*
G01*
Y-54981D02*
G03*
X544140Y-54981I-197J0D01*
G01*
D02*
G03*
X544533Y-54981I197J0D01*
G01*
X701047Y-86731D02*
G03*
X701047Y-86731I-6102J0D01*
G01*
Y-63731D02*
G03*
X701047Y-63731I-6102J0D01*
G01*
X559297Y-95481D02*
G03*
X559297Y-95481I-6102J0D01*
G01*
Y-54981D02*
G03*
X559297Y-54981I-6102J0D01*
G01*
D27*
X477294Y-37313D02*
X526507D01*
X477294Y-112903D02*
X526101D01*
X477294D02*
Y-37313D01*
X526507Y-112903D02*
Y-37313D01*
X761586D02*
X810798D01*
X761586Y-112903D02*
X810392D01*
X761586D02*
Y-37313D01*
X810798Y-112903D02*
Y-37313D01*
X428082D02*
X477294D01*
X428082Y-112903D02*
X476888D01*
X428082D02*
Y-37313D01*
X477294Y-112903D02*
Y-37313D01*
X712373D02*
X761586D01*
X712373Y-112903D02*
X761179D01*
X712373D02*
Y-37313D01*
X761586Y-112903D02*
Y-37313D01*
X378869D02*
X428082D01*
X378869Y-112903D02*
X427676D01*
X378869D02*
Y-37313D01*
X428082Y-112903D02*
Y-37313D01*
X329657D02*
X378869D01*
X329657Y-112903D02*
X378463D01*
X329657D02*
Y-37313D01*
X378869Y-112903D02*
Y-37313D01*
X243082D02*
X292295D01*
X243082Y-112903D02*
X291888D01*
X243082D02*
Y-37313D01*
X292295Y-112903D02*
Y-37313D01*
X628082D02*
X677294D01*
X628082Y-112903D02*
X676888D01*
X628082D02*
Y-37313D01*
X677294Y-112903D02*
Y-37313D01*
X193869D02*
X243082D01*
X193869Y-112903D02*
X242676D01*
X193869D02*
Y-37313D01*
X243082Y-112903D02*
Y-37313D01*
X578869D02*
X628082D01*
X578869Y-112903D02*
X627676D01*
X578869D02*
Y-37313D01*
X628082Y-112903D02*
Y-37313D01*
D28*
X689400Y-96101D02*
Y-99100D01*
X691399D01*
X694398Y-96101D02*
X692399D01*
Y-99100D01*
X694398D01*
X692399Y-97601D02*
X693399D01*
X695398Y-96101D02*
Y-99100D01*
X696898D01*
X697397Y-98600D01*
Y-96601D01*
X696898Y-96101D01*
X695398D01*
X699897Y-99100D02*
Y-96101D01*
X698397Y-97601D01*
X700396D01*
X547700Y-104801D02*
Y-107800D01*
X549699D01*
X552698Y-104801D02*
X550699D01*
Y-107800D01*
X552698D01*
X550699Y-106300D02*
X551699D01*
X553698Y-104801D02*
Y-107800D01*
X555198D01*
X555697Y-107300D01*
Y-105301D01*
X555198Y-104801D01*
X553698D01*
X558696Y-107800D02*
X556697D01*
X558696Y-105801D01*
Y-105301D01*
X558197Y-104801D01*
X557197D01*
X556697Y-105301D01*
X689400Y-73101D02*
Y-76100D01*
X691399D01*
X694398Y-73101D02*
X692399D01*
Y-76100D01*
X694398D01*
X692399Y-74600D02*
X693399D01*
X695398Y-73101D02*
Y-76100D01*
X696898D01*
X697397Y-75600D01*
Y-73601D01*
X696898Y-73101D01*
X695398D01*
X698397Y-73601D02*
X698897Y-73101D01*
X699897D01*
X700396Y-73601D01*
Y-74101D01*
X699897Y-74600D01*
X699397D01*
X699897D01*
X700396Y-75100D01*
Y-75600D01*
X699897Y-76100D01*
X698897D01*
X698397Y-75600D01*
X548200Y-64301D02*
Y-67300D01*
X550199D01*
X553198Y-64301D02*
X551199D01*
Y-67300D01*
X553198D01*
X551199Y-65800D02*
X552199D01*
X554198Y-64301D02*
Y-67300D01*
X555698D01*
X556197Y-66800D01*
Y-64801D01*
X555698Y-64301D01*
X554198D01*
X557197Y-67300D02*
X558197D01*
X557697D01*
Y-64301D01*
X557197Y-64801D01*
X193869Y-114501D02*
Y-117500D01*
X195369D01*
X195869Y-117000D01*
Y-115001D01*
X195369Y-114501D01*
X193869D01*
X198868Y-115001D02*
X198368Y-114501D01*
X197368D01*
X196868Y-115001D01*
Y-115501D01*
X197368Y-116000D01*
X198368D01*
X198868Y-116500D01*
Y-117000D01*
X198368Y-117500D01*
X197368D01*
X196868Y-117000D01*
X199867Y-117500D02*
X200867D01*
X200367D01*
Y-114501D01*
X199867Y-115001D01*
X329678Y-114501D02*
Y-117500D01*
X331177D01*
X331677Y-117000D01*
Y-115001D01*
X331177Y-114501D01*
X329678D01*
X334676Y-115001D02*
X334176Y-114501D01*
X333176D01*
X332677Y-115001D01*
Y-115501D01*
X333176Y-116000D01*
X334176D01*
X334676Y-116500D01*
Y-117000D01*
X334176Y-117500D01*
X333176D01*
X332677Y-117000D01*
X335676Y-115001D02*
X336175Y-114501D01*
X337175D01*
X337675Y-115001D01*
Y-115501D01*
X337175Y-116000D01*
X336675D01*
X337175D01*
X337675Y-116500D01*
Y-117000D01*
X337175Y-117500D01*
X336175D01*
X335676Y-117000D01*
X428756Y-114501D02*
Y-117500D01*
X430255D01*
X430755Y-117000D01*
Y-115001D01*
X430255Y-114501D01*
X428756D01*
X433754Y-115001D02*
X433254Y-114501D01*
X432254D01*
X431754Y-115001D01*
Y-115501D01*
X432254Y-116000D01*
X433254D01*
X433754Y-116500D01*
Y-117000D01*
X433254Y-117500D01*
X432254D01*
X431754Y-117000D01*
X436753Y-114501D02*
X434754D01*
Y-116000D01*
X435753Y-115501D01*
X436253D01*
X436753Y-116000D01*
Y-117000D01*
X436253Y-117500D01*
X435253D01*
X434754Y-117000D01*
X579167Y-114501D02*
Y-117500D01*
X580666D01*
X581166Y-117000D01*
Y-115001D01*
X580666Y-114501D01*
X579167D01*
X584165Y-115001D02*
X583665Y-114501D01*
X582665D01*
X582166Y-115001D01*
Y-115501D01*
X582665Y-116000D01*
X583665D01*
X584165Y-116500D01*
Y-117000D01*
X583665Y-117500D01*
X582665D01*
X582166Y-117000D01*
X585165Y-114501D02*
X587164D01*
Y-115001D01*
X585165Y-117000D01*
Y-117500D01*
X712567Y-114501D02*
Y-117500D01*
X714066D01*
X714566Y-117000D01*
Y-115001D01*
X714066Y-114501D01*
X712567D01*
X717565Y-115001D02*
X717065Y-114501D01*
X716065D01*
X715566Y-115001D01*
Y-115501D01*
X716065Y-116000D01*
X717065D01*
X717565Y-116500D01*
Y-117000D01*
X717065Y-117500D01*
X716065D01*
X715566Y-117000D01*
X718565D02*
X719064Y-117500D01*
X720064D01*
X720564Y-117000D01*
Y-115001D01*
X720064Y-114501D01*
X719064D01*
X718565Y-115001D01*
Y-115501D01*
X719064Y-116000D01*
X720564D01*
X243958Y-114501D02*
Y-117500D01*
X245457D01*
X245957Y-117000D01*
Y-115001D01*
X245457Y-114501D01*
X243958D01*
X248956Y-115001D02*
X248456Y-114501D01*
X247457D01*
X246957Y-115001D01*
Y-115501D01*
X247457Y-116000D01*
X248456D01*
X248956Y-116500D01*
Y-117000D01*
X248456Y-117500D01*
X247457D01*
X246957Y-117000D01*
X251955Y-117500D02*
X249956D01*
X251955Y-115501D01*
Y-115001D01*
X251455Y-114501D01*
X250456D01*
X249956Y-115001D01*
X379558Y-114501D02*
Y-117500D01*
X381058D01*
X381558Y-117000D01*
Y-115001D01*
X381058Y-114501D01*
X379558D01*
X384557Y-115001D02*
X384057Y-114501D01*
X383057D01*
X382557Y-115001D01*
Y-115501D01*
X383057Y-116000D01*
X384057D01*
X384557Y-116500D01*
Y-117000D01*
X384057Y-117500D01*
X383057D01*
X382557Y-117000D01*
X387056Y-117500D02*
Y-114501D01*
X385556Y-116000D01*
X387556D01*
X478111Y-114501D02*
Y-117500D01*
X479611D01*
X480111Y-117000D01*
Y-115001D01*
X479611Y-114501D01*
X478111D01*
X483110Y-115001D02*
X482610Y-114501D01*
X481610D01*
X481110Y-115001D01*
Y-115501D01*
X481610Y-116000D01*
X482610D01*
X483110Y-116500D01*
Y-117000D01*
X482610Y-117500D01*
X481610D01*
X481110Y-117000D01*
X486109Y-114501D02*
X485109Y-115001D01*
X484109Y-116000D01*
Y-117000D01*
X484609Y-117500D01*
X485609D01*
X486109Y-117000D01*
Y-116500D01*
X485609Y-116000D01*
X484109D01*
X628997Y-114501D02*
Y-117500D01*
X630497D01*
X630997Y-117000D01*
Y-115001D01*
X630497Y-114501D01*
X628997D01*
X633996Y-115001D02*
X633496Y-114501D01*
X632496D01*
X631996Y-115001D01*
Y-115501D01*
X632496Y-116000D01*
X633496D01*
X633996Y-116500D01*
Y-117000D01*
X633496Y-117500D01*
X632496D01*
X631996Y-117000D01*
X634995Y-115001D02*
X635495Y-114501D01*
X636495D01*
X636995Y-115001D01*
Y-115501D01*
X636495Y-116000D01*
X636995Y-116500D01*
Y-117000D01*
X636495Y-117500D01*
X635495D01*
X634995Y-117000D01*
Y-116500D01*
X635495Y-116000D01*
X634995Y-115501D01*
Y-115001D01*
X635495Y-116000D02*
X636495D01*
X762462Y-114501D02*
Y-117500D01*
X763961D01*
X764461Y-117000D01*
Y-115001D01*
X763961Y-114501D01*
X762462D01*
X767460Y-115001D02*
X766960Y-114501D01*
X765961D01*
X765461Y-115001D01*
Y-115501D01*
X765961Y-116000D01*
X766960D01*
X767460Y-116500D01*
Y-117000D01*
X766960Y-117500D01*
X765961D01*
X765461Y-117000D01*
X768460Y-117500D02*
X769460D01*
X768960D01*
Y-114501D01*
X768460Y-115001D01*
X770959D02*
X771459Y-114501D01*
X772459D01*
X772958Y-115001D01*
Y-117000D01*
X772459Y-117500D01*
X771459D01*
X770959Y-117000D01*
Y-115001D01*
X12100Y-118301D02*
Y-121300D01*
X13600D01*
X14099Y-120800D01*
Y-118801D01*
X13600Y-118301D01*
X12100D01*
X17098Y-118801D02*
X16599Y-118301D01*
X15599D01*
X15099Y-118801D01*
Y-119301D01*
X15599Y-119800D01*
X16599D01*
X17098Y-120300D01*
Y-120800D01*
X16599Y-121300D01*
X15599D01*
X15099Y-120800D01*
X18098Y-121300D02*
Y-118301D01*
X19598D01*
X20097Y-118801D01*
Y-119800D01*
X19598Y-120300D01*
X18098D01*
X21097Y-121300D02*
X22097D01*
X21597D01*
Y-118301D01*
X21097Y-118801D01*
M02*
