G04 Layer_Color=128*
%FSLAX25Y25*%
%MOIN*%
G70*
G01*
G75*
%ADD18R,0.03150X0.06890*%
%ADD19R,0.04134X0.05512*%
%ADD20R,0.03740X0.05709*%
%ADD21R,0.05709X0.03740*%
%ADD22R,0.02559X0.08268*%
%ADD23R,0.04921X0.02953*%
%ADD24R,0.05787X0.04016*%
%ADD25R,0.05787X0.03898*%
D18*
X318051Y-93113D02*
D03*
X328051D02*
D03*
X338051D02*
D03*
Y-57287D02*
D03*
X328051D02*
D03*
X318051D02*
D03*
D19*
X700000Y-116400D02*
D03*
X692520D02*
D03*
X699902Y-39734D02*
D03*
X692421D02*
D03*
X565354Y-95442D02*
D03*
X572835D02*
D03*
X565354Y-54981D02*
D03*
X572835D02*
D03*
D20*
X350326Y-76742D02*
D03*
X358200D02*
D03*
X350326Y-68671D02*
D03*
X358200D02*
D03*
X350326Y-60600D02*
D03*
X358200D02*
D03*
D21*
X342300Y-17837D02*
D03*
Y-9963D02*
D03*
X331000Y-17837D02*
D03*
Y-9963D02*
D03*
D22*
X218500Y-56893D02*
D03*
X213500D02*
D03*
X208500D02*
D03*
X203500D02*
D03*
X198500D02*
D03*
X193500D02*
D03*
X188500D02*
D03*
X183500D02*
D03*
X178500D02*
D03*
X173500D02*
D03*
X168500D02*
D03*
X163500D02*
D03*
X158500D02*
D03*
X153500D02*
D03*
Y-93507D02*
D03*
X158500D02*
D03*
X163500D02*
D03*
X168500D02*
D03*
X173500D02*
D03*
X178500D02*
D03*
X183500D02*
D03*
X188500D02*
D03*
X193500D02*
D03*
X198500D02*
D03*
X203500D02*
D03*
X208500D02*
D03*
X213500D02*
D03*
X218500D02*
D03*
D23*
X305118Y-43769D02*
D03*
X318110D02*
D03*
D24*
X233563Y-70738D02*
D03*
Y-77037D02*
D03*
D25*
X226279Y-77116D02*
D03*
Y-70659D02*
D03*
M02*
