G04 Layer_Color=16711935*
%FSLAX25Y25*%
%MOIN*%
G70*
G01*
G75*
%ADD101R,0.05820X0.05820*%
%ADD102C,0.05820*%
%ADD103C,0.00800*%
%ADD104C,0.07296*%
%ADD105R,0.07296X0.07296*%
%ADD106C,0.07887*%
%ADD107C,0.02670*%
%ADD108C,0.07591*%
%ADD109R,0.07591X0.07591*%
%ADD110R,0.07591X0.07591*%
%ADD111R,0.06375X0.06375*%
%ADD112C,0.06375*%
%ADD113C,0.06312*%
%ADD114C,0.09068*%
%ADD115C,0.05591*%
%ADD116C,0.06706*%
%ADD117R,0.06706X0.06706*%
%ADD118R,0.05918X0.05918*%
%ADD119C,0.05918*%
%ADD120C,0.05725*%
D101*
X59000Y108500D02*
D03*
D102*
Y98500D02*
D03*
Y88500D02*
D03*
D103*
X361281Y125000D02*
D03*
Y265000D02*
D03*
X10000Y369841D02*
D03*
Y10000D02*
D03*
D104*
X278626Y360312D02*
D03*
X203933Y360261D02*
D03*
X213776D02*
D03*
X223618D02*
D03*
X268843Y13100D02*
D03*
X166642D02*
D03*
X176485D02*
D03*
X186328D02*
D03*
X196170D02*
D03*
X206013D02*
D03*
X215855D02*
D03*
X139083Y360261D02*
D03*
X148925D02*
D03*
X158768D02*
D03*
D105*
X268784Y360312D02*
D03*
X194091Y360261D02*
D03*
X259000Y13100D02*
D03*
X156800D02*
D03*
X129240Y360261D02*
D03*
D106*
X60000Y360262D02*
D03*
X69842D02*
D03*
X79685D02*
D03*
X89528D02*
D03*
X99370D02*
D03*
D107*
X345818Y19953D02*
D03*
X319834D02*
D03*
D108*
X252100Y166200D02*
D03*
X165300Y110400D02*
D03*
D109*
X252100Y156200D02*
D03*
D110*
X155300Y110400D02*
D03*
D111*
X26561Y339290D02*
D03*
X26412Y273345D02*
D03*
X27212Y207400D02*
D03*
X27112Y141455D02*
D03*
D112*
X36403Y339290D02*
D03*
X36254Y273345D02*
D03*
X37054Y207400D02*
D03*
X36954Y141455D02*
D03*
D113*
X349000Y231156D02*
D03*
X333252D02*
D03*
X317504D02*
D03*
X349000Y354800D02*
D03*
X333252D02*
D03*
X317504D02*
D03*
D114*
X303724Y223282D02*
D03*
X362779Y247692D02*
D03*
X303724Y346926D02*
D03*
X362779Y371335D02*
D03*
D115*
X360897Y327575D02*
D03*
X350897D02*
D03*
X340897D02*
D03*
X330897D02*
D03*
X360897Y297575D02*
D03*
X350897D02*
D03*
X340897D02*
D03*
X330897D02*
D03*
D116*
X320457Y100584D02*
D03*
X346047D02*
D03*
X320457Y118300D02*
D03*
D117*
X346047D02*
D03*
D118*
X20401Y71460D02*
D03*
D119*
X30401D02*
D03*
X40401D02*
D03*
D120*
X160900Y173343D02*
D03*
Y163500D02*
D03*
Y153657D02*
D03*
M02*
