G04 Layer_Color=65535*
%FSLAX25Y25*%
%MOIN*%
G70*
G01*
G75*
%ADD42C,0.01000*%
%ADD61C,0.00787*%
%ADD62C,0.00394*%
%ADD63C,0.00984*%
%ADD64C,0.00800*%
G36*
X369894Y275000D02*
X321900D01*
Y288294D01*
X369894D01*
Y275000D01*
D02*
G37*
G36*
X298194Y334500D02*
X250200D01*
Y347794D01*
X298194D01*
Y334500D01*
D02*
G37*
G36*
X168493Y341554D02*
Y334500D01*
X120499D01*
Y341554D01*
Y347794D01*
X168493D01*
Y341554D01*
D02*
G37*
G36*
X233344Y341558D02*
Y334496D01*
X185350D01*
Y341558D01*
Y347798D01*
X233344D01*
Y341558D01*
D02*
G37*
G36*
X103643Y334500D02*
X55649D01*
Y347794D01*
X103643D01*
Y334500D01*
D02*
G37*
G36*
X176990Y68853D02*
X138196D01*
Y82147D01*
X176990D01*
Y68853D01*
D02*
G37*
G36*
X177194Y83753D02*
X137992D01*
Y97047D01*
X177194D01*
Y83753D01*
D02*
G37*
G36*
X209794Y31900D02*
X161800D01*
Y45194D01*
X209794D01*
Y31900D01*
D02*
G37*
G36*
X287794D02*
X239800D01*
Y45194D01*
X287794D01*
Y31900D01*
D02*
G37*
G36*
X250501Y264600D02*
X211299D01*
Y277894D01*
X250501D01*
Y264600D01*
D02*
G37*
G36*
X144601Y228400D02*
X105399D01*
Y241694D01*
X144601D01*
Y228400D01*
D02*
G37*
%LPC*%
G36*
X361559Y283708D02*
X360279D01*
X360309Y280644D01*
X360183D01*
X358029Y283708D01*
X355839D01*
Y279601D01*
X357112D01*
X357082Y282665D01*
X357215D01*
X359376Y279601D01*
X361559D01*
Y283708D01*
D02*
G37*
G36*
X338138D02*
X334882D01*
Y279601D01*
X338590D01*
X338686Y279608D01*
X338967D01*
X339004Y279616D01*
X339085D01*
X339204Y279631D01*
X339300Y279645D01*
X339389Y279660D01*
X339463Y279682D01*
X339514Y279697D01*
X339559Y279705D01*
X339581Y279719D01*
X339588D01*
X339655Y279749D01*
X339714Y279786D01*
X339759Y279831D01*
X339803Y279868D01*
X339833Y279905D01*
X339855Y279927D01*
X339870Y279949D01*
X339877Y279956D01*
X339929Y280060D01*
X339973Y280178D01*
X340003Y280297D01*
X340018Y280422D01*
X340033Y280534D01*
X340040Y280622D01*
Y280659D01*
Y280681D01*
Y280696D01*
Y280704D01*
Y280822D01*
X340025Y280926D01*
X340010Y281022D01*
X339996Y281111D01*
X339973Y281185D01*
X339944Y281251D01*
X339914Y281318D01*
X339892Y281370D01*
X339862Y281414D01*
X339833Y281451D01*
X339781Y281503D01*
X339751Y281540D01*
X339737Y281547D01*
X339685Y281577D01*
X339618Y281607D01*
X339485Y281651D01*
X339426Y281666D01*
X339374Y281680D01*
X339344Y281688D01*
X339330D01*
X339440Y281725D01*
X339529Y281769D01*
X339603Y281821D01*
X339663Y281873D01*
X339707Y281917D01*
X339744Y281947D01*
X339759Y281977D01*
X339766Y281984D01*
X339810Y282073D01*
X339840Y282176D01*
X339862Y282280D01*
X339877Y282391D01*
X339884Y282487D01*
X339892Y282561D01*
Y282591D01*
Y282613D01*
Y282628D01*
Y282635D01*
Y282768D01*
X339877Y282879D01*
X339870Y282983D01*
X339855Y283064D01*
X339840Y283131D01*
X339825Y283175D01*
X339818Y283205D01*
X339810Y283212D01*
X339774Y283286D01*
X339737Y283353D01*
X339692Y283412D01*
X339648Y283456D01*
X339611Y283493D01*
X339574Y283523D01*
X339551Y283538D01*
X339544Y283545D01*
X339463Y283582D01*
X339374Y283619D01*
X339270Y283642D01*
X339174Y283664D01*
X339085Y283671D01*
X339019Y283679D01*
X338989Y283686D01*
X338908D01*
X338856Y283693D01*
X338701D01*
X338612Y283701D01*
X338323D01*
X338138Y283708D01*
D02*
G37*
G36*
X351606D02*
X349660D01*
X347492Y279601D01*
X348913D01*
X349260Y280297D01*
X351983D01*
X352331Y279601D01*
X353752D01*
X351606Y283708D01*
D02*
G37*
G36*
X355262D02*
X353944D01*
Y279601D01*
X355262D01*
Y283708D01*
D02*
G37*
G36*
X345124Y283767D02*
X344532D01*
X344310Y283760D01*
X344103D01*
X343910Y283752D01*
X343740Y283738D01*
X343577Y283730D01*
X343437Y283723D01*
X343311Y283708D01*
X343192Y283701D01*
X343096Y283686D01*
X343015Y283679D01*
X342948Y283671D01*
X342896Y283664D01*
X342859Y283656D01*
X342837Y283649D01*
X342830D01*
X342726Y283627D01*
X342630Y283597D01*
X342541Y283560D01*
X342467Y283516D01*
X342393Y283471D01*
X342334Y283427D01*
X342275Y283375D01*
X342230Y283323D01*
X342156Y283227D01*
X342105Y283146D01*
X342090Y283116D01*
X342075Y283094D01*
X342068Y283079D01*
Y283072D01*
X342016Y282902D01*
X341993Y282813D01*
X341979Y282731D01*
X341971Y282665D01*
X341964Y282613D01*
X341956Y282576D01*
Y282561D01*
X341949Y282443D01*
X341942Y282310D01*
X341934Y282169D01*
Y282036D01*
X341927Y281910D01*
Y281858D01*
Y281814D01*
Y281769D01*
Y281740D01*
Y281725D01*
Y281717D01*
Y281570D01*
Y281429D01*
Y281311D01*
X341934Y281192D01*
Y281096D01*
Y281000D01*
X341942Y280926D01*
Y280852D01*
Y280792D01*
X341949Y280741D01*
Y280696D01*
Y280667D01*
X341956Y280637D01*
Y280622D01*
Y280608D01*
X341971Y280504D01*
X341993Y280408D01*
X342016Y280326D01*
X342038Y280260D01*
X342060Y280201D01*
X342075Y280164D01*
X342082Y280134D01*
X342090Y280127D01*
X342127Y280060D01*
X342171Y280001D01*
X342215Y279949D01*
X342260Y279905D01*
X342297Y279868D01*
X342326Y279845D01*
X342349Y279831D01*
X342356Y279823D01*
X342460Y279764D01*
X342571Y279719D01*
X342689Y279675D01*
X342800Y279645D01*
X342904Y279623D01*
X342978Y279608D01*
X343007D01*
X343029Y279601D01*
X343052D01*
X343141Y279594D01*
X343244Y279579D01*
X343355Y279572D01*
X343474Y279564D01*
X343725Y279557D01*
X343969Y279549D01*
X344088D01*
X344199Y279542D01*
X344976D01*
X345101Y279549D01*
X345316D01*
X345405Y279557D01*
X345560D01*
X345627Y279564D01*
X345723D01*
X345753Y279572D01*
X345797D01*
X345945Y279579D01*
X346086Y279594D01*
X346212Y279608D01*
X346315Y279616D01*
X346404Y279631D01*
X346470Y279638D01*
X346508Y279645D01*
X346522D01*
X346656Y279682D01*
X346766Y279727D01*
X346870Y279779D01*
X346959Y279845D01*
X347040Y279912D01*
X347099Y279986D01*
X347159Y280060D01*
X347203Y280134D01*
X347240Y280201D01*
X347270Y280275D01*
X347292Y280334D01*
X347307Y280393D01*
X347322Y280437D01*
Y280474D01*
X347329Y280497D01*
Y280504D01*
X347336Y280593D01*
X347344Y280689D01*
X347358Y280896D01*
X347366Y281111D01*
X347373Y281325D01*
Y281421D01*
X347381Y281518D01*
Y281599D01*
Y281673D01*
Y281732D01*
Y281777D01*
Y281806D01*
Y281814D01*
Y281821D01*
Y281836D01*
X347373Y281880D01*
X347366Y281917D01*
Y281925D01*
Y281932D01*
X344510D01*
Y281111D01*
X346152D01*
X346160Y281051D01*
Y281022D01*
Y281000D01*
Y280992D01*
Y280933D01*
X346152Y280874D01*
X346145Y280830D01*
X346137Y280792D01*
X346130Y280763D01*
X346123Y280741D01*
X346115Y280733D01*
Y280726D01*
X346078Y280667D01*
X346041Y280630D01*
X346004Y280608D01*
X345997Y280600D01*
X345989D01*
X345893Y280571D01*
X345797Y280556D01*
X345760Y280548D01*
X345723Y280541D01*
X345531D01*
X345457Y280534D01*
X344361D01*
X344236Y280541D01*
X343940D01*
X343866Y280548D01*
X343710D01*
X343681Y280556D01*
X343614D01*
X343503Y280578D01*
X343459Y280600D01*
X343422Y280615D01*
X343392Y280630D01*
X343370Y280644D01*
X343355Y280659D01*
X343348D01*
X343311Y280696D01*
X343281Y280741D01*
X343237Y280830D01*
X343222Y280874D01*
X343215Y280911D01*
X343207Y280933D01*
Y280941D01*
X343200Y281029D01*
X343192Y281140D01*
X343185Y281259D01*
Y281384D01*
X343178Y281488D01*
Y281584D01*
Y281614D01*
Y281644D01*
Y281658D01*
Y281666D01*
Y281828D01*
X343185Y281962D01*
Y282080D01*
X343192Y282169D01*
X343200Y282236D01*
Y282280D01*
X343207Y282310D01*
Y282317D01*
X343222Y282383D01*
X343244Y282443D01*
X343266Y282487D01*
X343288Y282524D01*
X343311Y282554D01*
X343333Y282576D01*
X343340Y282591D01*
X343348D01*
X343392Y282620D01*
X343451Y282643D01*
X343577Y282680D01*
X343636Y282687D01*
X343681Y282694D01*
X343710Y282702D01*
X343725D01*
X343784Y282709D01*
X343844Y282716D01*
X343991Y282724D01*
X344147Y282731D01*
X344295D01*
X344436Y282739D01*
X345057D01*
X345213Y282731D01*
X345338D01*
X345442Y282724D01*
X345516D01*
X345560Y282716D01*
X345575D01*
X345693Y282709D01*
X345782Y282694D01*
X345864Y282680D01*
X345923Y282665D01*
X345967Y282650D01*
X345997Y282643D01*
X346012Y282628D01*
X346019D01*
X346049Y282591D01*
X346071Y282561D01*
X346086Y282531D01*
Y282524D01*
X346093Y282494D01*
X346100Y282465D01*
X346108Y282391D01*
X346115Y282354D01*
Y282324D01*
Y282302D01*
Y282295D01*
X347366D01*
Y282443D01*
X347358Y282576D01*
X347351Y282694D01*
X347344Y282783D01*
X347329Y282864D01*
X347322Y282916D01*
X347314Y282953D01*
Y282961D01*
X347292Y283050D01*
X347262Y283131D01*
X347225Y283197D01*
X347188Y283264D01*
X347092Y283375D01*
X346996Y283464D01*
X346900Y283523D01*
X346818Y283568D01*
X346789Y283582D01*
X346766Y283590D01*
X346752Y283597D01*
X346744D01*
X346626Y283627D01*
X346500Y283656D01*
X346374Y283679D01*
X346263Y283693D01*
X346152Y283708D01*
X346071Y283716D01*
X346041D01*
X346019Y283723D01*
X345997D01*
X345908Y283730D01*
X345812Y283738D01*
X345612Y283752D01*
X345412Y283760D01*
X345213D01*
X345124Y283767D01*
D02*
G37*
G36*
X334342Y283708D02*
X333254D01*
Y282124D01*
X333202D01*
X333143Y282221D01*
X333077Y282295D01*
X333002Y282361D01*
X332943Y282413D01*
X332884Y282450D01*
X332840Y282472D01*
X332810Y282487D01*
X332795Y282494D01*
X332744Y282509D01*
X332692Y282524D01*
X332566Y282554D01*
X332425Y282569D01*
X332292Y282576D01*
X332166Y282583D01*
X332115Y282591D01*
X331745D01*
X331641Y282583D01*
X331545Y282576D01*
X331456Y282569D01*
X331375D01*
X331300Y282561D01*
X331241Y282554D01*
X331182Y282546D01*
X331130Y282539D01*
X331093Y282531D01*
X331056Y282524D01*
X331034Y282517D01*
X331012D01*
X331005Y282509D01*
X330997D01*
X330849Y282465D01*
X330723Y282398D01*
X330620Y282332D01*
X330538Y282258D01*
X330472Y282191D01*
X330435Y282132D01*
X330405Y282095D01*
X330398Y282087D01*
Y282080D01*
X330339Y281940D01*
X330316Y281873D01*
X330301Y281814D01*
X330287Y281754D01*
X330279Y281710D01*
X330272Y281680D01*
Y281673D01*
X330257Y281584D01*
X330250Y281488D01*
X330242Y281384D01*
Y281288D01*
X330235Y281207D01*
Y281133D01*
Y281088D01*
Y281081D01*
Y281074D01*
Y280881D01*
X330242Y280718D01*
X330257Y280578D01*
X330272Y280467D01*
X330279Y280378D01*
X330294Y280311D01*
X330301Y280275D01*
Y280260D01*
X330331Y280164D01*
X330368Y280082D01*
X330405Y280008D01*
X330450Y279949D01*
X330486Y279897D01*
X330516Y279860D01*
X330538Y279838D01*
X330546Y279831D01*
X330620Y279771D01*
X330709Y279719D01*
X330790Y279682D01*
X330871Y279645D01*
X330945Y279623D01*
X331005Y279608D01*
X331042Y279594D01*
X331056D01*
X331189Y279572D01*
X331330Y279557D01*
X331486Y279542D01*
X331633Y279535D01*
X331759D01*
X331819Y279527D01*
X332100D01*
X332218Y279535D01*
X332336Y279542D01*
X332440Y279557D01*
X332529Y279572D01*
X332618Y279586D01*
X332692Y279601D01*
X332758Y279616D01*
X332818Y279631D01*
X332869Y279645D01*
X332914Y279660D01*
X332943Y279675D01*
X332973Y279690D01*
X332988Y279697D01*
X333002Y279705D01*
X333054Y279742D01*
X333099Y279786D01*
X333180Y279875D01*
X333210Y279919D01*
X333232Y279956D01*
X333247Y279978D01*
X333254Y279986D01*
X333313D01*
Y279601D01*
X334342D01*
Y283708D01*
D02*
G37*
%LPD*%
G36*
X338116Y282731D02*
X338301D01*
X338345Y282724D01*
X338441D01*
X338471Y282716D01*
X338493D01*
X338552Y282687D01*
X338597Y282650D01*
X338634Y282598D01*
X338656Y282546D01*
X338671Y282502D01*
X338678Y282457D01*
Y282428D01*
Y282420D01*
X338671Y282339D01*
X338656Y282273D01*
X338634Y282228D01*
X338604Y282191D01*
X338575Y282161D01*
X338552Y282147D01*
X338538Y282132D01*
X338530D01*
X338501Y282124D01*
X338464Y282117D01*
X338419Y282110D01*
X338375D01*
X338257Y282095D01*
X338138D01*
X338027Y282087D01*
X336073D01*
Y282739D01*
X338035D01*
X338116Y282731D01*
D02*
G37*
G36*
X338182Y281259D02*
X338412D01*
X338464Y281251D01*
X338575D01*
X338612Y281244D01*
X338634D01*
X338701Y281222D01*
X338745Y281177D01*
X338782Y281125D01*
X338804Y281074D01*
X338819Y281022D01*
X338826Y280985D01*
Y280955D01*
Y280941D01*
X338819Y280852D01*
X338804Y280785D01*
X338774Y280726D01*
X338745Y280689D01*
X338715Y280659D01*
X338686Y280637D01*
X338671Y280622D01*
X338664D01*
X338604Y280608D01*
X338545Y280600D01*
X338501Y280593D01*
X338390D01*
X338345Y280585D01*
X336073D01*
Y281266D01*
X338086D01*
X338182Y281259D01*
D02*
G37*
G36*
X351539Y281200D02*
X349712D01*
X350503Y282753D01*
X350748D01*
X351539Y281200D01*
D02*
G37*
G36*
X332640Y281754D02*
X332758Y281740D01*
X332855Y281725D01*
X332921Y281710D01*
X332973Y281695D01*
X333002Y281688D01*
X333010Y281680D01*
X333062Y281658D01*
X333099Y281621D01*
X333136Y281592D01*
X333158Y281562D01*
X333180Y281525D01*
X333195Y281503D01*
X333202Y281488D01*
Y281481D01*
X333225Y281421D01*
X333239Y281355D01*
X333254Y281214D01*
X333261Y281155D01*
Y281103D01*
Y281066D01*
Y281051D01*
Y280963D01*
X333254Y280881D01*
X333247Y280815D01*
X333239Y280755D01*
X333232Y280718D01*
X333225Y280681D01*
X333217Y280667D01*
Y280659D01*
X333180Y280578D01*
X333136Y280519D01*
X333091Y280489D01*
X333084Y280474D01*
X333077D01*
X333032Y280452D01*
X332988Y280430D01*
X332869Y280400D01*
X332736Y280378D01*
X332595Y280363D01*
X332470Y280356D01*
X332418D01*
X332366Y280348D01*
X332100D01*
X331952Y280363D01*
X331833Y280371D01*
X331737Y280385D01*
X331670Y280400D01*
X331619Y280408D01*
X331589Y280422D01*
X331582D01*
X331530Y280445D01*
X331486Y280482D01*
X331456Y280511D01*
X331426Y280548D01*
X331404Y280578D01*
X331389Y280600D01*
X331382Y280615D01*
Y280622D01*
X331367Y280681D01*
X331352Y280755D01*
X331337Y280911D01*
X331330Y280978D01*
Y281037D01*
Y281074D01*
Y281088D01*
X331337Y281237D01*
X331360Y281355D01*
X331389Y281451D01*
X331419Y281525D01*
X331449Y281584D01*
X331478Y281614D01*
X331500Y281636D01*
X331508Y281644D01*
X331545Y281666D01*
X331596Y281688D01*
X331656Y281703D01*
X331715Y281717D01*
X331848Y281740D01*
X331989Y281754D01*
X332122Y281762D01*
X332181Y281769D01*
X332499D01*
X332640Y281754D01*
D02*
G37*
%LPC*%
G36*
X274815Y343197D02*
X272869D01*
X270701Y339090D01*
X272121D01*
X272469Y339786D01*
X275192D01*
X275540Y339090D01*
X276961D01*
X274815Y343197D01*
D02*
G37*
G36*
X270671D02*
X266120D01*
Y339090D01*
X270693D01*
Y340074D01*
X267356D01*
Y340740D01*
X270501D01*
Y341643D01*
X267356D01*
Y342228D01*
X270671D01*
Y343197D01*
D02*
G37*
G36*
X291332D02*
X287965D01*
Y339090D01*
X289215D01*
Y340133D01*
X291221D01*
X291302Y340126D01*
X291376D01*
X291421Y340119D01*
X291458D01*
X291472Y340111D01*
X291480D01*
X291561Y340089D01*
X291620Y340052D01*
X291657Y340030D01*
X291672Y340015D01*
X291717Y339948D01*
X291746Y339874D01*
X291761Y339845D01*
Y339815D01*
X291768Y339800D01*
Y339793D01*
X291776Y339726D01*
X291783Y339652D01*
X291798Y339497D01*
Y339423D01*
Y339364D01*
Y339319D01*
Y339312D01*
Y339305D01*
Y339090D01*
X293034D01*
Y339467D01*
Y339564D01*
Y339652D01*
Y339726D01*
X293026Y339800D01*
Y339867D01*
Y339919D01*
X293019Y340015D01*
X293011Y340082D01*
Y340126D01*
X293004Y340156D01*
Y340163D01*
X292974Y340281D01*
X292952Y340326D01*
X292930Y340370D01*
X292908Y340407D01*
X292893Y340429D01*
X292886Y340444D01*
X292878Y340452D01*
X292804Y340518D01*
X292716Y340570D01*
X292627Y340614D01*
X292530Y340644D01*
X292442Y340659D01*
X292375Y340674D01*
X292345D01*
X292323Y340681D01*
X292308D01*
X292427Y340703D01*
X292530Y340733D01*
X292612Y340762D01*
X292686Y340792D01*
X292738Y340822D01*
X292782Y340844D01*
X292804Y340859D01*
X292812Y340866D01*
X292863Y340918D01*
X292908Y340970D01*
X292945Y341029D01*
X292974Y341081D01*
X292989Y341125D01*
X293004Y341162D01*
X293019Y341192D01*
Y341199D01*
X293041Y341288D01*
X293056Y341391D01*
X293063Y341502D01*
X293071Y341606D01*
X293078Y341710D01*
Y341784D01*
Y341813D01*
Y341835D01*
Y341850D01*
Y341858D01*
Y342043D01*
X293063Y342205D01*
X293049Y342339D01*
X293034Y342450D01*
X293019Y342531D01*
X293004Y342590D01*
X292997Y342620D01*
X292989Y342635D01*
X292952Y342723D01*
X292900Y342805D01*
X292849Y342871D01*
X292797Y342931D01*
X292745Y342975D01*
X292701Y343005D01*
X292671Y343027D01*
X292664Y343034D01*
X292590Y343071D01*
X292516Y343108D01*
X292449Y343130D01*
X292390Y343145D01*
X292338Y343160D01*
X292294D01*
X292264Y343167D01*
X292257D01*
X292205Y343175D01*
X292146D01*
X292064Y343182D01*
X291872D01*
X291761Y343190D01*
X291435D01*
X291332Y343197D01*
D02*
G37*
G36*
X287550D02*
X282999D01*
Y339090D01*
X287573D01*
Y340074D01*
X284235D01*
Y340740D01*
X287380D01*
Y341643D01*
X284235D01*
Y342228D01*
X287550D01*
Y343197D01*
D02*
G37*
G36*
X263856D02*
X260770D01*
Y339090D01*
X262020D01*
Y340096D01*
X263952D01*
X264055Y340104D01*
X264226D01*
X264300Y340111D01*
X264418D01*
X264462Y340119D01*
X264536D01*
X264559Y340126D01*
X264588D01*
X264721Y340141D01*
X264840Y340163D01*
X264943Y340193D01*
X265025Y340215D01*
X265091Y340237D01*
X265143Y340259D01*
X265173Y340267D01*
X265180Y340274D01*
X265254Y340318D01*
X265321Y340370D01*
X265380Y340422D01*
X265432Y340474D01*
X265469Y340518D01*
X265498Y340555D01*
X265513Y340585D01*
X265521Y340592D01*
X265550Y340651D01*
X265580Y340725D01*
X265624Y340888D01*
X265654Y341066D01*
X265676Y341236D01*
X265691Y341399D01*
Y341473D01*
X265698Y341532D01*
Y341584D01*
Y341628D01*
Y341650D01*
Y341658D01*
Y341806D01*
X265691Y341932D01*
X265676Y342057D01*
X265661Y342168D01*
X265646Y342272D01*
X265632Y342361D01*
X265609Y342442D01*
X265587Y342516D01*
X265565Y342575D01*
X265550Y342627D01*
X265528Y342672D01*
X265513Y342709D01*
X265498Y342731D01*
X265483Y342753D01*
X265476Y342768D01*
X265432Y342827D01*
X265380Y342871D01*
X265254Y342960D01*
X265121Y343027D01*
X264988Y343079D01*
X264862Y343116D01*
X264803Y343130D01*
X264751Y343145D01*
X264714Y343153D01*
X264684D01*
X264662Y343160D01*
X264655D01*
X264603Y343167D01*
X264544Y343175D01*
X264470D01*
X264388Y343182D01*
X264211Y343190D01*
X264033D01*
X263856Y343197D01*
D02*
G37*
G36*
X258224Y343264D02*
X257477D01*
X257292Y343256D01*
X257114D01*
X256959Y343249D01*
X256818Y343241D01*
X256700Y343234D01*
X256589D01*
X256500Y343227D01*
X256418Y343219D01*
X256359Y343212D01*
X256308Y343204D01*
X256263D01*
X256241Y343197D01*
X256219D01*
X256071Y343167D01*
X255945Y343130D01*
X255841Y343079D01*
X255752Y343034D01*
X255686Y342990D01*
X255634Y342953D01*
X255605Y342923D01*
X255597Y342916D01*
X255553Y342857D01*
X255508Y342790D01*
X255449Y342642D01*
X255405Y342479D01*
X255368Y342316D01*
X255353Y342168D01*
X255346Y342102D01*
Y342043D01*
X255338Y341998D01*
Y341961D01*
Y341939D01*
Y341932D01*
Y341821D01*
X255346Y341717D01*
X255360Y341621D01*
X255375Y341532D01*
X255390Y341451D01*
X255412Y341377D01*
X255434Y341317D01*
X255456Y341258D01*
X255493Y341169D01*
X255531Y341103D01*
X255560Y341066D01*
X255568Y341051D01*
X255619Y340992D01*
X255686Y340947D01*
X255745Y340903D01*
X255804Y340873D01*
X255863Y340844D01*
X255908Y340829D01*
X255938Y340822D01*
X255945Y340814D01*
X256048Y340792D01*
X256159Y340777D01*
X256271Y340762D01*
X256382Y340748D01*
X256485Y340740D01*
X256567Y340733D01*
X256692D01*
X256751Y340725D01*
X256892D01*
X257055Y340718D01*
X257225Y340711D01*
X257381Y340703D01*
X257454Y340696D01*
X257514D01*
X257565Y340688D01*
X257640D01*
X257773Y340681D01*
X257898Y340674D01*
X258010D01*
X258106Y340666D01*
X258194D01*
X258276Y340659D01*
X258409D01*
X258461Y340651D01*
X258720D01*
X258809Y340644D01*
X258875Y340629D01*
X258927Y340622D01*
X258972Y340607D01*
X258994Y340592D01*
X259009Y340585D01*
X259016D01*
X259053Y340555D01*
X259075Y340526D01*
X259105Y340444D01*
X259112Y340400D01*
X259120Y340370D01*
Y340348D01*
Y340341D01*
X259112Y340252D01*
X259097Y340185D01*
X259075Y340133D01*
X259053Y340089D01*
X259023Y340059D01*
X259001Y340045D01*
X258986Y340030D01*
X258979D01*
X258897Y340008D01*
X258816Y339993D01*
X258779D01*
X258750Y339985D01*
X258572D01*
X258505Y339978D01*
X257092D01*
X257033Y339985D01*
X256870D01*
X256774Y340000D01*
X256700Y340030D01*
X256678Y340037D01*
X256655Y340052D01*
X256648Y340059D01*
X256641D01*
X256596Y340104D01*
X256567Y340156D01*
X256544Y340222D01*
X256529Y340289D01*
X256522Y340348D01*
X256515Y340400D01*
Y340437D01*
Y340452D01*
X255301D01*
X255309Y340252D01*
X255316Y340096D01*
X255323Y339963D01*
X255338Y339852D01*
X255353Y339756D01*
X255368Y339689D01*
X255375Y339638D01*
X255390Y339601D01*
Y339593D01*
X255427Y339519D01*
X255479Y339445D01*
X255531Y339386D01*
X255590Y339342D01*
X255634Y339297D01*
X255679Y339268D01*
X255708Y339253D01*
X255715Y339245D01*
X255804Y339201D01*
X255915Y339171D01*
X256019Y339142D01*
X256130Y339120D01*
X256226Y339105D01*
X256300Y339090D01*
X256330D01*
X256352Y339083D01*
X256374D01*
X256463Y339075D01*
X256559Y339068D01*
X256774Y339053D01*
X257003Y339046D01*
X257225Y339038D01*
X257329D01*
X257425Y339031D01*
X258298D01*
X258446Y339038D01*
X258587D01*
X258713Y339046D01*
X258823D01*
X258920Y339053D01*
X259075D01*
X259134Y339060D01*
X259179D01*
X259216Y339068D01*
X259260D01*
X259393Y339083D01*
X259512Y339105D01*
X259608Y339120D01*
X259697Y339149D01*
X259756Y339164D01*
X259808Y339186D01*
X259837Y339194D01*
X259845Y339201D01*
X259919Y339245D01*
X259985Y339297D01*
X260045Y339342D01*
X260089Y339393D01*
X260126Y339438D01*
X260148Y339475D01*
X260163Y339504D01*
X260170Y339512D01*
X260222Y339630D01*
X260266Y339763D01*
X260296Y339911D01*
X260311Y340052D01*
X260326Y340178D01*
Y340237D01*
X260333Y340281D01*
Y340318D01*
Y340355D01*
Y340370D01*
Y340378D01*
X260326Y340533D01*
X260318Y340674D01*
X260303Y340792D01*
X260289Y340888D01*
X260266Y340962D01*
X260252Y341014D01*
X260244Y341051D01*
X260237Y341058D01*
X260192Y341140D01*
X260148Y341214D01*
X260096Y341280D01*
X260045Y341332D01*
X259993Y341377D01*
X259956Y341406D01*
X259926Y341421D01*
X259919Y341428D01*
X259837Y341465D01*
X259749Y341495D01*
X259660Y341525D01*
X259571Y341547D01*
X259497Y341562D01*
X259438Y341569D01*
X259393Y341576D01*
X259379D01*
X259312Y341584D01*
X259223Y341591D01*
X259134Y341599D01*
X259031Y341606D01*
X258816Y341621D01*
X258594Y341636D01*
X258483D01*
X258387Y341643D01*
X258291Y341650D01*
X258217D01*
X258150Y341658D01*
X258054D01*
X257847Y341665D01*
X257654Y341673D01*
X257491D01*
X257344Y341680D01*
X257218Y341687D01*
X257114Y341695D01*
X257018Y341702D01*
X256944Y341710D01*
X256885D01*
X256833Y341717D01*
X256796Y341724D01*
X256744D01*
X256729Y341732D01*
X256722D01*
X256663Y341754D01*
X256626Y341791D01*
X256596Y341835D01*
X256574Y341880D01*
X256559Y341924D01*
X256552Y341961D01*
Y341991D01*
Y341998D01*
X256559Y342072D01*
X256581Y342131D01*
X256604Y342183D01*
X256641Y342220D01*
X256670Y342242D01*
X256692Y342257D01*
X256715Y342272D01*
X256722D01*
X256759Y342279D01*
X256818Y342287D01*
X256877Y342294D01*
X256951Y342302D01*
X257107Y342309D01*
X257277Y342316D01*
X257440Y342324D01*
X258194D01*
X258261Y342316D01*
X258461D01*
X258520Y342309D01*
X258564D01*
X258639Y342302D01*
X258698Y342294D01*
X258750Y342279D01*
X258787Y342272D01*
X258816Y342257D01*
X258838Y342250D01*
X258853Y342242D01*
X258897Y342213D01*
X258920Y342176D01*
X258934Y342154D01*
X258942Y342139D01*
X258949Y342109D01*
X258957Y342080D01*
X258964Y342006D01*
Y341969D01*
Y341939D01*
Y341917D01*
Y341909D01*
X260178D01*
Y341961D01*
X260185Y341998D01*
Y342035D01*
Y342057D01*
Y342094D01*
Y342102D01*
Y342205D01*
X260178Y342294D01*
X260156Y342457D01*
X260119Y342598D01*
X260082Y342709D01*
X260037Y342790D01*
X260008Y342849D01*
X259978Y342886D01*
X259970Y342894D01*
X259926Y342938D01*
X259874Y342975D01*
X259763Y343042D01*
X259637Y343101D01*
X259504Y343145D01*
X259386Y343175D01*
X259334Y343190D01*
X259290Y343197D01*
X259245Y343204D01*
X259216D01*
X259201Y343212D01*
X259193D01*
X259120Y343219D01*
X259031Y343227D01*
X258942Y343234D01*
X258838Y343241D01*
X258631Y343249D01*
X258417Y343256D01*
X258320D01*
X258224Y343264D01*
D02*
G37*
G36*
X282629Y343227D02*
X280713D01*
X279085Y341710D01*
X278404D01*
Y343197D01*
X277153D01*
Y339090D01*
X278404D01*
Y340659D01*
X279085D01*
X280927Y339090D01*
X282829D01*
X280254Y341177D01*
X282629Y343227D01*
D02*
G37*
%LPD*%
G36*
X274748Y340688D02*
X272920D01*
X273712Y342242D01*
X273956D01*
X274748Y340688D01*
D02*
G37*
G36*
X291228Y342161D02*
X291391D01*
X291435Y342154D01*
X291487D01*
X291554Y342146D01*
X291605Y342131D01*
X291635Y342124D01*
X291650Y342117D01*
X291709Y342080D01*
X291746Y342028D01*
X291768Y341991D01*
X291776Y341983D01*
Y341976D01*
X291791Y341939D01*
X291805Y341887D01*
X291813Y341791D01*
X291820Y341747D01*
Y341710D01*
Y341687D01*
Y341680D01*
Y341606D01*
X291813Y341547D01*
X291805Y341488D01*
Y341451D01*
X291798Y341414D01*
X291791Y341391D01*
X291783Y341377D01*
Y341369D01*
X291754Y341303D01*
X291717Y341258D01*
X291687Y341229D01*
X291680Y341221D01*
X291672D01*
X291620Y341199D01*
X291568Y341184D01*
X291531Y341177D01*
X291465D01*
X291391Y341169D01*
X291213D01*
X291117Y341162D01*
X289215D01*
Y342168D01*
X291117D01*
X291228Y342161D01*
D02*
G37*
G36*
X263774D02*
X263856D01*
X263922Y342154D01*
X263989D01*
X264040Y342146D01*
X264085D01*
X264122Y342139D01*
X264174Y342131D01*
X264211D01*
X264226Y342124D01*
X264233D01*
X264307Y342080D01*
X264351Y342035D01*
X264381Y341991D01*
X264388Y341983D01*
Y341976D01*
X264403Y341932D01*
X264418Y341880D01*
X264433Y341776D01*
X264440Y341732D01*
Y341695D01*
Y341665D01*
Y341658D01*
Y341584D01*
X264433Y341517D01*
X264425Y341458D01*
Y341414D01*
X264418Y341377D01*
X264410Y341354D01*
X264403Y341340D01*
Y341332D01*
X264366Y341266D01*
X264322Y341221D01*
X264285Y341192D01*
X264277Y341184D01*
X264270D01*
X264211Y341155D01*
X264159Y341140D01*
X264114Y341132D01*
X264048D01*
X263981Y341125D01*
X262020D01*
Y342168D01*
X263685D01*
X263774Y342161D01*
D02*
G37*
%LPC*%
G36*
X144252Y345728D02*
X139279D01*
Y344677D01*
X141107D01*
Y341621D01*
X142424D01*
Y344677D01*
X144252D01*
Y345728D01*
D02*
G37*
G36*
X137803Y340733D02*
X137055D01*
X136870Y340725D01*
X136693D01*
X136537Y340718D01*
X136397Y340711D01*
X136278Y340703D01*
X136167D01*
X136079Y340696D01*
X135997Y340688D01*
X135938Y340681D01*
X135886Y340674D01*
X135842D01*
X135820Y340666D01*
X135797D01*
X135649Y340637D01*
X135524Y340600D01*
X135420Y340548D01*
X135331Y340503D01*
X135265Y340459D01*
X135213Y340422D01*
X135183Y340392D01*
X135176Y340385D01*
X135131Y340326D01*
X135087Y340259D01*
X135028Y340111D01*
X134983Y339948D01*
X134946Y339786D01*
X134932Y339638D01*
X134924Y339571D01*
Y339512D01*
X134917Y339467D01*
Y339430D01*
Y339408D01*
Y339401D01*
Y339290D01*
X134924Y339186D01*
X134939Y339090D01*
X134954Y339001D01*
X134969Y338920D01*
X134991Y338846D01*
X135013Y338787D01*
X135035Y338727D01*
X135072Y338639D01*
X135109Y338572D01*
X135139Y338535D01*
X135146Y338520D01*
X135198Y338461D01*
X135265Y338417D01*
X135324Y338372D01*
X135383Y338343D01*
X135442Y338313D01*
X135487Y338298D01*
X135516Y338291D01*
X135524Y338283D01*
X135627Y338261D01*
X135738Y338246D01*
X135849Y338232D01*
X135960Y338217D01*
X136064Y338209D01*
X136145Y338202D01*
X136271D01*
X136330Y338195D01*
X136471D01*
X136634Y338187D01*
X136804Y338180D01*
X136959Y338172D01*
X137033Y338165D01*
X137092D01*
X137144Y338158D01*
X137218D01*
X137351Y338150D01*
X137477Y338143D01*
X137588D01*
X137684Y338135D01*
X137773D01*
X137855Y338128D01*
X137988D01*
X138040Y338121D01*
X138299D01*
X138387Y338113D01*
X138454Y338098D01*
X138506Y338091D01*
X138550Y338076D01*
X138572Y338061D01*
X138587Y338054D01*
X138595D01*
X138632Y338024D01*
X138654Y337995D01*
X138683Y337913D01*
X138691Y337869D01*
X138698Y337839D01*
Y337817D01*
Y337810D01*
X138691Y337721D01*
X138676Y337654D01*
X138654Y337603D01*
X138632Y337558D01*
X138602Y337529D01*
X138580Y337514D01*
X138565Y337499D01*
X138558D01*
X138476Y337477D01*
X138395Y337462D01*
X138358D01*
X138328Y337455D01*
X138151D01*
X138084Y337447D01*
X136671D01*
X136611Y337455D01*
X136449D01*
X136352Y337469D01*
X136278Y337499D01*
X136256Y337506D01*
X136234Y337521D01*
X136227Y337529D01*
X136219D01*
X136175Y337573D01*
X136145Y337625D01*
X136123Y337691D01*
X136108Y337758D01*
X136101Y337817D01*
X136093Y337869D01*
Y337906D01*
Y337921D01*
X134880D01*
X134887Y337721D01*
X134895Y337566D01*
X134902Y337432D01*
X134917Y337321D01*
X134932Y337225D01*
X134946Y337159D01*
X134954Y337107D01*
X134969Y337070D01*
Y337062D01*
X135006Y336988D01*
X135057Y336914D01*
X135109Y336855D01*
X135168Y336811D01*
X135213Y336766D01*
X135257Y336737D01*
X135287Y336722D01*
X135294Y336715D01*
X135383Y336670D01*
X135494Y336641D01*
X135598Y336611D01*
X135709Y336589D01*
X135805Y336574D01*
X135879Y336559D01*
X135908D01*
X135931Y336552D01*
X135953D01*
X136042Y336544D01*
X136138Y336537D01*
X136352Y336522D01*
X136582Y336515D01*
X136804Y336507D01*
X136907D01*
X137004Y336500D01*
X137877D01*
X138025Y336507D01*
X138165D01*
X138291Y336515D01*
X138402D01*
X138498Y336522D01*
X138654D01*
X138713Y336530D01*
X138757D01*
X138794Y336537D01*
X138839D01*
X138972Y336552D01*
X139090Y336574D01*
X139187Y336589D01*
X139275Y336618D01*
X139335Y336633D01*
X139386Y336655D01*
X139416Y336663D01*
X139423Y336670D01*
X139497Y336715D01*
X139564Y336766D01*
X139623Y336811D01*
X139668Y336863D01*
X139705Y336907D01*
X139727Y336944D01*
X139742Y336974D01*
X139749Y336981D01*
X139801Y337099D01*
X139845Y337233D01*
X139875Y337381D01*
X139890Y337521D01*
X139904Y337647D01*
Y337706D01*
X139912Y337751D01*
Y337788D01*
Y337825D01*
Y337839D01*
Y337847D01*
X139904Y338002D01*
X139897Y338143D01*
X139882Y338261D01*
X139867Y338357D01*
X139845Y338431D01*
X139830Y338483D01*
X139823Y338520D01*
X139816Y338528D01*
X139771Y338609D01*
X139727Y338683D01*
X139675Y338750D01*
X139623Y338801D01*
X139571Y338846D01*
X139534Y338875D01*
X139505Y338890D01*
X139497Y338898D01*
X139416Y338935D01*
X139327Y338964D01*
X139238Y338994D01*
X139150Y339016D01*
X139076Y339031D01*
X139016Y339038D01*
X138972Y339046D01*
X138957D01*
X138891Y339053D01*
X138802Y339060D01*
X138713Y339068D01*
X138609Y339075D01*
X138395Y339090D01*
X138173Y339105D01*
X138062D01*
X137966Y339112D01*
X137869Y339120D01*
X137795D01*
X137729Y339127D01*
X137633D01*
X137425Y339134D01*
X137233Y339142D01*
X137070D01*
X136922Y339149D01*
X136796Y339157D01*
X136693Y339164D01*
X136597Y339171D01*
X136523Y339179D01*
X136463D01*
X136412Y339186D01*
X136375Y339194D01*
X136323D01*
X136308Y339201D01*
X136301D01*
X136241Y339223D01*
X136204Y339260D01*
X136175Y339305D01*
X136153Y339349D01*
X136138Y339393D01*
X136130Y339430D01*
Y339460D01*
Y339467D01*
X136138Y339541D01*
X136160Y339601D01*
X136182Y339652D01*
X136219Y339689D01*
X136249Y339712D01*
X136271Y339726D01*
X136293Y339741D01*
X136301D01*
X136338Y339749D01*
X136397Y339756D01*
X136456Y339763D01*
X136530Y339771D01*
X136685Y339778D01*
X136856Y339786D01*
X137018Y339793D01*
X137773D01*
X137840Y339786D01*
X138040D01*
X138099Y339778D01*
X138143D01*
X138217Y339771D01*
X138276Y339763D01*
X138328Y339749D01*
X138365Y339741D01*
X138395Y339726D01*
X138417Y339719D01*
X138432Y339712D01*
X138476Y339682D01*
X138498Y339645D01*
X138513Y339623D01*
X138521Y339608D01*
X138528Y339578D01*
X138535Y339549D01*
X138543Y339475D01*
Y339438D01*
Y339408D01*
Y339386D01*
Y339379D01*
X139756D01*
Y339430D01*
X139764Y339467D01*
Y339504D01*
Y339527D01*
Y339564D01*
Y339571D01*
Y339675D01*
X139756Y339763D01*
X139734Y339926D01*
X139697Y340067D01*
X139660Y340178D01*
X139616Y340259D01*
X139586Y340318D01*
X139557Y340355D01*
X139549Y340363D01*
X139505Y340407D01*
X139453Y340444D01*
X139342Y340511D01*
X139216Y340570D01*
X139083Y340614D01*
X138965Y340644D01*
X138913Y340659D01*
X138868Y340666D01*
X138824Y340674D01*
X138794D01*
X138780Y340681D01*
X138772D01*
X138698Y340688D01*
X138609Y340696D01*
X138521Y340703D01*
X138417Y340711D01*
X138210Y340718D01*
X137995Y340725D01*
X137899D01*
X137803Y340733D01*
D02*
G37*
G36*
X161779Y340666D02*
X160151D01*
X158871Y339016D01*
X157531Y340666D01*
X155888D01*
X158242Y338010D01*
Y336559D01*
X159537D01*
Y338010D01*
X161779Y340666D01*
D02*
G37*
G36*
X134451D02*
X133133D01*
Y336559D01*
X134451D01*
Y340666D01*
D02*
G37*
G36*
X130773D02*
X127213D01*
Y336559D01*
X130714D01*
X130795Y336567D01*
X131039D01*
X131084Y336574D01*
X131172D01*
X131283Y336581D01*
X131394Y336596D01*
X131491Y336611D01*
X131579Y336626D01*
X131646Y336633D01*
X131705Y336648D01*
X131735Y336655D01*
X131750D01*
X131853Y336685D01*
X131949Y336722D01*
X132031Y336766D01*
X132105Y336811D01*
X132179Y336863D01*
X132238Y336922D01*
X132342Y337033D01*
X132416Y337144D01*
X132467Y337233D01*
X132482Y337270D01*
X132497Y337299D01*
X132504Y337314D01*
Y337321D01*
X132556Y337499D01*
X132578Y337580D01*
X132593Y337662D01*
X132601Y337728D01*
X132608Y337788D01*
X132615Y337817D01*
Y337832D01*
X132623Y337950D01*
X132630Y338084D01*
X132638Y338224D01*
X132645Y338357D01*
Y338483D01*
Y338535D01*
Y338579D01*
Y338616D01*
Y338646D01*
Y338661D01*
Y338668D01*
Y338846D01*
X132638Y339001D01*
Y339127D01*
X132630Y339231D01*
X132623Y339312D01*
Y339371D01*
X132615Y339401D01*
Y339416D01*
X132593Y339593D01*
X132578Y339675D01*
X132564Y339749D01*
X132549Y339808D01*
X132534Y339852D01*
X132527Y339882D01*
Y339889D01*
X132490Y339993D01*
X132438Y340082D01*
X132379Y340163D01*
X132319Y340237D01*
X132253Y340304D01*
X132186Y340363D01*
X132120Y340407D01*
X132053Y340452D01*
X131927Y340518D01*
X131868Y340540D01*
X131816Y340555D01*
X131779Y340570D01*
X131750Y340577D01*
X131727Y340585D01*
X131720D01*
X131528Y340614D01*
X131439Y340629D01*
X131365Y340637D01*
X131298Y340644D01*
X131254Y340651D01*
X131158D01*
X131098Y340659D01*
X130943D01*
X130773Y340666D01*
D02*
G37*
G36*
X153957D02*
X152011D01*
X149939Y336741D01*
Y337610D01*
X147016D01*
Y340666D01*
X145699D01*
Y336559D01*
X151263D01*
X151611Y337255D01*
X154334D01*
X154682Y336559D01*
X156103D01*
X153957Y340666D01*
D02*
G37*
G36*
X143434D02*
X140348D01*
Y336559D01*
X141599D01*
Y337566D01*
X143530D01*
X143634Y337573D01*
X143804D01*
X143878Y337580D01*
X143997D01*
X144041Y337588D01*
X144115D01*
X144137Y337595D01*
X144167D01*
X144300Y337610D01*
X144418Y337632D01*
X144522Y337662D01*
X144603Y337684D01*
X144670Y337706D01*
X144722Y337728D01*
X144751Y337736D01*
X144759Y337743D01*
X144833Y337788D01*
X144899Y337839D01*
X144959Y337891D01*
X145010Y337943D01*
X145047Y337987D01*
X145077Y338024D01*
X145092Y338054D01*
X145099Y338061D01*
X145129Y338121D01*
X145158Y338195D01*
X145203Y338357D01*
X145232Y338535D01*
X145255Y338705D01*
X145269Y338868D01*
Y338942D01*
X145277Y339001D01*
Y339053D01*
Y339097D01*
Y339120D01*
Y339127D01*
Y339275D01*
X145269Y339401D01*
X145255Y339527D01*
X145240Y339638D01*
X145225Y339741D01*
X145210Y339830D01*
X145188Y339911D01*
X145166Y339985D01*
X145144Y340045D01*
X145129Y340096D01*
X145107Y340141D01*
X145092Y340178D01*
X145077Y340200D01*
X145062Y340222D01*
X145055Y340237D01*
X145010Y340296D01*
X144959Y340341D01*
X144833Y340429D01*
X144700Y340496D01*
X144566Y340548D01*
X144441Y340585D01*
X144381Y340600D01*
X144330Y340614D01*
X144293Y340622D01*
X144263D01*
X144241Y340629D01*
X144233D01*
X144182Y340637D01*
X144122Y340644D01*
X144048D01*
X143967Y340651D01*
X143789Y340659D01*
X143612D01*
X143434Y340666D01*
D02*
G37*
G36*
X147752Y345794D02*
X147108D01*
X146849Y345787D01*
X146613D01*
X146398Y345780D01*
X146198Y345765D01*
X146028Y345757D01*
X145872Y345750D01*
X145739Y345735D01*
X145628Y345728D01*
X145532Y345713D01*
X145451Y345706D01*
X145384Y345698D01*
X145340Y345691D01*
X145310Y345683D01*
X145288Y345676D01*
X145281D01*
X145184Y345654D01*
X145103Y345617D01*
X145021Y345587D01*
X144955Y345550D01*
X144836Y345461D01*
X144740Y345380D01*
X144666Y345299D01*
X144622Y345232D01*
X144592Y345180D01*
X144585Y345173D01*
Y345165D01*
X144563Y345099D01*
X144541Y345017D01*
X144518Y344936D01*
X144503Y344855D01*
X144496Y344788D01*
X144489Y344729D01*
X144481Y344692D01*
Y344684D01*
Y344677D01*
Y344610D01*
X144474Y344544D01*
X144466Y344381D01*
Y344211D01*
X144459Y344041D01*
Y343893D01*
Y343826D01*
Y343767D01*
Y343715D01*
Y343678D01*
Y343656D01*
Y343648D01*
Y343515D01*
Y343397D01*
Y343286D01*
X144466Y343182D01*
Y343086D01*
Y343005D01*
Y342931D01*
X144474Y342864D01*
Y342812D01*
Y342760D01*
Y342723D01*
X144481Y342694D01*
Y342664D01*
Y342649D01*
Y342635D01*
X144496Y342509D01*
X144518Y342405D01*
X144548Y342309D01*
X144570Y342228D01*
X144592Y342168D01*
X144615Y342124D01*
X144622Y342094D01*
X144629Y342087D01*
X144674Y342013D01*
X144726Y341954D01*
X144785Y341902D01*
X144836Y341850D01*
X144888Y341821D01*
X144925Y341791D01*
X144955Y341776D01*
X144962Y341769D01*
X145066Y341724D01*
X145184Y341687D01*
X145310Y341658D01*
X145429Y341636D01*
X145539Y341621D01*
X145628Y341606D01*
X145665D01*
X145687Y341599D01*
X145710D01*
X145813Y341591D01*
X145924Y341584D01*
X146050Y341576D01*
X146183D01*
X146465Y341562D01*
X146871D01*
X146990Y341554D01*
X147589D01*
X147774Y341562D01*
X147944D01*
X148100Y341569D01*
X148240Y341576D01*
X148374Y341584D01*
X148485Y341599D01*
X148588Y341606D01*
X148677Y341613D01*
X148751Y341628D01*
X148810Y341636D01*
X148862Y341643D01*
X148899Y341650D01*
X148929D01*
X148943Y341658D01*
X148951D01*
X149106Y341710D01*
X149240Y341769D01*
X149351Y341835D01*
X149432Y341909D01*
X149491Y341969D01*
X149536Y342020D01*
X149558Y342057D01*
X149565Y342072D01*
X149617Y342183D01*
X149654Y342302D01*
X149676Y342420D01*
X149698Y342546D01*
X149706Y342649D01*
X149713Y342731D01*
Y342768D01*
Y342790D01*
Y342805D01*
Y342812D01*
Y342857D01*
Y342908D01*
X149706Y342975D01*
Y343042D01*
Y343101D01*
X149698Y343153D01*
Y343190D01*
Y343204D01*
X148448D01*
X148440Y343071D01*
X148425Y342968D01*
X148411Y342879D01*
X148389Y342820D01*
X148366Y342768D01*
X148344Y342738D01*
X148337Y342723D01*
X148329Y342716D01*
X148292Y342686D01*
X148240Y342664D01*
X148137Y342635D01*
X148085Y342627D01*
X148041Y342620D01*
X148011Y342612D01*
X147952D01*
X147893Y342605D01*
X147826D01*
X147752Y342598D01*
X147597D01*
X147434Y342590D01*
X146753D01*
X146672Y342598D01*
X146531D01*
X146420Y342605D01*
X146331D01*
X146272Y342612D01*
X146228D01*
X146146Y342627D01*
X146080Y342642D01*
X146020Y342664D01*
X145976Y342679D01*
X145939Y342694D01*
X145917Y342709D01*
X145902Y342723D01*
X145895D01*
X145858Y342760D01*
X145828Y342797D01*
X145776Y342894D01*
X145762Y342931D01*
X145754Y342968D01*
X145747Y342990D01*
Y342997D01*
X145732Y343079D01*
X145724Y343182D01*
X145717Y343293D01*
Y343397D01*
X145710Y343500D01*
Y343582D01*
Y343611D01*
Y343634D01*
Y343648D01*
Y343656D01*
Y343819D01*
X145717Y343959D01*
X145724Y344078D01*
X145732Y344166D01*
Y344240D01*
X145739Y344292D01*
X145747Y344322D01*
Y344329D01*
X145769Y344403D01*
X145791Y344470D01*
X145813Y344522D01*
X145843Y344559D01*
X145865Y344596D01*
X145887Y344618D01*
X145895Y344625D01*
X145902Y344633D01*
X145947Y344662D01*
X145991Y344684D01*
X146095Y344714D01*
X146146Y344729D01*
X146183D01*
X146213Y344736D01*
X146220D01*
X146265Y344744D01*
X146324D01*
X146442Y344751D01*
X146575Y344758D01*
X146716Y344766D01*
X147241D01*
X147419Y344758D01*
X147574D01*
X147700Y344751D01*
X147789Y344744D01*
X147863D01*
X147900Y344736D01*
X147915D01*
X148019Y344721D01*
X148100Y344707D01*
X148159Y344692D01*
X148211Y344677D01*
X148248Y344662D01*
X148270Y344655D01*
X148285Y344640D01*
X148314Y344603D01*
X148337Y344566D01*
X148352Y344536D01*
Y344522D01*
X148359Y344492D01*
X148366Y344455D01*
X148374Y344366D01*
Y344322D01*
X148381Y344285D01*
Y344263D01*
Y344255D01*
X149632D01*
Y344314D01*
X149639Y344359D01*
Y344396D01*
Y344425D01*
Y344440D01*
Y344448D01*
Y344455D01*
X149632Y344633D01*
X149624Y344788D01*
X149602Y344921D01*
X149580Y345032D01*
X149558Y345114D01*
X149543Y345173D01*
X149528Y345210D01*
X149521Y345225D01*
X149469Y345313D01*
X149410Y345395D01*
X149351Y345461D01*
X149284Y345521D01*
X149225Y345558D01*
X149173Y345595D01*
X149143Y345609D01*
X149128Y345617D01*
X149040Y345654D01*
X148951Y345683D01*
X148855Y345706D01*
X148758Y345728D01*
X148677Y345743D01*
X148610Y345750D01*
X148566Y345757D01*
X148551D01*
X148477Y345765D01*
X148396Y345772D01*
X148218Y345780D01*
X148026Y345787D01*
X147841D01*
X147752Y345794D01*
D02*
G37*
%LPD*%
G36*
X130536Y339630D02*
X130610D01*
X130669Y339623D01*
X130773D01*
X130854Y339615D01*
X130906Y339608D01*
X130936Y339601D01*
X130943D01*
X131017Y339586D01*
X131076Y339564D01*
X131128Y339541D01*
X131172Y339519D01*
X131202Y339497D01*
X131224Y339475D01*
X131239Y339467D01*
X131246Y339460D01*
X131276Y339416D01*
X131306Y339371D01*
X131343Y339275D01*
X131357Y339231D01*
X131365Y339194D01*
X131372Y339171D01*
Y339164D01*
X131387Y339083D01*
X131394Y338994D01*
X131402Y338898D01*
Y338809D01*
X131409Y338727D01*
Y338653D01*
Y338609D01*
Y338602D01*
Y338594D01*
Y338461D01*
X131402Y338343D01*
X131394Y338246D01*
X131387Y338165D01*
X131380Y338098D01*
X131372Y338054D01*
X131365Y338024D01*
Y338017D01*
X131343Y337950D01*
X131320Y337899D01*
X131298Y337854D01*
X131276Y337817D01*
X131254Y337788D01*
X131232Y337765D01*
X131224Y337758D01*
X131217Y337751D01*
X131180Y337721D01*
X131128Y337699D01*
X131024Y337662D01*
X130973Y337654D01*
X130936Y337647D01*
X130906Y337640D01*
X130899D01*
X130802Y337632D01*
X130691Y337625D01*
X130573Y337617D01*
X130455D01*
X130351Y337610D01*
X128449D01*
Y339638D01*
X130462D01*
X130536Y339630D01*
D02*
G37*
G36*
X153890Y338158D02*
X152063D01*
X152854Y339712D01*
X153099D01*
X153890Y338158D01*
D02*
G37*
G36*
X143353Y339630D02*
X143434D01*
X143501Y339623D01*
X143567D01*
X143619Y339615D01*
X143664D01*
X143701Y339608D01*
X143752Y339601D01*
X143789D01*
X143804Y339593D01*
X143812D01*
X143886Y339549D01*
X143930Y339504D01*
X143960Y339460D01*
X143967Y339453D01*
Y339445D01*
X143982Y339401D01*
X143997Y339349D01*
X144011Y339245D01*
X144019Y339201D01*
Y339164D01*
Y339134D01*
Y339127D01*
Y339053D01*
X144011Y338986D01*
X144004Y338927D01*
Y338883D01*
X143997Y338846D01*
X143989Y338824D01*
X143982Y338809D01*
Y338801D01*
X143945Y338735D01*
X143900Y338690D01*
X143863Y338661D01*
X143856Y338653D01*
X143849D01*
X143789Y338624D01*
X143738Y338609D01*
X143693Y338602D01*
X143627D01*
X143560Y338594D01*
X141599D01*
Y339638D01*
X143264D01*
X143353Y339630D01*
D02*
G37*
%LPC*%
G36*
X218086Y345731D02*
X216806D01*
X216835Y342668D01*
X216709D01*
X214556Y345731D01*
X212366D01*
Y341624D01*
X213638D01*
X213609Y344688D01*
X213742D01*
X215903Y341624D01*
X218086D01*
Y345731D01*
D02*
G37*
G36*
X203900Y345798D02*
X203256D01*
X202997Y345791D01*
X202761D01*
X202546Y345783D01*
X202346Y345768D01*
X202176Y345761D01*
X202021Y345754D01*
X201887Y345739D01*
X201776Y345731D01*
X201680Y345717D01*
X201599Y345709D01*
X201532Y345702D01*
X201488Y345694D01*
X201458Y345687D01*
X201436Y345680D01*
X201429D01*
X201332Y345657D01*
X201251Y345620D01*
X201169Y345591D01*
X201103Y345554D01*
X200985Y345465D01*
X200888Y345384D01*
X200814Y345302D01*
X200770Y345236D01*
X200740Y345184D01*
X200733Y345177D01*
Y345169D01*
X200711Y345103D01*
X200689Y345021D01*
X200666Y344940D01*
X200652Y344858D01*
X200644Y344792D01*
X200637Y344732D01*
X200629Y344695D01*
Y344688D01*
Y344681D01*
Y344614D01*
X200622Y344548D01*
X200615Y344385D01*
Y344215D01*
X200607Y344044D01*
Y343896D01*
Y343830D01*
Y343771D01*
Y343719D01*
Y343682D01*
Y343659D01*
Y343652D01*
Y343519D01*
Y343401D01*
Y343289D01*
X200615Y343186D01*
Y343090D01*
Y343008D01*
Y342934D01*
X200622Y342868D01*
Y342816D01*
Y342764D01*
Y342727D01*
X200629Y342698D01*
Y342668D01*
Y342653D01*
Y342638D01*
X200644Y342512D01*
X200666Y342409D01*
X200696Y342313D01*
X200718Y342231D01*
X200740Y342172D01*
X200763Y342128D01*
X200770Y342098D01*
X200777Y342091D01*
X200822Y342017D01*
X200873Y341957D01*
X200933Y341906D01*
X200985Y341854D01*
X201036Y341824D01*
X201073Y341795D01*
X201103Y341780D01*
X201110Y341773D01*
X201214Y341728D01*
X201332Y341691D01*
X201458Y341662D01*
X201576Y341639D01*
X201688Y341624D01*
X201776Y341610D01*
X201813D01*
X201835Y341602D01*
X201858D01*
X201961Y341595D01*
X202072Y341587D01*
X202198Y341580D01*
X202331D01*
X202612Y341565D01*
X203019D01*
X203138Y341558D01*
X203737D01*
X203922Y341565D01*
X204093D01*
X204248Y341573D01*
X204388Y341580D01*
X204522Y341587D01*
X204633Y341602D01*
X204736Y341610D01*
X204825Y341617D01*
X204899Y341632D01*
X204958Y341639D01*
X205010Y341647D01*
X205047Y341654D01*
X205077D01*
X205092Y341662D01*
X205099D01*
X205254Y341713D01*
X205387Y341773D01*
X205499Y341839D01*
X205580Y341913D01*
X205639Y341972D01*
X205683Y342024D01*
X205706Y342061D01*
X205713Y342076D01*
X205765Y342187D01*
X205802Y342305D01*
X205824Y342424D01*
X205846Y342549D01*
X205854Y342653D01*
X205861Y342735D01*
Y342772D01*
Y342794D01*
Y342809D01*
Y342816D01*
Y342860D01*
Y342912D01*
X205854Y342979D01*
Y343045D01*
Y343105D01*
X205846Y343156D01*
Y343193D01*
Y343208D01*
X204596D01*
X204588Y343075D01*
X204573Y342971D01*
X204559Y342882D01*
X204537Y342823D01*
X204514Y342772D01*
X204492Y342742D01*
X204485Y342727D01*
X204477Y342720D01*
X204440Y342690D01*
X204388Y342668D01*
X204285Y342638D01*
X204233Y342631D01*
X204189Y342623D01*
X204159Y342616D01*
X204100D01*
X204041Y342609D01*
X203974D01*
X203900Y342601D01*
X203745D01*
X203582Y342594D01*
X202901D01*
X202820Y342601D01*
X202679D01*
X202568Y342609D01*
X202479D01*
X202420Y342616D01*
X202376D01*
X202294Y342631D01*
X202228Y342646D01*
X202168Y342668D01*
X202124Y342683D01*
X202087Y342698D01*
X202065Y342712D01*
X202050Y342727D01*
X202043D01*
X202006Y342764D01*
X201976Y342801D01*
X201924Y342897D01*
X201909Y342934D01*
X201902Y342971D01*
X201895Y342993D01*
Y343001D01*
X201880Y343082D01*
X201872Y343186D01*
X201865Y343297D01*
Y343401D01*
X201858Y343504D01*
Y343585D01*
Y343615D01*
Y343637D01*
Y343652D01*
Y343659D01*
Y343822D01*
X201865Y343963D01*
X201872Y344081D01*
X201880Y344170D01*
Y344244D01*
X201887Y344296D01*
X201895Y344325D01*
Y344333D01*
X201917Y344407D01*
X201939Y344474D01*
X201961Y344525D01*
X201991Y344562D01*
X202013Y344599D01*
X202035Y344621D01*
X202043Y344629D01*
X202050Y344636D01*
X202095Y344666D01*
X202139Y344688D01*
X202242Y344718D01*
X202294Y344732D01*
X202331D01*
X202361Y344740D01*
X202368D01*
X202413Y344747D01*
X202472D01*
X202590Y344755D01*
X202724Y344762D01*
X202864Y344770D01*
X203390D01*
X203567Y344762D01*
X203723D01*
X203848Y344755D01*
X203937Y344747D01*
X204011D01*
X204048Y344740D01*
X204063D01*
X204167Y344725D01*
X204248Y344710D01*
X204307Y344695D01*
X204359Y344681D01*
X204396Y344666D01*
X204418Y344658D01*
X204433Y344644D01*
X204463Y344607D01*
X204485Y344570D01*
X204500Y344540D01*
Y344525D01*
X204507Y344496D01*
X204514Y344459D01*
X204522Y344370D01*
Y344325D01*
X204529Y344288D01*
Y344266D01*
Y344259D01*
X205780D01*
Y344318D01*
X205787Y344362D01*
Y344399D01*
Y344429D01*
Y344444D01*
Y344451D01*
Y344459D01*
X205780Y344636D01*
X205772Y344792D01*
X205750Y344925D01*
X205728Y345036D01*
X205706Y345117D01*
X205691Y345177D01*
X205676Y345214D01*
X205669Y345228D01*
X205617Y345317D01*
X205558Y345398D01*
X205499Y345465D01*
X205432Y345524D01*
X205373Y345561D01*
X205321Y345598D01*
X205291Y345613D01*
X205276Y345620D01*
X205188Y345657D01*
X205099Y345687D01*
X205003Y345709D01*
X204907Y345731D01*
X204825Y345746D01*
X204759Y345754D01*
X204714Y345761D01*
X204699D01*
X204625Y345768D01*
X204544Y345776D01*
X204366Y345783D01*
X204174Y345791D01*
X203989D01*
X203900Y345798D01*
D02*
G37*
G36*
X210027Y345731D02*
X208081D01*
X205913Y341624D01*
X207334D01*
X207681Y342320D01*
X210405D01*
X210753Y341624D01*
X212173D01*
X210027Y345731D01*
D02*
G37*
G36*
X219751Y340670D02*
X217487D01*
X216266Y337999D01*
X215044Y340670D01*
X212780D01*
Y336563D01*
X214008D01*
X213979Y339634D01*
X214201D01*
X215747Y336563D01*
X216791D01*
X218337Y339634D01*
X218545D01*
X218515Y336563D01*
X219751D01*
Y340670D01*
D02*
G37*
G36*
X212203D02*
X209939D01*
X208717Y337999D01*
X207497Y340670D01*
X205232D01*
Y336563D01*
X206460D01*
X206431Y339634D01*
X206653D01*
X208200Y336563D01*
X209243D01*
X210789Y339634D01*
X210997D01*
X210967Y336563D01*
X212203D01*
Y340670D01*
D02*
G37*
G36*
X223103Y340737D02*
X222356D01*
X222171Y340729D01*
X221993D01*
X221838Y340722D01*
X221697Y340714D01*
X221579Y340707D01*
X221468D01*
X221379Y340700D01*
X221298Y340692D01*
X221238Y340685D01*
X221186Y340677D01*
X221142D01*
X221120Y340670D01*
X221098D01*
X220950Y340640D01*
X220824Y340603D01*
X220720Y340551D01*
X220632Y340507D01*
X220565Y340463D01*
X220513Y340426D01*
X220483Y340396D01*
X220476Y340389D01*
X220432Y340330D01*
X220387Y340263D01*
X220328Y340115D01*
X220284Y339952D01*
X220247Y339789D01*
X220232Y339641D01*
X220224Y339575D01*
Y339515D01*
X220217Y339471D01*
Y339434D01*
Y339412D01*
Y339405D01*
Y339294D01*
X220224Y339190D01*
X220239Y339094D01*
X220254Y339005D01*
X220269Y338924D01*
X220291Y338849D01*
X220313Y338790D01*
X220336Y338731D01*
X220373Y338642D01*
X220409Y338576D01*
X220439Y338539D01*
X220446Y338524D01*
X220498Y338465D01*
X220565Y338420D01*
X220624Y338376D01*
X220683Y338346D01*
X220743Y338317D01*
X220787Y338302D01*
X220816Y338295D01*
X220824Y338287D01*
X220928Y338265D01*
X221039Y338250D01*
X221149Y338235D01*
X221260Y338221D01*
X221364Y338213D01*
X221445Y338206D01*
X221571D01*
X221631Y338198D01*
X221771D01*
X221934Y338191D01*
X222104Y338183D01*
X222259Y338176D01*
X222334Y338169D01*
X222393D01*
X222445Y338161D01*
X222518D01*
X222652Y338154D01*
X222778Y338146D01*
X222888D01*
X222985Y338139D01*
X223074D01*
X223155Y338132D01*
X223288D01*
X223340Y338124D01*
X223599D01*
X223688Y338117D01*
X223754Y338102D01*
X223806Y338095D01*
X223850Y338080D01*
X223873Y338065D01*
X223887Y338058D01*
X223895D01*
X223932Y338028D01*
X223954Y337999D01*
X223984Y337917D01*
X223991Y337873D01*
X223998Y337843D01*
Y337821D01*
Y337813D01*
X223991Y337725D01*
X223976Y337658D01*
X223954Y337606D01*
X223932Y337562D01*
X223902Y337532D01*
X223880Y337517D01*
X223865Y337503D01*
X223858D01*
X223777Y337480D01*
X223695Y337466D01*
X223658D01*
X223628Y337458D01*
X223451D01*
X223384Y337451D01*
X221971D01*
X221912Y337458D01*
X221749D01*
X221653Y337473D01*
X221579Y337503D01*
X221556Y337510D01*
X221534Y337525D01*
X221527Y337532D01*
X221519D01*
X221475Y337577D01*
X221445Y337629D01*
X221423Y337695D01*
X221409Y337762D01*
X221401Y337821D01*
X221394Y337873D01*
Y337910D01*
Y337925D01*
X220180D01*
X220187Y337725D01*
X220195Y337569D01*
X220202Y337436D01*
X220217Y337325D01*
X220232Y337229D01*
X220247Y337162D01*
X220254Y337110D01*
X220269Y337073D01*
Y337066D01*
X220306Y336992D01*
X220358Y336918D01*
X220409Y336859D01*
X220469Y336814D01*
X220513Y336770D01*
X220557Y336740D01*
X220587Y336726D01*
X220595Y336718D01*
X220683Y336674D01*
X220794Y336644D01*
X220898Y336615D01*
X221009Y336593D01*
X221105Y336578D01*
X221179Y336563D01*
X221209D01*
X221231Y336556D01*
X221253D01*
X221342Y336548D01*
X221438Y336541D01*
X221653Y336526D01*
X221882Y336519D01*
X222104Y336511D01*
X222208D01*
X222304Y336504D01*
X223177D01*
X223325Y336511D01*
X223466D01*
X223591Y336519D01*
X223703D01*
X223799Y336526D01*
X223954D01*
X224013Y336533D01*
X224058D01*
X224095Y336541D01*
X224139D01*
X224272Y336556D01*
X224391Y336578D01*
X224487Y336593D01*
X224576Y336622D01*
X224635Y336637D01*
X224687Y336659D01*
X224716Y336666D01*
X224724Y336674D01*
X224798Y336718D01*
X224864Y336770D01*
X224923Y336814D01*
X224968Y336866D01*
X225005Y336911D01*
X225027Y336948D01*
X225042Y336977D01*
X225049Y336985D01*
X225101Y337103D01*
X225146Y337236D01*
X225175Y337384D01*
X225190Y337525D01*
X225205Y337651D01*
Y337710D01*
X225212Y337754D01*
Y337791D01*
Y337828D01*
Y337843D01*
Y337850D01*
X225205Y338006D01*
X225197Y338146D01*
X225183Y338265D01*
X225168Y338361D01*
X225146Y338435D01*
X225131Y338487D01*
X225123Y338524D01*
X225116Y338531D01*
X225072Y338613D01*
X225027Y338687D01*
X224975Y338753D01*
X224923Y338805D01*
X224872Y338849D01*
X224835Y338879D01*
X224805Y338894D01*
X224798Y338901D01*
X224716Y338938D01*
X224627Y338968D01*
X224539Y338998D01*
X224450Y339020D01*
X224376Y339035D01*
X224317Y339042D01*
X224272Y339049D01*
X224257D01*
X224191Y339057D01*
X224102Y339064D01*
X224013Y339071D01*
X223910Y339079D01*
X223695Y339094D01*
X223473Y339108D01*
X223362D01*
X223266Y339116D01*
X223170Y339123D01*
X223096D01*
X223029Y339131D01*
X222933D01*
X222726Y339138D01*
X222533Y339145D01*
X222371D01*
X222222Y339153D01*
X222097Y339160D01*
X221993Y339168D01*
X221897Y339175D01*
X221823Y339182D01*
X221764D01*
X221712Y339190D01*
X221675Y339197D01*
X221623D01*
X221608Y339205D01*
X221601D01*
X221542Y339227D01*
X221505Y339264D01*
X221475Y339308D01*
X221453Y339353D01*
X221438Y339397D01*
X221431Y339434D01*
Y339464D01*
Y339471D01*
X221438Y339545D01*
X221460Y339604D01*
X221482Y339656D01*
X221519Y339693D01*
X221549Y339715D01*
X221571Y339730D01*
X221593Y339745D01*
X221601D01*
X221638Y339752D01*
X221697Y339760D01*
X221756Y339767D01*
X221830Y339774D01*
X221986Y339782D01*
X222156Y339789D01*
X222319Y339797D01*
X223074D01*
X223140Y339789D01*
X223340D01*
X223399Y339782D01*
X223444D01*
X223517Y339774D01*
X223577Y339767D01*
X223628Y339752D01*
X223665Y339745D01*
X223695Y339730D01*
X223717Y339723D01*
X223732Y339715D01*
X223777Y339686D01*
X223799Y339649D01*
X223814Y339627D01*
X223821Y339612D01*
X223828Y339582D01*
X223836Y339552D01*
X223843Y339478D01*
Y339441D01*
Y339412D01*
Y339390D01*
Y339382D01*
X225057D01*
Y339434D01*
X225064Y339471D01*
Y339508D01*
Y339530D01*
Y339567D01*
Y339575D01*
Y339678D01*
X225057Y339767D01*
X225034Y339930D01*
X224997Y340071D01*
X224960Y340181D01*
X224916Y340263D01*
X224886Y340322D01*
X224857Y340359D01*
X224850Y340367D01*
X224805Y340411D01*
X224753Y340448D01*
X224642Y340514D01*
X224517Y340574D01*
X224383Y340618D01*
X224265Y340648D01*
X224213Y340663D01*
X224169Y340670D01*
X224124Y340677D01*
X224095D01*
X224080Y340685D01*
X224073D01*
X223998Y340692D01*
X223910Y340700D01*
X223821Y340707D01*
X223717Y340714D01*
X223510Y340722D01*
X223295Y340729D01*
X223199D01*
X223103Y340737D01*
D02*
G37*
G36*
X196774D02*
X196130D01*
X195871Y340729D01*
X195634D01*
X195420Y340722D01*
X195220Y340707D01*
X195050Y340700D01*
X194894Y340692D01*
X194761Y340677D01*
X194650Y340670D01*
X194554Y340655D01*
X194473Y340648D01*
X194406Y340640D01*
X194361Y340633D01*
X194332Y340626D01*
X194310Y340618D01*
X194302D01*
X194206Y340596D01*
X194125Y340559D01*
X194043Y340529D01*
X193977Y340492D01*
X193858Y340404D01*
X193762Y340322D01*
X193688Y340241D01*
X193644Y340174D01*
X193614Y340122D01*
X193607Y340115D01*
Y340107D01*
X193585Y340041D01*
X193562Y339960D01*
X193540Y339878D01*
X193525Y339797D01*
X193518Y339730D01*
X193510Y339671D01*
X193503Y339634D01*
Y339627D01*
Y339619D01*
Y339552D01*
X193496Y339486D01*
X193488Y339323D01*
Y339153D01*
X193481Y338983D01*
Y338835D01*
Y338768D01*
Y338709D01*
Y338657D01*
Y338620D01*
Y338598D01*
Y338591D01*
Y338457D01*
Y338339D01*
Y338228D01*
X193488Y338124D01*
Y338028D01*
Y337947D01*
Y337873D01*
X193496Y337806D01*
Y337754D01*
Y337702D01*
Y337666D01*
X193503Y337636D01*
Y337606D01*
Y337592D01*
Y337577D01*
X193518Y337451D01*
X193540Y337347D01*
X193570Y337251D01*
X193592Y337170D01*
X193614Y337110D01*
X193636Y337066D01*
X193644Y337036D01*
X193651Y337029D01*
X193695Y336955D01*
X193747Y336896D01*
X193807Y336844D01*
X193858Y336792D01*
X193910Y336763D01*
X193947Y336733D01*
X193977Y336718D01*
X193984Y336711D01*
X194088Y336666D01*
X194206Y336630D01*
X194332Y336600D01*
X194450Y336578D01*
X194561Y336563D01*
X194650Y336548D01*
X194687D01*
X194709Y336541D01*
X194731D01*
X194835Y336533D01*
X194946Y336526D01*
X195072Y336519D01*
X195205D01*
X195486Y336504D01*
X195893D01*
X196012Y336496D01*
X196611D01*
X196796Y336504D01*
X196966D01*
X197122Y336511D01*
X197262Y336519D01*
X197396Y336526D01*
X197506Y336541D01*
X197610Y336548D01*
X197699Y336556D01*
X197773Y336570D01*
X197832Y336578D01*
X197884Y336585D01*
X197921Y336593D01*
X197950D01*
X197965Y336600D01*
X197973D01*
X198128Y336652D01*
X198261Y336711D01*
X198372Y336777D01*
X198454Y336852D01*
X198513Y336911D01*
X198557Y336963D01*
X198580Y337000D01*
X198587Y337014D01*
X198639Y337125D01*
X198676Y337244D01*
X198698Y337362D01*
X198720Y337488D01*
X198728Y337592D01*
X198735Y337673D01*
Y337710D01*
Y337732D01*
Y337747D01*
Y337754D01*
Y337799D01*
Y337850D01*
X198728Y337917D01*
Y337984D01*
Y338043D01*
X198720Y338095D01*
Y338132D01*
Y338146D01*
X197469D01*
X197462Y338013D01*
X197447Y337910D01*
X197432Y337821D01*
X197410Y337762D01*
X197388Y337710D01*
X197366Y337680D01*
X197359Y337666D01*
X197351Y337658D01*
X197314Y337629D01*
X197262Y337606D01*
X197159Y337577D01*
X197107Y337569D01*
X197063Y337562D01*
X197033Y337555D01*
X196974D01*
X196915Y337547D01*
X196848D01*
X196774Y337540D01*
X196618D01*
X196456Y337532D01*
X195775D01*
X195694Y337540D01*
X195553D01*
X195442Y337547D01*
X195353D01*
X195294Y337555D01*
X195249D01*
X195168Y337569D01*
X195101Y337584D01*
X195042Y337606D01*
X194998Y337621D01*
X194961Y337636D01*
X194939Y337651D01*
X194924Y337666D01*
X194916D01*
X194879Y337702D01*
X194850Y337739D01*
X194798Y337836D01*
X194783Y337873D01*
X194776Y337910D01*
X194769Y337932D01*
Y337939D01*
X194754Y338021D01*
X194746Y338124D01*
X194739Y338235D01*
Y338339D01*
X194731Y338442D01*
Y338524D01*
Y338554D01*
Y338576D01*
Y338591D01*
Y338598D01*
Y338761D01*
X194739Y338901D01*
X194746Y339020D01*
X194754Y339108D01*
Y339182D01*
X194761Y339234D01*
X194769Y339264D01*
Y339271D01*
X194791Y339345D01*
X194813Y339412D01*
X194835Y339464D01*
X194865Y339501D01*
X194887Y339538D01*
X194909Y339560D01*
X194916Y339567D01*
X194924Y339575D01*
X194968Y339604D01*
X195013Y339627D01*
X195116Y339656D01*
X195168Y339671D01*
X195205D01*
X195235Y339678D01*
X195242D01*
X195287Y339686D01*
X195346D01*
X195464Y339693D01*
X195597Y339701D01*
X195738Y339708D01*
X196263D01*
X196441Y339701D01*
X196596D01*
X196722Y339693D01*
X196811Y339686D01*
X196885D01*
X196922Y339678D01*
X196937D01*
X197040Y339664D01*
X197122Y339649D01*
X197181Y339634D01*
X197233Y339619D01*
X197270Y339604D01*
X197292Y339597D01*
X197307Y339582D01*
X197336Y339545D01*
X197359Y339508D01*
X197373Y339478D01*
Y339464D01*
X197381Y339434D01*
X197388Y339397D01*
X197396Y339308D01*
Y339264D01*
X197403Y339227D01*
Y339205D01*
Y339197D01*
X198653D01*
Y339257D01*
X198661Y339301D01*
Y339338D01*
Y339368D01*
Y339382D01*
Y339390D01*
Y339397D01*
X198653Y339575D01*
X198646Y339730D01*
X198624Y339863D01*
X198602Y339974D01*
X198580Y340056D01*
X198565Y340115D01*
X198550Y340152D01*
X198542Y340167D01*
X198491Y340255D01*
X198432Y340337D01*
X198372Y340404D01*
X198306Y340463D01*
X198247Y340500D01*
X198195Y340537D01*
X198165Y340551D01*
X198150Y340559D01*
X198062Y340596D01*
X197973Y340626D01*
X197877Y340648D01*
X197780Y340670D01*
X197699Y340685D01*
X197632Y340692D01*
X197588Y340700D01*
X197573D01*
X197499Y340707D01*
X197418Y340714D01*
X197240Y340722D01*
X197048Y340729D01*
X196863D01*
X196774Y340737D01*
D02*
G37*
G36*
X202361Y340729D02*
X201451D01*
X201243Y340722D01*
X201066D01*
X200896Y340714D01*
X200748Y340707D01*
X200615Y340700D01*
X200496D01*
X200393Y340692D01*
X200311Y340685D01*
X200237Y340677D01*
X200178Y340670D01*
X200133D01*
X200104Y340663D01*
X200082D01*
X199956Y340640D01*
X199838Y340603D01*
X199734Y340566D01*
X199645Y340514D01*
X199556Y340463D01*
X199490Y340404D01*
X199423Y340344D01*
X199371Y340285D01*
X199327Y340226D01*
X199290Y340167D01*
X199260Y340115D01*
X199238Y340071D01*
X199223Y340026D01*
X199208Y339997D01*
X199201Y339982D01*
Y339974D01*
X199179Y339893D01*
X199164Y339804D01*
X199149Y339701D01*
X199135Y339597D01*
X199120Y339375D01*
X199105Y339153D01*
X199098Y339049D01*
Y338953D01*
X199090Y338864D01*
Y338790D01*
Y338724D01*
Y338679D01*
Y338642D01*
Y338635D01*
Y338457D01*
X199098Y338295D01*
Y338139D01*
X199105Y338006D01*
X199120Y337880D01*
X199127Y337762D01*
X199135Y337666D01*
X199149Y337577D01*
X199157Y337495D01*
X199164Y337429D01*
X199179Y337377D01*
X199186Y337333D01*
X199194Y337296D01*
Y337273D01*
X199201Y337259D01*
Y337251D01*
X199238Y337147D01*
X199283Y337051D01*
X199342Y336970D01*
X199408Y336896D01*
X199475Y336829D01*
X199549Y336770D01*
X199630Y336726D01*
X199704Y336689D01*
X199845Y336622D01*
X199911Y336600D01*
X199971Y336585D01*
X200015Y336578D01*
X200052Y336570D01*
X200074Y336563D01*
X200082D01*
X200185Y336556D01*
X200304Y336541D01*
X200437Y336533D01*
X200577Y336526D01*
X200881Y336519D01*
X201192Y336511D01*
X201332D01*
X201473Y336504D01*
X202383D01*
X202583Y336511D01*
X202761D01*
X202931Y336519D01*
X203079Y336526D01*
X203212D01*
X203323Y336533D01*
X203427Y336541D01*
X203508Y336548D01*
X203582D01*
X203641Y336556D01*
X203685D01*
X203715Y336563D01*
X203737D01*
X203863Y336585D01*
X203981Y336622D01*
X204085Y336659D01*
X204181Y336711D01*
X204263Y336763D01*
X204329Y336822D01*
X204396Y336881D01*
X204448Y336940D01*
X204492Y337000D01*
X204529Y337059D01*
X204559Y337110D01*
X204581Y337155D01*
X204596Y337199D01*
X204610Y337229D01*
X204618Y337244D01*
Y337251D01*
X204640Y337333D01*
X204655Y337421D01*
X204670Y337525D01*
X204684Y337636D01*
X204707Y337858D01*
X204721Y338080D01*
X204729Y338191D01*
Y338287D01*
X204736Y338376D01*
Y338457D01*
Y338524D01*
Y338568D01*
Y338605D01*
Y338613D01*
Y338790D01*
X204729Y338946D01*
Y339094D01*
X204721Y339234D01*
X204707Y339353D01*
X204699Y339464D01*
X204692Y339567D01*
X204677Y339656D01*
X204670Y339730D01*
X204655Y339797D01*
X204647Y339856D01*
X204640Y339900D01*
X204633Y339930D01*
X204625Y339952D01*
X204618Y339967D01*
Y339974D01*
X204581Y340078D01*
X204537Y340174D01*
X204477Y340255D01*
X204411Y340330D01*
X204344Y340396D01*
X204270Y340455D01*
X204189Y340500D01*
X204115Y340544D01*
X203974Y340603D01*
X203907Y340626D01*
X203856Y340640D01*
X203804Y340648D01*
X203767Y340655D01*
X203745Y340663D01*
X203737D01*
X203634Y340677D01*
X203515Y340685D01*
X203382Y340692D01*
X203241Y340700D01*
X202938Y340714D01*
X202635Y340722D01*
X202494D01*
X202361Y340729D01*
D02*
G37*
%LPD*%
G36*
X209961Y343223D02*
X208133D01*
X208925Y344777D01*
X209169D01*
X209961Y343223D01*
D02*
G37*
G36*
X202450Y339656D02*
X202553D01*
X202642Y339649D01*
X202790D01*
X202849Y339641D01*
X202894D01*
X202931Y339634D01*
X202960D01*
X202982Y339627D01*
X203012D01*
X203094Y339612D01*
X203160Y339590D01*
X203219Y339560D01*
X203264Y339538D01*
X203301Y339508D01*
X203323Y339486D01*
X203338Y339471D01*
X203345Y339464D01*
X203375Y339419D01*
X203390Y339375D01*
X203427Y339271D01*
X203434Y339227D01*
X203441Y339190D01*
X203449Y339160D01*
Y339153D01*
X203464Y339064D01*
X203471Y338961D01*
X203478Y338857D01*
Y338753D01*
X203486Y338650D01*
Y338576D01*
Y338546D01*
Y338524D01*
Y338509D01*
Y338502D01*
Y338369D01*
X203478Y338258D01*
X203471Y338169D01*
X203464Y338087D01*
X203456Y338035D01*
X203449Y337991D01*
X203441Y337969D01*
Y337962D01*
X203404Y337850D01*
X203382Y337813D01*
X203352Y337776D01*
X203330Y337747D01*
X203308Y337725D01*
X203301Y337717D01*
X203293Y337710D01*
X203241Y337680D01*
X203182Y337651D01*
X203064Y337621D01*
X203012Y337606D01*
X202968Y337599D01*
X202938Y337592D01*
X202871D01*
X202805Y337584D01*
X202738D01*
X202657Y337577D01*
X202494D01*
X202324Y337569D01*
X201517D01*
X201406Y337577D01*
X201221D01*
X201140Y337584D01*
X201014D01*
X200962Y337592D01*
X200888D01*
X200859Y337599D01*
X200829D01*
X200703Y337629D01*
X200600Y337680D01*
X200518Y337739D01*
X200459Y337799D01*
X200422Y337858D01*
X200393Y337910D01*
X200385Y337947D01*
X200378Y337962D01*
X200363Y338035D01*
X200356Y338117D01*
X200348Y338213D01*
Y338302D01*
X200341Y338383D01*
Y338450D01*
Y338494D01*
Y338502D01*
Y338509D01*
Y338620D01*
Y338724D01*
X200348Y338820D01*
Y338901D01*
X200356Y338975D01*
X200363Y339042D01*
X200370Y339101D01*
X200378Y339160D01*
X200385Y339242D01*
X200400Y339294D01*
X200407Y339331D01*
Y339338D01*
X200444Y339412D01*
X200489Y339471D01*
X200533Y339515D01*
X200585Y339552D01*
X200637Y339582D01*
X200674Y339597D01*
X200703Y339612D01*
X200711D01*
X200755Y339619D01*
X200822Y339627D01*
X200896Y339634D01*
X200985Y339641D01*
X201081Y339649D01*
X201184D01*
X201392Y339656D01*
X201488D01*
X201584Y339664D01*
X202339D01*
X202450Y339656D01*
D02*
G37*
%LPC*%
G36*
X87027Y343230D02*
X85777D01*
Y341343D01*
Y341269D01*
Y341195D01*
X85769Y341121D01*
Y341047D01*
X85762Y340981D01*
Y340929D01*
X85754Y340899D01*
Y340884D01*
X85747Y340788D01*
X85740Y340714D01*
X85732Y340648D01*
X85725Y340596D01*
X85717Y340551D01*
Y340522D01*
X85710Y340507D01*
Y340500D01*
X85688Y340426D01*
X85651Y340367D01*
X85629Y340330D01*
X85614Y340315D01*
X85569Y340278D01*
X85518Y340248D01*
X85399Y340196D01*
X85347Y340181D01*
X85303Y340174D01*
X85273Y340167D01*
X85259D01*
X85207Y340159D01*
X85148Y340152D01*
X85014Y340144D01*
X84859Y340137D01*
X84711D01*
X84578Y340130D01*
X84082D01*
X83956Y340137D01*
X83845Y340144D01*
X83749D01*
X83660Y340152D01*
X83586Y340159D01*
X83520Y340167D01*
X83460Y340174D01*
X83409Y340181D01*
X83372Y340189D01*
X83335D01*
X83312Y340196D01*
X83298Y340204D01*
X83283D01*
X83194Y340241D01*
X83127Y340285D01*
X83076Y340337D01*
X83031Y340389D01*
X83009Y340433D01*
X82994Y340477D01*
X82979Y340507D01*
Y340514D01*
X82972Y340551D01*
X82965Y340603D01*
Y340655D01*
X82957Y340722D01*
X82950Y340855D01*
X82942Y340996D01*
Y341129D01*
X82935Y341188D01*
Y341240D01*
Y341284D01*
Y341314D01*
Y341336D01*
Y341343D01*
Y343230D01*
X81684D01*
Y341343D01*
Y341210D01*
Y341099D01*
Y340988D01*
Y340892D01*
Y340810D01*
Y340729D01*
Y340663D01*
X81692Y340611D01*
Y340559D01*
Y340522D01*
Y340485D01*
Y340463D01*
Y340426D01*
Y340418D01*
X81707Y340263D01*
X81714Y340189D01*
X81729Y340122D01*
X81736Y340071D01*
X81744Y340019D01*
X81751Y339989D01*
Y339982D01*
X81781Y339863D01*
X81818Y339760D01*
X81862Y339671D01*
X81921Y339582D01*
X81980Y339508D01*
X82047Y339449D01*
X82114Y339390D01*
X82180Y339338D01*
X82247Y339301D01*
X82306Y339264D01*
X82365Y339242D01*
X82417Y339219D01*
X82461Y339205D01*
X82491Y339190D01*
X82513Y339182D01*
X82521D01*
X82639Y339160D01*
X82757Y339145D01*
X82868Y339131D01*
X82979Y339116D01*
X83076Y339108D01*
X83150Y339101D01*
X83179Y339094D01*
X83216D01*
X83298Y339086D01*
X83386D01*
X83571Y339079D01*
X83764Y339071D01*
X83949D01*
X84030Y339064D01*
X84718D01*
X84874Y339071D01*
X85014D01*
X85140Y339079D01*
X85259D01*
X85362Y339086D01*
X85451Y339094D01*
X85532D01*
X85606Y339101D01*
X85658D01*
X85710Y339108D01*
X85747D01*
X85769Y339116D01*
X85791D01*
X85947Y339138D01*
X86080Y339160D01*
X86198Y339190D01*
X86295Y339219D01*
X86369Y339249D01*
X86420Y339271D01*
X86457Y339286D01*
X86465Y339294D01*
X86539Y339345D01*
X86605Y339397D01*
X86724Y339515D01*
X86805Y339641D01*
X86872Y339767D01*
X86916Y339878D01*
X86931Y339930D01*
X86946Y339974D01*
X86953Y340004D01*
Y340034D01*
X86961Y340048D01*
Y340056D01*
X86968Y340122D01*
X86975Y340196D01*
X86983Y340285D01*
X86990Y340389D01*
X87005Y340596D01*
X87012Y340810D01*
Y340921D01*
X87020Y341018D01*
Y341107D01*
Y341188D01*
X87027Y341247D01*
Y341299D01*
Y341336D01*
Y341343D01*
Y343230D01*
D02*
G37*
G36*
X73581D02*
X72264D01*
Y339123D01*
X73581D01*
Y343230D01*
D02*
G37*
G36*
X81129D02*
X78865D01*
X77644Y340559D01*
X76423Y343230D01*
X74159D01*
Y339123D01*
X75387D01*
X75357Y342194D01*
X75579D01*
X77126Y339123D01*
X78169D01*
X79716Y342194D01*
X79923D01*
X79894Y339123D01*
X81129D01*
Y343230D01*
D02*
G37*
G36*
X152861Y77553D02*
X148295D01*
Y75067D01*
X149390D01*
Y75104D01*
Y75112D01*
X149398Y75171D01*
X149420Y75215D01*
X149442Y75252D01*
X149479Y75282D01*
X149509Y75304D01*
X149531Y75319D01*
X149553Y75326D01*
X149560D01*
X149597Y75333D01*
X149642Y75348D01*
X149745Y75363D01*
X149864Y75371D01*
X149982Y75378D01*
X150093Y75385D01*
X150611D01*
X150759Y75378D01*
X150892D01*
X151011Y75371D01*
X151114Y75363D01*
X151211Y75356D01*
X151292D01*
X151366Y75348D01*
X151425Y75341D01*
X151477Y75333D01*
X151514Y75326D01*
X151544D01*
X151566Y75319D01*
X151581D01*
X151632Y75304D01*
X151677Y75289D01*
X151706Y75267D01*
X151736Y75245D01*
X151773Y75208D01*
X151780Y75200D01*
Y75193D01*
X151803Y75156D01*
X151817Y75104D01*
X151832Y75001D01*
X151840Y74949D01*
Y74912D01*
Y74882D01*
Y74875D01*
Y74786D01*
X151832Y74704D01*
X151825Y74645D01*
Y74594D01*
X151817Y74556D01*
X151810Y74527D01*
X151803Y74512D01*
Y74505D01*
X151766Y74438D01*
X151721Y74386D01*
X151684Y74364D01*
X151677Y74357D01*
X151669D01*
X151625Y74342D01*
X151581Y74335D01*
X151484Y74320D01*
X151447D01*
X151410Y74312D01*
X151240D01*
X151174Y74305D01*
X150345D01*
X150175Y74312D01*
X150034D01*
X149916Y74320D01*
X149827D01*
X149768Y74327D01*
X149716D01*
X149627Y74335D01*
X149560Y74349D01*
X149501Y74364D01*
X149464Y74379D01*
X149435Y74394D01*
X149412Y74409D01*
X149398Y74416D01*
X149375Y74445D01*
X149361Y74490D01*
X149338Y74594D01*
X149331Y74638D01*
X149324Y74682D01*
Y74712D01*
Y74719D01*
X148132D01*
Y74645D01*
Y74594D01*
Y74556D01*
Y74549D01*
X148140Y74379D01*
X148154Y74231D01*
X148177Y74105D01*
X148206Y74009D01*
X148236Y73927D01*
X148258Y73868D01*
X148273Y73839D01*
X148280Y73824D01*
X148347Y73743D01*
X148428Y73676D01*
X148510Y73617D01*
X148591Y73580D01*
X148672Y73543D01*
X148732Y73520D01*
X148776Y73513D01*
X148783Y73506D01*
X148791D01*
X148909Y73484D01*
X149035Y73469D01*
X149153Y73454D01*
X149264Y73447D01*
X149368Y73432D01*
X149442D01*
X149479Y73424D01*
X149516D01*
X149597Y73417D01*
X149694D01*
X149797Y73409D01*
X149908D01*
X150130Y73402D01*
X150352D01*
X150463Y73395D01*
X151240D01*
X151344Y73402D01*
X151440D01*
X151521Y73409D01*
X151603D01*
X151669Y73417D01*
X151780D01*
X151825Y73424D01*
X151862D01*
X151884Y73432D01*
X151921D01*
X152039Y73447D01*
X152150Y73469D01*
X152247Y73491D01*
X152335Y73513D01*
X152402Y73535D01*
X152454Y73558D01*
X152491Y73565D01*
X152498Y73572D01*
X152602Y73632D01*
X152691Y73698D01*
X152765Y73772D01*
X152824Y73839D01*
X152868Y73905D01*
X152898Y73957D01*
X152913Y73994D01*
X152920Y74009D01*
X152964Y74135D01*
X152994Y74283D01*
X153024Y74431D01*
X153038Y74579D01*
X153046Y74712D01*
Y74764D01*
X153053Y74815D01*
Y74853D01*
Y74889D01*
Y74904D01*
Y74912D01*
X153046Y75074D01*
X153038Y75215D01*
X153024Y75333D01*
X153009Y75437D01*
X152987Y75519D01*
X152972Y75578D01*
X152964Y75607D01*
X152957Y75622D01*
X152913Y75718D01*
X152868Y75800D01*
X152816Y75866D01*
X152765Y75925D01*
X152720Y75963D01*
X152683Y75999D01*
X152654Y76014D01*
X152646Y76022D01*
X152565Y76066D01*
X152469Y76103D01*
X152358Y76133D01*
X152232Y76162D01*
X152091Y76184D01*
X151958Y76207D01*
X151669Y76236D01*
X151536Y76244D01*
X151403Y76251D01*
X151285Y76258D01*
X151181Y76266D01*
X150663D01*
X150522Y76258D01*
X150397Y76251D01*
X150286Y76244D01*
X150189Y76236D01*
X150101Y76229D01*
X150019Y76222D01*
X149953Y76214D01*
X149901Y76207D01*
X149856Y76199D01*
X149819Y76192D01*
X149790Y76184D01*
X149768D01*
X149760Y76177D01*
X149753D01*
X149686Y76155D01*
X149620Y76125D01*
X149553Y76088D01*
X149501Y76044D01*
X149449Y76007D01*
X149412Y75977D01*
X149383Y75955D01*
X149375Y75948D01*
X149383Y75992D01*
Y76044D01*
X149390Y76148D01*
Y76192D01*
Y76229D01*
Y76251D01*
Y76258D01*
Y76695D01*
X149420Y76688D01*
X149464Y76680D01*
X149509D01*
X149568Y76673D01*
X149694D01*
X149834Y76666D01*
X152861D01*
Y77553D01*
D02*
G37*
G36*
X170199Y77620D02*
X169555D01*
X169296Y77613D01*
X169059D01*
X168845Y77605D01*
X168645Y77591D01*
X168475Y77583D01*
X168319Y77576D01*
X168186Y77561D01*
X168075Y77553D01*
X167979Y77539D01*
X167898Y77531D01*
X167831Y77524D01*
X167787Y77517D01*
X167757Y77509D01*
X167735Y77502D01*
X167727D01*
X167631Y77479D01*
X167550Y77443D01*
X167468Y77413D01*
X167402Y77376D01*
X167283Y77287D01*
X167187Y77206D01*
X167113Y77124D01*
X167069Y77058D01*
X167039Y77006D01*
X167032Y76999D01*
Y76991D01*
X167010Y76925D01*
X166987Y76843D01*
X166965Y76762D01*
X166950Y76680D01*
X166943Y76614D01*
X166936Y76555D01*
X166928Y76517D01*
Y76510D01*
Y76503D01*
Y76436D01*
X166921Y76370D01*
X166913Y76207D01*
Y76037D01*
X166906Y75866D01*
Y75718D01*
Y75652D01*
Y75592D01*
Y75541D01*
Y75504D01*
Y75481D01*
Y75474D01*
Y75341D01*
Y75222D01*
Y75112D01*
X166913Y75008D01*
Y74912D01*
Y74830D01*
Y74756D01*
X166921Y74690D01*
Y74638D01*
Y74586D01*
Y74549D01*
X166928Y74519D01*
Y74490D01*
Y74475D01*
Y74460D01*
X166943Y74335D01*
X166965Y74231D01*
X166995Y74135D01*
X167017Y74053D01*
X167039Y73994D01*
X167061Y73950D01*
X167069Y73920D01*
X167076Y73913D01*
X167121Y73839D01*
X167172Y73779D01*
X167232Y73728D01*
X167283Y73676D01*
X167335Y73646D01*
X167372Y73617D01*
X167402Y73602D01*
X167409Y73594D01*
X167513Y73550D01*
X167631Y73513D01*
X167757Y73484D01*
X167875Y73461D01*
X167986Y73447D01*
X168075Y73432D01*
X168112D01*
X168134Y73424D01*
X168157D01*
X168260Y73417D01*
X168371Y73409D01*
X168497Y73402D01*
X168630D01*
X168911Y73387D01*
X169318D01*
X169437Y73380D01*
X170036D01*
X170221Y73387D01*
X170391D01*
X170547Y73395D01*
X170687Y73402D01*
X170821Y73409D01*
X170932Y73424D01*
X171035Y73432D01*
X171124Y73439D01*
X171198Y73454D01*
X171257Y73461D01*
X171309Y73469D01*
X171346Y73476D01*
X171376D01*
X171390Y73484D01*
X171398D01*
X171553Y73535D01*
X171686Y73594D01*
X171797Y73661D01*
X171879Y73735D01*
X171938Y73794D01*
X171982Y73846D01*
X172005Y73883D01*
X172012Y73898D01*
X172064Y74009D01*
X172101Y74127D01*
X172123Y74246D01*
X172145Y74371D01*
X172153Y74475D01*
X172160Y74556D01*
Y74594D01*
Y74616D01*
Y74630D01*
Y74638D01*
Y74682D01*
Y74734D01*
X172153Y74801D01*
Y74867D01*
Y74927D01*
X172145Y74978D01*
Y75015D01*
Y75030D01*
X170895D01*
X170887Y74897D01*
X170872Y74793D01*
X170858Y74704D01*
X170835Y74645D01*
X170813Y74594D01*
X170791Y74564D01*
X170784Y74549D01*
X170776Y74542D01*
X170739Y74512D01*
X170687Y74490D01*
X170584Y74460D01*
X170532Y74453D01*
X170488Y74445D01*
X170458Y74438D01*
X170399D01*
X170340Y74431D01*
X170273D01*
X170199Y74423D01*
X170044D01*
X169881Y74416D01*
X169200D01*
X169119Y74423D01*
X168978D01*
X168867Y74431D01*
X168778D01*
X168719Y74438D01*
X168675D01*
X168593Y74453D01*
X168527Y74468D01*
X168467Y74490D01*
X168423Y74505D01*
X168386Y74519D01*
X168364Y74534D01*
X168349Y74549D01*
X168342D01*
X168305Y74586D01*
X168275Y74623D01*
X168223Y74719D01*
X168208Y74756D01*
X168201Y74793D01*
X168194Y74815D01*
Y74823D01*
X168179Y74904D01*
X168171Y75008D01*
X168164Y75119D01*
Y75222D01*
X168157Y75326D01*
Y75407D01*
Y75437D01*
Y75459D01*
Y75474D01*
Y75481D01*
Y75644D01*
X168164Y75785D01*
X168171Y75903D01*
X168179Y75992D01*
Y76066D01*
X168186Y76118D01*
X168194Y76148D01*
Y76155D01*
X168216Y76229D01*
X168238Y76296D01*
X168260Y76347D01*
X168290Y76384D01*
X168312Y76421D01*
X168334Y76443D01*
X168342Y76451D01*
X168349Y76458D01*
X168393Y76488D01*
X168438Y76510D01*
X168541Y76540D01*
X168593Y76555D01*
X168630D01*
X168660Y76562D01*
X168667D01*
X168712Y76569D01*
X168771D01*
X168889Y76577D01*
X169022Y76584D01*
X169163Y76591D01*
X169688D01*
X169866Y76584D01*
X170021D01*
X170147Y76577D01*
X170236Y76569D01*
X170310D01*
X170347Y76562D01*
X170362D01*
X170465Y76547D01*
X170547Y76532D01*
X170606Y76517D01*
X170658Y76503D01*
X170695Y76488D01*
X170717Y76481D01*
X170732Y76466D01*
X170761Y76429D01*
X170784Y76392D01*
X170798Y76362D01*
Y76347D01*
X170806Y76318D01*
X170813Y76281D01*
X170821Y76192D01*
Y76148D01*
X170828Y76111D01*
Y76088D01*
Y76081D01*
X172079D01*
Y76140D01*
X172086Y76184D01*
Y76222D01*
Y76251D01*
Y76266D01*
Y76273D01*
Y76281D01*
X172079Y76458D01*
X172071Y76614D01*
X172049Y76747D01*
X172027Y76858D01*
X172005Y76939D01*
X171990Y76999D01*
X171975Y77035D01*
X171968Y77050D01*
X171916Y77139D01*
X171857Y77220D01*
X171797Y77287D01*
X171731Y77346D01*
X171672Y77383D01*
X171620Y77420D01*
X171590Y77435D01*
X171575Y77443D01*
X171487Y77479D01*
X171398Y77509D01*
X171302Y77531D01*
X171205Y77553D01*
X171124Y77568D01*
X171057Y77576D01*
X171013Y77583D01*
X170998D01*
X170924Y77591D01*
X170843Y77598D01*
X170665Y77605D01*
X170473Y77613D01*
X170288D01*
X170199Y77620D01*
D02*
G37*
G36*
X164627Y77553D02*
X161067D01*
Y73447D01*
X164568D01*
X164649Y73454D01*
X164893D01*
X164938Y73461D01*
X165026D01*
X165137Y73469D01*
X165248Y73484D01*
X165345Y73498D01*
X165433Y73513D01*
X165500Y73520D01*
X165559Y73535D01*
X165589Y73543D01*
X165604D01*
X165707Y73572D01*
X165803Y73609D01*
X165885Y73654D01*
X165959Y73698D01*
X166033Y73750D01*
X166092Y73809D01*
X166196Y73920D01*
X166270Y74031D01*
X166321Y74120D01*
X166336Y74157D01*
X166351Y74186D01*
X166358Y74201D01*
Y74209D01*
X166410Y74386D01*
X166432Y74468D01*
X166447Y74549D01*
X166455Y74616D01*
X166462Y74675D01*
X166469Y74704D01*
Y74719D01*
X166477Y74838D01*
X166484Y74971D01*
X166492Y75112D01*
X166499Y75245D01*
Y75371D01*
Y75422D01*
Y75467D01*
Y75504D01*
Y75533D01*
Y75548D01*
Y75555D01*
Y75733D01*
X166492Y75889D01*
Y76014D01*
X166484Y76118D01*
X166477Y76199D01*
Y76258D01*
X166469Y76288D01*
Y76303D01*
X166447Y76481D01*
X166432Y76562D01*
X166418Y76636D01*
X166403Y76695D01*
X166388Y76740D01*
X166381Y76769D01*
Y76776D01*
X166344Y76880D01*
X166292Y76969D01*
X166233Y77050D01*
X166173Y77124D01*
X166107Y77191D01*
X166040Y77250D01*
X165974Y77294D01*
X165907Y77339D01*
X165781Y77406D01*
X165722Y77428D01*
X165670Y77443D01*
X165633Y77457D01*
X165604Y77465D01*
X165581Y77472D01*
X165574D01*
X165382Y77502D01*
X165293Y77517D01*
X165219Y77524D01*
X165152Y77531D01*
X165108Y77539D01*
X165012D01*
X164952Y77546D01*
X164797D01*
X164627Y77553D01*
D02*
G37*
G36*
X159314D02*
X157945D01*
X156465Y74483D01*
X156228D01*
X154726Y77553D01*
X153364D01*
X155384Y73447D01*
X157308D01*
X159314Y77553D01*
D02*
G37*
G36*
X145409Y77361D02*
X144669D01*
Y75911D01*
X143026D01*
Y75171D01*
X144669D01*
Y73728D01*
X145409D01*
Y75171D01*
X147059D01*
Y75911D01*
X145409D01*
Y77361D01*
D02*
G37*
%LPD*%
G36*
X164390Y76517D02*
X164464D01*
X164523Y76510D01*
X164627D01*
X164708Y76503D01*
X164760Y76495D01*
X164790Y76488D01*
X164797D01*
X164871Y76473D01*
X164930Y76451D01*
X164982Y76429D01*
X165026Y76407D01*
X165056Y76384D01*
X165078Y76362D01*
X165093Y76355D01*
X165100Y76347D01*
X165130Y76303D01*
X165160Y76258D01*
X165197Y76162D01*
X165211Y76118D01*
X165219Y76081D01*
X165226Y76059D01*
Y76051D01*
X165241Y75970D01*
X165248Y75881D01*
X165256Y75785D01*
Y75696D01*
X165263Y75615D01*
Y75541D01*
Y75496D01*
Y75489D01*
Y75481D01*
Y75348D01*
X165256Y75230D01*
X165248Y75134D01*
X165241Y75052D01*
X165234Y74986D01*
X165226Y74941D01*
X165219Y74912D01*
Y74904D01*
X165197Y74838D01*
X165174Y74786D01*
X165152Y74742D01*
X165130Y74704D01*
X165108Y74675D01*
X165086Y74653D01*
X165078Y74645D01*
X165071Y74638D01*
X165034Y74608D01*
X164982Y74586D01*
X164878Y74549D01*
X164827Y74542D01*
X164790Y74534D01*
X164760Y74527D01*
X164753D01*
X164656Y74519D01*
X164545Y74512D01*
X164427Y74505D01*
X164309D01*
X164205Y74497D01*
X162303D01*
Y76525D01*
X164316D01*
X164390Y76517D01*
D02*
G37*
%LPC*%
G36*
X142375Y92261D02*
X141635D01*
Y90811D01*
X139992D01*
Y90071D01*
X141635D01*
Y88628D01*
X142375D01*
Y90071D01*
X144025D01*
Y90811D01*
X142375D01*
Y92261D01*
D02*
G37*
G36*
X167661Y92453D02*
X164101D01*
Y88346D01*
X167602D01*
X167683Y88354D01*
X167927D01*
X167972Y88361D01*
X168060D01*
X168171Y88369D01*
X168282Y88384D01*
X168379Y88398D01*
X168467Y88413D01*
X168534Y88420D01*
X168593Y88435D01*
X168623Y88443D01*
X168638D01*
X168741Y88472D01*
X168837Y88509D01*
X168919Y88554D01*
X168993Y88598D01*
X169067Y88650D01*
X169126Y88709D01*
X169230Y88820D01*
X169304Y88931D01*
X169355Y89020D01*
X169370Y89057D01*
X169385Y89087D01*
X169392Y89101D01*
Y89109D01*
X169444Y89286D01*
X169466Y89368D01*
X169481Y89449D01*
X169489Y89516D01*
X169496Y89575D01*
X169503Y89605D01*
Y89619D01*
X169511Y89738D01*
X169518Y89871D01*
X169526Y90012D01*
X169533Y90145D01*
Y90271D01*
Y90322D01*
Y90367D01*
Y90404D01*
Y90433D01*
Y90448D01*
Y90456D01*
Y90633D01*
X169526Y90789D01*
Y90914D01*
X169518Y91018D01*
X169511Y91099D01*
Y91158D01*
X169503Y91188D01*
Y91203D01*
X169481Y91381D01*
X169466Y91462D01*
X169452Y91536D01*
X169437Y91595D01*
X169422Y91640D01*
X169415Y91669D01*
Y91676D01*
X169378Y91780D01*
X169326Y91869D01*
X169267Y91950D01*
X169207Y92024D01*
X169141Y92091D01*
X169074Y92150D01*
X169008Y92194D01*
X168941Y92239D01*
X168815Y92305D01*
X168756Y92328D01*
X168704Y92343D01*
X168667Y92357D01*
X168638Y92365D01*
X168615Y92372D01*
X168608D01*
X168416Y92402D01*
X168327Y92417D01*
X168253Y92424D01*
X168186Y92431D01*
X168142Y92439D01*
X168046D01*
X167986Y92446D01*
X167831D01*
X167661Y92453D01*
D02*
G37*
G36*
X155636Y92505D02*
X154985D01*
X154829Y92498D01*
X154681D01*
X154541Y92491D01*
X154415Y92483D01*
X154304Y92476D01*
X154200D01*
X154111Y92468D01*
X154030Y92461D01*
X153963Y92453D01*
X153904Y92446D01*
X153867D01*
X153830Y92439D01*
X153808D01*
X153682Y92424D01*
X153571Y92402D01*
X153475Y92387D01*
X153394Y92365D01*
X153327Y92350D01*
X153283Y92335D01*
X153253Y92328D01*
X153246Y92320D01*
X153172Y92283D01*
X153112Y92246D01*
X153053Y92209D01*
X153009Y92172D01*
X152972Y92135D01*
X152942Y92106D01*
X152927Y92091D01*
X152920Y92084D01*
X152883Y92039D01*
X152853Y91980D01*
X152809Y91854D01*
X152772Y91721D01*
X152750Y91588D01*
X152735Y91462D01*
Y91410D01*
X152728Y91366D01*
Y91321D01*
Y91292D01*
Y91277D01*
Y91269D01*
X152720Y91025D01*
X153919D01*
Y91114D01*
X153926Y91188D01*
Y91240D01*
Y91284D01*
X153934Y91314D01*
Y91329D01*
Y91343D01*
X153949Y91388D01*
X153971Y91417D01*
X153986Y91440D01*
X153993Y91447D01*
X154030Y91469D01*
X154067Y91492D01*
X154163Y91514D01*
X154208Y91528D01*
X154245D01*
X154274Y91536D01*
X154282D01*
X154326Y91543D01*
X154444D01*
X154511Y91551D01*
X154659D01*
X154814Y91558D01*
X155473D01*
X155591Y91551D01*
X155695D01*
X155791Y91543D01*
X155873D01*
X155939Y91536D01*
X155998Y91528D01*
X156043Y91521D01*
X156087D01*
X156117Y91514D01*
X156139Y91506D01*
X156169Y91499D01*
X156176D01*
X156228Y91469D01*
X156272Y91432D01*
X156302Y91381D01*
X156317Y91336D01*
X156331Y91292D01*
X156339Y91255D01*
Y91225D01*
Y91218D01*
X156331Y91144D01*
X156317Y91084D01*
X156287Y91033D01*
X156265Y90996D01*
X156235Y90966D01*
X156206Y90951D01*
X156191Y90936D01*
X156183D01*
X156117Y90914D01*
X156028Y90899D01*
X155924Y90885D01*
X155828Y90877D01*
X155732D01*
X155651Y90870D01*
X154629D01*
Y89982D01*
X155606D01*
X155710Y89974D01*
X155887D01*
X155961Y89967D01*
X156021D01*
X156080Y89960D01*
X156124Y89952D01*
X156154D01*
X156206Y89945D01*
X156235Y89938D01*
X156243D01*
X156302Y89908D01*
X156346Y89871D01*
X156376Y89819D01*
X156398Y89760D01*
X156413Y89708D01*
X156420Y89671D01*
Y89641D01*
Y89627D01*
X156413Y89560D01*
X156398Y89501D01*
X156383Y89449D01*
X156361Y89412D01*
X156331Y89390D01*
X156317Y89368D01*
X156302Y89360D01*
X156294Y89353D01*
X156228Y89323D01*
X156154Y89301D01*
X156124Y89294D01*
X156095Y89286D01*
X155991D01*
X155939Y89279D01*
X155717D01*
X155562Y89271D01*
X155340D01*
X155281Y89264D01*
X154844D01*
X154711Y89271D01*
X154496D01*
X154415Y89279D01*
X154282D01*
X154237Y89286D01*
X154163D01*
X154141Y89294D01*
X154111D01*
X154067Y89309D01*
X154030Y89323D01*
X153978Y89368D01*
X153949Y89397D01*
X153941Y89412D01*
X153926Y89449D01*
X153919Y89501D01*
X153912Y89612D01*
X153904Y89664D01*
Y89708D01*
Y89738D01*
Y89745D01*
Y89767D01*
Y89797D01*
X153897Y89819D01*
Y89827D01*
X152705D01*
Y89649D01*
X152713Y89501D01*
X152720Y89375D01*
X152728Y89264D01*
X152735Y89183D01*
X152742Y89123D01*
X152750Y89094D01*
Y89079D01*
X152772Y88983D01*
X152802Y88902D01*
X152839Y88820D01*
X152883Y88753D01*
X152935Y88687D01*
X152987Y88635D01*
X153098Y88546D01*
X153201Y88480D01*
X153290Y88435D01*
X153327Y88420D01*
X153357Y88413D01*
X153371Y88406D01*
X153379D01*
X153564Y88369D01*
X153653Y88354D01*
X153734Y88346D01*
X153808Y88332D01*
X153860D01*
X153889Y88324D01*
X153904D01*
X154015Y88317D01*
X154148Y88310D01*
X154282Y88302D01*
X154415D01*
X154541Y88295D01*
X154992D01*
X155236Y88302D01*
X155458D01*
X155658Y88310D01*
X155843Y88317D01*
X156006Y88324D01*
X156154Y88332D01*
X156280Y88339D01*
X156391Y88346D01*
X156487Y88354D01*
X156561D01*
X156627Y88361D01*
X156672Y88369D01*
X156709Y88376D01*
X156731D01*
X156827Y88398D01*
X156916Y88420D01*
X157071Y88472D01*
X157197Y88532D01*
X157301Y88598D01*
X157375Y88650D01*
X157434Y88702D01*
X157464Y88731D01*
X157471Y88746D01*
X157523Y88842D01*
X157567Y88953D01*
X157597Y89079D01*
X157612Y89197D01*
X157626Y89309D01*
X157634Y89397D01*
Y89427D01*
Y89456D01*
Y89471D01*
Y89479D01*
Y89597D01*
X157626Y89693D01*
X157612Y89782D01*
X157604Y89856D01*
X157589Y89915D01*
X157575Y89952D01*
X157567Y89982D01*
Y89989D01*
X157545Y90056D01*
X157508Y90115D01*
X157478Y90167D01*
X157449Y90204D01*
X157412Y90241D01*
X157390Y90263D01*
X157375Y90271D01*
X157367Y90278D01*
X157308Y90307D01*
X157242Y90345D01*
X157160Y90374D01*
X157079Y90396D01*
X157005Y90418D01*
X156946Y90433D01*
X156901Y90448D01*
X156886D01*
X157020Y90485D01*
X157123Y90522D01*
X157219Y90566D01*
X157286Y90611D01*
X157338Y90655D01*
X157375Y90685D01*
X157397Y90707D01*
X157404Y90715D01*
X157456Y90796D01*
X157493Y90892D01*
X157515Y91003D01*
X157538Y91107D01*
X157545Y91203D01*
X157552Y91277D01*
Y91307D01*
Y91329D01*
Y91343D01*
Y91351D01*
Y91484D01*
X157538Y91595D01*
X157523Y91699D01*
X157508Y91780D01*
X157493Y91847D01*
X157478Y91899D01*
X157471Y91928D01*
X157464Y91935D01*
X157427Y92017D01*
X157382Y92084D01*
X157330Y92143D01*
X157286Y92194D01*
X157242Y92239D01*
X157205Y92269D01*
X157175Y92283D01*
X157168Y92291D01*
X157086Y92335D01*
X156997Y92365D01*
X156901Y92394D01*
X156805Y92417D01*
X156724Y92431D01*
X156657Y92446D01*
X156605Y92453D01*
X156590D01*
X156516Y92461D01*
X156428Y92468D01*
X156235Y92483D01*
X156028Y92491D01*
X155821Y92498D01*
X155725D01*
X155636Y92505D01*
D02*
G37*
G36*
X148029D02*
X147377D01*
X147222Y92498D01*
X147074D01*
X146933Y92491D01*
X146808Y92483D01*
X146697Y92476D01*
X146593D01*
X146504Y92468D01*
X146423Y92461D01*
X146356Y92453D01*
X146297Y92446D01*
X146260D01*
X146223Y92439D01*
X146201D01*
X146075Y92424D01*
X145964Y92402D01*
X145868Y92387D01*
X145786Y92365D01*
X145720Y92350D01*
X145675Y92335D01*
X145646Y92328D01*
X145638Y92320D01*
X145564Y92283D01*
X145505Y92246D01*
X145446Y92209D01*
X145402Y92172D01*
X145365Y92135D01*
X145335Y92106D01*
X145320Y92091D01*
X145313Y92084D01*
X145276Y92039D01*
X145246Y91980D01*
X145202Y91854D01*
X145165Y91721D01*
X145143Y91588D01*
X145128Y91462D01*
Y91410D01*
X145120Y91366D01*
Y91321D01*
Y91292D01*
Y91277D01*
Y91269D01*
X145113Y91025D01*
X146312D01*
Y91114D01*
X146319Y91188D01*
Y91240D01*
Y91284D01*
X146327Y91314D01*
Y91329D01*
Y91343D01*
X146341Y91388D01*
X146364Y91417D01*
X146378Y91440D01*
X146386Y91447D01*
X146423Y91469D01*
X146460Y91492D01*
X146556Y91514D01*
X146600Y91528D01*
X146637D01*
X146667Y91536D01*
X146674D01*
X146719Y91543D01*
X146837D01*
X146904Y91551D01*
X147052D01*
X147207Y91558D01*
X147866D01*
X147984Y91551D01*
X148088D01*
X148184Y91543D01*
X148265D01*
X148332Y91536D01*
X148391Y91528D01*
X148436Y91521D01*
X148480D01*
X148510Y91514D01*
X148532Y91506D01*
X148561Y91499D01*
X148569D01*
X148621Y91469D01*
X148665Y91432D01*
X148695Y91381D01*
X148709Y91336D01*
X148724Y91292D01*
X148732Y91255D01*
Y91225D01*
Y91218D01*
X148724Y91144D01*
X148709Y91084D01*
X148680Y91033D01*
X148658Y90996D01*
X148628Y90966D01*
X148598Y90951D01*
X148584Y90936D01*
X148576D01*
X148510Y90914D01*
X148421Y90899D01*
X148317Y90885D01*
X148221Y90877D01*
X148125D01*
X148043Y90870D01*
X147022D01*
Y89982D01*
X147999D01*
X148103Y89974D01*
X148280D01*
X148354Y89967D01*
X148413D01*
X148473Y89960D01*
X148517Y89952D01*
X148547D01*
X148598Y89945D01*
X148628Y89938D01*
X148635D01*
X148695Y89908D01*
X148739Y89871D01*
X148769Y89819D01*
X148791Y89760D01*
X148806Y89708D01*
X148813Y89671D01*
Y89641D01*
Y89627D01*
X148806Y89560D01*
X148791Y89501D01*
X148776Y89449D01*
X148754Y89412D01*
X148724Y89390D01*
X148709Y89368D01*
X148695Y89360D01*
X148687Y89353D01*
X148621Y89323D01*
X148547Y89301D01*
X148517Y89294D01*
X148487Y89286D01*
X148384D01*
X148332Y89279D01*
X148110D01*
X147955Y89271D01*
X147733D01*
X147673Y89264D01*
X147237D01*
X147104Y89271D01*
X146889D01*
X146808Y89279D01*
X146674D01*
X146630Y89286D01*
X146556D01*
X146534Y89294D01*
X146504D01*
X146460Y89309D01*
X146423Y89323D01*
X146371Y89368D01*
X146341Y89397D01*
X146334Y89412D01*
X146319Y89449D01*
X146312Y89501D01*
X146304Y89612D01*
X146297Y89664D01*
Y89708D01*
Y89738D01*
Y89745D01*
Y89767D01*
Y89797D01*
X146290Y89819D01*
Y89827D01*
X145098D01*
Y89649D01*
X145106Y89501D01*
X145113Y89375D01*
X145120Y89264D01*
X145128Y89183D01*
X145135Y89123D01*
X145143Y89094D01*
Y89079D01*
X145165Y88983D01*
X145194Y88902D01*
X145231Y88820D01*
X145276Y88753D01*
X145328Y88687D01*
X145379Y88635D01*
X145490Y88546D01*
X145594Y88480D01*
X145683Y88435D01*
X145720Y88420D01*
X145749Y88413D01*
X145764Y88406D01*
X145772D01*
X145957Y88369D01*
X146045Y88354D01*
X146127Y88346D01*
X146201Y88332D01*
X146253D01*
X146282Y88324D01*
X146297D01*
X146408Y88317D01*
X146541Y88310D01*
X146674Y88302D01*
X146808D01*
X146933Y88295D01*
X147385D01*
X147629Y88302D01*
X147851D01*
X148051Y88310D01*
X148236Y88317D01*
X148399Y88324D01*
X148547Y88332D01*
X148672Y88339D01*
X148783Y88346D01*
X148880Y88354D01*
X148954D01*
X149020Y88361D01*
X149065Y88369D01*
X149102Y88376D01*
X149124D01*
X149220Y88398D01*
X149309Y88420D01*
X149464Y88472D01*
X149590Y88532D01*
X149694Y88598D01*
X149768Y88650D01*
X149827Y88702D01*
X149856Y88731D01*
X149864Y88746D01*
X149916Y88842D01*
X149960Y88953D01*
X149990Y89079D01*
X150004Y89197D01*
X150019Y89309D01*
X150027Y89397D01*
Y89427D01*
Y89456D01*
Y89471D01*
Y89479D01*
Y89597D01*
X150019Y89693D01*
X150004Y89782D01*
X149997Y89856D01*
X149982Y89915D01*
X149967Y89952D01*
X149960Y89982D01*
Y89989D01*
X149938Y90056D01*
X149901Y90115D01*
X149871Y90167D01*
X149842Y90204D01*
X149805Y90241D01*
X149782Y90263D01*
X149768Y90271D01*
X149760Y90278D01*
X149701Y90307D01*
X149634Y90345D01*
X149553Y90374D01*
X149472Y90396D01*
X149398Y90418D01*
X149338Y90433D01*
X149294Y90448D01*
X149279D01*
X149412Y90485D01*
X149516Y90522D01*
X149612Y90566D01*
X149679Y90611D01*
X149731Y90655D01*
X149768Y90685D01*
X149790Y90707D01*
X149797Y90715D01*
X149849Y90796D01*
X149886Y90892D01*
X149908Y91003D01*
X149930Y91107D01*
X149938Y91203D01*
X149945Y91277D01*
Y91307D01*
Y91329D01*
Y91343D01*
Y91351D01*
Y91484D01*
X149930Y91595D01*
X149916Y91699D01*
X149901Y91780D01*
X149886Y91847D01*
X149871Y91899D01*
X149864Y91928D01*
X149856Y91935D01*
X149819Y92017D01*
X149775Y92084D01*
X149723Y92143D01*
X149679Y92194D01*
X149634Y92239D01*
X149597Y92269D01*
X149568Y92283D01*
X149560Y92291D01*
X149479Y92335D01*
X149390Y92365D01*
X149294Y92394D01*
X149198Y92417D01*
X149116Y92431D01*
X149050Y92446D01*
X148998Y92453D01*
X148983D01*
X148909Y92461D01*
X148820Y92468D01*
X148628Y92483D01*
X148421Y92491D01*
X148214Y92498D01*
X148117D01*
X148029Y92505D01*
D02*
G37*
G36*
X152069Y89442D02*
X150752D01*
Y88346D01*
X152069D01*
Y89442D01*
D02*
G37*
G36*
X163887Y92453D02*
X162518D01*
X161038Y89382D01*
X160801D01*
X159299Y92453D01*
X157937D01*
X159957Y88346D01*
X161881D01*
X163887Y92453D01*
D02*
G37*
G36*
X173233Y92520D02*
X172589D01*
X172330Y92513D01*
X172093D01*
X171879Y92505D01*
X171679Y92491D01*
X171509Y92483D01*
X171353Y92476D01*
X171220Y92461D01*
X171109Y92453D01*
X171013Y92439D01*
X170932Y92431D01*
X170865Y92424D01*
X170821Y92417D01*
X170791Y92409D01*
X170769Y92402D01*
X170761D01*
X170665Y92379D01*
X170584Y92343D01*
X170502Y92313D01*
X170436Y92276D01*
X170317Y92187D01*
X170221Y92106D01*
X170147Y92024D01*
X170103Y91958D01*
X170073Y91906D01*
X170066Y91899D01*
Y91891D01*
X170044Y91825D01*
X170021Y91743D01*
X169999Y91662D01*
X169984Y91580D01*
X169977Y91514D01*
X169970Y91454D01*
X169962Y91417D01*
Y91410D01*
Y91403D01*
Y91336D01*
X169955Y91269D01*
X169947Y91107D01*
Y90936D01*
X169940Y90766D01*
Y90618D01*
Y90552D01*
Y90492D01*
Y90441D01*
Y90404D01*
Y90381D01*
Y90374D01*
Y90241D01*
Y90122D01*
Y90012D01*
X169947Y89908D01*
Y89812D01*
Y89730D01*
Y89656D01*
X169955Y89590D01*
Y89538D01*
Y89486D01*
Y89449D01*
X169962Y89420D01*
Y89390D01*
Y89375D01*
Y89360D01*
X169977Y89235D01*
X169999Y89131D01*
X170029Y89035D01*
X170051Y88953D01*
X170073Y88894D01*
X170095Y88850D01*
X170103Y88820D01*
X170110Y88813D01*
X170155Y88739D01*
X170206Y88679D01*
X170266Y88628D01*
X170317Y88576D01*
X170369Y88546D01*
X170406Y88517D01*
X170436Y88502D01*
X170443Y88494D01*
X170547Y88450D01*
X170665Y88413D01*
X170791Y88384D01*
X170909Y88361D01*
X171020Y88346D01*
X171109Y88332D01*
X171146D01*
X171168Y88324D01*
X171191D01*
X171294Y88317D01*
X171405Y88310D01*
X171531Y88302D01*
X171664D01*
X171945Y88287D01*
X172352D01*
X172471Y88280D01*
X173070D01*
X173255Y88287D01*
X173425D01*
X173581Y88295D01*
X173721Y88302D01*
X173855Y88310D01*
X173966Y88324D01*
X174069Y88332D01*
X174158Y88339D01*
X174232Y88354D01*
X174291Y88361D01*
X174343Y88369D01*
X174380Y88376D01*
X174410D01*
X174424Y88384D01*
X174432D01*
X174587Y88435D01*
X174720Y88494D01*
X174831Y88561D01*
X174913Y88635D01*
X174972Y88694D01*
X175016Y88746D01*
X175039Y88783D01*
X175046Y88798D01*
X175098Y88909D01*
X175135Y89027D01*
X175157Y89146D01*
X175179Y89271D01*
X175187Y89375D01*
X175194Y89456D01*
Y89494D01*
Y89516D01*
Y89530D01*
Y89538D01*
Y89582D01*
Y89634D01*
X175187Y89701D01*
Y89767D01*
Y89827D01*
X175179Y89878D01*
Y89915D01*
Y89930D01*
X173929D01*
X173921Y89797D01*
X173906Y89693D01*
X173892Y89605D01*
X173869Y89545D01*
X173847Y89494D01*
X173825Y89464D01*
X173818Y89449D01*
X173810Y89442D01*
X173773Y89412D01*
X173721Y89390D01*
X173618Y89360D01*
X173566Y89353D01*
X173522Y89346D01*
X173492Y89338D01*
X173433D01*
X173374Y89331D01*
X173307D01*
X173233Y89323D01*
X173078D01*
X172915Y89316D01*
X172234D01*
X172153Y89323D01*
X172012D01*
X171901Y89331D01*
X171812D01*
X171753Y89338D01*
X171709D01*
X171627Y89353D01*
X171561Y89368D01*
X171501Y89390D01*
X171457Y89405D01*
X171420Y89420D01*
X171398Y89434D01*
X171383Y89449D01*
X171376D01*
X171339Y89486D01*
X171309Y89523D01*
X171257Y89619D01*
X171242Y89656D01*
X171235Y89693D01*
X171228Y89715D01*
Y89723D01*
X171213Y89804D01*
X171205Y89908D01*
X171198Y90019D01*
Y90122D01*
X171191Y90226D01*
Y90307D01*
Y90337D01*
Y90359D01*
Y90374D01*
Y90381D01*
Y90544D01*
X171198Y90685D01*
X171205Y90803D01*
X171213Y90892D01*
Y90966D01*
X171220Y91018D01*
X171228Y91048D01*
Y91055D01*
X171250Y91129D01*
X171272Y91195D01*
X171294Y91247D01*
X171324Y91284D01*
X171346Y91321D01*
X171368Y91343D01*
X171376Y91351D01*
X171383Y91358D01*
X171427Y91388D01*
X171472Y91410D01*
X171575Y91440D01*
X171627Y91454D01*
X171664D01*
X171694Y91462D01*
X171701D01*
X171746Y91469D01*
X171805D01*
X171923Y91477D01*
X172056Y91484D01*
X172197Y91492D01*
X172722D01*
X172900Y91484D01*
X173055D01*
X173181Y91477D01*
X173270Y91469D01*
X173344D01*
X173381Y91462D01*
X173396D01*
X173499Y91447D01*
X173581Y91432D01*
X173640Y91417D01*
X173692Y91403D01*
X173729Y91388D01*
X173751Y91381D01*
X173766Y91366D01*
X173795Y91329D01*
X173818Y91292D01*
X173832Y91262D01*
Y91247D01*
X173840Y91218D01*
X173847Y91181D01*
X173855Y91092D01*
Y91048D01*
X173862Y91010D01*
Y90988D01*
Y90981D01*
X175113D01*
Y91040D01*
X175120Y91084D01*
Y91122D01*
Y91151D01*
Y91166D01*
Y91173D01*
Y91181D01*
X175113Y91358D01*
X175105Y91514D01*
X175083Y91647D01*
X175061Y91758D01*
X175039Y91839D01*
X175024Y91899D01*
X175009Y91935D01*
X175002Y91950D01*
X174950Y92039D01*
X174891Y92120D01*
X174831Y92187D01*
X174765Y92246D01*
X174706Y92283D01*
X174654Y92320D01*
X174624Y92335D01*
X174609Y92343D01*
X174521Y92379D01*
X174432Y92409D01*
X174336Y92431D01*
X174239Y92453D01*
X174158Y92468D01*
X174091Y92476D01*
X174047Y92483D01*
X174032D01*
X173958Y92491D01*
X173877Y92498D01*
X173699Y92505D01*
X173507Y92513D01*
X173322D01*
X173233Y92520D01*
D02*
G37*
%LPD*%
G36*
X167424Y91417D02*
X167498D01*
X167557Y91410D01*
X167661D01*
X167742Y91403D01*
X167794Y91395D01*
X167824Y91388D01*
X167831D01*
X167905Y91373D01*
X167964Y91351D01*
X168016Y91329D01*
X168060Y91307D01*
X168090Y91284D01*
X168112Y91262D01*
X168127Y91255D01*
X168134Y91247D01*
X168164Y91203D01*
X168194Y91158D01*
X168231Y91062D01*
X168245Y91018D01*
X168253Y90981D01*
X168260Y90959D01*
Y90951D01*
X168275Y90870D01*
X168282Y90781D01*
X168290Y90685D01*
Y90596D01*
X168297Y90515D01*
Y90441D01*
Y90396D01*
Y90389D01*
Y90381D01*
Y90248D01*
X168290Y90130D01*
X168282Y90034D01*
X168275Y89952D01*
X168268Y89886D01*
X168260Y89841D01*
X168253Y89812D01*
Y89804D01*
X168231Y89738D01*
X168208Y89686D01*
X168186Y89641D01*
X168164Y89605D01*
X168142Y89575D01*
X168120Y89553D01*
X168112Y89545D01*
X168105Y89538D01*
X168068Y89508D01*
X168016Y89486D01*
X167912Y89449D01*
X167861Y89442D01*
X167824Y89434D01*
X167794Y89427D01*
X167787D01*
X167690Y89420D01*
X167579Y89412D01*
X167461Y89405D01*
X167343D01*
X167239Y89397D01*
X165337D01*
Y91425D01*
X167350D01*
X167424Y91417D01*
D02*
G37*
%LPC*%
G36*
X179537Y40586D02*
X174986D01*
Y36479D01*
X179559D01*
Y37463D01*
X176221D01*
Y38129D01*
X179366D01*
Y39032D01*
X176221D01*
Y39617D01*
X179537D01*
Y40586D01*
D02*
G37*
G36*
X185434D02*
X183806D01*
X182526Y38936D01*
X181187Y40586D01*
X179544D01*
X181897Y37929D01*
Y36479D01*
X183192D01*
Y37929D01*
X185434Y40586D01*
D02*
G37*
G36*
X174616Y40615D02*
X172699D01*
X171071Y39099D01*
X170390D01*
Y40586D01*
X169140D01*
Y36479D01*
X170390D01*
Y38048D01*
X171071D01*
X172914Y36479D01*
X174815D01*
X172240Y38566D01*
X174616Y40615D01*
D02*
G37*
G36*
X194684Y40586D02*
X192738D01*
X190570Y36479D01*
X191991D01*
X192339Y37174D01*
X195062D01*
X195410Y36479D01*
X196830D01*
X194684Y40586D01*
D02*
G37*
G36*
X188690D02*
X185605D01*
Y36479D01*
X186855D01*
Y37485D01*
X188787D01*
X188890Y37493D01*
X189060D01*
X189134Y37500D01*
X189253D01*
X189297Y37508D01*
X189371D01*
X189393Y37515D01*
X189423D01*
X189556Y37530D01*
X189675Y37552D01*
X189778Y37582D01*
X189860Y37604D01*
X189926Y37626D01*
X189978Y37648D01*
X190008Y37655D01*
X190015Y37663D01*
X190089Y37707D01*
X190156Y37759D01*
X190215Y37811D01*
X190267Y37863D01*
X190304Y37907D01*
X190333Y37944D01*
X190348Y37974D01*
X190355Y37981D01*
X190385Y38040D01*
X190415Y38114D01*
X190459Y38277D01*
X190489Y38455D01*
X190511Y38625D01*
X190526Y38788D01*
Y38862D01*
X190533Y38921D01*
Y38973D01*
Y39017D01*
Y39039D01*
Y39047D01*
Y39195D01*
X190526Y39320D01*
X190511Y39446D01*
X190496Y39557D01*
X190481Y39661D01*
X190466Y39750D01*
X190444Y39831D01*
X190422Y39905D01*
X190400Y39964D01*
X190385Y40016D01*
X190363Y40060D01*
X190348Y40097D01*
X190333Y40120D01*
X190318Y40142D01*
X190311Y40157D01*
X190267Y40216D01*
X190215Y40260D01*
X190089Y40349D01*
X189956Y40416D01*
X189823Y40468D01*
X189697Y40505D01*
X189638Y40519D01*
X189586Y40534D01*
X189549Y40541D01*
X189519D01*
X189497Y40549D01*
X189490D01*
X189438Y40556D01*
X189379Y40564D01*
X189305D01*
X189223Y40571D01*
X189046Y40578D01*
X188868D01*
X188690Y40586D01*
D02*
G37*
G36*
X200582D02*
X197023D01*
Y36479D01*
X200523D01*
X200604Y36486D01*
X200849D01*
X200893Y36494D01*
X200982D01*
X201093Y36501D01*
X201204Y36516D01*
X201300Y36531D01*
X201389Y36546D01*
X201455Y36553D01*
X201515Y36568D01*
X201544Y36575D01*
X201559D01*
X201663Y36605D01*
X201759Y36642D01*
X201840Y36686D01*
X201914Y36731D01*
X201988Y36782D01*
X202047Y36841D01*
X202151Y36952D01*
X202225Y37064D01*
X202277Y37152D01*
X202292Y37189D01*
X202306Y37219D01*
X202314Y37234D01*
Y37241D01*
X202366Y37419D01*
X202388Y37500D01*
X202403Y37582D01*
X202410Y37648D01*
X202417Y37707D01*
X202425Y37737D01*
Y37752D01*
X202432Y37870D01*
X202440Y38003D01*
X202447Y38144D01*
X202454Y38277D01*
Y38403D01*
Y38455D01*
Y38499D01*
Y38536D01*
Y38566D01*
Y38581D01*
Y38588D01*
Y38765D01*
X202447Y38921D01*
Y39047D01*
X202440Y39150D01*
X202432Y39232D01*
Y39291D01*
X202425Y39320D01*
Y39335D01*
X202403Y39513D01*
X202388Y39594D01*
X202373Y39668D01*
X202358Y39728D01*
X202343Y39772D01*
X202336Y39801D01*
Y39809D01*
X202299Y39913D01*
X202247Y40001D01*
X202188Y40083D01*
X202129Y40157D01*
X202062Y40223D01*
X201996Y40282D01*
X201929Y40327D01*
X201862Y40371D01*
X201737Y40438D01*
X201677Y40460D01*
X201626Y40475D01*
X201589Y40490D01*
X201559Y40497D01*
X201537Y40505D01*
X201529D01*
X201337Y40534D01*
X201248Y40549D01*
X201174Y40556D01*
X201108Y40564D01*
X201063Y40571D01*
X200967D01*
X200908Y40578D01*
X200752D01*
X200582Y40586D01*
D02*
G37*
%LPD*%
G36*
X194618Y38077D02*
X192790D01*
X193582Y39631D01*
X193826D01*
X194618Y38077D01*
D02*
G37*
G36*
X188609Y39550D02*
X188690D01*
X188757Y39542D01*
X188824D01*
X188875Y39535D01*
X188920D01*
X188957Y39528D01*
X189009Y39520D01*
X189046D01*
X189060Y39513D01*
X189068D01*
X189142Y39469D01*
X189186Y39424D01*
X189216Y39380D01*
X189223Y39372D01*
Y39365D01*
X189238Y39320D01*
X189253Y39269D01*
X189268Y39165D01*
X189275Y39121D01*
Y39084D01*
Y39054D01*
Y39047D01*
Y38973D01*
X189268Y38906D01*
X189260Y38847D01*
Y38802D01*
X189253Y38765D01*
X189245Y38743D01*
X189238Y38728D01*
Y38721D01*
X189201Y38655D01*
X189157Y38610D01*
X189120Y38581D01*
X189112Y38573D01*
X189105D01*
X189046Y38543D01*
X188994Y38529D01*
X188949Y38521D01*
X188883D01*
X188816Y38514D01*
X186855D01*
Y39557D01*
X188520D01*
X188609Y39550D01*
D02*
G37*
G36*
X200345D02*
X200419D01*
X200479Y39542D01*
X200582D01*
X200664Y39535D01*
X200715Y39528D01*
X200745Y39520D01*
X200752D01*
X200826Y39505D01*
X200886Y39483D01*
X200937Y39461D01*
X200982Y39439D01*
X201011Y39417D01*
X201034Y39395D01*
X201048Y39387D01*
X201056Y39380D01*
X201085Y39335D01*
X201115Y39291D01*
X201152Y39195D01*
X201167Y39150D01*
X201174Y39113D01*
X201182Y39091D01*
Y39084D01*
X201196Y39002D01*
X201204Y38914D01*
X201211Y38817D01*
Y38728D01*
X201219Y38647D01*
Y38573D01*
Y38529D01*
Y38521D01*
Y38514D01*
Y38381D01*
X201211Y38262D01*
X201204Y38166D01*
X201196Y38085D01*
X201189Y38018D01*
X201182Y37974D01*
X201174Y37944D01*
Y37937D01*
X201152Y37870D01*
X201130Y37818D01*
X201108Y37774D01*
X201085Y37737D01*
X201063Y37707D01*
X201041Y37685D01*
X201034Y37678D01*
X201026Y37670D01*
X200989Y37641D01*
X200937Y37618D01*
X200834Y37582D01*
X200782Y37574D01*
X200745Y37567D01*
X200715Y37559D01*
X200708D01*
X200612Y37552D01*
X200501Y37545D01*
X200382Y37537D01*
X200264D01*
X200160Y37530D01*
X198259D01*
Y39557D01*
X200271D01*
X200345Y39550D01*
D02*
G37*
%LPC*%
G36*
X268496Y40601D02*
X267171D01*
X266061Y37530D01*
X265832D01*
X264892Y40601D01*
X263383D01*
X262450Y37530D01*
X262221D01*
X261118Y40601D01*
X259853D01*
X261392Y36494D01*
X263331D01*
X264145Y39505D01*
X264966Y36494D01*
X266898D01*
X268496Y40601D01*
D02*
G37*
G36*
X273262D02*
X268711D01*
Y36494D01*
X273284D01*
Y37478D01*
X269946D01*
Y38144D01*
X273091D01*
Y39047D01*
X269946D01*
Y39631D01*
X273262D01*
Y40601D01*
D02*
G37*
G36*
X251890D02*
X248805D01*
Y36494D01*
X250055D01*
Y37500D01*
X251987D01*
X252090Y37508D01*
X252260D01*
X252334Y37515D01*
X252453D01*
X252497Y37522D01*
X252571D01*
X252593Y37530D01*
X252623D01*
X252756Y37545D01*
X252875Y37567D01*
X252978Y37596D01*
X253060Y37618D01*
X253126Y37641D01*
X253178Y37663D01*
X253208Y37670D01*
X253215Y37678D01*
X253289Y37722D01*
X253356Y37774D01*
X253415Y37826D01*
X253467Y37878D01*
X253504Y37922D01*
X253533Y37959D01*
X253548Y37988D01*
X253555Y37996D01*
X253585Y38055D01*
X253615Y38129D01*
X253659Y38292D01*
X253689Y38469D01*
X253711Y38640D01*
X253726Y38802D01*
Y38877D01*
X253733Y38936D01*
Y38987D01*
Y39032D01*
Y39054D01*
Y39061D01*
Y39209D01*
X253726Y39335D01*
X253711Y39461D01*
X253696Y39572D01*
X253681Y39676D01*
X253666Y39764D01*
X253644Y39846D01*
X253622Y39920D01*
X253600Y39979D01*
X253585Y40031D01*
X253563Y40075D01*
X253548Y40112D01*
X253533Y40135D01*
X253518Y40157D01*
X253511Y40172D01*
X253467Y40231D01*
X253415Y40275D01*
X253289Y40364D01*
X253156Y40431D01*
X253023Y40482D01*
X252897Y40519D01*
X252838Y40534D01*
X252786Y40549D01*
X252749Y40556D01*
X252719D01*
X252697Y40564D01*
X252690D01*
X252638Y40571D01*
X252579Y40578D01*
X252505D01*
X252423Y40586D01*
X252246Y40593D01*
X252068D01*
X251890Y40601D01*
D02*
G37*
G36*
X277043D02*
X273676D01*
Y36494D01*
X274927D01*
Y37537D01*
X276932D01*
X277013Y37530D01*
X277087D01*
X277132Y37522D01*
X277169D01*
X277184Y37515D01*
X277191D01*
X277272Y37493D01*
X277332Y37456D01*
X277369Y37433D01*
X277383Y37419D01*
X277428Y37352D01*
X277457Y37278D01*
X277472Y37249D01*
Y37219D01*
X277480Y37204D01*
Y37197D01*
X277487Y37130D01*
X277494Y37056D01*
X277509Y36901D01*
Y36827D01*
Y36768D01*
Y36723D01*
Y36716D01*
Y36708D01*
Y36494D01*
X278745D01*
Y36871D01*
Y36967D01*
Y37056D01*
Y37130D01*
X278738Y37204D01*
Y37271D01*
Y37323D01*
X278730Y37419D01*
X278723Y37485D01*
Y37530D01*
X278715Y37559D01*
Y37567D01*
X278686Y37685D01*
X278664Y37729D01*
X278641Y37774D01*
X278619Y37811D01*
X278604Y37833D01*
X278597Y37848D01*
X278590Y37855D01*
X278516Y37922D01*
X278427Y37974D01*
X278338Y38018D01*
X278242Y38048D01*
X278153Y38063D01*
X278086Y38077D01*
X278057D01*
X278035Y38085D01*
X278020D01*
X278138Y38107D01*
X278242Y38137D01*
X278323Y38166D01*
X278397Y38196D01*
X278449Y38225D01*
X278493Y38247D01*
X278516Y38262D01*
X278523Y38270D01*
X278575Y38322D01*
X278619Y38373D01*
X278656Y38432D01*
X278686Y38484D01*
X278701Y38529D01*
X278715Y38566D01*
X278730Y38595D01*
Y38603D01*
X278752Y38691D01*
X278767Y38795D01*
X278775Y38906D01*
X278782Y39010D01*
X278789Y39113D01*
Y39187D01*
Y39217D01*
Y39239D01*
Y39254D01*
Y39261D01*
Y39446D01*
X278775Y39609D01*
X278760Y39742D01*
X278745Y39853D01*
X278730Y39935D01*
X278715Y39994D01*
X278708Y40023D01*
X278701Y40038D01*
X278664Y40127D01*
X278612Y40209D01*
X278560Y40275D01*
X278508Y40334D01*
X278456Y40379D01*
X278412Y40408D01*
X278382Y40431D01*
X278375Y40438D01*
X278301Y40475D01*
X278227Y40512D01*
X278160Y40534D01*
X278101Y40549D01*
X278049Y40564D01*
X278005D01*
X277975Y40571D01*
X277968D01*
X277916Y40578D01*
X277857D01*
X277776Y40586D01*
X277583D01*
X277472Y40593D01*
X277147D01*
X277043Y40601D01*
D02*
G37*
G36*
X257344Y40660D02*
X256434D01*
X256227Y40652D01*
X256049D01*
X255879Y40645D01*
X255731Y40638D01*
X255598Y40630D01*
X255479D01*
X255376Y40623D01*
X255294Y40615D01*
X255220Y40608D01*
X255161Y40601D01*
X255117D01*
X255087Y40593D01*
X255065D01*
X254939Y40571D01*
X254821Y40534D01*
X254717Y40497D01*
X254628Y40445D01*
X254540Y40393D01*
X254473Y40334D01*
X254406Y40275D01*
X254355Y40216D01*
X254310Y40157D01*
X254273Y40097D01*
X254244Y40046D01*
X254221Y40001D01*
X254207Y39957D01*
X254192Y39927D01*
X254184Y39913D01*
Y39905D01*
X254162Y39824D01*
X254147Y39735D01*
X254133Y39631D01*
X254118Y39528D01*
X254103Y39306D01*
X254088Y39084D01*
X254081Y38980D01*
Y38884D01*
X254073Y38795D01*
Y38721D01*
Y38655D01*
Y38610D01*
Y38573D01*
Y38566D01*
Y38388D01*
X254081Y38225D01*
Y38070D01*
X254088Y37937D01*
X254103Y37811D01*
X254110Y37692D01*
X254118Y37596D01*
X254133Y37508D01*
X254140Y37426D01*
X254147Y37359D01*
X254162Y37308D01*
X254170Y37263D01*
X254177Y37226D01*
Y37204D01*
X254184Y37189D01*
Y37182D01*
X254221Y37078D01*
X254266Y36982D01*
X254325Y36901D01*
X254392Y36827D01*
X254458Y36760D01*
X254532Y36701D01*
X254614Y36656D01*
X254688Y36619D01*
X254828Y36553D01*
X254895Y36531D01*
X254954Y36516D01*
X254998Y36509D01*
X255035Y36501D01*
X255058Y36494D01*
X255065D01*
X255169Y36486D01*
X255287Y36472D01*
X255420Y36464D01*
X255561Y36457D01*
X255864Y36449D01*
X256175Y36442D01*
X256316D01*
X256456Y36435D01*
X257366D01*
X257566Y36442D01*
X257744D01*
X257914Y36449D01*
X258062Y36457D01*
X258195D01*
X258306Y36464D01*
X258410Y36472D01*
X258491Y36479D01*
X258565D01*
X258624Y36486D01*
X258669D01*
X258698Y36494D01*
X258721D01*
X258846Y36516D01*
X258965Y36553D01*
X259068Y36590D01*
X259165Y36642D01*
X259246Y36694D01*
X259313Y36753D01*
X259379Y36812D01*
X259431Y36871D01*
X259475Y36930D01*
X259512Y36990D01*
X259542Y37041D01*
X259564Y37086D01*
X259579Y37130D01*
X259594Y37160D01*
X259601Y37174D01*
Y37182D01*
X259623Y37263D01*
X259638Y37352D01*
X259653Y37456D01*
X259668Y37567D01*
X259690Y37789D01*
X259705Y38011D01*
X259712Y38122D01*
Y38218D01*
X259720Y38307D01*
Y38388D01*
Y38455D01*
Y38499D01*
Y38536D01*
Y38543D01*
Y38721D01*
X259712Y38877D01*
Y39024D01*
X259705Y39165D01*
X259690Y39283D01*
X259683Y39395D01*
X259675Y39498D01*
X259660Y39587D01*
X259653Y39661D01*
X259638Y39728D01*
X259631Y39787D01*
X259623Y39831D01*
X259616Y39861D01*
X259609Y39883D01*
X259601Y39898D01*
Y39905D01*
X259564Y40009D01*
X259520Y40105D01*
X259461Y40186D01*
X259394Y40260D01*
X259327Y40327D01*
X259253Y40386D01*
X259172Y40431D01*
X259098Y40475D01*
X258957Y40534D01*
X258891Y40556D01*
X258839Y40571D01*
X258787Y40578D01*
X258750Y40586D01*
X258728Y40593D01*
X258721D01*
X258617Y40608D01*
X258499Y40615D01*
X258365Y40623D01*
X258225Y40630D01*
X257921Y40645D01*
X257618Y40652D01*
X257477D01*
X257344Y40660D01*
D02*
G37*
%LPD*%
G36*
X251809Y39565D02*
X251890D01*
X251957Y39557D01*
X252024D01*
X252075Y39550D01*
X252120D01*
X252157Y39542D01*
X252209Y39535D01*
X252246D01*
X252260Y39528D01*
X252268D01*
X252342Y39483D01*
X252386Y39439D01*
X252416Y39395D01*
X252423Y39387D01*
Y39380D01*
X252438Y39335D01*
X252453Y39283D01*
X252468Y39180D01*
X252475Y39136D01*
Y39099D01*
Y39069D01*
Y39061D01*
Y38987D01*
X252468Y38921D01*
X252460Y38862D01*
Y38817D01*
X252453Y38780D01*
X252445Y38758D01*
X252438Y38743D01*
Y38736D01*
X252401Y38669D01*
X252357Y38625D01*
X252320Y38595D01*
X252312Y38588D01*
X252305D01*
X252246Y38558D01*
X252194Y38543D01*
X252149Y38536D01*
X252083D01*
X252016Y38529D01*
X250055D01*
Y39572D01*
X251720D01*
X251809Y39565D01*
D02*
G37*
G36*
X276939D02*
X277102D01*
X277147Y39557D01*
X277198D01*
X277265Y39550D01*
X277317Y39535D01*
X277346Y39528D01*
X277361Y39520D01*
X277420Y39483D01*
X277457Y39432D01*
X277480Y39395D01*
X277487Y39387D01*
Y39380D01*
X277502Y39343D01*
X277517Y39291D01*
X277524Y39195D01*
X277531Y39150D01*
Y39113D01*
Y39091D01*
Y39084D01*
Y39010D01*
X277524Y38950D01*
X277517Y38891D01*
Y38854D01*
X277509Y38817D01*
X277502Y38795D01*
X277494Y38780D01*
Y38773D01*
X277465Y38706D01*
X277428Y38662D01*
X277398Y38632D01*
X277391Y38625D01*
X277383D01*
X277332Y38603D01*
X277280Y38588D01*
X277243Y38581D01*
X277176D01*
X277102Y38573D01*
X276925D01*
X276828Y38566D01*
X274927D01*
Y39572D01*
X276828D01*
X276939Y39565D01*
D02*
G37*
G36*
X257433Y39587D02*
X257537D01*
X257625Y39579D01*
X257773D01*
X257833Y39572D01*
X257877D01*
X257914Y39565D01*
X257944D01*
X257966Y39557D01*
X257995D01*
X258077Y39542D01*
X258143Y39520D01*
X258203Y39491D01*
X258247Y39469D01*
X258284Y39439D01*
X258306Y39417D01*
X258321Y39402D01*
X258328Y39395D01*
X258358Y39350D01*
X258373Y39306D01*
X258410Y39202D01*
X258417Y39158D01*
X258425Y39121D01*
X258432Y39091D01*
Y39084D01*
X258447Y38995D01*
X258454Y38891D01*
X258462Y38788D01*
Y38684D01*
X258469Y38581D01*
Y38506D01*
Y38477D01*
Y38455D01*
Y38440D01*
Y38432D01*
Y38299D01*
X258462Y38188D01*
X258454Y38100D01*
X258447Y38018D01*
X258439Y37966D01*
X258432Y37922D01*
X258425Y37900D01*
Y37892D01*
X258388Y37781D01*
X258365Y37744D01*
X258336Y37707D01*
X258314Y37678D01*
X258291Y37655D01*
X258284Y37648D01*
X258277Y37641D01*
X258225Y37611D01*
X258166Y37582D01*
X258047Y37552D01*
X257995Y37537D01*
X257951Y37530D01*
X257921Y37522D01*
X257855D01*
X257788Y37515D01*
X257722D01*
X257640Y37508D01*
X257477D01*
X257307Y37500D01*
X256501D01*
X256390Y37508D01*
X256205D01*
X256123Y37515D01*
X255997D01*
X255946Y37522D01*
X255872D01*
X255842Y37530D01*
X255812D01*
X255687Y37559D01*
X255583Y37611D01*
X255502Y37670D01*
X255442Y37729D01*
X255405Y37789D01*
X255376Y37841D01*
X255368Y37878D01*
X255361Y37892D01*
X255346Y37966D01*
X255339Y38048D01*
X255331Y38144D01*
Y38233D01*
X255324Y38314D01*
Y38381D01*
Y38425D01*
Y38432D01*
Y38440D01*
Y38551D01*
Y38655D01*
X255331Y38751D01*
Y38832D01*
X255339Y38906D01*
X255346Y38973D01*
X255354Y39032D01*
X255361Y39091D01*
X255368Y39173D01*
X255383Y39224D01*
X255391Y39261D01*
Y39269D01*
X255428Y39343D01*
X255472Y39402D01*
X255516Y39446D01*
X255568Y39483D01*
X255620Y39513D01*
X255657Y39528D01*
X255687Y39542D01*
X255694D01*
X255738Y39550D01*
X255805Y39557D01*
X255879Y39565D01*
X255968Y39572D01*
X256064Y39579D01*
X256168D01*
X256375Y39587D01*
X256471D01*
X256567Y39594D01*
X257322D01*
X257433Y39587D01*
D02*
G37*
%LPC*%
G36*
X234918Y273301D02*
X233638D01*
X233668Y270237D01*
X233542D01*
X231388Y273301D01*
X229198D01*
Y269194D01*
X230471D01*
X230441Y272257D01*
X230574D01*
X232735Y269194D01*
X234918D01*
Y273301D01*
D02*
G37*
G36*
X226860D02*
X224913D01*
X222745Y269194D01*
X224166D01*
X224514Y269889D01*
X227237D01*
X227585Y269194D01*
X229006D01*
X226860Y273301D01*
D02*
G37*
G36*
X238352D02*
X237035D01*
Y269194D01*
X238352D01*
Y273301D01*
D02*
G37*
G36*
X242488D02*
X238929D01*
Y269194D01*
X242429D01*
X242511Y269201D01*
X242755D01*
X242799Y269209D01*
X242888D01*
X242999Y269216D01*
X243110Y269231D01*
X243206Y269246D01*
X243295Y269260D01*
X243362Y269268D01*
X243421Y269283D01*
X243450Y269290D01*
X243465D01*
X243569Y269320D01*
X243665Y269356D01*
X243746Y269401D01*
X243820Y269445D01*
X243894Y269497D01*
X243954Y269556D01*
X244057Y269667D01*
X244131Y269778D01*
X244183Y269867D01*
X244198Y269904D01*
X244213Y269934D01*
X244220Y269949D01*
Y269956D01*
X244272Y270133D01*
X244294Y270215D01*
X244309Y270296D01*
X244316Y270363D01*
X244324Y270422D01*
X244331Y270452D01*
Y270466D01*
X244338Y270585D01*
X244346Y270718D01*
X244353Y270859D01*
X244361Y270992D01*
Y271118D01*
Y271169D01*
Y271214D01*
Y271251D01*
Y271281D01*
Y271295D01*
Y271303D01*
Y271480D01*
X244353Y271636D01*
Y271761D01*
X244346Y271865D01*
X244338Y271947D01*
Y272006D01*
X244331Y272035D01*
Y272050D01*
X244309Y272228D01*
X244294Y272309D01*
X244279Y272383D01*
X244264Y272442D01*
X244250Y272487D01*
X244242Y272516D01*
Y272524D01*
X244205Y272627D01*
X244153Y272716D01*
X244094Y272797D01*
X244035Y272871D01*
X243968Y272938D01*
X243902Y272997D01*
X243835Y273042D01*
X243769Y273086D01*
X243643Y273153D01*
X243584Y273175D01*
X243532Y273190D01*
X243495Y273204D01*
X243465Y273212D01*
X243443Y273219D01*
X243436D01*
X243243Y273249D01*
X243154Y273264D01*
X243080Y273271D01*
X243014Y273278D01*
X242969Y273286D01*
X242873D01*
X242814Y273293D01*
X242659D01*
X242488Y273301D01*
D02*
G37*
G36*
X220732Y273367D02*
X220089D01*
X219830Y273360D01*
X219593D01*
X219378Y273353D01*
X219178Y273338D01*
X219008Y273330D01*
X218853Y273323D01*
X218720Y273308D01*
X218609Y273301D01*
X218512Y273286D01*
X218431Y273278D01*
X218364Y273271D01*
X218320Y273264D01*
X218290Y273256D01*
X218268Y273249D01*
X218261D01*
X218165Y273227D01*
X218083Y273190D01*
X218002Y273160D01*
X217935Y273123D01*
X217817Y273034D01*
X217721Y272953D01*
X217647Y272871D01*
X217602Y272805D01*
X217573Y272753D01*
X217565Y272746D01*
Y272738D01*
X217543Y272672D01*
X217521Y272590D01*
X217499Y272509D01*
X217484Y272428D01*
X217476Y272361D01*
X217469Y272302D01*
X217462Y272265D01*
Y272257D01*
Y272250D01*
Y272183D01*
X217454Y272117D01*
X217447Y271954D01*
Y271784D01*
X217439Y271614D01*
Y271465D01*
Y271399D01*
Y271340D01*
Y271288D01*
Y271251D01*
Y271229D01*
Y271221D01*
Y271088D01*
Y270970D01*
Y270859D01*
X217447Y270755D01*
Y270659D01*
Y270578D01*
Y270503D01*
X217454Y270437D01*
Y270385D01*
Y270333D01*
Y270296D01*
X217462Y270267D01*
Y270237D01*
Y270222D01*
Y270208D01*
X217476Y270082D01*
X217499Y269978D01*
X217528Y269882D01*
X217550Y269800D01*
X217573Y269741D01*
X217595Y269697D01*
X217602Y269667D01*
X217610Y269660D01*
X217654Y269586D01*
X217706Y269527D01*
X217765Y269475D01*
X217817Y269423D01*
X217869Y269393D01*
X217906Y269364D01*
X217935Y269349D01*
X217943Y269342D01*
X218046Y269297D01*
X218165Y269260D01*
X218290Y269231D01*
X218409Y269209D01*
X218520Y269194D01*
X218609Y269179D01*
X218646D01*
X218668Y269172D01*
X218690D01*
X218794Y269164D01*
X218905Y269157D01*
X219030Y269149D01*
X219164D01*
X219445Y269134D01*
X219852D01*
X219970Y269127D01*
X220570D01*
X220755Y269134D01*
X220925D01*
X221080Y269142D01*
X221221Y269149D01*
X221354Y269157D01*
X221465Y269172D01*
X221569Y269179D01*
X221657Y269186D01*
X221731Y269201D01*
X221791Y269209D01*
X221842Y269216D01*
X221879Y269223D01*
X221909D01*
X221924Y269231D01*
X221931D01*
X222087Y269283D01*
X222220Y269342D01*
X222331Y269408D01*
X222412Y269482D01*
X222471Y269542D01*
X222516Y269593D01*
X222538Y269630D01*
X222545Y269645D01*
X222597Y269756D01*
X222634Y269875D01*
X222656Y269993D01*
X222679Y270119D01*
X222686Y270222D01*
X222693Y270304D01*
Y270341D01*
Y270363D01*
Y270378D01*
Y270385D01*
Y270429D01*
Y270481D01*
X222686Y270548D01*
Y270615D01*
Y270674D01*
X222679Y270725D01*
Y270762D01*
Y270777D01*
X221428D01*
X221421Y270644D01*
X221406Y270540D01*
X221391Y270452D01*
X221369Y270392D01*
X221347Y270341D01*
X221324Y270311D01*
X221317Y270296D01*
X221310Y270289D01*
X221273Y270259D01*
X221221Y270237D01*
X221117Y270208D01*
X221065Y270200D01*
X221021Y270193D01*
X220991Y270185D01*
X220932D01*
X220873Y270178D01*
X220806D01*
X220732Y270170D01*
X220577D01*
X220414Y270163D01*
X219733D01*
X219652Y270170D01*
X219511D01*
X219400Y270178D01*
X219312D01*
X219252Y270185D01*
X219208D01*
X219127Y270200D01*
X219060Y270215D01*
X219001Y270237D01*
X218956Y270252D01*
X218919Y270267D01*
X218897Y270282D01*
X218882Y270296D01*
X218875D01*
X218838Y270333D01*
X218808Y270370D01*
X218757Y270466D01*
X218742Y270503D01*
X218734Y270540D01*
X218727Y270563D01*
Y270570D01*
X218712Y270652D01*
X218705Y270755D01*
X218697Y270866D01*
Y270970D01*
X218690Y271073D01*
Y271155D01*
Y271184D01*
Y271206D01*
Y271221D01*
Y271229D01*
Y271392D01*
X218697Y271532D01*
X218705Y271651D01*
X218712Y271739D01*
Y271813D01*
X218720Y271865D01*
X218727Y271895D01*
Y271902D01*
X218749Y271976D01*
X218771Y272043D01*
X218794Y272094D01*
X218823Y272131D01*
X218845Y272168D01*
X218868Y272191D01*
X218875Y272198D01*
X218882Y272205D01*
X218927Y272235D01*
X218971Y272257D01*
X219075Y272287D01*
X219127Y272302D01*
X219164D01*
X219193Y272309D01*
X219201D01*
X219245Y272317D01*
X219304D01*
X219423Y272324D01*
X219556Y272331D01*
X219696Y272339D01*
X220222D01*
X220399Y272331D01*
X220555D01*
X220681Y272324D01*
X220769Y272317D01*
X220843D01*
X220880Y272309D01*
X220895D01*
X220999Y272294D01*
X221080Y272280D01*
X221139Y272265D01*
X221191Y272250D01*
X221228Y272235D01*
X221250Y272228D01*
X221265Y272213D01*
X221295Y272176D01*
X221317Y272139D01*
X221332Y272109D01*
Y272094D01*
X221339Y272065D01*
X221347Y272028D01*
X221354Y271939D01*
Y271895D01*
X221361Y271858D01*
Y271835D01*
Y271828D01*
X222612D01*
Y271887D01*
X222619Y271932D01*
Y271969D01*
Y271998D01*
Y272013D01*
Y272021D01*
Y272028D01*
X222612Y272205D01*
X222605Y272361D01*
X222582Y272494D01*
X222560Y272605D01*
X222538Y272687D01*
X222523Y272746D01*
X222508Y272783D01*
X222501Y272797D01*
X222449Y272886D01*
X222390Y272968D01*
X222331Y273034D01*
X222264Y273094D01*
X222205Y273130D01*
X222153Y273167D01*
X222124Y273182D01*
X222109Y273190D01*
X222020Y273227D01*
X221931Y273256D01*
X221835Y273278D01*
X221739Y273301D01*
X221657Y273316D01*
X221591Y273323D01*
X221546Y273330D01*
X221532D01*
X221458Y273338D01*
X221376Y273345D01*
X221199Y273353D01*
X221006Y273360D01*
X220821D01*
X220732Y273367D01*
D02*
G37*
%LPD*%
G36*
X226793Y270792D02*
X224965D01*
X225757Y272346D01*
X226001D01*
X226793Y270792D01*
D02*
G37*
G36*
X242252Y272265D02*
X242326D01*
X242385Y272257D01*
X242488D01*
X242570Y272250D01*
X242622Y272242D01*
X242651Y272235D01*
X242659D01*
X242733Y272220D01*
X242792Y272198D01*
X242844Y272176D01*
X242888Y272154D01*
X242918Y272131D01*
X242940Y272109D01*
X242955Y272102D01*
X242962Y272094D01*
X242992Y272050D01*
X243021Y272006D01*
X243058Y271909D01*
X243073Y271865D01*
X243080Y271828D01*
X243088Y271806D01*
Y271798D01*
X243103Y271717D01*
X243110Y271628D01*
X243117Y271532D01*
Y271443D01*
X243125Y271362D01*
Y271288D01*
Y271244D01*
Y271236D01*
Y271229D01*
Y271095D01*
X243117Y270977D01*
X243110Y270881D01*
X243103Y270799D01*
X243095Y270733D01*
X243088Y270689D01*
X243080Y270659D01*
Y270652D01*
X243058Y270585D01*
X243036Y270533D01*
X243014Y270489D01*
X242992Y270452D01*
X242969Y270422D01*
X242947Y270400D01*
X242940Y270392D01*
X242932Y270385D01*
X242895Y270356D01*
X242844Y270333D01*
X242740Y270296D01*
X242688Y270289D01*
X242651Y270282D01*
X242622Y270274D01*
X242614D01*
X242518Y270267D01*
X242407Y270259D01*
X242289Y270252D01*
X242170D01*
X242067Y270245D01*
X240165D01*
Y272272D01*
X242178D01*
X242252Y272265D01*
D02*
G37*
%LPC*%
G36*
X132644Y237097D02*
X128093D01*
Y232990D01*
X132666D01*
Y233974D01*
X129329D01*
Y234640D01*
X132474D01*
Y235543D01*
X129329D01*
Y236128D01*
X132644D01*
Y237097D01*
D02*
G37*
G36*
X122358D02*
X117807D01*
Y232990D01*
X122380D01*
Y233974D01*
X119043D01*
Y234640D01*
X122188D01*
Y235543D01*
X119043D01*
Y236128D01*
X122358D01*
Y237097D01*
D02*
G37*
G36*
X125548Y237164D02*
X124800D01*
X124615Y237156D01*
X124438D01*
X124282Y237149D01*
X124142Y237141D01*
X124023Y237134D01*
X123912D01*
X123823Y237127D01*
X123742Y237119D01*
X123683Y237112D01*
X123631Y237104D01*
X123587D01*
X123564Y237097D01*
X123542D01*
X123394Y237067D01*
X123268Y237030D01*
X123165Y236979D01*
X123076Y236934D01*
X123009Y236890D01*
X122958Y236853D01*
X122928Y236823D01*
X122921Y236816D01*
X122876Y236757D01*
X122832Y236690D01*
X122773Y236542D01*
X122728Y236379D01*
X122691Y236216D01*
X122676Y236068D01*
X122669Y236002D01*
Y235943D01*
X122662Y235898D01*
Y235861D01*
Y235839D01*
Y235832D01*
Y235721D01*
X122669Y235617D01*
X122684Y235521D01*
X122699Y235432D01*
X122713Y235351D01*
X122736Y235277D01*
X122758Y235217D01*
X122780Y235158D01*
X122817Y235069D01*
X122854Y235003D01*
X122884Y234966D01*
X122891Y234951D01*
X122943Y234892D01*
X123009Y234847D01*
X123069Y234803D01*
X123128Y234773D01*
X123187Y234744D01*
X123231Y234729D01*
X123261Y234722D01*
X123268Y234714D01*
X123372Y234692D01*
X123483Y234677D01*
X123594Y234662D01*
X123705Y234648D01*
X123809Y234640D01*
X123890Y234633D01*
X124016D01*
X124075Y234625D01*
X124216D01*
X124378Y234618D01*
X124549Y234611D01*
X124704Y234603D01*
X124778Y234596D01*
X124837D01*
X124889Y234588D01*
X124963D01*
X125096Y234581D01*
X125222Y234574D01*
X125333D01*
X125429Y234566D01*
X125518D01*
X125599Y234559D01*
X125733D01*
X125784Y234551D01*
X126043D01*
X126132Y234544D01*
X126199Y234529D01*
X126251Y234522D01*
X126295Y234507D01*
X126317Y234492D01*
X126332Y234485D01*
X126339D01*
X126376Y234455D01*
X126399Y234426D01*
X126428Y234344D01*
X126436Y234300D01*
X126443Y234270D01*
Y234248D01*
Y234241D01*
X126436Y234152D01*
X126421Y234085D01*
X126399Y234033D01*
X126376Y233989D01*
X126347Y233959D01*
X126325Y233945D01*
X126310Y233930D01*
X126302D01*
X126221Y233908D01*
X126140Y233893D01*
X126103D01*
X126073Y233885D01*
X125895D01*
X125829Y233878D01*
X124415D01*
X124356Y233885D01*
X124193D01*
X124097Y233900D01*
X124023Y233930D01*
X124001Y233937D01*
X123979Y233952D01*
X123971Y233959D01*
X123964D01*
X123920Y234004D01*
X123890Y234056D01*
X123868Y234122D01*
X123853Y234189D01*
X123846Y234248D01*
X123838Y234300D01*
Y234337D01*
Y234352D01*
X122625D01*
X122632Y234152D01*
X122639Y233996D01*
X122647Y233863D01*
X122662Y233752D01*
X122676Y233656D01*
X122691Y233589D01*
X122699Y233538D01*
X122713Y233501D01*
Y233493D01*
X122750Y233419D01*
X122802Y233345D01*
X122854Y233286D01*
X122913Y233242D01*
X122958Y233197D01*
X123002Y233168D01*
X123032Y233153D01*
X123039Y233145D01*
X123128Y233101D01*
X123239Y233071D01*
X123342Y233042D01*
X123453Y233020D01*
X123550Y233005D01*
X123624Y232990D01*
X123653D01*
X123675Y232983D01*
X123698D01*
X123786Y232975D01*
X123883Y232968D01*
X124097Y232953D01*
X124327Y232946D01*
X124549Y232938D01*
X124652D01*
X124748Y232931D01*
X125622D01*
X125770Y232938D01*
X125910D01*
X126036Y232946D01*
X126147D01*
X126243Y232953D01*
X126399D01*
X126458Y232960D01*
X126502D01*
X126539Y232968D01*
X126584D01*
X126717Y232983D01*
X126835Y233005D01*
X126931Y233020D01*
X127020Y233049D01*
X127079Y233064D01*
X127131Y233086D01*
X127161Y233094D01*
X127168Y233101D01*
X127242Y233145D01*
X127309Y233197D01*
X127368Y233242D01*
X127412Y233293D01*
X127449Y233338D01*
X127472Y233375D01*
X127486Y233404D01*
X127494Y233412D01*
X127546Y233530D01*
X127590Y233663D01*
X127620Y233811D01*
X127634Y233952D01*
X127649Y234078D01*
Y234137D01*
X127657Y234181D01*
Y234218D01*
Y234255D01*
Y234270D01*
Y234278D01*
X127649Y234433D01*
X127642Y234574D01*
X127627Y234692D01*
X127612Y234788D01*
X127590Y234862D01*
X127575Y234914D01*
X127568Y234951D01*
X127560Y234958D01*
X127516Y235040D01*
X127472Y235114D01*
X127420Y235180D01*
X127368Y235232D01*
X127316Y235277D01*
X127279Y235306D01*
X127250Y235321D01*
X127242Y235328D01*
X127161Y235365D01*
X127072Y235395D01*
X126983Y235425D01*
X126894Y235447D01*
X126820Y235462D01*
X126761Y235469D01*
X126717Y235476D01*
X126702D01*
X126635Y235484D01*
X126547Y235491D01*
X126458Y235499D01*
X126354Y235506D01*
X126140Y235521D01*
X125918Y235536D01*
X125807D01*
X125710Y235543D01*
X125614Y235550D01*
X125540D01*
X125474Y235558D01*
X125377D01*
X125170Y235565D01*
X124978Y235573D01*
X124815D01*
X124667Y235580D01*
X124541Y235587D01*
X124438Y235595D01*
X124341Y235602D01*
X124267Y235610D01*
X124208D01*
X124156Y235617D01*
X124119Y235624D01*
X124068D01*
X124053Y235632D01*
X124045D01*
X123986Y235654D01*
X123949Y235691D01*
X123920Y235735D01*
X123897Y235780D01*
X123883Y235824D01*
X123875Y235861D01*
Y235891D01*
Y235898D01*
X123883Y235972D01*
X123905Y236031D01*
X123927Y236083D01*
X123964Y236120D01*
X123994Y236142D01*
X124016Y236157D01*
X124038Y236172D01*
X124045D01*
X124082Y236179D01*
X124142Y236187D01*
X124201Y236194D01*
X124275Y236202D01*
X124430Y236209D01*
X124600Y236216D01*
X124763Y236224D01*
X125518D01*
X125585Y236216D01*
X125784D01*
X125844Y236209D01*
X125888D01*
X125962Y236202D01*
X126021Y236194D01*
X126073Y236179D01*
X126110Y236172D01*
X126140Y236157D01*
X126162Y236150D01*
X126177Y236142D01*
X126221Y236113D01*
X126243Y236076D01*
X126258Y236054D01*
X126265Y236039D01*
X126273Y236009D01*
X126280Y235980D01*
X126288Y235906D01*
Y235869D01*
Y235839D01*
Y235817D01*
Y235809D01*
X127501D01*
Y235861D01*
X127509Y235898D01*
Y235935D01*
Y235957D01*
Y235994D01*
Y236002D01*
Y236105D01*
X127501Y236194D01*
X127479Y236357D01*
X127442Y236498D01*
X127405Y236609D01*
X127361Y236690D01*
X127331Y236749D01*
X127301Y236786D01*
X127294Y236794D01*
X127250Y236838D01*
X127198Y236875D01*
X127087Y236942D01*
X126961Y237001D01*
X126828Y237045D01*
X126709Y237075D01*
X126658Y237090D01*
X126613Y237097D01*
X126569Y237104D01*
X126539D01*
X126524Y237112D01*
X126517D01*
X126443Y237119D01*
X126354Y237127D01*
X126265Y237134D01*
X126162Y237141D01*
X125955Y237149D01*
X125740Y237156D01*
X125644D01*
X125548Y237164D01*
D02*
G37*
G36*
X137743Y237097D02*
X132770D01*
Y236046D01*
X134598D01*
Y232990D01*
X135915D01*
Y236046D01*
X137743D01*
Y237097D01*
D02*
G37*
G36*
X115624D02*
X112257D01*
Y232990D01*
X113508D01*
Y234033D01*
X115513D01*
X115595Y234026D01*
X115669D01*
X115713Y234019D01*
X115750D01*
X115765Y234011D01*
X115772D01*
X115854Y233989D01*
X115913Y233952D01*
X115950Y233930D01*
X115965Y233915D01*
X116009Y233848D01*
X116039Y233774D01*
X116053Y233745D01*
Y233715D01*
X116061Y233700D01*
Y233693D01*
X116068Y233626D01*
X116076Y233552D01*
X116090Y233397D01*
Y233323D01*
Y233264D01*
Y233219D01*
Y233212D01*
Y233205D01*
Y232990D01*
X117326D01*
Y233367D01*
Y233464D01*
Y233552D01*
Y233626D01*
X117319Y233700D01*
Y233767D01*
Y233819D01*
X117311Y233915D01*
X117304Y233982D01*
Y234026D01*
X117297Y234056D01*
Y234063D01*
X117267Y234181D01*
X117245Y234226D01*
X117223Y234270D01*
X117200Y234307D01*
X117186Y234329D01*
X117178Y234344D01*
X117171Y234352D01*
X117097Y234418D01*
X117008Y234470D01*
X116919Y234514D01*
X116823Y234544D01*
X116734Y234559D01*
X116668Y234574D01*
X116638D01*
X116616Y234581D01*
X116601D01*
X116719Y234603D01*
X116823Y234633D01*
X116904Y234662D01*
X116978Y234692D01*
X117030Y234722D01*
X117075Y234744D01*
X117097Y234759D01*
X117104Y234766D01*
X117156Y234818D01*
X117200Y234870D01*
X117237Y234929D01*
X117267Y234981D01*
X117282Y235025D01*
X117297Y235062D01*
X117311Y235092D01*
Y235099D01*
X117334Y235188D01*
X117348Y235291D01*
X117356Y235402D01*
X117363Y235506D01*
X117371Y235610D01*
Y235684D01*
Y235713D01*
Y235735D01*
Y235750D01*
Y235758D01*
Y235943D01*
X117356Y236105D01*
X117341Y236239D01*
X117326Y236350D01*
X117311Y236431D01*
X117297Y236490D01*
X117289Y236520D01*
X117282Y236535D01*
X117245Y236623D01*
X117193Y236705D01*
X117141Y236771D01*
X117089Y236831D01*
X117038Y236875D01*
X116993Y236905D01*
X116964Y236927D01*
X116956Y236934D01*
X116882Y236971D01*
X116808Y237008D01*
X116742Y237030D01*
X116682Y237045D01*
X116631Y237060D01*
X116586D01*
X116557Y237067D01*
X116549D01*
X116497Y237075D01*
X116438D01*
X116357Y237082D01*
X116164D01*
X116053Y237090D01*
X115728D01*
X115624Y237097D01*
D02*
G37*
%LPD*%
G36*
X115521Y236061D02*
X115683D01*
X115728Y236054D01*
X115780D01*
X115846Y236046D01*
X115898Y236031D01*
X115928Y236024D01*
X115942Y236017D01*
X116002Y235980D01*
X116039Y235928D01*
X116061Y235891D01*
X116068Y235883D01*
Y235876D01*
X116083Y235839D01*
X116098Y235787D01*
X116105Y235691D01*
X116113Y235647D01*
Y235610D01*
Y235587D01*
Y235580D01*
Y235506D01*
X116105Y235447D01*
X116098Y235388D01*
Y235351D01*
X116090Y235314D01*
X116083Y235291D01*
X116076Y235277D01*
Y235269D01*
X116046Y235203D01*
X116009Y235158D01*
X115979Y235129D01*
X115972Y235121D01*
X115965D01*
X115913Y235099D01*
X115861Y235084D01*
X115824Y235077D01*
X115757D01*
X115683Y235069D01*
X115506D01*
X115410Y235062D01*
X113508D01*
Y236068D01*
X115410D01*
X115521Y236061D01*
D02*
G37*
D42*
X129609Y2897D02*
Y96558D01*
X68191Y2897D02*
X129609D01*
X68191D02*
Y96558D01*
X90239D01*
X107561D02*
X129609D01*
D61*
X293997Y290099D02*
G03*
X293997Y290099I-197J0D01*
G01*
X330543Y290134D02*
G03*
X331330Y290134I394J0D01*
G01*
D02*
G03*
X330543Y290134I-394J0D01*
G01*
X256897Y318510D02*
G03*
X256897Y318510I-197J0D01*
G01*
X278823D02*
G03*
X278823Y318510I-197J0D01*
G01*
X341074Y69539D02*
G03*
X341861Y69539I394J0D01*
G01*
D02*
G03*
X341074Y69539I-394J0D01*
G01*
X254487Y200203D02*
G03*
X254487Y200203I-197J0D01*
G01*
X181527Y75894D02*
G03*
X181921Y75894I197J0D01*
G01*
D02*
G03*
X181527Y75894I-197J0D01*
G01*
D02*
G03*
X181921Y75894I197J0D01*
G01*
X181527Y90794D02*
G03*
X181921Y90794I197J0D01*
G01*
D02*
G03*
X181527Y90794I-197J0D01*
G01*
D02*
G03*
X181921Y90794I197J0D01*
G01*
X19868Y339290D02*
G03*
X43096Y339290I11614J0D01*
G01*
D02*
G03*
X19868Y339290I-11614J0D01*
G01*
X43096Y273345D02*
G03*
X19868Y273345I-11614J0D01*
G01*
D02*
G03*
X43096Y273345I11614J0D01*
G01*
X19868Y207400D02*
G03*
X43096Y207400I11614J0D01*
G01*
D02*
G03*
X19868Y207400I-11614J0D01*
G01*
X43096Y141455D02*
G03*
X19868Y141455I-11614J0D01*
G01*
D02*
G03*
X43096Y141455I11614J0D01*
G01*
X238400Y306361D02*
G03*
X238400Y306754I0J197D01*
G01*
D02*
G03*
X238400Y306361I0J-197D01*
G01*
D02*
G03*
X238400Y306754I0J197D01*
G01*
X107105Y227400D02*
G03*
X107105Y227400I-205J0D01*
G01*
X278319Y68127D02*
X280681D01*
Y56473D02*
Y68127D01*
X278319Y56473D02*
X280681D01*
X278319D02*
Y68127D01*
X272217Y68205D02*
X276941D01*
X188819Y259457D02*
X194823D01*
X196201Y239654D02*
Y258946D01*
Y239654D02*
X208799D01*
Y258946D01*
X196201D02*
X208799D01*
X122676Y141214D02*
Y167986D01*
X82124Y141214D02*
X122676D01*
X82124D02*
Y167986D01*
X122676D01*
X122557Y169364D02*
Y176943D01*
X177793Y139093D02*
Y175707D01*
Y139093D02*
X214407D01*
Y175707D01*
X177793D02*
X214407D01*
X268784Y349912D02*
X288384D01*
Y375412D01*
X259084D02*
X288384D01*
X259084Y360312D02*
Y375412D01*
X184327Y360261D02*
Y375458D01*
X234366D01*
Y349867D02*
Y375458D01*
X194091Y349867D02*
X234366D01*
X259000Y2700D02*
X278600D01*
Y28200D01*
X249300D02*
X278600D01*
X249300Y13100D02*
Y28200D01*
X147036Y13100D02*
Y28200D01*
X225700D01*
Y2700D02*
Y28200D01*
X156800Y2700D02*
X225700D01*
X119476Y360261D02*
Y375458D01*
X169516D01*
Y349867D02*
Y375458D01*
X129240Y349867D02*
X169516D01*
X50157Y349868D02*
Y375459D01*
Y349868D02*
X109134D01*
Y375459D01*
X50157D02*
X109134D01*
X252100Y150216D02*
X257297D01*
Y172184D01*
X246903D02*
X257297D01*
X246903Y156200D02*
Y172184D01*
X149316Y105203D02*
Y110400D01*
Y105203D02*
X171284D01*
Y115597D01*
X155300D02*
X171284D01*
X338961Y202406D02*
Y203194D01*
X327543Y202406D02*
X338961D01*
X327543D02*
Y203194D01*
X338961D01*
X339295Y204572D02*
Y209296D01*
X286700Y243733D02*
Y247867D01*
X254633Y282816D02*
X258767D01*
X320200Y259233D02*
Y263367D01*
Y267833D02*
Y271967D01*
X240833Y317800D02*
X244967D01*
X257215Y62200D02*
X261349D01*
X248633Y62400D02*
X252767D01*
X333252Y143433D02*
Y147567D01*
X30301Y36933D02*
Y41067D01*
X289800Y158533D02*
Y162667D01*
Y176733D02*
Y180867D01*
X302133Y325400D02*
X306267D01*
X30301Y300933D02*
Y305067D01*
Y235000D02*
Y239134D01*
Y169066D02*
Y173200D01*
Y103133D02*
Y107267D01*
X162833Y303200D02*
X166967D01*
X154473D02*
X158607D01*
X146113D02*
X150247D01*
X137753D02*
X141887D01*
X129393D02*
X133527D01*
X121033D02*
X125167D01*
X98733D02*
X102867D01*
X90273D02*
X94407D01*
X81813D02*
X85947D01*
X73353D02*
X77487D01*
X64893D02*
X69027D01*
X56433D02*
X60567D01*
X112400Y180033D02*
Y184167D01*
X293733Y118500D02*
X297867D01*
X285452D02*
X289586D01*
X277172D02*
X281306D01*
X262591D02*
X266725D01*
X254311D02*
X258444D01*
X245833D02*
X249967D01*
X172333Y214300D02*
X176467D01*
X47701Y62060D02*
Y88860D01*
X13101D02*
X47701D01*
X13101Y62060D02*
Y88860D01*
X113189Y202689D02*
X136811D01*
Y226311D01*
X113189D02*
X136811D01*
X113189Y202689D02*
Y226311D01*
X54103Y265206D02*
Y265994D01*
X65521D01*
Y265206D02*
Y265994D01*
X54103Y265206D02*
X65521D01*
X53768Y259104D02*
Y263828D01*
X75805Y265206D02*
Y265994D01*
X87222D01*
Y265206D02*
Y265994D01*
X75805Y265206D02*
X87222D01*
X75470Y259104D02*
Y263828D01*
X97593Y265206D02*
Y265994D01*
X108995D01*
Y265206D02*
Y265994D01*
X97593Y265206D02*
X108995D01*
X97388Y258316D02*
Y263828D01*
X119208Y265206D02*
Y265994D01*
X130626D01*
Y265206D02*
Y265994D01*
X119208Y265206D02*
X130626D01*
X118874Y259104D02*
Y263828D01*
X140910Y265206D02*
Y265994D01*
X152327D01*
Y265206D02*
Y265994D01*
X140910Y265206D02*
X152327D01*
X140575Y259104D02*
Y263828D01*
X162698Y265206D02*
Y265994D01*
X174100D01*
Y265206D02*
Y265994D01*
X162698Y265206D02*
X174100D01*
X162494Y258316D02*
Y263828D01*
X68650Y149285D02*
Y159915D01*
X62350Y145643D02*
Y159915D01*
D62*
X316126Y178400D02*
G03*
X316520Y178400I197J0D01*
G01*
D02*
G03*
X316126Y178400I-197J0D01*
G01*
X196182Y296218D02*
G03*
X196182Y295824I0J-197D01*
G01*
D02*
G03*
X196182Y296218I0J197D01*
G01*
X187693Y321700D02*
G03*
X188087Y321700I197J0D01*
G01*
D02*
G03*
X187693Y321700I-197J0D01*
G01*
X168380Y173343D02*
G03*
X167987Y173343I-197J0D01*
G01*
D02*
G03*
X168380Y173343I197J0D01*
G01*
X326212Y292890D02*
Y332260D01*
X365582D01*
Y292890D02*
Y332260D01*
X326212Y292890D02*
X365582D01*
X328331Y162258D02*
X336205D01*
X328331Y181943D02*
X336205D01*
X303574Y4087D02*
Y14913D01*
Y4087D02*
X362826D01*
Y14913D01*
X303574Y28988D02*
Y50346D01*
X362826Y28988D02*
Y50346D01*
X344224Y62157D02*
X360759D01*
X232636Y222900D02*
X246140D01*
X232636Y197900D02*
X246140D01*
X193731Y78650D02*
X197669D01*
X193731D02*
X197669D01*
X193731Y72350D02*
X197669D01*
X193731D02*
X197669D01*
X193731Y93550D02*
X197669D01*
X193731D02*
X197669D01*
X193731Y87250D02*
X197669D01*
X193731D02*
X197669D01*
X200119Y284801D02*
X202481D01*
X200119Y297399D02*
X202481D01*
X222732Y314850D02*
Y328550D01*
X198323Y314850D02*
X222732D01*
X198323D02*
Y328550D01*
X222732D01*
X243203Y279983D02*
Y302817D01*
Y279983D02*
Y302817D01*
X218597Y279983D02*
Y302817D01*
Y279983D02*
Y302817D01*
X154994Y147752D02*
X166806D01*
Y179248D01*
X154994D02*
X166806D01*
X154994Y147752D02*
Y179248D01*
D63*
X272787Y276418D02*
G03*
X272787Y276418I-492J0D01*
G01*
X172084Y175117D02*
G03*
X172084Y175117I-492J0D01*
G01*
D64*
X156500Y186499D02*
Y185832D01*
X157833Y184499D01*
X159166Y185832D01*
Y186499D01*
X157833Y184499D02*
Y182500D01*
X160499D02*
X161832D01*
X161165D01*
Y186499D01*
X160499Y185832D01*
X124266Y200132D02*
X123599Y200799D01*
X122266D01*
X121600Y200132D01*
Y199466D01*
X122266Y198799D01*
X123599D01*
X124266Y198133D01*
Y197467D01*
X123599Y196800D01*
X122266D01*
X121600Y197467D01*
X125599Y200132D02*
X126265Y200799D01*
X127598D01*
X128264Y200132D01*
Y199466D01*
X127598Y198799D01*
X128264Y198133D01*
Y197467D01*
X127598Y196800D01*
X126265D01*
X125599Y197467D01*
Y198133D01*
X126265Y198799D01*
X125599Y199466D01*
Y200132D01*
X126265Y198799D02*
X127598D01*
X7868Y85166D02*
X7201Y84499D01*
Y83166D01*
X7868Y82500D01*
X8534D01*
X9201Y83166D01*
Y84499D01*
X9867Y85166D01*
X10533D01*
X11200Y84499D01*
Y83166D01*
X10533Y82500D01*
X7201Y89165D02*
X7868Y87832D01*
X9201Y86499D01*
X10533D01*
X11200Y87165D01*
Y88498D01*
X10533Y89165D01*
X9867D01*
X9201Y88498D01*
Y86499D01*
X217666Y307732D02*
X216999Y308399D01*
X215666D01*
X215000Y307732D01*
Y307066D01*
X215666Y306399D01*
X216999D01*
X217666Y305733D01*
Y305066D01*
X216999Y304400D01*
X215666D01*
X215000Y305066D01*
X220998Y304400D02*
Y308399D01*
X218999Y306399D01*
X221665D01*
X192366Y330832D02*
X191699Y331499D01*
X190366D01*
X189700Y330832D01*
Y330166D01*
X190366Y329499D01*
X191699D01*
X192366Y328833D01*
Y328166D01*
X191699Y327500D01*
X190366D01*
X189700Y328166D01*
X193699Y330832D02*
X194365Y331499D01*
X195698D01*
X196364Y330832D01*
Y330166D01*
X195698Y329499D01*
X195032D01*
X195698D01*
X196364Y328833D01*
Y328166D01*
X195698Y327500D01*
X194365D01*
X193699Y328166D01*
X194300Y286800D02*
X190301D01*
Y288799D01*
X190968Y289466D01*
X192301D01*
X192967Y288799D01*
Y286800D01*
Y288133D02*
X194300Y289466D01*
Y290799D02*
X190301D01*
X194300Y293464D01*
X190301D01*
X194300Y294797D02*
Y296130D01*
Y295464D01*
X190301D01*
X190968Y294797D01*
X177500Y222100D02*
X173501D01*
Y224099D01*
X174168Y224766D01*
X175501D01*
X176167Y224099D01*
Y222100D01*
Y223433D02*
X177500Y224766D01*
X174168Y226099D02*
X173501Y226765D01*
Y228098D01*
X174168Y228765D01*
X174834D01*
X175501Y228098D01*
Y227432D01*
Y228098D01*
X176167Y228765D01*
X176833D01*
X177500Y228098D01*
Y226765D01*
X176833Y226099D01*
X173501Y232763D02*
X174168Y231430D01*
X175501Y230097D01*
X176833D01*
X177500Y230764D01*
Y232097D01*
X176833Y232763D01*
X176167D01*
X175501Y232097D01*
Y230097D01*
X250900Y126500D02*
X246901D01*
Y128499D01*
X247568Y129166D01*
X248901D01*
X249567Y128499D01*
Y126500D01*
Y127833D02*
X250900Y129166D01*
X247568Y130499D02*
X246901Y131165D01*
Y132498D01*
X247568Y133165D01*
X248234D01*
X248901Y132498D01*
Y131832D01*
Y132498D01*
X249567Y133165D01*
X250234D01*
X250900Y132498D01*
Y131165D01*
X250234Y130499D01*
X246901Y137163D02*
Y134497D01*
X248901D01*
X248234Y135830D01*
Y136497D01*
X248901Y137163D01*
X250234D01*
X250900Y136497D01*
Y135164D01*
X250234Y134497D01*
X259477Y126500D02*
X255479D01*
Y128499D01*
X256145Y129166D01*
X257478D01*
X258145Y128499D01*
Y126500D01*
Y127833D02*
X259477Y129166D01*
X256145Y130499D02*
X255479Y131165D01*
Y132498D01*
X256145Y133165D01*
X256812D01*
X257478Y132498D01*
Y131832D01*
Y132498D01*
X258145Y133165D01*
X258811D01*
X259477Y132498D01*
Y131165D01*
X258811Y130499D01*
X259477Y136497D02*
X255479D01*
X257478Y134497D01*
Y137163D01*
X267658Y126500D02*
X263659D01*
Y128499D01*
X264326Y129166D01*
X265659D01*
X266325Y128499D01*
Y126500D01*
Y127833D02*
X267658Y129166D01*
X264326Y130499D02*
X263659Y131165D01*
Y132498D01*
X264326Y133165D01*
X264992D01*
X265659Y132498D01*
Y131832D01*
Y132498D01*
X266325Y133165D01*
X266992D01*
X267658Y132498D01*
Y131165D01*
X266992Y130499D01*
X264326Y134497D02*
X263659Y135164D01*
Y136497D01*
X264326Y137163D01*
X264992D01*
X265659Y136497D01*
Y135830D01*
Y136497D01*
X266325Y137163D01*
X266992D01*
X267658Y136497D01*
Y135164D01*
X266992Y134497D01*
X282239Y126500D02*
X278240D01*
Y128499D01*
X278906Y129166D01*
X280239D01*
X280906Y128499D01*
Y126500D01*
Y127833D02*
X282239Y129166D01*
X278906Y130499D02*
X278240Y131165D01*
Y132498D01*
X278906Y133165D01*
X279573D01*
X280239Y132498D01*
Y131832D01*
Y132498D01*
X280906Y133165D01*
X281572D01*
X282239Y132498D01*
Y131165D01*
X281572Y130499D01*
X282239Y137163D02*
Y134497D01*
X279573Y137163D01*
X278906D01*
X278240Y136497D01*
Y135164D01*
X278906Y134497D01*
X290419Y126500D02*
X286421D01*
Y128499D01*
X287087Y129166D01*
X288420D01*
X289087Y128499D01*
Y126500D01*
Y127833D02*
X290419Y129166D01*
X287087Y130499D02*
X286421Y131165D01*
Y132498D01*
X287087Y133165D01*
X287754D01*
X288420Y132498D01*
Y131832D01*
Y132498D01*
X289087Y133165D01*
X289753D01*
X290419Y132498D01*
Y131165D01*
X289753Y130499D01*
X290419Y134497D02*
Y135830D01*
Y135164D01*
X286421D01*
X287087Y134497D01*
X298700Y126500D02*
X294701D01*
Y128499D01*
X295368Y129166D01*
X296701D01*
X297367Y128499D01*
Y126500D01*
Y127833D02*
X298700Y129166D01*
X295368Y130499D02*
X294701Y131165D01*
Y132498D01*
X295368Y133165D01*
X296034D01*
X296701Y132498D01*
Y131832D01*
Y132498D01*
X297367Y133165D01*
X298034D01*
X298700Y132498D01*
Y131165D01*
X298034Y130499D01*
X295368Y134497D02*
X294701Y135164D01*
Y136497D01*
X295368Y137163D01*
X298034D01*
X298700Y136497D01*
Y135164D01*
X298034Y134497D01*
X295368D01*
X107800Y186600D02*
Y190599D01*
X109799D01*
X110466Y189932D01*
Y188599D01*
X109799Y187933D01*
X107800D01*
X109133D02*
X110466Y186600D01*
X114464D02*
X111799D01*
X114464Y189266D01*
Y189932D01*
X113798Y190599D01*
X112465D01*
X111799Y189932D01*
X115797Y187267D02*
X116464Y186600D01*
X117797D01*
X118463Y187267D01*
Y189932D01*
X117797Y190599D01*
X116464D01*
X115797Y189932D01*
Y189266D01*
X116464Y188599D01*
X118463D01*
X61400Y311000D02*
X57401D01*
Y312999D01*
X58068Y313666D01*
X59401D01*
X60067Y312999D01*
Y311000D01*
Y312333D02*
X61400Y313666D01*
Y317665D02*
Y314999D01*
X58734Y317665D01*
X58068D01*
X57401Y316998D01*
Y315665D01*
X58068Y314999D01*
Y318997D02*
X57401Y319664D01*
Y320997D01*
X58068Y321663D01*
X58734D01*
X59401Y320997D01*
X60067Y321663D01*
X60734D01*
X61400Y320997D01*
Y319664D01*
X60734Y318997D01*
X60067D01*
X59401Y319664D01*
X58734Y318997D01*
X58068D01*
X59401Y319664D02*
Y320997D01*
X70260Y310900D02*
X66261D01*
Y312899D01*
X66928Y313566D01*
X68261D01*
X68927Y312899D01*
Y310900D01*
Y312233D02*
X70260Y313566D01*
Y317565D02*
Y314899D01*
X67594Y317565D01*
X66928D01*
X66261Y316898D01*
Y315565D01*
X66928Y314899D01*
X66261Y318897D02*
Y321563D01*
X66928D01*
X69594Y318897D01*
X70260D01*
X78420Y311200D02*
X74421D01*
Y313199D01*
X75088Y313866D01*
X76421D01*
X77087Y313199D01*
Y311200D01*
Y312533D02*
X78420Y313866D01*
Y317864D02*
Y315199D01*
X75754Y317864D01*
X75088D01*
X74421Y317198D01*
Y315865D01*
X75088Y315199D01*
X74421Y321863D02*
X75088Y320530D01*
X76421Y319197D01*
X77754D01*
X78420Y319864D01*
Y321197D01*
X77754Y321863D01*
X77087D01*
X76421Y321197D01*
Y319197D01*
X87180Y310900D02*
X83181D01*
Y312899D01*
X83848Y313566D01*
X85181D01*
X85847Y312899D01*
Y310900D01*
Y312233D02*
X87180Y313566D01*
Y317565D02*
Y314899D01*
X84514Y317565D01*
X83848D01*
X83181Y316898D01*
Y315565D01*
X83848Y314899D01*
X83181Y321563D02*
Y318897D01*
X85181D01*
X84514Y320230D01*
Y320897D01*
X85181Y321563D01*
X86514D01*
X87180Y320897D01*
Y319564D01*
X86514Y318897D01*
X95240Y311100D02*
X91241D01*
Y313099D01*
X91908Y313766D01*
X93241D01*
X93907Y313099D01*
Y311100D01*
Y312433D02*
X95240Y313766D01*
Y317764D02*
Y315099D01*
X92574Y317764D01*
X91908D01*
X91241Y317098D01*
Y315765D01*
X91908Y315099D01*
X95240Y321097D02*
X91241D01*
X93241Y319097D01*
Y321763D01*
X103800Y311000D02*
X99801D01*
Y312999D01*
X100468Y313666D01*
X101801D01*
X102467Y312999D01*
Y311000D01*
Y312333D02*
X103800Y313666D01*
Y317665D02*
Y314999D01*
X101134Y317665D01*
X100468D01*
X99801Y316998D01*
Y315665D01*
X100468Y314999D01*
Y318997D02*
X99801Y319664D01*
Y320997D01*
X100468Y321663D01*
X101134D01*
X101801Y320997D01*
Y320330D01*
Y320997D01*
X102467Y321663D01*
X103133D01*
X103800Y320997D01*
Y319664D01*
X103133Y318997D01*
X126100Y311100D02*
X122101D01*
Y313099D01*
X122768Y313766D01*
X124101D01*
X124767Y313099D01*
Y311100D01*
Y312433D02*
X126100Y313766D01*
Y317764D02*
Y315099D01*
X123434Y317764D01*
X122768D01*
X122101Y317098D01*
Y315765D01*
X122768Y315099D01*
X126100Y321763D02*
Y319097D01*
X123434Y321763D01*
X122768D01*
X122101Y321097D01*
Y319764D01*
X122768Y319097D01*
X134260Y311200D02*
X130261D01*
Y313199D01*
X130928Y313866D01*
X132261D01*
X132927Y313199D01*
Y311200D01*
Y312533D02*
X134260Y313866D01*
Y317864D02*
Y315199D01*
X131594Y317864D01*
X130928D01*
X130261Y317198D01*
Y315865D01*
X130928Y315199D01*
X134260Y319197D02*
Y320530D01*
Y319864D01*
X130261D01*
X130928Y319197D01*
X143020Y311000D02*
X139021D01*
Y312999D01*
X139688Y313666D01*
X141021D01*
X141687Y312999D01*
Y311000D01*
Y312333D02*
X143020Y313666D01*
Y317665D02*
Y314999D01*
X140354Y317665D01*
X139688D01*
X139021Y316998D01*
Y315665D01*
X139688Y314999D01*
Y318997D02*
X139021Y319664D01*
Y320997D01*
X139688Y321663D01*
X142353D01*
X143020Y320997D01*
Y319664D01*
X142353Y318997D01*
X139688D01*
X151480Y311000D02*
X147481D01*
Y312999D01*
X148148Y313666D01*
X149481D01*
X150147Y312999D01*
Y311000D01*
Y312333D02*
X151480Y313666D01*
Y314999D02*
Y316332D01*
Y315665D01*
X147481D01*
X148148Y314999D01*
X150814Y318331D02*
X151480Y318997D01*
Y320330D01*
X150814Y320997D01*
X148148D01*
X147481Y320330D01*
Y318997D01*
X148148Y318331D01*
X148814D01*
X149481Y318997D01*
Y320997D01*
X159940Y311100D02*
X155941D01*
Y313099D01*
X156608Y313766D01*
X157941D01*
X158607Y313099D01*
Y311100D01*
Y312433D02*
X159940Y313766D01*
Y315099D02*
Y316432D01*
Y315765D01*
X155941D01*
X156608Y315099D01*
Y318431D02*
X155941Y319097D01*
Y320430D01*
X156608Y321097D01*
X157274D01*
X157941Y320430D01*
X158607Y321097D01*
X159274D01*
X159940Y320430D01*
Y319097D01*
X159274Y318431D01*
X158607D01*
X157941Y319097D01*
X157274Y318431D01*
X156608D01*
X157941Y319097D02*
Y320430D01*
X167900Y311534D02*
X163901D01*
Y313533D01*
X164568Y314200D01*
X165901D01*
X166567Y313533D01*
Y311534D01*
Y312867D02*
X167900Y314200D01*
Y315532D02*
Y316865D01*
Y316199D01*
X163901D01*
X164568Y315532D01*
X163901Y318865D02*
Y321531D01*
X164568D01*
X167234Y318865D01*
X167900D01*
X25800Y109500D02*
Y113499D01*
X27799D01*
X28466Y112832D01*
Y111499D01*
X27799Y110833D01*
X25800D01*
X27133D02*
X28466Y109500D01*
X29799D02*
X31132D01*
X30465D01*
Y113499D01*
X29799Y112832D01*
X35797Y113499D02*
X34464Y112832D01*
X33131Y111499D01*
Y110167D01*
X33797Y109500D01*
X35130D01*
X35797Y110167D01*
Y110833D01*
X35130Y111499D01*
X33131D01*
X25800Y175500D02*
Y179499D01*
X27799D01*
X28466Y178832D01*
Y177499D01*
X27799Y176833D01*
X25800D01*
X27133D02*
X28466Y175500D01*
X29799D02*
X31132D01*
X30465D01*
Y179499D01*
X29799Y178832D01*
X35797Y179499D02*
X33131D01*
Y177499D01*
X34464Y178166D01*
X35130D01*
X35797Y177499D01*
Y176166D01*
X35130Y175500D01*
X33797D01*
X33131Y176166D01*
X25700Y241300D02*
Y245299D01*
X27699D01*
X28366Y244632D01*
Y243299D01*
X27699Y242633D01*
X25700D01*
X27033D02*
X28366Y241300D01*
X29699D02*
X31032D01*
X30365D01*
Y245299D01*
X29699Y244632D01*
X35030Y241300D02*
Y245299D01*
X33031Y243299D01*
X35697D01*
X25700Y307200D02*
Y311199D01*
X27699D01*
X28366Y310532D01*
Y309199D01*
X27699Y308533D01*
X25700D01*
X27033D02*
X28366Y307200D01*
X29699D02*
X31032D01*
X30365D01*
Y311199D01*
X29699Y310532D01*
X33031D02*
X33697Y311199D01*
X35030D01*
X35697Y310532D01*
Y309866D01*
X35030Y309199D01*
X34364D01*
X35030D01*
X35697Y308533D01*
Y307866D01*
X35030Y307200D01*
X33697D01*
X33031Y307866D01*
X306100Y307600D02*
X302101D01*
Y309599D01*
X302768Y310266D01*
X304101D01*
X304767Y309599D01*
Y307600D01*
Y308933D02*
X306100Y310266D01*
Y311599D02*
Y312932D01*
Y312265D01*
X302101D01*
X302768Y311599D01*
X306100Y317597D02*
Y314931D01*
X303434Y317597D01*
X302768D01*
X302101Y316930D01*
Y315597D01*
X302768Y314931D01*
X283700Y185600D02*
Y189599D01*
X285699D01*
X286366Y188932D01*
Y187599D01*
X285699Y186933D01*
X283700D01*
X285033D02*
X286366Y185600D01*
X287699D02*
X289032D01*
X288365D01*
Y189599D01*
X287699Y188932D01*
X291031Y185600D02*
X292364D01*
X291697D01*
Y189599D01*
X291031Y188932D01*
X283700Y167400D02*
Y171399D01*
X285699D01*
X286366Y170732D01*
Y169399D01*
X285699Y168733D01*
X283700D01*
X285033D02*
X286366Y167400D01*
X287699D02*
X289032D01*
X288365D01*
Y171399D01*
X287699Y170732D01*
X291031D02*
X291697Y171399D01*
X293030D01*
X293697Y170732D01*
Y168067D01*
X293030Y167400D01*
X291697D01*
X291031Y168067D01*
Y170732D01*
X27000Y43300D02*
Y47299D01*
X28999D01*
X29666Y46632D01*
Y45299D01*
X28999Y44633D01*
X27000D01*
X28333D02*
X29666Y43300D01*
X30999Y43966D02*
X31665Y43300D01*
X32998D01*
X33665Y43966D01*
Y46632D01*
X32998Y47299D01*
X31665D01*
X30999Y46632D01*
Y45966D01*
X31665Y45299D01*
X33665D01*
X330000Y149700D02*
Y153699D01*
X331999D01*
X332666Y153032D01*
Y151699D01*
X331999Y151033D01*
X330000D01*
X331333D02*
X332666Y149700D01*
X333999Y153032D02*
X334665Y153699D01*
X335998D01*
X336665Y153032D01*
Y152366D01*
X335998Y151699D01*
X336665Y151033D01*
Y150366D01*
X335998Y149700D01*
X334665D01*
X333999Y150366D01*
Y151033D01*
X334665Y151699D01*
X333999Y152366D01*
Y153032D01*
X334665Y151699D02*
X335998D01*
X253300Y69900D02*
X249301D01*
Y71899D01*
X249968Y72566D01*
X251301D01*
X251967Y71899D01*
Y69900D01*
Y71233D02*
X253300Y72566D01*
X249301Y73899D02*
Y76565D01*
X249968D01*
X252634Y73899D01*
X253300D01*
X261400Y69900D02*
X257401D01*
Y71899D01*
X258068Y72566D01*
X259401D01*
X260067Y71899D01*
Y69900D01*
Y71233D02*
X261400Y72566D01*
X257401Y76565D02*
X258068Y75232D01*
X259401Y73899D01*
X260734D01*
X261400Y74565D01*
Y75898D01*
X260734Y76565D01*
X260067D01*
X259401Y75898D01*
Y73899D01*
X238400Y315000D02*
X234401D01*
Y316999D01*
X235068Y317666D01*
X236401D01*
X237067Y316999D01*
Y315000D01*
Y316333D02*
X238400Y317666D01*
X234401Y321665D02*
Y318999D01*
X236401D01*
X235734Y320332D01*
Y320998D01*
X236401Y321665D01*
X237734D01*
X238400Y320998D01*
Y319665D01*
X237734Y318999D01*
X327600Y268000D02*
Y271999D01*
X329599D01*
X330266Y271332D01*
Y269999D01*
X329599Y269333D01*
X327600D01*
X328933D02*
X330266Y268000D01*
X333598D02*
Y271999D01*
X331599Y269999D01*
X334264D01*
X327600Y259400D02*
Y263399D01*
X329599D01*
X330266Y262732D01*
Y261399D01*
X329599Y260733D01*
X327600D01*
X328933D02*
X330266Y259400D01*
X331599Y262732D02*
X332265Y263399D01*
X333598D01*
X334264Y262732D01*
Y262066D01*
X333598Y261399D01*
X332932D01*
X333598D01*
X334264Y260733D01*
Y260066D01*
X333598Y259400D01*
X332265D01*
X331599Y260066D01*
X258700Y268800D02*
X254701D01*
Y270799D01*
X255368Y271466D01*
X256701D01*
X257367Y270799D01*
Y268800D01*
Y270133D02*
X258700Y271466D01*
Y275465D02*
Y272799D01*
X256034Y275465D01*
X255368D01*
X254701Y274798D01*
Y273465D01*
X255368Y272799D01*
X283700Y250200D02*
Y254199D01*
X285699D01*
X286366Y253532D01*
Y252199D01*
X285699Y251533D01*
X283700D01*
X285033D02*
X286366Y250200D01*
X287699D02*
X289032D01*
X288365D01*
Y254199D01*
X287699Y253532D01*
X82266Y254166D02*
Y256832D01*
X81599Y257499D01*
X80266D01*
X79600Y256832D01*
Y254166D01*
X80266Y253500D01*
X81599D01*
X80933Y254833D02*
X82266Y253500D01*
X81599D02*
X82266Y254166D01*
X85598Y253500D02*
Y257499D01*
X83599Y255499D01*
X86264D01*
X124966Y254166D02*
Y256832D01*
X124299Y257499D01*
X122967D01*
X122300Y256832D01*
Y254166D01*
X122967Y253500D01*
X124299D01*
X123633Y254833D02*
X124966Y253500D01*
X124299D02*
X124966Y254166D01*
X126299Y256832D02*
X126965Y257499D01*
X128298D01*
X128964Y256832D01*
Y256166D01*
X128298Y255499D01*
X127632D01*
X128298D01*
X128964Y254833D01*
Y254166D01*
X128298Y253500D01*
X126965D01*
X126299Y254166D01*
X147166D02*
Y256832D01*
X146499Y257499D01*
X145167D01*
X144500Y256832D01*
Y254166D01*
X145167Y253500D01*
X146499D01*
X145833Y254833D02*
X147166Y253500D01*
X146499D02*
X147166Y254166D01*
X151164Y253500D02*
X148499D01*
X151164Y256166D01*
Y256832D01*
X150498Y257499D01*
X149165D01*
X148499Y256832D01*
X333166Y211566D02*
Y214232D01*
X332499Y214899D01*
X331166D01*
X330500Y214232D01*
Y211566D01*
X331166Y210900D01*
X332499D01*
X331833Y212233D02*
X333166Y210900D01*
X332499D02*
X333166Y211566D01*
X334499Y210900D02*
X335832D01*
X335165D01*
Y214899D01*
X334499Y214232D01*
X23600Y158899D02*
Y154900D01*
X26266D01*
X30264Y158899D02*
X27599D01*
Y154900D01*
X30264D01*
X27599Y156899D02*
X28932D01*
X31597Y158899D02*
Y154900D01*
X33597D01*
X34263Y155567D01*
Y158232D01*
X33597Y158899D01*
X31597D01*
X38262D02*
X36929Y158232D01*
X35596Y156899D01*
Y155567D01*
X36263Y154900D01*
X37595D01*
X38262Y155567D01*
Y156233D01*
X37595Y156899D01*
X35596D01*
X23500Y224899D02*
Y220900D01*
X26166D01*
X30165Y224899D02*
X27499D01*
Y220900D01*
X30165D01*
X27499Y222899D02*
X28832D01*
X31497Y224899D02*
Y220900D01*
X33497D01*
X34163Y221566D01*
Y224232D01*
X33497Y224899D01*
X31497D01*
X38162D02*
X35496D01*
Y222899D01*
X36829Y223566D01*
X37495D01*
X38162Y222899D01*
Y221566D01*
X37495Y220900D01*
X36163D01*
X35496Y221566D01*
X24300Y290999D02*
Y287000D01*
X26966D01*
X30964Y290999D02*
X28299D01*
Y287000D01*
X30964D01*
X28299Y288999D02*
X29632D01*
X32297Y290999D02*
Y287000D01*
X34297D01*
X34963Y287666D01*
Y290332D01*
X34297Y290999D01*
X32297D01*
X38296Y287000D02*
Y290999D01*
X36296Y288999D01*
X38962D01*
X24400Y356799D02*
Y352800D01*
X27066D01*
X31065Y356799D02*
X28399D01*
Y352800D01*
X31065D01*
X28399Y354799D02*
X29732D01*
X32397Y356799D02*
Y352800D01*
X34397D01*
X35063Y353466D01*
Y356132D01*
X34397Y356799D01*
X32397D01*
X36396Y356132D02*
X37063Y356799D01*
X38396D01*
X39062Y356132D01*
Y355466D01*
X38396Y354799D01*
X37729D01*
X38396D01*
X39062Y354133D01*
Y353466D01*
X38396Y352800D01*
X37063D01*
X36396Y353466D01*
X212200Y91899D02*
Y87900D01*
X214866D01*
X218864Y91899D02*
X216199D01*
Y87900D01*
X218864D01*
X216199Y89899D02*
X217532D01*
X220197Y91899D02*
Y87900D01*
X222197D01*
X222863Y88566D01*
Y91232D01*
X222197Y91899D01*
X220197D01*
X226862Y87900D02*
X224196D01*
X226862Y90566D01*
Y91232D01*
X226196Y91899D01*
X224863D01*
X224196Y91232D01*
X212500Y76899D02*
Y72900D01*
X215166D01*
X219164Y76899D02*
X216499D01*
Y72900D01*
X219164D01*
X216499Y74899D02*
X217832D01*
X220497Y76899D02*
Y72900D01*
X222497D01*
X223163Y73566D01*
Y76232D01*
X222497Y76899D01*
X220497D01*
X224496Y72900D02*
X225829D01*
X225163D01*
Y76899D01*
X224496Y76232D01*
X288001Y309900D02*
X292000D01*
Y312566D01*
Y316564D02*
Y313899D01*
X289334Y316564D01*
X288668D01*
X288001Y315898D01*
Y314565D01*
X288668Y313899D01*
X266601Y311233D02*
X270600D01*
Y313899D01*
Y315232D02*
Y316564D01*
Y315898D01*
X266601D01*
X267268Y315232D01*
X158266Y103199D02*
X156933D01*
X157599D01*
Y99866D01*
X156933Y99200D01*
X156266D01*
X155600Y99866D01*
X159599Y99200D02*
X160932D01*
X160265D01*
Y103199D01*
X159599Y102532D01*
X162931Y99200D02*
X164264D01*
X163597D01*
Y103199D01*
X162931Y102532D01*
X249766Y148299D02*
X248433D01*
X249099D01*
Y144966D01*
X248433Y144300D01*
X247766D01*
X247100Y144966D01*
X251099Y144300D02*
X252432D01*
X251765D01*
Y148299D01*
X251099Y147632D01*
X254431D02*
X255097Y148299D01*
X256430D01*
X257097Y147632D01*
Y144966D01*
X256430Y144300D01*
X255097D01*
X254431Y144966D01*
Y147632D01*
X238866Y228699D02*
X237533D01*
X238199D01*
Y225366D01*
X237533Y224700D01*
X236866D01*
X236200Y225366D01*
X240199D02*
X240865Y224700D01*
X242198D01*
X242864Y225366D01*
Y228032D01*
X242198Y228699D01*
X240865D01*
X240199Y228032D01*
Y227366D01*
X240865Y226699D01*
X242864D01*
X365366Y70799D02*
X364033D01*
X364699D01*
Y67466D01*
X364033Y66800D01*
X363366D01*
X362700Y67466D01*
X366699Y70132D02*
X367365Y70799D01*
X368698D01*
X369365Y70132D01*
Y69466D01*
X368698Y68799D01*
X369365Y68133D01*
Y67466D01*
X368698Y66800D01*
X367365D01*
X366699Y67466D01*
Y68133D01*
X367365Y68799D01*
X366699Y69466D01*
Y70132D01*
X367365Y68799D02*
X368698D01*
X44501Y372333D02*
Y371000D01*
Y371666D01*
X47834D01*
X48500Y371000D01*
Y370334D01*
X47834Y369667D01*
X44501Y373666D02*
Y376332D01*
X45168D01*
X47834Y373666D01*
X48500D01*
X114001Y372333D02*
Y371000D01*
Y371666D01*
X117333D01*
X118000Y371000D01*
Y370334D01*
X117333Y369667D01*
X114001Y376332D02*
X114668Y374999D01*
X116001Y373666D01*
X117333D01*
X118000Y374332D01*
Y375665D01*
X117333Y376332D01*
X116667D01*
X116001Y375665D01*
Y373666D01*
X141101Y25066D02*
Y23733D01*
Y24399D01*
X144433D01*
X145100Y23733D01*
Y23066D01*
X144433Y22400D01*
X141101Y29065D02*
Y26399D01*
X143101D01*
X142434Y27732D01*
Y28398D01*
X143101Y29065D01*
X144433D01*
X145100Y28398D01*
Y27065D01*
X144433Y26399D01*
X243101Y24866D02*
Y23533D01*
Y24199D01*
X246434D01*
X247100Y23533D01*
Y22866D01*
X246434Y22200D01*
X247100Y28198D02*
X243101D01*
X245101Y26199D01*
Y28864D01*
X61801Y96866D02*
Y95533D01*
Y96199D01*
X65134D01*
X65800Y95533D01*
Y94866D01*
X65134Y94200D01*
X62468Y98199D02*
X61801Y98865D01*
Y100198D01*
X62468Y100865D01*
X63134D01*
X63801Y100198D01*
Y99532D01*
Y100198D01*
X64467Y100865D01*
X65134D01*
X65800Y100198D01*
Y98865D01*
X65134Y98199D01*
X178801Y372333D02*
Y371000D01*
Y371666D01*
X182133D01*
X182800Y371000D01*
Y370334D01*
X182133Y369667D01*
X182800Y376332D02*
Y373666D01*
X180134Y376332D01*
X179468D01*
X178801Y375665D01*
Y374332D01*
X179468Y373666D01*
X253701Y373666D02*
Y372333D01*
Y372999D01*
X257034D01*
X257700Y372333D01*
Y371666D01*
X257034Y371000D01*
X257700Y374999D02*
Y376332D01*
Y375665D01*
X253701D01*
X254368Y374999D01*
X213800Y182399D02*
X215133D01*
X214466D01*
Y178400D01*
X213800D01*
X215133D01*
X219798Y181732D02*
X219132Y182399D01*
X217799D01*
X217132Y181732D01*
Y179067D01*
X217799Y178400D01*
X219132D01*
X219798Y179067D01*
X223130Y178400D02*
Y182399D01*
X221131Y180399D01*
X223797D01*
X80500Y182499D02*
X81833D01*
X81166D01*
Y178500D01*
X80500D01*
X81833D01*
X86498Y181832D02*
X85832Y182499D01*
X84499D01*
X83832Y181832D01*
Y179166D01*
X84499Y178500D01*
X85832D01*
X86498Y179166D01*
X87831Y181832D02*
X88497Y182499D01*
X89830D01*
X90497Y181832D01*
Y181166D01*
X89830Y180499D01*
X89164D01*
X89830D01*
X90497Y179833D01*
Y179166D01*
X89830Y178500D01*
X88497D01*
X87831Y179166D01*
X197100Y237699D02*
X198433D01*
X197766D01*
Y233700D01*
X197100D01*
X198433D01*
X203098Y237032D02*
X202432Y237699D01*
X201099D01*
X200432Y237032D01*
Y234366D01*
X201099Y233700D01*
X202432D01*
X203098Y234366D01*
X207097Y233700D02*
X204431D01*
X207097Y236366D01*
Y237032D01*
X206430Y237699D01*
X205097D01*
X204431Y237032D01*
X274400Y296699D02*
X275733D01*
X275066D01*
Y292700D01*
X274400D01*
X275733D01*
X280398Y296032D02*
X279732Y296699D01*
X278399D01*
X277732Y296032D01*
Y293366D01*
X278399Y292700D01*
X279732D01*
X280398Y293366D01*
X281731Y292700D02*
X283064D01*
X282397D01*
Y296699D01*
X281731Y296032D01*
X274800Y54599D02*
Y50600D01*
X276799D01*
X277466Y51266D01*
Y53932D01*
X276799Y54599D01*
X274800D01*
X281465Y53932D02*
X280798Y54599D01*
X279465D01*
X278799Y53932D01*
Y51266D01*
X279465Y50600D01*
X280798D01*
X281465Y51266D01*
X282797Y50600D02*
X284130D01*
X283464D01*
Y54599D01*
X282797Y53932D01*
X101400Y257499D02*
Y253500D01*
X103399D01*
X104066Y254166D01*
Y256832D01*
X103399Y257499D01*
X101400D01*
X107398Y253500D02*
Y257499D01*
X105399Y255499D01*
X108064D01*
X166200Y257499D02*
Y253500D01*
X168199D01*
X168866Y254166D01*
Y256832D01*
X168199Y257499D01*
X166200D01*
X170199Y256832D02*
X170865Y257499D01*
X172198D01*
X172864Y256832D01*
Y256166D01*
X172198Y255499D01*
X171532D01*
X172198D01*
X172864Y254833D01*
Y254166D01*
X172198Y253500D01*
X170865D01*
X170199Y254166D01*
X329100Y187799D02*
Y183800D01*
X331099D01*
X331766Y184467D01*
Y187132D01*
X331099Y187799D01*
X329100D01*
X335765Y183800D02*
X333099D01*
X335765Y186466D01*
Y187132D01*
X335098Y187799D01*
X333765D01*
X333099Y187132D01*
X191966Y189432D02*
X191299Y190099D01*
X189966D01*
X189300Y189432D01*
Y186767D01*
X189966Y186100D01*
X191299D01*
X191966Y186767D01*
X195965Y186100D02*
X193299D01*
X195965Y188766D01*
Y189432D01*
X195298Y190099D01*
X193965D01*
X193299Y189432D01*
X199297Y186100D02*
Y190099D01*
X197297Y188099D01*
X199963D01*
X183668Y223466D02*
X183001Y222799D01*
Y221466D01*
X183668Y220800D01*
X186334D01*
X187000Y221466D01*
Y222799D01*
X186334Y223466D01*
X187000Y227465D02*
Y224799D01*
X184334Y227465D01*
X183668D01*
X183001Y226798D01*
Y225465D01*
X183668Y224799D01*
Y228797D02*
X183001Y229464D01*
Y230797D01*
X183668Y231463D01*
X184334D01*
X185001Y230797D01*
Y230130D01*
Y230797D01*
X185667Y231463D01*
X186334D01*
X187000Y230797D01*
Y229464D01*
X186334Y228797D01*
X147566Y133432D02*
X146899Y134099D01*
X145566D01*
X144900Y133432D01*
Y130766D01*
X145566Y130100D01*
X146899D01*
X147566Y130766D01*
X151565Y130100D02*
X148899D01*
X151565Y132766D01*
Y133432D01*
X150898Y134099D01*
X149565D01*
X148899Y133432D01*
X155563Y130100D02*
X152897D01*
X155563Y132766D01*
Y133432D01*
X154897Y134099D01*
X153564D01*
X152897Y133432D01*
X148966Y141032D02*
X148299Y141699D01*
X146967D01*
X146300Y141032D01*
Y138366D01*
X146967Y137700D01*
X148299D01*
X148966Y138366D01*
X152964Y137700D02*
X150299D01*
X152964Y140366D01*
Y141032D01*
X152298Y141699D01*
X150965D01*
X150299Y141032D01*
X154297Y137700D02*
X155630D01*
X154964D01*
Y141699D01*
X154297Y141032D01*
X192066Y196032D02*
X191399Y196699D01*
X190067D01*
X189400Y196032D01*
Y193367D01*
X190067Y192700D01*
X191399D01*
X192066Y193367D01*
X196064Y192700D02*
X193399D01*
X196064Y195366D01*
Y196032D01*
X195398Y196699D01*
X194065D01*
X193399Y196032D01*
X197397D02*
X198064Y196699D01*
X199397D01*
X200063Y196032D01*
Y193367D01*
X199397Y192700D01*
X198064D01*
X197397Y193367D01*
Y196032D01*
X231068Y168866D02*
X230401Y168199D01*
Y166867D01*
X231068Y166200D01*
X233734D01*
X234400Y166867D01*
Y168199D01*
X233734Y168866D01*
X234400Y170199D02*
Y171532D01*
Y170865D01*
X230401D01*
X231068Y170199D01*
X233734Y173531D02*
X234400Y174197D01*
Y175530D01*
X233734Y176197D01*
X231068D01*
X230401Y175530D01*
Y174197D01*
X231068Y173531D01*
X231734D01*
X232401Y174197D01*
Y176197D01*
X208466Y122532D02*
X207799Y123199D01*
X206466D01*
X205800Y122532D01*
Y119867D01*
X206466Y119200D01*
X207799D01*
X208466Y119867D01*
X209799Y119200D02*
X211132D01*
X210465D01*
Y123199D01*
X209799Y122532D01*
X213131D02*
X213797Y123199D01*
X215130D01*
X215797Y122532D01*
Y121866D01*
X215130Y121199D01*
X215797Y120533D01*
Y119867D01*
X215130Y119200D01*
X213797D01*
X213131Y119867D01*
Y120533D01*
X213797Y121199D01*
X213131Y121866D01*
Y122532D01*
X213797Y121199D02*
X215130D01*
X181566Y122432D02*
X180899Y123099D01*
X179567D01*
X178900Y122432D01*
Y119766D01*
X179567Y119100D01*
X180899D01*
X181566Y119766D01*
X182899Y119100D02*
X184232D01*
X183565D01*
Y123099D01*
X182899Y122432D01*
X186231Y123099D02*
X188897D01*
Y122432D01*
X186231Y119766D01*
Y119100D01*
X322066Y79732D02*
X321399Y80399D01*
X320066D01*
X319400Y79732D01*
Y77066D01*
X320066Y76400D01*
X321399D01*
X322066Y77066D01*
X323399Y76400D02*
X324732D01*
X324065D01*
Y80399D01*
X323399Y79732D01*
X329397Y80399D02*
X328064Y79732D01*
X326731Y78399D01*
Y77066D01*
X327397Y76400D01*
X328730D01*
X329397Y77066D01*
Y77733D01*
X328730Y78399D01*
X326731D01*
X133268Y152266D02*
X132601Y151599D01*
Y150267D01*
X133268Y149600D01*
X135933D01*
X136600Y150267D01*
Y151599D01*
X135933Y152266D01*
X136600Y153599D02*
Y154932D01*
Y154265D01*
X132601D01*
X133268Y153599D01*
X132601Y159597D02*
Y156931D01*
X134601D01*
X133934Y158264D01*
Y158930D01*
X134601Y159597D01*
X135933D01*
X136600Y158930D01*
Y157597D01*
X135933Y156931D01*
X314168Y310266D02*
X313501Y309599D01*
Y308266D01*
X314168Y307600D01*
X316834D01*
X317500Y308266D01*
Y309599D01*
X316834Y310266D01*
X317500Y311599D02*
Y312932D01*
Y312265D01*
X313501D01*
X314168Y311599D01*
X317500Y316930D02*
X313501D01*
X315501Y314931D01*
Y317597D01*
X28266Y28832D02*
X27599Y29499D01*
X26266D01*
X25600Y28832D01*
Y26166D01*
X26266Y25500D01*
X27599D01*
X28266Y26166D01*
X29599Y25500D02*
X30932D01*
X30265D01*
Y29499D01*
X29599Y28832D01*
X35597Y25500D02*
X32931D01*
X35597Y28166D01*
Y28832D01*
X34930Y29499D01*
X33597D01*
X32931Y28832D01*
X331266Y136432D02*
X330599Y137099D01*
X329266D01*
X328600Y136432D01*
Y133766D01*
X329266Y133100D01*
X330599D01*
X331266Y133766D01*
X332599Y133100D02*
X333932D01*
X333265D01*
Y137099D01*
X332599Y136432D01*
X335931Y133100D02*
X337264D01*
X336597D01*
Y137099D01*
X335931Y136432D01*
X361868Y169866D02*
X361201Y169199D01*
Y167867D01*
X361868Y167200D01*
X364534D01*
X365200Y167867D01*
Y169199D01*
X364534Y169866D01*
X365200Y171199D02*
Y172532D01*
Y171865D01*
X361201D01*
X361868Y171199D01*
Y174531D02*
X361201Y175197D01*
Y176530D01*
X361868Y177197D01*
X362534D01*
X363201Y176530D01*
Y175864D01*
Y176530D01*
X363867Y177197D01*
X364534D01*
X365200Y176530D01*
Y175197D01*
X364534Y174531D01*
X279066Y81032D02*
X278399Y81699D01*
X277066D01*
X276400Y81032D01*
Y78366D01*
X277066Y77700D01*
X278399D01*
X279066Y78366D01*
X280399D02*
X281065Y77700D01*
X282398D01*
X283065Y78366D01*
Y81032D01*
X282398Y81699D01*
X281065D01*
X280399Y81032D01*
Y80366D01*
X281065Y79699D01*
X283065D01*
X266268Y72566D02*
X265601Y71899D01*
Y70566D01*
X266268Y69900D01*
X268934D01*
X269600Y70566D01*
Y71899D01*
X268934Y72566D01*
X266268Y73899D02*
X265601Y74565D01*
Y75898D01*
X266268Y76565D01*
X266934D01*
X267601Y75898D01*
X268267Y76565D01*
X268934D01*
X269600Y75898D01*
Y74565D01*
X268934Y73899D01*
X268267D01*
X267601Y74565D01*
X266934Y73899D01*
X266268D01*
X267601Y74565D02*
Y75898D01*
X226468Y248966D02*
X225801Y248299D01*
Y246966D01*
X226468Y246300D01*
X229134D01*
X229800Y246966D01*
Y248299D01*
X229134Y248966D01*
X225801Y250299D02*
Y252964D01*
X226468D01*
X229134Y250299D01*
X229800D01*
X201666Y273132D02*
X200999Y273799D01*
X199667D01*
X199000Y273132D01*
Y270466D01*
X199667Y269800D01*
X200999D01*
X201666Y270466D01*
X205664Y273799D02*
X204332Y273132D01*
X202999Y271799D01*
Y270466D01*
X203665Y269800D01*
X204998D01*
X205664Y270466D01*
Y271133D01*
X204998Y271799D01*
X202999D01*
X277468Y312566D02*
X276801Y311899D01*
Y310566D01*
X277468Y309900D01*
X280134D01*
X280800Y310566D01*
Y311899D01*
X280134Y312566D01*
X276801Y316564D02*
Y313899D01*
X278801D01*
X278134Y315232D01*
Y315898D01*
X278801Y316564D01*
X280134D01*
X280800Y315898D01*
Y314565D01*
X280134Y313899D01*
X255268Y312566D02*
X254601Y311899D01*
Y310566D01*
X255268Y309900D01*
X257934D01*
X258600Y310566D01*
Y311899D01*
X257934Y312566D01*
X258600Y315898D02*
X254601D01*
X256601Y313899D01*
Y316564D01*
X303468Y271466D02*
X302801Y270799D01*
Y269466D01*
X303468Y268800D01*
X306134D01*
X306800Y269466D01*
Y270799D01*
X306134Y271466D01*
X303468Y272799D02*
X302801Y273465D01*
Y274798D01*
X303468Y275465D01*
X304134D01*
X304801Y274798D01*
Y274132D01*
Y274798D01*
X305467Y275465D01*
X306134D01*
X306800Y274798D01*
Y273465D01*
X306134Y272799D01*
X286266Y236332D02*
X285599Y236999D01*
X284266D01*
X283600Y236332D01*
Y233666D01*
X284266Y233000D01*
X285599D01*
X286266Y233666D01*
X287599Y233000D02*
X288932D01*
X288265D01*
Y236999D01*
X287599Y236332D01*
X363966Y337432D02*
X363299Y338099D01*
X361966D01*
X361300Y337432D01*
Y336766D01*
X361966Y336099D01*
X363299D01*
X363966Y335433D01*
Y334766D01*
X363299Y334100D01*
X361966D01*
X361300Y334766D01*
X367965Y334100D02*
X365299D01*
X367965Y336766D01*
Y337432D01*
X367298Y338099D01*
X365965D01*
X365299Y337432D01*
X292368Y271466D02*
X291701Y270799D01*
Y269466D01*
X292368Y268800D01*
X295034D01*
X295700Y269466D01*
Y270799D01*
X295034Y271466D01*
X295700Y275465D02*
Y272799D01*
X293034Y275465D01*
X292368D01*
X291701Y274798D01*
Y273465D01*
X292368Y272799D01*
X59366Y254166D02*
Y256832D01*
X58699Y257499D01*
X57366D01*
X56700Y256832D01*
Y254166D01*
X57366Y253500D01*
X58699D01*
X58033Y254833D02*
X59366Y253500D01*
X58699D02*
X59366Y254166D01*
X63364Y257499D02*
X60699D01*
Y255499D01*
X62032Y256166D01*
X62698D01*
X63364Y255499D01*
Y254166D01*
X62698Y253500D01*
X61365D01*
X60699Y254166D01*
X96866Y124632D02*
X96199Y125299D01*
X94866D01*
X94200Y124632D01*
Y121967D01*
X94866Y121300D01*
X96199D01*
X96866Y121967D01*
X98199Y121300D02*
X99532D01*
X98865D01*
Y125299D01*
X98199Y124632D01*
X101531D02*
X102197Y125299D01*
X103530D01*
X104197Y124632D01*
Y121967D01*
X103530Y121300D01*
X102197D01*
X101531Y121967D01*
Y124632D01*
X63000Y169099D02*
Y165100D01*
X64999D01*
X65666Y165767D01*
Y168432D01*
X64999Y169099D01*
X63000D01*
X66999Y165100D02*
X68332D01*
X67665D01*
Y169099D01*
X66999Y168432D01*
M02*
