G04 Layer_Color=2752767*
%FSLAX25Y25*%
%MOIN*%
G70*
G01*
G75*
%ADD115C,0.00200*%
%ADD116C,0.00267*%
%ADD117C,0.00133*%
D115*
X361980Y246892D02*
Y248492D01*
X363580D01*
Y246892D01*
X361980D01*
X302924Y222482D02*
Y224082D01*
X304524D01*
Y222482D01*
X302924D01*
X10000Y9200D02*
X9200Y10800D01*
X10800D01*
X10000Y9200D01*
Y369041D02*
X9200Y370641D01*
X10800D01*
X10000Y369041D01*
X361281Y264200D02*
X360481Y265800D01*
X362081D01*
X361281Y264200D01*
Y124200D02*
X360481Y125800D01*
X362081D01*
X361281Y124200D01*
X346047Y117500D02*
X346447Y117900D01*
X346847D01*
X346447Y118300D01*
X346847Y118700D01*
X346447D01*
X346047Y119100D01*
X345647Y118700D01*
X345247D01*
X345647Y118300D01*
X345247Y117900D01*
X345647D01*
X346047Y117500D01*
X320457D02*
X320857Y117900D01*
X321257D01*
X320857Y118300D01*
X321257Y118700D01*
X320857D01*
X320457Y119100D01*
X320057Y118700D01*
X319657D01*
X320057Y118300D01*
X319657Y117900D01*
X320057D01*
X320457Y117500D01*
X346047Y99783D02*
X346447Y100183D01*
X346847D01*
X346447Y100584D01*
X346847Y100984D01*
X346447D01*
X346047Y101383D01*
X345647Y100984D01*
X345247D01*
X345647Y100584D01*
X345247Y100183D01*
X345647D01*
X346047Y99783D01*
X320457D02*
X320857Y100183D01*
X321257D01*
X320857Y100584D01*
X321257Y100984D01*
X320857D01*
X320457Y101383D01*
X320057Y100984D01*
X319657D01*
X320057Y100584D01*
X319657Y100183D01*
X320057D01*
X320457Y99783D01*
X302924Y346126D02*
Y347726D01*
X304524D01*
Y346126D01*
X302924D01*
X361980Y370535D02*
Y372135D01*
X363580D01*
Y370535D01*
X361980D01*
X330097Y296775D02*
X330497Y297575D01*
X330097Y298375D01*
X330897Y297975D01*
X331697Y298375D01*
X331297Y297575D01*
X331697Y296775D01*
X330897Y297175D01*
X330097Y296775D01*
X340097D02*
X340497Y297575D01*
X340097Y298375D01*
X340897Y297975D01*
X341697Y298375D01*
X341297Y297575D01*
X341697Y296775D01*
X340897Y297175D01*
X340097Y296775D01*
X350097D02*
X350497Y297575D01*
X350097Y298375D01*
X350897Y297975D01*
X351697Y298375D01*
X351297Y297575D01*
X351697Y296775D01*
X350897Y297175D01*
X350097Y296775D01*
X360097D02*
X360497Y297575D01*
X360097Y298375D01*
X360897Y297975D01*
X361697Y298375D01*
X361297Y297575D01*
X361697Y296775D01*
X360897Y297175D01*
X360097Y296775D01*
X330097Y326775D02*
X330497Y327575D01*
X330097Y328375D01*
X330897Y327975D01*
X331697Y328375D01*
X331297Y327575D01*
X331697Y326775D01*
X330897Y327175D01*
X330097Y326775D01*
X340097D02*
X340497Y327575D01*
X340097Y328375D01*
X340897Y327975D01*
X341697Y328375D01*
X341297Y327575D01*
X341697Y326775D01*
X340897Y327175D01*
X340097Y326775D01*
X350097D02*
X350497Y327575D01*
X350097Y328375D01*
X350897Y327975D01*
X351697Y328375D01*
X351297Y327575D01*
X351697Y326775D01*
X350897Y327175D01*
X350097Y326775D01*
X360097D02*
X360497Y327575D01*
X360097Y328375D01*
X360897Y327975D01*
X361697Y328375D01*
X361297Y327575D01*
X361697Y326775D01*
X360897Y327175D01*
X360097Y326775D01*
X268384Y359912D02*
Y359512D01*
X269184D01*
Y359912D01*
X269584D01*
Y360712D01*
X269184D01*
Y361112D01*
X268384D01*
Y360712D01*
X267984D01*
Y359912D01*
X268384D01*
X278226D02*
Y359512D01*
X279026D01*
Y359912D01*
X279426D01*
Y360712D01*
X279026D01*
Y361112D01*
X278226D01*
Y360712D01*
X277826D01*
Y359912D01*
X278226D01*
X223218Y359861D02*
Y359461D01*
X224018D01*
Y359861D01*
X224418D01*
Y360661D01*
X224018D01*
Y361061D01*
X223218D01*
Y360661D01*
X222818D01*
Y359861D01*
X223218D01*
X213376D02*
Y359461D01*
X214176D01*
Y359861D01*
X214576D01*
Y360661D01*
X214176D01*
Y361061D01*
X213376D01*
Y360661D01*
X212976D01*
Y359861D01*
X213376D01*
X203533D02*
Y359461D01*
X204333D01*
Y359861D01*
X204733D01*
Y360661D01*
X204333D01*
Y361061D01*
X203533D01*
Y360661D01*
X203133D01*
Y359861D01*
X203533D01*
X193691D02*
Y359461D01*
X194491D01*
Y359861D01*
X194891D01*
Y360661D01*
X194491D01*
Y361061D01*
X193691D01*
Y360661D01*
X193291D01*
Y359861D01*
X193691D01*
X258600Y12700D02*
Y12300D01*
X259400D01*
Y12700D01*
X259800D01*
Y13500D01*
X259400D01*
Y13900D01*
X258600D01*
Y13500D01*
X258200D01*
Y12700D01*
X258600D01*
X268443D02*
Y12300D01*
X269243D01*
Y12700D01*
X269642D01*
Y13500D01*
X269243D01*
Y13900D01*
X268443D01*
Y13500D01*
X268042D01*
Y12700D01*
X268443D01*
X215455D02*
Y12300D01*
X216255D01*
Y12700D01*
X216655D01*
Y13500D01*
X216255D01*
Y13900D01*
X215455D01*
Y13500D01*
X215055D01*
Y12700D01*
X215455D01*
X205613D02*
Y12300D01*
X206413D01*
Y12700D01*
X206813D01*
Y13500D01*
X206413D01*
Y13900D01*
X205613D01*
Y13500D01*
X205213D01*
Y12700D01*
X205613D01*
X195770D02*
Y12300D01*
X196570D01*
Y12700D01*
X196970D01*
Y13500D01*
X196570D01*
Y13900D01*
X195770D01*
Y13500D01*
X195370D01*
Y12700D01*
X195770D01*
X185928D02*
Y12300D01*
X186728D01*
Y12700D01*
X187128D01*
Y13500D01*
X186728D01*
Y13900D01*
X185928D01*
Y13500D01*
X185528D01*
Y12700D01*
X185928D01*
X176085D02*
Y12300D01*
X176885D01*
Y12700D01*
X177285D01*
Y13500D01*
X176885D01*
Y13900D01*
X176085D01*
Y13500D01*
X175685D01*
Y12700D01*
X176085D01*
X166243D02*
Y12300D01*
X167043D01*
Y12700D01*
X167443D01*
Y13500D01*
X167043D01*
Y13900D01*
X166243D01*
Y13500D01*
X165842D01*
Y12700D01*
X166243D01*
X156400D02*
Y12300D01*
X157200D01*
Y12700D01*
X157600D01*
Y13500D01*
X157200D01*
Y13900D01*
X156400D01*
Y13500D01*
X156000D01*
Y12700D01*
X156400D01*
X158368Y359861D02*
Y359461D01*
X159168D01*
Y359861D01*
X159568D01*
Y360661D01*
X159168D01*
Y361061D01*
X158368D01*
Y360661D01*
X157968D01*
Y359861D01*
X158368D01*
X148525D02*
Y359461D01*
X149325D01*
Y359861D01*
X149725D01*
Y360661D01*
X149325D01*
Y361061D01*
X148525D01*
Y360661D01*
X148125D01*
Y359861D01*
X148525D01*
X138683D02*
Y359461D01*
X139483D01*
Y359861D01*
X139883D01*
Y360661D01*
X139483D01*
Y361061D01*
X138683D01*
Y360661D01*
X138283D01*
Y359861D01*
X138683D01*
X128840D02*
Y359461D01*
X129640D01*
Y359861D01*
X130040D01*
Y360661D01*
X129640D01*
Y361061D01*
X128840D01*
Y360661D01*
X128440D01*
Y359861D01*
X128840D01*
X98570Y359462D02*
X98970D01*
X99370Y359862D01*
X99770Y359462D01*
X100170D01*
Y359862D01*
X99770Y360262D01*
X100170Y360662D01*
Y361062D01*
X99770D01*
X99370Y360662D01*
X98970Y361062D01*
X98570D01*
Y360662D01*
X98970Y360262D01*
X98570Y359862D01*
Y359462D01*
X88728D02*
X89128D01*
X89528Y359862D01*
X89928Y359462D01*
X90328D01*
Y359862D01*
X89928Y360262D01*
X90328Y360662D01*
Y361062D01*
X89928D01*
X89528Y360662D01*
X89128Y361062D01*
X88728D01*
Y360662D01*
X89128Y360262D01*
X88728Y359862D01*
Y359462D01*
X78885D02*
X79285D01*
X79685Y359862D01*
X80085Y359462D01*
X80485D01*
Y359862D01*
X80085Y360262D01*
X80485Y360662D01*
Y361062D01*
X80085D01*
X79685Y360662D01*
X79285Y361062D01*
X78885D01*
Y360662D01*
X79285Y360262D01*
X78885Y359862D01*
Y359462D01*
X69042D02*
X69442D01*
X69842Y359862D01*
X70243Y359462D01*
X70643D01*
Y359862D01*
X70243Y360262D01*
X70643Y360662D01*
Y361062D01*
X70243D01*
X69842Y360662D01*
X69442Y361062D01*
X69042D01*
Y360662D01*
X69442Y360262D01*
X69042Y359862D01*
Y359462D01*
X59200D02*
X59600D01*
X60000Y359862D01*
X60400Y359462D01*
X60800D01*
Y359862D01*
X60400Y360262D01*
X60800Y360662D01*
Y361062D01*
X60400D01*
X60000Y360662D01*
X59600Y361062D01*
X59200D01*
Y360662D01*
X59600Y360262D01*
X59200Y359862D01*
Y359462D01*
X319034Y19953D02*
X319834Y20753D01*
X320634Y19953D01*
X319834Y19153D01*
X319034Y19953D01*
X345018D02*
X345818Y20753D01*
X346618Y19953D01*
X345818Y19153D01*
X345018Y19953D01*
X251300Y155400D02*
Y157000D01*
X252900D01*
Y155400D01*
X251300D01*
X251700Y155800D02*
Y156600D01*
X252500D01*
Y155800D01*
X251700D01*
X251300Y165400D02*
Y167000D01*
X252900D01*
Y165400D01*
X251300D01*
X251700Y165800D02*
Y166600D01*
X252500D01*
Y165800D01*
X251700D01*
X154500Y109600D02*
Y111200D01*
X156100D01*
Y109600D01*
X154500D01*
X154900Y110000D02*
Y110800D01*
X155700D01*
Y110000D01*
X154900D01*
X164500Y109600D02*
Y111200D01*
X166100D01*
Y109600D01*
X164500D01*
X164900Y110000D02*
Y110800D01*
X165700D01*
Y110000D01*
X164900D01*
X40401Y70660D02*
X39601Y72260D01*
X41201D01*
X40401Y70660D01*
Y71060D02*
X40001Y71860D01*
X40801D01*
X40401Y71060D01*
X30401Y70660D02*
X29601Y72260D01*
X31201D01*
X30401Y70660D01*
Y71060D02*
X30001Y71860D01*
X30801D01*
X30401Y71060D01*
X20401Y70660D02*
X19601Y72260D01*
X21201D01*
X20401Y70660D01*
Y71060D02*
X20001Y71860D01*
X20801D01*
X20401Y71060D01*
X160900Y152857D02*
X161300Y153258D01*
X161700D01*
X161300Y153657D01*
X161700Y154058D01*
X161300D01*
X160900Y154457D01*
X160500Y154058D01*
X160100D01*
X160500Y153657D01*
X160100Y153258D01*
X160500D01*
X160900Y152857D01*
Y153258D02*
X161100Y153457D01*
X161300D01*
X161100Y153657D01*
X161300Y153858D01*
X161100D01*
X160900Y154058D01*
X160700Y153858D01*
X160500D01*
X160700Y153657D01*
X160500Y153457D01*
X160700D01*
X160900Y153258D01*
Y162700D02*
X161300Y163100D01*
X161700D01*
X161300Y163500D01*
X161700Y163900D01*
X161300D01*
X160900Y164300D01*
X160500Y163900D01*
X160100D01*
X160500Y163500D01*
X160100Y163100D01*
X160500D01*
X160900Y162700D01*
Y163100D02*
X161100Y163300D01*
X161300D01*
X161100Y163500D01*
X161300Y163700D01*
X161100D01*
X160900Y163900D01*
X160700Y163700D01*
X160500D01*
X160700Y163500D01*
X160500Y163300D01*
X160700D01*
X160900Y163100D01*
Y172543D02*
X161300Y172942D01*
X161700D01*
X161300Y173343D01*
X161700Y173742D01*
X161300D01*
X160900Y174143D01*
X160500Y173742D01*
X160100D01*
X160500Y173343D01*
X160100Y172942D01*
X160500D01*
X160900Y172543D01*
Y172942D02*
X161100Y173143D01*
X161300D01*
X161100Y173343D01*
X161300Y173542D01*
X161100D01*
X160900Y173742D01*
X160700Y173542D01*
X160500D01*
X160700Y173343D01*
X160500Y173143D01*
X160700D01*
X160900Y172942D01*
X71595Y260666D02*
X71995Y261466D01*
X71595Y262266D01*
X72395Y261866D01*
X73195Y262266D01*
X72795Y261466D01*
X73195Y260666D01*
X72395Y261066D01*
X71595Y260666D01*
X71995Y261066D02*
X72195Y261466D01*
X71995Y261866D01*
X72395Y261666D01*
X72795Y261866D01*
X72595Y261466D01*
X72795Y261066D01*
X72395Y261266D01*
X71995Y261066D01*
X93297Y260666D02*
X93697Y261466D01*
X93297Y262266D01*
X94097Y261866D01*
X94897Y262266D01*
X94497Y261466D01*
X94897Y260666D01*
X94097Y261066D01*
X93297Y260666D01*
X93697Y261066D02*
X93897Y261466D01*
X93697Y261866D01*
X94097Y261666D01*
X94497Y261866D01*
X94297Y261466D01*
X94497Y261066D01*
X94097Y261266D01*
X93697Y261066D01*
X192347Y194200D02*
X192747Y195000D01*
X192347Y195800D01*
X193147Y195400D01*
X193947Y195800D01*
X193547Y195000D01*
X193947Y194200D01*
X193147Y194600D01*
X192347Y194200D01*
X192747Y194600D02*
X192947Y195000D01*
X192747Y195400D01*
X193147Y195200D01*
X193547Y195400D01*
X193347Y195000D01*
X193547Y194600D01*
X193147Y194800D01*
X192747Y194600D01*
X221300Y206600D02*
X221700Y207400D01*
X221300Y208200D01*
X222100Y207800D01*
X222900Y208200D01*
X222500Y207400D01*
X222900Y206600D01*
X222100Y207000D01*
X221300Y206600D01*
X221700Y207000D02*
X221900Y207400D01*
X221700Y207800D01*
X222100Y207600D01*
X222500Y207800D01*
X222300Y207400D01*
X222500Y207000D01*
X222100Y207200D01*
X221700Y207000D01*
X195400Y174200D02*
X195800Y175000D01*
X195400Y175800D01*
X196200Y175400D01*
X197000Y175800D01*
X196600Y175000D01*
X197000Y174200D01*
X196200Y174600D01*
X195400Y174200D01*
X195800Y174600D02*
X196000Y175000D01*
X195800Y175400D01*
X196200Y175200D01*
X196600Y175400D01*
X196400Y175000D01*
X196600Y174600D01*
X196200Y174800D01*
X195800Y174600D01*
X189200Y187200D02*
X189600Y188000D01*
X189200Y188800D01*
X190000Y188400D01*
X190800Y188800D01*
X190400Y188000D01*
X190800Y187200D01*
X190000Y187600D01*
X189200Y187200D01*
X189600Y187600D02*
X189800Y188000D01*
X189600Y188400D01*
X190000Y188200D01*
X190400Y188400D01*
X190200Y188000D01*
X190400Y187600D01*
X190000Y187800D01*
X189600Y187600D01*
X172200D02*
X172600Y188400D01*
X172200Y189200D01*
X173000Y188800D01*
X173800Y189200D01*
X173400Y188400D01*
X173800Y187600D01*
X173000Y188000D01*
X172200Y187600D01*
X172600Y188000D02*
X172800Y188400D01*
X172600Y188800D01*
X173000Y188600D01*
X173400Y188800D01*
X173200Y188400D01*
X173400Y188000D01*
X173000Y188200D01*
X172600Y188000D01*
X176800Y178800D02*
X177200Y179600D01*
X176800Y180400D01*
X177600Y180000D01*
X178400Y180400D01*
X178000Y179600D01*
X178400Y178800D01*
X177600Y179200D01*
X176800Y178800D01*
X177200Y179200D02*
X177400Y179600D01*
X177200Y180000D01*
X177600Y179800D01*
X178000Y180000D01*
X177800Y179600D01*
X178000Y179200D01*
X177600Y179400D01*
X177200Y179200D01*
X188100Y174200D02*
X188500Y175000D01*
X188100Y175800D01*
X188900Y175400D01*
X189700Y175800D01*
X189300Y175000D01*
X189700Y174200D01*
X188900Y174600D01*
X188100Y174200D01*
X188500Y174600D02*
X188700Y175000D01*
X188500Y175400D01*
X188900Y175200D01*
X189300Y175400D01*
X189100Y175000D01*
X189300Y174600D01*
X188900Y174800D01*
X188500Y174600D01*
X183111Y174212D02*
X183511Y175012D01*
X183111Y175812D01*
X183911Y175412D01*
X184711Y175812D01*
X184311Y175012D01*
X184711Y174212D01*
X183911Y174612D01*
X183111Y174212D01*
X183511Y174612D02*
X183711Y175012D01*
X183511Y175412D01*
X183911Y175212D01*
X184311Y175412D01*
X184111Y175012D01*
X184311Y174612D01*
X183911Y174812D01*
X183511Y174612D01*
X210700Y152800D02*
X211100Y153600D01*
X210700Y154400D01*
X211500Y154000D01*
X212300Y154400D01*
X211900Y153600D01*
X212300Y152800D01*
X211500Y153200D01*
X210700Y152800D01*
X211100Y153200D02*
X211300Y153600D01*
X211100Y154000D01*
X211500Y153800D01*
X211900Y154000D01*
X211700Y153600D01*
X211900Y153200D01*
X211500Y153400D01*
X211100Y153200D01*
X210700Y156500D02*
X211100Y157300D01*
X210700Y158100D01*
X211500Y157700D01*
X212300Y158100D01*
X211900Y157300D01*
X212300Y156500D01*
X211500Y156900D01*
X210700Y156500D01*
X211100Y156900D02*
X211300Y157300D01*
X211100Y157700D01*
X211500Y157500D01*
X211900Y157700D01*
X211700Y157300D01*
X211900Y156900D01*
X211500Y157100D01*
X211100Y156900D01*
X147600Y128900D02*
X148000Y129700D01*
X147600Y130500D01*
X148400Y130100D01*
X149200Y130500D01*
X148800Y129700D01*
X149200Y128900D01*
X148400Y129300D01*
X147600Y128900D01*
X148000Y129300D02*
X148200Y129700D01*
X148000Y130100D01*
X148400Y129900D01*
X148800Y130100D01*
X148600Y129700D01*
X148800Y129300D01*
X148400Y129500D01*
X148000Y129300D01*
X187500Y139000D02*
X187900Y139800D01*
X187500Y140600D01*
X188300Y140200D01*
X189100Y140600D01*
X188700Y139800D01*
X189100Y139000D01*
X188300Y139400D01*
X187500Y139000D01*
X187900Y139400D02*
X188100Y139800D01*
X187900Y140200D01*
X188300Y140000D01*
X188700Y140200D01*
X188500Y139800D01*
X188700Y139400D01*
X188300Y139600D01*
X187900Y139400D01*
X180200Y149100D02*
X180600Y149900D01*
X180200Y150700D01*
X181000Y150300D01*
X181800Y150700D01*
X181400Y149900D01*
X181800Y149100D01*
X181000Y149500D01*
X180200Y149100D01*
X180600Y149500D02*
X180800Y149900D01*
X180600Y150300D01*
X181000Y150100D01*
X181400Y150300D01*
X181200Y149900D01*
X181400Y149500D01*
X181000Y149700D01*
X180600Y149500D01*
X178000Y159800D02*
X178400Y160600D01*
X178000Y161400D01*
X178800Y161000D01*
X179600Y161400D01*
X179200Y160600D01*
X179600Y159800D01*
X178800Y160200D01*
X178000Y159800D01*
X178400Y160200D02*
X178600Y160600D01*
X178400Y161000D01*
X178800Y160800D01*
X179200Y161000D01*
X179000Y160600D01*
X179200Y160200D01*
X178800Y160400D01*
X178400Y160200D01*
X180200Y156800D02*
X180600Y157600D01*
X180200Y158400D01*
X181000Y158000D01*
X181800Y158400D01*
X181400Y157600D01*
X181800Y156800D01*
X181000Y157200D01*
X180200Y156800D01*
X180600Y157200D02*
X180800Y157600D01*
X180600Y158000D01*
X181000Y157800D01*
X181400Y158000D01*
X181200Y157600D01*
X181400Y157200D01*
X181000Y157400D01*
X180600Y157200D01*
X180200Y153000D02*
X180600Y153800D01*
X180200Y154600D01*
X181000Y154200D01*
X181800Y154600D01*
X181400Y153800D01*
X181800Y153000D01*
X181000Y153400D01*
X180200Y153000D01*
X180600Y153400D02*
X180800Y153800D01*
X180600Y154200D01*
X181000Y154000D01*
X181400Y154200D01*
X181200Y153800D01*
X181400Y153400D01*
X181000Y153600D01*
X180600Y153400D01*
X167400Y216700D02*
X167800Y217500D01*
X167400Y218300D01*
X168200Y217900D01*
X169000Y218300D01*
X168600Y217500D01*
X169000Y216700D01*
X168200Y217100D01*
X167400Y216700D01*
X167800Y217100D02*
X168000Y217500D01*
X167800Y217900D01*
X168200Y217700D01*
X168600Y217900D01*
X168400Y217500D01*
X168600Y217100D01*
X168200Y217300D01*
X167800Y217100D01*
X167400Y155700D02*
X167800Y156500D01*
X167400Y157300D01*
X168200Y156900D01*
X169000Y157300D01*
X168600Y156500D01*
X169000Y155700D01*
X168200Y156100D01*
X167400Y155700D01*
X167800Y156100D02*
X168000Y156500D01*
X167800Y156900D01*
X168200Y156700D01*
X168600Y156900D01*
X168400Y156500D01*
X168600Y156100D01*
X168200Y156300D01*
X167800Y156100D01*
X172709Y177109D02*
X173109Y177909D01*
X172709Y178709D01*
X173509Y178309D01*
X174309Y178709D01*
X173909Y177909D01*
X174309Y177109D01*
X173509Y177509D01*
X172709Y177109D01*
X173109Y177509D02*
X173309Y177909D01*
X173109Y178309D01*
X173509Y178109D01*
X173909Y178309D01*
X173709Y177909D01*
X173909Y177509D01*
X173509Y177709D01*
X173109Y177509D01*
X170500Y180200D02*
X170900Y181000D01*
X170500Y181800D01*
X171300Y181400D01*
X172100Y181800D01*
X171700Y181000D01*
X172100Y180200D01*
X171300Y180600D01*
X170500Y180200D01*
X170900Y180600D02*
X171100Y181000D01*
X170900Y181400D01*
X171300Y181200D01*
X171700Y181400D01*
X171500Y181000D01*
X171700Y180600D01*
X171300Y180800D01*
X170900Y180600D01*
X221300Y214600D02*
X221700Y215400D01*
X221300Y216200D01*
X222100Y215800D01*
X222900Y216200D01*
X222500Y215400D01*
X222900Y214600D01*
X222100Y215000D01*
X221300Y214600D01*
X221700Y215000D02*
X221900Y215400D01*
X221700Y215800D01*
X222100Y215600D01*
X222500Y215800D01*
X222300Y215400D01*
X222500Y215000D01*
X222100Y215200D01*
X221700Y215000D01*
X177500Y138600D02*
X177900Y139400D01*
X177500Y140200D01*
X178300Y139800D01*
X179100Y140200D01*
X178700Y139400D01*
X179100Y138600D01*
X178300Y139000D01*
X177500Y138600D01*
X177900Y139000D02*
X178100Y139400D01*
X177900Y139800D01*
X178300Y139600D01*
X178700Y139800D01*
X178500Y139400D01*
X178700Y139000D01*
X178300Y139200D01*
X177900Y139000D01*
X278439Y107600D02*
X278839Y108400D01*
X278439Y109200D01*
X279239Y108800D01*
X280039Y109200D01*
X279639Y108400D01*
X280039Y107600D01*
X279239Y108000D01*
X278439Y107600D01*
X278839Y108000D02*
X279039Y108400D01*
X278839Y108800D01*
X279239Y108600D01*
X279639Y108800D01*
X279439Y108400D01*
X279639Y108000D01*
X279239Y108200D01*
X278839Y108000D01*
X247100Y107600D02*
X247500Y108400D01*
X247100Y109200D01*
X247900Y108800D01*
X248700Y109200D01*
X248300Y108400D01*
X248700Y107600D01*
X247900Y108000D01*
X247100Y107600D01*
X247500Y108000D02*
X247700Y108400D01*
X247500Y108800D01*
X247900Y108600D01*
X248300Y108800D01*
X248100Y108400D01*
X248300Y108000D01*
X247900Y108200D01*
X247500Y108000D01*
X255577Y107600D02*
X255978Y108400D01*
X255577Y109200D01*
X256378Y108800D01*
X257177Y109200D01*
X256778Y108400D01*
X257177Y107600D01*
X256378Y108000D01*
X255577Y107600D01*
X255978Y108000D02*
X256177Y108400D01*
X255978Y108800D01*
X256378Y108600D01*
X256778Y108800D01*
X256577Y108400D01*
X256778Y108000D01*
X256378Y108200D01*
X255978Y108000D01*
X263858Y107600D02*
X264258Y108400D01*
X263858Y109200D01*
X264658Y108800D01*
X265458Y109200D01*
X265058Y108400D01*
X265458Y107600D01*
X264658Y108000D01*
X263858Y107600D01*
X264258Y108000D02*
X264458Y108400D01*
X264258Y108800D01*
X264658Y108600D01*
X265058Y108800D01*
X264858Y108400D01*
X265058Y108000D01*
X264658Y108200D01*
X264258Y108000D01*
X286719Y107600D02*
X287119Y108400D01*
X286719Y109200D01*
X287519Y108800D01*
X288319Y109200D01*
X287919Y108400D01*
X288319Y107600D01*
X287519Y108000D01*
X286719Y107600D01*
X287119Y108000D02*
X287319Y108400D01*
X287119Y108800D01*
X287519Y108600D01*
X287919Y108800D01*
X287719Y108400D01*
X287919Y108000D01*
X287519Y108200D01*
X287119Y108000D01*
X269600Y107600D02*
X270000Y108400D01*
X269600Y109200D01*
X270400Y108800D01*
X271200Y109200D01*
X270800Y108400D01*
X271200Y107600D01*
X270400Y108000D01*
X269600Y107600D01*
X270000Y108000D02*
X270200Y108400D01*
X270000Y108800D01*
X270400Y108600D01*
X270800Y108800D01*
X270600Y108400D01*
X270800Y108000D01*
X270400Y108200D01*
X270000Y108000D01*
X199700Y104100D02*
X200100Y104900D01*
X199700Y105700D01*
X200500Y105300D01*
X201300Y105700D01*
X200900Y104900D01*
X201300Y104100D01*
X200500Y104500D01*
X199700Y104100D01*
X200100Y104500D02*
X200300Y104900D01*
X200100Y105300D01*
X200500Y105100D01*
X200900Y105300D01*
X200700Y104900D01*
X200900Y104500D01*
X200500Y104700D01*
X200100Y104500D01*
X190725Y121100D02*
X191125Y121900D01*
X190725Y122700D01*
X191525Y122300D01*
X192325Y122700D01*
X191925Y121900D01*
X192325Y121100D01*
X191525Y121500D01*
X190725Y121100D01*
X191125Y121500D02*
X191325Y121900D01*
X191125Y122300D01*
X191525Y122100D01*
X191925Y122300D01*
X191725Y121900D01*
X191925Y121500D01*
X191525Y121700D01*
X191125Y121500D01*
X194400Y120900D02*
X194800Y121700D01*
X194400Y122500D01*
X195200Y122100D01*
X196000Y122500D01*
X195600Y121700D01*
X196000Y120900D01*
X195200Y121300D01*
X194400Y120900D01*
X194800Y121300D02*
X195000Y121700D01*
X194800Y122100D01*
X195200Y121900D01*
X195600Y122100D01*
X195400Y121700D01*
X195600Y121300D01*
X195200Y121500D01*
X194800Y121300D01*
X202200Y117800D02*
X202600Y118600D01*
X202200Y119400D01*
X203000Y119000D01*
X203800Y119400D01*
X203400Y118600D01*
X203800Y117800D01*
X203000Y118200D01*
X202200Y117800D01*
X202600Y118200D02*
X202800Y118600D01*
X202600Y119000D01*
X203000Y118800D01*
X203400Y119000D01*
X203200Y118600D01*
X203400Y118200D01*
X203000Y118400D01*
X202600Y118200D01*
X196975Y110800D02*
X197375Y111600D01*
X196975Y112400D01*
X197775Y112000D01*
X198575Y112400D01*
X198175Y111600D01*
X198575Y110800D01*
X197775Y111200D01*
X196975Y110800D01*
X197375Y111200D02*
X197575Y111600D01*
X197375Y112000D01*
X197775Y111800D01*
X198175Y112000D01*
X197975Y111600D01*
X198175Y111200D01*
X197775Y111400D01*
X197375Y111200D01*
X133500Y104100D02*
X133900Y104900D01*
X133500Y105700D01*
X134300Y105300D01*
X135100Y105700D01*
X134700Y104900D01*
X135100Y104100D01*
X134300Y104500D01*
X133500Y104100D01*
X133900Y104500D02*
X134100Y104900D01*
X133900Y105300D01*
X134300Y105100D01*
X134700Y105300D01*
X134500Y104900D01*
X134700Y104500D01*
X134300Y104700D01*
X133900Y104500D01*
X196900Y139000D02*
X197300Y139800D01*
X196900Y140600D01*
X197700Y140200D01*
X198500Y140600D01*
X198100Y139800D01*
X198500Y139000D01*
X197700Y139400D01*
X196900Y139000D01*
X197300Y139400D02*
X197500Y139800D01*
X197300Y140200D01*
X197700Y140000D01*
X198100Y140200D01*
X197900Y139800D01*
X198100Y139400D01*
X197700Y139600D01*
X197300Y139400D01*
X192800Y139000D02*
X193200Y139800D01*
X192800Y140600D01*
X193600Y140200D01*
X194400Y140600D01*
X194000Y139800D01*
X194400Y139000D01*
X193600Y139400D01*
X192800Y139000D01*
X193200Y139400D02*
X193400Y139800D01*
X193200Y140200D01*
X193600Y140000D01*
X194000Y140200D01*
X193800Y139800D01*
X194000Y139400D01*
X193600Y139600D01*
X193200Y139400D01*
X200800Y127100D02*
X201200Y127900D01*
X200800Y128700D01*
X201600Y128300D01*
X202400Y128700D01*
X202000Y127900D01*
X202400Y127100D01*
X201600Y127500D01*
X200800Y127100D01*
X201200Y127500D02*
X201400Y127900D01*
X201200Y128300D01*
X201600Y128100D01*
X202000Y128300D01*
X201800Y127900D01*
X202000Y127500D01*
X201600Y127700D01*
X201200Y127500D01*
X202800Y139000D02*
X203200Y139800D01*
X202800Y140600D01*
X203600Y140200D01*
X204400Y140600D01*
X204000Y139800D01*
X204400Y139000D01*
X203600Y139400D01*
X202800Y139000D01*
X203200Y139400D02*
X203400Y139800D01*
X203200Y140200D01*
X203600Y140000D01*
X204000Y140200D01*
X203800Y139800D01*
X204000Y139400D01*
X203600Y139600D01*
X203200Y139400D01*
X148700Y114700D02*
X149100Y115500D01*
X148700Y116300D01*
X149500Y115900D01*
X150300Y116300D01*
X149900Y115500D01*
X150300Y114700D01*
X149500Y115100D01*
X148700Y114700D01*
X149100Y115100D02*
X149300Y115500D01*
X149100Y115900D01*
X149500Y115700D01*
X149900Y115900D01*
X149700Y115500D01*
X149900Y115100D01*
X149500Y115300D01*
X149100Y115100D01*
X151300Y118100D02*
X151700Y118900D01*
X151300Y119700D01*
X152100Y119300D01*
X152900Y119700D01*
X152500Y118900D01*
X152900Y118100D01*
X152100Y118500D01*
X151300Y118100D01*
X151700Y118500D02*
X151900Y118900D01*
X151700Y119300D01*
X152100Y119100D01*
X152500Y119300D01*
X152300Y118900D01*
X152500Y118500D01*
X152100Y118700D01*
X151700Y118500D01*
X153900Y121600D02*
X154300Y122400D01*
X153900Y123200D01*
X154700Y122800D01*
X155500Y123200D01*
X155100Y122400D01*
X155500Y121600D01*
X154700Y122000D01*
X153900Y121600D01*
X154300Y122000D02*
X154500Y122400D01*
X154300Y122800D01*
X154700Y122600D01*
X155100Y122800D01*
X154900Y122400D01*
X155100Y122000D01*
X154700Y122200D01*
X154300Y122000D01*
X211300Y168500D02*
X211700Y169300D01*
X211300Y170100D01*
X212100Y169700D01*
X212900Y170100D01*
X212500Y169300D01*
X212900Y168500D01*
X212100Y168900D01*
X211300Y168500D01*
X211700Y168900D02*
X211900Y169300D01*
X211700Y169700D01*
X212100Y169500D01*
X212500Y169700D01*
X212300Y169300D01*
X212500Y168900D01*
X212100Y169100D01*
X211700Y168900D01*
X210700Y164800D02*
X211100Y165600D01*
X210700Y166400D01*
X211500Y166000D01*
X212300Y166400D01*
X211900Y165600D01*
X212300Y164800D01*
X211500Y165200D01*
X210700Y164800D01*
X211100Y165200D02*
X211300Y165600D01*
X211100Y166000D01*
X211500Y165800D01*
X211900Y166000D01*
X211700Y165600D01*
X211900Y165200D01*
X211500Y165400D01*
X211100Y165200D01*
X211300Y161100D02*
X211700Y161900D01*
X211300Y162700D01*
X212100Y162300D01*
X212900Y162700D01*
X212500Y161900D01*
X212900Y161100D01*
X212100Y161500D01*
X211300Y161100D01*
X211700Y161500D02*
X211900Y161900D01*
X211700Y162300D01*
X212100Y162100D01*
X212500Y162300D01*
X212300Y161900D01*
X212500Y161500D01*
X212100Y161700D01*
X211700Y161500D01*
X221300Y199600D02*
X221700Y200400D01*
X221300Y201200D01*
X222100Y200800D01*
X222900Y201200D01*
X222500Y200400D01*
X222900Y199600D01*
X222100Y200000D01*
X221300Y199600D01*
X221700Y200000D02*
X221900Y200400D01*
X221700Y200800D01*
X222100Y200600D01*
X222500Y200800D01*
X222300Y200400D01*
X222500Y200000D01*
X222100Y200200D01*
X221700Y200000D01*
X197800Y255700D02*
X198200Y256500D01*
X197800Y257300D01*
X198600Y256900D01*
X199400Y257300D01*
X199000Y256500D01*
X199400Y255700D01*
X198600Y256100D01*
X197800Y255700D01*
X198200Y256100D02*
X198400Y256500D01*
X198200Y256900D01*
X198600Y256700D01*
X199000Y256900D01*
X198800Y256500D01*
X199000Y256100D01*
X198600Y256300D01*
X198200Y256100D01*
X203100Y241000D02*
X203500Y241800D01*
X203100Y242600D01*
X203900Y242200D01*
X204700Y242600D01*
X204300Y241800D01*
X204700Y241000D01*
X203900Y241400D01*
X203100Y241000D01*
X203500Y241400D02*
X203700Y241800D01*
X203500Y242200D01*
X203900Y242000D01*
X204300Y242200D01*
X204100Y241800D01*
X204300Y241400D01*
X203900Y241600D01*
X203500Y241400D01*
X205900Y245800D02*
X206300Y246600D01*
X205900Y247400D01*
X206700Y247000D01*
X207500Y247400D01*
X207100Y246600D01*
X207500Y245800D01*
X206700Y246200D01*
X205900Y245800D01*
X206300Y246200D02*
X206500Y246600D01*
X206300Y247000D01*
X206700Y246800D01*
X207100Y247000D01*
X206900Y246600D01*
X207100Y246200D01*
X206700Y246400D01*
X206300Y246200D01*
X203300Y251100D02*
X203700Y251900D01*
X203300Y252700D01*
X204100Y252300D01*
X204900Y252700D01*
X204500Y251900D01*
X204900Y251100D01*
X204100Y251500D01*
X203300Y251100D01*
X203700Y251500D02*
X203900Y251900D01*
X203700Y252300D01*
X204100Y252100D01*
X204500Y252300D01*
X204300Y251900D01*
X204500Y251500D01*
X204100Y251700D01*
X203700Y251500D01*
X203300Y320900D02*
X203700Y321700D01*
X203300Y322500D01*
X204100Y322100D01*
X204900Y322500D01*
X204500Y321700D01*
X204900Y320900D01*
X204100Y321300D01*
X203300Y320900D01*
X203700Y321300D02*
X203900Y321700D01*
X203700Y322100D01*
X204100Y321900D01*
X204500Y322100D01*
X204300Y321700D01*
X204500Y321300D01*
X204100Y321500D01*
X203700Y321300D01*
X212976Y313260D02*
X213376Y314060D01*
X212976Y314860D01*
X213776Y314460D01*
X214576Y314860D01*
X214176Y314060D01*
X214576Y313260D01*
X213776Y313660D01*
X212976Y313260D01*
X213376Y313660D02*
X213576Y314060D01*
X213376Y314460D01*
X213776Y314260D01*
X214176Y314460D01*
X213976Y314060D01*
X214176Y313660D01*
X213776Y313860D01*
X213376Y313660D01*
X222600Y275000D02*
X223000Y275800D01*
X222600Y276600D01*
X223400Y276200D01*
X224200Y276600D01*
X223800Y275800D01*
X224200Y275000D01*
X223400Y275400D01*
X222600Y275000D01*
X223000Y275400D02*
X223200Y275800D01*
X223000Y276200D01*
X223400Y276000D01*
X223800Y276200D01*
X223600Y275800D01*
X223800Y275400D01*
X223400Y275600D01*
X223000Y275400D01*
X227600Y275000D02*
X228000Y275800D01*
X227600Y276600D01*
X228400Y276200D01*
X229200Y276600D01*
X228800Y275800D01*
X229200Y275000D01*
X228400Y275400D01*
X227600Y275000D01*
X228000Y275400D02*
X228200Y275800D01*
X228000Y276200D01*
X228400Y276000D01*
X228800Y276200D01*
X228600Y275800D01*
X228800Y275400D01*
X228400Y275600D01*
X228000Y275400D01*
X232600Y275000D02*
X233000Y275800D01*
X232600Y276600D01*
X233400Y276200D01*
X234200Y276600D01*
X233800Y275800D01*
X234200Y275000D01*
X233400Y275400D01*
X232600Y275000D01*
X233000Y275400D02*
X233200Y275800D01*
X233000Y276200D01*
X233400Y276000D01*
X233800Y276200D01*
X233600Y275800D01*
X233800Y275400D01*
X233400Y275600D01*
X233000Y275400D01*
X237600Y275000D02*
X238000Y275800D01*
X237600Y276600D01*
X238400Y276200D01*
X239200Y276600D01*
X238800Y275800D01*
X239200Y275000D01*
X238400Y275400D01*
X237600Y275000D01*
X238000Y275400D02*
X238200Y275800D01*
X238000Y276200D01*
X238400Y276000D01*
X238800Y276200D01*
X238600Y275800D01*
X238800Y275400D01*
X238400Y275600D01*
X238000Y275400D01*
X227646Y151679D02*
X228046Y152479D01*
X227646Y153279D01*
X228447Y152879D01*
X229246Y153279D01*
X228847Y152479D01*
X229246Y151679D01*
X228447Y152079D01*
X227646Y151679D01*
X228046Y152079D02*
X228246Y152479D01*
X228046Y152879D01*
X228447Y152679D01*
X228847Y152879D01*
X228646Y152479D01*
X228847Y152079D01*
X228447Y152279D01*
X228046Y152079D01*
X230800Y149600D02*
X231200Y150400D01*
X230800Y151200D01*
X231600Y150800D01*
X232400Y151200D01*
X232000Y150400D01*
X232400Y149600D01*
X231600Y150000D01*
X230800Y149600D01*
X231200Y150000D02*
X231400Y150400D01*
X231200Y150800D01*
X231600Y150600D01*
X232000Y150800D01*
X231800Y150400D01*
X232000Y150000D01*
X231600Y150200D01*
X231200Y150000D01*
X225000Y154200D02*
X225400Y155000D01*
X225000Y155800D01*
X225800Y155400D01*
X226600Y155800D01*
X226200Y155000D01*
X226600Y154200D01*
X225800Y154600D01*
X225000Y154200D01*
X225400Y154600D02*
X225600Y155000D01*
X225400Y155400D01*
X225800Y155200D01*
X226200Y155400D01*
X226000Y155000D01*
X226200Y154600D01*
X225800Y154800D01*
X225400Y154600D01*
X136700Y260600D02*
X137100Y261400D01*
X136700Y262200D01*
X137500Y261800D01*
X138300Y262200D01*
X137900Y261400D01*
X138300Y260600D01*
X137500Y261000D01*
X136700Y260600D01*
X137100Y261000D02*
X137300Y261400D01*
X137100Y261800D01*
X137500Y261600D01*
X137900Y261800D01*
X137700Y261400D01*
X137900Y261000D01*
X137500Y261200D01*
X137100Y261000D01*
X158402Y260666D02*
X158802Y261466D01*
X158402Y262266D01*
X159202Y261866D01*
X160002Y262266D01*
X159602Y261466D01*
X160002Y260666D01*
X159202Y261066D01*
X158402Y260666D01*
X158802Y261066D02*
X159002Y261466D01*
X158802Y261866D01*
X159202Y261666D01*
X159602Y261866D01*
X159402Y261466D01*
X159602Y261066D01*
X159202Y261266D01*
X158802Y261066D01*
X100000Y279400D02*
X100400Y280200D01*
X100000Y281000D01*
X100800Y280600D01*
X101600Y281000D01*
X101200Y280200D01*
X101600Y279400D01*
X100800Y279800D01*
X100000Y279400D01*
X100400Y279800D02*
X100600Y280200D01*
X100400Y280600D01*
X100800Y280400D01*
X101200Y280600D01*
X101000Y280200D01*
X101200Y279800D01*
X100800Y280000D01*
X100400Y279800D01*
X155740Y279400D02*
X156140Y280200D01*
X155740Y281000D01*
X156540Y280600D01*
X157340Y281000D01*
X156940Y280200D01*
X157340Y279400D01*
X156540Y279800D01*
X155740Y279400D01*
X156140Y279800D02*
X156340Y280200D01*
X156140Y280600D01*
X156540Y280400D01*
X156940Y280600D01*
X156740Y280200D01*
X156940Y279800D01*
X156540Y280000D01*
X156140Y279800D01*
X164100Y279400D02*
X164500Y280200D01*
X164100Y281000D01*
X164900Y280600D01*
X165700Y281000D01*
X165300Y280200D01*
X165700Y279400D01*
X164900Y279800D01*
X164100Y279400D01*
X164500Y279800D02*
X164700Y280200D01*
X164500Y280600D01*
X164900Y280400D01*
X165300Y280600D01*
X165100Y280200D01*
X165300Y279800D01*
X164900Y280000D01*
X164500Y279800D01*
X91540Y279400D02*
X91940Y280200D01*
X91540Y281000D01*
X92340Y280600D01*
X93140Y281000D01*
X92740Y280200D01*
X93140Y279400D01*
X92340Y279800D01*
X91540Y279400D01*
X91940Y279800D02*
X92140Y280200D01*
X91940Y280600D01*
X92340Y280400D01*
X92740Y280600D01*
X92540Y280200D01*
X92740Y279800D01*
X92340Y280000D01*
X91940Y279800D01*
X206900Y196000D02*
X207300Y196800D01*
X206900Y197600D01*
X207700Y197200D01*
X208500Y197600D01*
X208100Y196800D01*
X208500Y196000D01*
X207700Y196400D01*
X206900Y196000D01*
X207300Y196400D02*
X207500Y196800D01*
X207300Y197200D01*
X207700Y197000D01*
X208100Y197200D01*
X207900Y196800D01*
X208100Y196400D01*
X207700Y196600D01*
X207300Y196400D01*
X216700Y196000D02*
X217100Y196800D01*
X216700Y197600D01*
X217500Y197200D01*
X218300Y197600D01*
X217900Y196800D01*
X218300Y196000D01*
X217500Y196400D01*
X216700Y196000D01*
X217100Y196400D02*
X217300Y196800D01*
X217100Y197200D01*
X217500Y197000D01*
X217900Y197200D01*
X217700Y196800D01*
X217900Y196400D01*
X217500Y196600D01*
X217100Y196400D01*
X261500Y194400D02*
X261900Y195200D01*
X261500Y196000D01*
X262300Y195600D01*
X263100Y196000D01*
X262700Y195200D01*
X263100Y194400D01*
X262300Y194800D01*
X261500Y194400D01*
X261900Y194800D02*
X262100Y195200D01*
X261900Y195600D01*
X262300Y195400D01*
X262700Y195600D01*
X262500Y195200D01*
X262700Y194800D01*
X262300Y195000D01*
X261900Y194800D01*
X260300Y190700D02*
X260700Y191500D01*
X260300Y192300D01*
X261100Y191900D01*
X261900Y192300D01*
X261500Y191500D01*
X261900Y190700D01*
X261100Y191100D01*
X260300Y190700D01*
X260700Y191100D02*
X260900Y191500D01*
X260700Y191900D01*
X261100Y191700D01*
X261500Y191900D01*
X261300Y191500D01*
X261500Y191100D01*
X261100Y191300D01*
X260700Y191100D01*
X260300Y198100D02*
X260700Y198900D01*
X260300Y199700D01*
X261100Y199300D01*
X261900Y199700D01*
X261500Y198900D01*
X261900Y198100D01*
X261100Y198500D01*
X260300Y198100D01*
X260700Y198500D02*
X260900Y198900D01*
X260700Y199300D01*
X261100Y199100D01*
X261500Y199300D01*
X261300Y198900D01*
X261500Y198500D01*
X261100Y198700D01*
X260700Y198500D01*
X266100Y280000D02*
X266500Y280800D01*
X266100Y281600D01*
X266900Y281200D01*
X267700Y281600D01*
X267300Y280800D01*
X267700Y280000D01*
X266900Y280400D01*
X266100Y280000D01*
X266500Y280400D02*
X266700Y280800D01*
X266500Y281200D01*
X266900Y281000D01*
X267300Y281200D01*
X267100Y280800D01*
X267300Y280400D01*
X266900Y280600D01*
X266500Y280400D01*
X263000Y283984D02*
X263400Y284784D01*
X263000Y285584D01*
X263800Y285184D01*
X264600Y285584D01*
X264200Y284784D01*
X264600Y283984D01*
X263800Y284384D01*
X263000Y283984D01*
X263400Y284384D02*
X263600Y284784D01*
X263400Y285184D01*
X263800Y284984D01*
X264200Y285184D01*
X264000Y284784D01*
X264200Y284384D01*
X263800Y284584D01*
X263400Y284384D01*
X281300Y272600D02*
X281700Y273400D01*
X281300Y274200D01*
X282100Y273800D01*
X282900Y274200D01*
X282500Y273400D01*
X282900Y272600D01*
X282100Y273000D01*
X281300Y272600D01*
X281700Y273000D02*
X281900Y273400D01*
X281700Y273800D01*
X282100Y273600D01*
X282500Y273800D01*
X282300Y273400D01*
X282500Y273000D01*
X282100Y273200D01*
X281700Y273000D01*
X284500Y275600D02*
X284900Y276400D01*
X284500Y277200D01*
X285300Y276800D01*
X286100Y277200D01*
X285700Y276400D01*
X286100Y275600D01*
X285300Y276000D01*
X284500Y275600D01*
X284900Y276000D02*
X285100Y276400D01*
X284900Y276800D01*
X285300Y276600D01*
X285700Y276800D01*
X285500Y276400D01*
X285700Y276000D01*
X285300Y276200D01*
X284900Y276000D01*
X287200Y285953D02*
X287600Y286753D01*
X287200Y287553D01*
X288000Y287153D01*
X288800Y287553D01*
X288400Y286753D01*
X288800Y285953D01*
X288000Y286353D01*
X287200Y285953D01*
X287600Y286353D02*
X287800Y286753D01*
X287600Y287153D01*
X288000Y286953D01*
X288400Y287153D01*
X288200Y286753D01*
X288400Y286353D01*
X288000Y286553D01*
X287600Y286353D01*
X273400Y253000D02*
X273800Y253800D01*
X273400Y254600D01*
X274200Y254200D01*
X275000Y254600D01*
X274600Y253800D01*
X275000Y253000D01*
X274200Y253400D01*
X273400Y253000D01*
X273800Y253400D02*
X274000Y253800D01*
X273800Y254200D01*
X274200Y254000D01*
X274600Y254200D01*
X274400Y253800D01*
X274600Y253400D01*
X274200Y253600D01*
X273800Y253400D01*
X260300Y253000D02*
X260700Y253800D01*
X260300Y254600D01*
X261100Y254200D01*
X261900Y254600D01*
X261500Y253800D01*
X261900Y253000D01*
X261100Y253400D01*
X260300Y253000D01*
X260700Y253400D02*
X260900Y253800D01*
X260700Y254200D01*
X261100Y254000D01*
X261500Y254200D01*
X261300Y253800D01*
X261500Y253400D01*
X261100Y253600D01*
X260700Y253400D01*
X321600Y206134D02*
X322000Y206934D01*
X321600Y207734D01*
X322400Y207334D01*
X323200Y207734D01*
X322800Y206934D01*
X323200Y206134D01*
X322400Y206534D01*
X321600Y206134D01*
X322000Y206534D02*
X322200Y206934D01*
X322000Y207334D01*
X322400Y207134D01*
X322800Y207334D01*
X322600Y206934D01*
X322800Y206534D01*
X322400Y206734D01*
X322000Y206534D01*
X272200Y210400D02*
X272600Y211200D01*
X272200Y212000D01*
X273000Y211600D01*
X273800Y212000D01*
X273400Y211200D01*
X273800Y210400D01*
X273000Y210800D01*
X272200Y210400D01*
X272600Y210800D02*
X272800Y211200D01*
X272600Y211600D01*
X273000Y211400D01*
X273400Y211600D01*
X273200Y211200D01*
X273400Y210800D01*
X273000Y211000D01*
X272600Y210800D01*
X261400Y210400D02*
X261800Y211200D01*
X261400Y212000D01*
X262200Y211600D01*
X263000Y212000D01*
X262600Y211200D01*
X263000Y210400D01*
X262200Y210800D01*
X261400Y210400D01*
X261800Y210800D02*
X262000Y211200D01*
X261800Y211600D01*
X262200Y211400D01*
X262600Y211600D01*
X262400Y211200D01*
X262600Y210800D01*
X262200Y211000D01*
X261800Y210800D01*
X277800Y270471D02*
X278200Y271271D01*
X277800Y272071D01*
X278600Y271671D01*
X279400Y272071D01*
X279000Y271271D01*
X279400Y270471D01*
X278600Y270871D01*
X277800Y270471D01*
X278200Y270871D02*
X278400Y271271D01*
X278200Y271671D01*
X278600Y271471D01*
X279000Y271671D01*
X278800Y271271D01*
X279000Y270871D01*
X278600Y271071D01*
X278200Y270871D01*
X273400Y267800D02*
X273800Y268600D01*
X273400Y269400D01*
X274200Y269000D01*
X275000Y269400D01*
X274600Y268600D01*
X275000Y267800D01*
X274200Y268200D01*
X273400Y267800D01*
X273800Y268200D02*
X274000Y268600D01*
X273800Y269000D01*
X274200Y268800D01*
X274600Y269000D01*
X274400Y268600D01*
X274600Y268200D01*
X274200Y268400D01*
X273800Y268200D01*
X264400Y273400D02*
X264800Y274200D01*
X264400Y275000D01*
X265200Y274600D01*
X266000Y275000D01*
X265600Y274200D01*
X266000Y273400D01*
X265200Y273800D01*
X264400Y273400D01*
X264800Y273800D02*
X265000Y274200D01*
X264800Y274600D01*
X265200Y274400D01*
X265600Y274600D01*
X265400Y274200D01*
X265600Y273800D01*
X265200Y274000D01*
X264800Y273800D01*
X129300Y104400D02*
X129700Y105200D01*
X129300Y106000D01*
X130100Y105600D01*
X130900Y106000D01*
X130500Y105200D01*
X130900Y104400D01*
X130100Y104800D01*
X129300Y104400D01*
X129700Y104800D02*
X129900Y105200D01*
X129700Y105600D01*
X130100Y105400D01*
X130500Y105600D01*
X130300Y105200D01*
X130500Y104800D01*
X130100Y105000D01*
X129700Y104800D01*
X237700Y291100D02*
X238100Y291900D01*
X237700Y292700D01*
X238500Y292300D01*
X239300Y292700D01*
X238900Y291900D01*
X239300Y291100D01*
X238500Y291500D01*
X237700Y291100D01*
X238100Y291500D02*
X238300Y291900D01*
X238100Y292300D01*
X238500Y292100D01*
X238900Y292300D01*
X238700Y291900D01*
X238900Y291500D01*
X238500Y291700D01*
X238100Y291500D01*
X49300Y302200D02*
X49700Y303000D01*
X49300Y303800D01*
X50100Y303400D01*
X50900Y303800D01*
X50500Y303000D01*
X50900Y302200D01*
X50100Y302600D01*
X49300Y302200D01*
X49700Y302600D02*
X49900Y303000D01*
X49700Y303400D01*
X50100Y303200D01*
X50500Y303400D01*
X50300Y303000D01*
X50500Y302600D01*
X50100Y302800D01*
X49700Y302600D01*
X49300Y236267D02*
X49700Y237067D01*
X49300Y237867D01*
X50100Y237467D01*
X50900Y237867D01*
X50500Y237067D01*
X50900Y236267D01*
X50100Y236667D01*
X49300Y236267D01*
X49700Y236667D02*
X49900Y237067D01*
X49700Y237467D01*
X50100Y237267D01*
X50500Y237467D01*
X50300Y237067D01*
X50500Y236667D01*
X50100Y236867D01*
X49700Y236667D01*
X49300Y170333D02*
X49700Y171133D01*
X49300Y171933D01*
X50100Y171533D01*
X50900Y171933D01*
X50500Y171133D01*
X50900Y170333D01*
X50100Y170733D01*
X49300Y170333D01*
X49700Y170733D02*
X49900Y171133D01*
X49700Y171533D01*
X50100Y171333D01*
X50500Y171533D01*
X50300Y171133D01*
X50500Y170733D01*
X50100Y170933D01*
X49700Y170733D01*
X181950Y166400D02*
X182350Y167200D01*
X181950Y168000D01*
X182750Y167600D01*
X183550Y168000D01*
X183150Y167200D01*
X183550Y166400D01*
X182750Y166800D01*
X181950Y166400D01*
X182350Y166800D02*
X182550Y167200D01*
X182350Y167600D01*
X182750Y167400D01*
X183150Y167600D01*
X182950Y167200D01*
X183150Y166800D01*
X182750Y167000D01*
X182350Y166800D01*
X186450Y148400D02*
X186850Y149200D01*
X186450Y150000D01*
X187250Y149600D01*
X188050Y150000D01*
X187650Y149200D01*
X188050Y148400D01*
X187250Y148800D01*
X186450Y148400D01*
X186850Y148800D02*
X187050Y149200D01*
X186850Y149600D01*
X187250Y149400D01*
X187650Y149600D01*
X187450Y149200D01*
X187650Y148800D01*
X187250Y149000D01*
X186850Y148800D01*
X184200Y152900D02*
X184600Y153700D01*
X184200Y154500D01*
X185000Y154100D01*
X185800Y154500D01*
X185400Y153700D01*
X185800Y152900D01*
X185000Y153300D01*
X184200Y152900D01*
X184600Y153300D02*
X184800Y153700D01*
X184600Y154100D01*
X185000Y153900D01*
X185400Y154100D01*
X185200Y153700D01*
X185400Y153300D01*
X185000Y153500D01*
X184600Y153300D01*
X186450Y157400D02*
X186850Y158200D01*
X186450Y159000D01*
X187250Y158600D01*
X188050Y159000D01*
X187650Y158200D01*
X188050Y157400D01*
X187250Y157800D01*
X186450Y157400D01*
X186850Y157800D02*
X187050Y158200D01*
X186850Y158600D01*
X187250Y158400D01*
X187650Y158600D01*
X187450Y158200D01*
X187650Y157800D01*
X187250Y158000D01*
X186850Y157800D01*
X184200Y161900D02*
X184600Y162700D01*
X184200Y163500D01*
X185000Y163100D01*
X185800Y163500D01*
X185400Y162700D01*
X185800Y161900D01*
X185000Y162300D01*
X184200Y161900D01*
X184600Y162300D02*
X184800Y162700D01*
X184600Y163100D01*
X185000Y162900D01*
X185400Y163100D01*
X185200Y162700D01*
X185400Y162300D01*
X185000Y162500D01*
X184600Y162300D01*
X186450Y166400D02*
X186850Y167200D01*
X186450Y168000D01*
X187250Y167600D01*
X188050Y168000D01*
X187650Y167200D01*
X188050Y166400D01*
X187250Y166800D01*
X186450Y166400D01*
X186850Y166800D02*
X187050Y167200D01*
X186850Y167600D01*
X187250Y167400D01*
X187650Y167600D01*
X187450Y167200D01*
X187650Y166800D01*
X187250Y167000D01*
X186850Y166800D01*
X190950Y148400D02*
X191350Y149200D01*
X190950Y150000D01*
X191750Y149600D01*
X192550Y150000D01*
X192150Y149200D01*
X192550Y148400D01*
X191750Y148800D01*
X190950Y148400D01*
X191350Y148800D02*
X191550Y149200D01*
X191350Y149600D01*
X191750Y149400D01*
X192150Y149600D01*
X191950Y149200D01*
X192150Y148800D01*
X191750Y149000D01*
X191350Y148800D01*
X188700Y152900D02*
X189100Y153700D01*
X188700Y154500D01*
X189500Y154100D01*
X190300Y154500D01*
X189900Y153700D01*
X190300Y152900D01*
X189500Y153300D01*
X188700Y152900D01*
X189100Y153300D02*
X189300Y153700D01*
X189100Y154100D01*
X189500Y153900D01*
X189900Y154100D01*
X189700Y153700D01*
X189900Y153300D01*
X189500Y153500D01*
X189100Y153300D01*
X190950Y157400D02*
X191350Y158200D01*
X190950Y159000D01*
X191750Y158600D01*
X192550Y159000D01*
X192150Y158200D01*
X192550Y157400D01*
X191750Y157800D01*
X190950Y157400D01*
X191350Y157800D02*
X191550Y158200D01*
X191350Y158600D01*
X191750Y158400D01*
X192150Y158600D01*
X191950Y158200D01*
X192150Y157800D01*
X191750Y158000D01*
X191350Y157800D01*
X188700Y161900D02*
X189100Y162700D01*
X188700Y163500D01*
X189500Y163100D01*
X190300Y163500D01*
X189900Y162700D01*
X190300Y161900D01*
X189500Y162300D01*
X188700Y161900D01*
X189100Y162300D02*
X189300Y162700D01*
X189100Y163100D01*
X189500Y162900D01*
X189900Y163100D01*
X189700Y162700D01*
X189900Y162300D01*
X189500Y162500D01*
X189100Y162300D01*
X190950Y166400D02*
X191350Y167200D01*
X190950Y168000D01*
X191750Y167600D01*
X192550Y168000D01*
X192150Y167200D01*
X192550Y166400D01*
X191750Y166800D01*
X190950Y166400D01*
X191350Y166800D02*
X191550Y167200D01*
X191350Y167600D01*
X191750Y167400D01*
X192150Y167600D01*
X191950Y167200D01*
X192150Y166800D01*
X191750Y167000D01*
X191350Y166800D01*
X195450Y148400D02*
X195850Y149200D01*
X195450Y150000D01*
X196250Y149600D01*
X197050Y150000D01*
X196650Y149200D01*
X197050Y148400D01*
X196250Y148800D01*
X195450Y148400D01*
X195850Y148800D02*
X196050Y149200D01*
X195850Y149600D01*
X196250Y149400D01*
X196650Y149600D01*
X196450Y149200D01*
X196650Y148800D01*
X196250Y149000D01*
X195850Y148800D01*
X193200Y152900D02*
X193600Y153700D01*
X193200Y154500D01*
X194000Y154100D01*
X194800Y154500D01*
X194400Y153700D01*
X194800Y152900D01*
X194000Y153300D01*
X193200Y152900D01*
X193600Y153300D02*
X193800Y153700D01*
X193600Y154100D01*
X194000Y153900D01*
X194400Y154100D01*
X194200Y153700D01*
X194400Y153300D01*
X194000Y153500D01*
X193600Y153300D01*
X195450Y157400D02*
X195850Y158200D01*
X195450Y159000D01*
X196250Y158600D01*
X197050Y159000D01*
X196650Y158200D01*
X197050Y157400D01*
X196250Y157800D01*
X195450Y157400D01*
X195850Y157800D02*
X196050Y158200D01*
X195850Y158600D01*
X196250Y158400D01*
X196650Y158600D01*
X196450Y158200D01*
X196650Y157800D01*
X196250Y158000D01*
X195850Y157800D01*
X193200Y161900D02*
X193600Y162700D01*
X193200Y163500D01*
X194000Y163100D01*
X194800Y163500D01*
X194400Y162700D01*
X194800Y161900D01*
X194000Y162300D01*
X193200Y161900D01*
X193600Y162300D02*
X193800Y162700D01*
X193600Y163100D01*
X194000Y162900D01*
X194400Y163100D01*
X194200Y162700D01*
X194400Y162300D01*
X194000Y162500D01*
X193600Y162300D01*
X195450Y166400D02*
X195850Y167200D01*
X195450Y168000D01*
X196250Y167600D01*
X197050Y168000D01*
X196650Y167200D01*
X197050Y166400D01*
X196250Y166800D01*
X195450Y166400D01*
X195850Y166800D02*
X196050Y167200D01*
X195850Y167600D01*
X196250Y167400D01*
X196650Y167600D01*
X196450Y167200D01*
X196650Y166800D01*
X196250Y167000D01*
X195850Y166800D01*
X199950Y148400D02*
X200350Y149200D01*
X199950Y150000D01*
X200750Y149600D01*
X201550Y150000D01*
X201150Y149200D01*
X201550Y148400D01*
X200750Y148800D01*
X199950Y148400D01*
X200350Y148800D02*
X200550Y149200D01*
X200350Y149600D01*
X200750Y149400D01*
X201150Y149600D01*
X200950Y149200D01*
X201150Y148800D01*
X200750Y149000D01*
X200350Y148800D01*
X197700Y152900D02*
X198100Y153700D01*
X197700Y154500D01*
X198500Y154100D01*
X199300Y154500D01*
X198900Y153700D01*
X199300Y152900D01*
X198500Y153300D01*
X197700Y152900D01*
X198100Y153300D02*
X198300Y153700D01*
X198100Y154100D01*
X198500Y153900D01*
X198900Y154100D01*
X198700Y153700D01*
X198900Y153300D01*
X198500Y153500D01*
X198100Y153300D01*
X199950Y157400D02*
X200350Y158200D01*
X199950Y159000D01*
X200750Y158600D01*
X201550Y159000D01*
X201150Y158200D01*
X201550Y157400D01*
X200750Y157800D01*
X199950Y157400D01*
X200350Y157800D02*
X200550Y158200D01*
X200350Y158600D01*
X200750Y158400D01*
X201150Y158600D01*
X200950Y158200D01*
X201150Y157800D01*
X200750Y158000D01*
X200350Y157800D01*
X197700Y161900D02*
X198100Y162700D01*
X197700Y163500D01*
X198500Y163100D01*
X199300Y163500D01*
X198900Y162700D01*
X199300Y161900D01*
X198500Y162300D01*
X197700Y161900D01*
X198100Y162300D02*
X198300Y162700D01*
X198100Y163100D01*
X198500Y162900D01*
X198900Y163100D01*
X198700Y162700D01*
X198900Y162300D01*
X198500Y162500D01*
X198100Y162300D01*
X199950Y166400D02*
X200350Y167200D01*
X199950Y168000D01*
X200750Y167600D01*
X201550Y168000D01*
X201150Y167200D01*
X201550Y166400D01*
X200750Y166800D01*
X199950Y166400D01*
X200350Y166800D02*
X200550Y167200D01*
X200350Y167600D01*
X200750Y167400D01*
X201150Y167600D01*
X200950Y167200D01*
X201150Y166800D01*
X200750Y167000D01*
X200350Y166800D01*
X204450Y148400D02*
X204850Y149200D01*
X204450Y150000D01*
X205250Y149600D01*
X206050Y150000D01*
X205650Y149200D01*
X206050Y148400D01*
X205250Y148800D01*
X204450Y148400D01*
X204850Y148800D02*
X205050Y149200D01*
X204850Y149600D01*
X205250Y149400D01*
X205650Y149600D01*
X205450Y149200D01*
X205650Y148800D01*
X205250Y149000D01*
X204850Y148800D01*
X202200Y152900D02*
X202600Y153700D01*
X202200Y154500D01*
X203000Y154100D01*
X203800Y154500D01*
X203400Y153700D01*
X203800Y152900D01*
X203000Y153300D01*
X202200Y152900D01*
X202600Y153300D02*
X202800Y153700D01*
X202600Y154100D01*
X203000Y153900D01*
X203400Y154100D01*
X203200Y153700D01*
X203400Y153300D01*
X203000Y153500D01*
X202600Y153300D01*
X202200Y161900D02*
X202600Y162700D01*
X202200Y163500D01*
X203000Y163100D01*
X203800Y163500D01*
X203400Y162700D01*
X203800Y161900D01*
X203000Y162300D01*
X202200Y161900D01*
X202600Y162300D02*
X202800Y162700D01*
X202600Y163100D01*
X203000Y162900D01*
X203400Y163100D01*
X203200Y162700D01*
X203400Y162300D01*
X203000Y162500D01*
X202600Y162300D01*
X160100Y178135D02*
X160500Y178935D01*
X160100Y179735D01*
X160900Y179335D01*
X161700Y179735D01*
X161300Y178935D01*
X161700Y178135D01*
X160900Y178535D01*
X160100Y178135D01*
X160500Y178535D02*
X160700Y178935D01*
X160500Y179335D01*
X160900Y179135D01*
X161300Y179335D01*
X161100Y178935D01*
X161300Y178535D01*
X160900Y178735D01*
X160500Y178535D01*
X164323Y176190D02*
X164723Y176990D01*
X164323Y177790D01*
X165123Y177390D01*
X165923Y177790D01*
X165523Y176990D01*
X165923Y176190D01*
X165123Y176590D01*
X164323Y176190D01*
X164723Y176590D02*
X164923Y176990D01*
X164723Y177390D01*
X165123Y177190D01*
X165523Y177390D01*
X165323Y176990D01*
X165523Y176590D01*
X165123Y176790D01*
X164723Y176590D01*
X158282Y167258D02*
X158683Y168058D01*
X158282Y168858D01*
X159082Y168458D01*
X159882Y168858D01*
X159483Y168058D01*
X159882Y167258D01*
X159082Y167658D01*
X158282Y167258D01*
X158683Y167658D02*
X158882Y168058D01*
X158683Y168458D01*
X159082Y168258D01*
X159483Y168458D01*
X159283Y168058D01*
X159483Y167658D01*
X159082Y167858D01*
X158683Y167658D01*
X154907Y170456D02*
X155307Y171256D01*
X154907Y172056D01*
X155707Y171656D01*
X156507Y172056D01*
X156107Y171256D01*
X156507Y170456D01*
X155707Y170856D01*
X154907Y170456D01*
X155307Y170856D02*
X155507Y171256D01*
X155307Y171656D01*
X155707Y171456D01*
X156107Y171656D01*
X155907Y171256D01*
X156107Y170856D01*
X155707Y171056D01*
X155307Y170856D01*
X155139Y175100D02*
X155539Y175900D01*
X155139Y176700D01*
X155939Y176300D01*
X156739Y176700D01*
X156339Y175900D01*
X156739Y175100D01*
X155939Y175500D01*
X155139Y175100D01*
X155539Y175500D02*
X155739Y175900D01*
X155539Y176300D01*
X155939Y176100D01*
X156339Y176300D01*
X156139Y175900D01*
X156339Y175500D01*
X155939Y175700D01*
X155539Y175500D01*
X165355Y150896D02*
X165755Y151696D01*
X165355Y152496D01*
X166155Y152096D01*
X166955Y152496D01*
X166555Y151696D01*
X166955Y150896D01*
X166155Y151296D01*
X165355Y150896D01*
X165755Y151296D02*
X165955Y151696D01*
X165755Y152096D01*
X166155Y151896D01*
X166555Y152096D01*
X166355Y151696D01*
X166555Y151296D01*
X166155Y151496D01*
X165755Y151296D01*
X162069Y147606D02*
X162469Y148406D01*
X162069Y149206D01*
X162869Y148806D01*
X163669Y149206D01*
X163269Y148406D01*
X163669Y147606D01*
X162869Y148006D01*
X162069Y147606D01*
X162469Y148006D02*
X162669Y148406D01*
X162469Y148806D01*
X162869Y148606D01*
X163269Y148806D01*
X163069Y148406D01*
X163269Y148006D01*
X162869Y148206D01*
X162469Y148006D01*
X157432Y147951D02*
X157832Y148751D01*
X157432Y149551D01*
X158232Y149151D01*
X159032Y149551D01*
X158632Y148751D01*
X159032Y147951D01*
X158232Y148351D01*
X157432Y147951D01*
X157832Y148351D02*
X158032Y148751D01*
X157832Y149151D01*
X158232Y148951D01*
X158632Y149151D01*
X158432Y148751D01*
X158632Y148351D01*
X158232Y148551D01*
X157832Y148351D01*
X154660Y151684D02*
X155060Y152485D01*
X154660Y153285D01*
X155460Y152884D01*
X156260Y153285D01*
X155860Y152485D01*
X156260Y151684D01*
X155460Y152085D01*
X154660Y151684D01*
X155060Y152085D02*
X155260Y152485D01*
X155060Y152884D01*
X155460Y152684D01*
X155860Y152884D01*
X155660Y152485D01*
X155860Y152085D01*
X155460Y152285D01*
X155060Y152085D01*
X155659Y156226D02*
X156059Y157026D01*
X155659Y157826D01*
X156459Y157426D01*
X157259Y157826D01*
X156859Y157026D01*
X157259Y156226D01*
X156459Y156626D01*
X155659Y156226D01*
X156059Y156626D02*
X156259Y157026D01*
X156059Y157426D01*
X156459Y157226D01*
X156859Y157426D01*
X156659Y157026D01*
X156859Y156626D01*
X156459Y156826D01*
X156059Y156626D01*
X173100Y269328D02*
X173500Y270128D01*
X173100Y270928D01*
X173900Y270528D01*
X174700Y270928D01*
X174300Y270128D01*
X174700Y269328D01*
X173900Y269728D01*
X173100Y269328D01*
X173500Y269728D02*
X173700Y270128D01*
X173500Y270528D01*
X173900Y270328D01*
X174300Y270528D01*
X174100Y270128D01*
X174300Y269728D01*
X173900Y269928D01*
X173500Y269728D01*
X237200Y167150D02*
X237600Y167950D01*
X237200Y168750D01*
X238000Y168350D01*
X238800Y168750D01*
X238400Y167950D01*
X238800Y167150D01*
X238000Y167550D01*
X237200Y167150D01*
X237600Y167550D02*
X237800Y167950D01*
X237600Y168350D01*
X238000Y168150D01*
X238400Y168350D01*
X238200Y167950D01*
X238400Y167550D01*
X238000Y167750D01*
X237600Y167550D01*
X294700Y53800D02*
X295100Y54600D01*
X294700Y55400D01*
X295500Y55000D01*
X296300Y55400D01*
X295900Y54600D01*
X296300Y53800D01*
X295500Y54200D01*
X294700Y53800D01*
X295100Y54200D02*
X295300Y54600D01*
X295100Y55000D01*
X295500Y54800D01*
X295900Y55000D01*
X295700Y54600D01*
X295900Y54200D01*
X295500Y54400D01*
X295100Y54200D01*
X130600Y115300D02*
X131000Y116100D01*
X130600Y116900D01*
X131400Y116500D01*
X132200Y116900D01*
X131800Y116100D01*
X132200Y115300D01*
X131400Y115700D01*
X130600Y115300D01*
X131000Y115700D02*
X131200Y116100D01*
X131000Y116500D01*
X131400Y116300D01*
X131800Y116500D01*
X131600Y116100D01*
X131800Y115700D01*
X131400Y115900D01*
X131000Y115700D01*
X270500Y72700D02*
X270900Y73500D01*
X270500Y74300D01*
X271300Y73900D01*
X272100Y74300D01*
X271700Y73500D01*
X272100Y72700D01*
X271300Y73100D01*
X270500Y72700D01*
X270900Y73100D02*
X271100Y73500D01*
X270900Y73900D01*
X271300Y73700D01*
X271700Y73900D01*
X271500Y73500D01*
X271700Y73100D01*
X271300Y73300D01*
X270900Y73100D01*
X280900Y46800D02*
X281300Y47600D01*
X280900Y48400D01*
X281700Y48000D01*
X282500Y48400D01*
X282100Y47600D01*
X282500Y46800D01*
X281700Y47200D01*
X280900Y46800D01*
X281300Y47200D02*
X281500Y47600D01*
X281300Y48000D01*
X281700Y47800D01*
X282100Y48000D01*
X281900Y47600D01*
X282100Y47200D01*
X281700Y47400D01*
X281300Y47200D01*
X215400Y47800D02*
X215800Y48600D01*
X215400Y49400D01*
X216200Y49000D01*
X217000Y49400D01*
X216600Y48600D01*
X217000Y47800D01*
X216200Y48200D01*
X215400Y47800D01*
X215800Y48200D02*
X216000Y48600D01*
X215800Y49000D01*
X216200Y48800D01*
X216600Y49000D01*
X216400Y48600D01*
X216600Y48200D01*
X216200Y48400D01*
X215800Y48200D01*
X121200Y150400D02*
X121600Y151200D01*
X121200Y152000D01*
X122000Y151600D01*
X122800Y152000D01*
X122400Y151200D01*
X122800Y150400D01*
X122000Y150800D01*
X121200Y150400D01*
X121600Y150800D02*
X121800Y151200D01*
X121600Y151600D01*
X122000Y151400D01*
X122400Y151600D01*
X122200Y151200D01*
X122400Y150800D01*
X122000Y151000D01*
X121600Y150800D01*
X94100Y163900D02*
X94500Y164700D01*
X94100Y165500D01*
X94900Y165100D01*
X95700Y165500D01*
X95300Y164700D01*
X95700Y163900D01*
X94900Y164300D01*
X94100Y163900D01*
X94500Y164300D02*
X94700Y164700D01*
X94500Y165100D01*
X94900Y164900D01*
X95300Y165100D01*
X95100Y164700D01*
X95300Y164300D01*
X94900Y164500D01*
X94500Y164300D01*
X131700Y47800D02*
X132100Y48600D01*
X131700Y49400D01*
X132500Y49000D01*
X133300Y49400D01*
X132900Y48600D01*
X133300Y47800D01*
X132500Y48200D01*
X131700Y47800D01*
X132100Y48200D02*
X132300Y48600D01*
X132100Y49000D01*
X132500Y48800D01*
X132900Y49000D01*
X132700Y48600D01*
X132900Y48200D01*
X132500Y48400D01*
X132100Y48200D01*
X124200Y193100D02*
X124600Y193900D01*
X124200Y194700D01*
X125000Y194300D01*
X125800Y194700D01*
X125400Y193900D01*
X125800Y193100D01*
X125000Y193500D01*
X124200Y193100D01*
X124600Y193500D02*
X124800Y193900D01*
X124600Y194300D01*
X125000Y194100D01*
X125400Y194300D01*
X125200Y193900D01*
X125400Y193500D01*
X125000Y193700D01*
X124600Y193500D01*
X43300Y47800D02*
X43700Y48600D01*
X43300Y49400D01*
X44100Y49000D01*
X44900Y49400D01*
X44500Y48600D01*
X44900Y47800D01*
X44100Y48200D01*
X43300Y47800D01*
X43700Y48200D02*
X43900Y48600D01*
X43700Y49000D01*
X44100Y48800D01*
X44500Y49000D01*
X44300Y48600D01*
X44500Y48200D01*
X44100Y48400D01*
X43700Y48200D01*
X237200Y108700D02*
X237600Y109500D01*
X237200Y110300D01*
X238000Y109900D01*
X238800Y110300D01*
X238400Y109500D01*
X238800Y108700D01*
X238000Y109100D01*
X237200Y108700D01*
X237600Y109100D02*
X237800Y109500D01*
X237600Y109900D01*
X238000Y109700D01*
X238400Y109900D01*
X238200Y109500D01*
X238400Y109100D01*
X238000Y109300D01*
X237600Y109100D01*
X256500Y219600D02*
X256900Y220400D01*
X256500Y221200D01*
X257300Y220800D01*
X258100Y221200D01*
X257700Y220400D01*
X258100Y219600D01*
X257300Y220000D01*
X256500Y219600D01*
X256900Y220000D02*
X257100Y220400D01*
X256900Y220800D01*
X257300Y220600D01*
X257700Y220800D01*
X257500Y220400D01*
X257700Y220000D01*
X257300Y220200D01*
X256900Y220000D01*
X256500Y207200D02*
X256900Y208000D01*
X256500Y208800D01*
X257300Y208400D01*
X258100Y208800D01*
X257700Y208000D01*
X258100Y207200D01*
X257300Y207600D01*
X256500Y207200D01*
X256900Y207600D02*
X257100Y208000D01*
X256900Y208400D01*
X257300Y208200D01*
X257700Y208400D01*
X257500Y208000D01*
X257700Y207600D01*
X257300Y207800D01*
X256900Y207600D01*
X181400Y202400D02*
X181800Y203200D01*
X181400Y204000D01*
X182200Y203600D01*
X183000Y204000D01*
X182600Y203200D01*
X183000Y202400D01*
X182200Y202800D01*
X181400Y202400D01*
X181800Y202800D02*
X182000Y203200D01*
X181800Y203600D01*
X182200Y203400D01*
X182600Y203600D01*
X182400Y203200D01*
X182600Y202800D01*
X182200Y203000D01*
X181800Y202800D01*
X201300Y245800D02*
X201700Y246600D01*
X201300Y247400D01*
X202100Y247000D01*
X202900Y247400D01*
X202500Y246600D01*
X202900Y245800D01*
X202100Y246200D01*
X201300Y245800D01*
X201700Y246200D02*
X201900Y246600D01*
X201700Y247000D01*
X202100Y246800D01*
X202500Y247000D01*
X202300Y246600D01*
X202500Y246200D01*
X202100Y246400D01*
X201700Y246200D01*
X224300Y225700D02*
X224700Y226500D01*
X224300Y227300D01*
X225100Y226900D01*
X225900Y227300D01*
X225500Y226500D01*
X225900Y225700D01*
X225100Y226100D01*
X224300Y225700D01*
X224700Y226100D02*
X224900Y226500D01*
X224700Y226900D01*
X225100Y226700D01*
X225500Y226900D01*
X225300Y226500D01*
X225500Y226100D01*
X225100Y226300D01*
X224700Y226100D01*
X109100Y269300D02*
X109500Y270100D01*
X109100Y270900D01*
X109900Y270500D01*
X110700Y270900D01*
X110300Y270100D01*
X110700Y269300D01*
X109900Y269700D01*
X109100Y269300D01*
X109500Y269700D02*
X109700Y270100D01*
X109500Y270500D01*
X109900Y270300D01*
X110300Y270500D01*
X110100Y270100D01*
X110300Y269700D01*
X109900Y269900D01*
X109500Y269700D01*
X109100Y294200D02*
X109500Y295000D01*
X109100Y295800D01*
X109900Y295400D01*
X110700Y295800D01*
X110300Y295000D01*
X110700Y294200D01*
X109900Y294600D01*
X109100Y294200D01*
X109500Y294600D02*
X109700Y295000D01*
X109500Y295400D01*
X109900Y295200D01*
X110300Y295400D01*
X110100Y295000D01*
X110300Y294600D01*
X109900Y294800D01*
X109500Y294600D01*
X109100Y252200D02*
X109500Y253000D01*
X109100Y253800D01*
X109900Y253400D01*
X110700Y253800D01*
X110300Y253000D01*
X110700Y252200D01*
X109900Y252600D01*
X109100Y252200D01*
X109500Y252600D02*
X109700Y253000D01*
X109500Y253400D01*
X109900Y253200D01*
X110300Y253400D01*
X110100Y253000D01*
X110300Y252600D01*
X109900Y252800D01*
X109500Y252600D01*
X109100Y244100D02*
X109500Y244900D01*
X109100Y245700D01*
X109900Y245300D01*
X110700Y245700D01*
X110300Y244900D01*
X110700Y244100D01*
X109900Y244500D01*
X109100Y244100D01*
X109500Y244500D02*
X109700Y244900D01*
X109500Y245300D01*
X109900Y245100D01*
X110300Y245300D01*
X110100Y244900D01*
X110300Y244500D01*
X109900Y244700D01*
X109500Y244500D01*
X282400Y311300D02*
X282800Y312100D01*
X282400Y312900D01*
X283200Y312500D01*
X284000Y312900D01*
X283600Y312100D01*
X284000Y311300D01*
X283200Y311700D01*
X282400Y311300D01*
X282800Y311700D02*
X283000Y312100D01*
X282800Y312500D01*
X283200Y312300D01*
X283600Y312500D01*
X283400Y312100D01*
X283600Y311700D01*
X283200Y311900D01*
X282800Y311700D01*
X261600Y264600D02*
X262000Y265400D01*
X261600Y266200D01*
X262400Y265800D01*
X263200Y266200D01*
X262800Y265400D01*
X263200Y264600D01*
X262400Y265000D01*
X261600Y264600D01*
X262000Y265000D02*
X262200Y265400D01*
X262000Y265800D01*
X262400Y265600D01*
X262800Y265800D01*
X262600Y265400D01*
X262800Y265000D01*
X262400Y265200D01*
X262000Y265000D01*
X261600Y294200D02*
X262000Y295000D01*
X261600Y295800D01*
X262400Y295400D01*
X263200Y295800D01*
X262800Y295000D01*
X263200Y294200D01*
X262400Y294600D01*
X261600Y294200D01*
X262000Y294600D02*
X262200Y295000D01*
X262000Y295400D01*
X262400Y295200D01*
X262800Y295400D01*
X262600Y295000D01*
X262800Y294600D01*
X262400Y294800D01*
X262000Y294600D01*
X297500Y200000D02*
X297900Y200800D01*
X297500Y201600D01*
X298300Y201200D01*
X299100Y201600D01*
X298700Y200800D01*
X299100Y200000D01*
X298300Y200400D01*
X297500Y200000D01*
X297900Y200400D02*
X298100Y200800D01*
X297900Y201200D01*
X298300Y201000D01*
X298700Y201200D01*
X298500Y200800D01*
X298700Y200400D01*
X298300Y200600D01*
X297900Y200400D01*
X297500Y189000D02*
X297900Y189800D01*
X297500Y190600D01*
X298300Y190200D01*
X299100Y190600D01*
X298700Y189800D01*
X299100Y189000D01*
X298300Y189400D01*
X297500Y189000D01*
X297900Y189400D02*
X298100Y189800D01*
X297900Y190200D01*
X298300Y190000D01*
X298700Y190200D01*
X298500Y189800D01*
X298700Y189400D01*
X298300Y189600D01*
X297900Y189400D01*
X323200Y184600D02*
X323600Y185400D01*
X323200Y186200D01*
X324000Y185800D01*
X324800Y186200D01*
X324400Y185400D01*
X324800Y184600D01*
X324000Y185000D01*
X323200Y184600D01*
X323600Y185000D02*
X323800Y185400D01*
X323600Y185800D01*
X324000Y185600D01*
X324400Y185800D01*
X324200Y185400D01*
X324400Y185000D01*
X324000Y185200D01*
X323600Y185000D01*
D116*
X318304Y231156D02*
G03*
X318304Y231156I-800J0D01*
G01*
X334052D02*
G03*
X334052Y231156I-800J0D01*
G01*
X349800D02*
G03*
X349800Y231156I-800J0D01*
G01*
Y354800D02*
G03*
X349800Y354800I-800J0D01*
G01*
X334052D02*
G03*
X334052Y354800I-800J0D01*
G01*
X318304D02*
G03*
X318304Y354800I-800J0D01*
G01*
X27361Y339290D02*
G03*
X27361Y339290I-800J0D01*
G01*
X37203D02*
G03*
X37203Y339290I-800J0D01*
G01*
Y273345D02*
G03*
X37203Y273345I-800J0D01*
G01*
X27361D02*
G03*
X27361Y273345I-800J0D01*
G01*
Y207400D02*
G03*
X27361Y207400I-800J0D01*
G01*
X37203D02*
G03*
X37203Y207400I-800J0D01*
G01*
Y141455D02*
G03*
X37203Y141455I-800J0D01*
G01*
X27361D02*
G03*
X27361Y141455I-800J0D01*
G01*
D117*
X26961Y339290D02*
G03*
X26961Y339290I-400J0D01*
G01*
X36803D02*
G03*
X36803Y339290I-400J0D01*
G01*
Y273345D02*
G03*
X36803Y273345I-400J0D01*
G01*
X26961D02*
G03*
X26961Y273345I-400J0D01*
G01*
Y207400D02*
G03*
X26961Y207400I-400J0D01*
G01*
X36803D02*
G03*
X36803Y207400I-400J0D01*
G01*
Y141455D02*
G03*
X36803Y141455I-400J0D01*
G01*
X26961D02*
G03*
X26961Y141455I-400J0D01*
G01*
M02*
