G04 Layer_Physical_Order=2*
G04 Layer_Color=16711680*
%FSLAX25Y25*%
%MOIN*%
G70*
G01*
G75*
%ADD42C,0.01000*%
%ADD43C,0.08268*%
%ADD44C,0.05512*%
%ADD45R,0.05906X0.05906*%
%ADD46C,0.05906*%
%ADD47C,0.04791*%
%ADD48R,0.06496X0.06496*%
%ADD49C,0.06496*%
%ADD50C,0.07087*%
%ADD51C,0.01870*%
%ADD52R,0.06791X0.06791*%
%ADD53C,0.06791*%
%ADD54R,0.06791X0.06791*%
%ADD55R,0.05575X0.05575*%
%ADD56C,0.05575*%
%ADD57C,0.05118*%
%ADD58R,0.05118X0.05118*%
%ADD59C,0.04925*%
%ADD60C,0.03150*%
D42*
X349000Y197700D02*
Y231156D01*
X346500Y195200D02*
X349000Y197700D01*
X262300Y195200D02*
X346500D01*
X346047Y118300D02*
Y190653D01*
X343000Y193700D02*
X346047Y190653D01*
X266000Y193700D02*
X343000D01*
X222100Y207400D02*
Y215400D01*
Y207200D02*
Y207400D01*
X77543Y360262D02*
X77700Y360105D01*
X213100Y172700D02*
Y188600D01*
X212100Y171700D02*
X213100Y172700D01*
X212100Y169300D02*
Y171700D01*
X213100Y188600D02*
X222100Y197600D01*
X214600Y187979D02*
X225700Y199079D01*
X214600Y170516D02*
Y187979D01*
Y170516D02*
X214675Y170441D01*
Y168234D02*
Y170441D01*
X216175Y187432D02*
X227200Y198457D01*
X216175Y165975D02*
Y187432D01*
X212041Y165600D02*
X214675Y168234D01*
X212100Y161900D02*
X216175Y165975D01*
X217800Y186936D02*
X228700Y197836D01*
X217800Y144400D02*
Y186936D01*
X219300Y186315D02*
X230200Y197215D01*
X219300Y165679D02*
Y186315D01*
X220800Y185693D02*
X231700Y196593D01*
X220800Y166300D02*
Y185693D01*
X222300Y167000D02*
X231600Y157700D01*
X222300Y167000D02*
Y185072D01*
X233200Y195972D01*
X222100Y197600D02*
Y200400D01*
X233200Y195972D02*
Y270379D01*
X231700Y196593D02*
Y271000D01*
X230200Y197215D02*
Y271000D01*
X228700Y197836D02*
Y270379D01*
X227200Y198457D02*
Y218500D01*
X225700Y199079D02*
Y216300D01*
X178300Y139400D02*
X181300Y142400D01*
X215800D02*
X217800Y144400D01*
X181300Y142400D02*
X215800D01*
X219300Y165679D02*
X225800Y159179D01*
X220800Y166300D02*
X228447Y158653D01*
X163500Y143300D02*
X170935Y150735D01*
X143251Y143300D02*
X163500D01*
X170935Y150735D02*
Y180635D01*
X170900Y148500D02*
X172700Y150300D01*
X170879Y148500D02*
X170900D01*
X170000Y147621D02*
X170879Y148500D01*
X170000Y147600D02*
Y147621D01*
X164200Y141800D02*
X170000Y147600D01*
X164821Y140300D02*
X174200Y149679D01*
X143872Y141800D02*
X164200D01*
X172700Y150300D02*
Y177100D01*
X144493Y140300D02*
X164821D01*
X174200Y149679D02*
Y149700D01*
X165500Y138800D02*
X175800Y149100D01*
X166100Y137200D02*
X177300Y148400D01*
X166800Y135700D02*
X181000Y149900D01*
X145115Y138800D02*
X165500D01*
X175800Y149100D02*
Y155400D01*
X145636Y137200D02*
X166100D01*
X177300Y148400D02*
Y152000D01*
X146257Y135700D02*
X166800D01*
X186337Y172437D02*
X188900Y175000D01*
X177600Y175100D02*
X180263Y172437D01*
X186337D01*
X177600Y175100D02*
Y179600D01*
X183911Y175012D02*
Y177489D01*
X173000Y188400D02*
X183911Y177489D01*
X147400Y129700D02*
X148400D01*
X138900Y32593D02*
X151293Y20200D01*
X140400Y33215D02*
X151915Y21700D01*
X141900Y33836D02*
X152536Y23200D01*
X143400Y34457D02*
X153157Y24700D01*
X144900Y35079D02*
X153779Y26200D01*
X151293Y20200D02*
X159700D01*
X167885Y21700D02*
X176485Y13100D01*
X151915Y21700D02*
X167885D01*
X176228Y23200D02*
X186328Y13100D01*
X152536Y23200D02*
X176228D01*
X184570Y24700D02*
X196170Y13100D01*
X153157Y24700D02*
X184570D01*
X192913Y26200D02*
X206013Y13100D01*
X153779Y26200D02*
X192913D01*
X201255Y27700D02*
X215855Y13100D01*
X154400Y27700D02*
X201255D01*
X146400Y35700D02*
X154400Y27700D01*
X137400Y31972D02*
X156502Y12870D01*
X156570D01*
X174200Y149700D02*
X174300Y149800D01*
X179100Y153800D02*
X181000D01*
X177300Y152000D02*
X179100Y153800D01*
X174300Y149800D02*
Y156100D01*
X178800Y160600D01*
X175800Y155400D02*
X178000Y157600D01*
X172700Y177100D02*
X173509Y177909D01*
X170935Y180635D02*
X171300Y181000D01*
X178000Y157600D02*
X180900D01*
X168200Y156500D02*
Y217500D01*
X246100Y106600D02*
X247900Y108400D01*
X261358Y105100D02*
X264658Y108400D01*
X265600Y103600D02*
X270400Y108400D01*
X279619Y100500D02*
X287519Y108400D01*
X272939Y102100D02*
X279239Y108400D01*
X200500Y104900D02*
X204900Y100500D01*
X279619D01*
X207000Y102100D02*
X272939D01*
X209600Y103600D02*
X265600D01*
X191300Y121900D02*
X191525D01*
X195200Y121700D02*
Y121800D01*
X214900Y106600D02*
X246100D01*
X211900Y105100D02*
X261358D01*
X203000Y118500D02*
X214900Y106600D01*
X203000Y118500D02*
Y118600D01*
X134300Y104900D02*
X135900Y106500D01*
X201341Y139800D02*
X203600D01*
X146400Y128700D02*
X147400Y129700D01*
X134400Y109300D02*
Y134449D01*
X135900Y106500D02*
Y133828D01*
X137400Y31972D02*
Y133207D01*
X138900Y32593D02*
Y132585D01*
X140400Y33215D02*
Y131964D01*
X141900Y33836D02*
Y131343D01*
X143400Y34457D02*
Y130721D01*
X144900Y35079D02*
Y130100D01*
X146400Y35700D02*
Y128700D01*
X154700Y122400D02*
Y126100D01*
X149500Y115500D02*
Y125300D01*
X152100Y118900D02*
Y125779D01*
X134400Y134449D02*
X143251Y143300D01*
X135900Y133828D02*
X143872Y141800D01*
X137400Y133207D02*
X144493Y140300D01*
X138900Y132585D02*
X145115Y138800D01*
X140400Y131964D02*
X145636Y137200D01*
X141900Y131343D02*
X146257Y135700D01*
X143400Y130721D02*
X146779Y134100D01*
X144900Y130100D02*
X147400Y132600D01*
X149500Y125300D02*
X155300Y131100D01*
X152100Y125779D02*
X155921Y129600D01*
X146779Y134100D02*
X182600D01*
X188300Y139800D01*
X147400Y132600D02*
X186400D01*
X193600Y139800D01*
X155300Y131100D02*
X189000D01*
X197700Y139800D01*
X155921Y129600D02*
X191141D01*
X201341Y139800D01*
X154700Y126100D02*
X156500Y127900D01*
X201600D01*
X211500Y165600D02*
X212041D01*
X204100Y251900D02*
Y321700D01*
X206700Y246600D02*
Y311400D01*
X209360Y314060D01*
X198700Y243300D02*
Y256400D01*
X225800Y155000D02*
Y159179D01*
X231600Y150400D02*
Y157700D01*
X228447Y152425D02*
Y152479D01*
Y158653D01*
X223400Y275679D02*
Y275800D01*
X228400Y272800D02*
Y275800D01*
X233400Y272700D02*
Y275800D01*
X238400Y275579D02*
Y275800D01*
X223400Y275679D02*
X228700Y270379D01*
X231700Y271000D02*
X233400Y272700D01*
X233200Y270379D02*
X238400Y275579D01*
X228400Y272800D02*
X230200Y271000D01*
X198700Y243300D02*
X225700Y216300D01*
X203900Y241800D02*
X227200Y218500D01*
X159300Y261600D02*
X164000Y266300D01*
X94097Y261466D02*
X100800Y268169D01*
X208925Y159875D02*
X211500Y157300D01*
X207339Y157761D02*
X211500Y153600D01*
X207700Y196800D02*
X217500D01*
X263800Y279500D02*
Y284784D01*
X266900Y280800D02*
X271300Y276400D01*
X285300D01*
X261100Y253800D02*
X274200D01*
X261100Y191500D02*
X263800D01*
X266000Y193700D01*
X261100Y198900D02*
X263500D01*
X265400Y197000D01*
X319000D01*
X322400Y200400D01*
Y206300D01*
X262200Y211200D02*
X273000D01*
X274200Y268600D02*
X276400Y266400D01*
X265200Y274200D02*
X268129Y271271D01*
X278600D01*
X130100Y105200D02*
X130200Y105100D01*
X282853Y291900D02*
X288000Y286753D01*
X238500Y291900D02*
X282853D01*
X91932Y367700D02*
X99370Y360262D01*
X50100Y9100D02*
X54100Y5100D01*
X260742D01*
X191300Y121900D02*
X209600Y103600D01*
X197000Y112100D02*
X207000Y102100D01*
X195200Y121800D02*
X211900Y105100D01*
X130200D02*
X134400Y109300D01*
X159700Y20200D02*
X166721Y13179D01*
X50100Y9100D02*
Y171133D01*
Y237067D01*
Y303000D01*
X260742Y5100D02*
X268843Y13200D01*
X106808Y367700D02*
X151328D01*
X99370Y360262D02*
X106808Y367700D01*
X151328D02*
X158768Y360261D01*
X50100Y303000D02*
Y363100D01*
X54700Y367700D01*
X91932D01*
X72395Y261466D02*
X85466D01*
X92340Y268340D01*
Y280200D01*
X100800Y268169D02*
Y280200D01*
X190000Y187200D02*
Y199341D01*
X160200Y237800D02*
Y261400D01*
Y237800D02*
X208925Y189075D01*
Y159875D02*
Y189075D01*
X193147Y195000D02*
Y198315D01*
X196200Y175000D02*
Y197384D01*
X207339Y157761D02*
Y188366D01*
X137500Y258205D02*
X207339Y188366D01*
X137500Y258205D02*
Y261400D01*
X69842Y323741D02*
Y360262D01*
Y323741D02*
X196200Y197384D01*
X137500Y261400D02*
X149500D01*
X155640Y267540D01*
Y280200D01*
X164000Y266300D02*
Y280200D01*
X276400Y266400D02*
X332400D01*
X341000Y275000D01*
Y297900D01*
X209360Y314060D02*
X213776D01*
X94097Y261466D02*
X105463Y250100D01*
X141363D01*
X193147Y198315D01*
X85261Y248600D02*
X140741D01*
X190000Y199341D01*
X72395Y261466D02*
X85261Y248600D01*
X263800Y279500D02*
X269000Y274300D01*
X280112Y273400D02*
X282100D01*
X279212Y274300D02*
X280112Y273400D01*
X269000Y274300D02*
X279212D01*
D43*
X362779Y247692D02*
D03*
X303724Y223282D02*
D03*
Y346926D02*
D03*
X362779Y371335D02*
D03*
D44*
X317504Y231156D02*
D03*
X333252D02*
D03*
X349000D02*
D03*
Y354800D02*
D03*
X333252D02*
D03*
X317504D02*
D03*
D45*
X346047Y118300D02*
D03*
D46*
X320457D02*
D03*
X346047Y100584D02*
D03*
X320457D02*
D03*
D47*
X330897Y297575D02*
D03*
X340897D02*
D03*
X350897D02*
D03*
X360897D02*
D03*
X330897Y327575D02*
D03*
X340897D02*
D03*
X350897D02*
D03*
X360897D02*
D03*
D48*
X268784Y360312D02*
D03*
X194091Y360261D02*
D03*
X259000Y13100D02*
D03*
X156800D02*
D03*
X129240Y360261D02*
D03*
D49*
X278626Y360312D02*
D03*
X223618Y360261D02*
D03*
X213776D02*
D03*
X203933D02*
D03*
X268843Y13100D02*
D03*
X215855D02*
D03*
X206013D02*
D03*
X196170D02*
D03*
X186328D02*
D03*
X176485D02*
D03*
X166642D02*
D03*
X158768Y360261D02*
D03*
X148925D02*
D03*
X139083D02*
D03*
D50*
X99370Y360262D02*
D03*
X89528D02*
D03*
X79685D02*
D03*
X69842D02*
D03*
X60000D02*
D03*
D51*
X319834Y19953D02*
D03*
X345818D02*
D03*
D52*
X252100Y156200D02*
D03*
D53*
Y166200D02*
D03*
X165300Y110400D02*
D03*
D54*
X155300D02*
D03*
D55*
X26561Y339290D02*
D03*
Y273345D02*
D03*
Y207400D02*
D03*
Y141455D02*
D03*
D56*
X36403Y339290D02*
D03*
Y273345D02*
D03*
Y207400D02*
D03*
Y141455D02*
D03*
D57*
X40401Y71460D02*
D03*
X30401D02*
D03*
D58*
X20401D02*
D03*
D59*
X160900Y153657D02*
D03*
Y163500D02*
D03*
Y173343D02*
D03*
D60*
X72395Y261466D02*
D03*
X94097D02*
D03*
X193147Y195000D02*
D03*
X222100Y207400D02*
D03*
X196200Y175000D02*
D03*
X190000Y188000D02*
D03*
X173000Y188400D02*
D03*
X177600Y179600D02*
D03*
X188900Y175000D02*
D03*
X183911Y175012D02*
D03*
X211500Y153600D02*
D03*
Y157300D02*
D03*
X148400Y129700D02*
D03*
X188300Y139800D02*
D03*
X181000Y149900D02*
D03*
X178800Y160600D02*
D03*
X181000Y157600D02*
D03*
Y153800D02*
D03*
X168200Y217500D02*
D03*
Y156500D02*
D03*
X173509Y177909D02*
D03*
X171300Y181000D02*
D03*
X222100Y215400D02*
D03*
X178300Y139400D02*
D03*
X279239Y108400D02*
D03*
X247900D02*
D03*
X256378D02*
D03*
X264658D02*
D03*
X287519D02*
D03*
X270400D02*
D03*
X200500Y104900D02*
D03*
X191525Y121900D02*
D03*
X195200Y121700D02*
D03*
X203000Y118600D02*
D03*
X197775Y111600D02*
D03*
X134300Y104900D02*
D03*
X197700Y139800D02*
D03*
X193600D02*
D03*
X201600Y127900D02*
D03*
X203600Y139800D02*
D03*
X149500Y115500D02*
D03*
X152100Y118900D02*
D03*
X154700Y122400D02*
D03*
X212100Y169300D02*
D03*
X211500Y165600D02*
D03*
X212100Y161900D02*
D03*
X222100Y200400D02*
D03*
X198600Y256500D02*
D03*
X203900Y241800D02*
D03*
X206700Y246600D02*
D03*
X204100Y251900D02*
D03*
Y321700D02*
D03*
X213776Y314060D02*
D03*
X223400Y275800D02*
D03*
X228400D02*
D03*
X233400D02*
D03*
X238400D02*
D03*
X228447Y152479D02*
D03*
X231600Y150400D02*
D03*
X225800Y155000D02*
D03*
X137500Y261400D02*
D03*
X159202Y261466D02*
D03*
X100800Y280200D02*
D03*
X155640D02*
D03*
X164000D02*
D03*
X92340D02*
D03*
X207700Y196800D02*
D03*
X217500D02*
D03*
X262300Y195200D02*
D03*
X261100Y191500D02*
D03*
Y198900D02*
D03*
X266900Y280800D02*
D03*
X263800Y284784D02*
D03*
X282100Y273400D02*
D03*
X285300Y276400D02*
D03*
X288000Y286753D02*
D03*
X274200Y253800D02*
D03*
X261100D02*
D03*
X322400Y206934D02*
D03*
X273000Y211200D02*
D03*
X262200D02*
D03*
X278600Y271271D02*
D03*
X274200Y268600D02*
D03*
X265200Y274200D02*
D03*
X130100Y105200D02*
D03*
X238500Y291900D02*
D03*
X50100Y303000D02*
D03*
Y237067D02*
D03*
Y171133D02*
D03*
X182750Y167200D02*
D03*
X187250Y149200D02*
D03*
X185000Y153700D02*
D03*
X187250Y158200D02*
D03*
X185000Y162700D02*
D03*
X187250Y167200D02*
D03*
X191750Y149200D02*
D03*
X189500Y153700D02*
D03*
X191750Y158200D02*
D03*
X189500Y162700D02*
D03*
X191750Y167200D02*
D03*
X196250Y149200D02*
D03*
X194000Y153700D02*
D03*
X196250Y158200D02*
D03*
X194000Y162700D02*
D03*
X196250Y167200D02*
D03*
X200750Y149200D02*
D03*
X198500Y153700D02*
D03*
X200750Y158200D02*
D03*
X198500Y162700D02*
D03*
X200750Y167200D02*
D03*
X205250Y149200D02*
D03*
X203000Y153700D02*
D03*
Y162700D02*
D03*
X160900Y178935D02*
D03*
X165123Y176990D02*
D03*
X159082Y168058D02*
D03*
X155707Y171256D02*
D03*
X155939Y175900D02*
D03*
X166155Y151696D02*
D03*
X162869Y148406D02*
D03*
X158232Y148751D02*
D03*
X155460Y152485D02*
D03*
X156459Y157026D02*
D03*
X173900Y270128D02*
D03*
X238000Y167950D02*
D03*
X295500Y54600D02*
D03*
X131400Y116100D02*
D03*
X271300Y73500D02*
D03*
X279500Y48600D02*
D03*
X216200D02*
D03*
X122000Y151200D02*
D03*
X94900Y164700D02*
D03*
X132500Y48600D02*
D03*
X125000Y193900D02*
D03*
X44100Y48600D02*
D03*
X238000Y109500D02*
D03*
X257300Y220400D02*
D03*
Y208000D02*
D03*
X182200Y203200D02*
D03*
X202100Y246600D02*
D03*
X225100Y226500D02*
D03*
X109900Y270100D02*
D03*
Y295000D02*
D03*
Y253000D02*
D03*
Y244900D02*
D03*
X283200Y312100D02*
D03*
X262400Y265400D02*
D03*
Y295000D02*
D03*
X298300Y200800D02*
D03*
Y189800D02*
D03*
X324000Y185400D02*
D03*
M02*
