G04 Layer_Physical_Order=2*
G04 Layer_Color=16711680*
%FSLAX25Y25*%
%MOIN*%
G70*
G01*
G75*
%ADD43C,0.01000*%
%ADD44R,0.05020X0.05020*%
%ADD45C,0.05020*%
%ADD46C,0.06496*%
%ADD47R,0.06496X0.06496*%
%ADD48C,0.07087*%
%ADD49C,0.01870*%
%ADD50C,0.06791*%
%ADD51R,0.06791X0.06791*%
%ADD52R,0.06791X0.06791*%
%ADD53R,0.05575X0.05575*%
%ADD54C,0.05575*%
%ADD55C,0.05512*%
%ADD56C,0.08268*%
%ADD57C,0.04791*%
%ADD58C,0.05906*%
%ADD59R,0.05906X0.05906*%
%ADD60R,0.05118X0.05118*%
%ADD61C,0.05118*%
%ADD62C,0.04925*%
%ADD63C,0.03150*%
G36*
X371300Y0D02*
X0D01*
Y379800D01*
X371300D01*
Y0D01*
D02*
G37*
%LPC*%
G36*
X363280Y376448D02*
Y371835D01*
X367892D01*
X367781Y372676D01*
X367264Y373924D01*
X366441Y374997D01*
X365369Y375820D01*
X364120Y376337D01*
X363280Y376448D01*
D02*
G37*
G36*
X362280D02*
X361439Y376337D01*
X360190Y375820D01*
X359118Y374997D01*
X358295Y373924D01*
X357778Y372676D01*
X357667Y371835D01*
X362280D01*
Y376448D01*
D02*
G37*
G36*
X367892Y370835D02*
X363280D01*
Y366223D01*
X364120Y366334D01*
X365369Y366851D01*
X366441Y367674D01*
X367264Y368746D01*
X367781Y369995D01*
X367892Y370835D01*
D02*
G37*
G36*
X362280D02*
X357667D01*
X357778Y369995D01*
X358295Y368746D01*
X359118Y367674D01*
X360190Y366851D01*
X361439Y366334D01*
X362280Y366223D01*
Y370835D01*
D02*
G37*
G36*
X151328Y368720D02*
X106808D01*
X106418Y368642D01*
X106087Y368421D01*
X101438Y363772D01*
X101409Y363794D01*
X100426Y364201D01*
X99370Y364340D01*
X98315Y364201D01*
X97331Y363794D01*
X97302Y363772D01*
X92653Y368421D01*
X92322Y368642D01*
X91932Y368720D01*
X54700D01*
X54310Y368642D01*
X53979Y368421D01*
X49379Y363821D01*
X49158Y363490D01*
X49080Y363100D01*
Y304814D01*
X48604Y304496D01*
X48146Y303809D01*
X47985Y303000D01*
X48146Y302190D01*
X48604Y301504D01*
X49080Y301186D01*
Y238881D01*
X48604Y238562D01*
X48146Y237876D01*
X47985Y237067D01*
X48146Y236257D01*
X48604Y235571D01*
X49080Y235253D01*
Y172947D01*
X48604Y172629D01*
X48146Y171943D01*
X47985Y171133D01*
X48146Y170324D01*
X48604Y169638D01*
X49080Y169319D01*
Y92200D01*
X49158Y91810D01*
X49379Y91479D01*
X136479Y4379D01*
X136810Y4158D01*
X137200Y4080D01*
X260742D01*
X261133Y4158D01*
X261463Y4379D01*
X266929Y9844D01*
X266952Y9826D01*
X267864Y9448D01*
X268843Y9320D01*
X269821Y9448D01*
X270733Y9826D01*
X271516Y10427D01*
X272116Y11210D01*
X272494Y12122D01*
X272623Y13100D01*
X272494Y14078D01*
X272116Y14990D01*
X271516Y15773D01*
X270733Y16374D01*
X269821Y16752D01*
X268843Y16880D01*
X267864Y16752D01*
X266952Y16374D01*
X266169Y15773D01*
X265569Y14990D01*
X265191Y14078D01*
X265062Y13100D01*
X265191Y12122D01*
X265522Y11322D01*
X263710Y9509D01*
X263248Y9701D01*
Y12600D01*
X259500D01*
Y8852D01*
X262399D01*
X262591Y8390D01*
X260320Y6120D01*
X137622D01*
X58749Y84993D01*
X58982Y85466D01*
X59000Y85464D01*
X59786Y85568D01*
X60518Y85871D01*
X61147Y86353D01*
X61629Y86982D01*
X61932Y87714D01*
X62036Y88500D01*
X61932Y89286D01*
X61629Y90018D01*
X61147Y90647D01*
X60518Y91129D01*
X59786Y91432D01*
X59122Y91520D01*
X52620Y98022D01*
Y124778D01*
X55422Y127580D01*
X107928D01*
X107946Y127490D01*
X108404Y126804D01*
X109090Y126346D01*
X109900Y126184D01*
X110710Y126346D01*
X111396Y126804D01*
X111854Y127490D01*
X112015Y128300D01*
X111854Y129110D01*
X111396Y129796D01*
X110710Y130254D01*
X109900Y130415D01*
X109090Y130254D01*
X108404Y129796D01*
X108286Y129620D01*
X55000D01*
X54610Y129542D01*
X54279Y129321D01*
X51582Y126623D01*
X51120Y126815D01*
Y169319D01*
X51596Y169638D01*
X52054Y170324D01*
X52215Y171133D01*
X52054Y171943D01*
X51596Y172629D01*
X51120Y172947D01*
Y235253D01*
X51596Y235571D01*
X52054Y236257D01*
X52215Y237067D01*
X52054Y237876D01*
X51596Y238562D01*
X51120Y238881D01*
Y301186D01*
X51596Y301504D01*
X52054Y302190D01*
X52215Y303000D01*
X52054Y303809D01*
X51596Y304496D01*
X51120Y304814D01*
Y362678D01*
X55122Y366680D01*
X91510D01*
X95860Y362330D01*
X95838Y362301D01*
X95431Y361318D01*
X95292Y360262D01*
X95431Y359207D01*
X95838Y358223D01*
X96486Y357379D01*
X97331Y356730D01*
X98315Y356323D01*
X99370Y356184D01*
X100426Y356323D01*
X101409Y356730D01*
X102254Y357379D01*
X102902Y358223D01*
X103309Y359207D01*
X103448Y360262D01*
X103309Y361318D01*
X102902Y362301D01*
X102880Y362330D01*
X107230Y366680D01*
X150906D01*
X155477Y362110D01*
X155116Y361239D01*
X154987Y360261D01*
X155116Y359282D01*
X155494Y358370D01*
X156095Y357588D01*
X156878Y356987D01*
X157789Y356609D01*
X158768Y356480D01*
X159746Y356609D01*
X160658Y356987D01*
X161441Y357588D01*
X162042Y358370D01*
X162419Y359282D01*
X162548Y360261D01*
X162419Y361239D01*
X162042Y362151D01*
X161441Y362934D01*
X160658Y363534D01*
X159746Y363912D01*
X158768Y364041D01*
X157789Y363912D01*
X156919Y363552D01*
X152049Y368421D01*
X151719Y368642D01*
X151328Y368720D01*
D02*
G37*
G36*
X10000Y376080D02*
X8783Y375960D01*
X7613Y375605D01*
X6534Y375029D01*
X5589Y374253D01*
X4813Y373307D01*
X4236Y372229D01*
X3881Y371059D01*
X3761Y369841D01*
X3881Y368624D01*
X4236Y367454D01*
X4813Y366375D01*
X5589Y365430D01*
X6534Y364654D01*
X7613Y364078D01*
X8783Y363723D01*
X10000Y363603D01*
X11217Y363723D01*
X12387Y364078D01*
X13466Y364654D01*
X14411Y365430D01*
X15187Y366375D01*
X15764Y367454D01*
X16119Y368624D01*
X16239Y369841D01*
X16119Y371059D01*
X15764Y372229D01*
X15187Y373307D01*
X14411Y374253D01*
X13466Y375029D01*
X12387Y375605D01*
X11217Y375960D01*
X10000Y376080D01*
D02*
G37*
G36*
X60500Y364779D02*
Y360762D01*
X64517D01*
X64426Y361448D01*
X63969Y362554D01*
X63240Y363503D01*
X62291Y364231D01*
X61186Y364689D01*
X60500Y364779D01*
D02*
G37*
G36*
X59500D02*
X58814Y364689D01*
X57709Y364231D01*
X56760Y363503D01*
X56031Y362554D01*
X55574Y361448D01*
X55483Y360762D01*
X59500D01*
Y364779D01*
D02*
G37*
G36*
X198339Y364509D02*
X194591D01*
Y360761D01*
X198339D01*
Y364509D01*
D02*
G37*
G36*
X193591D02*
X189843D01*
Y360761D01*
X193591D01*
Y364509D01*
D02*
G37*
G36*
X133488D02*
X129740D01*
Y360761D01*
X133488D01*
Y364509D01*
D02*
G37*
G36*
X128740D02*
X124992D01*
Y360761D01*
X128740D01*
Y364509D01*
D02*
G37*
G36*
X272532Y364060D02*
X265036D01*
Y356564D01*
X272532D01*
Y364060D01*
D02*
G37*
G36*
X278626Y364093D02*
X277648Y363964D01*
X276736Y363586D01*
X275953Y362985D01*
X275352Y362202D01*
X274975Y361291D01*
X274846Y360312D01*
X274975Y359334D01*
X275352Y358422D01*
X275953Y357639D01*
X276736Y357038D01*
X277648Y356661D01*
X278626Y356532D01*
X279605Y356661D01*
X280516Y357038D01*
X281299Y357639D01*
X281900Y358422D01*
X282278Y359334D01*
X282406Y360312D01*
X282278Y361291D01*
X281900Y362202D01*
X281299Y362985D01*
X280516Y363586D01*
X279605Y363964D01*
X278626Y364093D01*
D02*
G37*
G36*
X223618Y364041D02*
X222640Y363912D01*
X221728Y363534D01*
X220945Y362934D01*
X220344Y362151D01*
X219967Y361239D01*
X219838Y360261D01*
X219967Y359282D01*
X220344Y358370D01*
X220945Y357588D01*
X221728Y356987D01*
X222640Y356609D01*
X223618Y356480D01*
X224597Y356609D01*
X225508Y356987D01*
X226291Y357588D01*
X226892Y358370D01*
X227270Y359282D01*
X227399Y360261D01*
X227270Y361239D01*
X226892Y362151D01*
X226291Y362934D01*
X225508Y363534D01*
X224597Y363912D01*
X223618Y364041D01*
D02*
G37*
G36*
X213776D02*
X212797Y363912D01*
X211885Y363534D01*
X211103Y362934D01*
X210502Y362151D01*
X210124Y361239D01*
X209995Y360261D01*
X210124Y359282D01*
X210502Y358370D01*
X211103Y357588D01*
X211885Y356987D01*
X212797Y356609D01*
X213776Y356480D01*
X214754Y356609D01*
X215666Y356987D01*
X216449Y357588D01*
X217050Y358370D01*
X217427Y359282D01*
X217556Y360261D01*
X217427Y361239D01*
X217050Y362151D01*
X216449Y362934D01*
X215666Y363534D01*
X214754Y363912D01*
X213776Y364041D01*
D02*
G37*
G36*
X203933D02*
X202955Y363912D01*
X202043Y363534D01*
X201260Y362934D01*
X200659Y362151D01*
X200282Y361239D01*
X200153Y360261D01*
X200282Y359282D01*
X200659Y358370D01*
X201260Y357588D01*
X202043Y356987D01*
X202955Y356609D01*
X203933Y356480D01*
X204912Y356609D01*
X205823Y356987D01*
X206606Y357588D01*
X207207Y358370D01*
X207585Y359282D01*
X207714Y360261D01*
X207585Y361239D01*
X207207Y362151D01*
X206606Y362934D01*
X205823Y363534D01*
X204912Y363912D01*
X203933Y364041D01*
D02*
G37*
G36*
X148925D02*
X147947Y363912D01*
X147035Y363534D01*
X146252Y362934D01*
X145651Y362151D01*
X145274Y361239D01*
X145145Y360261D01*
X145274Y359282D01*
X145651Y358370D01*
X146252Y357588D01*
X147035Y356987D01*
X147947Y356609D01*
X148925Y356480D01*
X149904Y356609D01*
X150815Y356987D01*
X151598Y357588D01*
X152199Y358370D01*
X152577Y359282D01*
X152706Y360261D01*
X152577Y361239D01*
X152199Y362151D01*
X151598Y362934D01*
X150815Y363534D01*
X149904Y363912D01*
X148925Y364041D01*
D02*
G37*
G36*
X139083D02*
X138104Y363912D01*
X137192Y363534D01*
X136410Y362934D01*
X135809Y362151D01*
X135431Y361239D01*
X135302Y360261D01*
X135431Y359282D01*
X135809Y358370D01*
X136410Y357588D01*
X137192Y356987D01*
X138104Y356609D01*
X139083Y356480D01*
X140061Y356609D01*
X140973Y356987D01*
X141756Y357588D01*
X142357Y358370D01*
X142734Y359282D01*
X142863Y360261D01*
X142734Y361239D01*
X142357Y362151D01*
X141756Y362934D01*
X140973Y363534D01*
X140061Y363912D01*
X139083Y364041D01*
D02*
G37*
G36*
X89528Y364340D02*
X88472Y364201D01*
X87489Y363794D01*
X86644Y363146D01*
X85996Y362301D01*
X85588Y361318D01*
X85449Y360262D01*
X85588Y359207D01*
X85996Y358223D01*
X86644Y357379D01*
X87489Y356730D01*
X88472Y356323D01*
X89528Y356184D01*
X90583Y356323D01*
X91567Y356730D01*
X92411Y357379D01*
X93059Y358223D01*
X93467Y359207D01*
X93606Y360262D01*
X93467Y361318D01*
X93059Y362301D01*
X92411Y363146D01*
X91567Y363794D01*
X90583Y364201D01*
X89528Y364340D01*
D02*
G37*
G36*
X79685D02*
X78629Y364201D01*
X77646Y363794D01*
X76801Y363146D01*
X76153Y362301D01*
X75746Y361318D01*
X75607Y360262D01*
X75746Y359207D01*
X76153Y358223D01*
X76801Y357379D01*
X77646Y356730D01*
X78629Y356323D01*
X79685Y356184D01*
X80740Y356323D01*
X81724Y356730D01*
X82569Y357379D01*
X83217Y358223D01*
X83624Y359207D01*
X83763Y360262D01*
X83624Y361318D01*
X83217Y362301D01*
X82569Y363146D01*
X81724Y363794D01*
X80740Y364201D01*
X79685Y364340D01*
D02*
G37*
G36*
X198339Y359761D02*
X194591D01*
Y356013D01*
X198339D01*
Y359761D01*
D02*
G37*
G36*
X193591D02*
X189843D01*
Y356013D01*
X193591D01*
Y359761D01*
D02*
G37*
G36*
X133488D02*
X129740D01*
Y356013D01*
X133488D01*
Y359761D01*
D02*
G37*
G36*
X128740D02*
X124992D01*
Y356013D01*
X128740D01*
Y359761D01*
D02*
G37*
G36*
X64517Y359762D02*
X60500D01*
Y355746D01*
X61186Y355836D01*
X62291Y356294D01*
X63240Y357022D01*
X63969Y357971D01*
X64426Y359076D01*
X64517Y359762D01*
D02*
G37*
G36*
X59500D02*
X55483D01*
X55574Y359076D01*
X56031Y357971D01*
X56760Y357022D01*
X57709Y356294D01*
X58814Y355836D01*
X59500Y355746D01*
Y359762D01*
D02*
G37*
G36*
X333752Y358523D02*
Y355300D01*
X336974D01*
X336911Y355781D01*
X336533Y356694D01*
X335931Y357479D01*
X335146Y358081D01*
X334232Y358459D01*
X333752Y358523D01*
D02*
G37*
G36*
X332752D02*
X332272Y358459D01*
X331358Y358081D01*
X330573Y357479D01*
X329971Y356694D01*
X329593Y355781D01*
X329530Y355300D01*
X332752D01*
Y358523D01*
D02*
G37*
G36*
X349000Y358084D02*
X348150Y357972D01*
X347358Y357644D01*
X346678Y357122D01*
X346156Y356442D01*
X345828Y355650D01*
X345716Y354800D01*
X345828Y353950D01*
X346156Y353158D01*
X346678Y352478D01*
X347358Y351956D01*
X348150Y351628D01*
X349000Y351516D01*
X349850Y351628D01*
X350642Y351956D01*
X351322Y352478D01*
X351844Y353158D01*
X352172Y353950D01*
X352284Y354800D01*
X352172Y355650D01*
X351844Y356442D01*
X351322Y357122D01*
X350642Y357644D01*
X349850Y357972D01*
X349000Y358084D01*
D02*
G37*
G36*
X317504D02*
X316654Y357972D01*
X315862Y357644D01*
X315182Y357122D01*
X314660Y356442D01*
X314332Y355650D01*
X314220Y354800D01*
X314332Y353950D01*
X314660Y353158D01*
X315182Y352478D01*
X315862Y351956D01*
X316654Y351628D01*
X317504Y351516D01*
X318354Y351628D01*
X319146Y351956D01*
X319826Y352478D01*
X320348Y353158D01*
X320676Y353950D01*
X320788Y354800D01*
X320676Y355650D01*
X320348Y356442D01*
X319826Y357122D01*
X319146Y357644D01*
X318354Y357972D01*
X317504Y358084D01*
D02*
G37*
G36*
X336974Y354300D02*
X333752D01*
Y351078D01*
X334232Y351141D01*
X335146Y351519D01*
X335931Y352121D01*
X336533Y352906D01*
X336911Y353819D01*
X336974Y354300D01*
D02*
G37*
G36*
X332752D02*
X329530D01*
X329593Y353819D01*
X329971Y352906D01*
X330573Y352121D01*
X331358Y351519D01*
X332272Y351141D01*
X332752Y351078D01*
Y354300D01*
D02*
G37*
G36*
X304224Y352038D02*
Y347426D01*
X308837D01*
X308726Y348266D01*
X308209Y349515D01*
X307386Y350588D01*
X306313Y351410D01*
X305065Y351928D01*
X304224Y352038D01*
D02*
G37*
G36*
X303224D02*
X302384Y351928D01*
X301135Y351410D01*
X300063Y350588D01*
X299240Y349515D01*
X298723Y348266D01*
X298612Y347426D01*
X303224D01*
Y352038D01*
D02*
G37*
G36*
X308837Y346426D02*
X304224D01*
Y341814D01*
X305065Y341924D01*
X306313Y342442D01*
X307386Y343265D01*
X308209Y344337D01*
X308726Y345586D01*
X308837Y346426D01*
D02*
G37*
G36*
X303224D02*
X298612D01*
X298723Y345586D01*
X299240Y344337D01*
X300063Y343265D01*
X301135Y342442D01*
X302384Y341924D01*
X303224Y341814D01*
Y346426D01*
D02*
G37*
G36*
X36903Y343044D02*
Y339790D01*
X40157D01*
X40093Y340279D01*
X39712Y341200D01*
X39105Y341991D01*
X38313Y342598D01*
X37392Y342980D01*
X36903Y343044D01*
D02*
G37*
G36*
X35903D02*
X35415Y342980D01*
X34493Y342598D01*
X33702Y341991D01*
X33095Y341200D01*
X32713Y340279D01*
X32649Y339790D01*
X35903D01*
Y343044D01*
D02*
G37*
G36*
X29848Y342578D02*
X23273D01*
Y336003D01*
X29848D01*
Y342578D01*
D02*
G37*
G36*
X40157Y338790D02*
X36903D01*
Y335536D01*
X37392Y335600D01*
X38313Y335982D01*
X39105Y336589D01*
X39712Y337380D01*
X40093Y338301D01*
X40157Y338790D01*
D02*
G37*
G36*
X35903D02*
X32649D01*
X32713Y338301D01*
X33095Y337380D01*
X33702Y336589D01*
X34493Y335982D01*
X35415Y335600D01*
X35903Y335536D01*
Y338790D01*
D02*
G37*
G36*
X331397Y330934D02*
Y328075D01*
X334256D01*
X334205Y328461D01*
X333863Y329287D01*
X333319Y329997D01*
X332610Y330541D01*
X331783Y330883D01*
X331397Y330934D01*
D02*
G37*
G36*
X330397Y330934D02*
X330011Y330883D01*
X329185Y330541D01*
X328475Y329997D01*
X327931Y329287D01*
X327589Y328461D01*
X327538Y328075D01*
X330397D01*
Y330934D01*
D02*
G37*
G36*
X360897Y330496D02*
X360141Y330396D01*
X359437Y330104D01*
X358832Y329640D01*
X358368Y329035D01*
X358076Y328331D01*
X357976Y327575D01*
X358076Y326819D01*
X358368Y326115D01*
X358832Y325510D01*
X359437Y325045D01*
X360141Y324754D01*
X360897Y324654D01*
X361653Y324754D01*
X362357Y325045D01*
X362962Y325510D01*
X363426Y326115D01*
X363718Y326819D01*
X363818Y327575D01*
X363718Y328331D01*
X363426Y329035D01*
X362962Y329640D01*
X362357Y330104D01*
X361653Y330396D01*
X360897Y330496D01*
D02*
G37*
G36*
X350897D02*
X350141Y330396D01*
X349437Y330104D01*
X348832Y329640D01*
X348368Y329035D01*
X348076Y328331D01*
X347976Y327575D01*
X348076Y326819D01*
X348368Y326115D01*
X348832Y325510D01*
X349437Y325045D01*
X350141Y324754D01*
X350897Y324654D01*
X351653Y324754D01*
X352357Y325045D01*
X352962Y325510D01*
X353426Y326115D01*
X353718Y326819D01*
X353818Y327575D01*
X353718Y328331D01*
X353426Y329035D01*
X352962Y329640D01*
X352357Y330104D01*
X351653Y330396D01*
X350897Y330496D01*
D02*
G37*
G36*
X340897D02*
X340141Y330396D01*
X339437Y330104D01*
X338832Y329640D01*
X338368Y329035D01*
X338076Y328331D01*
X337976Y327575D01*
X338076Y326819D01*
X338368Y326115D01*
X338832Y325510D01*
X339437Y325045D01*
X340141Y324754D01*
X340897Y324654D01*
X341653Y324754D01*
X342357Y325045D01*
X342962Y325510D01*
X343426Y326115D01*
X343718Y326819D01*
X343818Y327575D01*
X343718Y328331D01*
X343426Y329035D01*
X342962Y329640D01*
X342357Y330104D01*
X341653Y330396D01*
X340897Y330496D01*
D02*
G37*
G36*
X330397Y327075D02*
X327538D01*
X327589Y326688D01*
X327931Y325862D01*
X328475Y325153D01*
X329185Y324609D01*
X330011Y324267D01*
X330397Y324216D01*
Y327075D01*
D02*
G37*
G36*
X334256D02*
X331397D01*
Y324216D01*
X331783Y324267D01*
X332610Y324609D01*
X333319Y325153D01*
X333863Y325862D01*
X334205Y326688D01*
X334256Y327075D01*
D02*
G37*
G36*
X204100Y323815D02*
X203291Y323654D01*
X202604Y323196D01*
X202146Y322510D01*
X201985Y321700D01*
X202146Y320890D01*
X202604Y320204D01*
X203080Y319886D01*
Y253714D01*
X202604Y253396D01*
X202146Y252710D01*
X201985Y251900D01*
X202146Y251091D01*
X202604Y250404D01*
X203291Y249946D01*
X204100Y249784D01*
X204909Y249946D01*
X205180Y250127D01*
X205680Y249859D01*
Y248414D01*
X205204Y248096D01*
X204746Y247410D01*
X204585Y246600D01*
X204746Y245791D01*
X205204Y245104D01*
X205890Y244646D01*
X206700Y244484D01*
X207509Y244646D01*
X208196Y245104D01*
X208654Y245791D01*
X208816Y246600D01*
X208654Y247410D01*
X208196Y248096D01*
X207720Y248414D01*
Y310978D01*
X209782Y313040D01*
X211962D01*
X212280Y312564D01*
X212966Y312105D01*
X213776Y311944D01*
X214585Y312105D01*
X215271Y312564D01*
X215730Y313250D01*
X215891Y314060D01*
X215730Y314869D01*
X215271Y315556D01*
X214585Y316014D01*
X213776Y316175D01*
X212966Y316014D01*
X212280Y315556D01*
X211962Y315079D01*
X209360D01*
X208970Y315002D01*
X208639Y314781D01*
X205979Y312121D01*
X205758Y311790D01*
X205680Y311400D01*
Y254455D01*
X205180Y254171D01*
X205120Y254208D01*
Y319886D01*
X205596Y320204D01*
X206054Y320890D01*
X206216Y321700D01*
X206054Y322510D01*
X205596Y323196D01*
X204909Y323654D01*
X204100Y323815D01*
D02*
G37*
G36*
X360897Y300496D02*
X360141Y300396D01*
X359437Y300104D01*
X358832Y299640D01*
X358368Y299035D01*
X358076Y298331D01*
X357976Y297575D01*
X358076Y296819D01*
X358368Y296114D01*
X358832Y295510D01*
X359437Y295045D01*
X360141Y294754D01*
X360897Y294654D01*
X361653Y294754D01*
X362357Y295045D01*
X362962Y295510D01*
X363426Y296114D01*
X363718Y296819D01*
X363818Y297575D01*
X363718Y298331D01*
X363426Y299035D01*
X362962Y299640D01*
X362357Y300104D01*
X361653Y300396D01*
X360897Y300496D01*
D02*
G37*
G36*
X350897D02*
X350141Y300396D01*
X349437Y300104D01*
X348832Y299640D01*
X348368Y299035D01*
X348076Y298331D01*
X347976Y297575D01*
X348076Y296819D01*
X348368Y296114D01*
X348832Y295510D01*
X349437Y295045D01*
X350141Y294754D01*
X350897Y294654D01*
X351653Y294754D01*
X352357Y295045D01*
X352962Y295510D01*
X353426Y296114D01*
X353718Y296819D01*
X353818Y297575D01*
X353718Y298331D01*
X353426Y299035D01*
X352962Y299640D01*
X352357Y300104D01*
X351653Y300396D01*
X350897Y300496D01*
D02*
G37*
G36*
X330897D02*
X330141Y300396D01*
X329437Y300104D01*
X328832Y299640D01*
X328368Y299035D01*
X328076Y298331D01*
X327976Y297575D01*
X328076Y296819D01*
X328368Y296114D01*
X328832Y295510D01*
X329437Y295045D01*
X330141Y294754D01*
X330897Y294654D01*
X331653Y294754D01*
X332357Y295045D01*
X332962Y295510D01*
X333426Y296114D01*
X333718Y296819D01*
X333818Y297575D01*
X333718Y298331D01*
X333426Y299035D01*
X332962Y299640D01*
X332357Y300104D01*
X331653Y300396D01*
X330897Y300496D01*
D02*
G37*
G36*
X238500Y294016D02*
X237690Y293854D01*
X237004Y293396D01*
X236546Y292709D01*
X236385Y291900D01*
X236546Y291090D01*
X237004Y290404D01*
X237690Y289946D01*
X238500Y289785D01*
X239310Y289946D01*
X239996Y290404D01*
X240314Y290880D01*
X277030D01*
X280596Y287315D01*
X280485Y286753D01*
X280646Y285943D01*
X281104Y285257D01*
X281790Y284798D01*
X282600Y284637D01*
X283410Y284798D01*
X284096Y285257D01*
X284554Y285943D01*
X284716Y286753D01*
X284554Y287562D01*
X284096Y288249D01*
X283410Y288707D01*
X282600Y288868D01*
X282038Y288756D01*
X278174Y292621D01*
X277843Y292842D01*
X277453Y292920D01*
X240314D01*
X239996Y293396D01*
X239310Y293854D01*
X238500Y294016D01*
D02*
G37*
G36*
X69842Y364340D02*
X68787Y364201D01*
X67803Y363794D01*
X66959Y363146D01*
X66311Y362301D01*
X65903Y361318D01*
X65764Y360262D01*
X65903Y359207D01*
X66311Y358223D01*
X66959Y357379D01*
X67803Y356730D01*
X68787Y356323D01*
X68823Y356318D01*
Y323741D01*
X68901Y323351D01*
X69122Y323021D01*
X108919Y283223D01*
X108728Y282761D01*
X89014D01*
X88696Y283237D01*
X88010Y283696D01*
X87200Y283857D01*
X86390Y283696D01*
X85704Y283237D01*
X85246Y282551D01*
X85100Y281820D01*
X84839Y281647D01*
X84611Y281559D01*
X84420Y281700D01*
Y288580D01*
X84896Y288898D01*
X85354Y289585D01*
X85515Y290394D01*
X85354Y291204D01*
X84896Y291890D01*
X84210Y292349D01*
X83400Y292510D01*
X82590Y292349D01*
X81904Y291890D01*
X81446Y291204D01*
X81285Y290394D01*
X81446Y289585D01*
X81904Y288898D01*
X82380Y288580D01*
Y281100D01*
X82458Y280710D01*
X82679Y280379D01*
X84679Y278379D01*
X85010Y278158D01*
X85400Y278080D01*
X109819D01*
X167845Y220055D01*
X167680Y219512D01*
X167391Y219454D01*
X166704Y218996D01*
X166246Y218309D01*
X166085Y217500D01*
X166246Y216690D01*
X166704Y216004D01*
X167180Y215686D01*
Y189800D01*
X167258Y189410D01*
X167479Y189079D01*
X170496Y186062D01*
X170385Y185500D01*
X170546Y184690D01*
X171004Y184004D01*
X171690Y183546D01*
X172500Y183385D01*
X173310Y183546D01*
X173996Y184004D01*
X174454Y184690D01*
X174616Y185500D01*
X174522Y185970D01*
X174947Y186395D01*
X175000Y186384D01*
X175810Y186546D01*
X176496Y187004D01*
X176814Y187480D01*
X177578D01*
X187780Y177278D01*
Y174214D01*
X187304Y173896D01*
X186846Y173210D01*
X186685Y172400D01*
X186846Y171590D01*
X187304Y170904D01*
X187990Y170446D01*
X188800Y170284D01*
X189610Y170446D01*
X190296Y170904D01*
X190754Y171590D01*
X190916Y172400D01*
X190883Y172564D01*
X191236Y172917D01*
X191400Y172885D01*
X192209Y173046D01*
X192896Y173504D01*
X193354Y174190D01*
X193516Y175000D01*
X193354Y175810D01*
X192896Y176496D01*
X192420Y176814D01*
Y177300D01*
X192342Y177690D01*
X192121Y178021D01*
X178121Y192021D01*
X177790Y192242D01*
X177400Y192320D01*
X174314D01*
X173996Y192796D01*
X173310Y193254D01*
X172500Y193415D01*
X171690Y193254D01*
X171004Y192796D01*
X170546Y192110D01*
X170385Y191300D01*
X170546Y190490D01*
X171004Y189804D01*
X171690Y189346D01*
X172500Y189184D01*
X172601Y189205D01*
X172954Y188851D01*
X172885Y188500D01*
X172978Y188030D01*
X172553Y187605D01*
X172500Y187616D01*
X171938Y187504D01*
X169220Y190222D01*
Y215686D01*
X169696Y216004D01*
X170154Y216690D01*
X170212Y216980D01*
X170755Y217145D01*
X188980Y198919D01*
Y189814D01*
X188504Y189496D01*
X188046Y188810D01*
X187884Y188000D01*
X188046Y187190D01*
X188504Y186504D01*
X189190Y186046D01*
X190000Y185884D01*
X190810Y186046D01*
X191496Y186504D01*
X191954Y187190D01*
X192115Y188000D01*
X191954Y188810D01*
X191496Y189496D01*
X191020Y189814D01*
Y193550D01*
X191520Y193701D01*
X191651Y193504D01*
X192338Y193046D01*
X193147Y192885D01*
X193957Y193046D01*
X194643Y193504D01*
X195102Y194191D01*
X195263Y195000D01*
X195102Y195809D01*
X194643Y196496D01*
X194167Y196814D01*
Y197322D01*
X194629Y197513D01*
X195780Y196362D01*
Y176814D01*
X195304Y176496D01*
X194846Y175810D01*
X194685Y175000D01*
X194846Y174190D01*
X195304Y173504D01*
X195991Y173046D01*
X196800Y172885D01*
X197609Y173046D01*
X198296Y173504D01*
X198754Y174190D01*
X198916Y175000D01*
X198754Y175810D01*
X198296Y176496D01*
X197820Y176814D01*
Y195791D01*
X198282Y195982D01*
X206320Y187944D01*
Y157761D01*
X206397Y157370D01*
X206618Y157040D01*
X209997Y153661D01*
X209984Y153600D01*
X210146Y152790D01*
X210604Y152104D01*
X211291Y151646D01*
X212100Y151485D01*
X212910Y151646D01*
X213596Y152104D01*
X214054Y152790D01*
X214215Y153600D01*
X214054Y154410D01*
X213596Y155096D01*
X213440Y155200D01*
Y155700D01*
X213596Y155804D01*
X214054Y156491D01*
X214215Y157300D01*
X214054Y158109D01*
X213596Y158796D01*
X212910Y159254D01*
X212454Y159345D01*
Y159855D01*
X212910Y159946D01*
X213596Y160404D01*
X213914Y160880D01*
X218600D01*
X218990Y160958D01*
X219321Y161179D01*
X227219Y169077D01*
X227680Y168885D01*
Y163622D01*
X222379Y158321D01*
X222158Y157990D01*
X222080Y157600D01*
Y124122D01*
X220178Y122220D01*
X172000D01*
X171610Y122142D01*
X171279Y121921D01*
X170362Y121004D01*
X169800Y121116D01*
X168991Y120954D01*
X168304Y120496D01*
X167846Y119809D01*
X167684Y119000D01*
X167846Y118191D01*
X168304Y117504D01*
X168991Y117046D01*
X169800Y116885D01*
X170609Y117046D01*
X171296Y117504D01*
X171754Y118191D01*
X171915Y119000D01*
X171804Y119562D01*
X172422Y120180D01*
X193829D01*
X193980Y119680D01*
X193704Y119496D01*
X193246Y118809D01*
X193085Y118000D01*
X193246Y117191D01*
X193443Y116895D01*
X193198Y116361D01*
X193117Y116351D01*
X193021Y116496D01*
X192335Y116954D01*
X191525Y117115D01*
X190716Y116954D01*
X190029Y116496D01*
X189571Y115810D01*
X189410Y115000D01*
X189571Y114190D01*
X190029Y113504D01*
X190716Y113046D01*
X191525Y112884D01*
X192335Y113046D01*
X193021Y113504D01*
X193339Y113980D01*
X196739D01*
X196854Y113480D01*
X196279Y113096D01*
X195820Y112409D01*
X195659Y111600D01*
X195820Y110791D01*
X196279Y110104D01*
X196965Y109646D01*
X197775Y109485D01*
X198107Y109551D01*
X200194Y107464D01*
X200029Y106922D01*
X199690Y106854D01*
X199004Y106396D01*
X198546Y105710D01*
X198384Y104900D01*
X198546Y104090D01*
X199004Y103404D01*
X199690Y102946D01*
X200500Y102785D01*
X201062Y102896D01*
X204179Y99779D01*
X204510Y99558D01*
X204900Y99480D01*
X279619D01*
X280010Y99558D01*
X280340Y99779D01*
X286958Y106396D01*
X287519Y106284D01*
X288329Y106446D01*
X289015Y106904D01*
X289474Y107590D01*
X289635Y108400D01*
X289474Y109210D01*
X289015Y109896D01*
X288329Y110354D01*
X287519Y110515D01*
X286710Y110354D01*
X286023Y109896D01*
X285565Y109210D01*
X285404Y108400D01*
X285516Y107838D01*
X279197Y101520D01*
X274453D01*
X274262Y101981D01*
X278677Y106396D01*
X279239Y106284D01*
X280048Y106446D01*
X280734Y106904D01*
X281193Y107590D01*
X281354Y108400D01*
X281193Y109210D01*
X280734Y109896D01*
X280048Y110354D01*
X279239Y110515D01*
X278429Y110354D01*
X277743Y109896D01*
X277284Y109210D01*
X277123Y108400D01*
X277235Y107838D01*
X272516Y103120D01*
X267215D01*
X267023Y103582D01*
X269838Y106396D01*
X270400Y106284D01*
X271210Y106446D01*
X271896Y106904D01*
X272354Y107590D01*
X272516Y108400D01*
X272354Y109210D01*
X271896Y109896D01*
X271210Y110354D01*
X270400Y110515D01*
X269590Y110354D01*
X268904Y109896D01*
X268446Y109210D01*
X268285Y108400D01*
X268396Y107838D01*
X265178Y104620D01*
X262973D01*
X262782Y105081D01*
X264096Y106396D01*
X264658Y106284D01*
X265468Y106446D01*
X266154Y106904D01*
X266613Y107590D01*
X266774Y108400D01*
X266613Y109210D01*
X266154Y109896D01*
X265468Y110354D01*
X264658Y110515D01*
X263848Y110354D01*
X263162Y109896D01*
X262704Y109210D01*
X262543Y108400D01*
X262654Y107838D01*
X260936Y106120D01*
X257599D01*
X257448Y106620D01*
X257873Y106904D01*
X258332Y107590D01*
X258493Y108400D01*
X258332Y109210D01*
X257873Y109896D01*
X257187Y110354D01*
X256378Y110515D01*
X255568Y110354D01*
X254882Y109896D01*
X254423Y109210D01*
X254262Y108400D01*
X254423Y107590D01*
X254882Y106904D01*
X255308Y106620D01*
X255156Y106120D01*
X249122D01*
X248970Y106620D01*
X249396Y106904D01*
X249854Y107590D01*
X250015Y108400D01*
X249854Y109210D01*
X249396Y109896D01*
X248710Y110354D01*
X247900Y110515D01*
X247091Y110354D01*
X246404Y109896D01*
X245946Y109210D01*
X245784Y108400D01*
X245855Y108046D01*
X245487Y107620D01*
X215322D01*
X204987Y117955D01*
X205116Y118600D01*
X204954Y119410D01*
X204773Y119680D01*
X205041Y120180D01*
X220600D01*
X220990Y120258D01*
X221321Y120479D01*
X223821Y122979D01*
X224042Y123310D01*
X224120Y123700D01*
Y153026D01*
X224620Y153293D01*
X224991Y153046D01*
X225800Y152884D01*
X225996Y152924D01*
X226349Y152570D01*
X226331Y152479D01*
X226492Y151669D01*
X226951Y150983D01*
X227637Y150524D01*
X228447Y150363D01*
X228999Y150473D01*
X229326Y150424D01*
X229541Y150114D01*
X229646Y149591D01*
X230104Y148904D01*
X230790Y148446D01*
X231600Y148284D01*
X232410Y148446D01*
X233096Y148904D01*
X233554Y149591D01*
X233716Y150400D01*
X233554Y151209D01*
X233096Y151896D01*
X232620Y152214D01*
Y157278D01*
X233921Y158579D01*
X234142Y158910D01*
X234220Y159300D01*
Y269956D01*
X238023Y273760D01*
X238400Y273685D01*
X239210Y273846D01*
X239896Y274304D01*
X240354Y274991D01*
X240515Y275800D01*
X240354Y276609D01*
X239896Y277296D01*
X239210Y277754D01*
X238400Y277916D01*
X237591Y277754D01*
X236904Y277296D01*
X236446Y276609D01*
X236284Y275800D01*
X236433Y275054D01*
X235185Y273805D01*
X234664Y273992D01*
X234649Y274139D01*
X234896Y274304D01*
X235354Y274991D01*
X235515Y275800D01*
X235354Y276609D01*
X234896Y277296D01*
X234209Y277754D01*
X233400Y277916D01*
X232591Y277754D01*
X231904Y277296D01*
X231446Y276609D01*
X231284Y275800D01*
X231446Y274991D01*
X231904Y274304D01*
X232380Y273986D01*
Y273122D01*
X231289Y272031D01*
X230950Y271745D01*
X230611Y272031D01*
X229420Y273222D01*
Y273986D01*
X229896Y274304D01*
X230354Y274991D01*
X230516Y275800D01*
X230354Y276609D01*
X229896Y277296D01*
X229209Y277754D01*
X228400Y277916D01*
X227590Y277754D01*
X226904Y277296D01*
X226446Y276609D01*
X226285Y275800D01*
X226446Y274991D01*
X226629Y274716D01*
X226353Y274229D01*
X226289Y274232D01*
X225384Y275137D01*
X225516Y275800D01*
X225354Y276609D01*
X224896Y277296D01*
X224209Y277754D01*
X223400Y277916D01*
X222590Y277754D01*
X221904Y277296D01*
X221446Y276609D01*
X221285Y275800D01*
X221446Y274991D01*
X221904Y274304D01*
X222590Y273846D01*
X223400Y273685D01*
X223861Y273776D01*
X227680Y269956D01*
Y220115D01*
X227219Y219923D01*
X205904Y241238D01*
X206015Y241800D01*
X205854Y242610D01*
X205396Y243296D01*
X204710Y243754D01*
X203900Y243916D01*
X203091Y243754D01*
X202404Y243296D01*
X201946Y242610D01*
X201878Y242271D01*
X201336Y242106D01*
X199720Y243722D01*
Y254753D01*
X200096Y255004D01*
X200554Y255691D01*
X200715Y256500D01*
X200554Y257310D01*
X200096Y257996D01*
X199409Y258454D01*
X198600Y258615D01*
X197791Y258454D01*
X197104Y257996D01*
X196646Y257310D01*
X196484Y256500D01*
X196646Y255691D01*
X197104Y255004D01*
X197680Y254619D01*
Y243300D01*
X197758Y242910D01*
X197979Y242579D01*
X222640Y217918D01*
X222394Y217457D01*
X222100Y217515D01*
X221290Y217354D01*
X220604Y216896D01*
X220146Y216210D01*
X219985Y215400D01*
X220146Y214591D01*
X220604Y213904D01*
X221080Y213586D01*
Y209214D01*
X220604Y208896D01*
X220146Y208209D01*
X219985Y207400D01*
X220146Y206591D01*
X220604Y205904D01*
X221290Y205446D01*
X222100Y205285D01*
X222909Y205446D01*
X223596Y205904D01*
X224054Y206591D01*
X224156Y207101D01*
X224180Y207224D01*
X224663Y207176D01*
X224680Y207123D01*
Y200677D01*
X224663Y200624D01*
X224180Y200576D01*
X224156Y200699D01*
X224054Y201209D01*
X223596Y201896D01*
X222909Y202354D01*
X222100Y202516D01*
X221290Y202354D01*
X220604Y201896D01*
X220146Y201209D01*
X219985Y200400D01*
X220146Y199591D01*
X220604Y198904D01*
X221080Y198586D01*
Y197600D01*
X221158Y197210D01*
X221379Y196879D01*
X223180Y195078D01*
Y172165D01*
X221335Y170320D01*
X213914D01*
X213596Y170796D01*
X212910Y171254D01*
X212100Y171415D01*
X211291Y171254D01*
X210604Y170796D01*
X210445Y170557D01*
X209945Y170709D01*
Y189075D01*
X209867Y189465D01*
X209646Y189796D01*
X150720Y248722D01*
Y278978D01*
X151467Y279725D01*
X151966Y279626D01*
X152776Y279787D01*
X153462Y280246D01*
X153921Y280932D01*
X154082Y281741D01*
X153921Y282551D01*
X153462Y283237D01*
X152776Y283696D01*
X151966Y283857D01*
X151157Y283696D01*
X150470Y283237D01*
X150012Y282551D01*
X149851Y281741D01*
X149975Y281117D01*
X149648Y280790D01*
X149186Y280981D01*
Y288580D01*
X149662Y288898D01*
X150121Y289585D01*
X150282Y290394D01*
X150121Y291204D01*
X149662Y291890D01*
X148976Y292349D01*
X148166Y292510D01*
X147357Y292349D01*
X146670Y291890D01*
X146212Y291204D01*
X146051Y290394D01*
X146212Y289585D01*
X146670Y288898D01*
X147147Y288580D01*
Y248533D01*
X146685Y248341D01*
X70862Y324164D01*
Y356318D01*
X70898Y356323D01*
X71882Y356730D01*
X72726Y357379D01*
X73374Y358223D01*
X73782Y359207D01*
X73921Y360262D01*
X73782Y361318D01*
X73374Y362301D01*
X72726Y363146D01*
X71882Y363794D01*
X70898Y364201D01*
X69842Y364340D01*
D02*
G37*
G36*
X258400Y286900D02*
X257591Y286739D01*
X256904Y286280D01*
X256446Y285594D01*
X256284Y284784D01*
X256446Y283975D01*
X256904Y283288D01*
X257380Y282970D01*
Y279500D01*
X257458Y279110D01*
X257679Y278779D01*
X259661Y276798D01*
X259496Y276255D01*
X258991Y276154D01*
X258304Y275696D01*
X257846Y275009D01*
X257684Y274200D01*
X257846Y273391D01*
X258304Y272704D01*
X258991Y272246D01*
X259800Y272084D01*
X260362Y272196D01*
X262008Y270550D01*
X262339Y270329D01*
X262729Y270251D01*
X271386D01*
X271704Y269775D01*
X272391Y269316D01*
X273200Y269155D01*
X274009Y269316D01*
X274696Y269775D01*
X275154Y270461D01*
X275315Y271271D01*
X275775Y271523D01*
X275890Y271446D01*
X276700Y271285D01*
X277509Y271446D01*
X278196Y271904D01*
X278654Y272590D01*
X278816Y273400D01*
X278671Y274124D01*
X278874Y274337D01*
X279077Y274455D01*
X279090Y274446D01*
X279900Y274285D01*
X280710Y274446D01*
X281396Y274904D01*
X281854Y275590D01*
X282015Y276400D01*
X281854Y277209D01*
X281396Y277896D01*
X280710Y278354D01*
X279900Y278516D01*
X279090Y278354D01*
X278404Y277896D01*
X278086Y277420D01*
X266322D01*
X263504Y280238D01*
X263615Y280800D01*
X263454Y281610D01*
X262996Y282296D01*
X262310Y282754D01*
X261500Y282915D01*
X260690Y282754D01*
X260004Y282296D01*
X259920Y282169D01*
X259420Y282321D01*
Y282970D01*
X259896Y283288D01*
X260354Y283975D01*
X260515Y284784D01*
X260354Y285594D01*
X259896Y286280D01*
X259209Y286739D01*
X258400Y286900D01*
D02*
G37*
G36*
X36754Y277099D02*
Y273845D01*
X40009D01*
X39944Y274334D01*
X39563Y275255D01*
X38956Y276046D01*
X38164Y276653D01*
X37243Y277035D01*
X36754Y277099D01*
D02*
G37*
G36*
X35754D02*
X35266Y277035D01*
X34344Y276653D01*
X33553Y276046D01*
X32946Y275255D01*
X32564Y274334D01*
X32500Y273845D01*
X35754D01*
Y277099D01*
D02*
G37*
G36*
X29699Y276632D02*
X23124D01*
Y270058D01*
X29699D01*
Y276632D01*
D02*
G37*
G36*
X40009Y272845D02*
X36754D01*
Y269591D01*
X37243Y269655D01*
X38164Y270037D01*
X38956Y270644D01*
X39563Y271435D01*
X39944Y272356D01*
X40009Y272845D01*
D02*
G37*
G36*
X35754D02*
X32500D01*
X32564Y272356D01*
X32946Y271435D01*
X33553Y270644D01*
X34344Y270037D01*
X35266Y269655D01*
X35754Y269591D01*
Y272845D01*
D02*
G37*
G36*
X340897Y300496D02*
X340141Y300396D01*
X339437Y300104D01*
X338832Y299640D01*
X338368Y299035D01*
X338076Y298331D01*
X337976Y297575D01*
X338076Y296819D01*
X338368Y296114D01*
X338832Y295510D01*
X339437Y295045D01*
X339980Y294820D01*
Y275422D01*
X331978Y267420D01*
X270614D01*
X270296Y267896D01*
X269609Y268354D01*
X268800Y268515D01*
X267990Y268354D01*
X267304Y267896D01*
X266846Y267210D01*
X266685Y266400D01*
X266846Y265591D01*
X267304Y264904D01*
X267990Y264446D01*
X268800Y264284D01*
X269609Y264446D01*
X270296Y264904D01*
X270614Y265380D01*
X332400D01*
X332790Y265458D01*
X333121Y265679D01*
X341721Y274279D01*
X341942Y274610D01*
X342020Y275000D01*
Y294905D01*
X342357Y295045D01*
X342962Y295510D01*
X343426Y296114D01*
X343718Y296819D01*
X343818Y297575D01*
X343718Y298331D01*
X343426Y299035D01*
X342962Y299640D01*
X342357Y300104D01*
X341653Y300396D01*
X340897Y300496D01*
D02*
G37*
G36*
X361281Y271239D02*
X360064Y271119D01*
X358894Y270764D01*
X357815Y270187D01*
X356870Y269411D01*
X356094Y268466D01*
X355517Y267387D01*
X355162Y266217D01*
X355042Y265000D01*
X355162Y263783D01*
X355517Y262613D01*
X356094Y261534D01*
X356870Y260589D01*
X357815Y259813D01*
X358894Y259236D01*
X360064Y258881D01*
X361281Y258761D01*
X362498Y258881D01*
X363669Y259236D01*
X364747Y259813D01*
X365692Y260589D01*
X366468Y261534D01*
X367045Y262613D01*
X367400Y263783D01*
X367520Y265000D01*
X367400Y266217D01*
X367045Y267387D01*
X366468Y268466D01*
X365692Y269411D01*
X364747Y270187D01*
X363669Y270764D01*
X362498Y271119D01*
X361281Y271239D01*
D02*
G37*
G36*
X274200Y255915D02*
X273391Y255754D01*
X272704Y255296D01*
X272386Y254820D01*
X262914D01*
X262596Y255296D01*
X261910Y255754D01*
X261100Y255915D01*
X260291Y255754D01*
X259604Y255296D01*
X259146Y254609D01*
X258984Y253800D01*
X259146Y252991D01*
X259604Y252304D01*
X260291Y251846D01*
X261100Y251684D01*
X261910Y251846D01*
X262596Y252304D01*
X262914Y252780D01*
X272386D01*
X272704Y252304D01*
X273391Y251846D01*
X274200Y251684D01*
X275009Y251846D01*
X275696Y252304D01*
X276154Y252991D01*
X276315Y253800D01*
X276154Y254609D01*
X275696Y255296D01*
X275009Y255754D01*
X274200Y255915D01*
D02*
G37*
G36*
X363280Y252804D02*
Y248192D01*
X367892D01*
X367781Y249032D01*
X367264Y250281D01*
X366441Y251353D01*
X365369Y252176D01*
X364120Y252693D01*
X363280Y252804D01*
D02*
G37*
G36*
X362280D02*
X361439Y252693D01*
X360190Y252176D01*
X359118Y251353D01*
X358295Y250281D01*
X357778Y249032D01*
X357667Y248192D01*
X362280D01*
Y252804D01*
D02*
G37*
G36*
X367892Y247192D02*
X363280D01*
Y242579D01*
X364120Y242690D01*
X365369Y243207D01*
X366441Y244030D01*
X367264Y245103D01*
X367781Y246352D01*
X367892Y247192D01*
D02*
G37*
G36*
X362280D02*
X357667D01*
X357778Y246352D01*
X358295Y245103D01*
X359118Y244030D01*
X360190Y243207D01*
X361439Y242690D01*
X362280Y242579D01*
Y247192D01*
D02*
G37*
G36*
X333752Y234879D02*
Y231656D01*
X336974D01*
X336911Y232137D01*
X336533Y233050D01*
X335931Y233835D01*
X335146Y234437D01*
X334232Y234816D01*
X333752Y234879D01*
D02*
G37*
G36*
X332752D02*
X332272Y234816D01*
X331358Y234437D01*
X330573Y233835D01*
X329971Y233050D01*
X329593Y232137D01*
X329530Y231656D01*
X332752D01*
Y234879D01*
D02*
G37*
G36*
X317504Y234440D02*
X316654Y234328D01*
X315862Y234000D01*
X315182Y233478D01*
X314660Y232798D01*
X314332Y232006D01*
X314220Y231156D01*
X314332Y230306D01*
X314660Y229514D01*
X315182Y228834D01*
X315862Y228312D01*
X316654Y227984D01*
X317504Y227872D01*
X318354Y227984D01*
X319146Y228312D01*
X319826Y228834D01*
X320348Y229514D01*
X320676Y230306D01*
X320788Y231156D01*
X320676Y232006D01*
X320348Y232798D01*
X319826Y233478D01*
X319146Y234000D01*
X318354Y234328D01*
X317504Y234440D01*
D02*
G37*
G36*
X336974Y230656D02*
X333752D01*
Y227434D01*
X334232Y227497D01*
X335146Y227875D01*
X335931Y228478D01*
X336533Y229262D01*
X336911Y230176D01*
X336974Y230656D01*
D02*
G37*
G36*
X332752D02*
X329530D01*
X329593Y230176D01*
X329971Y229262D01*
X330573Y228478D01*
X331358Y227875D01*
X332272Y227497D01*
X332752Y227434D01*
Y230656D01*
D02*
G37*
G36*
X304224Y228395D02*
Y223782D01*
X308837D01*
X308726Y224623D01*
X308209Y225871D01*
X307386Y226944D01*
X306313Y227767D01*
X305065Y228284D01*
X304224Y228395D01*
D02*
G37*
G36*
X303224D02*
X302384Y228284D01*
X301135Y227767D01*
X300063Y226944D01*
X299240Y225871D01*
X298723Y224623D01*
X298612Y223782D01*
X303224D01*
Y228395D01*
D02*
G37*
G36*
X308837Y222782D02*
X304224D01*
Y218170D01*
X305065Y218281D01*
X306313Y218798D01*
X307386Y219621D01*
X308209Y220693D01*
X308726Y221942D01*
X308837Y222782D01*
D02*
G37*
G36*
X303224D02*
X298612D01*
X298723Y221942D01*
X299240Y220693D01*
X300063Y219621D01*
X301135Y218798D01*
X302384Y218281D01*
X303224Y218170D01*
Y222782D01*
D02*
G37*
G36*
X273000Y213316D02*
X272190Y213154D01*
X271504Y212696D01*
X271186Y212220D01*
X264014D01*
X263696Y212696D01*
X263010Y213154D01*
X262200Y213316D01*
X261390Y213154D01*
X260704Y212696D01*
X260246Y212010D01*
X260085Y211200D01*
X260246Y210390D01*
X260704Y209704D01*
X261390Y209246D01*
X262200Y209085D01*
X263010Y209246D01*
X263696Y209704D01*
X264014Y210180D01*
X271186D01*
X271504Y209704D01*
X272190Y209246D01*
X273000Y209085D01*
X273810Y209246D01*
X274496Y209704D01*
X274954Y210390D01*
X275115Y211200D01*
X274954Y212010D01*
X274496Y212696D01*
X273810Y213154D01*
X273000Y213316D01*
D02*
G37*
G36*
X37554Y211154D02*
Y207900D01*
X40809D01*
X40744Y208389D01*
X40363Y209310D01*
X39756Y210101D01*
X38964Y210708D01*
X38043Y211090D01*
X37554Y211154D01*
D02*
G37*
G36*
X36554D02*
X36066Y211090D01*
X35144Y210708D01*
X34353Y210101D01*
X33746Y209310D01*
X33364Y208389D01*
X33300Y207900D01*
X36554D01*
Y211154D01*
D02*
G37*
G36*
X30499Y210687D02*
X23924D01*
Y204113D01*
X30499D01*
Y210687D01*
D02*
G37*
G36*
X40809Y206900D02*
X37554D01*
Y203646D01*
X38043Y203710D01*
X38964Y204092D01*
X39756Y204699D01*
X40363Y205490D01*
X40744Y206411D01*
X40809Y206900D01*
D02*
G37*
G36*
X36554D02*
X33300D01*
X33364Y206411D01*
X33746Y205490D01*
X34353Y204699D01*
X35144Y204092D01*
X36066Y203710D01*
X36554Y203646D01*
Y206900D01*
D02*
G37*
G36*
X217500Y198916D02*
X216690Y198754D01*
X216004Y198296D01*
X215686Y197820D01*
X209514D01*
X209196Y198296D01*
X208509Y198754D01*
X207700Y198916D01*
X206891Y198754D01*
X206204Y198296D01*
X205746Y197609D01*
X205585Y196800D01*
X205746Y195991D01*
X206204Y195304D01*
X206891Y194846D01*
X207700Y194685D01*
X208509Y194846D01*
X209196Y195304D01*
X209514Y195780D01*
X215686D01*
X216004Y195304D01*
X216690Y194846D01*
X217500Y194685D01*
X218309Y194846D01*
X218996Y195304D01*
X219454Y195991D01*
X219616Y196800D01*
X219454Y197609D01*
X218996Y198296D01*
X218309Y198754D01*
X217500Y198916D01*
D02*
G37*
G36*
X349000Y234440D02*
X348150Y234328D01*
X347358Y234000D01*
X346678Y233478D01*
X346156Y232798D01*
X345828Y232006D01*
X345716Y231156D01*
X345828Y230306D01*
X346156Y229514D01*
X346678Y228834D01*
X347358Y228312D01*
X347980Y228054D01*
Y198122D01*
X346078Y196220D01*
X320369D01*
X320162Y196720D01*
X323121Y199679D01*
X323342Y200010D01*
X323420Y200400D01*
Y205120D01*
X323896Y205438D01*
X324354Y206124D01*
X324516Y206934D01*
X324354Y207743D01*
X323896Y208430D01*
X323210Y208888D01*
X322400Y209049D01*
X321590Y208888D01*
X320904Y208430D01*
X320446Y207743D01*
X320285Y206934D01*
X320446Y206124D01*
X320904Y205438D01*
X321380Y205120D01*
Y200822D01*
X318578Y198020D01*
X265822D01*
X264221Y199621D01*
X263890Y199842D01*
X263500Y199920D01*
X262914D01*
X262596Y200396D01*
X261910Y200854D01*
X261100Y201015D01*
X260291Y200854D01*
X259604Y200396D01*
X259146Y199709D01*
X258984Y198900D01*
X259146Y198091D01*
X259604Y197404D01*
X260291Y196946D01*
X260360Y196932D01*
X260591Y196376D01*
X260346Y196010D01*
X260185Y195200D01*
X260346Y194390D01*
X260591Y194024D01*
X260360Y193468D01*
X260291Y193454D01*
X259604Y192996D01*
X259146Y192309D01*
X258984Y191500D01*
X259146Y190691D01*
X259604Y190004D01*
X260291Y189546D01*
X261100Y189384D01*
X261910Y189546D01*
X262596Y190004D01*
X262914Y190480D01*
X263800D01*
X264190Y190558D01*
X264521Y190779D01*
X266422Y192680D01*
X342578D01*
X345028Y190230D01*
Y121753D01*
X342595D01*
Y114847D01*
X349500D01*
Y121753D01*
X347067D01*
Y190653D01*
X346989Y191043D01*
X346768Y191374D01*
X344424Y193719D01*
X344615Y194180D01*
X346500D01*
X346890Y194258D01*
X347221Y194479D01*
X349721Y196979D01*
X349942Y197310D01*
X350020Y197700D01*
Y228054D01*
X350642Y228312D01*
X351322Y228834D01*
X351844Y229514D01*
X352172Y230306D01*
X352284Y231156D01*
X352172Y232006D01*
X351844Y232798D01*
X351322Y233478D01*
X350642Y234000D01*
X349850Y234328D01*
X349000Y234440D01*
D02*
G37*
G36*
X160900Y176331D02*
X160127Y176229D01*
X159406Y175930D01*
X158787Y175455D01*
X158312Y174837D01*
X158014Y174116D01*
X157912Y173343D01*
X158014Y172569D01*
X158312Y171848D01*
X158787Y171230D01*
X159406Y170755D01*
X160127Y170456D01*
X160900Y170354D01*
X161673Y170456D01*
X162394Y170755D01*
X163013Y171230D01*
X163488Y171848D01*
X163786Y172569D01*
X163888Y173343D01*
X163786Y174116D01*
X163488Y174837D01*
X163013Y175455D01*
X162394Y175930D01*
X161673Y176229D01*
X160900Y176331D01*
D02*
G37*
G36*
X161400Y166927D02*
Y164000D01*
X164327D01*
X164274Y164404D01*
X163925Y165246D01*
X163370Y165970D01*
X162646Y166525D01*
X161804Y166874D01*
X161400Y166927D01*
D02*
G37*
G36*
X160400D02*
X159996Y166874D01*
X159154Y166525D01*
X158430Y165970D01*
X157875Y165246D01*
X157527Y164404D01*
X157473Y164000D01*
X160400D01*
Y166927D01*
D02*
G37*
G36*
X252100Y170129D02*
X251083Y169995D01*
X250135Y169603D01*
X249322Y168978D01*
X248697Y168165D01*
X248305Y167217D01*
X248171Y166200D01*
X248305Y165183D01*
X248697Y164235D01*
X249322Y163422D01*
X250135Y162797D01*
X251083Y162405D01*
X252100Y162271D01*
X253117Y162405D01*
X254065Y162797D01*
X254878Y163422D01*
X255503Y164235D01*
X255895Y165183D01*
X256029Y166200D01*
X255895Y167217D01*
X255503Y168165D01*
X254878Y168978D01*
X254065Y169603D01*
X253117Y169995D01*
X252100Y170129D01*
D02*
G37*
G36*
X164327Y163000D02*
X161400D01*
Y160073D01*
X161804Y160126D01*
X162646Y160475D01*
X163370Y161030D01*
X163925Y161754D01*
X164274Y162596D01*
X164327Y163000D01*
D02*
G37*
G36*
X160400D02*
X157473D01*
X157527Y162596D01*
X157875Y161754D01*
X158430Y161030D01*
X159154Y160475D01*
X159996Y160126D01*
X160400Y160073D01*
Y163000D01*
D02*
G37*
G36*
X255996Y160096D02*
X248204D01*
Y152304D01*
X255996D01*
Y160096D01*
D02*
G37*
G36*
X160900Y156646D02*
X160127Y156544D01*
X159406Y156245D01*
X158787Y155770D01*
X158312Y155152D01*
X158014Y154431D01*
X157912Y153657D01*
X158014Y152884D01*
X158312Y152163D01*
X158787Y151544D01*
X159406Y151070D01*
X160127Y150771D01*
X160900Y150669D01*
X161673Y150771D01*
X162394Y151070D01*
X163013Y151544D01*
X163488Y152163D01*
X163786Y152884D01*
X163888Y153657D01*
X163786Y154431D01*
X163488Y155152D01*
X163013Y155770D01*
X162394Y156245D01*
X161673Y156544D01*
X160900Y156646D01*
D02*
G37*
G36*
X147700Y187815D02*
X146890Y187654D01*
X146204Y187196D01*
X145746Y186510D01*
X145584Y185700D01*
X145746Y184890D01*
X146204Y184204D01*
X146680Y183886D01*
Y182400D01*
X146758Y182010D01*
X146979Y181679D01*
X148580Y180078D01*
Y150072D01*
X133679Y135170D01*
X133458Y134839D01*
X133380Y134449D01*
Y118822D01*
X131862Y117304D01*
X131300Y117415D01*
X130491Y117254D01*
X129804Y116796D01*
X129346Y116110D01*
X129184Y115300D01*
X129346Y114490D01*
X129804Y113804D01*
X130491Y113346D01*
X131300Y113184D01*
X132109Y113346D01*
X132796Y113804D01*
X133254Y114490D01*
X133415Y115300D01*
X133304Y115862D01*
X134418Y116976D01*
X134880Y116785D01*
Y106922D01*
X131478Y103520D01*
X67122D01*
X62010Y108632D01*
Y111510D01*
X55990D01*
Y105490D01*
X62010D01*
X62010Y105490D01*
Y105490D01*
X62444Y105314D01*
X65979Y101779D01*
X66310Y101558D01*
X66700Y101480D01*
X131900D01*
X132290Y101558D01*
X132621Y101779D01*
X135918Y105077D01*
X136380Y104885D01*
Y31972D01*
X136458Y31582D01*
X136679Y31251D01*
X153052Y14878D01*
Y9352D01*
X160548D01*
Y16848D01*
X153966D01*
X152095Y18719D01*
X152287Y19180D01*
X159278D01*
X163412Y15046D01*
X163369Y14990D01*
X162991Y14078D01*
X162862Y13100D01*
X162991Y12122D01*
X163369Y11210D01*
X163969Y10427D01*
X164752Y9826D01*
X165664Y9448D01*
X166642Y9320D01*
X167621Y9448D01*
X168533Y9826D01*
X169316Y10427D01*
X169916Y11210D01*
X170294Y12122D01*
X170423Y13100D01*
X170294Y14078D01*
X169916Y14990D01*
X169316Y15773D01*
X168533Y16374D01*
X167621Y16752D01*
X166642Y16880D01*
X165664Y16752D01*
X164905Y16437D01*
X161124Y20219D01*
X161315Y20680D01*
X167463D01*
X173194Y14949D01*
X172834Y14078D01*
X172705Y13100D01*
X172834Y12122D01*
X173211Y11210D01*
X173812Y10427D01*
X174595Y9826D01*
X175507Y9448D01*
X176485Y9320D01*
X177463Y9448D01*
X178375Y9826D01*
X179158Y10427D01*
X179759Y11210D01*
X180137Y12122D01*
X180265Y13100D01*
X180137Y14078D01*
X179759Y14990D01*
X179158Y15773D01*
X178375Y16374D01*
X177463Y16752D01*
X176485Y16880D01*
X175507Y16752D01*
X174636Y16391D01*
X169308Y21719D01*
X169500Y22180D01*
X175805D01*
X183037Y14949D01*
X182676Y14078D01*
X182547Y13100D01*
X182676Y12122D01*
X183054Y11210D01*
X183654Y10427D01*
X184437Y9826D01*
X185349Y9448D01*
X186328Y9320D01*
X187306Y9448D01*
X188218Y9826D01*
X189001Y10427D01*
X189602Y11210D01*
X189979Y12122D01*
X190108Y13100D01*
X189979Y14078D01*
X189602Y14990D01*
X189001Y15773D01*
X188218Y16374D01*
X187306Y16752D01*
X186328Y16880D01*
X185349Y16752D01*
X184478Y16391D01*
X177651Y23219D01*
X177842Y23680D01*
X184148D01*
X192879Y14949D01*
X192518Y14078D01*
X192390Y13100D01*
X192518Y12122D01*
X192896Y11210D01*
X193497Y10427D01*
X194280Y9826D01*
X195192Y9448D01*
X196170Y9320D01*
X197149Y9448D01*
X198060Y9826D01*
X198843Y10427D01*
X199444Y11210D01*
X199822Y12122D01*
X199951Y13100D01*
X199822Y14078D01*
X199444Y14990D01*
X198843Y15773D01*
X198060Y16374D01*
X197149Y16752D01*
X196170Y16880D01*
X195192Y16752D01*
X194321Y16391D01*
X185994Y24719D01*
X186185Y25180D01*
X192490D01*
X202722Y14949D01*
X202361Y14078D01*
X202232Y13100D01*
X202361Y12122D01*
X202739Y11210D01*
X203340Y10427D01*
X204122Y9826D01*
X205034Y9448D01*
X206013Y9320D01*
X206991Y9448D01*
X207903Y9826D01*
X208686Y10427D01*
X209286Y11210D01*
X209664Y12122D01*
X209793Y13100D01*
X209664Y14078D01*
X209286Y14990D01*
X208686Y15773D01*
X207903Y16374D01*
X206991Y16752D01*
X206013Y16880D01*
X205034Y16752D01*
X204164Y16391D01*
X194336Y26219D01*
X194527Y26680D01*
X200833D01*
X212564Y14949D01*
X212204Y14078D01*
X212075Y13100D01*
X212204Y12122D01*
X212581Y11210D01*
X213182Y10427D01*
X213965Y9826D01*
X214877Y9448D01*
X215855Y9320D01*
X216834Y9448D01*
X217745Y9826D01*
X218528Y10427D01*
X219129Y11210D01*
X219507Y12122D01*
X219636Y13100D01*
X219507Y14078D01*
X219129Y14990D01*
X218528Y15773D01*
X217745Y16374D01*
X216834Y16752D01*
X215855Y16880D01*
X214877Y16752D01*
X214006Y16391D01*
X201976Y28421D01*
X201645Y28642D01*
X201255Y28720D01*
X154822D01*
X147420Y36122D01*
Y113979D01*
X147920Y114131D01*
X148004Y114004D01*
X148690Y113546D01*
X149500Y113384D01*
X150310Y113546D01*
X150904Y113943D01*
X151237Y113837D01*
X151404Y113722D01*
Y106504D01*
X159196D01*
Y114296D01*
X151792D01*
X151667Y114442D01*
X151475Y114796D01*
X151616Y115500D01*
X151454Y116309D01*
X151382Y116418D01*
X151683Y116867D01*
X152100Y116785D01*
X152910Y116946D01*
X153596Y117404D01*
X154054Y118090D01*
X154216Y118900D01*
X154054Y119710D01*
X153905Y119933D01*
X154206Y120383D01*
X154700Y120284D01*
X155509Y120446D01*
X156196Y120904D01*
X156654Y121590D01*
X156816Y122400D01*
X156654Y123210D01*
X156196Y123896D01*
X155720Y124214D01*
Y125678D01*
X156922Y126880D01*
X199786D01*
X200104Y126404D01*
X200791Y125946D01*
X201600Y125785D01*
X202410Y125946D01*
X203096Y126404D01*
X203554Y127091D01*
X203715Y127900D01*
X203554Y128709D01*
X203096Y129396D01*
X202410Y129854D01*
X201600Y130016D01*
X200791Y129854D01*
X200104Y129396D01*
X199786Y128920D01*
X192556D01*
X192365Y129382D01*
X201416Y138433D01*
X202060Y138370D01*
X202104Y138304D01*
X202790Y137846D01*
X203600Y137685D01*
X204410Y137846D01*
X205096Y138304D01*
X205554Y138990D01*
X205715Y139800D01*
X205554Y140610D01*
X205096Y141296D01*
X204410Y141754D01*
X203600Y141916D01*
X202790Y141754D01*
X202104Y141296D01*
X201786Y140820D01*
X201341D01*
X200951Y140742D01*
X200620Y140521D01*
X200255Y140155D01*
X199712Y140320D01*
X199654Y140610D01*
X199196Y141296D01*
X198510Y141754D01*
X197700Y141916D01*
X196890Y141754D01*
X196204Y141296D01*
X195951Y140917D01*
X195349D01*
X195096Y141296D01*
X194410Y141754D01*
X193600Y141916D01*
X192790Y141754D01*
X192104Y141296D01*
X191646Y140610D01*
X191484Y139800D01*
X191596Y139238D01*
X185978Y133620D01*
X184215D01*
X184023Y134081D01*
X187738Y137796D01*
X188300Y137685D01*
X189110Y137846D01*
X189796Y138304D01*
X190254Y138990D01*
X190416Y139800D01*
X190254Y140610D01*
X189796Y141296D01*
X189110Y141754D01*
X188300Y141916D01*
X187490Y141754D01*
X186804Y141296D01*
X186346Y140610D01*
X186185Y139800D01*
X186296Y139238D01*
X182178Y135120D01*
X173379D01*
X173187Y135582D01*
X180230Y142624D01*
X180451Y142955D01*
X180529Y143345D01*
Y147484D01*
X180916Y147801D01*
X181000Y147784D01*
X181809Y147946D01*
X182496Y148404D01*
X182954Y149091D01*
X183115Y149900D01*
X182954Y150709D01*
X182496Y151396D01*
X182190Y151600D01*
Y152100D01*
X182496Y152304D01*
X182954Y152990D01*
X183115Y153800D01*
X182954Y154610D01*
X182496Y155296D01*
X182265Y155450D01*
Y155950D01*
X182496Y156104D01*
X182954Y156790D01*
X183115Y157600D01*
X182954Y158410D01*
X182496Y159096D01*
X182340Y159200D01*
Y159700D01*
X182496Y159804D01*
X182954Y160491D01*
X183115Y161300D01*
X182954Y162109D01*
X182496Y162796D01*
X181809Y163254D01*
X181680Y163280D01*
X181489Y163742D01*
X181654Y163990D01*
X181816Y164800D01*
X181654Y165610D01*
X181196Y166296D01*
X180509Y166754D01*
X179700Y166916D01*
X178891Y166754D01*
X178204Y166296D01*
X177746Y165610D01*
X177585Y164800D01*
X177746Y163990D01*
X178204Y163304D01*
X178891Y162846D01*
X179020Y162820D01*
X179211Y162358D01*
X179046Y162109D01*
X178884Y161300D01*
X178996Y160738D01*
X174288Y156030D01*
X174067Y155700D01*
X173990Y155309D01*
Y145632D01*
X169678Y141320D01*
X145487D01*
X145296Y141781D01*
X151821Y148307D01*
X152042Y148638D01*
X152120Y149028D01*
Y181386D01*
X152596Y181704D01*
X153054Y182390D01*
X153216Y183200D01*
X153054Y184010D01*
X152596Y184696D01*
X151909Y185154D01*
X151100Y185316D01*
X150291Y185154D01*
X150205Y185098D01*
X149755Y185398D01*
X149815Y185700D01*
X149654Y186510D01*
X149196Y187196D01*
X148510Y187654D01*
X147700Y187815D01*
D02*
G37*
G36*
X37454Y145209D02*
Y141955D01*
X40709D01*
X40644Y142444D01*
X40263Y143365D01*
X39656Y144156D01*
X38864Y144763D01*
X37943Y145145D01*
X37454Y145209D01*
D02*
G37*
G36*
X36454D02*
X35966Y145145D01*
X35044Y144763D01*
X34253Y144156D01*
X33646Y143365D01*
X33264Y142444D01*
X33200Y141955D01*
X36454D01*
Y145209D01*
D02*
G37*
G36*
X30399Y144742D02*
X23824D01*
Y138168D01*
X30399D01*
Y144742D01*
D02*
G37*
G36*
X40709Y140955D02*
X37454D01*
Y137701D01*
X37943Y137765D01*
X38864Y138147D01*
X39656Y138754D01*
X40263Y139545D01*
X40644Y140466D01*
X40709Y140955D01*
D02*
G37*
G36*
X36454D02*
X33200D01*
X33264Y140466D01*
X33646Y139545D01*
X34253Y138754D01*
X35044Y138147D01*
X35966Y137765D01*
X36454Y137701D01*
Y140955D01*
D02*
G37*
G36*
X361281Y131239D02*
X360064Y131119D01*
X358894Y130764D01*
X357815Y130187D01*
X356870Y129411D01*
X356094Y128466D01*
X355517Y127387D01*
X355162Y126217D01*
X355042Y125000D01*
X355162Y123783D01*
X355517Y122613D01*
X356094Y121534D01*
X356870Y120589D01*
X357815Y119813D01*
X358894Y119236D01*
X360064Y118881D01*
X361281Y118761D01*
X362498Y118881D01*
X363669Y119236D01*
X364747Y119813D01*
X365692Y120589D01*
X366468Y121534D01*
X367045Y122613D01*
X367400Y123783D01*
X367520Y125000D01*
X367400Y126217D01*
X367045Y127387D01*
X366468Y128466D01*
X365692Y129411D01*
X364747Y130187D01*
X363669Y130764D01*
X362498Y131119D01*
X361281Y131239D01*
D02*
G37*
G36*
X320457Y121783D02*
X319555Y121664D01*
X318715Y121316D01*
X317994Y120763D01*
X317441Y120041D01*
X317093Y119201D01*
X316974Y118300D01*
X317093Y117399D01*
X317441Y116559D01*
X317994Y115838D01*
X318715Y115284D01*
X319555Y114936D01*
X320457Y114818D01*
X321358Y114936D01*
X322198Y115284D01*
X322919Y115838D01*
X323473Y116559D01*
X323821Y117399D01*
X323939Y118300D01*
X323821Y119201D01*
X323473Y120041D01*
X322919Y120763D01*
X322198Y121316D01*
X321358Y121664D01*
X320457Y121783D01*
D02*
G37*
G36*
X165300Y114329D02*
X164283Y114195D01*
X163335Y113803D01*
X162522Y113178D01*
X161897Y112365D01*
X161505Y111417D01*
X161371Y110400D01*
X161505Y109383D01*
X161897Y108435D01*
X162522Y107622D01*
X163335Y106997D01*
X164283Y106605D01*
X165300Y106471D01*
X166317Y106605D01*
X167265Y106997D01*
X168078Y107622D01*
X168703Y108435D01*
X169095Y109383D01*
X169229Y110400D01*
X169095Y111417D01*
X168703Y112365D01*
X168078Y113178D01*
X167265Y113803D01*
X166317Y114195D01*
X165300Y114329D01*
D02*
G37*
G36*
X346547Y104505D02*
Y101084D01*
X349968D01*
X349898Y101615D01*
X349500Y102577D01*
X348866Y103403D01*
X348041Y104036D01*
X347079Y104435D01*
X346547Y104505D01*
D02*
G37*
G36*
X345547Y104505D02*
X345015Y104435D01*
X344054Y104036D01*
X343228Y103403D01*
X342595Y102577D01*
X342196Y101615D01*
X342126Y101084D01*
X345547D01*
Y104505D01*
D02*
G37*
G36*
X320457Y104066D02*
X319555Y103947D01*
X318715Y103599D01*
X317994Y103046D01*
X317441Y102325D01*
X317093Y101485D01*
X316974Y100584D01*
X317093Y99682D01*
X317441Y98842D01*
X317994Y98121D01*
X318715Y97567D01*
X319555Y97220D01*
X320457Y97101D01*
X321358Y97220D01*
X322198Y97567D01*
X322919Y98121D01*
X323473Y98842D01*
X323821Y99682D01*
X323939Y100584D01*
X323821Y101485D01*
X323473Y102325D01*
X322919Y103046D01*
X322198Y103599D01*
X321358Y103947D01*
X320457Y104066D01*
D02*
G37*
G36*
X345547Y100084D02*
X342126D01*
X342196Y99552D01*
X342595Y98590D01*
X343228Y97764D01*
X344054Y97131D01*
X345015Y96732D01*
X345547Y96662D01*
Y100084D01*
D02*
G37*
G36*
X349968D02*
X346547D01*
Y96662D01*
X347079Y96732D01*
X348041Y97131D01*
X348866Y97764D01*
X349500Y98590D01*
X349898Y99552D01*
X349968Y100084D01*
D02*
G37*
G36*
X59000Y101536D02*
X58214Y101432D01*
X57482Y101129D01*
X56853Y100647D01*
X56371Y100018D01*
X56068Y99286D01*
X55964Y98500D01*
X56068Y97714D01*
X56371Y96982D01*
X56853Y96353D01*
X57482Y95871D01*
X58214Y95568D01*
X59000Y95464D01*
X59786Y95568D01*
X60518Y95871D01*
X61147Y96353D01*
X61629Y96982D01*
X61932Y97714D01*
X62036Y98500D01*
X61932Y99286D01*
X61629Y100018D01*
X61147Y100647D01*
X60518Y101129D01*
X59786Y101432D01*
X59000Y101536D01*
D02*
G37*
G36*
X23960Y75019D02*
X20901D01*
Y71960D01*
X23960D01*
Y75019D01*
D02*
G37*
G36*
X19901D02*
X16842D01*
Y71960D01*
X19901D01*
Y75019D01*
D02*
G37*
G36*
X40401Y74546D02*
X39602Y74440D01*
X38858Y74132D01*
X38219Y73642D01*
X37729Y73003D01*
X37421Y72259D01*
X37315Y71460D01*
X37421Y70661D01*
X37729Y69917D01*
X38219Y69278D01*
X38858Y68788D01*
X39602Y68480D01*
X40401Y68375D01*
X41199Y68480D01*
X41944Y68788D01*
X42583Y69278D01*
X43073Y69917D01*
X43381Y70661D01*
X43486Y71460D01*
X43381Y72259D01*
X43073Y73003D01*
X42583Y73642D01*
X41944Y74132D01*
X41199Y74440D01*
X40401Y74546D01*
D02*
G37*
G36*
X30401D02*
X29602Y74440D01*
X28858Y74132D01*
X28219Y73642D01*
X27729Y73003D01*
X27421Y72259D01*
X27316Y71460D01*
X27421Y70661D01*
X27729Y69917D01*
X28219Y69278D01*
X28858Y68788D01*
X29602Y68480D01*
X30401Y68375D01*
X31199Y68480D01*
X31944Y68788D01*
X32583Y69278D01*
X33073Y69917D01*
X33381Y70661D01*
X33486Y71460D01*
X33381Y72259D01*
X33073Y73003D01*
X32583Y73642D01*
X31944Y74132D01*
X31199Y74440D01*
X30401Y74546D01*
D02*
G37*
G36*
X23960Y70960D02*
X20901D01*
Y67901D01*
X23960D01*
Y70960D01*
D02*
G37*
G36*
X19901D02*
X16842D01*
Y67901D01*
X19901D01*
Y70960D01*
D02*
G37*
G36*
X31400Y99815D02*
X30590Y99654D01*
X29904Y99196D01*
X29446Y98510D01*
X29285Y97700D01*
X29446Y96890D01*
X29904Y96204D01*
X30380Y95886D01*
Y93400D01*
X30458Y93010D01*
X30679Y92679D01*
X57980Y65378D01*
Y61114D01*
X57504Y60796D01*
X57046Y60110D01*
X56885Y59300D01*
X57046Y58490D01*
X57504Y57804D01*
X58190Y57346D01*
X59000Y57185D01*
X59810Y57346D01*
X60496Y57804D01*
X60954Y58490D01*
X61115Y59300D01*
X60954Y60110D01*
X60496Y60796D01*
X60020Y61114D01*
Y65800D01*
X59942Y66190D01*
X59721Y66521D01*
X32420Y93822D01*
Y95886D01*
X32896Y96204D01*
X33354Y96890D01*
X33515Y97700D01*
X33354Y98510D01*
X32896Y99196D01*
X32210Y99654D01*
X31400Y99815D01*
D02*
G37*
G36*
X345818Y22369D02*
X344893Y22185D01*
X344109Y21662D01*
X343586Y20877D01*
X343402Y19953D01*
X343586Y19028D01*
X344109Y18244D01*
X344893Y17720D01*
X345818Y17536D01*
X346743Y17720D01*
X347527Y18244D01*
X348051Y19028D01*
X348235Y19953D01*
X348051Y20877D01*
X347527Y21662D01*
X346743Y22185D01*
X345818Y22369D01*
D02*
G37*
G36*
X319834D02*
X318909Y22185D01*
X318125Y21662D01*
X317601Y20877D01*
X317417Y19953D01*
X317601Y19028D01*
X318125Y18244D01*
X318909Y17720D01*
X319834Y17536D01*
X320759Y17720D01*
X321543Y18244D01*
X322066Y19028D01*
X322250Y19953D01*
X322066Y20877D01*
X321543Y21662D01*
X320759Y22185D01*
X319834Y22369D01*
D02*
G37*
G36*
X263248Y17348D02*
X259500D01*
Y13600D01*
X263248D01*
Y17348D01*
D02*
G37*
G36*
X258500D02*
X254752D01*
Y13600D01*
X258500D01*
Y17348D01*
D02*
G37*
G36*
Y12600D02*
X254752D01*
Y8852D01*
X258500D01*
Y12600D01*
D02*
G37*
G36*
X10000Y16239D02*
X8783Y16119D01*
X7613Y15764D01*
X6534Y15187D01*
X5589Y14411D01*
X4813Y13466D01*
X4236Y12387D01*
X3881Y11217D01*
X3761Y10000D01*
X3881Y8783D01*
X4236Y7613D01*
X4813Y6534D01*
X5589Y5589D01*
X6534Y4813D01*
X7613Y4236D01*
X8783Y3881D01*
X10000Y3761D01*
X11217Y3881D01*
X12387Y4236D01*
X13466Y4813D01*
X14411Y5589D01*
X15187Y6534D01*
X15764Y7613D01*
X16119Y8783D01*
X16239Y10000D01*
X16119Y11217D01*
X15764Y12387D01*
X15187Y13466D01*
X14411Y14411D01*
X13466Y15187D01*
X12387Y15764D01*
X11217Y16119D01*
X10000Y16239D01*
D02*
G37*
%LPD*%
D43*
X59000Y59300D02*
Y65800D01*
X31400Y93400D02*
X59000Y65800D01*
X151166Y280866D02*
Y281741D01*
X149700Y279400D02*
X151166Y280866D01*
X149700Y248300D02*
Y279400D01*
X137200Y5100D02*
X260742D01*
X50100Y92200D02*
X137200Y5100D01*
X50100Y92200D02*
Y171133D01*
X134400Y118400D02*
Y134449D01*
X131300Y115300D02*
X134400Y118400D01*
X55000Y128600D02*
X109800D01*
X51600Y125200D02*
X55000Y128600D01*
X51600Y97600D02*
Y125200D01*
Y97600D02*
X59000Y90200D01*
X263600Y274300D02*
X273812D01*
X274712Y273400D01*
X276700D01*
X258400Y279500D02*
X263600Y274300D01*
X209360Y314060D02*
X213776D01*
X69842Y323741D02*
Y360262D01*
X207339Y157761D02*
Y188366D01*
X193147Y195000D02*
Y198315D01*
X208925Y159875D02*
Y189075D01*
X54700Y367700D02*
X91932D01*
X50100Y363100D02*
X54700Y367700D01*
X50100Y303000D02*
Y363100D01*
X151328Y367700D02*
X158768Y360261D01*
X99370Y360262D02*
X106808Y367700D01*
X151328D01*
X50100Y237067D02*
Y303000D01*
Y171133D02*
Y237067D01*
X91932Y367700D02*
X99370Y360262D01*
X238500Y291900D02*
X277453D01*
X262729Y271271D02*
X273200D01*
X259800Y274200D02*
X262729Y271271D01*
X262200Y211200D02*
X273000D01*
X322400Y200400D02*
Y206300D01*
X319000Y197000D02*
X322400Y200400D01*
X265400Y197000D02*
X319000D01*
X263500Y198900D02*
X265400Y197000D01*
X261100Y198900D02*
X263500D01*
X263800Y191500D02*
X266000Y193700D01*
X261100Y191500D02*
X263800D01*
X261100Y253800D02*
X274200D01*
X265900Y276400D02*
X279900D01*
X261500Y280800D02*
X265900Y276400D01*
X258400Y279500D02*
Y284784D01*
X207700Y196800D02*
X217500D01*
X207339Y157761D02*
X211500Y153600D01*
X208925Y159875D02*
X211500Y157300D01*
X203900Y241800D02*
X227200Y218500D01*
X198700Y243300D02*
X225700Y216300D01*
X228400Y272800D02*
X230200Y271000D01*
X233200Y270379D02*
X238400Y275579D01*
X231700Y271000D02*
X233400Y272700D01*
X223400Y275679D02*
X228700Y270379D01*
X238400Y275579D02*
Y275800D01*
X233400Y272700D02*
Y275800D01*
X228400Y272800D02*
Y275800D01*
X223400Y275679D02*
Y275800D01*
X198700Y243300D02*
Y256400D01*
X206700Y311400D02*
X209360Y314060D01*
X206700Y246600D02*
Y311400D01*
X204100Y251900D02*
Y321700D01*
X154700Y126100D02*
X156500Y127900D01*
X152100Y125779D02*
X155921Y129600D01*
X149500Y125300D02*
X155300Y131100D01*
X144900Y130100D02*
X147400Y132600D01*
X143400Y130721D02*
X146779Y134100D01*
X141900Y131343D02*
X146257Y135700D01*
X140400Y131964D02*
X145636Y137200D01*
X138900Y132585D02*
X145115Y138800D01*
X137400Y133207D02*
X144493Y140300D01*
X152100Y118900D02*
Y125779D01*
X149500Y115500D02*
Y125300D01*
X154700Y122400D02*
Y126100D01*
X146400Y35700D02*
Y128700D01*
X144900Y35079D02*
Y130100D01*
X143400Y34457D02*
Y130721D01*
X141900Y33836D02*
Y131343D01*
X140400Y33215D02*
Y131964D01*
X138900Y32593D02*
Y132585D01*
X137400Y31972D02*
Y133207D01*
X135900Y106500D02*
Y133828D01*
X146400Y128700D02*
X147400Y129700D01*
X201341Y139800D02*
X203600D01*
X131900Y102500D02*
X135900Y106500D01*
X203000Y118500D02*
X214900Y106600D01*
X211900Y105100D02*
X261358D01*
X214900Y106600D02*
X246100D01*
X207000Y102100D02*
X272939D01*
X204900Y100500D02*
X279619D01*
X200500Y104900D02*
X204900Y100500D01*
X272939Y102100D02*
X279239Y108400D01*
X279619Y100500D02*
X287519Y108400D01*
X265600Y103600D02*
X270400Y108400D01*
X261358Y105100D02*
X264658Y108400D01*
X246100Y106600D02*
X247900Y108400D01*
X156502Y12870D02*
X156570D01*
X137400Y31972D02*
X156502Y12870D01*
X146400Y35700D02*
X154400Y27700D01*
X201255D01*
X215855Y13100D01*
X153779Y26200D02*
X192913D01*
X206013Y13100D01*
X153157Y24700D02*
X184570D01*
X196170Y13100D01*
X152536Y23200D02*
X176228D01*
X186328Y13100D01*
X151915Y21700D02*
X167885D01*
X176485Y13100D01*
X151293Y20200D02*
X159700D01*
X144900Y35079D02*
X153779Y26200D01*
X143400Y34457D02*
X153157Y24700D01*
X141900Y33836D02*
X152536Y23200D01*
X140400Y33215D02*
X151915Y21700D01*
X138900Y32593D02*
X151293Y20200D01*
X147400Y129700D02*
X148400D01*
X77543Y360262D02*
X77700Y360105D01*
X222100Y207200D02*
Y207400D01*
Y215400D01*
X266000Y193700D02*
X343000D01*
X346047Y190653D01*
Y118300D02*
Y190653D01*
X262300Y195200D02*
X346500D01*
X349000Y197700D01*
Y231156D01*
X66700Y102500D02*
X131900D01*
X260742Y5100D02*
X268843Y13200D01*
X190000Y187200D02*
Y188000D01*
Y199341D01*
X341000Y275000D02*
Y297900D01*
X159700Y20200D02*
X166721Y13179D01*
X197000Y112100D02*
X207000Y102100D01*
X59000Y110200D02*
X66700Y102500D01*
X175000Y188500D02*
X178000D01*
X172500Y191300D02*
X177400D01*
X134400Y134449D02*
X149600Y149649D01*
X135900Y133828D02*
X151100Y149028D01*
Y183200D01*
X147700Y182400D02*
Y185700D01*
Y182400D02*
X149600Y180500D01*
Y149649D02*
Y180500D01*
X168200Y189800D02*
X172500Y185500D01*
X168200Y189800D02*
Y217500D01*
X231600Y150400D02*
Y157700D01*
X228447Y152425D02*
Y152479D01*
Y158653D01*
X222100Y197600D02*
Y200400D01*
X231600Y157700D02*
X233200Y159300D01*
X228447Y158653D02*
X231700Y161907D01*
X233200Y159300D02*
Y270379D01*
X231700Y161907D02*
Y271000D01*
X222100Y197600D02*
X224200Y195500D01*
X227200Y170500D02*
Y218500D01*
X220179Y165600D02*
X225700Y171121D01*
Y216300D01*
X212100Y169300D02*
X221757D01*
X224200Y171743D01*
Y195500D01*
X211500Y165600D02*
X220179D01*
X212100Y161900D02*
X218600D01*
X227200Y170500D01*
X223100Y157600D02*
X228700Y163200D01*
Y270379D01*
X225800Y155000D02*
Y158179D01*
X230200Y162579D01*
Y271000D01*
X178009Y150809D02*
X181000Y153800D01*
X176509Y153209D02*
X180900Y157600D01*
X175009Y145209D02*
Y155309D01*
X179509Y143345D02*
Y148409D01*
X181000Y149900D01*
X176509Y144588D02*
Y153209D01*
X178009Y143967D02*
Y150809D01*
X203000Y118500D02*
Y118600D01*
X144493Y140300D02*
X170100D01*
X175009Y145209D01*
X145115Y138800D02*
X170721D01*
X176509Y144588D01*
X145636Y137200D02*
X171243D01*
X178009Y143967D01*
X146257Y135700D02*
X171864D01*
X179509Y143345D01*
X146779Y134100D02*
X182600D01*
X188300Y139800D01*
X147400Y132600D02*
X186400D01*
X193600Y139800D01*
X155300Y131100D02*
X189000D01*
X197700Y139800D01*
X155921Y129600D02*
X191141D01*
X201341Y139800D01*
X156500Y127900D02*
X201600D01*
X210100Y103600D02*
X265600D01*
X199000Y118000D02*
X211900Y105100D01*
X195200Y118000D02*
X199000D01*
X198700Y115000D02*
X210100Y103600D01*
X191525Y115000D02*
X198700D01*
X220600Y121200D02*
X223100Y123700D01*
Y157600D01*
X172000Y121200D02*
X220600D01*
X169800Y119000D02*
X172000Y121200D01*
X181000Y161300D02*
X181300D01*
X175009Y155309D02*
X181000Y161300D01*
X177400Y191300D02*
X191400Y177300D01*
Y175000D02*
Y177300D01*
X188800Y172400D02*
Y177700D01*
X178000Y188500D02*
X188800Y177700D01*
X196200Y175000D02*
X196800Y175600D01*
Y196784D01*
X69842Y323741D02*
X196800Y196784D01*
X109721Y281741D02*
X193147Y198315D01*
X86400Y281741D02*
X109721D01*
X85400Y279100D02*
X110241D01*
X190000Y199341D01*
X83400Y281100D02*
X85400Y279100D01*
X83400Y281100D02*
Y290394D01*
X148166Y247539D02*
X207339Y188366D01*
X148166Y247539D02*
Y290394D01*
X149700Y248300D02*
X208925Y189075D01*
X332400Y266400D02*
X341000Y275000D01*
X268800Y266400D02*
X332400D01*
X277453Y291900D02*
X282600Y286753D01*
X31400Y93400D02*
Y97700D01*
D44*
X59000Y108500D02*
D03*
D45*
Y98500D02*
D03*
Y88500D02*
D03*
D46*
X278626Y360312D02*
D03*
X203933Y360261D02*
D03*
X213776D02*
D03*
X223618D02*
D03*
X268843Y13100D02*
D03*
X166642D02*
D03*
X176485D02*
D03*
X186328D02*
D03*
X196170D02*
D03*
X206013D02*
D03*
X215855D02*
D03*
X139083Y360261D02*
D03*
X148925D02*
D03*
X158768D02*
D03*
D47*
X268784Y360312D02*
D03*
X194091Y360261D02*
D03*
X259000Y13100D02*
D03*
X156800D02*
D03*
X129240Y360261D02*
D03*
D48*
X60000Y360262D02*
D03*
X69842D02*
D03*
X79685D02*
D03*
X89528D02*
D03*
X99370D02*
D03*
D49*
X345818Y19953D02*
D03*
X319834D02*
D03*
D50*
X252100Y166200D02*
D03*
X165300Y110400D02*
D03*
D51*
X252100Y156200D02*
D03*
D52*
X155300Y110400D02*
D03*
D53*
X26561Y339290D02*
D03*
X26412Y273345D02*
D03*
X27212Y207400D02*
D03*
X27112Y141455D02*
D03*
D54*
X36403Y339290D02*
D03*
X36254Y273345D02*
D03*
X37054Y207400D02*
D03*
X36954Y141455D02*
D03*
D55*
X349000Y231156D02*
D03*
X333252D02*
D03*
X317504D02*
D03*
X349000Y354800D02*
D03*
X333252D02*
D03*
X317504D02*
D03*
D56*
X303724Y223282D02*
D03*
X362779Y247692D02*
D03*
X303724Y346926D02*
D03*
X362779Y371335D02*
D03*
D57*
X360897Y327575D02*
D03*
X350897D02*
D03*
X340897D02*
D03*
X330897D02*
D03*
X360897Y297575D02*
D03*
X350897D02*
D03*
X340897D02*
D03*
X330897D02*
D03*
D58*
X320457Y100584D02*
D03*
X346047D02*
D03*
X320457Y118300D02*
D03*
D59*
X346047D02*
D03*
D60*
X20401Y71460D02*
D03*
D61*
X30401D02*
D03*
X40401D02*
D03*
D62*
X160900Y173343D02*
D03*
Y163500D02*
D03*
Y153657D02*
D03*
D63*
X274177Y355780D02*
D03*
X278455Y353961D02*
D03*
X282356Y351431D02*
D03*
X283401Y346900D02*
D03*
Y342250D02*
D03*
Y337601D02*
D03*
Y332951D02*
D03*
Y328302D02*
D03*
Y323652D02*
D03*
Y319002D02*
D03*
Y314353D02*
D03*
X286942Y295303D02*
D03*
X291337Y296821D02*
D03*
X291778Y301449D02*
D03*
X292408Y306056D02*
D03*
Y310706D02*
D03*
X290686Y315024D02*
D03*
Y319674D02*
D03*
Y324324D02*
D03*
Y328973D02*
D03*
Y333623D02*
D03*
Y338273D02*
D03*
Y342922D02*
D03*
Y347572D02*
D03*
X290659Y352221D02*
D03*
X288032Y356058D02*
D03*
X284926Y359517D02*
D03*
X283781Y364024D02*
D03*
X279879Y366551D02*
D03*
X131400Y108700D02*
D03*
X265200Y366617D02*
D03*
X262434Y362880D02*
D03*
X262186Y358237D02*
D03*
X258980Y354870D02*
D03*
X258414Y350254D02*
D03*
Y345605D02*
D03*
Y340955D02*
D03*
Y336306D02*
D03*
Y331656D02*
D03*
Y327006D02*
D03*
Y322357D02*
D03*
Y317707D02*
D03*
X257195Y313220D02*
D03*
X256692Y308598D02*
D03*
X257322Y303991D02*
D03*
Y299342D02*
D03*
X259771Y295389D02*
D03*
X265699Y316971D02*
D03*
Y321620D02*
D03*
Y326270D02*
D03*
Y330920D02*
D03*
Y335569D02*
D03*
Y340219D02*
D03*
Y344868D02*
D03*
Y349518D02*
D03*
X267877Y353626D02*
D03*
X272834Y366556D02*
D03*
X219900Y187400D02*
D03*
X59000Y59300D02*
D03*
X131300Y115300D02*
D03*
X109900Y128300D02*
D03*
X324000Y185400D02*
D03*
X298300Y189800D02*
D03*
Y200800D02*
D03*
X274550Y308700D02*
D03*
X259800Y265400D02*
D03*
X153300Y326228D02*
D03*
X88500D02*
D03*
X225100Y226500D02*
D03*
X202100Y246600D02*
D03*
X257300Y208000D02*
D03*
Y220400D02*
D03*
X238000Y109500D02*
D03*
X125000Y193900D02*
D03*
X132500Y48600D02*
D03*
X94900Y165800D02*
D03*
X122000Y151200D02*
D03*
X216200Y48600D02*
D03*
X279500Y47600D02*
D03*
X271300Y73500D02*
D03*
X315503Y57039D02*
D03*
X225400Y163700D02*
D03*
X156459Y157026D02*
D03*
X155460Y152485D02*
D03*
X158232Y148751D02*
D03*
X162869Y148406D02*
D03*
X166155Y151696D02*
D03*
X155939Y175900D02*
D03*
X155707Y171256D02*
D03*
X159082Y168058D02*
D03*
X165123Y176990D02*
D03*
X160900Y178935D02*
D03*
X203000Y162700D02*
D03*
Y153700D02*
D03*
X205250Y149200D02*
D03*
X200750Y167200D02*
D03*
X198500Y162700D02*
D03*
X200750Y158200D02*
D03*
X198500Y153700D02*
D03*
X200750Y149200D02*
D03*
X196250Y167200D02*
D03*
X194000Y162700D02*
D03*
X196250Y158200D02*
D03*
X194000Y153700D02*
D03*
X196250Y149200D02*
D03*
X191750Y158200D02*
D03*
X189500Y153700D02*
D03*
X191750Y149200D02*
D03*
X187250D02*
D03*
X50100Y171133D02*
D03*
Y237067D02*
D03*
Y303000D02*
D03*
X238500Y291900D02*
D03*
X259800Y274200D02*
D03*
X268800Y266400D02*
D03*
X273200Y271271D02*
D03*
X262200Y211200D02*
D03*
X273000D02*
D03*
X322400Y206934D02*
D03*
X261100Y253800D02*
D03*
X274200D02*
D03*
X282600Y286753D02*
D03*
X279900Y276400D02*
D03*
X276700Y273400D02*
D03*
X258400Y284784D02*
D03*
X261500Y280800D02*
D03*
X261100Y198900D02*
D03*
Y191500D02*
D03*
X262300Y195200D02*
D03*
X217500Y196800D02*
D03*
X207700D02*
D03*
X238400Y275800D02*
D03*
X233400D02*
D03*
X228400D02*
D03*
X223400D02*
D03*
X213776Y314060D02*
D03*
X204100Y321700D02*
D03*
Y251900D02*
D03*
X206700Y246600D02*
D03*
X203900Y241800D02*
D03*
X198600Y256500D02*
D03*
X212100Y161900D02*
D03*
Y165600D02*
D03*
Y169300D02*
D03*
X154700Y122400D02*
D03*
X152100Y118900D02*
D03*
X149500Y115500D02*
D03*
X203600Y139800D02*
D03*
X193600D02*
D03*
X197700D02*
D03*
X197775Y111600D02*
D03*
X200500Y104900D02*
D03*
X270400Y108400D02*
D03*
X287519D02*
D03*
X264658D02*
D03*
X256378D02*
D03*
X247900D02*
D03*
X279239D02*
D03*
X222100Y215400D02*
D03*
X168200Y217500D02*
D03*
X188300Y139800D02*
D03*
X148400Y129700D02*
D03*
X212100Y157300D02*
D03*
Y153600D02*
D03*
X190000Y188000D02*
D03*
X196800Y175000D02*
D03*
X222100Y207400D02*
D03*
X193147Y195000D02*
D03*
X131400Y98900D02*
D03*
X189500Y162700D02*
D03*
X187250Y158200D02*
D03*
X181000Y149900D02*
D03*
X185000Y153700D02*
D03*
X182200Y203200D02*
D03*
X191750Y167200D02*
D03*
X181000Y153800D02*
D03*
Y157600D02*
D03*
X182750Y167200D02*
D03*
X185000Y162700D02*
D03*
X151100Y183200D02*
D03*
X147700Y185700D02*
D03*
X175000Y188500D02*
D03*
X172500Y191300D02*
D03*
Y185500D02*
D03*
X231600Y150400D02*
D03*
X228447Y152479D02*
D03*
X222100Y200400D02*
D03*
X225800Y155000D02*
D03*
X208900Y141500D02*
D03*
X181400Y140400D02*
D03*
X203000Y118600D02*
D03*
X201600Y127900D02*
D03*
X191525Y115000D02*
D03*
X169800Y119000D02*
D03*
X195200Y118000D02*
D03*
X184400Y173000D02*
D03*
X179700Y164800D02*
D03*
X181000Y161300D02*
D03*
X154000Y142900D02*
D03*
X94900Y143400D02*
D03*
X188800Y172400D02*
D03*
X187250Y167200D02*
D03*
X191400Y175000D02*
D03*
X83400Y290394D02*
D03*
X87200Y281741D02*
D03*
X151966D02*
D03*
X148166Y290394D02*
D03*
X272800Y283800D02*
D03*
X265600Y296000D02*
D03*
X283500D02*
D03*
X274550Y301200D02*
D03*
X31400Y97700D02*
D03*
M02*
