G04 Layer_Color=8388736*
%FSLAX25Y25*%
%MOIN*%
G70*
G01*
G75*
%ADD65R,0.06509X0.05328*%
%ADD66R,0.04816X0.06587*%
%ADD67R,0.06587X0.04816*%
%ADD68R,0.04400X0.06500*%
%ADD69R,0.07099X0.05800*%
%ADD70R,0.05524X0.02900*%
%ADD71R,0.01981X0.04147*%
%ADD72R,0.04147X0.01981*%
%ADD73R,0.05721X0.05721*%
%ADD74R,0.06804X0.03359*%
%ADD75R,0.03359X0.08379*%
%ADD76R,0.01981X0.06607*%
%ADD77R,0.06607X0.01981*%
%ADD78R,0.03241X0.06312*%
%ADD79R,0.05131X0.10249*%
%ADD80R,0.11784X0.03713*%
%ADD81R,0.06391X0.04934*%
%ADD82R,0.07690X0.06706*%
%ADD83R,0.03359X0.05524*%
%ADD84R,0.04934X0.06312*%
%ADD85R,0.06509X0.04540*%
%ADD86R,0.06509X0.04737*%
%ADD87R,0.04540X0.06509*%
%ADD88R,0.06312X0.04934*%
%ADD89R,0.03556X0.02473*%
%ADD90R,0.06706X0.05131*%
%ADD91R,0.03792X0.05800*%
%ADD92R,0.09068X0.06312*%
%ADD93R,0.03162X0.06312*%
%ADD94R,0.03753X0.05721*%
%ADD95R,0.14973X0.12611*%
%ADD96R,0.11036X0.12611*%
%ADD97C,0.09068*%
%ADD98C,0.06312*%
%ADD99C,0.00800*%
%ADD100R,0.06706X0.06706*%
%ADD101C,0.06706*%
%ADD102C,0.05591*%
%ADD103R,0.07296X0.07296*%
%ADD104C,0.07296*%
%ADD105C,0.07887*%
%ADD106C,0.02670*%
%ADD107R,0.07591X0.07591*%
%ADD108C,0.07591*%
%ADD109R,0.07591X0.07591*%
%ADD110R,0.06375X0.06375*%
%ADD111C,0.06375*%
%ADD112C,0.05918*%
%ADD113R,0.05918X0.05918*%
%ADD114C,0.05725*%
D65*
X293800Y279666D02*
D03*
Y286753D02*
D03*
X256700Y321857D02*
D03*
Y328943D02*
D03*
X278626D02*
D03*
Y321857D02*
D03*
D66*
X283550Y228900D02*
D03*
X289850D02*
D03*
X205350Y265800D02*
D03*
X199050D02*
D03*
X282550Y73700D02*
D03*
X276250D02*
D03*
X330102Y129000D02*
D03*
X336402D02*
D03*
X27151Y21500D02*
D03*
X33450D02*
D03*
X321015Y72400D02*
D03*
X327314D02*
D03*
X180450Y127200D02*
D03*
X186750D02*
D03*
X207350D02*
D03*
X213650D02*
D03*
X185250Y195500D02*
D03*
X178950D02*
D03*
X165350Y139600D02*
D03*
X159050D02*
D03*
Y132200D02*
D03*
X165350D02*
D03*
X102050Y116900D02*
D03*
X95750D02*
D03*
D67*
X304300Y280454D02*
D03*
Y286753D02*
D03*
X221800Y252450D02*
D03*
Y246150D02*
D03*
X267500Y59050D02*
D03*
Y65350D02*
D03*
X357200Y175250D02*
D03*
Y168951D02*
D03*
X315400Y322250D02*
D03*
Y328550D02*
D03*
X128600Y151450D02*
D03*
Y157750D02*
D03*
X226300Y167950D02*
D03*
Y174250D02*
D03*
X184100Y211150D02*
D03*
Y217450D02*
D03*
D68*
X178900Y188000D02*
D03*
X185300D02*
D03*
D69*
X340535Y165802D02*
D03*
Y172101D02*
D03*
Y178400D02*
D03*
X324000Y165802D02*
D03*
Y172101D02*
D03*
Y178400D02*
D03*
D70*
X274579Y66040D02*
D03*
Y62300D02*
D03*
Y58560D02*
D03*
X284421D02*
D03*
Y66040D02*
D03*
D71*
X275247Y278091D02*
D03*
X277216D02*
D03*
X279184D02*
D03*
X281153D02*
D03*
Y289509D02*
D03*
X279184D02*
D03*
X277216D02*
D03*
X275247D02*
D03*
D72*
X283909Y280847D02*
D03*
Y282816D02*
D03*
Y284784D02*
D03*
Y286753D02*
D03*
X272491D02*
D03*
Y284784D02*
D03*
Y282816D02*
D03*
Y280847D02*
D03*
D73*
X278200Y283800D02*
D03*
D74*
X213177Y256800D02*
D03*
Y251800D02*
D03*
Y246800D02*
D03*
Y241800D02*
D03*
X191823D02*
D03*
Y246800D02*
D03*
Y251800D02*
D03*
Y256800D02*
D03*
D75*
X119900Y173151D02*
D03*
X114900D02*
D03*
X109900D02*
D03*
X104900D02*
D03*
X99900D02*
D03*
X94900D02*
D03*
X89900D02*
D03*
X84900D02*
D03*
Y136049D02*
D03*
X89900D02*
D03*
X94900D02*
D03*
X99900D02*
D03*
X104900D02*
D03*
X109900D02*
D03*
X114900D02*
D03*
X119900D02*
D03*
D76*
X181336Y179991D02*
D03*
X183305D02*
D03*
X185273D02*
D03*
X187242D02*
D03*
X189210D02*
D03*
X191179D02*
D03*
X193147D02*
D03*
X195116D02*
D03*
X197084D02*
D03*
X199053D02*
D03*
X201021D02*
D03*
X202990D02*
D03*
X204958D02*
D03*
X206927D02*
D03*
X208895D02*
D03*
X210864D02*
D03*
Y134809D02*
D03*
X208895D02*
D03*
X206927D02*
D03*
X204958D02*
D03*
X202990D02*
D03*
X201021D02*
D03*
X199053D02*
D03*
X197084D02*
D03*
X195116D02*
D03*
X193147D02*
D03*
X191179D02*
D03*
X189210D02*
D03*
X187242D02*
D03*
X185273D02*
D03*
X183305D02*
D03*
X181336D02*
D03*
D77*
X218690Y172164D02*
D03*
Y170195D02*
D03*
Y168227D02*
D03*
Y166258D02*
D03*
Y164290D02*
D03*
Y162321D02*
D03*
Y160353D02*
D03*
Y158384D02*
D03*
Y156416D02*
D03*
Y154447D02*
D03*
Y152479D02*
D03*
Y150510D02*
D03*
Y148542D02*
D03*
Y146573D02*
D03*
Y144605D02*
D03*
Y142636D02*
D03*
X173509D02*
D03*
Y144605D02*
D03*
Y146573D02*
D03*
Y148542D02*
D03*
Y150510D02*
D03*
Y152479D02*
D03*
Y154447D02*
D03*
Y156416D02*
D03*
Y158384D02*
D03*
Y160353D02*
D03*
Y162321D02*
D03*
Y164290D02*
D03*
Y166258D02*
D03*
Y168227D02*
D03*
Y170195D02*
D03*
Y172164D02*
D03*
D78*
X341487Y64913D02*
D03*
X337157D02*
D03*
X332826D02*
D03*
X328495D02*
D03*
X324165D02*
D03*
X319834D02*
D03*
X315503D02*
D03*
X311172D02*
D03*
X306842D02*
D03*
D79*
X301409Y57039D02*
D03*
Y21606D02*
D03*
X364991D02*
D03*
Y57039D02*
D03*
D80*
X247400Y200400D02*
D03*
X231376D02*
D03*
X247400Y205400D02*
D03*
X231376D02*
D03*
X247400Y210400D02*
D03*
X231376D02*
D03*
X247400Y215400D02*
D03*
X231376D02*
D03*
X247400Y220400D02*
D03*
X231376D02*
D03*
D81*
X268784Y328510D02*
D03*
Y322290D02*
D03*
X290300Y328510D02*
D03*
Y322290D02*
D03*
D82*
X188318Y75500D02*
D03*
X203082D02*
D03*
X188318Y90400D02*
D03*
X203082D02*
D03*
D83*
X337032Y206934D02*
D03*
X329472D02*
D03*
X333252Y198666D02*
D03*
X56032Y261466D02*
D03*
X63591D02*
D03*
X59812Y269734D02*
D03*
X77734Y261466D02*
D03*
X85293D02*
D03*
X81514Y269734D02*
D03*
X121137Y261466D02*
D03*
X128696D02*
D03*
X124917Y269734D02*
D03*
X142839Y261466D02*
D03*
X150398D02*
D03*
X146619Y269734D02*
D03*
D84*
X282960Y245800D02*
D03*
X290440D02*
D03*
X316460Y261300D02*
D03*
X323940D02*
D03*
Y269900D02*
D03*
X316460D02*
D03*
X329512Y145500D02*
D03*
X336992D02*
D03*
X26561Y39000D02*
D03*
X34041D02*
D03*
Y303000D02*
D03*
X26561D02*
D03*
X34041Y237067D02*
D03*
X26561D02*
D03*
X34041Y171133D02*
D03*
X26561D02*
D03*
X34041Y105200D02*
D03*
X26561D02*
D03*
D85*
X256700Y278879D02*
D03*
Y286753D02*
D03*
X164900Y307137D02*
D03*
Y299263D02*
D03*
X156540Y307137D02*
D03*
Y299263D02*
D03*
X148180D02*
D03*
Y307137D02*
D03*
X139820Y299263D02*
D03*
Y307137D02*
D03*
X131460Y299263D02*
D03*
Y307137D02*
D03*
X123100Y299263D02*
D03*
Y307137D02*
D03*
X100800D02*
D03*
Y299263D02*
D03*
X92340Y307137D02*
D03*
Y299263D02*
D03*
X83880D02*
D03*
Y307137D02*
D03*
X75420Y299263D02*
D03*
Y307137D02*
D03*
X66960Y299263D02*
D03*
Y307137D02*
D03*
X58500Y299263D02*
D03*
Y307137D02*
D03*
X295800Y122437D02*
D03*
Y114563D02*
D03*
X287519Y122437D02*
D03*
Y114563D02*
D03*
X279239Y122437D02*
D03*
Y114563D02*
D03*
X264658Y122437D02*
D03*
Y114563D02*
D03*
X256378Y122437D02*
D03*
Y114563D02*
D03*
D86*
X242900Y321540D02*
D03*
Y314060D02*
D03*
X259282Y65940D02*
D03*
Y58460D02*
D03*
X250700Y58660D02*
D03*
Y66140D02*
D03*
D87*
X293737Y160600D02*
D03*
X285863D02*
D03*
Y178800D02*
D03*
X293737D02*
D03*
X108463Y182100D02*
D03*
X116337D02*
D03*
D88*
X304200Y321660D02*
D03*
Y329140D02*
D03*
X247900Y122240D02*
D03*
Y114760D02*
D03*
X174400Y210560D02*
D03*
Y218040D02*
D03*
D89*
X198347Y295824D02*
D03*
Y292675D02*
D03*
Y289525D02*
D03*
Y286376D02*
D03*
X204253D02*
D03*
Y289525D02*
D03*
Y292675D02*
D03*
Y295824D02*
D03*
D90*
X193008Y321700D02*
D03*
X228047D02*
D03*
D91*
X238400Y299471D02*
D03*
X233400D02*
D03*
X228400D02*
D03*
X223400D02*
D03*
Y283329D02*
D03*
X228400D02*
D03*
X233400D02*
D03*
X238400D02*
D03*
D92*
X107087Y223358D02*
D03*
X142913D02*
D03*
X107087Y205642D02*
D03*
X142913D02*
D03*
D93*
X99554Y261072D02*
D03*
X107034D02*
D03*
X103294Y270128D02*
D03*
X164659Y261072D02*
D03*
X172139D02*
D03*
X168399Y270128D02*
D03*
D94*
X65500Y161096D02*
D03*
Y148104D02*
D03*
D95*
X98900Y97452D02*
D03*
D96*
Y13200D02*
D03*
D97*
X362779Y247692D02*
D03*
X303724Y223282D02*
D03*
Y346926D02*
D03*
X362779Y371335D02*
D03*
D98*
X317504Y231156D02*
D03*
X333252D02*
D03*
X349000D02*
D03*
Y354800D02*
D03*
X333252D02*
D03*
X317504D02*
D03*
D99*
X10000Y10000D02*
D03*
Y369841D02*
D03*
X361281Y265000D02*
D03*
Y125000D02*
D03*
D100*
X346047Y118300D02*
D03*
D101*
X320457D02*
D03*
X346047Y100584D02*
D03*
X320457D02*
D03*
D102*
X330897Y297575D02*
D03*
X340897D02*
D03*
X350897D02*
D03*
X360897D02*
D03*
X330897Y327575D02*
D03*
X340897D02*
D03*
X350897D02*
D03*
X360897D02*
D03*
D103*
X268784Y360312D02*
D03*
X194091Y360261D02*
D03*
X259000Y13100D02*
D03*
X156800D02*
D03*
X129240Y360261D02*
D03*
D104*
X278626Y360312D02*
D03*
X223618Y360261D02*
D03*
X213776D02*
D03*
X203933D02*
D03*
X268843Y13100D02*
D03*
X215855D02*
D03*
X206013D02*
D03*
X196170D02*
D03*
X186328D02*
D03*
X176485D02*
D03*
X166642D02*
D03*
X158768Y360261D02*
D03*
X148925D02*
D03*
X139083D02*
D03*
D105*
X99370Y360262D02*
D03*
X89528D02*
D03*
X79685D02*
D03*
X69842D02*
D03*
X60000D02*
D03*
D106*
X319834Y19953D02*
D03*
X345818D02*
D03*
D107*
X252100Y156200D02*
D03*
D108*
Y166200D02*
D03*
X165300Y110400D02*
D03*
D109*
X155300D02*
D03*
D110*
X26561Y339290D02*
D03*
Y273345D02*
D03*
Y207400D02*
D03*
Y141455D02*
D03*
D111*
X36403Y339290D02*
D03*
Y273345D02*
D03*
Y207400D02*
D03*
Y141455D02*
D03*
D112*
X40401Y71460D02*
D03*
X30401D02*
D03*
D113*
X20401D02*
D03*
D114*
X160900Y153657D02*
D03*
Y163500D02*
D03*
Y173343D02*
D03*
M02*
