G04 Layer_Color=2752767*
%FSLAX25Y25*%
%MOIN*%
G70*
G01*
G75*
%ADD121C,0.00200*%
%ADD122C,0.00267*%
%ADD123C,0.00133*%
D121*
X58200Y107700D02*
Y109300D01*
X59800D01*
Y107700D01*
X58200D01*
Y97700D02*
Y99300D01*
X59800D01*
Y97700D01*
X58200D01*
Y87700D02*
Y89300D01*
X59800D01*
Y87700D01*
X58200D01*
X278626Y359512D02*
X277826Y361112D01*
X279426D01*
X278626Y359512D01*
X268784D02*
X267984Y361112D01*
X269584D01*
X268784Y359512D01*
X194091Y359461D02*
X193291Y361061D01*
X194891D01*
X194091Y359461D01*
X203933D02*
X203133Y361061D01*
X204733D01*
X203933Y359461D01*
X213776D02*
X212976Y361061D01*
X214576D01*
X213776Y359461D01*
X223618D02*
X222818Y361061D01*
X224418D01*
X223618Y359461D01*
X268843Y12300D02*
X268042Y13900D01*
X269642D01*
X268843Y12300D01*
X259000D02*
X258200Y13900D01*
X259800D01*
X259000Y12300D01*
X156800D02*
X156000Y13900D01*
X157600D01*
X156800Y12300D01*
X166642D02*
X165842Y13900D01*
X167443D01*
X166642Y12300D01*
X176485D02*
X175685Y13900D01*
X177285D01*
X176485Y12300D01*
X186328D02*
X185528Y13900D01*
X187128D01*
X186328Y12300D01*
X196170D02*
X195370Y13900D01*
X196970D01*
X196170Y12300D01*
X206013D02*
X205213Y13900D01*
X206813D01*
X206013Y12300D01*
X215855D02*
X215055Y13900D01*
X216655D01*
X215855Y12300D01*
X129240Y359461D02*
X128440Y361061D01*
X130040D01*
X129240Y359461D01*
X139083D02*
X138283Y361061D01*
X139883D01*
X139083Y359461D01*
X148925D02*
X148125Y361061D01*
X149725D01*
X148925Y359461D01*
X158768D02*
X157968Y361061D01*
X159568D01*
X158768Y359461D01*
X60000Y359462D02*
X60400Y359862D01*
X60800D01*
X60400Y360262D01*
X60800Y360662D01*
X60400D01*
X60000Y361062D01*
X59600Y360662D01*
X59200D01*
X59600Y360262D01*
X59200Y359862D01*
X59600D01*
X60000Y359462D01*
X69842D02*
X70243Y359862D01*
X70643D01*
X70243Y360262D01*
X70643Y360662D01*
X70243D01*
X69842Y361062D01*
X69442Y360662D01*
X69042D01*
X69442Y360262D01*
X69042Y359862D01*
X69442D01*
X69842Y359462D01*
X79685D02*
X80085Y359862D01*
X80485D01*
X80085Y360262D01*
X80485Y360662D01*
X80085D01*
X79685Y361062D01*
X79285Y360662D01*
X78885D01*
X79285Y360262D01*
X78885Y359862D01*
X79285D01*
X79685Y359462D01*
X89528D02*
X89928Y359862D01*
X90328D01*
X89928Y360262D01*
X90328Y360662D01*
X89928D01*
X89528Y361062D01*
X89128Y360662D01*
X88728D01*
X89128Y360262D01*
X88728Y359862D01*
X89128D01*
X89528Y359462D01*
X99370D02*
X99770Y359862D01*
X100170D01*
X99770Y360262D01*
X100170Y360662D01*
X99770D01*
X99370Y361062D01*
X98970Y360662D01*
X98570D01*
X98970Y360262D01*
X98570Y359862D01*
X98970D01*
X99370Y359462D01*
X345018Y19153D02*
X345418Y19953D01*
X345018Y20753D01*
X345818Y20353D01*
X346618Y20753D01*
X346218Y19953D01*
X346618Y19153D01*
X345818Y19553D01*
X345018Y19153D01*
X319034D02*
X319434Y19953D01*
X319034Y20753D01*
X319834Y20353D01*
X320634Y20753D01*
X320234Y19953D01*
X320634Y19153D01*
X319834Y19553D01*
X319034Y19153D01*
X251700Y165800D02*
Y165400D01*
X252500D01*
Y165800D01*
X252900D01*
Y166600D01*
X252500D01*
Y167000D01*
X251700D01*
Y166600D01*
X251300D01*
Y165800D01*
X251700D01*
Y155800D02*
Y155400D01*
X252500D01*
Y155800D01*
X252900D01*
Y156600D01*
X252500D01*
Y157000D01*
X251700D01*
Y156600D01*
X251300D01*
Y155800D01*
X251700D01*
X164900Y110000D02*
Y109600D01*
X165700D01*
Y110000D01*
X166100D01*
Y110800D01*
X165700D01*
Y111200D01*
X164900D01*
Y110800D01*
X164500D01*
Y110000D01*
X164900D01*
X154900D02*
Y109600D01*
X155700D01*
Y110000D01*
X156100D01*
Y110800D01*
X155700D01*
Y111200D01*
X154900D01*
Y110800D01*
X154500D01*
Y110000D01*
X154900D01*
X25761Y338490D02*
X26161D01*
X26561Y338890D01*
X26961Y338490D01*
X27361D01*
Y338890D01*
X26961Y339290D01*
X27361Y339690D01*
Y340090D01*
X26961D01*
X26561Y339690D01*
X26161Y340090D01*
X25761D01*
Y339690D01*
X26161Y339290D01*
X25761Y338890D01*
Y338490D01*
X35603D02*
X36003D01*
X36403Y338890D01*
X36803Y338490D01*
X37203D01*
Y338890D01*
X36803Y339290D01*
X37203Y339690D01*
Y340090D01*
X36803D01*
X36403Y339690D01*
X36003Y340090D01*
X35603D01*
Y339690D01*
X36003Y339290D01*
X35603Y338890D01*
Y338490D01*
X25612Y272545D02*
X26012D01*
X26412Y272945D01*
X26812Y272545D01*
X27212D01*
Y272945D01*
X26812Y273345D01*
X27212Y273745D01*
Y274145D01*
X26812D01*
X26412Y273745D01*
X26012Y274145D01*
X25612D01*
Y273745D01*
X26012Y273345D01*
X25612Y272945D01*
Y272545D01*
X35454D02*
X35854D01*
X36254Y272945D01*
X36654Y272545D01*
X37054D01*
Y272945D01*
X36654Y273345D01*
X37054Y273745D01*
Y274145D01*
X36654D01*
X36254Y273745D01*
X35854Y274145D01*
X35454D01*
Y273745D01*
X35854Y273345D01*
X35454Y272945D01*
Y272545D01*
X26412Y206600D02*
X26812D01*
X27212Y207000D01*
X27612Y206600D01*
X28012D01*
Y207000D01*
X27612Y207400D01*
X28012Y207800D01*
Y208200D01*
X27612D01*
X27212Y207800D01*
X26812Y208200D01*
X26412D01*
Y207800D01*
X26812Y207400D01*
X26412Y207000D01*
Y206600D01*
X36254D02*
X36654D01*
X37054Y207000D01*
X37454Y206600D01*
X37854D01*
Y207000D01*
X37454Y207400D01*
X37854Y207800D01*
Y208200D01*
X37454D01*
X37054Y207800D01*
X36654Y208200D01*
X36254D01*
Y207800D01*
X36654Y207400D01*
X36254Y207000D01*
Y206600D01*
X26312Y140655D02*
X26712D01*
X27112Y141055D01*
X27512Y140655D01*
X27912D01*
Y141055D01*
X27512Y141455D01*
X27912Y141855D01*
Y142255D01*
X27512D01*
X27112Y141855D01*
X26712Y142255D01*
X26312D01*
Y141855D01*
X26712Y141455D01*
X26312Y141055D01*
Y140655D01*
X36154D02*
X36554D01*
X36954Y141055D01*
X37354Y140655D01*
X37754D01*
Y141055D01*
X37354Y141455D01*
X37754Y141855D01*
Y142255D01*
X37354D01*
X36954Y141855D01*
X36554Y142255D01*
X36154D01*
Y141855D01*
X36554Y141455D01*
X36154Y141055D01*
Y140655D01*
X348200Y231156D02*
X349000Y231956D01*
X349800Y231156D01*
X349000Y230356D01*
X348200Y231156D01*
X332452D02*
X333252Y231956D01*
X334052Y231156D01*
X333252Y230356D01*
X332452Y231156D01*
X316704D02*
X317504Y231956D01*
X318304Y231156D01*
X317504Y230356D01*
X316704Y231156D01*
X302924Y222482D02*
Y224082D01*
X304524D01*
Y222482D01*
X302924D01*
X303324Y222882D02*
Y223682D01*
X304124D01*
Y222882D01*
X303324D01*
X361980Y246892D02*
Y248492D01*
X363580D01*
Y246892D01*
X361980D01*
X362380Y247292D02*
Y248092D01*
X363179D01*
Y247292D01*
X362380D01*
X320457Y99783D02*
X319657Y101383D01*
X321257D01*
X320457Y99783D01*
Y100183D02*
X320057Y100984D01*
X320857D01*
X320457Y100183D01*
X346047Y99783D02*
X345247Y101383D01*
X346847D01*
X346047Y99783D01*
Y100183D02*
X345647Y100984D01*
X346447D01*
X346047Y100183D01*
X320457Y117500D02*
X319657Y119100D01*
X321257D01*
X320457Y117500D01*
Y117900D02*
X320057Y118700D01*
X320857D01*
X320457Y117900D01*
X346047Y117500D02*
X345247Y119100D01*
X346847D01*
X346047Y117500D01*
Y117900D02*
X345647Y118700D01*
X346447D01*
X346047Y117900D01*
X20401Y70660D02*
X20801Y71060D01*
X21201D01*
X20801Y71460D01*
X21201Y71860D01*
X20801D01*
X20401Y72260D01*
X20001Y71860D01*
X19601D01*
X20001Y71460D01*
X19601Y71060D01*
X20001D01*
X20401Y70660D01*
Y71060D02*
X20601Y71260D01*
X20801D01*
X20601Y71460D01*
X20801Y71660D01*
X20601D01*
X20401Y71860D01*
X20201Y71660D01*
X20001D01*
X20201Y71460D01*
X20001Y71260D01*
X20201D01*
X20401Y71060D01*
X30401Y70660D02*
X30801Y71060D01*
X31201D01*
X30801Y71460D01*
X31201Y71860D01*
X30801D01*
X30401Y72260D01*
X30001Y71860D01*
X29601D01*
X30001Y71460D01*
X29601Y71060D01*
X30001D01*
X30401Y70660D01*
Y71060D02*
X30601Y71260D01*
X30801D01*
X30601Y71460D01*
X30801Y71660D01*
X30601D01*
X30401Y71860D01*
X30201Y71660D01*
X30001D01*
X30201Y71460D01*
X30001Y71260D01*
X30201D01*
X30401Y71060D01*
X40401Y70660D02*
X40801Y71060D01*
X41201D01*
X40801Y71460D01*
X41201Y71860D01*
X40801D01*
X40401Y72260D01*
X40001Y71860D01*
X39601D01*
X40001Y71460D01*
X39601Y71060D01*
X40001D01*
X40401Y70660D01*
Y71060D02*
X40601Y71260D01*
X40801D01*
X40601Y71460D01*
X40801Y71660D01*
X40601D01*
X40401Y71860D01*
X40201Y71660D01*
X40001D01*
X40201Y71460D01*
X40001Y71260D01*
X40201D01*
X40401Y71060D01*
X348200Y354800D02*
X349000Y355600D01*
X349800Y354800D01*
X349000Y354000D01*
X348200Y354800D01*
X332452D02*
X333252Y355600D01*
X334052Y354800D01*
X333252Y354000D01*
X332452Y354800D01*
X316704D02*
X317504Y355600D01*
X318304Y354800D01*
X317504Y354000D01*
X316704Y354800D01*
X302924Y346126D02*
Y347726D01*
X304524D01*
Y346126D01*
X302924D01*
X303324Y346526D02*
Y347326D01*
X304124D01*
Y346526D01*
X303324D01*
X361980Y370535D02*
Y372135D01*
X363580D01*
Y370535D01*
X361980D01*
X362380Y370935D02*
Y371735D01*
X363179D01*
Y370935D01*
X362380D01*
X160100Y172543D02*
X160500Y173343D01*
X160100Y174143D01*
X160900Y173742D01*
X161700Y174143D01*
X161300Y173343D01*
X161700Y172543D01*
X160900Y172942D01*
X160100Y172543D01*
X160500Y172942D02*
X160700Y173343D01*
X160500Y173742D01*
X160900Y173542D01*
X161300Y173742D01*
X161100Y173343D01*
X161300Y172942D01*
X160900Y173143D01*
X160500Y172942D01*
X160100Y162700D02*
X160500Y163500D01*
X160100Y164300D01*
X160900Y163900D01*
X161700Y164300D01*
X161300Y163500D01*
X161700Y162700D01*
X160900Y163100D01*
X160100Y162700D01*
X160500Y163100D02*
X160700Y163500D01*
X160500Y163900D01*
X160900Y163700D01*
X161300Y163900D01*
X161100Y163500D01*
X161300Y163100D01*
X160900Y163300D01*
X160500Y163100D01*
X160100Y152857D02*
X160500Y153657D01*
X160100Y154457D01*
X160900Y154058D01*
X161700Y154457D01*
X161300Y153657D01*
X161700Y152857D01*
X160900Y153258D01*
X160100Y152857D01*
X160500Y153258D02*
X160700Y153657D01*
X160500Y154058D01*
X160900Y153858D01*
X161300Y154058D01*
X161100Y153657D01*
X161300Y153258D01*
X160900Y153457D01*
X160500Y153258D01*
X273777Y355380D02*
Y354980D01*
X274576D01*
Y355380D01*
X274976D01*
Y356180D01*
X274576D01*
Y356580D01*
X273777D01*
Y356180D01*
X273376D01*
Y355380D01*
X273777D01*
X273976Y355580D02*
Y355380D01*
X274377D01*
Y355580D01*
X274576D01*
Y355980D01*
X274377D01*
Y356180D01*
X273976D01*
Y355980D01*
X273777D01*
Y355580D01*
X273976D01*
X278056Y353561D02*
Y353161D01*
X278855D01*
Y353561D01*
X279256D01*
Y354361D01*
X278855D01*
Y354761D01*
X278056D01*
Y354361D01*
X277656D01*
Y353561D01*
X278056D01*
X278256Y353761D02*
Y353561D01*
X278656D01*
Y353761D01*
X278855D01*
Y354161D01*
X278656D01*
Y354361D01*
X278256D01*
Y354161D01*
X278056D01*
Y353761D01*
X278256D01*
X281956Y351031D02*
Y350631D01*
X282756D01*
Y351031D01*
X283156D01*
Y351831D01*
X282756D01*
Y352231D01*
X281956D01*
Y351831D01*
X281556D01*
Y351031D01*
X281956D01*
X282156Y351231D02*
Y351031D01*
X282556D01*
Y351231D01*
X282756D01*
Y351631D01*
X282556D01*
Y351831D01*
X282156D01*
Y351631D01*
X281956D01*
Y351231D01*
X282156D01*
X283001Y346500D02*
Y346100D01*
X283801D01*
Y346500D01*
X284201D01*
Y347300D01*
X283801D01*
Y347700D01*
X283001D01*
Y347300D01*
X282601D01*
Y346500D01*
X283001D01*
X283201Y346700D02*
Y346500D01*
X283601D01*
Y346700D01*
X283801D01*
Y347100D01*
X283601D01*
Y347300D01*
X283201D01*
Y347100D01*
X283001D01*
Y346700D01*
X283201D01*
X283001Y341850D02*
Y341451D01*
X283801D01*
Y341850D01*
X284201D01*
Y342651D01*
X283801D01*
Y343051D01*
X283001D01*
Y342651D01*
X282601D01*
Y341850D01*
X283001D01*
X283201Y342051D02*
Y341850D01*
X283601D01*
Y342051D01*
X283801D01*
Y342450D01*
X283601D01*
Y342651D01*
X283201D01*
Y342450D01*
X283001D01*
Y342051D01*
X283201D01*
X283001Y337201D02*
Y336801D01*
X283801D01*
Y337201D01*
X284201D01*
Y338001D01*
X283801D01*
Y338401D01*
X283001D01*
Y338001D01*
X282601D01*
Y337201D01*
X283001D01*
X283201Y337401D02*
Y337201D01*
X283601D01*
Y337401D01*
X283801D01*
Y337801D01*
X283601D01*
Y338001D01*
X283201D01*
Y337801D01*
X283001D01*
Y337401D01*
X283201D01*
X283001Y332551D02*
Y332151D01*
X283801D01*
Y332551D01*
X284201D01*
Y333351D01*
X283801D01*
Y333751D01*
X283001D01*
Y333351D01*
X282601D01*
Y332551D01*
X283001D01*
X283201Y332751D02*
Y332551D01*
X283601D01*
Y332751D01*
X283801D01*
Y333151D01*
X283601D01*
Y333351D01*
X283201D01*
Y333151D01*
X283001D01*
Y332751D01*
X283201D01*
X283001Y327902D02*
Y327502D01*
X283801D01*
Y327902D01*
X284201D01*
Y328702D01*
X283801D01*
Y329102D01*
X283001D01*
Y328702D01*
X282601D01*
Y327902D01*
X283001D01*
X283201Y328102D02*
Y327902D01*
X283601D01*
Y328102D01*
X283801D01*
Y328502D01*
X283601D01*
Y328702D01*
X283201D01*
Y328502D01*
X283001D01*
Y328102D01*
X283201D01*
X283001Y323252D02*
Y322852D01*
X283801D01*
Y323252D01*
X284201D01*
Y324052D01*
X283801D01*
Y324452D01*
X283001D01*
Y324052D01*
X282601D01*
Y323252D01*
X283001D01*
X283201Y323452D02*
Y323252D01*
X283601D01*
Y323452D01*
X283801D01*
Y323852D01*
X283601D01*
Y324052D01*
X283201D01*
Y323852D01*
X283001D01*
Y323452D01*
X283201D01*
X283001Y318602D02*
Y318202D01*
X283801D01*
Y318602D01*
X284201D01*
Y319402D01*
X283801D01*
Y319802D01*
X283001D01*
Y319402D01*
X282601D01*
Y318602D01*
X283001D01*
X283201Y318802D02*
Y318602D01*
X283601D01*
Y318802D01*
X283801D01*
Y319202D01*
X283601D01*
Y319402D01*
X283201D01*
Y319202D01*
X283001D01*
Y318802D01*
X283201D01*
X283001Y313953D02*
Y313553D01*
X283801D01*
Y313953D01*
X284201D01*
Y314753D01*
X283801D01*
Y315153D01*
X283001D01*
Y314753D01*
X282601D01*
Y313953D01*
X283001D01*
X283201Y314153D02*
Y313953D01*
X283601D01*
Y314153D01*
X283801D01*
Y314553D01*
X283601D01*
Y314753D01*
X283201D01*
Y314553D01*
X283001D01*
Y314153D01*
X283201D01*
X286542Y294903D02*
Y294503D01*
X287342D01*
Y294903D01*
X287742D01*
Y295703D01*
X287342D01*
Y296103D01*
X286542D01*
Y295703D01*
X286142D01*
Y294903D01*
X286542D01*
X286742Y295103D02*
Y294903D01*
X287142D01*
Y295103D01*
X287342D01*
Y295503D01*
X287142D01*
Y295703D01*
X286742D01*
Y295503D01*
X286542D01*
Y295103D01*
X286742D01*
X290937Y296421D02*
Y296021D01*
X291738D01*
Y296421D01*
X292138D01*
Y297221D01*
X291738D01*
Y297621D01*
X290937D01*
Y297221D01*
X290538D01*
Y296421D01*
X290937D01*
X291138Y296621D02*
Y296421D01*
X291537D01*
Y296621D01*
X291738D01*
Y297021D01*
X291537D01*
Y297221D01*
X291138D01*
Y297021D01*
X290937D01*
Y296621D01*
X291138D01*
X291378Y301049D02*
Y300649D01*
X292179D01*
Y301049D01*
X292579D01*
Y301849D01*
X292179D01*
Y302249D01*
X291378D01*
Y301849D01*
X290979D01*
Y301049D01*
X291378D01*
X291579Y301249D02*
Y301049D01*
X291979D01*
Y301249D01*
X292179D01*
Y301649D01*
X291979D01*
Y301849D01*
X291579D01*
Y301649D01*
X291378D01*
Y301249D01*
X291579D01*
X292008Y305656D02*
Y305256D01*
X292808D01*
Y305656D01*
X293208D01*
Y306456D01*
X292808D01*
Y306856D01*
X292008D01*
Y306456D01*
X291608D01*
Y305656D01*
X292008D01*
X292208Y305856D02*
Y305656D01*
X292608D01*
Y305856D01*
X292808D01*
Y306256D01*
X292608D01*
Y306456D01*
X292208D01*
Y306256D01*
X292008D01*
Y305856D01*
X292208D01*
X292008Y310306D02*
Y309906D01*
X292808D01*
Y310306D01*
X293208D01*
Y311106D01*
X292808D01*
Y311506D01*
X292008D01*
Y311106D01*
X291608D01*
Y310306D01*
X292008D01*
X292208Y310506D02*
Y310306D01*
X292608D01*
Y310506D01*
X292808D01*
Y310906D01*
X292608D01*
Y311106D01*
X292208D01*
Y310906D01*
X292008D01*
Y310506D01*
X292208D01*
X290286Y314625D02*
Y314225D01*
X291086D01*
Y314625D01*
X291486D01*
Y315424D01*
X291086D01*
Y315825D01*
X290286D01*
Y315424D01*
X289886D01*
Y314625D01*
X290286D01*
X290486Y314825D02*
Y314625D01*
X290886D01*
Y314825D01*
X291086D01*
Y315225D01*
X290886D01*
Y315424D01*
X290486D01*
Y315225D01*
X290286D01*
Y314825D01*
X290486D01*
X290286Y319274D02*
Y318874D01*
X291086D01*
Y319274D01*
X291486D01*
Y320074D01*
X291086D01*
Y320474D01*
X290286D01*
Y320074D01*
X289886D01*
Y319274D01*
X290286D01*
X290486Y319474D02*
Y319274D01*
X290886D01*
Y319474D01*
X291086D01*
Y319874D01*
X290886D01*
Y320074D01*
X290486D01*
Y319874D01*
X290286D01*
Y319474D01*
X290486D01*
X290286Y323924D02*
Y323524D01*
X291086D01*
Y323924D01*
X291486D01*
Y324724D01*
X291086D01*
Y325124D01*
X290286D01*
Y324724D01*
X289886D01*
Y323924D01*
X290286D01*
X290486Y324124D02*
Y323924D01*
X290886D01*
Y324124D01*
X291086D01*
Y324524D01*
X290886D01*
Y324724D01*
X290486D01*
Y324524D01*
X290286D01*
Y324124D01*
X290486D01*
X290286Y328573D02*
Y328173D01*
X291086D01*
Y328573D01*
X291486D01*
Y329373D01*
X291086D01*
Y329773D01*
X290286D01*
Y329373D01*
X289886D01*
Y328573D01*
X290286D01*
X290486Y328773D02*
Y328573D01*
X290886D01*
Y328773D01*
X291086D01*
Y329173D01*
X290886D01*
Y329373D01*
X290486D01*
Y329173D01*
X290286D01*
Y328773D01*
X290486D01*
X290286Y333223D02*
Y332823D01*
X291086D01*
Y333223D01*
X291486D01*
Y334023D01*
X291086D01*
Y334423D01*
X290286D01*
Y334023D01*
X289886D01*
Y333223D01*
X290286D01*
X290486Y333423D02*
Y333223D01*
X290886D01*
Y333423D01*
X291086D01*
Y333823D01*
X290886D01*
Y334023D01*
X290486D01*
Y333823D01*
X290286D01*
Y333423D01*
X290486D01*
X290286Y337873D02*
Y337473D01*
X291086D01*
Y337873D01*
X291486D01*
Y338673D01*
X291086D01*
Y339073D01*
X290286D01*
Y338673D01*
X289886D01*
Y337873D01*
X290286D01*
X290486Y338073D02*
Y337873D01*
X290886D01*
Y338073D01*
X291086D01*
Y338473D01*
X290886D01*
Y338673D01*
X290486D01*
Y338473D01*
X290286D01*
Y338073D01*
X290486D01*
X290286Y342522D02*
Y342122D01*
X291086D01*
Y342522D01*
X291486D01*
Y343322D01*
X291086D01*
Y343722D01*
X290286D01*
Y343322D01*
X289886D01*
Y342522D01*
X290286D01*
X290486Y342722D02*
Y342522D01*
X290886D01*
Y342722D01*
X291086D01*
Y343122D01*
X290886D01*
Y343322D01*
X290486D01*
Y343122D01*
X290286D01*
Y342722D01*
X290486D01*
X290286Y347172D02*
Y346772D01*
X291086D01*
Y347172D01*
X291486D01*
Y347972D01*
X291086D01*
Y348372D01*
X290286D01*
Y347972D01*
X289886D01*
Y347172D01*
X290286D01*
X290486Y347372D02*
Y347172D01*
X290886D01*
Y347372D01*
X291086D01*
Y347772D01*
X290886D01*
Y347972D01*
X290486D01*
Y347772D01*
X290286D01*
Y347372D01*
X290486D01*
X290259Y351821D02*
Y351421D01*
X291059D01*
Y351821D01*
X291459D01*
Y352621D01*
X291059D01*
Y353021D01*
X290259D01*
Y352621D01*
X289859D01*
Y351821D01*
X290259D01*
X290459Y352021D02*
Y351821D01*
X290859D01*
Y352021D01*
X291059D01*
Y352421D01*
X290859D01*
Y352621D01*
X290459D01*
Y352421D01*
X290259D01*
Y352021D01*
X290459D01*
X287632Y355658D02*
Y355258D01*
X288432D01*
Y355658D01*
X288832D01*
Y356457D01*
X288432D01*
Y356857D01*
X287632D01*
Y356457D01*
X287232D01*
Y355658D01*
X287632D01*
X287832Y355857D02*
Y355658D01*
X288232D01*
Y355857D01*
X288432D01*
Y356258D01*
X288232D01*
Y356457D01*
X287832D01*
Y356258D01*
X287632D01*
Y355857D01*
X287832D01*
X284526Y359117D02*
Y358717D01*
X285326D01*
Y359117D01*
X285726D01*
Y359917D01*
X285326D01*
Y360317D01*
X284526D01*
Y359917D01*
X284126D01*
Y359117D01*
X284526D01*
X284726Y359317D02*
Y359117D01*
X285126D01*
Y359317D01*
X285326D01*
Y359717D01*
X285126D01*
Y359917D01*
X284726D01*
Y359717D01*
X284526D01*
Y359317D01*
X284726D01*
X283381Y363624D02*
Y363224D01*
X284181D01*
Y363624D01*
X284581D01*
Y364424D01*
X284181D01*
Y364824D01*
X283381D01*
Y364424D01*
X282981D01*
Y363624D01*
X283381D01*
X283581Y363824D02*
Y363624D01*
X283981D01*
Y363824D01*
X284181D01*
Y364224D01*
X283981D01*
Y364424D01*
X283581D01*
Y364224D01*
X283381D01*
Y363824D01*
X283581D01*
X279479Y366151D02*
Y365751D01*
X280279D01*
Y366151D01*
X280679D01*
Y366951D01*
X280279D01*
Y367351D01*
X279479D01*
Y366951D01*
X279079D01*
Y366151D01*
X279479D01*
X279679Y366351D02*
Y366151D01*
X280079D01*
Y366351D01*
X280279D01*
Y366751D01*
X280079D01*
Y366951D01*
X279679D01*
Y366751D01*
X279479D01*
Y366351D01*
X279679D01*
X131000Y108300D02*
Y107900D01*
X131800D01*
Y108300D01*
X132200D01*
Y109100D01*
X131800D01*
Y109500D01*
X131000D01*
Y109100D01*
X130600D01*
Y108300D01*
X131000D01*
X131200Y108500D02*
Y108300D01*
X131600D01*
Y108500D01*
X131800D01*
Y108900D01*
X131600D01*
Y109100D01*
X131200D01*
Y108900D01*
X131000D01*
Y108500D01*
X131200D01*
X264800Y366217D02*
Y365817D01*
X265600D01*
Y366217D01*
X266000D01*
Y367017D01*
X265600D01*
Y367417D01*
X264800D01*
Y367017D01*
X264400D01*
Y366217D01*
X264800D01*
X265000Y366417D02*
Y366217D01*
X265400D01*
Y366417D01*
X265600D01*
Y366817D01*
X265400D01*
Y367017D01*
X265000D01*
Y366817D01*
X264800D01*
Y366417D01*
X265000D01*
X262034Y362480D02*
Y362080D01*
X262834D01*
Y362480D01*
X263234D01*
Y363280D01*
X262834D01*
Y363680D01*
X262034D01*
Y363280D01*
X261634D01*
Y362480D01*
X262034D01*
X262234Y362680D02*
Y362480D01*
X262634D01*
Y362680D01*
X262834D01*
Y363080D01*
X262634D01*
Y363280D01*
X262234D01*
Y363080D01*
X262034D01*
Y362680D01*
X262234D01*
X261786Y357837D02*
Y357437D01*
X262586D01*
Y357837D01*
X262986D01*
Y358637D01*
X262586D01*
Y359037D01*
X261786D01*
Y358637D01*
X261386D01*
Y357837D01*
X261786D01*
X261986Y358037D02*
Y357837D01*
X262386D01*
Y358037D01*
X262586D01*
Y358437D01*
X262386D01*
Y358637D01*
X261986D01*
Y358437D01*
X261786D01*
Y358037D01*
X261986D01*
X258580Y354469D02*
Y354069D01*
X259380D01*
Y354469D01*
X259780D01*
Y355270D01*
X259380D01*
Y355669D01*
X258580D01*
Y355270D01*
X258180D01*
Y354469D01*
X258580D01*
X258780Y354669D02*
Y354469D01*
X259180D01*
Y354669D01*
X259380D01*
Y355069D01*
X259180D01*
Y355270D01*
X258780D01*
Y355069D01*
X258580D01*
Y354669D01*
X258780D01*
X258014Y349854D02*
Y349454D01*
X258814D01*
Y349854D01*
X259214D01*
Y350654D01*
X258814D01*
Y351054D01*
X258014D01*
Y350654D01*
X257614D01*
Y349854D01*
X258014D01*
X258214Y350054D02*
Y349854D01*
X258614D01*
Y350054D01*
X258814D01*
Y350454D01*
X258614D01*
Y350654D01*
X258214D01*
Y350454D01*
X258014D01*
Y350054D01*
X258214D01*
X258014Y345205D02*
Y344805D01*
X258814D01*
Y345205D01*
X259214D01*
Y346005D01*
X258814D01*
Y346405D01*
X258014D01*
Y346005D01*
X257614D01*
Y345205D01*
X258014D01*
X258214Y345405D02*
Y345205D01*
X258614D01*
Y345405D01*
X258814D01*
Y345805D01*
X258614D01*
Y346005D01*
X258214D01*
Y345805D01*
X258014D01*
Y345405D01*
X258214D01*
X258014Y340555D02*
Y340155D01*
X258814D01*
Y340555D01*
X259214D01*
Y341355D01*
X258814D01*
Y341755D01*
X258014D01*
Y341355D01*
X257614D01*
Y340555D01*
X258014D01*
X258214Y340755D02*
Y340555D01*
X258614D01*
Y340755D01*
X258814D01*
Y341155D01*
X258614D01*
Y341355D01*
X258214D01*
Y341155D01*
X258014D01*
Y340755D01*
X258214D01*
X258014Y335906D02*
Y335506D01*
X258814D01*
Y335906D01*
X259214D01*
Y336706D01*
X258814D01*
Y337106D01*
X258014D01*
Y336706D01*
X257614D01*
Y335906D01*
X258014D01*
X258214Y336106D02*
Y335906D01*
X258614D01*
Y336106D01*
X258814D01*
Y336506D01*
X258614D01*
Y336706D01*
X258214D01*
Y336506D01*
X258014D01*
Y336106D01*
X258214D01*
X258014Y331256D02*
Y330856D01*
X258814D01*
Y331256D01*
X259214D01*
Y332056D01*
X258814D01*
Y332456D01*
X258014D01*
Y332056D01*
X257614D01*
Y331256D01*
X258014D01*
X258214Y331456D02*
Y331256D01*
X258614D01*
Y331456D01*
X258814D01*
Y331856D01*
X258614D01*
Y332056D01*
X258214D01*
Y331856D01*
X258014D01*
Y331456D01*
X258214D01*
X258014Y326606D02*
Y326206D01*
X258814D01*
Y326606D01*
X259214D01*
Y327406D01*
X258814D01*
Y327806D01*
X258014D01*
Y327406D01*
X257614D01*
Y326606D01*
X258014D01*
X258214Y326806D02*
Y326606D01*
X258614D01*
Y326806D01*
X258814D01*
Y327206D01*
X258614D01*
Y327406D01*
X258214D01*
Y327206D01*
X258014D01*
Y326806D01*
X258214D01*
X258014Y321957D02*
Y321557D01*
X258814D01*
Y321957D01*
X259214D01*
Y322757D01*
X258814D01*
Y323157D01*
X258014D01*
Y322757D01*
X257614D01*
Y321957D01*
X258014D01*
X258214Y322157D02*
Y321957D01*
X258614D01*
Y322157D01*
X258814D01*
Y322557D01*
X258614D01*
Y322757D01*
X258214D01*
Y322557D01*
X258014D01*
Y322157D01*
X258214D01*
X258014Y317307D02*
Y316907D01*
X258814D01*
Y317307D01*
X259214D01*
Y318107D01*
X258814D01*
Y318507D01*
X258014D01*
Y318107D01*
X257614D01*
Y317307D01*
X258014D01*
X258214Y317507D02*
Y317307D01*
X258614D01*
Y317507D01*
X258814D01*
Y317907D01*
X258614D01*
Y318107D01*
X258214D01*
Y317907D01*
X258014D01*
Y317507D01*
X258214D01*
X256795Y312820D02*
Y312420D01*
X257595D01*
Y312820D01*
X257995D01*
Y313620D01*
X257595D01*
Y314020D01*
X256795D01*
Y313620D01*
X256395D01*
Y312820D01*
X256795D01*
X256995Y313020D02*
Y312820D01*
X257395D01*
Y313020D01*
X257595D01*
Y313420D01*
X257395D01*
Y313620D01*
X256995D01*
Y313420D01*
X256795D01*
Y313020D01*
X256995D01*
X256292Y308198D02*
Y307798D01*
X257092D01*
Y308198D01*
X257492D01*
Y308998D01*
X257092D01*
Y309398D01*
X256292D01*
Y308998D01*
X255892D01*
Y308198D01*
X256292D01*
X256492Y308398D02*
Y308198D01*
X256892D01*
Y308398D01*
X257092D01*
Y308798D01*
X256892D01*
Y308998D01*
X256492D01*
Y308798D01*
X256292D01*
Y308398D01*
X256492D01*
X256922Y303591D02*
Y303191D01*
X257721D01*
Y303591D01*
X258121D01*
Y304391D01*
X257721D01*
Y304791D01*
X256922D01*
Y304391D01*
X256522D01*
Y303591D01*
X256922D01*
X257121Y303791D02*
Y303591D01*
X257522D01*
Y303791D01*
X257721D01*
Y304191D01*
X257522D01*
Y304391D01*
X257121D01*
Y304191D01*
X256922D01*
Y303791D01*
X257121D01*
X256922Y298941D02*
Y298541D01*
X257721D01*
Y298941D01*
X258121D01*
Y299742D01*
X257721D01*
Y300142D01*
X256922D01*
Y299742D01*
X256522D01*
Y298941D01*
X256922D01*
X257121Y299142D02*
Y298941D01*
X257522D01*
Y299142D01*
X257721D01*
Y299541D01*
X257522D01*
Y299742D01*
X257121D01*
Y299541D01*
X256922D01*
Y299142D01*
X257121D01*
X259371Y294989D02*
Y294589D01*
X260171D01*
Y294989D01*
X260571D01*
Y295789D01*
X260171D01*
Y296189D01*
X259371D01*
Y295789D01*
X258971D01*
Y294989D01*
X259371D01*
X259571Y295189D02*
Y294989D01*
X259971D01*
Y295189D01*
X260171D01*
Y295589D01*
X259971D01*
Y295789D01*
X259571D01*
Y295589D01*
X259371D01*
Y295189D01*
X259571D01*
X265299Y316571D02*
Y316171D01*
X266099D01*
Y316571D01*
X266499D01*
Y317371D01*
X266099D01*
Y317771D01*
X265299D01*
Y317371D01*
X264899D01*
Y316571D01*
X265299D01*
X265499Y316771D02*
Y316571D01*
X265899D01*
Y316771D01*
X266099D01*
Y317171D01*
X265899D01*
Y317371D01*
X265499D01*
Y317171D01*
X265299D01*
Y316771D01*
X265499D01*
X265299Y321220D02*
Y320820D01*
X266099D01*
Y321220D01*
X266499D01*
Y322020D01*
X266099D01*
Y322420D01*
X265299D01*
Y322020D01*
X264899D01*
Y321220D01*
X265299D01*
X265499Y321420D02*
Y321220D01*
X265899D01*
Y321420D01*
X266099D01*
Y321820D01*
X265899D01*
Y322020D01*
X265499D01*
Y321820D01*
X265299D01*
Y321420D01*
X265499D01*
X265299Y325870D02*
Y325470D01*
X266099D01*
Y325870D01*
X266499D01*
Y326670D01*
X266099D01*
Y327070D01*
X265299D01*
Y326670D01*
X264899D01*
Y325870D01*
X265299D01*
X265499Y326070D02*
Y325870D01*
X265899D01*
Y326070D01*
X266099D01*
Y326470D01*
X265899D01*
Y326670D01*
X265499D01*
Y326470D01*
X265299D01*
Y326070D01*
X265499D01*
X265299Y330520D02*
Y330119D01*
X266099D01*
Y330520D01*
X266499D01*
Y331319D01*
X266099D01*
Y331719D01*
X265299D01*
Y331319D01*
X264899D01*
Y330520D01*
X265299D01*
X265499Y330719D02*
Y330520D01*
X265899D01*
Y330719D01*
X266099D01*
Y331119D01*
X265899D01*
Y331319D01*
X265499D01*
Y331119D01*
X265299D01*
Y330719D01*
X265499D01*
X265299Y335169D02*
Y334769D01*
X266099D01*
Y335169D01*
X266499D01*
Y335969D01*
X266099D01*
Y336369D01*
X265299D01*
Y335969D01*
X264899D01*
Y335169D01*
X265299D01*
X265499Y335369D02*
Y335169D01*
X265899D01*
Y335369D01*
X266099D01*
Y335769D01*
X265899D01*
Y335969D01*
X265499D01*
Y335769D01*
X265299D01*
Y335369D01*
X265499D01*
X265299Y339819D02*
Y339419D01*
X266099D01*
Y339819D01*
X266499D01*
Y340619D01*
X266099D01*
Y341019D01*
X265299D01*
Y340619D01*
X264899D01*
Y339819D01*
X265299D01*
X265499Y340019D02*
Y339819D01*
X265899D01*
Y340019D01*
X266099D01*
Y340419D01*
X265899D01*
Y340619D01*
X265499D01*
Y340419D01*
X265299D01*
Y340019D01*
X265499D01*
X265299Y344468D02*
Y344068D01*
X266099D01*
Y344468D01*
X266499D01*
Y345268D01*
X266099D01*
Y345668D01*
X265299D01*
Y345268D01*
X264899D01*
Y344468D01*
X265299D01*
X265499Y344668D02*
Y344468D01*
X265899D01*
Y344668D01*
X266099D01*
Y345068D01*
X265899D01*
Y345268D01*
X265499D01*
Y345068D01*
X265299D01*
Y344668D01*
X265499D01*
X265299Y349118D02*
Y348718D01*
X266099D01*
Y349118D01*
X266499D01*
Y349918D01*
X266099D01*
Y350318D01*
X265299D01*
Y349918D01*
X264899D01*
Y349118D01*
X265299D01*
X265499Y349318D02*
Y349118D01*
X265899D01*
Y349318D01*
X266099D01*
Y349718D01*
X265899D01*
Y349918D01*
X265499D01*
Y349718D01*
X265299D01*
Y349318D01*
X265499D01*
X267477Y353226D02*
Y352826D01*
X268277D01*
Y353226D01*
X268677D01*
Y354026D01*
X268277D01*
Y354426D01*
X267477D01*
Y354026D01*
X267077D01*
Y353226D01*
X267477D01*
X267677Y353426D02*
Y353226D01*
X268077D01*
Y353426D01*
X268277D01*
Y353826D01*
X268077D01*
Y354026D01*
X267677D01*
Y353826D01*
X267477D01*
Y353426D01*
X267677D01*
X272434Y366156D02*
Y365756D01*
X273234D01*
Y366156D01*
X273634D01*
Y366956D01*
X273234D01*
Y367356D01*
X272434D01*
Y366956D01*
X272034D01*
Y366156D01*
X272434D01*
X272634Y366356D02*
Y366156D01*
X273034D01*
Y366356D01*
X273234D01*
Y366756D01*
X273034D01*
Y366956D01*
X272634D01*
Y366756D01*
X272434D01*
Y366356D01*
X272634D01*
X219500Y187000D02*
Y186600D01*
X220300D01*
Y187000D01*
X220700D01*
Y187800D01*
X220300D01*
Y188200D01*
X219500D01*
Y187800D01*
X219100D01*
Y187000D01*
X219500D01*
X219700Y187200D02*
Y187000D01*
X220100D01*
Y187200D01*
X220300D01*
Y187600D01*
X220100D01*
Y187800D01*
X219700D01*
Y187600D01*
X219500D01*
Y187200D01*
X219700D01*
X58600Y58900D02*
Y58500D01*
X59400D01*
Y58900D01*
X59800D01*
Y59700D01*
X59400D01*
Y60100D01*
X58600D01*
Y59700D01*
X58200D01*
Y58900D01*
X58600D01*
X58800Y59100D02*
Y58900D01*
X59200D01*
Y59100D01*
X59400D01*
Y59500D01*
X59200D01*
Y59700D01*
X58800D01*
Y59500D01*
X58600D01*
Y59100D01*
X58800D01*
X130900Y114900D02*
Y114500D01*
X131700D01*
Y114900D01*
X132100D01*
Y115700D01*
X131700D01*
Y116100D01*
X130900D01*
Y115700D01*
X130500D01*
Y114900D01*
X130900D01*
X131100Y115100D02*
Y114900D01*
X131500D01*
Y115100D01*
X131700D01*
Y115500D01*
X131500D01*
Y115700D01*
X131100D01*
Y115500D01*
X130900D01*
Y115100D01*
X131100D01*
X109500Y127900D02*
Y127500D01*
X110300D01*
Y127900D01*
X110700D01*
Y128700D01*
X110300D01*
Y129100D01*
X109500D01*
Y128700D01*
X109100D01*
Y127900D01*
X109500D01*
X109700Y128100D02*
Y127900D01*
X110100D01*
Y128100D01*
X110300D01*
Y128500D01*
X110100D01*
Y128700D01*
X109700D01*
Y128500D01*
X109500D01*
Y128100D01*
X109700D01*
X323600Y185000D02*
Y184600D01*
X324400D01*
Y185000D01*
X324800D01*
Y185800D01*
X324400D01*
Y186200D01*
X323600D01*
Y185800D01*
X323200D01*
Y185000D01*
X323600D01*
X323800Y185200D02*
Y185000D01*
X324200D01*
Y185200D01*
X324400D01*
Y185600D01*
X324200D01*
Y185800D01*
X323800D01*
Y185600D01*
X323600D01*
Y185200D01*
X323800D01*
X297900Y189400D02*
Y189000D01*
X298700D01*
Y189400D01*
X299100D01*
Y190200D01*
X298700D01*
Y190600D01*
X297900D01*
Y190200D01*
X297500D01*
Y189400D01*
X297900D01*
X298100Y189600D02*
Y189400D01*
X298500D01*
Y189600D01*
X298700D01*
Y190000D01*
X298500D01*
Y190200D01*
X298100D01*
Y190000D01*
X297900D01*
Y189600D01*
X298100D01*
X297900Y200400D02*
Y200000D01*
X298700D01*
Y200400D01*
X299100D01*
Y201200D01*
X298700D01*
Y201600D01*
X297900D01*
Y201200D01*
X297500D01*
Y200400D01*
X297900D01*
X298100Y200600D02*
Y200400D01*
X298500D01*
Y200600D01*
X298700D01*
Y201000D01*
X298500D01*
Y201200D01*
X298100D01*
Y201000D01*
X297900D01*
Y200600D01*
X298100D01*
X274150Y308300D02*
Y307900D01*
X274950D01*
Y308300D01*
X275350D01*
Y309100D01*
X274950D01*
Y309500D01*
X274150D01*
Y309100D01*
X273750D01*
Y308300D01*
X274150D01*
X274350Y308500D02*
Y308300D01*
X274750D01*
Y308500D01*
X274950D01*
Y308900D01*
X274750D01*
Y309100D01*
X274350D01*
Y308900D01*
X274150D01*
Y308500D01*
X274350D01*
X259400Y265000D02*
Y264600D01*
X260200D01*
Y265000D01*
X260600D01*
Y265800D01*
X260200D01*
Y266200D01*
X259400D01*
Y265800D01*
X259000D01*
Y265000D01*
X259400D01*
X259600Y265200D02*
Y265000D01*
X260000D01*
Y265200D01*
X260200D01*
Y265600D01*
X260000D01*
Y265800D01*
X259600D01*
Y265600D01*
X259400D01*
Y265200D01*
X259600D01*
X152900Y325828D02*
Y325428D01*
X153700D01*
Y325828D01*
X154100D01*
Y326628D01*
X153700D01*
Y327028D01*
X152900D01*
Y326628D01*
X152500D01*
Y325828D01*
X152900D01*
X153100Y326028D02*
Y325828D01*
X153500D01*
Y326028D01*
X153700D01*
Y326428D01*
X153500D01*
Y326628D01*
X153100D01*
Y326428D01*
X152900D01*
Y326028D01*
X153100D01*
X88100Y325828D02*
Y325428D01*
X88900D01*
Y325828D01*
X89300D01*
Y326628D01*
X88900D01*
Y327028D01*
X88100D01*
Y326628D01*
X87700D01*
Y325828D01*
X88100D01*
X88300Y326028D02*
Y325828D01*
X88700D01*
Y326028D01*
X88900D01*
Y326428D01*
X88700D01*
Y326628D01*
X88300D01*
Y326428D01*
X88100D01*
Y326028D01*
X88300D01*
X224700Y226100D02*
Y225700D01*
X225500D01*
Y226100D01*
X225900D01*
Y226900D01*
X225500D01*
Y227300D01*
X224700D01*
Y226900D01*
X224300D01*
Y226100D01*
X224700D01*
X224900Y226300D02*
Y226100D01*
X225300D01*
Y226300D01*
X225500D01*
Y226700D01*
X225300D01*
Y226900D01*
X224900D01*
Y226700D01*
X224700D01*
Y226300D01*
X224900D01*
X201700Y246200D02*
Y245800D01*
X202500D01*
Y246200D01*
X202900D01*
Y247000D01*
X202500D01*
Y247400D01*
X201700D01*
Y247000D01*
X201300D01*
Y246200D01*
X201700D01*
X201900Y246400D02*
Y246200D01*
X202300D01*
Y246400D01*
X202500D01*
Y246800D01*
X202300D01*
Y247000D01*
X201900D01*
Y246800D01*
X201700D01*
Y246400D01*
X201900D01*
X256900Y207600D02*
Y207200D01*
X257700D01*
Y207600D01*
X258100D01*
Y208400D01*
X257700D01*
Y208800D01*
X256900D01*
Y208400D01*
X256500D01*
Y207600D01*
X256900D01*
X257100Y207800D02*
Y207600D01*
X257500D01*
Y207800D01*
X257700D01*
Y208200D01*
X257500D01*
Y208400D01*
X257100D01*
Y208200D01*
X256900D01*
Y207800D01*
X257100D01*
X256900Y220000D02*
Y219600D01*
X257700D01*
Y220000D01*
X258100D01*
Y220800D01*
X257700D01*
Y221200D01*
X256900D01*
Y220800D01*
X256500D01*
Y220000D01*
X256900D01*
X257100Y220200D02*
Y220000D01*
X257500D01*
Y220200D01*
X257700D01*
Y220600D01*
X257500D01*
Y220800D01*
X257100D01*
Y220600D01*
X256900D01*
Y220200D01*
X257100D01*
X237600Y109100D02*
Y108700D01*
X238400D01*
Y109100D01*
X238800D01*
Y109900D01*
X238400D01*
Y110300D01*
X237600D01*
Y109900D01*
X237200D01*
Y109100D01*
X237600D01*
X237800Y109300D02*
Y109100D01*
X238200D01*
Y109300D01*
X238400D01*
Y109700D01*
X238200D01*
Y109900D01*
X237800D01*
Y109700D01*
X237600D01*
Y109300D01*
X237800D01*
X124600Y193500D02*
Y193100D01*
X125400D01*
Y193500D01*
X125800D01*
Y194300D01*
X125400D01*
Y194700D01*
X124600D01*
Y194300D01*
X124200D01*
Y193500D01*
X124600D01*
X124800Y193700D02*
Y193500D01*
X125200D01*
Y193700D01*
X125400D01*
Y194100D01*
X125200D01*
Y194300D01*
X124800D01*
Y194100D01*
X124600D01*
Y193700D01*
X124800D01*
X132100Y48200D02*
Y47800D01*
X132900D01*
Y48200D01*
X133300D01*
Y49000D01*
X132900D01*
Y49400D01*
X132100D01*
Y49000D01*
X131700D01*
Y48200D01*
X132100D01*
X132300Y48400D02*
Y48200D01*
X132700D01*
Y48400D01*
X132900D01*
Y48800D01*
X132700D01*
Y49000D01*
X132300D01*
Y48800D01*
X132100D01*
Y48400D01*
X132300D01*
X94500Y165400D02*
Y165000D01*
X95300D01*
Y165400D01*
X95700D01*
Y166200D01*
X95300D01*
Y166600D01*
X94500D01*
Y166200D01*
X94100D01*
Y165400D01*
X94500D01*
X94700Y165600D02*
Y165400D01*
X95100D01*
Y165600D01*
X95300D01*
Y166000D01*
X95100D01*
Y166200D01*
X94700D01*
Y166000D01*
X94500D01*
Y165600D01*
X94700D01*
X121600Y150800D02*
Y150400D01*
X122400D01*
Y150800D01*
X122800D01*
Y151600D01*
X122400D01*
Y152000D01*
X121600D01*
Y151600D01*
X121200D01*
Y150800D01*
X121600D01*
X121800Y151000D02*
Y150800D01*
X122200D01*
Y151000D01*
X122400D01*
Y151400D01*
X122200D01*
Y151600D01*
X121800D01*
Y151400D01*
X121600D01*
Y151000D01*
X121800D01*
X215800Y48200D02*
Y47800D01*
X216600D01*
Y48200D01*
X217000D01*
Y49000D01*
X216600D01*
Y49400D01*
X215800D01*
Y49000D01*
X215400D01*
Y48200D01*
X215800D01*
X216000Y48400D02*
Y48200D01*
X216400D01*
Y48400D01*
X216600D01*
Y48800D01*
X216400D01*
Y49000D01*
X216000D01*
Y48800D01*
X215800D01*
Y48400D01*
X216000D01*
X279100Y47200D02*
Y46800D01*
X279900D01*
Y47200D01*
X280300D01*
Y48000D01*
X279900D01*
Y48400D01*
X279100D01*
Y48000D01*
X278700D01*
Y47200D01*
X279100D01*
X279300Y47400D02*
Y47200D01*
X279700D01*
Y47400D01*
X279900D01*
Y47800D01*
X279700D01*
Y48000D01*
X279300D01*
Y47800D01*
X279100D01*
Y47400D01*
X279300D01*
X270900Y73100D02*
Y72700D01*
X271700D01*
Y73100D01*
X272100D01*
Y73900D01*
X271700D01*
Y74300D01*
X270900D01*
Y73900D01*
X270500D01*
Y73100D01*
X270900D01*
X271100Y73300D02*
Y73100D01*
X271500D01*
Y73300D01*
X271700D01*
Y73700D01*
X271500D01*
Y73900D01*
X271100D01*
Y73700D01*
X270900D01*
Y73300D01*
X271100D01*
X315103Y56639D02*
Y56239D01*
X315903D01*
Y56639D01*
X316303D01*
Y57439D01*
X315903D01*
Y57839D01*
X315103D01*
Y57439D01*
X314703D01*
Y56639D01*
X315103D01*
X315303Y56839D02*
Y56639D01*
X315703D01*
Y56839D01*
X315903D01*
Y57239D01*
X315703D01*
Y57439D01*
X315303D01*
Y57239D01*
X315103D01*
Y56839D01*
X315303D01*
X225000Y163300D02*
Y162900D01*
X225800D01*
Y163300D01*
X226200D01*
Y164100D01*
X225800D01*
Y164500D01*
X225000D01*
Y164100D01*
X224600D01*
Y163300D01*
X225000D01*
X225200Y163500D02*
Y163300D01*
X225600D01*
Y163500D01*
X225800D01*
Y163900D01*
X225600D01*
Y164100D01*
X225200D01*
Y163900D01*
X225000D01*
Y163500D01*
X225200D01*
X156059Y156626D02*
Y156226D01*
X156859D01*
Y156626D01*
X157259D01*
Y157426D01*
X156859D01*
Y157826D01*
X156059D01*
Y157426D01*
X155659D01*
Y156626D01*
X156059D01*
X156259Y156826D02*
Y156626D01*
X156659D01*
Y156826D01*
X156859D01*
Y157226D01*
X156659D01*
Y157426D01*
X156259D01*
Y157226D01*
X156059D01*
Y156826D01*
X156259D01*
X155060Y152085D02*
Y151684D01*
X155860D01*
Y152085D01*
X156260D01*
Y152884D01*
X155860D01*
Y153285D01*
X155060D01*
Y152884D01*
X154660D01*
Y152085D01*
X155060D01*
X155260Y152285D02*
Y152085D01*
X155660D01*
Y152285D01*
X155860D01*
Y152684D01*
X155660D01*
Y152884D01*
X155260D01*
Y152684D01*
X155060D01*
Y152285D01*
X155260D01*
X157832Y148351D02*
Y147951D01*
X158632D01*
Y148351D01*
X159032D01*
Y149151D01*
X158632D01*
Y149551D01*
X157832D01*
Y149151D01*
X157432D01*
Y148351D01*
X157832D01*
X158032Y148551D02*
Y148351D01*
X158432D01*
Y148551D01*
X158632D01*
Y148951D01*
X158432D01*
Y149151D01*
X158032D01*
Y148951D01*
X157832D01*
Y148551D01*
X158032D01*
X162469Y148006D02*
Y147606D01*
X163269D01*
Y148006D01*
X163669D01*
Y148806D01*
X163269D01*
Y149206D01*
X162469D01*
Y148806D01*
X162069D01*
Y148006D01*
X162469D01*
X162669Y148206D02*
Y148006D01*
X163069D01*
Y148206D01*
X163269D01*
Y148606D01*
X163069D01*
Y148806D01*
X162669D01*
Y148606D01*
X162469D01*
Y148206D01*
X162669D01*
X165755Y151296D02*
Y150896D01*
X166555D01*
Y151296D01*
X166955D01*
Y152096D01*
X166555D01*
Y152496D01*
X165755D01*
Y152096D01*
X165355D01*
Y151296D01*
X165755D01*
X165955Y151496D02*
Y151296D01*
X166355D01*
Y151496D01*
X166555D01*
Y151896D01*
X166355D01*
Y152096D01*
X165955D01*
Y151896D01*
X165755D01*
Y151496D01*
X165955D01*
X155539Y175500D02*
Y175100D01*
X156339D01*
Y175500D01*
X156739D01*
Y176300D01*
X156339D01*
Y176700D01*
X155539D01*
Y176300D01*
X155139D01*
Y175500D01*
X155539D01*
X155739Y175700D02*
Y175500D01*
X156139D01*
Y175700D01*
X156339D01*
Y176100D01*
X156139D01*
Y176300D01*
X155739D01*
Y176100D01*
X155539D01*
Y175700D01*
X155739D01*
X155307Y170856D02*
Y170456D01*
X156107D01*
Y170856D01*
X156507D01*
Y171656D01*
X156107D01*
Y172056D01*
X155307D01*
Y171656D01*
X154907D01*
Y170856D01*
X155307D01*
X155507Y171056D02*
Y170856D01*
X155907D01*
Y171056D01*
X156107D01*
Y171456D01*
X155907D01*
Y171656D01*
X155507D01*
Y171456D01*
X155307D01*
Y171056D01*
X155507D01*
X158683Y167658D02*
Y167258D01*
X159483D01*
Y167658D01*
X159882D01*
Y168458D01*
X159483D01*
Y168858D01*
X158683D01*
Y168458D01*
X158282D01*
Y167658D01*
X158683D01*
X158882Y167858D02*
Y167658D01*
X159283D01*
Y167858D01*
X159483D01*
Y168258D01*
X159283D01*
Y168458D01*
X158882D01*
Y168258D01*
X158683D01*
Y167858D01*
X158882D01*
X164723Y176590D02*
Y176190D01*
X165523D01*
Y176590D01*
X165923D01*
Y177390D01*
X165523D01*
Y177790D01*
X164723D01*
Y177390D01*
X164323D01*
Y176590D01*
X164723D01*
X164923Y176790D02*
Y176590D01*
X165323D01*
Y176790D01*
X165523D01*
Y177190D01*
X165323D01*
Y177390D01*
X164923D01*
Y177190D01*
X164723D01*
Y176790D01*
X164923D01*
X160500Y178535D02*
Y178135D01*
X161300D01*
Y178535D01*
X161700D01*
Y179335D01*
X161300D01*
Y179735D01*
X160500D01*
Y179335D01*
X160100D01*
Y178535D01*
X160500D01*
X160700Y178735D02*
Y178535D01*
X161100D01*
Y178735D01*
X161300D01*
Y179135D01*
X161100D01*
Y179335D01*
X160700D01*
Y179135D01*
X160500D01*
Y178735D01*
X160700D01*
X202600Y162300D02*
Y161900D01*
X203400D01*
Y162300D01*
X203800D01*
Y163100D01*
X203400D01*
Y163500D01*
X202600D01*
Y163100D01*
X202200D01*
Y162300D01*
X202600D01*
X202800Y162500D02*
Y162300D01*
X203200D01*
Y162500D01*
X203400D01*
Y162900D01*
X203200D01*
Y163100D01*
X202800D01*
Y162900D01*
X202600D01*
Y162500D01*
X202800D01*
X202600Y153300D02*
Y152900D01*
X203400D01*
Y153300D01*
X203800D01*
Y154100D01*
X203400D01*
Y154500D01*
X202600D01*
Y154100D01*
X202200D01*
Y153300D01*
X202600D01*
X202800Y153500D02*
Y153300D01*
X203200D01*
Y153500D01*
X203400D01*
Y153900D01*
X203200D01*
Y154100D01*
X202800D01*
Y153900D01*
X202600D01*
Y153500D01*
X202800D01*
X204850Y148800D02*
Y148400D01*
X205650D01*
Y148800D01*
X206050D01*
Y149600D01*
X205650D01*
Y150000D01*
X204850D01*
Y149600D01*
X204450D01*
Y148800D01*
X204850D01*
X205050Y149000D02*
Y148800D01*
X205450D01*
Y149000D01*
X205650D01*
Y149400D01*
X205450D01*
Y149600D01*
X205050D01*
Y149400D01*
X204850D01*
Y149000D01*
X205050D01*
X200350Y166800D02*
Y166400D01*
X201150D01*
Y166800D01*
X201550D01*
Y167600D01*
X201150D01*
Y168000D01*
X200350D01*
Y167600D01*
X199950D01*
Y166800D01*
X200350D01*
X200550Y167000D02*
Y166800D01*
X200950D01*
Y167000D01*
X201150D01*
Y167400D01*
X200950D01*
Y167600D01*
X200550D01*
Y167400D01*
X200350D01*
Y167000D01*
X200550D01*
X198100Y162300D02*
Y161900D01*
X198900D01*
Y162300D01*
X199300D01*
Y163100D01*
X198900D01*
Y163500D01*
X198100D01*
Y163100D01*
X197700D01*
Y162300D01*
X198100D01*
X198300Y162500D02*
Y162300D01*
X198700D01*
Y162500D01*
X198900D01*
Y162900D01*
X198700D01*
Y163100D01*
X198300D01*
Y162900D01*
X198100D01*
Y162500D01*
X198300D01*
X200350Y157800D02*
Y157400D01*
X201150D01*
Y157800D01*
X201550D01*
Y158600D01*
X201150D01*
Y159000D01*
X200350D01*
Y158600D01*
X199950D01*
Y157800D01*
X200350D01*
X200550Y158000D02*
Y157800D01*
X200950D01*
Y158000D01*
X201150D01*
Y158400D01*
X200950D01*
Y158600D01*
X200550D01*
Y158400D01*
X200350D01*
Y158000D01*
X200550D01*
X198100Y153300D02*
Y152900D01*
X198900D01*
Y153300D01*
X199300D01*
Y154100D01*
X198900D01*
Y154500D01*
X198100D01*
Y154100D01*
X197700D01*
Y153300D01*
X198100D01*
X198300Y153500D02*
Y153300D01*
X198700D01*
Y153500D01*
X198900D01*
Y153900D01*
X198700D01*
Y154100D01*
X198300D01*
Y153900D01*
X198100D01*
Y153500D01*
X198300D01*
X200350Y148800D02*
Y148400D01*
X201150D01*
Y148800D01*
X201550D01*
Y149600D01*
X201150D01*
Y150000D01*
X200350D01*
Y149600D01*
X199950D01*
Y148800D01*
X200350D01*
X200550Y149000D02*
Y148800D01*
X200950D01*
Y149000D01*
X201150D01*
Y149400D01*
X200950D01*
Y149600D01*
X200550D01*
Y149400D01*
X200350D01*
Y149000D01*
X200550D01*
X195850Y166800D02*
Y166400D01*
X196650D01*
Y166800D01*
X197050D01*
Y167600D01*
X196650D01*
Y168000D01*
X195850D01*
Y167600D01*
X195450D01*
Y166800D01*
X195850D01*
X196050Y167000D02*
Y166800D01*
X196450D01*
Y167000D01*
X196650D01*
Y167400D01*
X196450D01*
Y167600D01*
X196050D01*
Y167400D01*
X195850D01*
Y167000D01*
X196050D01*
X193600Y162300D02*
Y161900D01*
X194400D01*
Y162300D01*
X194800D01*
Y163100D01*
X194400D01*
Y163500D01*
X193600D01*
Y163100D01*
X193200D01*
Y162300D01*
X193600D01*
X193800Y162500D02*
Y162300D01*
X194200D01*
Y162500D01*
X194400D01*
Y162900D01*
X194200D01*
Y163100D01*
X193800D01*
Y162900D01*
X193600D01*
Y162500D01*
X193800D01*
X195850Y157800D02*
Y157400D01*
X196650D01*
Y157800D01*
X197050D01*
Y158600D01*
X196650D01*
Y159000D01*
X195850D01*
Y158600D01*
X195450D01*
Y157800D01*
X195850D01*
X196050Y158000D02*
Y157800D01*
X196450D01*
Y158000D01*
X196650D01*
Y158400D01*
X196450D01*
Y158600D01*
X196050D01*
Y158400D01*
X195850D01*
Y158000D01*
X196050D01*
X193600Y153300D02*
Y152900D01*
X194400D01*
Y153300D01*
X194800D01*
Y154100D01*
X194400D01*
Y154500D01*
X193600D01*
Y154100D01*
X193200D01*
Y153300D01*
X193600D01*
X193800Y153500D02*
Y153300D01*
X194200D01*
Y153500D01*
X194400D01*
Y153900D01*
X194200D01*
Y154100D01*
X193800D01*
Y153900D01*
X193600D01*
Y153500D01*
X193800D01*
X195850Y148800D02*
Y148400D01*
X196650D01*
Y148800D01*
X197050D01*
Y149600D01*
X196650D01*
Y150000D01*
X195850D01*
Y149600D01*
X195450D01*
Y148800D01*
X195850D01*
X196050Y149000D02*
Y148800D01*
X196450D01*
Y149000D01*
X196650D01*
Y149400D01*
X196450D01*
Y149600D01*
X196050D01*
Y149400D01*
X195850D01*
Y149000D01*
X196050D01*
X191350Y157800D02*
Y157400D01*
X192150D01*
Y157800D01*
X192550D01*
Y158600D01*
X192150D01*
Y159000D01*
X191350D01*
Y158600D01*
X190950D01*
Y157800D01*
X191350D01*
X191550Y158000D02*
Y157800D01*
X191950D01*
Y158000D01*
X192150D01*
Y158400D01*
X191950D01*
Y158600D01*
X191550D01*
Y158400D01*
X191350D01*
Y158000D01*
X191550D01*
X189100Y153300D02*
Y152900D01*
X189900D01*
Y153300D01*
X190300D01*
Y154100D01*
X189900D01*
Y154500D01*
X189100D01*
Y154100D01*
X188700D01*
Y153300D01*
X189100D01*
X189300Y153500D02*
Y153300D01*
X189700D01*
Y153500D01*
X189900D01*
Y153900D01*
X189700D01*
Y154100D01*
X189300D01*
Y153900D01*
X189100D01*
Y153500D01*
X189300D01*
X191350Y148800D02*
Y148400D01*
X192150D01*
Y148800D01*
X192550D01*
Y149600D01*
X192150D01*
Y150000D01*
X191350D01*
Y149600D01*
X190950D01*
Y148800D01*
X191350D01*
X191550Y149000D02*
Y148800D01*
X191950D01*
Y149000D01*
X192150D01*
Y149400D01*
X191950D01*
Y149600D01*
X191550D01*
Y149400D01*
X191350D01*
Y149000D01*
X191550D01*
X186850Y148800D02*
Y148400D01*
X187650D01*
Y148800D01*
X188050D01*
Y149600D01*
X187650D01*
Y150000D01*
X186850D01*
Y149600D01*
X186450D01*
Y148800D01*
X186850D01*
X187050Y149000D02*
Y148800D01*
X187450D01*
Y149000D01*
X187650D01*
Y149400D01*
X187450D01*
Y149600D01*
X187050D01*
Y149400D01*
X186850D01*
Y149000D01*
X187050D01*
X49700Y170733D02*
Y170333D01*
X50500D01*
Y170733D01*
X50900D01*
Y171533D01*
X50500D01*
Y171933D01*
X49700D01*
Y171533D01*
X49300D01*
Y170733D01*
X49700D01*
X49900Y170933D02*
Y170733D01*
X50300D01*
Y170933D01*
X50500D01*
Y171333D01*
X50300D01*
Y171533D01*
X49900D01*
Y171333D01*
X49700D01*
Y170933D01*
X49900D01*
X49700Y236667D02*
Y236267D01*
X50500D01*
Y236667D01*
X50900D01*
Y237467D01*
X50500D01*
Y237867D01*
X49700D01*
Y237467D01*
X49300D01*
Y236667D01*
X49700D01*
X49900Y236867D02*
Y236667D01*
X50300D01*
Y236867D01*
X50500D01*
Y237267D01*
X50300D01*
Y237467D01*
X49900D01*
Y237267D01*
X49700D01*
Y236867D01*
X49900D01*
X49700Y302600D02*
Y302200D01*
X50500D01*
Y302600D01*
X50900D01*
Y303400D01*
X50500D01*
Y303800D01*
X49700D01*
Y303400D01*
X49300D01*
Y302600D01*
X49700D01*
X49900Y302800D02*
Y302600D01*
X50300D01*
Y302800D01*
X50500D01*
Y303200D01*
X50300D01*
Y303400D01*
X49900D01*
Y303200D01*
X49700D01*
Y302800D01*
X49900D01*
X238100Y291500D02*
Y291100D01*
X238900D01*
Y291500D01*
X239300D01*
Y292300D01*
X238900D01*
Y292700D01*
X238100D01*
Y292300D01*
X237700D01*
Y291500D01*
X238100D01*
X238300Y291700D02*
Y291500D01*
X238700D01*
Y291700D01*
X238900D01*
Y292100D01*
X238700D01*
Y292300D01*
X238300D01*
Y292100D01*
X238100D01*
Y291700D01*
X238300D01*
X259400Y273800D02*
Y273400D01*
X260200D01*
Y273800D01*
X260600D01*
Y274600D01*
X260200D01*
Y275000D01*
X259400D01*
Y274600D01*
X259000D01*
Y273800D01*
X259400D01*
X259600Y274000D02*
Y273800D01*
X260000D01*
Y274000D01*
X260200D01*
Y274400D01*
X260000D01*
Y274600D01*
X259600D01*
Y274400D01*
X259400D01*
Y274000D01*
X259600D01*
X268400Y266000D02*
Y265600D01*
X269200D01*
Y266000D01*
X269600D01*
Y266800D01*
X269200D01*
Y267200D01*
X268400D01*
Y266800D01*
X268000D01*
Y266000D01*
X268400D01*
X268600Y266200D02*
Y266000D01*
X269000D01*
Y266200D01*
X269200D01*
Y266600D01*
X269000D01*
Y266800D01*
X268600D01*
Y266600D01*
X268400D01*
Y266200D01*
X268600D01*
X272800Y270871D02*
Y270471D01*
X273600D01*
Y270871D01*
X274000D01*
Y271671D01*
X273600D01*
Y272071D01*
X272800D01*
Y271671D01*
X272400D01*
Y270871D01*
X272800D01*
X273000Y271071D02*
Y270871D01*
X273400D01*
Y271071D01*
X273600D01*
Y271471D01*
X273400D01*
Y271671D01*
X273000D01*
Y271471D01*
X272800D01*
Y271071D01*
X273000D01*
X261800Y210800D02*
Y210400D01*
X262600D01*
Y210800D01*
X263000D01*
Y211600D01*
X262600D01*
Y212000D01*
X261800D01*
Y211600D01*
X261400D01*
Y210800D01*
X261800D01*
X262000Y211000D02*
Y210800D01*
X262400D01*
Y211000D01*
X262600D01*
Y211400D01*
X262400D01*
Y211600D01*
X262000D01*
Y211400D01*
X261800D01*
Y211000D01*
X262000D01*
X272600Y210800D02*
Y210400D01*
X273400D01*
Y210800D01*
X273800D01*
Y211600D01*
X273400D01*
Y212000D01*
X272600D01*
Y211600D01*
X272200D01*
Y210800D01*
X272600D01*
X272800Y211000D02*
Y210800D01*
X273200D01*
Y211000D01*
X273400D01*
Y211400D01*
X273200D01*
Y211600D01*
X272800D01*
Y211400D01*
X272600D01*
Y211000D01*
X272800D01*
X322000Y206534D02*
Y206134D01*
X322800D01*
Y206534D01*
X323200D01*
Y207334D01*
X322800D01*
Y207734D01*
X322000D01*
Y207334D01*
X321600D01*
Y206534D01*
X322000D01*
X322200Y206734D02*
Y206534D01*
X322600D01*
Y206734D01*
X322800D01*
Y207134D01*
X322600D01*
Y207334D01*
X322200D01*
Y207134D01*
X322000D01*
Y206734D01*
X322200D01*
X260700Y253400D02*
Y253000D01*
X261500D01*
Y253400D01*
X261900D01*
Y254200D01*
X261500D01*
Y254600D01*
X260700D01*
Y254200D01*
X260300D01*
Y253400D01*
X260700D01*
X260900Y253600D02*
Y253400D01*
X261300D01*
Y253600D01*
X261500D01*
Y254000D01*
X261300D01*
Y254200D01*
X260900D01*
Y254000D01*
X260700D01*
Y253600D01*
X260900D01*
X273800Y253400D02*
Y253000D01*
X274600D01*
Y253400D01*
X275000D01*
Y254200D01*
X274600D01*
Y254600D01*
X273800D01*
Y254200D01*
X273400D01*
Y253400D01*
X273800D01*
X274000Y253600D02*
Y253400D01*
X274400D01*
Y253600D01*
X274600D01*
Y254000D01*
X274400D01*
Y254200D01*
X274000D01*
Y254000D01*
X273800D01*
Y253600D01*
X274000D01*
X282200Y286353D02*
Y285953D01*
X283000D01*
Y286353D01*
X283400D01*
Y287153D01*
X283000D01*
Y287553D01*
X282200D01*
Y287153D01*
X281800D01*
Y286353D01*
X282200D01*
X282400Y286553D02*
Y286353D01*
X282800D01*
Y286553D01*
X283000D01*
Y286953D01*
X282800D01*
Y287153D01*
X282400D01*
Y286953D01*
X282200D01*
Y286553D01*
X282400D01*
X279500Y276000D02*
Y275600D01*
X280300D01*
Y276000D01*
X280700D01*
Y276800D01*
X280300D01*
Y277200D01*
X279500D01*
Y276800D01*
X279100D01*
Y276000D01*
X279500D01*
X279700Y276200D02*
Y276000D01*
X280100D01*
Y276200D01*
X280300D01*
Y276600D01*
X280100D01*
Y276800D01*
X279700D01*
Y276600D01*
X279500D01*
Y276200D01*
X279700D01*
X276300Y273000D02*
Y272600D01*
X277100D01*
Y273000D01*
X277500D01*
Y273800D01*
X277100D01*
Y274200D01*
X276300D01*
Y273800D01*
X275900D01*
Y273000D01*
X276300D01*
X276500Y273200D02*
Y273000D01*
X276900D01*
Y273200D01*
X277100D01*
Y273600D01*
X276900D01*
Y273800D01*
X276500D01*
Y273600D01*
X276300D01*
Y273200D01*
X276500D01*
X258000Y284384D02*
Y283984D01*
X258800D01*
Y284384D01*
X259200D01*
Y285184D01*
X258800D01*
Y285584D01*
X258000D01*
Y285184D01*
X257600D01*
Y284384D01*
X258000D01*
X258200Y284584D02*
Y284384D01*
X258600D01*
Y284584D01*
X258800D01*
Y284984D01*
X258600D01*
Y285184D01*
X258200D01*
Y284984D01*
X258000D01*
Y284584D01*
X258200D01*
X261100Y280400D02*
Y280000D01*
X261900D01*
Y280400D01*
X262300D01*
Y281200D01*
X261900D01*
Y281600D01*
X261100D01*
Y281200D01*
X260700D01*
Y280400D01*
X261100D01*
X261300Y280600D02*
Y280400D01*
X261700D01*
Y280600D01*
X261900D01*
Y281000D01*
X261700D01*
Y281200D01*
X261300D01*
Y281000D01*
X261100D01*
Y280600D01*
X261300D01*
X260700Y198500D02*
Y198100D01*
X261500D01*
Y198500D01*
X261900D01*
Y199300D01*
X261500D01*
Y199700D01*
X260700D01*
Y199300D01*
X260300D01*
Y198500D01*
X260700D01*
X260900Y198700D02*
Y198500D01*
X261300D01*
Y198700D01*
X261500D01*
Y199100D01*
X261300D01*
Y199300D01*
X260900D01*
Y199100D01*
X260700D01*
Y198700D01*
X260900D01*
X260700Y191100D02*
Y190700D01*
X261500D01*
Y191100D01*
X261900D01*
Y191900D01*
X261500D01*
Y192300D01*
X260700D01*
Y191900D01*
X260300D01*
Y191100D01*
X260700D01*
X260900Y191300D02*
Y191100D01*
X261300D01*
Y191300D01*
X261500D01*
Y191700D01*
X261300D01*
Y191900D01*
X260900D01*
Y191700D01*
X260700D01*
Y191300D01*
X260900D01*
X261900Y194800D02*
Y194400D01*
X262700D01*
Y194800D01*
X263100D01*
Y195600D01*
X262700D01*
Y196000D01*
X261900D01*
Y195600D01*
X261500D01*
Y194800D01*
X261900D01*
X262100Y195000D02*
Y194800D01*
X262500D01*
Y195000D01*
X262700D01*
Y195400D01*
X262500D01*
Y195600D01*
X262100D01*
Y195400D01*
X261900D01*
Y195000D01*
X262100D01*
X217100Y196400D02*
Y196000D01*
X217900D01*
Y196400D01*
X218300D01*
Y197200D01*
X217900D01*
Y197600D01*
X217100D01*
Y197200D01*
X216700D01*
Y196400D01*
X217100D01*
X217300Y196600D02*
Y196400D01*
X217700D01*
Y196600D01*
X217900D01*
Y197000D01*
X217700D01*
Y197200D01*
X217300D01*
Y197000D01*
X217100D01*
Y196600D01*
X217300D01*
X207300Y196400D02*
Y196000D01*
X208100D01*
Y196400D01*
X208500D01*
Y197200D01*
X208100D01*
Y197600D01*
X207300D01*
Y197200D01*
X206900D01*
Y196400D01*
X207300D01*
X207500Y196600D02*
Y196400D01*
X207900D01*
Y196600D01*
X208100D01*
Y197000D01*
X207900D01*
Y197200D01*
X207500D01*
Y197000D01*
X207300D01*
Y196600D01*
X207500D01*
X238000Y275400D02*
Y275000D01*
X238800D01*
Y275400D01*
X239200D01*
Y276200D01*
X238800D01*
Y276600D01*
X238000D01*
Y276200D01*
X237600D01*
Y275400D01*
X238000D01*
X238200Y275600D02*
Y275400D01*
X238600D01*
Y275600D01*
X238800D01*
Y276000D01*
X238600D01*
Y276200D01*
X238200D01*
Y276000D01*
X238000D01*
Y275600D01*
X238200D01*
X233000Y275400D02*
Y275000D01*
X233800D01*
Y275400D01*
X234200D01*
Y276200D01*
X233800D01*
Y276600D01*
X233000D01*
Y276200D01*
X232600D01*
Y275400D01*
X233000D01*
X233200Y275600D02*
Y275400D01*
X233600D01*
Y275600D01*
X233800D01*
Y276000D01*
X233600D01*
Y276200D01*
X233200D01*
Y276000D01*
X233000D01*
Y275600D01*
X233200D01*
X228000Y275400D02*
Y275000D01*
X228800D01*
Y275400D01*
X229200D01*
Y276200D01*
X228800D01*
Y276600D01*
X228000D01*
Y276200D01*
X227600D01*
Y275400D01*
X228000D01*
X228200Y275600D02*
Y275400D01*
X228600D01*
Y275600D01*
X228800D01*
Y276000D01*
X228600D01*
Y276200D01*
X228200D01*
Y276000D01*
X228000D01*
Y275600D01*
X228200D01*
X223000Y275400D02*
Y275000D01*
X223800D01*
Y275400D01*
X224200D01*
Y276200D01*
X223800D01*
Y276600D01*
X223000D01*
Y276200D01*
X222600D01*
Y275400D01*
X223000D01*
X223200Y275600D02*
Y275400D01*
X223600D01*
Y275600D01*
X223800D01*
Y276000D01*
X223600D01*
Y276200D01*
X223200D01*
Y276000D01*
X223000D01*
Y275600D01*
X223200D01*
X213376Y313660D02*
Y313260D01*
X214176D01*
Y313660D01*
X214576D01*
Y314460D01*
X214176D01*
Y314860D01*
X213376D01*
Y314460D01*
X212976D01*
Y313660D01*
X213376D01*
X213576Y313860D02*
Y313660D01*
X213976D01*
Y313860D01*
X214176D01*
Y314260D01*
X213976D01*
Y314460D01*
X213576D01*
Y314260D01*
X213376D01*
Y313860D01*
X213576D01*
X203700Y321300D02*
Y320900D01*
X204500D01*
Y321300D01*
X204900D01*
Y322100D01*
X204500D01*
Y322500D01*
X203700D01*
Y322100D01*
X203300D01*
Y321300D01*
X203700D01*
X203900Y321500D02*
Y321300D01*
X204300D01*
Y321500D01*
X204500D01*
Y321900D01*
X204300D01*
Y322100D01*
X203900D01*
Y321900D01*
X203700D01*
Y321500D01*
X203900D01*
X203700Y251500D02*
Y251100D01*
X204500D01*
Y251500D01*
X204900D01*
Y252300D01*
X204500D01*
Y252700D01*
X203700D01*
Y252300D01*
X203300D01*
Y251500D01*
X203700D01*
X203900Y251700D02*
Y251500D01*
X204300D01*
Y251700D01*
X204500D01*
Y252100D01*
X204300D01*
Y252300D01*
X203900D01*
Y252100D01*
X203700D01*
Y251700D01*
X203900D01*
X206300Y246200D02*
Y245800D01*
X207100D01*
Y246200D01*
X207500D01*
Y247000D01*
X207100D01*
Y247400D01*
X206300D01*
Y247000D01*
X205900D01*
Y246200D01*
X206300D01*
X206500Y246400D02*
Y246200D01*
X206900D01*
Y246400D01*
X207100D01*
Y246800D01*
X206900D01*
Y247000D01*
X206500D01*
Y246800D01*
X206300D01*
Y246400D01*
X206500D01*
X203500Y241400D02*
Y241000D01*
X204300D01*
Y241400D01*
X204700D01*
Y242200D01*
X204300D01*
Y242600D01*
X203500D01*
Y242200D01*
X203100D01*
Y241400D01*
X203500D01*
X203700Y241600D02*
Y241400D01*
X204100D01*
Y241600D01*
X204300D01*
Y242000D01*
X204100D01*
Y242200D01*
X203700D01*
Y242000D01*
X203500D01*
Y241600D01*
X203700D01*
X198200Y256100D02*
Y255700D01*
X199000D01*
Y256100D01*
X199400D01*
Y256900D01*
X199000D01*
Y257300D01*
X198200D01*
Y256900D01*
X197800D01*
Y256100D01*
X198200D01*
X198400Y256300D02*
Y256100D01*
X198800D01*
Y256300D01*
X199000D01*
Y256700D01*
X198800D01*
Y256900D01*
X198400D01*
Y256700D01*
X198200D01*
Y256300D01*
X198400D01*
X211700Y161500D02*
Y161100D01*
X212500D01*
Y161500D01*
X212900D01*
Y162300D01*
X212500D01*
Y162700D01*
X211700D01*
Y162300D01*
X211300D01*
Y161500D01*
X211700D01*
X211900Y161700D02*
Y161500D01*
X212300D01*
Y161700D01*
X212500D01*
Y162100D01*
X212300D01*
Y162300D01*
X211900D01*
Y162100D01*
X211700D01*
Y161700D01*
X211900D01*
X211700Y165200D02*
Y164800D01*
X212500D01*
Y165200D01*
X212900D01*
Y166000D01*
X212500D01*
Y166400D01*
X211700D01*
Y166000D01*
X211300D01*
Y165200D01*
X211700D01*
X211900Y165400D02*
Y165200D01*
X212300D01*
Y165400D01*
X212500D01*
Y165800D01*
X212300D01*
Y166000D01*
X211900D01*
Y165800D01*
X211700D01*
Y165400D01*
X211900D01*
X211700Y168900D02*
Y168500D01*
X212500D01*
Y168900D01*
X212900D01*
Y169700D01*
X212500D01*
Y170100D01*
X211700D01*
Y169700D01*
X211300D01*
Y168900D01*
X211700D01*
X211900Y169100D02*
Y168900D01*
X212300D01*
Y169100D01*
X212500D01*
Y169500D01*
X212300D01*
Y169700D01*
X211900D01*
Y169500D01*
X211700D01*
Y169100D01*
X211900D01*
X154300Y122000D02*
Y121600D01*
X155100D01*
Y122000D01*
X155500D01*
Y122800D01*
X155100D01*
Y123200D01*
X154300D01*
Y122800D01*
X153900D01*
Y122000D01*
X154300D01*
X154500Y122200D02*
Y122000D01*
X154900D01*
Y122200D01*
X155100D01*
Y122600D01*
X154900D01*
Y122800D01*
X154500D01*
Y122600D01*
X154300D01*
Y122200D01*
X154500D01*
X151700Y118500D02*
Y118100D01*
X152500D01*
Y118500D01*
X152900D01*
Y119300D01*
X152500D01*
Y119700D01*
X151700D01*
Y119300D01*
X151300D01*
Y118500D01*
X151700D01*
X151900Y118700D02*
Y118500D01*
X152300D01*
Y118700D01*
X152500D01*
Y119100D01*
X152300D01*
Y119300D01*
X151900D01*
Y119100D01*
X151700D01*
Y118700D01*
X151900D01*
X149100Y115100D02*
Y114700D01*
X149900D01*
Y115100D01*
X150300D01*
Y115900D01*
X149900D01*
Y116300D01*
X149100D01*
Y115900D01*
X148700D01*
Y115100D01*
X149100D01*
X149300Y115300D02*
Y115100D01*
X149700D01*
Y115300D01*
X149900D01*
Y115700D01*
X149700D01*
Y115900D01*
X149300D01*
Y115700D01*
X149100D01*
Y115300D01*
X149300D01*
X203200Y139400D02*
Y139000D01*
X204000D01*
Y139400D01*
X204400D01*
Y140200D01*
X204000D01*
Y140600D01*
X203200D01*
Y140200D01*
X202800D01*
Y139400D01*
X203200D01*
X203400Y139600D02*
Y139400D01*
X203800D01*
Y139600D01*
X204000D01*
Y140000D01*
X203800D01*
Y140200D01*
X203400D01*
Y140000D01*
X203200D01*
Y139600D01*
X203400D01*
X193200Y139400D02*
Y139000D01*
X194000D01*
Y139400D01*
X194400D01*
Y140200D01*
X194000D01*
Y140600D01*
X193200D01*
Y140200D01*
X192800D01*
Y139400D01*
X193200D01*
X193400Y139600D02*
Y139400D01*
X193800D01*
Y139600D01*
X194000D01*
Y140000D01*
X193800D01*
Y140200D01*
X193400D01*
Y140000D01*
X193200D01*
Y139600D01*
X193400D01*
X197300Y139400D02*
Y139000D01*
X198100D01*
Y139400D01*
X198500D01*
Y140200D01*
X198100D01*
Y140600D01*
X197300D01*
Y140200D01*
X196900D01*
Y139400D01*
X197300D01*
X197500Y139600D02*
Y139400D01*
X197900D01*
Y139600D01*
X198100D01*
Y140000D01*
X197900D01*
Y140200D01*
X197500D01*
Y140000D01*
X197300D01*
Y139600D01*
X197500D01*
X197375Y111200D02*
Y110800D01*
X198175D01*
Y111200D01*
X198575D01*
Y112000D01*
X198175D01*
Y112400D01*
X197375D01*
Y112000D01*
X196975D01*
Y111200D01*
X197375D01*
X197575Y111400D02*
Y111200D01*
X197975D01*
Y111400D01*
X198175D01*
Y111800D01*
X197975D01*
Y112000D01*
X197575D01*
Y111800D01*
X197375D01*
Y111400D01*
X197575D01*
X200100Y104500D02*
Y104100D01*
X200900D01*
Y104500D01*
X201300D01*
Y105300D01*
X200900D01*
Y105700D01*
X200100D01*
Y105300D01*
X199700D01*
Y104500D01*
X200100D01*
X200300Y104700D02*
Y104500D01*
X200700D01*
Y104700D01*
X200900D01*
Y105100D01*
X200700D01*
Y105300D01*
X200300D01*
Y105100D01*
X200100D01*
Y104700D01*
X200300D01*
X270000Y108000D02*
Y107600D01*
X270800D01*
Y108000D01*
X271200D01*
Y108800D01*
X270800D01*
Y109200D01*
X270000D01*
Y108800D01*
X269600D01*
Y108000D01*
X270000D01*
X270200Y108200D02*
Y108000D01*
X270600D01*
Y108200D01*
X270800D01*
Y108600D01*
X270600D01*
Y108800D01*
X270200D01*
Y108600D01*
X270000D01*
Y108200D01*
X270200D01*
X287119Y108000D02*
Y107600D01*
X287919D01*
Y108000D01*
X288319D01*
Y108800D01*
X287919D01*
Y109200D01*
X287119D01*
Y108800D01*
X286719D01*
Y108000D01*
X287119D01*
X287319Y108200D02*
Y108000D01*
X287719D01*
Y108200D01*
X287919D01*
Y108600D01*
X287719D01*
Y108800D01*
X287319D01*
Y108600D01*
X287119D01*
Y108200D01*
X287319D01*
X264258Y108000D02*
Y107600D01*
X265058D01*
Y108000D01*
X265458D01*
Y108800D01*
X265058D01*
Y109200D01*
X264258D01*
Y108800D01*
X263858D01*
Y108000D01*
X264258D01*
X264458Y108200D02*
Y108000D01*
X264858D01*
Y108200D01*
X265058D01*
Y108600D01*
X264858D01*
Y108800D01*
X264458D01*
Y108600D01*
X264258D01*
Y108200D01*
X264458D01*
X255978Y108000D02*
Y107600D01*
X256778D01*
Y108000D01*
X257177D01*
Y108800D01*
X256778D01*
Y109200D01*
X255978D01*
Y108800D01*
X255577D01*
Y108000D01*
X255978D01*
X256177Y108200D02*
Y108000D01*
X256577D01*
Y108200D01*
X256778D01*
Y108600D01*
X256577D01*
Y108800D01*
X256177D01*
Y108600D01*
X255978D01*
Y108200D01*
X256177D01*
X247500Y108000D02*
Y107600D01*
X248300D01*
Y108000D01*
X248700D01*
Y108800D01*
X248300D01*
Y109200D01*
X247500D01*
Y108800D01*
X247100D01*
Y108000D01*
X247500D01*
X247700Y108200D02*
Y108000D01*
X248100D01*
Y108200D01*
X248300D01*
Y108600D01*
X248100D01*
Y108800D01*
X247700D01*
Y108600D01*
X247500D01*
Y108200D01*
X247700D01*
X278839Y108000D02*
Y107600D01*
X279639D01*
Y108000D01*
X280039D01*
Y108800D01*
X279639D01*
Y109200D01*
X278839D01*
Y108800D01*
X278439D01*
Y108000D01*
X278839D01*
X279039Y108200D02*
Y108000D01*
X279439D01*
Y108200D01*
X279639D01*
Y108600D01*
X279439D01*
Y108800D01*
X279039D01*
Y108600D01*
X278839D01*
Y108200D01*
X279039D01*
X221700Y215000D02*
Y214600D01*
X222500D01*
Y215000D01*
X222900D01*
Y215800D01*
X222500D01*
Y216200D01*
X221700D01*
Y215800D01*
X221300D01*
Y215000D01*
X221700D01*
X221900Y215200D02*
Y215000D01*
X222300D01*
Y215200D01*
X222500D01*
Y215600D01*
X222300D01*
Y215800D01*
X221900D01*
Y215600D01*
X221700D01*
Y215200D01*
X221900D01*
X167800Y217100D02*
Y216700D01*
X168600D01*
Y217100D01*
X169000D01*
Y217900D01*
X168600D01*
Y218300D01*
X167800D01*
Y217900D01*
X167400D01*
Y217100D01*
X167800D01*
X168000Y217300D02*
Y217100D01*
X168400D01*
Y217300D01*
X168600D01*
Y217700D01*
X168400D01*
Y217900D01*
X168000D01*
Y217700D01*
X167800D01*
Y217300D01*
X168000D01*
X187900Y139400D02*
Y139000D01*
X188700D01*
Y139400D01*
X189100D01*
Y140200D01*
X188700D01*
Y140600D01*
X187900D01*
Y140200D01*
X187500D01*
Y139400D01*
X187900D01*
X188100Y139600D02*
Y139400D01*
X188500D01*
Y139600D01*
X188700D01*
Y140000D01*
X188500D01*
Y140200D01*
X188100D01*
Y140000D01*
X187900D01*
Y139600D01*
X188100D01*
X148000Y129300D02*
Y128900D01*
X148800D01*
Y129300D01*
X149200D01*
Y130100D01*
X148800D01*
Y130500D01*
X148000D01*
Y130100D01*
X147600D01*
Y129300D01*
X148000D01*
X148200Y129500D02*
Y129300D01*
X148600D01*
Y129500D01*
X148800D01*
Y129900D01*
X148600D01*
Y130100D01*
X148200D01*
Y129900D01*
X148000D01*
Y129500D01*
X148200D01*
X211700Y156900D02*
Y156500D01*
X212500D01*
Y156900D01*
X212900D01*
Y157700D01*
X212500D01*
Y158100D01*
X211700D01*
Y157700D01*
X211300D01*
Y156900D01*
X211700D01*
X211900Y157100D02*
Y156900D01*
X212300D01*
Y157100D01*
X212500D01*
Y157500D01*
X212300D01*
Y157700D01*
X211900D01*
Y157500D01*
X211700D01*
Y157100D01*
X211900D01*
X211700Y153200D02*
Y152800D01*
X212500D01*
Y153200D01*
X212900D01*
Y154000D01*
X212500D01*
Y154400D01*
X211700D01*
Y154000D01*
X211300D01*
Y153200D01*
X211700D01*
X211900Y153400D02*
Y153200D01*
X212300D01*
Y153400D01*
X212500D01*
Y153800D01*
X212300D01*
Y154000D01*
X211900D01*
Y153800D01*
X211700D01*
Y153400D01*
X211900D01*
X189600Y187600D02*
Y187200D01*
X190400D01*
Y187600D01*
X190800D01*
Y188400D01*
X190400D01*
Y188800D01*
X189600D01*
Y188400D01*
X189200D01*
Y187600D01*
X189600D01*
X189800Y187800D02*
Y187600D01*
X190200D01*
Y187800D01*
X190400D01*
Y188200D01*
X190200D01*
Y188400D01*
X189800D01*
Y188200D01*
X189600D01*
Y187800D01*
X189800D01*
X196400Y174600D02*
Y174200D01*
X197200D01*
Y174600D01*
X197600D01*
Y175400D01*
X197200D01*
Y175800D01*
X196400D01*
Y175400D01*
X196000D01*
Y174600D01*
X196400D01*
X196600Y174800D02*
Y174600D01*
X197000D01*
Y174800D01*
X197200D01*
Y175200D01*
X197000D01*
Y175400D01*
X196600D01*
Y175200D01*
X196400D01*
Y174800D01*
X196600D01*
X221700Y207000D02*
Y206600D01*
X222500D01*
Y207000D01*
X222900D01*
Y207800D01*
X222500D01*
Y208200D01*
X221700D01*
Y207800D01*
X221300D01*
Y207000D01*
X221700D01*
X221900Y207200D02*
Y207000D01*
X222300D01*
Y207200D01*
X222500D01*
Y207600D01*
X222300D01*
Y207800D01*
X221900D01*
Y207600D01*
X221700D01*
Y207200D01*
X221900D01*
X192747Y194600D02*
Y194200D01*
X193547D01*
Y194600D01*
X193947D01*
Y195400D01*
X193547D01*
Y195800D01*
X192747D01*
Y195400D01*
X192347D01*
Y194600D01*
X192747D01*
X192947Y194800D02*
Y194600D01*
X193347D01*
Y194800D01*
X193547D01*
Y195200D01*
X193347D01*
Y195400D01*
X192947D01*
Y195200D01*
X192747D01*
Y194800D01*
X192947D01*
X131000Y98500D02*
Y98100D01*
X131800D01*
Y98500D01*
X132200D01*
Y99300D01*
X131800D01*
Y99700D01*
X131000D01*
Y99300D01*
X130600D01*
Y98500D01*
X131000D01*
X131200Y98700D02*
Y98500D01*
X131600D01*
Y98700D01*
X131800D01*
Y99100D01*
X131600D01*
Y99300D01*
X131200D01*
Y99100D01*
X131000D01*
Y98700D01*
X131200D01*
X189100Y162300D02*
Y161900D01*
X189900D01*
Y162300D01*
X190300D01*
Y163100D01*
X189900D01*
Y163500D01*
X189100D01*
Y163100D01*
X188700D01*
Y162300D01*
X189100D01*
X189300Y162500D02*
Y162300D01*
X189700D01*
Y162500D01*
X189900D01*
Y162900D01*
X189700D01*
Y163100D01*
X189300D01*
Y162900D01*
X189100D01*
Y162500D01*
X189300D01*
X186850Y157800D02*
Y157400D01*
X187650D01*
Y157800D01*
X188050D01*
Y158600D01*
X187650D01*
Y159000D01*
X186850D01*
Y158600D01*
X186450D01*
Y157800D01*
X186850D01*
X187050Y158000D02*
Y157800D01*
X187450D01*
Y158000D01*
X187650D01*
Y158400D01*
X187450D01*
Y158600D01*
X187050D01*
Y158400D01*
X186850D01*
Y158000D01*
X187050D01*
X180600Y149500D02*
Y149100D01*
X181400D01*
Y149500D01*
X181800D01*
Y150300D01*
X181400D01*
Y150700D01*
X180600D01*
Y150300D01*
X180200D01*
Y149500D01*
X180600D01*
X180800Y149700D02*
Y149500D01*
X181200D01*
Y149700D01*
X181400D01*
Y150100D01*
X181200D01*
Y150300D01*
X180800D01*
Y150100D01*
X180600D01*
Y149700D01*
X180800D01*
X184600Y153300D02*
Y152900D01*
X185400D01*
Y153300D01*
X185800D01*
Y154100D01*
X185400D01*
Y154500D01*
X184600D01*
Y154100D01*
X184200D01*
Y153300D01*
X184600D01*
X184800Y153500D02*
Y153300D01*
X185200D01*
Y153500D01*
X185400D01*
Y153900D01*
X185200D01*
Y154100D01*
X184800D01*
Y153900D01*
X184600D01*
Y153500D01*
X184800D01*
X181800Y202800D02*
Y202400D01*
X182600D01*
Y202800D01*
X183000D01*
Y203600D01*
X182600D01*
Y204000D01*
X181800D01*
Y203600D01*
X181400D01*
Y202800D01*
X181800D01*
X182000Y203000D02*
Y202800D01*
X182400D01*
Y203000D01*
X182600D01*
Y203400D01*
X182400D01*
Y203600D01*
X182000D01*
Y203400D01*
X181800D01*
Y203000D01*
X182000D01*
X191350Y166800D02*
Y166400D01*
X192150D01*
Y166800D01*
X192550D01*
Y167600D01*
X192150D01*
Y168000D01*
X191350D01*
Y167600D01*
X190950D01*
Y166800D01*
X191350D01*
X191550Y167000D02*
Y166800D01*
X191950D01*
Y167000D01*
X192150D01*
Y167400D01*
X191950D01*
Y167600D01*
X191550D01*
Y167400D01*
X191350D01*
Y167000D01*
X191550D01*
X180600Y153400D02*
Y153000D01*
X181400D01*
Y153400D01*
X181800D01*
Y154200D01*
X181400D01*
Y154600D01*
X180600D01*
Y154200D01*
X180200D01*
Y153400D01*
X180600D01*
X180800Y153600D02*
Y153400D01*
X181200D01*
Y153600D01*
X181400D01*
Y154000D01*
X181200D01*
Y154200D01*
X180800D01*
Y154000D01*
X180600D01*
Y153600D01*
X180800D01*
X180600Y157200D02*
Y156800D01*
X181400D01*
Y157200D01*
X181800D01*
Y158000D01*
X181400D01*
Y158400D01*
X180600D01*
Y158000D01*
X180200D01*
Y157200D01*
X180600D01*
X180800Y157400D02*
Y157200D01*
X181200D01*
Y157400D01*
X181400D01*
Y157800D01*
X181200D01*
Y158000D01*
X180800D01*
Y157800D01*
X180600D01*
Y157400D01*
X180800D01*
X182350Y166800D02*
Y166400D01*
X183150D01*
Y166800D01*
X183550D01*
Y167600D01*
X183150D01*
Y168000D01*
X182350D01*
Y167600D01*
X181950D01*
Y166800D01*
X182350D01*
X182550Y167000D02*
Y166800D01*
X182950D01*
Y167000D01*
X183150D01*
Y167400D01*
X182950D01*
Y167600D01*
X182550D01*
Y167400D01*
X182350D01*
Y167000D01*
X182550D01*
X184600Y162300D02*
Y161900D01*
X185400D01*
Y162300D01*
X185800D01*
Y163100D01*
X185400D01*
Y163500D01*
X184600D01*
Y163100D01*
X184200D01*
Y162300D01*
X184600D01*
X184800Y162500D02*
Y162300D01*
X185200D01*
Y162500D01*
X185400D01*
Y162900D01*
X185200D01*
Y163100D01*
X184800D01*
Y162900D01*
X184600D01*
Y162500D01*
X184800D01*
X150700Y182800D02*
Y182400D01*
X151500D01*
Y182800D01*
X151900D01*
Y183600D01*
X151500D01*
Y184000D01*
X150700D01*
Y183600D01*
X150300D01*
Y182800D01*
X150700D01*
X150900Y183000D02*
Y182800D01*
X151300D01*
Y183000D01*
X151500D01*
Y183400D01*
X151300D01*
Y183600D01*
X150900D01*
Y183400D01*
X150700D01*
Y183000D01*
X150900D01*
X147300Y185300D02*
Y184900D01*
X148100D01*
Y185300D01*
X148500D01*
Y186100D01*
X148100D01*
Y186500D01*
X147300D01*
Y186100D01*
X146900D01*
Y185300D01*
X147300D01*
X147500Y185500D02*
Y185300D01*
X147900D01*
Y185500D01*
X148100D01*
Y185900D01*
X147900D01*
Y186100D01*
X147500D01*
Y185900D01*
X147300D01*
Y185500D01*
X147500D01*
X174600Y188100D02*
Y187700D01*
X175400D01*
Y188100D01*
X175800D01*
Y188900D01*
X175400D01*
Y189300D01*
X174600D01*
Y188900D01*
X174200D01*
Y188100D01*
X174600D01*
X174800Y188300D02*
Y188100D01*
X175200D01*
Y188300D01*
X175400D01*
Y188700D01*
X175200D01*
Y188900D01*
X174800D01*
Y188700D01*
X174600D01*
Y188300D01*
X174800D01*
X172100Y190900D02*
Y190500D01*
X172900D01*
Y190900D01*
X173300D01*
Y191700D01*
X172900D01*
Y192100D01*
X172100D01*
Y191700D01*
X171700D01*
Y190900D01*
X172100D01*
X172300Y191100D02*
Y190900D01*
X172700D01*
Y191100D01*
X172900D01*
Y191500D01*
X172700D01*
Y191700D01*
X172300D01*
Y191500D01*
X172100D01*
Y191100D01*
X172300D01*
X172100Y185100D02*
Y184700D01*
X172900D01*
Y185100D01*
X173300D01*
Y185900D01*
X172900D01*
Y186300D01*
X172100D01*
Y185900D01*
X171700D01*
Y185100D01*
X172100D01*
X172300Y185300D02*
Y185100D01*
X172700D01*
Y185300D01*
X172900D01*
Y185700D01*
X172700D01*
Y185900D01*
X172300D01*
Y185700D01*
X172100D01*
Y185300D01*
X172300D01*
X231200Y150000D02*
Y149600D01*
X232000D01*
Y150000D01*
X232400D01*
Y150800D01*
X232000D01*
Y151200D01*
X231200D01*
Y150800D01*
X230800D01*
Y150000D01*
X231200D01*
X231400Y150200D02*
Y150000D01*
X231800D01*
Y150200D01*
X232000D01*
Y150600D01*
X231800D01*
Y150800D01*
X231400D01*
Y150600D01*
X231200D01*
Y150200D01*
X231400D01*
X228046Y152079D02*
Y151679D01*
X228847D01*
Y152079D01*
X229246D01*
Y152879D01*
X228847D01*
Y153279D01*
X228046D01*
Y152879D01*
X227646D01*
Y152079D01*
X228046D01*
X228246Y152279D02*
Y152079D01*
X228646D01*
Y152279D01*
X228847D01*
Y152679D01*
X228646D01*
Y152879D01*
X228246D01*
Y152679D01*
X228046D01*
Y152279D01*
X228246D01*
X221700Y200000D02*
Y199600D01*
X222500D01*
Y200000D01*
X222900D01*
Y200800D01*
X222500D01*
Y201200D01*
X221700D01*
Y200800D01*
X221300D01*
Y200000D01*
X221700D01*
X221900Y200200D02*
Y200000D01*
X222300D01*
Y200200D01*
X222500D01*
Y200600D01*
X222300D01*
Y200800D01*
X221900D01*
Y200600D01*
X221700D01*
Y200200D01*
X221900D01*
X225400Y154600D02*
Y154200D01*
X226200D01*
Y154600D01*
X226600D01*
Y155400D01*
X226200D01*
Y155800D01*
X225400D01*
Y155400D01*
X225000D01*
Y154600D01*
X225400D01*
X225600Y154800D02*
Y154600D01*
X226000D01*
Y154800D01*
X226200D01*
Y155200D01*
X226000D01*
Y155400D01*
X225600D01*
Y155200D01*
X225400D01*
Y154800D01*
X225600D01*
X208500Y141100D02*
Y140700D01*
X209300D01*
Y141100D01*
X209700D01*
Y141900D01*
X209300D01*
Y142300D01*
X208500D01*
Y141900D01*
X208100D01*
Y141100D01*
X208500D01*
X208700Y141300D02*
Y141100D01*
X209100D01*
Y141300D01*
X209300D01*
Y141700D01*
X209100D01*
Y141900D01*
X208700D01*
Y141700D01*
X208500D01*
Y141300D01*
X208700D01*
X181000Y140000D02*
Y139600D01*
X181800D01*
Y140000D01*
X182200D01*
Y140800D01*
X181800D01*
Y141200D01*
X181000D01*
Y140800D01*
X180600D01*
Y140000D01*
X181000D01*
X181200Y140200D02*
Y140000D01*
X181600D01*
Y140200D01*
X181800D01*
Y140600D01*
X181600D01*
Y140800D01*
X181200D01*
Y140600D01*
X181000D01*
Y140200D01*
X181200D01*
X202600Y118200D02*
Y117800D01*
X203400D01*
Y118200D01*
X203800D01*
Y119000D01*
X203400D01*
Y119400D01*
X202600D01*
Y119000D01*
X202200D01*
Y118200D01*
X202600D01*
X202800Y118400D02*
Y118200D01*
X203200D01*
Y118400D01*
X203400D01*
Y118800D01*
X203200D01*
Y119000D01*
X202800D01*
Y118800D01*
X202600D01*
Y118400D01*
X202800D01*
X201200Y127500D02*
Y127100D01*
X202000D01*
Y127500D01*
X202400D01*
Y128300D01*
X202000D01*
Y128700D01*
X201200D01*
Y128300D01*
X200800D01*
Y127500D01*
X201200D01*
X201400Y127700D02*
Y127500D01*
X201800D01*
Y127700D01*
X202000D01*
Y128100D01*
X201800D01*
Y128300D01*
X201400D01*
Y128100D01*
X201200D01*
Y127700D01*
X201400D01*
X191125Y114600D02*
Y114200D01*
X191925D01*
Y114600D01*
X192325D01*
Y115400D01*
X191925D01*
Y115800D01*
X191125D01*
Y115400D01*
X190725D01*
Y114600D01*
X191125D01*
X191325Y114800D02*
Y114600D01*
X191725D01*
Y114800D01*
X191925D01*
Y115200D01*
X191725D01*
Y115400D01*
X191325D01*
Y115200D01*
X191125D01*
Y114800D01*
X191325D01*
X169400Y118600D02*
Y118200D01*
X170200D01*
Y118600D01*
X170600D01*
Y119400D01*
X170200D01*
Y119800D01*
X169400D01*
Y119400D01*
X169000D01*
Y118600D01*
X169400D01*
X169600Y118800D02*
Y118600D01*
X170000D01*
Y118800D01*
X170200D01*
Y119200D01*
X170000D01*
Y119400D01*
X169600D01*
Y119200D01*
X169400D01*
Y118800D01*
X169600D01*
X194800Y117600D02*
Y117200D01*
X195600D01*
Y117600D01*
X196000D01*
Y118400D01*
X195600D01*
Y118800D01*
X194800D01*
Y118400D01*
X194400D01*
Y117600D01*
X194800D01*
X195000Y117800D02*
Y117600D01*
X195400D01*
Y117800D01*
X195600D01*
Y118200D01*
X195400D01*
Y118400D01*
X195000D01*
Y118200D01*
X194800D01*
Y117800D01*
X195000D01*
X184000Y172600D02*
Y172200D01*
X184800D01*
Y172600D01*
X185200D01*
Y173400D01*
X184800D01*
Y173800D01*
X184000D01*
Y173400D01*
X183600D01*
Y172600D01*
X184000D01*
X184200Y172800D02*
Y172600D01*
X184600D01*
Y172800D01*
X184800D01*
Y173200D01*
X184600D01*
Y173400D01*
X184200D01*
Y173200D01*
X184000D01*
Y172800D01*
X184200D01*
X179300Y164400D02*
Y164000D01*
X180100D01*
Y164400D01*
X180500D01*
Y165200D01*
X180100D01*
Y165600D01*
X179300D01*
Y165200D01*
X178900D01*
Y164400D01*
X179300D01*
X179500Y164600D02*
Y164400D01*
X179900D01*
Y164600D01*
X180100D01*
Y165000D01*
X179900D01*
Y165200D01*
X179500D01*
Y165000D01*
X179300D01*
Y164600D01*
X179500D01*
X180600Y160900D02*
Y160500D01*
X181400D01*
Y160900D01*
X181800D01*
Y161700D01*
X181400D01*
Y162100D01*
X180600D01*
Y161700D01*
X180200D01*
Y160900D01*
X180600D01*
X180800Y161100D02*
Y160900D01*
X181200D01*
Y161100D01*
X181400D01*
Y161500D01*
X181200D01*
Y161700D01*
X180800D01*
Y161500D01*
X180600D01*
Y161100D01*
X180800D01*
X153600Y142500D02*
Y142100D01*
X154400D01*
Y142500D01*
X154800D01*
Y143300D01*
X154400D01*
Y143700D01*
X153600D01*
Y143300D01*
X153200D01*
Y142500D01*
X153600D01*
X153800Y142700D02*
Y142500D01*
X154200D01*
Y142700D01*
X154400D01*
Y143100D01*
X154200D01*
Y143300D01*
X153800D01*
Y143100D01*
X153600D01*
Y142700D01*
X153800D01*
X94500Y143000D02*
Y142600D01*
X95300D01*
Y143000D01*
X95700D01*
Y143800D01*
X95300D01*
Y144200D01*
X94500D01*
Y143800D01*
X94100D01*
Y143000D01*
X94500D01*
X94700Y143200D02*
Y143000D01*
X95100D01*
Y143200D01*
X95300D01*
Y143600D01*
X95100D01*
Y143800D01*
X94700D01*
Y143600D01*
X94500D01*
Y143200D01*
X94700D01*
X188400Y172000D02*
Y171600D01*
X189200D01*
Y172000D01*
X189600D01*
Y172800D01*
X189200D01*
Y173200D01*
X188400D01*
Y172800D01*
X188000D01*
Y172000D01*
X188400D01*
X188600Y172200D02*
Y172000D01*
X189000D01*
Y172200D01*
X189200D01*
Y172600D01*
X189000D01*
Y172800D01*
X188600D01*
Y172600D01*
X188400D01*
Y172200D01*
X188600D01*
X186850Y166800D02*
Y166400D01*
X187650D01*
Y166800D01*
X188050D01*
Y167600D01*
X187650D01*
Y168000D01*
X186850D01*
Y167600D01*
X186450D01*
Y166800D01*
X186850D01*
X187050Y167000D02*
Y166800D01*
X187450D01*
Y167000D01*
X187650D01*
Y167400D01*
X187450D01*
Y167600D01*
X187050D01*
Y167400D01*
X186850D01*
Y167000D01*
X187050D01*
X191000Y174600D02*
Y174200D01*
X191800D01*
Y174600D01*
X192200D01*
Y175400D01*
X191800D01*
Y175800D01*
X191000D01*
Y175400D01*
X190600D01*
Y174600D01*
X191000D01*
X191200Y174800D02*
Y174600D01*
X191600D01*
Y174800D01*
X191800D01*
Y175200D01*
X191600D01*
Y175400D01*
X191200D01*
Y175200D01*
X191000D01*
Y174800D01*
X191200D01*
X83000Y289994D02*
Y289594D01*
X83800D01*
Y289994D01*
X84200D01*
Y290794D01*
X83800D01*
Y291194D01*
X83000D01*
Y290794D01*
X82600D01*
Y289994D01*
X83000D01*
X83200Y290194D02*
Y289994D01*
X83600D01*
Y290194D01*
X83800D01*
Y290594D01*
X83600D01*
Y290794D01*
X83200D01*
Y290594D01*
X83000D01*
Y290194D01*
X83200D01*
X86800Y281342D02*
Y280942D01*
X87600D01*
Y281342D01*
X88000D01*
Y282141D01*
X87600D01*
Y282541D01*
X86800D01*
Y282141D01*
X86400D01*
Y281342D01*
X86800D01*
X87000Y281541D02*
Y281342D01*
X87400D01*
Y281541D01*
X87600D01*
Y281942D01*
X87400D01*
Y282141D01*
X87000D01*
Y281942D01*
X86800D01*
Y281541D01*
X87000D01*
X151566Y281342D02*
Y280942D01*
X152366D01*
Y281342D01*
X152766D01*
Y282141D01*
X152366D01*
Y282541D01*
X151566D01*
Y282141D01*
X151166D01*
Y281342D01*
X151566D01*
X151766Y281541D02*
Y281342D01*
X152166D01*
Y281541D01*
X152366D01*
Y281942D01*
X152166D01*
Y282141D01*
X151766D01*
Y281942D01*
X151566D01*
Y281541D01*
X151766D01*
X147766Y289994D02*
Y289594D01*
X148566D01*
Y289994D01*
X148966D01*
Y290794D01*
X148566D01*
Y291194D01*
X147766D01*
Y290794D01*
X147366D01*
Y289994D01*
X147766D01*
X147966Y290194D02*
Y289994D01*
X148366D01*
Y290194D01*
X148566D01*
Y290594D01*
X148366D01*
Y290794D01*
X147966D01*
Y290594D01*
X147766D01*
Y290194D01*
X147966D01*
X272400Y283400D02*
Y283000D01*
X273200D01*
Y283400D01*
X273600D01*
Y284200D01*
X273200D01*
Y284600D01*
X272400D01*
Y284200D01*
X272000D01*
Y283400D01*
X272400D01*
X272600Y283600D02*
Y283400D01*
X273000D01*
Y283600D01*
X273200D01*
Y284000D01*
X273000D01*
Y284200D01*
X272600D01*
Y284000D01*
X272400D01*
Y283600D01*
X272600D01*
X265200Y295600D02*
Y295200D01*
X266000D01*
Y295600D01*
X266400D01*
Y296400D01*
X266000D01*
Y296800D01*
X265200D01*
Y296400D01*
X264800D01*
Y295600D01*
X265200D01*
X265400Y295800D02*
Y295600D01*
X265800D01*
Y295800D01*
X266000D01*
Y296200D01*
X265800D01*
Y296400D01*
X265400D01*
Y296200D01*
X265200D01*
Y295800D01*
X265400D01*
X283100Y295600D02*
Y295200D01*
X283900D01*
Y295600D01*
X284300D01*
Y296400D01*
X283900D01*
Y296800D01*
X283100D01*
Y296400D01*
X282700D01*
Y295600D01*
X283100D01*
X283300Y295800D02*
Y295600D01*
X283700D01*
Y295800D01*
X283900D01*
Y296200D01*
X283700D01*
Y296400D01*
X283300D01*
Y296200D01*
X283100D01*
Y295800D01*
X283300D01*
X274150Y300800D02*
Y300400D01*
X274950D01*
Y300800D01*
X275350D01*
Y301600D01*
X274950D01*
Y302000D01*
X274150D01*
Y301600D01*
X273750D01*
Y300800D01*
X274150D01*
X274350Y301000D02*
Y300800D01*
X274750D01*
Y301000D01*
X274950D01*
Y301400D01*
X274750D01*
Y301600D01*
X274350D01*
Y301400D01*
X274150D01*
Y301000D01*
X274350D01*
X31000Y97300D02*
Y96900D01*
X31800D01*
Y97300D01*
X32200D01*
Y98100D01*
X31800D01*
Y98500D01*
X31000D01*
Y98100D01*
X30600D01*
Y97300D01*
X31000D01*
X31200Y97500D02*
Y97300D01*
X31600D01*
Y97500D01*
X31800D01*
Y97900D01*
X31600D01*
Y98100D01*
X31200D01*
Y97900D01*
X31000D01*
Y97500D01*
X31200D01*
D122*
X362081Y125000D02*
G03*
X362081Y125000I-800J0D01*
G01*
Y265000D02*
G03*
X362081Y265000I-800J0D01*
G01*
X10800Y369841D02*
G03*
X10800Y369841I-800J0D01*
G01*
Y10000D02*
G03*
X10800Y10000I-800J0D01*
G01*
X361697Y327575D02*
G03*
X361697Y327575I-800J0D01*
G01*
X351697D02*
G03*
X351697Y327575I-800J0D01*
G01*
X341697D02*
G03*
X341697Y327575I-800J0D01*
G01*
X331697D02*
G03*
X331697Y327575I-800J0D01*
G01*
X361697Y297575D02*
G03*
X361697Y297575I-800J0D01*
G01*
X351697D02*
G03*
X351697Y297575I-800J0D01*
G01*
X341697D02*
G03*
X341697Y297575I-800J0D01*
G01*
X331697D02*
G03*
X331697Y297575I-800J0D01*
G01*
D123*
X361297Y327575D02*
G03*
X361297Y327575I-400J0D01*
G01*
X351297D02*
G03*
X351297Y327575I-400J0D01*
G01*
X341297D02*
G03*
X341297Y327575I-400J0D01*
G01*
X331297D02*
G03*
X331297Y327575I-400J0D01*
G01*
X361297Y297575D02*
G03*
X361297Y297575I-400J0D01*
G01*
X351297D02*
G03*
X351297Y297575I-400J0D01*
G01*
X341297D02*
G03*
X341297Y297575I-400J0D01*
G01*
X331297D02*
G03*
X331297Y297575I-400J0D01*
G01*
M02*
