G04 Layer_Physical_Order=1*
G04 Layer_Color=255*
%FSLAX25Y25*%
%MOIN*%
G70*
G01*
G75*
%ADD10R,0.05709X0.04528*%
%ADD11R,0.04016X0.05787*%
%ADD12R,0.05787X0.04016*%
%ADD13R,0.03600X0.05700*%
%ADD14R,0.06299X0.05000*%
%ADD15R,0.04724X0.02100*%
%ADD16R,0.01181X0.03347*%
%ADD17R,0.03347X0.01181*%
%ADD18R,0.04921X0.04921*%
%ADD19R,0.06004X0.02559*%
%ADD20R,0.02559X0.07579*%
%ADD21R,0.01181X0.05807*%
%ADD22R,0.05807X0.01181*%
%ADD23R,0.02441X0.05512*%
%ADD24R,0.04331X0.09449*%
%ADD25R,0.10984X0.02913*%
%ADD26R,0.05591X0.04134*%
%ADD27R,0.06890X0.05906*%
%ADD28R,0.02559X0.04724*%
%ADD29R,0.04134X0.05512*%
%ADD30R,0.05709X0.03740*%
%ADD31R,0.05709X0.03937*%
%ADD32R,0.03740X0.05709*%
%ADD33R,0.05512X0.04134*%
%ADD34R,0.05906X0.04331*%
%ADD35R,0.02992X0.05000*%
%ADD36R,0.08268X0.05512*%
%ADD37R,0.02362X0.05512*%
%ADD38R,0.02953X0.04921*%
%ADD39R,0.14173X0.11811*%
%ADD40R,0.10236X0.11811*%
%ADD41R,0.02756X0.01673*%
%ADD42C,0.01000*%
%ADD43C,0.08268*%
%ADD44C,0.05512*%
%ADD45R,0.05906X0.05906*%
%ADD46C,0.05906*%
%ADD47C,0.04791*%
%ADD48R,0.06496X0.06496*%
%ADD49C,0.06496*%
%ADD50C,0.07087*%
%ADD51C,0.01870*%
%ADD52R,0.06791X0.06791*%
%ADD53C,0.06791*%
%ADD54R,0.06791X0.06791*%
%ADD55R,0.05575X0.05575*%
%ADD56C,0.05575*%
%ADD57C,0.05118*%
%ADD58R,0.05118X0.05118*%
%ADD59C,0.04925*%
%ADD60C,0.03150*%
G36*
X371300Y0D02*
X0D01*
Y379800D01*
X371300D01*
Y0D01*
D02*
G37*
%LPC*%
G36*
X363280Y376448D02*
Y371835D01*
X367892D01*
X367781Y372676D01*
X367264Y373924D01*
X366441Y374997D01*
X365369Y375820D01*
X364120Y376337D01*
X363280Y376448D01*
D02*
G37*
G36*
X362280D02*
X361439Y376337D01*
X360190Y375820D01*
X359118Y374997D01*
X358295Y373924D01*
X357778Y372676D01*
X357667Y371835D01*
X362280D01*
Y376448D01*
D02*
G37*
G36*
X367892Y370835D02*
X363280D01*
Y366223D01*
X364120Y366334D01*
X365369Y366851D01*
X366441Y367674D01*
X367264Y368746D01*
X367781Y369995D01*
X367892Y370835D01*
D02*
G37*
G36*
X362280D02*
X357667D01*
X357778Y369995D01*
X358295Y368746D01*
X359118Y367674D01*
X360190Y366851D01*
X361439Y366334D01*
X362280Y366223D01*
Y370835D01*
D02*
G37*
G36*
X10000Y376080D02*
X8783Y375960D01*
X7613Y375605D01*
X6534Y375029D01*
X5589Y374253D01*
X4813Y373307D01*
X4236Y372229D01*
X3881Y371059D01*
X3761Y369841D01*
X3881Y368624D01*
X4236Y367454D01*
X4813Y366375D01*
X5589Y365430D01*
X6534Y364654D01*
X7613Y364078D01*
X8783Y363723D01*
X10000Y363603D01*
X11217Y363723D01*
X12387Y364078D01*
X13466Y364654D01*
X14411Y365430D01*
X15187Y366375D01*
X15764Y367454D01*
X16119Y368624D01*
X16239Y369841D01*
X16119Y371059D01*
X15764Y372229D01*
X15187Y373307D01*
X14411Y374253D01*
X13466Y375029D01*
X12387Y375605D01*
X11217Y375960D01*
X10000Y376080D01*
D02*
G37*
G36*
X60500Y364779D02*
Y360762D01*
X64517D01*
X64426Y361448D01*
X63969Y362554D01*
X63240Y363503D01*
X62291Y364231D01*
X61186Y364689D01*
X60500Y364779D01*
D02*
G37*
G36*
X59500D02*
X58814Y364689D01*
X57709Y364231D01*
X56760Y363503D01*
X56031Y362554D01*
X55574Y361448D01*
X55483Y360762D01*
X59500D01*
Y364779D01*
D02*
G37*
G36*
X198339Y364509D02*
X194591D01*
Y360761D01*
X198339D01*
Y364509D01*
D02*
G37*
G36*
X193591D02*
X189843D01*
Y360761D01*
X193591D01*
Y364509D01*
D02*
G37*
G36*
X133488D02*
X129740D01*
Y360761D01*
X133488D01*
Y364509D01*
D02*
G37*
G36*
X128740D02*
X124992D01*
Y360761D01*
X128740D01*
Y364509D01*
D02*
G37*
G36*
X139083Y364041D02*
X138104Y363912D01*
X137192Y363534D01*
X136410Y362934D01*
X135809Y362151D01*
X135431Y361239D01*
X135302Y360261D01*
X135431Y359282D01*
X135792Y358412D01*
X133950Y356570D01*
X133488Y356761D01*
Y359761D01*
X129740D01*
Y356013D01*
X132739D01*
X132931Y355551D01*
X122379Y344999D01*
X122158Y344668D01*
X122080Y344278D01*
Y309507D01*
X119746D01*
Y304767D01*
X126454D01*
Y309507D01*
X124120D01*
Y343856D01*
X137234Y356970D01*
X138104Y356609D01*
X139083Y356480D01*
X140061Y356609D01*
X140973Y356987D01*
X141756Y357588D01*
X142357Y358370D01*
X142734Y359282D01*
X142863Y360261D01*
X142734Y361239D01*
X142357Y362151D01*
X141756Y362934D01*
X140973Y363534D01*
X140061Y363912D01*
X139083Y364041D01*
D02*
G37*
G36*
X223618D02*
X222640Y363912D01*
X221728Y363534D01*
X220945Y362934D01*
X220344Y362151D01*
X219967Y361239D01*
X219838Y360261D01*
X219967Y359282D01*
X220344Y358370D01*
X220945Y357588D01*
X221728Y356987D01*
X222640Y356609D01*
X223618Y356480D01*
X224597Y356609D01*
X225508Y356987D01*
X226291Y357588D01*
X226892Y358370D01*
X227270Y359282D01*
X227399Y360261D01*
X227270Y361239D01*
X226892Y362151D01*
X226291Y362934D01*
X225508Y363534D01*
X224597Y363912D01*
X223618Y364041D01*
D02*
G37*
G36*
X99370Y364340D02*
X98315Y364201D01*
X97331Y363794D01*
X96486Y363146D01*
X95838Y362301D01*
X95431Y361318D01*
X95292Y360262D01*
X95431Y359207D01*
X95838Y358223D01*
X95860Y358194D01*
X87479Y349813D01*
X87258Y349482D01*
X87180Y349092D01*
Y309507D01*
X80526D01*
Y306068D01*
X79274Y304816D01*
X78774Y305023D01*
X78774Y305161D01*
Y309507D01*
X72066D01*
Y306308D01*
X70878Y305120D01*
X70314D01*
Y309507D01*
X67980D01*
Y337272D01*
X87460Y356752D01*
X87489Y356730D01*
X88472Y356323D01*
X89528Y356184D01*
X90583Y356323D01*
X91567Y356730D01*
X92411Y357379D01*
X93059Y358223D01*
X93467Y359207D01*
X93606Y360262D01*
X93467Y361318D01*
X93059Y362301D01*
X92411Y363146D01*
X91567Y363794D01*
X90583Y364201D01*
X89528Y364340D01*
X88472Y364201D01*
X87489Y363794D01*
X86644Y363146D01*
X85996Y362301D01*
X85588Y361318D01*
X85449Y360262D01*
X85588Y359207D01*
X85996Y358223D01*
X86018Y358194D01*
X66239Y338416D01*
X66018Y338085D01*
X65940Y337695D01*
Y309507D01*
X63606D01*
Y304906D01*
X63479Y304821D01*
X60291Y301633D01*
X55146D01*
Y296893D01*
X57480D01*
Y277600D01*
X57558Y277210D01*
X57779Y276879D01*
X58792Y275866D01*
Y272596D01*
X58032D01*
Y266872D01*
X60286D01*
X62279Y264879D01*
X62355Y264828D01*
X62203Y264328D01*
X61812D01*
Y258604D01*
X65371D01*
Y260447D01*
X70581D01*
X70899Y259970D01*
X71585Y259512D01*
X72395Y259351D01*
X73204Y259512D01*
X73891Y259970D01*
X74349Y260657D01*
X74510Y261466D01*
X74349Y262276D01*
X73891Y262962D01*
X73204Y263421D01*
X72395Y263582D01*
X71585Y263421D01*
X70899Y262962D01*
X70581Y262486D01*
X65371D01*
X65371Y264328D01*
X65766Y264580D01*
X75559D01*
X75954Y264328D01*
Y258604D01*
X76023D01*
X76230Y258104D01*
X74946Y256820D01*
X58722D01*
X57438Y258104D01*
X57645Y258604D01*
X57812D01*
Y264328D01*
X54253D01*
Y258604D01*
X54419D01*
X54627Y258104D01*
X53442Y256920D01*
X32600D01*
X32210Y256842D01*
X31879Y256621D01*
X29679Y254421D01*
X29458Y254090D01*
X29380Y253700D01*
Y240718D01*
X29128Y240323D01*
X28880Y240323D01*
X27580D01*
Y270058D01*
X29848D01*
Y276632D01*
X23273D01*
Y270058D01*
X25541D01*
Y240323D01*
X23994D01*
Y233811D01*
X28880D01*
X29128Y233811D01*
X29380Y233415D01*
Y210687D01*
X23273D01*
Y204113D01*
X25541D01*
Y174389D01*
X23994D01*
Y167877D01*
X29128D01*
X29380Y167482D01*
Y144742D01*
X23273D01*
Y138168D01*
X25541D01*
Y108456D01*
X23994D01*
Y101944D01*
X29128D01*
X29380Y101549D01*
Y80322D01*
X25679Y76621D01*
X25458Y76290D01*
X25380Y75900D01*
Y42256D01*
X23994D01*
Y35744D01*
X29128D01*
Y42256D01*
X27420D01*
Y69499D01*
X27920Y69669D01*
X28219Y69278D01*
X28858Y68788D01*
X29381Y68571D01*
Y55899D01*
X29459Y55509D01*
X29680Y55178D01*
X33022Y51837D01*
Y42256D01*
X31474D01*
Y35744D01*
X33080D01*
Y31722D01*
X32730Y31372D01*
X32509Y31041D01*
X32431Y30650D01*
Y24894D01*
X30943D01*
Y18106D01*
X35958D01*
Y24894D01*
X34470D01*
Y30228D01*
X34821Y30579D01*
X35042Y30910D01*
X35120Y31300D01*
Y35744D01*
X36608D01*
Y42256D01*
X35061D01*
Y52259D01*
X34983Y52649D01*
X34762Y52980D01*
X31420Y56321D01*
Y68571D01*
X31944Y68788D01*
X32583Y69278D01*
X33073Y69917D01*
X33381Y70661D01*
X33486Y71460D01*
X33381Y72259D01*
X33211Y72669D01*
X35032Y74490D01*
X38504D01*
X38674Y73990D01*
X38219Y73642D01*
X37729Y73003D01*
X37421Y72259D01*
X37315Y71460D01*
X37421Y70661D01*
X37729Y69917D01*
X38219Y69278D01*
X38858Y68788D01*
X39602Y68480D01*
X40401Y68375D01*
X41199Y68480D01*
X41944Y68788D01*
X42583Y69278D01*
X43073Y69917D01*
X43381Y70661D01*
X43486Y71460D01*
X43381Y72259D01*
X43073Y73003D01*
X42583Y73642D01*
X42128Y73990D01*
X42298Y74490D01*
X109210D01*
X109600Y74568D01*
X109931Y74789D01*
X148689Y113547D01*
X148690Y113546D01*
X149500Y113384D01*
X150310Y113546D01*
X150904Y113943D01*
X151237Y113837D01*
X151404Y113722D01*
Y106504D01*
X159196D01*
Y112854D01*
X161022Y114680D01*
X164199D01*
X164283Y114195D01*
X163335Y113803D01*
X162522Y113178D01*
X161897Y112365D01*
X161505Y111417D01*
X161371Y110400D01*
X161505Y109383D01*
X161897Y108435D01*
X162522Y107622D01*
X163335Y106997D01*
X164283Y106605D01*
X165300Y106471D01*
X166317Y106605D01*
X167265Y106997D01*
X168078Y107622D01*
X168703Y108435D01*
X169095Y109383D01*
X169229Y110400D01*
X169095Y111417D01*
X168704Y112362D01*
X175821Y119479D01*
X176042Y119810D01*
X176120Y120200D01*
Y132078D01*
X177832Y133790D01*
X180246D01*
Y131406D01*
X179875Y131094D01*
X177443D01*
Y127700D01*
X180450D01*
X183458D01*
Y129630D01*
X183780Y129886D01*
X184242Y129684D01*
Y123806D01*
X189258D01*
Y129116D01*
X189719Y129307D01*
X190506Y128521D01*
Y123714D01*
X190029Y123396D01*
X189571Y122710D01*
X189410Y121900D01*
X189571Y121090D01*
X190029Y120404D01*
X190716Y119946D01*
X191525Y119784D01*
X192335Y119946D01*
X192985Y120380D01*
X193136Y120441D01*
X193546D01*
X193704Y120204D01*
X194390Y119746D01*
X195200Y119585D01*
X196010Y119746D01*
X196255Y119910D01*
X196755Y119642D01*
Y113414D01*
X196279Y113096D01*
X195820Y112409D01*
X195659Y111600D01*
X195820Y110791D01*
X196279Y110104D01*
X196965Y109646D01*
X197775Y109485D01*
X198584Y109646D01*
X198906Y109860D01*
X199406Y109593D01*
Y106664D01*
X199004Y106396D01*
X198546Y105710D01*
X198384Y104900D01*
X198546Y104090D01*
X199004Y103404D01*
X199690Y102946D01*
X200500Y102785D01*
X201309Y102946D01*
X201996Y103404D01*
X202454Y104090D01*
X202615Y104900D01*
X202454Y105710D01*
X201996Y106396D01*
X201445Y106764D01*
Y116542D01*
X201945Y116810D01*
X202190Y116646D01*
X203000Y116484D01*
X203809Y116646D01*
X204496Y117104D01*
X204954Y117790D01*
X205116Y118600D01*
X204954Y119410D01*
X204496Y120096D01*
X204020Y120414D01*
Y122500D01*
X203942Y122890D01*
X203721Y123221D01*
X201635Y125306D01*
X201821Y125828D01*
X202410Y125946D01*
X203096Y126404D01*
X203554Y127091D01*
X203715Y127900D01*
X203628Y128338D01*
X203842Y128532D01*
X204343Y128311D01*
Y127700D01*
X207350D01*
X210358D01*
Y129197D01*
X210800Y129387D01*
X211142Y129106D01*
Y123806D01*
X216158D01*
Y130594D01*
X212548D01*
X212154Y130988D01*
X211954Y131406D01*
Y138213D01*
X211883D01*
Y139214D01*
X212650Y139980D01*
X239278D01*
X240980Y138278D01*
Y110300D01*
X241058Y109910D01*
X241279Y109579D01*
X255579Y95279D01*
X255910Y95058D01*
X256300Y94980D01*
X286978D01*
X289980Y91978D01*
Y69603D01*
X287784Y67406D01*
X287283Y67590D01*
Y67590D01*
X282952D01*
X280892Y69650D01*
X281548Y70306D01*
X285057D01*
Y77094D01*
X280042D01*
Y71694D01*
X279700Y71413D01*
X279258Y71603D01*
Y73200D01*
X276250D01*
X273242D01*
Y70520D01*
X254060D01*
X253670Y70442D01*
X253339Y70221D01*
X251727Y68609D01*
X247346D01*
Y63820D01*
X247346Y63672D01*
X246991Y63320D01*
X209922D01*
X204101Y69140D01*
Y72047D01*
X207027D01*
Y78953D01*
X199137D01*
Y72512D01*
X198637Y72305D01*
X197420Y73522D01*
Y87678D01*
X198637Y88895D01*
X199137Y88688D01*
Y86947D01*
X207027D01*
Y93853D01*
X199137D01*
Y91420D01*
X198700D01*
X198310Y91342D01*
X197979Y91121D01*
X195679Y88821D01*
X195458Y88490D01*
X195380Y88100D01*
Y73100D01*
X195458Y72710D01*
X195679Y72379D01*
X207979Y60079D01*
X208310Y59858D01*
X208700Y59780D01*
X246778D01*
X247346Y59212D01*
Y56191D01*
X254054D01*
Y61128D01*
X254491Y61280D01*
X254600D01*
X254990Y61358D01*
X255321Y61579D01*
X257214Y63472D01*
X262636D01*
X262636Y68409D01*
X263106Y68480D01*
X263157D01*
X263606Y68357D01*
X263606Y67980D01*
Y65850D01*
X267500D01*
Y65350D01*
X268000D01*
Y62342D01*
X270030D01*
X270286Y62020D01*
X270084Y61558D01*
X264106D01*
Y59479D01*
X262636D01*
Y60928D01*
X255928D01*
Y55991D01*
X262636D01*
Y57440D01*
X264106D01*
Y56542D01*
X270894D01*
Y57440D01*
X271716D01*
Y57010D01*
X273559D01*
Y46979D01*
X273637Y46589D01*
X273858Y46258D01*
X276237Y43879D01*
X276568Y43658D01*
X276958Y43580D01*
X287478D01*
X288480Y42578D01*
Y16022D01*
X286678Y14220D01*
X272436D01*
X272116Y14990D01*
X271516Y15773D01*
X270733Y16374D01*
X269821Y16752D01*
X268843Y16880D01*
X267864Y16752D01*
X266952Y16374D01*
X266169Y15773D01*
X265569Y14990D01*
X265191Y14078D01*
X265062Y13100D01*
X265191Y12122D01*
X265569Y11210D01*
X266169Y10427D01*
X266952Y9826D01*
X267864Y9448D01*
X268843Y9320D01*
X269821Y9448D01*
X270733Y9826D01*
X271516Y10427D01*
X272116Y11210D01*
X272494Y12122D01*
X272502Y12180D01*
X287100D01*
X287490Y12258D01*
X287821Y12479D01*
X289500Y14158D01*
X291179Y12479D01*
X291510Y12258D01*
X291900Y12180D01*
X351600D01*
X351990Y12258D01*
X352321Y12479D01*
X355121Y15279D01*
X355342Y15610D01*
X355420Y16000D01*
Y121735D01*
X355920Y121860D01*
X356094Y121534D01*
X356870Y120589D01*
X357815Y119813D01*
X358894Y119236D01*
X360064Y118881D01*
X361281Y118761D01*
X362498Y118881D01*
X363669Y119236D01*
X364747Y119813D01*
X365692Y120589D01*
X366468Y121534D01*
X367045Y122613D01*
X367400Y123783D01*
X367520Y125000D01*
X367400Y126217D01*
X367045Y127387D01*
X366468Y128466D01*
X365692Y129411D01*
X364747Y130187D01*
X363669Y130764D01*
X362498Y131119D01*
X361281Y131239D01*
X360064Y131119D01*
X358894Y130764D01*
X357815Y130187D01*
X356870Y129411D01*
X356094Y128466D01*
X355920Y128140D01*
X355420Y128265D01*
Y152900D01*
X355342Y153290D01*
X355121Y153621D01*
X354342Y154400D01*
X355121Y155179D01*
X355342Y155510D01*
X355420Y155900D01*
Y164403D01*
X355342Y164793D01*
X355121Y165124D01*
X354444Y165802D01*
X355085Y166443D01*
X360594D01*
Y171459D01*
X353806D01*
Y168048D01*
X352579Y166821D01*
X344185D01*
Y168601D01*
X344185Y169101D01*
X344185Y169302D01*
Y174900D01*
X344185Y175400D01*
X344185Y175601D01*
Y181400D01*
X336886D01*
Y175601D01*
X336886Y175101D01*
X336886Y174900D01*
Y169302D01*
X336886Y168802D01*
X336886Y168601D01*
Y162802D01*
X344185D01*
Y164782D01*
X352579D01*
X353380Y163981D01*
Y156322D01*
X352478Y155420D01*
X309522D01*
X288233Y176709D01*
Y182154D01*
X283493D01*
Y175446D01*
X286612D01*
X308379Y153679D01*
X308710Y153458D01*
X309100Y153380D01*
X352478D01*
X353380Y152478D01*
Y16422D01*
X351178Y14220D01*
X292322D01*
X290520Y16022D01*
Y43000D01*
X290442Y43390D01*
X290221Y43721D01*
X289342Y44600D01*
X290221Y45479D01*
X290442Y45810D01*
X290520Y46200D01*
Y51285D01*
X290982Y51477D01*
X292879Y49579D01*
X293210Y49358D01*
X293600Y49280D01*
X325500D01*
X325890Y49358D01*
X326221Y49579D01*
X329216Y52574D01*
X329437Y52905D01*
X329515Y53295D01*
Y61658D01*
X330216D01*
Y68169D01*
X328825D01*
X328488Y68506D01*
X328696Y69006D01*
X329822D01*
Y75040D01*
X330284Y75231D01*
X331806Y73709D01*
Y68169D01*
X331105D01*
Y61658D01*
X334546D01*
Y68169D01*
X333846D01*
Y73138D01*
X334308Y73329D01*
X336137Y71500D01*
Y68169D01*
X335436D01*
Y61658D01*
X338877D01*
Y68169D01*
X338176D01*
Y70929D01*
X338638Y71120D01*
X340468Y69290D01*
Y68169D01*
X339767D01*
Y61658D01*
X343208D01*
Y68169D01*
X342507D01*
Y69713D01*
X342429Y70103D01*
X342208Y70434D01*
X299154Y113488D01*
Y116933D01*
X292446D01*
Y112193D01*
X297565D01*
X301777Y107982D01*
X301585Y107520D01*
X290222D01*
X289586Y108156D01*
X289635Y108400D01*
X289474Y109210D01*
X289015Y109896D01*
X288539Y110214D01*
Y112193D01*
X290874D01*
Y116933D01*
X284165D01*
Y112193D01*
X286500D01*
Y110214D01*
X286023Y109896D01*
X285565Y109210D01*
X285404Y108400D01*
X285565Y107590D01*
X286023Y106904D01*
X286599Y106520D01*
X286484Y106020D01*
X283061D01*
X281242Y107838D01*
X281354Y108400D01*
X281193Y109210D01*
X280734Y109896D01*
X280258Y110214D01*
Y112193D01*
X282593D01*
Y116933D01*
X275884D01*
Y112193D01*
X278219D01*
Y110214D01*
X277743Y109896D01*
X277284Y109210D01*
X277123Y108400D01*
X277191Y108058D01*
X276730Y107811D01*
X273994Y110547D01*
Y120053D01*
X275359Y121417D01*
X275884D01*
Y120067D01*
X282593D01*
Y121417D01*
X284165D01*
Y120067D01*
X290874D01*
Y121417D01*
X292446D01*
Y120067D01*
X299154D01*
Y124807D01*
X292446D01*
Y123457D01*
X290874D01*
Y124807D01*
X284165D01*
Y123457D01*
X282593D01*
Y124807D01*
X275884D01*
Y123457D01*
X274937D01*
X274547Y123379D01*
X274216Y123158D01*
X273000Y121942D01*
X271784Y123158D01*
X271453Y123379D01*
X271063Y123457D01*
X268012D01*
Y124807D01*
X261304D01*
Y123260D01*
X259732D01*
Y124807D01*
X253023D01*
Y123260D01*
X251156D01*
Y124807D01*
X244644D01*
Y119673D01*
X251156D01*
Y121221D01*
X253023D01*
Y120067D01*
X259732D01*
Y121221D01*
X261304D01*
Y120067D01*
X268012D01*
Y121417D01*
X270641D01*
X271955Y120103D01*
Y110458D01*
X271455Y110190D01*
X271210Y110354D01*
X270400Y110515D01*
X269590Y110354D01*
X268904Y109896D01*
X268446Y109210D01*
X268285Y108400D01*
X268446Y107590D01*
X268904Y106904D01*
X269590Y106446D01*
X270400Y106284D01*
X270962Y106396D01*
X275377Y101981D01*
X275185Y101520D01*
X273422D01*
X266735Y108207D01*
X266774Y108400D01*
X266613Y109210D01*
X266154Y109896D01*
X265678Y110214D01*
Y112193D01*
X268012D01*
Y116933D01*
X261304D01*
Y112193D01*
X263638D01*
Y110214D01*
X263162Y109896D01*
X262704Y109210D01*
X262543Y108400D01*
X262704Y107590D01*
X263162Y106904D01*
X263848Y106446D01*
X264658Y106284D01*
X265468Y106446D01*
X265554Y106504D01*
X271576Y100481D01*
X271385Y100020D01*
X266300D01*
X258398Y107922D01*
X258493Y108400D01*
X258332Y109210D01*
X257873Y109896D01*
X257397Y110214D01*
Y112193D01*
X259732D01*
Y116933D01*
X253023D01*
Y112193D01*
X255358D01*
Y110214D01*
X254882Y109896D01*
X254423Y109210D01*
X254262Y108400D01*
X254423Y107590D01*
X254882Y106904D01*
X255568Y106446D01*
X256378Y106284D01*
X257023Y106413D01*
X264454Y98981D01*
X264263Y98520D01*
X259522D01*
X249954Y108088D01*
X250015Y108400D01*
X249854Y109210D01*
X249396Y109896D01*
X248920Y110214D01*
Y112193D01*
X251156D01*
Y117327D01*
X244644D01*
Y112193D01*
X246880D01*
Y110214D01*
X246404Y109896D01*
X245946Y109210D01*
X245828Y108621D01*
X245306Y108435D01*
X243020Y110722D01*
Y138278D01*
X244722Y139980D01*
X261835D01*
X262225Y140058D01*
X262556Y140279D01*
X262625Y140348D01*
X262821Y140479D01*
X271300Y148958D01*
X275479Y144779D01*
X275810Y144558D01*
X276200Y144480D01*
X292100D01*
X292490Y144558D01*
X292821Y144779D01*
X293737Y145695D01*
X294430Y145002D01*
X294579Y144779D01*
X294910Y144558D01*
X295300Y144480D01*
X326945D01*
Y142244D01*
X332079D01*
Y148756D01*
X326945D01*
Y146520D01*
X295796D01*
X294757Y147559D01*
Y157246D01*
X296107D01*
Y163954D01*
X291367D01*
Y157246D01*
X292717D01*
Y147559D01*
X291678Y146520D01*
X276622D01*
X272320Y150822D01*
Y161085D01*
X272781Y161276D01*
X274179Y159879D01*
X274510Y159658D01*
X274900Y159580D01*
X283493D01*
Y157246D01*
X288233D01*
Y163954D01*
X283493D01*
Y161620D01*
X275322D01*
X273820Y163122D01*
Y204178D01*
X275556Y205914D01*
X320586D01*
X320904Y205438D01*
X321590Y204979D01*
X322400Y204818D01*
X323210Y204979D01*
X323896Y205438D01*
X324214Y205914D01*
X327693D01*
Y204072D01*
X331252D01*
Y209796D01*
X331634Y210080D01*
X333578D01*
X335252Y208406D01*
Y204072D01*
X338811D01*
Y209796D01*
X336746D01*
X334721Y211821D01*
X334390Y212042D01*
X334000Y212120D01*
X274881D01*
X274496Y212696D01*
X273810Y213154D01*
X273000Y213316D01*
X272800Y213276D01*
X272320Y213680D01*
Y243778D01*
X273322Y244780D01*
X280393D01*
Y242544D01*
X285527D01*
Y249056D01*
X280393D01*
Y246820D01*
X273322D01*
X272320Y247822D01*
Y252048D01*
X272820Y252227D01*
X273391Y251846D01*
X274200Y251684D01*
X275009Y251846D01*
X275696Y252304D01*
X276014Y252780D01*
X323600D01*
X323990Y252858D01*
X324321Y253079D01*
X357921Y286679D01*
X358142Y287010D01*
X358220Y287400D01*
Y295486D01*
X358720Y295656D01*
X358832Y295510D01*
X359437Y295045D01*
X360141Y294754D01*
X360897Y294654D01*
X361653Y294754D01*
X362357Y295045D01*
X362962Y295510D01*
X363426Y296114D01*
X363718Y296819D01*
X363818Y297575D01*
X363718Y298331D01*
X363426Y299035D01*
X362962Y299640D01*
X362357Y300104D01*
X361653Y300396D01*
X360897Y300496D01*
X360141Y300396D01*
X359437Y300104D01*
X358832Y299640D01*
X358720Y299494D01*
X358220Y299663D01*
Y325486D01*
X358720Y325656D01*
X358832Y325510D01*
X359437Y325045D01*
X360141Y324754D01*
X360897Y324654D01*
X361653Y324754D01*
X362357Y325045D01*
X362962Y325510D01*
X363426Y326115D01*
X363718Y326819D01*
X363818Y327575D01*
X363718Y328331D01*
X363426Y329035D01*
X362962Y329640D01*
X362357Y330104D01*
X361653Y330396D01*
X360897Y330496D01*
X360141Y330396D01*
X359437Y330104D01*
X358832Y329640D01*
X358720Y329494D01*
X358220Y329663D01*
Y346600D01*
X358142Y346990D01*
X357921Y347321D01*
X351914Y353328D01*
X352172Y353950D01*
X352284Y354800D01*
X352172Y355650D01*
X351844Y356442D01*
X351322Y357122D01*
X350642Y357644D01*
X349850Y357972D01*
X349000Y358084D01*
X348150Y357972D01*
X347358Y357644D01*
X346678Y357122D01*
X346156Y356442D01*
X345828Y355650D01*
X345716Y354800D01*
X345828Y353950D01*
X346086Y353328D01*
X322918Y330160D01*
X318794D01*
Y331058D01*
X312006D01*
Y330160D01*
X307456D01*
Y331707D01*
X300944D01*
Y326573D01*
X307456D01*
Y328121D01*
X312006D01*
Y326042D01*
X318794D01*
Y328121D01*
X323340D01*
X323730Y328198D01*
X324061Y328419D01*
X347528Y351886D01*
X348150Y351628D01*
X349000Y351516D01*
X349850Y351628D01*
X350472Y351886D01*
X356180Y346178D01*
Y287822D01*
X352379Y284020D01*
X351917Y284212D01*
Y294863D01*
X352357Y295045D01*
X352962Y295510D01*
X353426Y296114D01*
X353718Y296819D01*
X353818Y297575D01*
X353718Y298331D01*
X353426Y299035D01*
X352962Y299640D01*
X352357Y300104D01*
X351653Y300396D01*
X350897Y300496D01*
X350141Y300396D01*
X349437Y300104D01*
X348832Y299640D01*
X348368Y299035D01*
X348076Y298331D01*
X347976Y297575D01*
X348076Y296819D01*
X348368Y296114D01*
X348832Y295510D01*
X349437Y295045D01*
X349877Y294863D01*
Y283819D01*
X337581Y271523D01*
X337120Y271715D01*
Y322356D01*
X339700Y324936D01*
X340141Y324754D01*
X340897Y324654D01*
X341653Y324754D01*
X342357Y325045D01*
X342962Y325510D01*
X343426Y326115D01*
X343718Y326819D01*
X343818Y327575D01*
X343718Y328331D01*
X343426Y329035D01*
X342962Y329640D01*
X342357Y330104D01*
X341653Y330396D01*
X340897Y330496D01*
X340141Y330396D01*
X339437Y330104D01*
X338832Y329640D01*
X338368Y329035D01*
X338076Y328331D01*
X337976Y327575D01*
X338076Y326819D01*
X338258Y326378D01*
X335379Y323499D01*
X335158Y323168D01*
X335080Y322778D01*
Y271322D01*
X334678Y270920D01*
X326507D01*
Y273156D01*
X321373D01*
Y266644D01*
X326507D01*
Y268880D01*
X334285D01*
X334476Y268419D01*
X328378Y262320D01*
X326507D01*
Y264556D01*
X321373D01*
Y258044D01*
X325749D01*
X325940Y257582D01*
X323178Y254820D01*
X276014D01*
X275696Y255296D01*
X275009Y255754D01*
X274200Y255915D01*
X273986Y255873D01*
X273740Y256334D01*
X288000Y270594D01*
X298015Y260579D01*
X298346Y260358D01*
X298736Y260280D01*
X313893D01*
Y258044D01*
X319027D01*
Y264556D01*
X313893D01*
Y262320D01*
X299158D01*
X289020Y272458D01*
Y284939D01*
X289496Y285257D01*
X289814Y285733D01*
X290446D01*
Y283989D01*
X297154D01*
Y285733D01*
X300906D01*
Y284245D01*
X307694D01*
Y289261D01*
X300906D01*
Y287772D01*
X297154D01*
Y289517D01*
X290446D01*
Y287772D01*
X289814D01*
X289496Y288249D01*
X289020Y288567D01*
Y290578D01*
X304400Y305958D01*
X313504Y296854D01*
X313835Y296633D01*
X314225Y296555D01*
X328185D01*
X328368Y296114D01*
X328832Y295510D01*
X329437Y295045D01*
X330141Y294754D01*
X330897Y294654D01*
X331653Y294754D01*
X332357Y295045D01*
X332962Y295510D01*
X333426Y296114D01*
X333718Y296819D01*
X333818Y297575D01*
X333718Y298331D01*
X333426Y299035D01*
X332962Y299640D01*
X332357Y300104D01*
X331653Y300396D01*
X330897Y300496D01*
X330141Y300396D01*
X329437Y300104D01*
X328832Y299640D01*
X328368Y299035D01*
X328185Y298594D01*
X314648D01*
X305220Y308022D01*
Y319093D01*
X307456D01*
Y324227D01*
X300944D01*
Y319093D01*
X303180D01*
Y307622D01*
X287279Y291721D01*
X287058Y291390D01*
X286980Y291000D01*
Y288567D01*
X286504Y288249D01*
X286449Y288165D01*
X286082Y287843D01*
X282243D01*
Y291682D01*
X282172D01*
Y304230D01*
X291021Y313079D01*
X291242Y313410D01*
X291320Y313800D01*
Y319723D01*
X293595D01*
Y324857D01*
X287005D01*
Y319723D01*
X289280D01*
Y314222D01*
X280502Y305444D01*
X280143Y305408D01*
X279915Y305436D01*
X279886Y305456D01*
X269803Y315539D01*
Y319723D01*
X272079D01*
Y324857D01*
X265488D01*
Y319723D01*
X267764D01*
Y315116D01*
X267842Y314726D01*
X268063Y314395D01*
X278165Y304293D01*
Y292182D01*
X277716D01*
Y289509D01*
X276716D01*
Y292182D01*
X275625D01*
Y291682D01*
X274157D01*
Y287843D01*
X270318D01*
Y285804D01*
X265614D01*
X265296Y286280D01*
X264610Y286739D01*
X263800Y286900D01*
X262990Y286739D01*
X262304Y286280D01*
X261846Y285594D01*
X261684Y284784D01*
X261846Y283975D01*
X262304Y283288D01*
X262990Y282830D01*
X263800Y282669D01*
X264610Y282830D01*
X265296Y283288D01*
X265614Y283765D01*
X269818D01*
Y283316D01*
X272491D01*
Y282316D01*
X269818D01*
Y281867D01*
X268683D01*
X268396Y282296D01*
X267709Y282754D01*
X266900Y282915D01*
X266090Y282754D01*
X265404Y282296D01*
X264946Y281610D01*
X264785Y280800D01*
X264946Y279991D01*
X265404Y279304D01*
X266090Y278846D01*
X266900Y278684D01*
X267709Y278846D01*
X268396Y279304D01*
X268746Y279828D01*
X270318D01*
Y279757D01*
X274157D01*
Y276199D01*
X272837Y274879D01*
X272712Y274796D01*
X270379Y272462D01*
X270158Y272131D01*
X270080Y271741D01*
Y264122D01*
X264579Y258621D01*
X264358Y258290D01*
X264280Y257900D01*
Y252715D01*
X263819Y252523D01*
X263104Y253238D01*
X263215Y253800D01*
X263054Y254609D01*
X262596Y255296D01*
X261910Y255754D01*
X261100Y255915D01*
X260291Y255754D01*
X259604Y255296D01*
X259146Y254609D01*
X258984Y253800D01*
X259146Y252991D01*
X259604Y252304D01*
X260291Y251846D01*
X261100Y251684D01*
X261662Y251796D01*
X262680Y250778D01*
Y217122D01*
X259521Y213963D01*
X253392D01*
Y217357D01*
X241408D01*
Y213963D01*
X237368D01*
Y217357D01*
X225384D01*
Y216420D01*
X223914D01*
X223596Y216896D01*
X222909Y217354D01*
X222100Y217515D01*
X221290Y217354D01*
X220604Y216896D01*
X220146Y216210D01*
X219985Y215400D01*
X220146Y214591D01*
X220604Y213904D01*
X221290Y213446D01*
X221421Y213420D01*
X221372Y212920D01*
X217037D01*
X216647Y212842D01*
X216316Y212621D01*
X194667Y190971D01*
X194167Y191179D01*
Y193186D01*
X194643Y193504D01*
X195102Y194191D01*
X195263Y195000D01*
X195102Y195809D01*
X194643Y196496D01*
X193957Y196954D01*
X193147Y197116D01*
X192338Y196954D01*
X191651Y196496D01*
X191193Y195809D01*
X191032Y195000D01*
X191193Y194191D01*
X191651Y193504D01*
X192128Y193186D01*
Y189450D01*
X191628Y189299D01*
X191496Y189496D01*
X190810Y189954D01*
X190000Y190115D01*
X189190Y189954D01*
X188600Y189560D01*
X188100Y189723D01*
Y191606D01*
X188258D01*
Y195000D01*
X185250D01*
X182242D01*
Y191606D01*
X182500D01*
Y188500D01*
X185300D01*
Y187500D01*
X182500D01*
Y185500D01*
X182363Y185295D01*
X182295Y184954D01*
X182151Y184865D01*
X181785Y184757D01*
X181220Y185322D01*
Y185700D01*
X181200Y185799D01*
Y191350D01*
X179970D01*
Y192106D01*
X181458D01*
Y198894D01*
X179970D01*
Y201150D01*
X179892Y201540D01*
X179671Y201871D01*
X175420Y206122D01*
Y207993D01*
X177656D01*
Y213127D01*
X171144D01*
Y207993D01*
X173380D01*
Y205700D01*
X173458Y205310D01*
X173679Y204979D01*
X177931Y200727D01*
Y198894D01*
X176443D01*
Y192106D01*
X177931D01*
Y191350D01*
X176600D01*
Y184650D01*
X179230D01*
X179258Y184510D01*
X179479Y184179D01*
X179924Y183734D01*
X180246Y183394D01*
X180246D01*
X180246Y183394D01*
Y176587D01*
X180317D01*
Y175364D01*
X180317Y175364D01*
Y173946D01*
X180394Y173556D01*
X180615Y173225D01*
X182661Y171179D01*
X182992Y170958D01*
X183382Y170880D01*
X206519D01*
X207780Y169619D01*
Y143622D01*
X207678Y143520D01*
X187359D01*
X186969Y143442D01*
X186638Y143221D01*
X185279Y141863D01*
X178931Y148211D01*
X179154Y148695D01*
X179318Y148682D01*
X179504Y148404D01*
X180191Y147946D01*
X181000Y147784D01*
X181809Y147946D01*
X182496Y148404D01*
X182954Y149091D01*
X183115Y149900D01*
X182954Y150709D01*
X182496Y151396D01*
X182190Y151600D01*
Y152100D01*
X182496Y152304D01*
X182954Y152990D01*
X183115Y153800D01*
X182954Y154610D01*
X182496Y155296D01*
X182265Y155450D01*
Y155950D01*
X182496Y156104D01*
X182954Y156790D01*
X183115Y157600D01*
X182954Y158410D01*
X182496Y159096D01*
X181809Y159554D01*
X181202Y159675D01*
X180996Y159728D01*
X180834Y160192D01*
X180915Y160600D01*
X180754Y161409D01*
X180296Y162096D01*
X179610Y162554D01*
X178800Y162715D01*
X178422Y162640D01*
X177922Y162912D01*
X177844Y163305D01*
X177922Y163699D01*
Y164880D01*
X177807Y165458D01*
X177480Y165947D01*
X176990Y166274D01*
X176913Y166290D01*
Y169105D01*
Y173254D01*
X174529D01*
Y176095D01*
X175005Y176414D01*
X175464Y177100D01*
X175625Y177909D01*
X175621Y177927D01*
X176093Y178122D01*
X176104Y178104D01*
X176790Y177646D01*
X177600Y177485D01*
X178410Y177646D01*
X179096Y178104D01*
X179554Y178790D01*
X179716Y179600D01*
X179554Y180410D01*
X179096Y181096D01*
X178410Y181554D01*
X177600Y181716D01*
X177122Y181620D01*
X172911Y185831D01*
X173137Y186312D01*
X173810Y186446D01*
X174496Y186904D01*
X174954Y187591D01*
X175116Y188400D01*
X174954Y189209D01*
X174496Y189896D01*
X173810Y190354D01*
X173000Y190515D01*
X172190Y190354D01*
X171504Y189896D01*
X171186Y189420D01*
X111000D01*
X110610Y189342D01*
X110279Y189121D01*
X107742Y186584D01*
X107521Y186253D01*
X107443Y185863D01*
Y185454D01*
X106093D01*
Y178746D01*
X107043D01*
Y177769D01*
X106758Y177512D01*
X106715Y177472D01*
X106553Y177441D01*
X106553Y177441D01*
X103121D01*
Y168862D01*
X103880D01*
Y168700D01*
X103958Y168310D01*
X104179Y167979D01*
X105679Y166479D01*
X106010Y166258D01*
X106400Y166180D01*
X110900D01*
X111290Y166258D01*
X111621Y166479D01*
X113121Y167979D01*
X113342Y168310D01*
X113380Y168503D01*
X113880Y168454D01*
Y163222D01*
X112774Y162116D01*
X67476D01*
Y164057D01*
X63524D01*
Y158135D01*
X67476D01*
Y160076D01*
X113196D01*
X113586Y160154D01*
X113917Y160375D01*
X114900Y161358D01*
X118658Y157600D01*
X117979Y156921D01*
X117758Y156590D01*
X117680Y156200D01*
Y146500D01*
X117758Y146110D01*
X117979Y145779D01*
X119379Y144379D01*
X119710Y144158D01*
X120100Y144080D01*
X163677D01*
X164264Y143494D01*
X164170Y142994D01*
X162842D01*
Y136206D01*
X164330D01*
Y135594D01*
X162842D01*
Y128806D01*
X162568Y128420D01*
X162058D01*
Y131700D01*
X159050D01*
X156043D01*
Y128420D01*
X151122D01*
X150404Y129138D01*
X150515Y129700D01*
X150354Y130509D01*
X149896Y131196D01*
X149209Y131654D01*
X148400Y131816D01*
X147590Y131654D01*
X146904Y131196D01*
X146446Y130509D01*
X146284Y129700D01*
X146446Y128891D01*
X146904Y128204D01*
X147590Y127746D01*
X148400Y127585D01*
X148962Y127696D01*
X149979Y126679D01*
X150310Y126458D01*
X150700Y126380D01*
X167300D01*
X167690Y126458D01*
X168021Y126679D01*
X169221Y127879D01*
X169442Y128210D01*
X169520Y128600D01*
Y142212D01*
X169606Y142270D01*
X170106Y142003D01*
Y141546D01*
X172490D01*
Y121232D01*
X167978Y116720D01*
X160600D01*
X160210Y116642D01*
X159879Y116421D01*
X157754Y114296D01*
X151792D01*
X151667Y114442D01*
X151475Y114796D01*
X151616Y115500D01*
X151454Y116309D01*
X151382Y116418D01*
X151683Y116867D01*
X152100Y116785D01*
X152910Y116946D01*
X153596Y117404D01*
X154054Y118090D01*
X154216Y118900D01*
X154054Y119710D01*
X153905Y119933D01*
X154206Y120383D01*
X154700Y120284D01*
X155509Y120446D01*
X156196Y120904D01*
X156654Y121590D01*
X156816Y122400D01*
X156654Y123210D01*
X156196Y123896D01*
X155509Y124354D01*
X154700Y124515D01*
X153891Y124354D01*
X153204Y123896D01*
X152886Y123420D01*
X125822D01*
X120920Y128322D01*
Y131759D01*
X121679D01*
Y140338D01*
X118121D01*
Y131759D01*
X118880D01*
Y128736D01*
X118419Y128545D01*
X115920Y131044D01*
Y131759D01*
X116680D01*
Y140338D01*
X113120D01*
Y131759D01*
X113880D01*
Y130621D01*
X113958Y130231D01*
X114179Y129900D01*
X114498Y129581D01*
X114306Y129120D01*
X112622D01*
X110920Y130822D01*
Y131759D01*
X111679D01*
Y140338D01*
X108121D01*
Y131759D01*
X108880D01*
Y130822D01*
X107178Y129120D01*
X104400D01*
X104010Y129042D01*
X103679Y128821D01*
X103479Y128522D01*
X102050Y127092D01*
X100321Y128821D01*
X99990Y129042D01*
X99600Y129120D01*
X69222D01*
X66520Y131822D01*
Y145143D01*
X67476D01*
Y151065D01*
X63524D01*
Y145143D01*
X64480D01*
Y131400D01*
X64558Y131010D01*
X64779Y130679D01*
X68079Y127379D01*
X68410Y127158D01*
X68800Y127080D01*
X99178D01*
X101030Y125228D01*
Y120294D01*
X99542D01*
Y113506D01*
X104558D01*
Y120294D01*
X103069D01*
Y125228D01*
X104922Y127080D01*
X107600D01*
X107990Y127158D01*
X108321Y127379D01*
X109900Y128958D01*
X111479Y127379D01*
X111810Y127158D01*
X112200Y127080D01*
X114778D01*
X133280Y108578D01*
Y106714D01*
X132804Y106396D01*
X132560Y106030D01*
X132350Y106022D01*
X132000Y106092D01*
X131596Y106696D01*
X130910Y107154D01*
X130100Y107316D01*
X129290Y107154D01*
X128604Y106696D01*
X128286Y106220D01*
X36608D01*
Y108456D01*
X31474Y108456D01*
X31420Y108933D01*
Y167400D01*
X31474Y167877D01*
X31920Y167877D01*
X36608D01*
Y170114D01*
X48286D01*
X48604Y169638D01*
X49290Y169179D01*
X50100Y169018D01*
X50910Y169179D01*
X51596Y169638D01*
X52054Y170324D01*
X52215Y171133D01*
X52054Y171943D01*
X51596Y172629D01*
X50910Y173088D01*
X50100Y173249D01*
X49290Y173088D01*
X48604Y172629D01*
X48286Y172153D01*
X36608D01*
Y174389D01*
X31474Y174389D01*
X31420Y174867D01*
Y233333D01*
X31474Y233811D01*
X31920Y233811D01*
X36608D01*
Y236047D01*
X48286D01*
X48604Y235571D01*
X49290Y235112D01*
X50100Y234951D01*
X50910Y235112D01*
X51596Y235571D01*
X52054Y236257D01*
X52215Y237067D01*
X52054Y237876D01*
X51596Y238562D01*
X50910Y239021D01*
X50100Y239182D01*
X49290Y239021D01*
X48604Y238562D01*
X48286Y238086D01*
X36608D01*
Y240323D01*
X31474Y240323D01*
X31420Y240800D01*
Y253278D01*
X33022Y254880D01*
X53865D01*
X54255Y254958D01*
X54585Y255179D01*
X56032Y256626D01*
X57579Y255079D01*
X57910Y254858D01*
X58300Y254780D01*
X75368D01*
X75758Y254858D01*
X76089Y255079D01*
X77734Y256724D01*
X79379Y255079D01*
X79710Y254858D01*
X80100Y254780D01*
X110700D01*
X111090Y254858D01*
X111421Y255079D01*
X112900Y256558D01*
X114379Y255079D01*
X114710Y254858D01*
X115100Y254780D01*
X118900D01*
X119290Y254858D01*
X119621Y255079D01*
X121137Y256595D01*
X122654Y255079D01*
X122985Y254858D01*
X123375Y254780D01*
X140600D01*
X140990Y254858D01*
X141321Y255079D01*
X142800Y256558D01*
X144279Y255079D01*
X144610Y254858D01*
X145000Y254780D01*
X176478D01*
X177680Y253578D01*
Y239200D01*
X177758Y238810D01*
X177979Y238479D01*
X181379Y235079D01*
X181710Y234858D01*
X182100Y234780D01*
X211400D01*
X211790Y234858D01*
X212121Y235079D01*
X213177Y236135D01*
X214233Y235079D01*
X214564Y234858D01*
X214954Y234780D01*
X237000D01*
X237390Y234858D01*
X237721Y235079D01*
X241821Y239179D01*
X242042Y239510D01*
X242120Y239900D01*
Y283983D01*
X243869Y285733D01*
X253346D01*
Y284383D01*
X260054D01*
Y289123D01*
X253346D01*
Y287772D01*
X243869D01*
X240471Y291171D01*
X240616Y291900D01*
X240454Y292709D01*
X239996Y293396D01*
X239420Y293781D01*
Y296471D01*
X240396D01*
Y302471D01*
X236404D01*
Y300490D01*
X235396D01*
Y302471D01*
X231404D01*
Y300490D01*
X230396D01*
Y302471D01*
X226404D01*
Y300490D01*
X225396D01*
Y302471D01*
X221404D01*
Y296844D01*
X206131D01*
Y297161D01*
X202375D01*
Y294488D01*
X202375D01*
Y294011D01*
X202375D01*
Y291338D01*
X202375D01*
Y290862D01*
X202375D01*
Y288189D01*
X202375D01*
Y287712D01*
X202375D01*
Y285039D01*
X206131D01*
Y285356D01*
X220831D01*
X221404Y284783D01*
Y280329D01*
X222380D01*
Y277614D01*
X221904Y277296D01*
X221446Y276609D01*
X221285Y275800D01*
X221446Y274991D01*
X221904Y274304D01*
X222590Y273846D01*
X223400Y273685D01*
X224209Y273846D01*
X224896Y274304D01*
X225354Y274991D01*
X225516Y275800D01*
X225354Y276609D01*
X224896Y277296D01*
X224420Y277614D01*
Y280329D01*
X225396D01*
Y285548D01*
X225858Y285739D01*
X226404Y285194D01*
Y280329D01*
X227380D01*
Y277614D01*
X226904Y277296D01*
X226446Y276609D01*
X226285Y275800D01*
X226446Y274991D01*
X226904Y274304D01*
X227590Y273846D01*
X228400Y273685D01*
X229209Y273846D01*
X229896Y274304D01*
X230354Y274991D01*
X230516Y275800D01*
X230354Y276609D01*
X229896Y277296D01*
X229420Y277614D01*
Y280329D01*
X230396D01*
Y285548D01*
X230858Y285739D01*
X231404Y285194D01*
Y280329D01*
X232380D01*
Y277614D01*
X231904Y277296D01*
X231446Y276609D01*
X231284Y275800D01*
X231446Y274991D01*
X231904Y274304D01*
X232591Y273846D01*
X233400Y273685D01*
X234209Y273846D01*
X234896Y274304D01*
X235354Y274991D01*
X235515Y275800D01*
X235354Y276609D01*
X234896Y277296D01*
X234420Y277614D01*
Y280329D01*
X235396D01*
Y285548D01*
X235858Y285739D01*
X236404Y285194D01*
Y280329D01*
X237380D01*
Y277614D01*
X236904Y277296D01*
X236446Y276609D01*
X236284Y275800D01*
X236446Y274991D01*
X236904Y274304D01*
X237591Y273846D01*
X238400Y273685D01*
X239210Y273846D01*
X239580Y274093D01*
X240080Y273826D01*
Y240322D01*
X236578Y236820D01*
X215377D01*
X214197Y238000D01*
Y240020D01*
X216679D01*
Y240780D01*
X217050D01*
X217440Y240858D01*
X217771Y241079D01*
X220334Y243642D01*
X225194D01*
Y248658D01*
X218406D01*
Y244599D01*
X217141Y243333D01*
X216679Y243525D01*
Y243580D01*
X209675D01*
Y240020D01*
X212158D01*
Y238000D01*
X210978Y236820D01*
X182522D01*
X179720Y239622D01*
Y248085D01*
X180182Y248276D01*
X182379Y246079D01*
X182710Y245858D01*
X183100Y245780D01*
X188321D01*
Y245021D01*
X195325D01*
Y248580D01*
X188321D01*
Y247820D01*
X183522D01*
X181320Y250022D01*
Y263578D01*
X182522Y264780D01*
X196543D01*
Y262406D01*
X201558D01*
Y269194D01*
X196543D01*
Y266820D01*
X182622D01*
X181420Y268022D01*
Y357400D01*
X181342Y357790D01*
X181121Y358121D01*
X178260Y360982D01*
X177929Y361203D01*
X177539Y361280D01*
X162402D01*
X162042Y362151D01*
X161441Y362934D01*
X160658Y363534D01*
X159746Y363912D01*
X158768Y364041D01*
X157789Y363912D01*
X156878Y363534D01*
X156095Y362934D01*
X155494Y362151D01*
X155116Y361239D01*
X154987Y360261D01*
X155116Y359282D01*
X155477Y358412D01*
X151679Y354614D01*
X151458Y354283D01*
X151380Y353893D01*
Y309507D01*
X144826D01*
Y306068D01*
X143674Y304916D01*
X143174Y305123D01*
Y309507D01*
X136466D01*
Y305908D01*
X135678Y305120D01*
X134814D01*
Y309507D01*
X132480D01*
Y342373D01*
X147076Y356970D01*
X147947Y356609D01*
X148925Y356480D01*
X149904Y356609D01*
X150815Y356987D01*
X151598Y357588D01*
X152199Y358370D01*
X152577Y359282D01*
X152706Y360261D01*
X152577Y361239D01*
X152199Y362151D01*
X151598Y362934D01*
X150815Y363534D01*
X149904Y363912D01*
X148925Y364041D01*
X147947Y363912D01*
X147035Y363534D01*
X146252Y362934D01*
X145651Y362151D01*
X145274Y361239D01*
X145145Y360261D01*
X145274Y359282D01*
X145634Y358412D01*
X130739Y343516D01*
X130518Y343186D01*
X130440Y342795D01*
Y309507D01*
X128106D01*
Y304767D01*
X128106Y304767D01*
X128106D01*
X127906Y304348D01*
X125191Y301633D01*
X119746D01*
Y296893D01*
X122080D01*
Y279900D01*
X122158Y279510D01*
X122379Y279179D01*
X123897Y277661D01*
Y272596D01*
X123137D01*
Y266872D01*
X125386D01*
X127430Y264828D01*
X127223Y264328D01*
X126917D01*
Y258604D01*
X130476D01*
Y260447D01*
X135642D01*
X136004Y259904D01*
X136690Y259446D01*
X137500Y259284D01*
X138310Y259446D01*
X138996Y259904D01*
X139454Y260591D01*
X139615Y261400D01*
X139454Y262210D01*
X138996Y262896D01*
X138310Y263354D01*
X137500Y263515D01*
X136690Y263354D01*
X136004Y262896D01*
X135730Y262486D01*
X130476D01*
Y264180D01*
X141060D01*
Y258604D01*
X141255D01*
X141462Y258104D01*
X140178Y256820D01*
X123797D01*
X122513Y258104D01*
X122720Y258604D01*
X122917D01*
Y264328D01*
X119358D01*
Y258604D01*
X119555D01*
X119762Y258104D01*
X118478Y256820D01*
X115522D01*
X113920Y258422D01*
Y304000D01*
X113842Y304390D01*
X113621Y304721D01*
X110484Y307858D01*
X110153Y308079D01*
X109763Y308157D01*
X104154D01*
Y309507D01*
X97446D01*
Y308157D01*
X95694D01*
Y309507D01*
X89220D01*
Y348670D01*
X97302Y356752D01*
X97331Y356730D01*
X98315Y356323D01*
X99370Y356184D01*
X100426Y356323D01*
X101409Y356730D01*
X102254Y357379D01*
X102902Y358223D01*
X103309Y359207D01*
X103448Y360262D01*
X103309Y361318D01*
X102902Y362301D01*
X102254Y363146D01*
X101409Y363794D01*
X100426Y364201D01*
X99370Y364340D01*
D02*
G37*
G36*
X79685D02*
X78629Y364201D01*
X77646Y363794D01*
X76801Y363146D01*
X76153Y362301D01*
X75746Y361318D01*
X75607Y360262D01*
X75746Y359207D01*
X76153Y358223D01*
X76175Y358194D01*
X57779Y339798D01*
X57558Y339467D01*
X57480Y339077D01*
Y309507D01*
X55146D01*
Y304767D01*
X61854D01*
Y309507D01*
X59520D01*
Y338655D01*
X77617Y356752D01*
X77646Y356730D01*
X78629Y356323D01*
X79685Y356184D01*
X80740Y356323D01*
X81724Y356730D01*
X82569Y357379D01*
X83217Y358223D01*
X83624Y359207D01*
X83763Y360262D01*
X83624Y361318D01*
X83217Y362301D01*
X82569Y363146D01*
X81724Y363794D01*
X80740Y364201D01*
X79685Y364340D01*
D02*
G37*
G36*
X69842D02*
X68787Y364201D01*
X67803Y363794D01*
X66959Y363146D01*
X66311Y362301D01*
X65903Y361318D01*
X65764Y360262D01*
X65903Y359207D01*
X66311Y358223D01*
X66959Y357379D01*
X67803Y356730D01*
X68787Y356323D01*
X69842Y356184D01*
X70898Y356323D01*
X71882Y356730D01*
X72726Y357379D01*
X73374Y358223D01*
X73782Y359207D01*
X73921Y360262D01*
X73782Y361318D01*
X73374Y362301D01*
X72726Y363146D01*
X71882Y363794D01*
X70898Y364201D01*
X69842Y364340D01*
D02*
G37*
G36*
X198339Y359761D02*
X194591D01*
Y356013D01*
X198339D01*
Y359761D01*
D02*
G37*
G36*
X193591D02*
X189843D01*
Y356013D01*
X193591D01*
Y359761D01*
D02*
G37*
G36*
X128740D02*
X124992D01*
Y356013D01*
X128740D01*
Y359761D01*
D02*
G37*
G36*
X64517Y359762D02*
X60500D01*
Y355746D01*
X61186Y355836D01*
X62291Y356294D01*
X63240Y357022D01*
X63969Y357971D01*
X64426Y359076D01*
X64517Y359762D01*
D02*
G37*
G36*
X59500D02*
X55483D01*
X55574Y359076D01*
X56031Y357971D01*
X56760Y357022D01*
X57709Y356294D01*
X58814Y355836D01*
X59500Y355746D01*
Y359762D01*
D02*
G37*
G36*
X333752Y358523D02*
Y355300D01*
X336974D01*
X336911Y355781D01*
X336533Y356694D01*
X335931Y357479D01*
X335146Y358081D01*
X334232Y358459D01*
X333752Y358523D01*
D02*
G37*
G36*
X332752D02*
X332272Y358459D01*
X331358Y358081D01*
X330573Y357479D01*
X329971Y356694D01*
X329593Y355781D01*
X329530Y355300D01*
X332752D01*
Y358523D01*
D02*
G37*
G36*
X317504Y358084D02*
X316654Y357972D01*
X315862Y357644D01*
X315182Y357122D01*
X314660Y356442D01*
X314332Y355650D01*
X314220Y354800D01*
X314332Y353950D01*
X314660Y353158D01*
X315182Y352478D01*
X315862Y351956D01*
X316654Y351628D01*
X317504Y351516D01*
X318354Y351628D01*
X319146Y351956D01*
X319826Y352478D01*
X320348Y353158D01*
X320676Y353950D01*
X320788Y354800D01*
X320676Y355650D01*
X320348Y356442D01*
X319826Y357122D01*
X319146Y357644D01*
X318354Y357972D01*
X317504Y358084D01*
D02*
G37*
G36*
X336974Y354300D02*
X333752D01*
Y351078D01*
X334232Y351141D01*
X335146Y351519D01*
X335931Y352121D01*
X336533Y352906D01*
X336911Y353819D01*
X336974Y354300D01*
D02*
G37*
G36*
X332752D02*
X329530D01*
X329593Y353819D01*
X329971Y352906D01*
X330573Y352121D01*
X331358Y351519D01*
X332272Y351141D01*
X332752Y351078D01*
Y354300D01*
D02*
G37*
G36*
X304224Y352038D02*
Y347426D01*
X308837D01*
X308726Y348266D01*
X308209Y349515D01*
X307386Y350588D01*
X306313Y351410D01*
X305065Y351928D01*
X304224Y352038D01*
D02*
G37*
G36*
X303224D02*
X302384Y351928D01*
X301135Y351410D01*
X300063Y350588D01*
X299240Y349515D01*
X298723Y348266D01*
X298612Y347426D01*
X303224D01*
Y352038D01*
D02*
G37*
G36*
X308837Y346426D02*
X304224D01*
Y341814D01*
X305065Y341924D01*
X306313Y342442D01*
X307386Y343265D01*
X308209Y344337D01*
X308726Y345586D01*
X308837Y346426D01*
D02*
G37*
G36*
X303224D02*
X298612D01*
X298723Y345586D01*
X299240Y344337D01*
X300063Y343265D01*
X301135Y342442D01*
X302384Y341924D01*
X303224Y341814D01*
Y346426D01*
D02*
G37*
G36*
X36903Y343044D02*
Y339790D01*
X40157D01*
X40093Y340279D01*
X39712Y341200D01*
X39105Y341991D01*
X38313Y342598D01*
X37392Y342980D01*
X36903Y343044D01*
D02*
G37*
G36*
X35903D02*
X35415Y342980D01*
X34493Y342598D01*
X33702Y341991D01*
X33095Y341200D01*
X32713Y340279D01*
X32649Y339790D01*
X35903D01*
Y343044D01*
D02*
G37*
G36*
X40157Y338790D02*
X36903D01*
Y335536D01*
X37392Y335600D01*
X38313Y335982D01*
X39105Y336589D01*
X39712Y337380D01*
X40093Y338301D01*
X40157Y338790D01*
D02*
G37*
G36*
X35903D02*
X32649D01*
X32713Y338301D01*
X33095Y337380D01*
X33702Y336589D01*
X34493Y335982D01*
X35415Y335600D01*
X35903Y335536D01*
Y338790D01*
D02*
G37*
G36*
X272532Y364060D02*
X265036D01*
Y356564D01*
X267764D01*
Y331077D01*
X265488D01*
Y329530D01*
X260054D01*
Y331707D01*
X253346D01*
Y326180D01*
X260054D01*
Y327491D01*
X265488D01*
Y325943D01*
X272079D01*
Y331077D01*
X269803D01*
Y356564D01*
X272532D01*
Y364060D01*
D02*
G37*
G36*
X331397Y330934D02*
Y328075D01*
X334256D01*
X334205Y328461D01*
X333863Y329287D01*
X333319Y329997D01*
X332610Y330541D01*
X331783Y330883D01*
X331397Y330934D01*
D02*
G37*
G36*
X330397Y330934D02*
X330011Y330883D01*
X329185Y330541D01*
X328475Y329997D01*
X327931Y329287D01*
X327589Y328461D01*
X327538Y328075D01*
X330397D01*
Y330934D01*
D02*
G37*
G36*
X278626Y364093D02*
X277648Y363964D01*
X276736Y363586D01*
X275953Y362985D01*
X275352Y362202D01*
X274975Y361291D01*
X274846Y360312D01*
X274975Y359334D01*
X275352Y358422D01*
X275953Y357639D01*
X276736Y357038D01*
X277607Y356678D01*
Y331707D01*
X275272D01*
Y326180D01*
X281980D01*
Y327924D01*
X287005D01*
Y325943D01*
X293595D01*
Y331077D01*
X287005D01*
Y329963D01*
X281980D01*
Y331707D01*
X279646D01*
Y356678D01*
X280516Y357038D01*
X281299Y357639D01*
X281900Y358422D01*
X282278Y359334D01*
X282406Y360312D01*
X282278Y361291D01*
X281900Y362202D01*
X281299Y362985D01*
X280516Y363586D01*
X279605Y363964D01*
X278626Y364093D01*
D02*
G37*
G36*
X350897Y330496D02*
X350141Y330396D01*
X349437Y330104D01*
X348832Y329640D01*
X348368Y329035D01*
X348076Y328331D01*
X347976Y327575D01*
X348076Y326819D01*
X348258Y326378D01*
X340176Y318296D01*
X339955Y317965D01*
X339877Y317575D01*
Y300287D01*
X339437Y300104D01*
X338832Y299640D01*
X338368Y299035D01*
X338076Y298331D01*
X337976Y297575D01*
X338076Y296819D01*
X338368Y296114D01*
X338832Y295510D01*
X339437Y295045D01*
X340141Y294754D01*
X340897Y294654D01*
X341653Y294754D01*
X342357Y295045D01*
X342962Y295510D01*
X343426Y296114D01*
X343718Y296819D01*
X343818Y297575D01*
X343718Y298331D01*
X343426Y299035D01*
X342962Y299640D01*
X342357Y300104D01*
X341917Y300287D01*
Y317153D01*
X349700Y324936D01*
X350141Y324754D01*
X350897Y324654D01*
X351653Y324754D01*
X352357Y325045D01*
X352962Y325510D01*
X353426Y326115D01*
X353718Y326819D01*
X353818Y327575D01*
X353718Y328331D01*
X353426Y329035D01*
X352962Y329640D01*
X352357Y330104D01*
X351653Y330396D01*
X350897Y330496D01*
D02*
G37*
G36*
X330397Y327075D02*
X327538D01*
X327589Y326688D01*
X327931Y325862D01*
X328475Y325153D01*
X329185Y324609D01*
X330011Y324267D01*
X330397Y324216D01*
Y327075D01*
D02*
G37*
G36*
X334256D02*
X331397D01*
Y324216D01*
X331783Y324267D01*
X332610Y324609D01*
X333319Y325153D01*
X333863Y325862D01*
X334205Y326688D01*
X334256Y327075D01*
D02*
G37*
G36*
X319294Y325258D02*
X315900D01*
Y322750D01*
X319294D01*
Y325258D01*
D02*
G37*
G36*
X314900D02*
X311506D01*
Y322750D01*
X314900D01*
Y325258D01*
D02*
G37*
G36*
X203933Y364041D02*
X202955Y363912D01*
X202043Y363534D01*
X201260Y362934D01*
X200659Y362151D01*
X200282Y361239D01*
X200153Y360261D01*
X200282Y359282D01*
X200659Y358370D01*
X201260Y357588D01*
X202043Y356987D01*
X202955Y356609D01*
X203080Y356592D01*
Y323514D01*
X202604Y323196D01*
X202286Y322720D01*
X196461D01*
Y324365D01*
X189555D01*
Y319035D01*
X196461D01*
Y320680D01*
X202286D01*
X202604Y320204D01*
X203291Y319746D01*
X204100Y319584D01*
X204909Y319746D01*
X205596Y320204D01*
X206054Y320890D01*
X206216Y321700D01*
X206054Y322510D01*
X205596Y323196D01*
X205120Y323514D01*
Y356695D01*
X205823Y356987D01*
X206606Y357588D01*
X207207Y358370D01*
X207585Y359282D01*
X207714Y360261D01*
X207585Y361239D01*
X207207Y362151D01*
X206606Y362934D01*
X205823Y363534D01*
X204912Y363912D01*
X203933Y364041D01*
D02*
G37*
G36*
X260554Y325120D02*
X257200D01*
Y322357D01*
X260554D01*
Y325120D01*
D02*
G37*
G36*
X282481D02*
X279126D01*
Y322357D01*
X282481D01*
Y325120D01*
D02*
G37*
G36*
X278126D02*
X274772D01*
Y322357D01*
X278126D01*
Y325120D01*
D02*
G37*
G36*
X256200D02*
X252846D01*
Y322357D01*
X256200D01*
Y325120D01*
D02*
G37*
G36*
X319294Y321750D02*
X315900D01*
Y319243D01*
X319294D01*
Y321750D01*
D02*
G37*
G36*
X314900D02*
X311506D01*
Y319243D01*
X314900D01*
Y321750D01*
D02*
G37*
G36*
X231500Y324365D02*
X224595D01*
Y319035D01*
X231500D01*
Y320680D01*
X239546D01*
Y319072D01*
X246254D01*
Y324009D01*
X239546D01*
Y322720D01*
X231500D01*
Y324365D01*
D02*
G37*
G36*
X282481Y321357D02*
X279126D01*
Y318593D01*
X282481D01*
Y321357D01*
D02*
G37*
G36*
X278126D02*
X274772D01*
Y318593D01*
X278126D01*
Y321357D01*
D02*
G37*
G36*
X260554D02*
X257200D01*
Y318593D01*
X260554D01*
Y321357D01*
D02*
G37*
G36*
X256200D02*
X252846D01*
Y318593D01*
X256200D01*
Y321357D01*
D02*
G37*
G36*
X213776Y364041D02*
X212797Y363912D01*
X211885Y363534D01*
X211103Y362934D01*
X210502Y362151D01*
X210124Y361239D01*
X209995Y360261D01*
X210124Y359282D01*
X210502Y358370D01*
X211103Y357588D01*
X211885Y356987D01*
X212756Y356626D01*
Y315874D01*
X212280Y315556D01*
X211821Y314869D01*
X211660Y314060D01*
X211821Y313250D01*
X212280Y312564D01*
X212966Y312105D01*
X213776Y311944D01*
X214585Y312105D01*
X215271Y312564D01*
X215590Y313040D01*
X239546D01*
Y311591D01*
X246254D01*
Y316528D01*
X239546D01*
Y315079D01*
X215590D01*
X215271Y315556D01*
X214795Y315874D01*
Y356626D01*
X215666Y356987D01*
X216449Y357588D01*
X217050Y358370D01*
X217427Y359282D01*
X217556Y360261D01*
X217427Y361239D01*
X217050Y362151D01*
X216449Y362934D01*
X215666Y363534D01*
X214754Y363912D01*
X213776Y364041D01*
D02*
G37*
G36*
X36608Y306256D02*
X31474D01*
Y299744D01*
X36608D01*
Y301980D01*
X48286D01*
X48604Y301504D01*
X49290Y301046D01*
X50100Y300885D01*
X50910Y301046D01*
X51596Y301504D01*
X52054Y302190D01*
X52215Y303000D01*
X52054Y303809D01*
X51596Y304496D01*
X50910Y304954D01*
X50100Y305115D01*
X49290Y304954D01*
X48604Y304496D01*
X48286Y304020D01*
X36608D01*
Y306256D01*
D02*
G37*
G36*
X29848Y342578D02*
X23273D01*
Y336003D01*
X25541D01*
Y306256D01*
X23994D01*
Y299744D01*
X29128D01*
Y306256D01*
X27580D01*
Y336003D01*
X29848D01*
Y342578D01*
D02*
G37*
G36*
X200725Y297661D02*
X198847D01*
Y296324D01*
X200725D01*
Y297661D01*
D02*
G37*
G36*
X197847D02*
X195969D01*
Y296324D01*
X197847D01*
Y297661D01*
D02*
G37*
G36*
X200725Y295324D02*
X195969D01*
Y293988D01*
Y293175D01*
X200725D01*
Y293988D01*
Y295324D01*
D02*
G37*
G36*
Y292175D02*
X195969D01*
Y290838D01*
Y290025D01*
X200725D01*
Y290838D01*
Y292175D01*
D02*
G37*
G36*
Y289025D02*
X195969D01*
Y287689D01*
Y286876D01*
X200725D01*
Y287689D01*
Y289025D01*
D02*
G37*
G36*
Y285876D02*
X198847D01*
Y284539D01*
X200725D01*
Y285876D01*
D02*
G37*
G36*
X197847D02*
X195969D01*
Y284539D01*
X197847D01*
Y285876D01*
D02*
G37*
G36*
X308194Y283461D02*
X304800D01*
Y280954D01*
X308194D01*
Y283461D01*
D02*
G37*
G36*
X303800D02*
X300406D01*
Y280954D01*
X303800D01*
Y283461D01*
D02*
G37*
G36*
X297654Y282930D02*
X294300D01*
Y280166D01*
X297654D01*
Y282930D01*
D02*
G37*
G36*
X293300D02*
X289946D01*
Y280166D01*
X293300D01*
Y282930D01*
D02*
G37*
G36*
X308194Y279954D02*
X304800D01*
Y277446D01*
X308194D01*
Y279954D01*
D02*
G37*
G36*
X303800D02*
X300406D01*
Y277446D01*
X303800D01*
Y279954D01*
D02*
G37*
G36*
X297654Y279166D02*
X294300D01*
Y276402D01*
X297654D01*
Y279166D01*
D02*
G37*
G36*
X293300D02*
X289946D01*
Y276402D01*
X293300D01*
Y279166D01*
D02*
G37*
G36*
X36903Y277099D02*
Y273845D01*
X40157D01*
X40093Y274334D01*
X39712Y275255D01*
X39105Y276046D01*
X38313Y276653D01*
X37392Y277035D01*
X36903Y277099D01*
D02*
G37*
G36*
X35903D02*
X35415Y277035D01*
X34493Y276653D01*
X33702Y276046D01*
X33095Y275255D01*
X32713Y274334D01*
X32649Y273845D01*
X35903D01*
Y277099D01*
D02*
G37*
G36*
X260054Y281249D02*
X253346D01*
Y276509D01*
X255680D01*
Y276200D01*
X255758Y275810D01*
X255979Y275479D01*
X257979Y273479D01*
X258310Y273258D01*
X258700Y273180D01*
X263386D01*
X263704Y272704D01*
X264390Y272246D01*
X265200Y272084D01*
X266009Y272246D01*
X266696Y272704D01*
X267154Y273391D01*
X267316Y274200D01*
X267154Y275009D01*
X266696Y275696D01*
X266009Y276154D01*
X265200Y276315D01*
X264390Y276154D01*
X263704Y275696D01*
X263386Y275220D01*
X259122D01*
X258295Y276047D01*
X258487Y276509D01*
X260054D01*
Y281249D01*
D02*
G37*
G36*
X319527Y273656D02*
X316960D01*
Y270400D01*
X319527D01*
Y273656D01*
D02*
G37*
G36*
X315960D02*
X313393D01*
Y270400D01*
X315960D01*
Y273656D01*
D02*
G37*
G36*
X40157Y272845D02*
X36903D01*
Y269591D01*
X37392Y269655D01*
X38313Y270037D01*
X39105Y270644D01*
X39712Y271435D01*
X40093Y272356D01*
X40157Y272845D01*
D02*
G37*
G36*
X35903D02*
X32649D01*
X32713Y272356D01*
X33095Y271435D01*
X33702Y270644D01*
X34493Y270037D01*
X35415Y269655D01*
X35903Y269591D01*
Y272845D01*
D02*
G37*
G36*
X208358Y269694D02*
X205850D01*
Y266300D01*
X208358D01*
Y269694D01*
D02*
G37*
G36*
X204850D02*
X202342D01*
Y266300D01*
X204850D01*
Y269694D01*
D02*
G37*
G36*
X319527Y269400D02*
X316960D01*
Y266144D01*
X319527D01*
Y269400D01*
D02*
G37*
G36*
X315960D02*
X313393D01*
Y266144D01*
X315960D01*
Y269400D01*
D02*
G37*
G36*
X208358Y265300D02*
X205850D01*
Y261906D01*
X208358D01*
Y265300D01*
D02*
G37*
G36*
X204850D02*
X202342D01*
Y261906D01*
X204850D01*
Y265300D01*
D02*
G37*
G36*
X361281Y271239D02*
X360064Y271119D01*
X358894Y270764D01*
X357815Y270187D01*
X356870Y269411D01*
X356094Y268466D01*
X355517Y267387D01*
X355162Y266217D01*
X355042Y265000D01*
X355162Y263783D01*
X355517Y262613D01*
X356094Y261534D01*
X356870Y260589D01*
X357815Y259813D01*
X358894Y259236D01*
X360064Y258881D01*
X361281Y258761D01*
X362498Y258881D01*
X363669Y259236D01*
X364747Y259813D01*
X365692Y260589D01*
X366468Y261534D01*
X367045Y262613D01*
X367400Y263783D01*
X367520Y265000D01*
X367400Y266217D01*
X367045Y267387D01*
X366468Y268466D01*
X365692Y269411D01*
X364747Y270187D01*
X363669Y270764D01*
X362498Y271119D01*
X361281Y271239D01*
D02*
G37*
G36*
X198600Y258615D02*
X197791Y258454D01*
X197104Y257996D01*
X196786Y257520D01*
X195325D01*
Y258579D01*
X188321D01*
Y255020D01*
X195325D01*
Y255480D01*
X196786D01*
X197104Y255004D01*
X197791Y254546D01*
X198600Y254384D01*
X199409Y254546D01*
X200096Y255004D01*
X200554Y255691D01*
X200715Y256500D01*
X200554Y257310D01*
X200096Y257996D01*
X199409Y258454D01*
X198600Y258615D01*
D02*
G37*
G36*
X217179Y259080D02*
X213677D01*
Y257300D01*
X217179D01*
Y259080D01*
D02*
G37*
G36*
X212677D02*
X209175D01*
Y257300D01*
X212677D01*
Y259080D01*
D02*
G37*
G36*
X217179Y256300D02*
X213677D01*
Y254521D01*
X217179D01*
Y256300D01*
D02*
G37*
G36*
X212677D02*
X209175D01*
Y254521D01*
X212677D01*
Y256300D01*
D02*
G37*
G36*
X225694Y255457D02*
X222300D01*
Y252950D01*
X225694D01*
Y255457D01*
D02*
G37*
G36*
X221300D02*
X217906D01*
Y252950D01*
X221300D01*
Y255457D01*
D02*
G37*
G36*
X195825Y254080D02*
X192323D01*
Y252300D01*
X195825D01*
Y254080D01*
D02*
G37*
G36*
X191323D02*
X187821D01*
Y252300D01*
X191323D01*
Y254080D01*
D02*
G37*
G36*
X204100Y254015D02*
X203291Y253854D01*
X202604Y253396D01*
X202146Y252710D01*
X201985Y251900D01*
X202146Y251091D01*
X202604Y250404D01*
X203291Y249946D01*
X204100Y249784D01*
X204909Y249946D01*
X205596Y250404D01*
X205914Y250880D01*
X209675D01*
Y250021D01*
X216679D01*
Y253579D01*
X209675D01*
Y252920D01*
X205914D01*
X205596Y253396D01*
X204909Y253854D01*
X204100Y254015D01*
D02*
G37*
G36*
X195825Y251300D02*
X192323D01*
Y249520D01*
X195825D01*
Y251300D01*
D02*
G37*
G36*
X191323D02*
X187821D01*
Y249520D01*
X191323D01*
Y251300D01*
D02*
G37*
G36*
X225694Y251950D02*
X222300D01*
Y249442D01*
X225694D01*
Y251950D01*
D02*
G37*
G36*
X221300D02*
X217906D01*
Y249442D01*
X221300D01*
Y251950D01*
D02*
G37*
G36*
X363280Y252804D02*
Y248192D01*
X367892D01*
X367781Y249032D01*
X367264Y250281D01*
X366441Y251353D01*
X365369Y252176D01*
X364120Y252693D01*
X363280Y252804D01*
D02*
G37*
G36*
X362280D02*
X361439Y252693D01*
X360190Y252176D01*
X359118Y251353D01*
X358295Y250281D01*
X357778Y249032D01*
X357667Y248192D01*
X362280D01*
Y252804D01*
D02*
G37*
G36*
X206700Y248715D02*
X205890Y248554D01*
X205204Y248096D01*
X204746Y247410D01*
X204585Y246600D01*
X204746Y245791D01*
X205204Y245104D01*
X205890Y244646D01*
X206700Y244484D01*
X207509Y244646D01*
X208196Y245104D01*
X208514Y245580D01*
X209675D01*
Y245021D01*
X216679D01*
Y248580D01*
X209675D01*
Y247620D01*
X208514D01*
X208196Y248096D01*
X207509Y248554D01*
X206700Y248715D01*
D02*
G37*
G36*
X203900Y243916D02*
X203091Y243754D01*
X202404Y243296D01*
X202086Y242820D01*
X195325D01*
Y243580D01*
X188321D01*
Y240020D01*
X195325D01*
Y240780D01*
X202086D01*
X202404Y240304D01*
X203091Y239846D01*
X203900Y239685D01*
X204710Y239846D01*
X205396Y240304D01*
X205854Y240990D01*
X206015Y241800D01*
X205854Y242610D01*
X205396Y243296D01*
X204710Y243754D01*
X203900Y243916D01*
D02*
G37*
G36*
X367892Y247192D02*
X363280D01*
Y242579D01*
X364120Y242690D01*
X365369Y243207D01*
X366441Y244030D01*
X367264Y245103D01*
X367781Y246352D01*
X367892Y247192D01*
D02*
G37*
G36*
X362280D02*
X357667D01*
X357778Y246352D01*
X358295Y245103D01*
X359118Y244030D01*
X360190Y243207D01*
X361439Y242690D01*
X362280Y242579D01*
Y247192D01*
D02*
G37*
G36*
X333752Y234879D02*
Y231656D01*
X336974D01*
X336911Y232137D01*
X336533Y233050D01*
X335931Y233835D01*
X335146Y234437D01*
X334232Y234816D01*
X333752Y234879D01*
D02*
G37*
G36*
X332752D02*
X332272Y234816D01*
X331358Y234437D01*
X330573Y233835D01*
X329971Y233050D01*
X329593Y232137D01*
X329530Y231656D01*
X332752D01*
Y234879D01*
D02*
G37*
G36*
X286558Y232794D02*
X284050D01*
Y229400D01*
X286558D01*
Y232794D01*
D02*
G37*
G36*
X283050D02*
X280542D01*
Y229400D01*
X283050D01*
Y232794D01*
D02*
G37*
G36*
X293007Y249056D02*
X287873D01*
Y242544D01*
X289421D01*
Y240760D01*
X289498Y240370D01*
X289719Y240039D01*
X291158Y238600D01*
X289129Y236571D01*
X288908Y236240D01*
X288830Y235850D01*
Y232294D01*
X287342D01*
Y225506D01*
X292357D01*
Y232294D01*
X290869D01*
Y235427D01*
X293122Y237680D01*
X341034D01*
X346086Y232629D01*
X345828Y232006D01*
X345716Y231156D01*
X345828Y230306D01*
X346156Y229514D01*
X346678Y228834D01*
X347358Y228312D01*
X348150Y227984D01*
X349000Y227872D01*
X349850Y227984D01*
X350642Y228312D01*
X351322Y228834D01*
X351844Y229514D01*
X352172Y230306D01*
X352284Y231156D01*
X352172Y232006D01*
X351844Y232798D01*
X351322Y233478D01*
X350642Y234000D01*
X349850Y234328D01*
X349000Y234440D01*
X348150Y234328D01*
X347528Y234071D01*
X342177Y239421D01*
X341846Y239642D01*
X341456Y239720D01*
X292922D01*
X291460Y241182D01*
Y242544D01*
X293007D01*
Y249056D01*
D02*
G37*
G36*
X317504Y234440D02*
X316654Y234328D01*
X315862Y234000D01*
X315182Y233478D01*
X314660Y232798D01*
X314332Y232006D01*
X314220Y231156D01*
X314332Y230306D01*
X314660Y229514D01*
X315182Y228834D01*
X315862Y228312D01*
X316654Y227984D01*
X317504Y227872D01*
X318354Y227984D01*
X319146Y228312D01*
X319826Y228834D01*
X320348Y229514D01*
X320676Y230306D01*
X320788Y231156D01*
X320676Y232006D01*
X320348Y232798D01*
X319826Y233478D01*
X319146Y234000D01*
X318354Y234328D01*
X317504Y234440D01*
D02*
G37*
G36*
X336974Y230656D02*
X333752D01*
Y227434D01*
X334232Y227497D01*
X335146Y227875D01*
X335931Y228478D01*
X336533Y229262D01*
X336911Y230176D01*
X336974Y230656D01*
D02*
G37*
G36*
X332752D02*
X329530D01*
X329593Y230176D01*
X329971Y229262D01*
X330573Y228478D01*
X331358Y227875D01*
X332272Y227497D01*
X332752Y227434D01*
Y230656D01*
D02*
G37*
G36*
X286558Y228400D02*
X284050D01*
Y225006D01*
X286558D01*
Y228400D01*
D02*
G37*
G36*
X283050D02*
X280542D01*
Y225006D01*
X283050D01*
Y228400D01*
D02*
G37*
G36*
X147547Y226614D02*
X138279D01*
Y224378D01*
X111721D01*
Y226614D01*
X102453D01*
Y220102D01*
X111721D01*
Y222339D01*
X138279D01*
Y220102D01*
X147547D01*
Y222339D01*
X165319D01*
X167180Y220478D01*
Y219314D01*
X166704Y218996D01*
X166246Y218309D01*
X166085Y217500D01*
X166246Y216690D01*
X166704Y216004D01*
X167391Y215546D01*
X168200Y215385D01*
X169009Y215546D01*
X169696Y216004D01*
X170014Y216480D01*
X171144D01*
Y215473D01*
X177656D01*
Y216480D01*
X180706D01*
Y214942D01*
X187494D01*
Y219957D01*
X180706D01*
Y218520D01*
X177656D01*
Y220607D01*
X171144D01*
Y218520D01*
X170014D01*
X169696Y218996D01*
X169220Y219314D01*
Y220478D01*
X171022Y222280D01*
X224078D01*
X225384Y220974D01*
Y218443D01*
X237368D01*
Y222357D01*
X226885D01*
X225221Y224021D01*
X224890Y224242D01*
X224500Y224320D01*
X170600D01*
X170210Y224242D01*
X169879Y224021D01*
X168200Y222342D01*
X166463Y224079D01*
X166132Y224300D01*
X165742Y224378D01*
X147547D01*
Y226614D01*
D02*
G37*
G36*
X304224Y228395D02*
Y223782D01*
X308837D01*
X308726Y224623D01*
X308209Y225871D01*
X307386Y226944D01*
X306313Y227767D01*
X305065Y228284D01*
X304224Y228395D01*
D02*
G37*
G36*
X303224D02*
X302384Y228284D01*
X301135Y227767D01*
X300063Y226944D01*
X299240Y225871D01*
X298723Y224623D01*
X298612Y223782D01*
X303224D01*
Y228395D01*
D02*
G37*
G36*
X253892Y222857D02*
X247900D01*
Y220900D01*
X253892D01*
Y222857D01*
D02*
G37*
G36*
X246900D02*
X240908D01*
Y220900D01*
X246900D01*
Y222857D01*
D02*
G37*
G36*
X308837Y222782D02*
X304224D01*
Y218170D01*
X305065Y218281D01*
X306313Y218798D01*
X307386Y219621D01*
X308209Y220693D01*
X308726Y221942D01*
X308837Y222782D01*
D02*
G37*
G36*
X303224D02*
X298612D01*
X298723Y221942D01*
X299240Y220693D01*
X300063Y219621D01*
X301135Y218798D01*
X302384Y218281D01*
X303224Y218170D01*
Y222782D01*
D02*
G37*
G36*
X253892Y219900D02*
X247900D01*
Y217943D01*
X253892D01*
Y219900D01*
D02*
G37*
G36*
X246900D02*
X240908D01*
Y217943D01*
X246900D01*
Y219900D01*
D02*
G37*
G36*
X187994Y214158D02*
X184600D01*
Y211650D01*
X187994D01*
Y214158D01*
D02*
G37*
G36*
X183600D02*
X180206D01*
Y211650D01*
X183600D01*
Y214158D01*
D02*
G37*
G36*
X187994Y210650D02*
X184600D01*
Y208142D01*
X187994D01*
Y210650D01*
D02*
G37*
G36*
X183600D02*
X180206D01*
Y208142D01*
X183600D01*
Y210650D01*
D02*
G37*
G36*
X36903Y211154D02*
Y207900D01*
X40157D01*
X40093Y208389D01*
X39712Y209310D01*
X39105Y210101D01*
X38313Y210708D01*
X37392Y211090D01*
X36903Y211154D01*
D02*
G37*
G36*
X35903D02*
X35415Y211090D01*
X34493Y210708D01*
X33702Y210101D01*
X33095Y209310D01*
X32713Y208389D01*
X32649Y207900D01*
X35903D01*
Y211154D01*
D02*
G37*
G36*
X148047Y209398D02*
X143413D01*
Y206142D01*
X148047D01*
Y209398D01*
D02*
G37*
G36*
X112221D02*
X107587D01*
Y206142D01*
X112221D01*
Y209398D01*
D02*
G37*
G36*
X106587D02*
X101953D01*
Y206142D01*
X106587D01*
Y209398D01*
D02*
G37*
G36*
X142413D02*
X137779D01*
Y206142D01*
X142413D01*
Y209398D01*
D02*
G37*
G36*
X40157Y206900D02*
X36903D01*
Y203646D01*
X37392Y203710D01*
X38313Y204092D01*
X39105Y204699D01*
X39712Y205490D01*
X40093Y206411D01*
X40157Y206900D01*
D02*
G37*
G36*
X35903D02*
X32649D01*
X32713Y206411D01*
X33095Y205490D01*
X33702Y204699D01*
X34493Y204092D01*
X35415Y203710D01*
X35903Y203646D01*
Y206900D01*
D02*
G37*
G36*
X148047Y205142D02*
X143413D01*
Y201886D01*
X148047D01*
Y205142D01*
D02*
G37*
G36*
X142413D02*
X137779D01*
Y201886D01*
X142413D01*
Y205142D01*
D02*
G37*
G36*
X112221D02*
X107587D01*
Y201886D01*
X112221D01*
Y205142D01*
D02*
G37*
G36*
X106587D02*
X101953D01*
Y201886D01*
X106587D01*
Y205142D01*
D02*
G37*
G36*
X188258Y199394D02*
X185750D01*
Y196000D01*
X188258D01*
Y199394D01*
D02*
G37*
G36*
X184750D02*
X182242D01*
Y196000D01*
X184750D01*
Y199394D01*
D02*
G37*
G36*
X335032Y201528D02*
X331472D01*
Y199686D01*
X320566D01*
X320176Y199608D01*
X319845Y199387D01*
X314279Y193821D01*
X314058Y193490D01*
X313980Y193100D01*
Y181222D01*
X312478Y179720D01*
X296107D01*
Y182154D01*
X291367D01*
Y175446D01*
X296107D01*
Y177680D01*
X312478D01*
X313980Y176178D01*
Y168321D01*
X314058Y167931D01*
X314279Y167600D01*
X316799Y165081D01*
X317130Y164860D01*
X317520Y164782D01*
X320350D01*
Y162802D01*
X327650D01*
Y168601D01*
X327650Y169101D01*
X327650Y169302D01*
Y174900D01*
X328150D01*
Y177900D01*
X319850D01*
Y174900D01*
X320350D01*
Y169302D01*
X320350Y168802D01*
X320350Y168601D01*
Y166821D01*
X317942D01*
X316020Y168744D01*
Y176600D01*
X315942Y176990D01*
X315721Y177321D01*
X314342Y178700D01*
X315721Y180079D01*
X315942Y180410D01*
X316020Y180800D01*
Y192678D01*
X320988Y197647D01*
X331472D01*
Y195804D01*
X335032D01*
Y201528D01*
D02*
G37*
G36*
X125000Y196016D02*
X124190Y195854D01*
X123504Y195396D01*
X123046Y194710D01*
X122885Y193900D01*
X123046Y193090D01*
X123504Y192404D01*
X124190Y191946D01*
X125000Y191785D01*
X125810Y191946D01*
X126496Y192404D01*
X126954Y193090D01*
X127115Y193900D01*
X126954Y194710D01*
X126496Y195396D01*
X125810Y195854D01*
X125000Y196016D01*
D02*
G37*
G36*
X328150Y181900D02*
X324500D01*
Y178900D01*
X328150D01*
Y181900D01*
D02*
G37*
G36*
X323500D02*
X319850D01*
Y178900D01*
X323500D01*
Y181900D01*
D02*
G37*
G36*
X361094Y178258D02*
X357700D01*
Y175750D01*
X361094D01*
Y178258D01*
D02*
G37*
G36*
X356700D02*
X353306D01*
Y175750D01*
X356700D01*
Y178258D01*
D02*
G37*
G36*
X102180Y177941D02*
X100400D01*
Y173651D01*
X102180D01*
Y177941D01*
D02*
G37*
G36*
X84400D02*
X82621D01*
Y173651D01*
X84400D01*
Y177941D01*
D02*
G37*
G36*
X361094Y174750D02*
X357700D01*
Y172242D01*
X361094D01*
Y174750D01*
D02*
G37*
G36*
X356700D02*
X353306D01*
Y172242D01*
X356700D01*
Y174750D01*
D02*
G37*
G36*
X102180Y172651D02*
X100400D01*
Y168362D01*
X102180D01*
Y172651D01*
D02*
G37*
G36*
X84400D02*
X82621D01*
Y168362D01*
X84400D01*
Y172651D01*
D02*
G37*
G36*
X97180Y177941D02*
X97180Y177941D01*
X97135Y177941D01*
X95400D01*
Y173151D01*
Y168362D01*
X97180D01*
Y168362D01*
X97620D01*
Y168362D01*
X99400D01*
Y173151D01*
Y177941D01*
X97665D01*
X97620Y177941D01*
Y177941D01*
X97180D01*
D02*
G37*
G36*
X92180D02*
Y177941D01*
X90400D01*
Y173151D01*
Y168362D01*
X92180D01*
Y168362D01*
X92620D01*
Y168362D01*
X94400D01*
Y173151D01*
Y177941D01*
X92620D01*
Y177941D01*
X92180D01*
D02*
G37*
G36*
X87179D02*
Y177941D01*
X85400D01*
Y173151D01*
Y168362D01*
X87179D01*
Y168362D01*
X87621D01*
Y168362D01*
X89400D01*
Y173151D01*
Y177941D01*
X87621D01*
Y177941D01*
X87179D01*
D02*
G37*
G36*
X36903Y145209D02*
Y141955D01*
X40157D01*
X40093Y142444D01*
X39712Y143365D01*
X39105Y144156D01*
X38313Y144763D01*
X37392Y145145D01*
X36903Y145209D01*
D02*
G37*
G36*
X35903D02*
X35415Y145145D01*
X34493Y144763D01*
X33702Y144156D01*
X33095Y143365D01*
X32713Y142444D01*
X32649Y141955D01*
X35903D01*
Y145209D01*
D02*
G37*
G36*
X162058Y143494D02*
X159550D01*
Y140100D01*
X162058D01*
Y143494D01*
D02*
G37*
G36*
X158550D02*
X156043D01*
Y140100D01*
X158550D01*
Y143494D01*
D02*
G37*
G36*
X40157Y140955D02*
X36903D01*
Y137701D01*
X37392Y137765D01*
X38313Y138147D01*
X39105Y138754D01*
X39712Y139545D01*
X40093Y140466D01*
X40157Y140955D01*
D02*
G37*
G36*
X35903D02*
X32649D01*
X32713Y140466D01*
X33095Y139545D01*
X33702Y138754D01*
X34493Y138147D01*
X35415Y137765D01*
X35903Y137701D01*
Y140955D01*
D02*
G37*
G36*
X107179Y140838D02*
X105400D01*
Y136549D01*
X107179D01*
Y140838D01*
D02*
G37*
G36*
X84400D02*
X82621D01*
Y136549D01*
X84400D01*
Y140838D01*
D02*
G37*
G36*
X162058Y139100D02*
X159050D01*
X156043D01*
Y135706D01*
Y132700D01*
X159050D01*
X162058D01*
Y135706D01*
Y139100D01*
D02*
G37*
G36*
X107179Y135549D02*
X105400D01*
Y131259D01*
X107179D01*
Y135549D01*
D02*
G37*
G36*
X84400D02*
X82621D01*
Y131259D01*
X84400D01*
Y135549D01*
D02*
G37*
G36*
X102180Y140838D02*
X102180Y140838D01*
X102135Y140838D01*
X100400D01*
Y136049D01*
Y131259D01*
X102180D01*
Y131259D01*
X102620D01*
Y131259D01*
X104400D01*
Y136049D01*
Y140838D01*
X102665D01*
X102620Y140838D01*
Y140838D01*
X102180D01*
D02*
G37*
G36*
X97180D02*
Y140838D01*
X95400D01*
Y136049D01*
Y131259D01*
X97180D01*
Y131259D01*
X97620D01*
Y131259D01*
X99400D01*
Y136049D01*
Y140838D01*
X97620D01*
Y140838D01*
X97180D01*
D02*
G37*
G36*
X92180D02*
Y140838D01*
X90400D01*
Y136049D01*
Y131259D01*
X92180D01*
Y131259D01*
X92620D01*
Y131259D01*
X94400D01*
Y136049D01*
Y140838D01*
X92620D01*
Y140838D01*
X92180D01*
D02*
G37*
G36*
X87179D02*
Y140838D01*
X85400D01*
Y136049D01*
Y131259D01*
X87179D01*
Y131259D01*
X87621D01*
Y131259D01*
X89400D01*
Y136049D01*
Y140838D01*
X87621D01*
Y140838D01*
X87179D01*
D02*
G37*
G36*
X333110Y132894D02*
X330602D01*
Y129500D01*
X333110D01*
Y132894D01*
D02*
G37*
G36*
X329602D02*
X327095D01*
Y129500D01*
X329602D01*
Y132894D01*
D02*
G37*
G36*
X333110Y128500D02*
X330602D01*
Y125106D01*
X333110D01*
Y128500D01*
D02*
G37*
G36*
X329602D02*
X327095D01*
Y125106D01*
X329602D01*
Y128500D01*
D02*
G37*
G36*
X210358Y126700D02*
X207850D01*
Y123306D01*
X210358D01*
Y126700D01*
D02*
G37*
G36*
X206850D02*
X204343D01*
Y123306D01*
X206850D01*
Y126700D01*
D02*
G37*
G36*
X183458D02*
X180950D01*
Y123306D01*
X183458D01*
Y126700D01*
D02*
G37*
G36*
X179950D02*
X177443D01*
Y123306D01*
X179950D01*
Y126700D01*
D02*
G37*
G36*
X98758Y120794D02*
X96250D01*
Y117400D01*
X98758D01*
Y120794D01*
D02*
G37*
G36*
X95250D02*
X92743D01*
Y117400D01*
X95250D01*
Y120794D01*
D02*
G37*
G36*
X339559Y148756D02*
X334425D01*
Y142244D01*
X335382D01*
Y132394D01*
X333894D01*
Y125606D01*
X338909D01*
Y127980D01*
X340178D01*
X345028Y123130D01*
Y121753D01*
X342595D01*
Y114847D01*
X349500D01*
Y121753D01*
X347067D01*
Y123553D01*
X346989Y123943D01*
X346768Y124274D01*
X341321Y129721D01*
X340990Y129942D01*
X340600Y130020D01*
X338909D01*
Y132394D01*
X337421D01*
Y142244D01*
X339559D01*
Y148756D01*
D02*
G37*
G36*
X320457Y121783D02*
X319555Y121664D01*
X318715Y121316D01*
X317994Y120763D01*
X317441Y120041D01*
X317093Y119201D01*
X316974Y118300D01*
X317093Y117399D01*
X317441Y116559D01*
X317994Y115838D01*
X318715Y115284D01*
X319555Y114936D01*
X320457Y114818D01*
X321358Y114936D01*
X322198Y115284D01*
X322919Y115838D01*
X323473Y116559D01*
X323821Y117399D01*
X323939Y118300D01*
X323821Y119201D01*
X323473Y120041D01*
X322919Y120763D01*
X322198Y121316D01*
X321358Y121664D01*
X320457Y121783D01*
D02*
G37*
G36*
X98758Y116400D02*
X96250D01*
Y113006D01*
X98758D01*
Y116400D01*
D02*
G37*
G36*
X95250D02*
X92743D01*
Y113006D01*
X95250D01*
Y116400D01*
D02*
G37*
G36*
X346547Y104505D02*
Y101084D01*
X349968D01*
X349898Y101615D01*
X349500Y102577D01*
X348866Y103403D01*
X348041Y104036D01*
X347079Y104435D01*
X346547Y104505D01*
D02*
G37*
G36*
X345547Y104505D02*
X345015Y104435D01*
X344054Y104036D01*
X343228Y103403D01*
X342595Y102577D01*
X342196Y101615D01*
X342126Y101084D01*
X345547D01*
Y104505D01*
D02*
G37*
G36*
X320457Y104066D02*
X319555Y103947D01*
X318715Y103599D01*
X317994Y103046D01*
X317441Y102325D01*
X317093Y101485D01*
X316974Y100584D01*
X317093Y99682D01*
X317441Y98842D01*
X317994Y98121D01*
X318715Y97567D01*
X319555Y97220D01*
X320457Y97101D01*
X321358Y97220D01*
X322198Y97567D01*
X322919Y98121D01*
X323473Y98842D01*
X323821Y99682D01*
X323939Y100584D01*
X323821Y101485D01*
X323473Y102325D01*
X322919Y103046D01*
X322198Y103599D01*
X321358Y103947D01*
X320457Y104066D01*
D02*
G37*
G36*
X345547Y100084D02*
X342126D01*
X342196Y99552D01*
X342595Y98590D01*
X343228Y97764D01*
X344054Y97131D01*
X345015Y96732D01*
X345547Y96662D01*
Y100084D01*
D02*
G37*
G36*
X349968D02*
X346547D01*
Y96662D01*
X347079Y96732D01*
X348041Y97131D01*
X348866Y97764D01*
X349500Y98590D01*
X349898Y99552D01*
X349968Y100084D01*
D02*
G37*
G36*
X192763Y94353D02*
X188818D01*
Y90900D01*
X192763D01*
Y94353D01*
D02*
G37*
G36*
X187818D02*
X183873D01*
Y90900D01*
X187818D01*
Y94353D01*
D02*
G37*
G36*
X192763Y89900D02*
X188818D01*
Y86447D01*
X192763D01*
Y89900D01*
D02*
G37*
G36*
X187818D02*
X183873D01*
Y86447D01*
X187818D01*
Y89900D01*
D02*
G37*
G36*
X192763Y79453D02*
X188818D01*
Y76000D01*
X192763D01*
Y79453D01*
D02*
G37*
G36*
X187818D02*
X183873D01*
Y76000D01*
X187818D01*
Y79453D01*
D02*
G37*
G36*
X279258Y77594D02*
X276750D01*
Y74200D01*
X279258D01*
Y77594D01*
D02*
G37*
G36*
X275750D02*
X273242D01*
Y74200D01*
X275750D01*
Y77594D01*
D02*
G37*
G36*
X23960Y75019D02*
X20901D01*
Y71960D01*
X23960D01*
Y75019D01*
D02*
G37*
G36*
X19901D02*
X16842D01*
Y71960D01*
X19901D01*
Y75019D01*
D02*
G37*
G36*
X192763Y75000D02*
X188818D01*
Y71547D01*
X192763D01*
Y75000D01*
D02*
G37*
G36*
X187818D02*
X183873D01*
Y71547D01*
X187818D01*
Y75000D01*
D02*
G37*
G36*
X23960Y70960D02*
X20901D01*
Y67901D01*
X23960D01*
Y70960D01*
D02*
G37*
G36*
X19901D02*
X16842D01*
Y67901D01*
X19901D01*
Y70960D01*
D02*
G37*
G36*
X267000Y64850D02*
X263606D01*
Y62342D01*
X267000D01*
Y64850D01*
D02*
G37*
G36*
X368157Y62764D02*
X365491D01*
Y57539D01*
X368157D01*
Y62764D01*
D02*
G37*
G36*
X364491D02*
X361826D01*
Y57539D01*
X364491D01*
Y62764D01*
D02*
G37*
G36*
X368157Y56539D02*
X365491D01*
Y51315D01*
X368157D01*
Y56539D01*
D02*
G37*
G36*
X364491D02*
X361826D01*
Y51315D01*
X364491D01*
Y56539D01*
D02*
G37*
G36*
X44100Y50715D02*
X43290Y50554D01*
X42604Y50096D01*
X42146Y49410D01*
X41985Y48600D01*
X42146Y47790D01*
X42604Y47104D01*
X43290Y46646D01*
X44100Y46485D01*
X44910Y46646D01*
X45596Y47104D01*
X46054Y47790D01*
X46215Y48600D01*
X46054Y49410D01*
X45596Y50096D01*
X44910Y50554D01*
X44100Y50715D01*
D02*
G37*
G36*
X304574Y27331D02*
X301909D01*
Y22106D01*
X304574D01*
Y27331D01*
D02*
G37*
G36*
X300909D02*
X298243D01*
Y22106D01*
X300909D01*
Y27331D01*
D02*
G37*
G36*
X368157D02*
X365491D01*
Y22106D01*
X368157D01*
Y27331D01*
D02*
G37*
G36*
X364491D02*
X361826D01*
Y22106D01*
X364491D01*
Y27331D01*
D02*
G37*
G36*
X30159Y25394D02*
X27651D01*
Y22000D01*
X30159D01*
Y25394D01*
D02*
G37*
G36*
X26651D02*
X24144D01*
Y22000D01*
X26651D01*
Y25394D01*
D02*
G37*
G36*
X30159Y21000D02*
X27651D01*
Y17606D01*
X30159D01*
Y21000D01*
D02*
G37*
G36*
X26651D02*
X24144D01*
Y17606D01*
X26651D01*
Y21000D01*
D02*
G37*
G36*
X345818Y22369D02*
X344893Y22185D01*
X344109Y21662D01*
X343586Y20877D01*
X343402Y19953D01*
X343586Y19028D01*
X344109Y18244D01*
X344893Y17720D01*
X345818Y17536D01*
X346743Y17720D01*
X347527Y18244D01*
X348051Y19028D01*
X348235Y19953D01*
X348051Y20877D01*
X347527Y21662D01*
X346743Y22185D01*
X345818Y22369D01*
D02*
G37*
G36*
X319834D02*
X318909Y22185D01*
X318125Y21662D01*
X317601Y20877D01*
X317417Y19953D01*
X317601Y19028D01*
X318125Y18244D01*
X318909Y17720D01*
X319834Y17536D01*
X320759Y17720D01*
X321543Y18244D01*
X322066Y19028D01*
X322250Y19953D01*
X322066Y20877D01*
X321543Y21662D01*
X320759Y22185D01*
X319834Y22369D01*
D02*
G37*
G36*
X368157Y21106D02*
X365491D01*
Y15882D01*
X368157D01*
Y21106D01*
D02*
G37*
G36*
X364491D02*
X361826D01*
Y15882D01*
X364491D01*
Y21106D01*
D02*
G37*
G36*
X304574Y21106D02*
X301909D01*
Y15882D01*
X304574D01*
Y21106D01*
D02*
G37*
G36*
X300909D02*
X298243D01*
Y15882D01*
X300909D01*
Y21106D01*
D02*
G37*
G36*
X105018Y20106D02*
X99400D01*
Y13700D01*
X105018D01*
Y20106D01*
D02*
G37*
G36*
X98400D02*
X92782D01*
Y13700D01*
X98400D01*
Y20106D01*
D02*
G37*
G36*
X263248Y17348D02*
X259500D01*
Y13600D01*
X263248D01*
Y17348D01*
D02*
G37*
G36*
X258500D02*
X254752D01*
Y13600D01*
X258500D01*
Y17348D01*
D02*
G37*
G36*
X160548Y16848D02*
X153052D01*
Y9352D01*
X160548D01*
Y16848D01*
D02*
G37*
G36*
X215855Y16880D02*
X214877Y16752D01*
X213965Y16374D01*
X213182Y15773D01*
X212581Y14990D01*
X212204Y14078D01*
X212075Y13100D01*
X212204Y12122D01*
X212581Y11210D01*
X213182Y10427D01*
X213965Y9826D01*
X214877Y9448D01*
X215855Y9320D01*
X216834Y9448D01*
X217745Y9826D01*
X218528Y10427D01*
X219129Y11210D01*
X219507Y12122D01*
X219636Y13100D01*
X219507Y14078D01*
X219129Y14990D01*
X218528Y15773D01*
X217745Y16374D01*
X216834Y16752D01*
X215855Y16880D01*
D02*
G37*
G36*
X206013D02*
X205034Y16752D01*
X204122Y16374D01*
X203340Y15773D01*
X202739Y14990D01*
X202361Y14078D01*
X202232Y13100D01*
X202361Y12122D01*
X202739Y11210D01*
X203340Y10427D01*
X204122Y9826D01*
X205034Y9448D01*
X206013Y9320D01*
X206991Y9448D01*
X207903Y9826D01*
X208686Y10427D01*
X209286Y11210D01*
X209664Y12122D01*
X209793Y13100D01*
X209664Y14078D01*
X209286Y14990D01*
X208686Y15773D01*
X207903Y16374D01*
X206991Y16752D01*
X206013Y16880D01*
D02*
G37*
G36*
X196170D02*
X195192Y16752D01*
X194280Y16374D01*
X193497Y15773D01*
X192896Y14990D01*
X192518Y14078D01*
X192390Y13100D01*
X192518Y12122D01*
X192896Y11210D01*
X193497Y10427D01*
X194280Y9826D01*
X195192Y9448D01*
X196170Y9320D01*
X197149Y9448D01*
X198060Y9826D01*
X198843Y10427D01*
X199444Y11210D01*
X199822Y12122D01*
X199951Y13100D01*
X199822Y14078D01*
X199444Y14990D01*
X198843Y15773D01*
X198060Y16374D01*
X197149Y16752D01*
X196170Y16880D01*
D02*
G37*
G36*
X186328D02*
X185349Y16752D01*
X184437Y16374D01*
X183654Y15773D01*
X183054Y14990D01*
X182676Y14078D01*
X182547Y13100D01*
X182676Y12122D01*
X183054Y11210D01*
X183654Y10427D01*
X184437Y9826D01*
X185349Y9448D01*
X186328Y9320D01*
X187306Y9448D01*
X188218Y9826D01*
X189001Y10427D01*
X189602Y11210D01*
X189979Y12122D01*
X190108Y13100D01*
X189979Y14078D01*
X189602Y14990D01*
X189001Y15773D01*
X188218Y16374D01*
X187306Y16752D01*
X186328Y16880D01*
D02*
G37*
G36*
X176485D02*
X175507Y16752D01*
X174595Y16374D01*
X173812Y15773D01*
X173211Y14990D01*
X172834Y14078D01*
X172705Y13100D01*
X172834Y12122D01*
X173211Y11210D01*
X173812Y10427D01*
X174595Y9826D01*
X175507Y9448D01*
X176485Y9320D01*
X177463Y9448D01*
X178375Y9826D01*
X179158Y10427D01*
X179759Y11210D01*
X180137Y12122D01*
X180265Y13100D01*
X180137Y14078D01*
X179759Y14990D01*
X179158Y15773D01*
X178375Y16374D01*
X177463Y16752D01*
X176485Y16880D01*
D02*
G37*
G36*
X166642D02*
X165664Y16752D01*
X164752Y16374D01*
X163969Y15773D01*
X163369Y14990D01*
X162991Y14078D01*
X162862Y13100D01*
X162991Y12122D01*
X163369Y11210D01*
X163969Y10427D01*
X164752Y9826D01*
X165664Y9448D01*
X166642Y9320D01*
X167621Y9448D01*
X168533Y9826D01*
X169316Y10427D01*
X169916Y11210D01*
X170294Y12122D01*
X170423Y13100D01*
X170294Y14078D01*
X169916Y14990D01*
X169316Y15773D01*
X168533Y16374D01*
X167621Y16752D01*
X166642Y16880D01*
D02*
G37*
G36*
X263248Y12600D02*
X259500D01*
Y8852D01*
X263248D01*
Y12600D01*
D02*
G37*
G36*
X258500D02*
X254752D01*
Y8852D01*
X258500D01*
Y12600D01*
D02*
G37*
G36*
X105018Y12700D02*
X99400D01*
Y6295D01*
X105018D01*
Y12700D01*
D02*
G37*
G36*
X98400D02*
X92782D01*
Y6295D01*
X98400D01*
Y12700D01*
D02*
G37*
G36*
X10000Y16239D02*
X8783Y16119D01*
X7613Y15764D01*
X6534Y15187D01*
X5589Y14411D01*
X4813Y13466D01*
X4236Y12387D01*
X3881Y11217D01*
X3761Y10000D01*
X3881Y8783D01*
X4236Y7613D01*
X4813Y6534D01*
X5589Y5589D01*
X6534Y4813D01*
X7613Y4236D01*
X8783Y3881D01*
X10000Y3761D01*
X11217Y3881D01*
X12387Y4236D01*
X13466Y4813D01*
X14411Y5589D01*
X15187Y6534D01*
X15764Y7613D01*
X16119Y8783D01*
X16239Y10000D01*
X16119Y11217D01*
X15764Y12387D01*
X15187Y13466D01*
X14411Y14411D01*
X13466Y15187D01*
X12387Y15764D01*
X11217Y16119D01*
X10000Y16239D01*
D02*
G37*
%LPD*%
G36*
X179380Y356978D02*
Y305469D01*
X178880Y305261D01*
X176484Y307658D01*
X176153Y307879D01*
X175763Y307957D01*
X168254D01*
Y309507D01*
X161546D01*
Y307957D01*
X159894D01*
Y309507D01*
X153420D01*
Y353471D01*
X156919Y356970D01*
X157789Y356609D01*
X158768Y356480D01*
X159746Y356609D01*
X160658Y356987D01*
X161441Y357588D01*
X162042Y358370D01*
X162402Y359241D01*
X177117D01*
X179380Y356978D01*
D02*
G37*
G36*
X177443Y303815D02*
Y257985D01*
X176278Y256820D01*
X145422D01*
X144138Y258104D01*
X144345Y258604D01*
X144619D01*
Y264180D01*
X148619D01*
Y258604D01*
X152178D01*
Y260447D01*
X157388D01*
X157706Y259970D01*
X158392Y259512D01*
X159202Y259351D01*
X160011Y259512D01*
X160698Y259970D01*
X161156Y260657D01*
X161317Y261466D01*
X161156Y262276D01*
X160853Y262729D01*
X161241Y263048D01*
X162978Y261312D01*
Y257817D01*
X166340D01*
Y264328D01*
X166340D01*
X166456Y264780D01*
X168478D01*
X170458Y262800D01*
Y257817D01*
X173820D01*
Y264328D01*
X171814D01*
X170232Y265910D01*
X170424Y266372D01*
X170580D01*
Y269628D01*
X168399D01*
X166218D01*
Y266820D01*
X162822D01*
X159187Y270455D01*
X158856Y270676D01*
X158466Y270754D01*
X148398D01*
Y272596D01*
X144839D01*
Y270754D01*
X135488D01*
X132480Y273762D01*
Y296893D01*
X134814D01*
Y299972D01*
X135966Y301124D01*
X136466Y300917D01*
Y296893D01*
X143174D01*
Y298043D01*
X144826D01*
Y296893D01*
X151534D01*
Y299992D01*
X152686Y301144D01*
X153186Y300937D01*
Y296893D01*
X155520D01*
Y282292D01*
X154830Y282154D01*
X154144Y281696D01*
X153686Y281010D01*
X153524Y280200D01*
X153686Y279391D01*
X154144Y278704D01*
X154830Y278246D01*
X155640Y278084D01*
X156449Y278246D01*
X157136Y278704D01*
X157594Y279391D01*
X157755Y280200D01*
X157594Y281010D01*
X157560Y281062D01*
Y296893D01*
X159894D01*
Y301633D01*
X153758D01*
X153678Y301686D01*
X153386Y302133D01*
X153420Y302300D01*
Y304767D01*
X159894D01*
Y305917D01*
X161546D01*
Y304767D01*
X168254D01*
Y305917D01*
X175341D01*
X177443Y303815D01*
D02*
G37*
G36*
X111880Y303578D02*
Y258422D01*
X110278Y256820D01*
X80522D01*
X79238Y258104D01*
X79445Y258604D01*
X79514D01*
Y264328D01*
X79909Y264580D01*
X83118D01*
X83513Y264328D01*
X83513Y264080D01*
Y258604D01*
X87073D01*
Y260447D01*
X92282D01*
X92601Y259970D01*
X93287Y259512D01*
X94097Y259351D01*
X94906Y259512D01*
X95592Y259970D01*
X96051Y260657D01*
X96212Y261466D01*
X96051Y262276D01*
X95592Y262962D01*
X94906Y263421D01*
X94097Y263582D01*
X93287Y263421D01*
X92601Y262962D01*
X92282Y262486D01*
X87073D01*
X87073Y264328D01*
X87468Y264580D01*
X96278D01*
X97873Y262985D01*
Y257817D01*
X101235D01*
Y264328D01*
X101713Y264380D01*
X103878D01*
X105353Y262905D01*
Y257817D01*
X108715D01*
Y264328D01*
X106814D01*
X105270Y265872D01*
X105475Y266372D01*
X105475D01*
Y269628D01*
X103294D01*
X101113D01*
Y266420D01*
X99522D01*
X95287Y270655D01*
X94956Y270876D01*
X94566Y270953D01*
X83293D01*
Y272596D01*
X79734D01*
Y270953D01*
X70489D01*
X67980Y273462D01*
Y296893D01*
X70314D01*
Y300172D01*
X71566Y301424D01*
X72066Y301344D01*
Y296893D01*
X78774D01*
Y298243D01*
X80526D01*
Y296893D01*
X87234D01*
Y300292D01*
X88486Y301544D01*
X88986Y301337D01*
X88986Y301254D01*
Y296893D01*
X91320D01*
Y282014D01*
X90844Y281696D01*
X90386Y281010D01*
X90224Y280200D01*
X90386Y279391D01*
X90844Y278704D01*
X91530Y278246D01*
X92340Y278084D01*
X93150Y278246D01*
X93836Y278704D01*
X94294Y279391D01*
X94455Y280200D01*
X94294Y281010D01*
X93836Y281696D01*
X93360Y282014D01*
Y296893D01*
X95694D01*
Y301633D01*
X89363Y301633D01*
X89342D01*
D01*
X89278Y301633D01*
X89205Y301704D01*
X89162Y301805D01*
X89024Y302133D01*
X89142Y302310D01*
X89220Y302700D01*
Y304767D01*
X95694D01*
Y306117D01*
X97446D01*
Y304767D01*
X104154D01*
Y306117D01*
X109341D01*
X111880Y303578D01*
D02*
G37*
G36*
X63606Y301357D02*
Y296893D01*
X65940D01*
Y273040D01*
X66018Y272650D01*
X66239Y272319D01*
X69345Y269213D01*
X69676Y268992D01*
X70066Y268914D01*
X79734D01*
Y266872D01*
X79338Y266620D01*
X63422D01*
X61591Y268451D01*
Y272596D01*
X60831D01*
Y276288D01*
X60754Y276678D01*
X60533Y277009D01*
X59520Y278022D01*
Y296893D01*
X61854D01*
Y300312D01*
X63106Y301564D01*
X63606Y301357D01*
D02*
G37*
G36*
X128106Y300957D02*
Y296893D01*
X130440D01*
Y273340D01*
X130518Y272950D01*
X130739Y272619D01*
X134345Y269013D01*
X134676Y268792D01*
X135066Y268714D01*
X144839D01*
Y266872D01*
X148398D01*
Y268714D01*
X158044D01*
X160038Y266720D01*
X159831Y266220D01*
X128922D01*
X126696Y268445D01*
Y272596D01*
X125936D01*
Y278083D01*
X125859Y278473D01*
X125638Y278804D01*
X124120Y280322D01*
Y296893D01*
X126454D01*
Y300012D01*
X127606Y301164D01*
X128106Y300957D01*
D02*
G37*
G36*
X260146Y211508D02*
X260085Y211200D01*
X260246Y210390D01*
X260704Y209704D01*
X261180Y209386D01*
Y204822D01*
X257778Y201420D01*
X253392D01*
Y202357D01*
X241408D01*
Y198443D01*
X253392D01*
Y199380D01*
X258200D01*
X258590Y199458D01*
X259035Y199154D01*
X258984Y198900D01*
X259100Y198320D01*
X258803Y197868D01*
X258729Y197820D01*
X222325D01*
X222276Y198320D01*
X222909Y198446D01*
X223596Y198904D01*
X223914Y199380D01*
X225384D01*
Y198443D01*
X237368D01*
Y202357D01*
X225384D01*
Y201420D01*
X223914D01*
X223596Y201896D01*
X222909Y202354D01*
X222100Y202516D01*
X221431Y202382D01*
X221174Y202832D01*
X222147Y203806D01*
X223166D01*
X223557Y203883D01*
X223887Y204104D01*
X224164Y204380D01*
X225384D01*
Y203443D01*
X237368D01*
Y207357D01*
X225384D01*
Y206420D01*
X224496D01*
X224120Y206920D01*
X224216Y207400D01*
X224054Y208209D01*
X223606Y208880D01*
X223624Y208975D01*
X223771Y209380D01*
X225384D01*
Y208443D01*
X237368D01*
Y211924D01*
X240908D01*
Y210900D01*
X247400D01*
X253892D01*
Y211924D01*
X259719D01*
X260146Y211508D01*
D02*
G37*
G36*
X327693Y209796D02*
Y207954D01*
X324214D01*
X323896Y208430D01*
X323210Y208888D01*
X322400Y209049D01*
X321590Y208888D01*
X320904Y208430D01*
X320586Y207954D01*
X275134D01*
X274744Y207876D01*
X274413Y207655D01*
X272781Y206024D01*
X272320Y206215D01*
Y208720D01*
X272800Y209124D01*
X273000Y209085D01*
X273810Y209246D01*
X274496Y209704D01*
X274747Y210080D01*
X327311D01*
X327693Y209796D01*
D02*
G37*
G36*
X263875Y193676D02*
X264280Y193529D01*
Y153373D01*
X259064Y148156D01*
X232876D01*
X232724Y148656D01*
X233096Y148904D01*
X233554Y149591D01*
X233716Y150400D01*
X233554Y151209D01*
X233096Y151896D01*
X232410Y152354D01*
X231600Y152515D01*
X231047Y152406D01*
X230721Y152455D01*
X230505Y152765D01*
X230401Y153288D01*
X229942Y153974D01*
X229256Y154433D01*
X228447Y154594D01*
X228251Y154555D01*
X227897Y154909D01*
X227916Y155000D01*
X227754Y155809D01*
X227296Y156496D01*
X226609Y156954D01*
X225800Y157115D01*
X224991Y156954D01*
X224304Y156496D01*
X223986Y156020D01*
X222700D01*
X222594Y155999D01*
X222094Y156353D01*
Y159505D01*
X247453D01*
X248204Y158754D01*
Y152304D01*
X255996D01*
Y160096D01*
X249746D01*
X248723Y161119D01*
X248626Y161378D01*
X248712Y161770D01*
X249911Y162969D01*
X250135Y162797D01*
X251083Y162405D01*
X252100Y162271D01*
X253117Y162405D01*
X254065Y162797D01*
X254878Y163422D01*
X255503Y164235D01*
X255895Y165183D01*
X256029Y166200D01*
X255895Y167217D01*
X255503Y168165D01*
X254878Y168978D01*
X254065Y169603D01*
X253117Y169995D01*
X252100Y170129D01*
X251083Y169995D01*
X250135Y169603D01*
X249322Y168978D01*
X248697Y168165D01*
X248305Y167217D01*
X248171Y166200D01*
X248305Y165183D01*
X248579Y164521D01*
X247399Y163341D01*
X222094D01*
Y164572D01*
X222406Y164943D01*
X225800D01*
Y167950D01*
Y170958D01*
X224259D01*
X224069Y171421D01*
X224151Y171530D01*
X224378Y171742D01*
X229694D01*
Y176758D01*
X222906D01*
Y173248D01*
X222841Y173183D01*
X222094D01*
Y173254D01*
X218603D01*
X218396Y173754D01*
X237222Y192580D01*
X258578D01*
X259096Y192062D01*
X258984Y191500D01*
X259146Y190691D01*
X259604Y190004D01*
X260291Y189546D01*
X261100Y189384D01*
X261910Y189546D01*
X262596Y190004D01*
X263054Y190691D01*
X263215Y191500D01*
X263054Y192309D01*
X262809Y192676D01*
X263040Y193232D01*
X263109Y193246D01*
X263780Y193694D01*
X263875Y193676D01*
D02*
G37*
G36*
X172690Y183168D02*
X172372Y182779D01*
X172109Y182954D01*
X171300Y183115D01*
X170491Y182954D01*
X169804Y182496D01*
X169346Y181809D01*
X169191Y181033D01*
X168379Y180221D01*
X168158Y179890D01*
X168080Y179500D01*
Y171300D01*
X168158Y170910D01*
X168379Y170579D01*
X169484Y169474D01*
X169815Y169253D01*
X170106Y169195D01*
Y166340D01*
X169560D01*
X164427Y171472D01*
X164474Y171543D01*
X164700Y172087D01*
X164891Y173048D01*
Y173637D01*
X164700Y174598D01*
X164474Y175142D01*
X163930Y175956D01*
X163514Y176373D01*
X162699Y176917D01*
X162155Y177142D01*
X161194Y177333D01*
X160606D01*
X159645Y177142D01*
X159101Y176917D01*
X158286Y176373D01*
X157870Y175956D01*
X157326Y175142D01*
X157100Y174598D01*
X156909Y173637D01*
Y173048D01*
X157100Y172087D01*
X157326Y171543D01*
X157870Y170729D01*
X158286Y170312D01*
X159101Y169768D01*
X159645Y169543D01*
X160606Y169352D01*
X160749D01*
X166780Y163321D01*
X161108Y157648D01*
X160606D01*
X159645Y157457D01*
X159101Y157232D01*
X158286Y156688D01*
X157870Y156271D01*
X157326Y155457D01*
X157100Y154913D01*
X156909Y153952D01*
Y153363D01*
X157100Y152402D01*
X157326Y151858D01*
X157870Y151044D01*
X158286Y150627D01*
X159101Y150083D01*
X159645Y149858D01*
X160606Y149667D01*
X161194D01*
X162155Y149858D01*
X162699Y150083D01*
X163514Y150627D01*
X163930Y151044D01*
X164474Y151858D01*
X164700Y152402D01*
X164891Y153363D01*
Y153952D01*
X164700Y154913D01*
X164545Y155287D01*
X165605Y156347D01*
X166148Y156183D01*
X166246Y155691D01*
X166704Y155004D01*
X167391Y154546D01*
X168200Y154385D01*
X169009Y154546D01*
X169606Y154944D01*
X169934Y154841D01*
X170106Y154723D01*
Y152101D01*
X169606D01*
Y151010D01*
X173509D01*
Y150010D01*
X169606D01*
Y149453D01*
X169321Y149263D01*
X165350Y145291D01*
X164820Y145821D01*
X164489Y146042D01*
X164099Y146120D01*
X120522D01*
X119720Y146922D01*
Y155778D01*
X120672Y156730D01*
X125206D01*
Y155242D01*
X131994D01*
Y160257D01*
X125206D01*
Y158769D01*
X120373D01*
X115920Y163222D01*
Y168862D01*
X116680D01*
Y176438D01*
X117058Y176816D01*
X117279Y177147D01*
X117357Y177537D01*
Y178746D01*
X118707D01*
Y185454D01*
X119155Y185580D01*
X170278D01*
X172690Y183168D01*
D02*
G37*
G36*
X215462Y196413D02*
X215546Y195991D01*
X216004Y195304D01*
X216690Y194846D01*
X217500Y194685D01*
X218309Y194846D01*
X218996Y195304D01*
X219314Y195780D01*
X234385D01*
X234577Y195318D01*
X215878Y176620D01*
X211954D01*
Y183394D01*
X211883D01*
Y193542D01*
X214919Y196577D01*
X215462Y196413D01*
D02*
G37*
G36*
X148580Y117380D02*
X148004Y116996D01*
X147546Y116309D01*
X147385Y115500D01*
X147447Y115188D01*
X136867Y104609D01*
X136407Y104856D01*
X136416Y104900D01*
X136254Y105710D01*
X135796Y106396D01*
X135320Y106714D01*
Y109000D01*
X135242Y109390D01*
X135021Y109721D01*
X127323Y117419D01*
X127515Y117880D01*
X148464D01*
X148580Y117380D01*
D02*
G37*
G36*
X128604Y103704D02*
X129290Y103246D01*
X130100Y103085D01*
X130394Y103143D01*
X130640Y102682D01*
X126430Y98472D01*
X106487D01*
Y103680D01*
X106487Y103858D01*
X106853Y104180D01*
X128286D01*
X128604Y103704D01*
D02*
G37*
G36*
X91313Y103858D02*
X91313Y103680D01*
Y91047D01*
X106487D01*
Y96432D01*
X126852D01*
X127242Y96510D01*
X127573Y96731D01*
X133738Y102896D01*
X134300Y102785D01*
X134344Y102793D01*
X134591Y102333D01*
X108788Y76530D01*
X34610D01*
X34220Y76452D01*
X33889Y76231D01*
X31835Y74177D01*
X31199Y74440D01*
X30401Y74546D01*
X29602Y74440D01*
X28858Y74132D01*
X28219Y73642D01*
X27920Y73251D01*
X27420Y73421D01*
Y75478D01*
X31121Y79179D01*
X31342Y79510D01*
X31420Y79900D01*
Y101467D01*
X31474Y101944D01*
X31920Y101944D01*
X36608D01*
Y104180D01*
X90947D01*
X91313Y103858D01*
D02*
G37*
G36*
X305822Y89087D02*
Y68169D01*
X305121D01*
Y61658D01*
X308562D01*
Y68169D01*
X307861D01*
Y88516D01*
X308323Y88707D01*
X310153Y86877D01*
Y68169D01*
X309452D01*
Y61658D01*
X312893D01*
Y68169D01*
X312192D01*
Y86306D01*
X312654Y86497D01*
X314484Y84668D01*
Y68169D01*
X313783D01*
Y61658D01*
X317224D01*
X317613Y61391D01*
Y61158D01*
X319334D01*
Y64913D01*
X320334D01*
Y61158D01*
X322054D01*
Y61391D01*
X322444Y61658D01*
X325885D01*
Y67509D01*
X325965Y67564D01*
X326579Y67532D01*
X326775Y67336D01*
Y61658D01*
X327476D01*
Y53718D01*
X325078Y51320D01*
X304574D01*
Y56539D01*
X301409D01*
X298243D01*
Y51320D01*
X294022D01*
X292020Y53322D01*
Y62900D01*
X291942Y63290D01*
X291721Y63621D01*
X289302Y66040D01*
X291721Y68459D01*
X291942Y68790D01*
X292020Y69180D01*
Y92400D01*
X291942Y92790D01*
X291721Y93121D01*
X288824Y96018D01*
X289015Y96480D01*
X298428D01*
X305822Y89087D01*
D02*
G37*
G36*
X279779Y62879D02*
X280110Y62658D01*
X280500Y62580D01*
X287478D01*
X288480Y61578D01*
Y46622D01*
X287478Y45620D01*
X277380D01*
X275598Y47402D01*
Y57010D01*
X277441D01*
X277441Y60110D01*
X277883Y60250D01*
X277941D01*
Y61800D01*
X274579D01*
Y62800D01*
X277941D01*
Y64010D01*
X278441Y64217D01*
X279779Y62879D01*
D02*
G37*
%LPC*%
G36*
X168254Y301633D02*
X161546D01*
Y296893D01*
X163880D01*
Y282292D01*
X163190Y282154D01*
X162504Y281696D01*
X162046Y281010D01*
X161884Y280200D01*
X162046Y279391D01*
X162504Y278704D01*
X163190Y278246D01*
X164000Y278084D01*
X164810Y278246D01*
X165496Y278704D01*
X165954Y279391D01*
X166115Y280200D01*
X165954Y281010D01*
X165920Y281062D01*
Y296893D01*
X168254D01*
Y301633D01*
D02*
G37*
G36*
X170580Y273884D02*
X168899D01*
Y270628D01*
X170580D01*
Y273884D01*
D02*
G37*
G36*
X167899D02*
X166218D01*
Y270628D01*
X167899D01*
Y273884D01*
D02*
G37*
G36*
X104154Y301633D02*
X97446D01*
Y296893D01*
X99780D01*
Y282014D01*
X99304Y281696D01*
X98846Y281010D01*
X98685Y280200D01*
X98846Y279391D01*
X99304Y278704D01*
X99990Y278246D01*
X100800Y278084D01*
X101610Y278246D01*
X102296Y278704D01*
X102754Y279391D01*
X102916Y280200D01*
X102754Y281010D01*
X102296Y281696D01*
X101820Y282014D01*
Y296893D01*
X104154D01*
Y301633D01*
D02*
G37*
G36*
X105475Y273884D02*
X103794D01*
Y270628D01*
X105475D01*
Y273884D01*
D02*
G37*
G36*
X102794D02*
X101113D01*
Y270628D01*
X102794D01*
Y273884D01*
D02*
G37*
G36*
X253892Y209900D02*
X247400D01*
X240908D01*
Y208357D01*
X240908Y207943D01*
X240908Y207443D01*
Y205900D01*
X247400D01*
X253892D01*
Y207443D01*
X253892Y207857D01*
X253892Y208357D01*
Y209900D01*
D02*
G37*
G36*
Y204900D02*
X247900D01*
Y202943D01*
X253892D01*
Y204900D01*
D02*
G37*
G36*
X246900D02*
X240908D01*
Y202943D01*
X246900D01*
Y204900D01*
D02*
G37*
G36*
X230194Y170958D02*
X226800D01*
Y168450D01*
X230194D01*
Y170958D01*
D02*
G37*
G36*
Y167450D02*
X226800D01*
Y164943D01*
X230194D01*
Y167450D01*
D02*
G37*
G36*
X121679Y177441D02*
X118121D01*
Y168862D01*
X121679D01*
Y177441D01*
D02*
G37*
G36*
X161400Y166927D02*
Y164000D01*
X164327D01*
X164274Y164404D01*
X163925Y165246D01*
X163370Y165970D01*
X162646Y166525D01*
X161804Y166874D01*
X161400Y166927D01*
D02*
G37*
G36*
X160400D02*
X159996Y166874D01*
X159154Y166525D01*
X158430Y165970D01*
X157875Y165246D01*
X157527Y164404D01*
X157473Y164000D01*
X160400D01*
Y166927D01*
D02*
G37*
G36*
X164327Y163000D02*
X161400D01*
Y160073D01*
X161804Y160126D01*
X162646Y160475D01*
X163370Y161030D01*
X163925Y161754D01*
X164274Y162596D01*
X164327Y163000D01*
D02*
G37*
G36*
X160400D02*
X157473D01*
X157527Y162596D01*
X157875Y161754D01*
X158430Y161030D01*
X159154Y160475D01*
X159996Y160126D01*
X160400Y160073D01*
Y163000D01*
D02*
G37*
G36*
X132494Y154458D02*
X129100D01*
Y151950D01*
X132494D01*
Y154458D01*
D02*
G37*
G36*
X128100D02*
X124706D01*
Y151950D01*
X128100D01*
Y154458D01*
D02*
G37*
G36*
X132494Y150950D02*
X129100D01*
Y148442D01*
X132494D01*
Y150950D01*
D02*
G37*
G36*
X128100D02*
X124706D01*
Y148442D01*
X128100D01*
Y150950D01*
D02*
G37*
G36*
X304574Y62764D02*
X301909D01*
Y57539D01*
X304574D01*
Y62764D01*
D02*
G37*
G36*
X300909D02*
X298243D01*
Y57539D01*
X300909D01*
Y62764D01*
D02*
G37*
G36*
X287283Y60110D02*
X281559D01*
Y57010D01*
X287283D01*
Y60110D01*
D02*
G37*
%LPD*%
D10*
X293800Y279666D02*
D03*
Y286753D02*
D03*
X256700Y321857D02*
D03*
Y328943D02*
D03*
X278626D02*
D03*
Y321857D02*
D03*
D11*
X283550Y228900D02*
D03*
X289850D02*
D03*
X205350Y265800D02*
D03*
X199050D02*
D03*
X282550Y73700D02*
D03*
X276250D02*
D03*
X330102Y129000D02*
D03*
X336402D02*
D03*
X27151Y21500D02*
D03*
X33450D02*
D03*
X321015Y72400D02*
D03*
X327314D02*
D03*
X180450Y127200D02*
D03*
X186750D02*
D03*
X207350D02*
D03*
X213650D02*
D03*
X185250Y195500D02*
D03*
X178950D02*
D03*
X165350Y139600D02*
D03*
X159050D02*
D03*
Y132200D02*
D03*
X165350D02*
D03*
X102050Y116900D02*
D03*
X95750D02*
D03*
D12*
X304300Y280454D02*
D03*
Y286753D02*
D03*
X221800Y252450D02*
D03*
Y246150D02*
D03*
X267500Y59050D02*
D03*
Y65350D02*
D03*
X357200Y175250D02*
D03*
Y168951D02*
D03*
X315400Y322250D02*
D03*
Y328550D02*
D03*
X128600Y151450D02*
D03*
Y157750D02*
D03*
X226300Y167950D02*
D03*
Y174250D02*
D03*
X184100Y211150D02*
D03*
Y217450D02*
D03*
D13*
X178900Y188000D02*
D03*
X185300D02*
D03*
D14*
X340535Y165802D02*
D03*
Y172101D02*
D03*
Y178400D02*
D03*
X324000Y165802D02*
D03*
Y172101D02*
D03*
Y178400D02*
D03*
D15*
X274579Y66040D02*
D03*
Y62300D02*
D03*
Y58560D02*
D03*
X284421D02*
D03*
Y66040D02*
D03*
D16*
X275247Y278091D02*
D03*
X277216D02*
D03*
X279184D02*
D03*
X281153D02*
D03*
Y289509D02*
D03*
X279184D02*
D03*
X277216D02*
D03*
X275247D02*
D03*
D17*
X283909Y280847D02*
D03*
Y282816D02*
D03*
Y284784D02*
D03*
Y286753D02*
D03*
X272491D02*
D03*
Y284784D02*
D03*
Y282816D02*
D03*
Y280847D02*
D03*
D18*
X278200Y283800D02*
D03*
D19*
X213177Y256800D02*
D03*
Y251800D02*
D03*
Y246800D02*
D03*
Y241800D02*
D03*
X191823D02*
D03*
Y246800D02*
D03*
Y251800D02*
D03*
Y256800D02*
D03*
D20*
X119900Y173151D02*
D03*
X114900D02*
D03*
X109900D02*
D03*
X104900D02*
D03*
X99900D02*
D03*
X94900D02*
D03*
X89900D02*
D03*
X84900D02*
D03*
Y136049D02*
D03*
X89900D02*
D03*
X94900D02*
D03*
X99900D02*
D03*
X104900D02*
D03*
X109900D02*
D03*
X114900D02*
D03*
X119900D02*
D03*
D21*
X181336Y179991D02*
D03*
X183305D02*
D03*
X185273D02*
D03*
X187242D02*
D03*
X189210D02*
D03*
X191179D02*
D03*
X193147D02*
D03*
X195116D02*
D03*
X197084D02*
D03*
X199053D02*
D03*
X201021D02*
D03*
X202990D02*
D03*
X204958D02*
D03*
X206927D02*
D03*
X208895D02*
D03*
X210864D02*
D03*
Y134809D02*
D03*
X208895D02*
D03*
X206927D02*
D03*
X204958D02*
D03*
X202990D02*
D03*
X201021D02*
D03*
X199053D02*
D03*
X197084D02*
D03*
X195116D02*
D03*
X193147D02*
D03*
X191179D02*
D03*
X189210D02*
D03*
X187242D02*
D03*
X185273D02*
D03*
X183305D02*
D03*
X181336D02*
D03*
D22*
X218690Y172164D02*
D03*
Y170195D02*
D03*
Y168227D02*
D03*
Y166258D02*
D03*
Y164290D02*
D03*
Y162321D02*
D03*
Y160353D02*
D03*
Y158384D02*
D03*
Y156416D02*
D03*
Y154447D02*
D03*
Y152479D02*
D03*
Y150510D02*
D03*
Y148542D02*
D03*
Y146573D02*
D03*
Y144605D02*
D03*
Y142636D02*
D03*
X173509D02*
D03*
Y144605D02*
D03*
Y146573D02*
D03*
Y148542D02*
D03*
Y150510D02*
D03*
Y152479D02*
D03*
Y154447D02*
D03*
Y156416D02*
D03*
Y158384D02*
D03*
Y160353D02*
D03*
Y162321D02*
D03*
Y164290D02*
D03*
Y166258D02*
D03*
Y168227D02*
D03*
Y170195D02*
D03*
Y172164D02*
D03*
D23*
X341487Y64913D02*
D03*
X337157D02*
D03*
X332826D02*
D03*
X328495D02*
D03*
X324165D02*
D03*
X319834D02*
D03*
X315503D02*
D03*
X311172D02*
D03*
X306842D02*
D03*
D24*
X301409Y57039D02*
D03*
Y21606D02*
D03*
X364991D02*
D03*
Y57039D02*
D03*
D25*
X247400Y200400D02*
D03*
X231376D02*
D03*
X247400Y205400D02*
D03*
X231376D02*
D03*
X247400Y210400D02*
D03*
X231376D02*
D03*
X247400Y215400D02*
D03*
X231376D02*
D03*
X247400Y220400D02*
D03*
X231376D02*
D03*
D26*
X268784Y328510D02*
D03*
Y322290D02*
D03*
X290300Y328510D02*
D03*
Y322290D02*
D03*
D27*
X188318Y75500D02*
D03*
X203082D02*
D03*
X188318Y90400D02*
D03*
X203082D02*
D03*
D28*
X337032Y206934D02*
D03*
X329472D02*
D03*
X333252Y198666D02*
D03*
X56032Y261466D02*
D03*
X63591D02*
D03*
X59812Y269734D02*
D03*
X77734Y261466D02*
D03*
X85293D02*
D03*
X81514Y269734D02*
D03*
X121137Y261466D02*
D03*
X128696D02*
D03*
X124917Y269734D02*
D03*
X142839Y261466D02*
D03*
X150398D02*
D03*
X146619Y269734D02*
D03*
D29*
X282960Y245800D02*
D03*
X290440D02*
D03*
X316460Y261300D02*
D03*
X323940D02*
D03*
Y269900D02*
D03*
X316460D02*
D03*
X329512Y145500D02*
D03*
X336992D02*
D03*
X26561Y39000D02*
D03*
X34041D02*
D03*
Y303000D02*
D03*
X26561D02*
D03*
X34041Y237067D02*
D03*
X26561D02*
D03*
X34041Y171133D02*
D03*
X26561D02*
D03*
X34041Y105200D02*
D03*
X26561D02*
D03*
D30*
X256700Y278879D02*
D03*
Y286753D02*
D03*
X164900Y307137D02*
D03*
Y299263D02*
D03*
X156540Y307137D02*
D03*
Y299263D02*
D03*
X148180D02*
D03*
Y307137D02*
D03*
X139820Y299263D02*
D03*
Y307137D02*
D03*
X131460Y299263D02*
D03*
Y307137D02*
D03*
X123100Y299263D02*
D03*
Y307137D02*
D03*
X100800D02*
D03*
Y299263D02*
D03*
X92340Y307137D02*
D03*
Y299263D02*
D03*
X83880D02*
D03*
Y307137D02*
D03*
X75420Y299263D02*
D03*
Y307137D02*
D03*
X66960Y299263D02*
D03*
Y307137D02*
D03*
X58500Y299263D02*
D03*
Y307137D02*
D03*
X295800Y122437D02*
D03*
Y114563D02*
D03*
X287519Y122437D02*
D03*
Y114563D02*
D03*
X279239Y122437D02*
D03*
Y114563D02*
D03*
X264658Y122437D02*
D03*
Y114563D02*
D03*
X256378Y122437D02*
D03*
Y114563D02*
D03*
D31*
X242900Y321540D02*
D03*
Y314060D02*
D03*
X259282Y65940D02*
D03*
Y58460D02*
D03*
X250700Y58660D02*
D03*
Y66140D02*
D03*
D32*
X293737Y160600D02*
D03*
X285863D02*
D03*
Y178800D02*
D03*
X293737D02*
D03*
X108463Y182100D02*
D03*
X116337D02*
D03*
D33*
X304200Y321660D02*
D03*
Y329140D02*
D03*
X247900Y122240D02*
D03*
Y114760D02*
D03*
X174400Y210560D02*
D03*
Y218040D02*
D03*
D34*
X193008Y321700D02*
D03*
X228047D02*
D03*
D35*
X238400Y299471D02*
D03*
X233400D02*
D03*
X228400D02*
D03*
X223400D02*
D03*
Y283329D02*
D03*
X228400D02*
D03*
X233400D02*
D03*
X238400D02*
D03*
D36*
X107087Y223358D02*
D03*
X142913D02*
D03*
X107087Y205642D02*
D03*
X142913D02*
D03*
D37*
X99554Y261072D02*
D03*
X107034D02*
D03*
X103294Y270128D02*
D03*
X164659Y261072D02*
D03*
X172139D02*
D03*
X168399Y270128D02*
D03*
D38*
X65500Y161096D02*
D03*
Y148104D02*
D03*
D39*
X98900Y97452D02*
D03*
D40*
Y13200D02*
D03*
D41*
X204253Y295824D02*
D03*
Y292675D02*
D03*
Y289525D02*
D03*
Y286376D02*
D03*
X198347D02*
D03*
Y289525D02*
D03*
Y292675D02*
D03*
Y295824D02*
D03*
D42*
X336100Y322778D02*
X340897Y327575D01*
Y317575D02*
X350897Y327575D01*
X314225Y297575D02*
X330897D01*
X304400Y307400D02*
X314225Y297575D01*
X272900Y211100D02*
X334000D01*
X238400Y291800D02*
Y299471D01*
Y291800D02*
X243447Y286753D01*
X327300Y68253D02*
Y77536D01*
X272975Y120525D02*
X273000Y120500D01*
X271063Y122437D02*
X272975Y120525D01*
X279600Y69500D02*
X283060Y66040D01*
X279450Y69650D02*
X279600Y69500D01*
X272975Y120525D02*
Y120600D01*
Y110125D02*
Y120525D01*
X247900Y122240D02*
X264461D01*
X178700Y187200D02*
X180200Y185700D01*
X185273Y140415D02*
Y140427D01*
Y134809D02*
Y140415D01*
X187150Y127200D02*
Y128450D01*
X196200Y174500D02*
X196800Y175100D01*
X292500Y238700D02*
X292600Y238600D01*
X290440Y240760D02*
X292500Y238700D01*
X149100Y115300D02*
X149400Y115600D01*
X256378Y108500D02*
Y114563D01*
Y108400D02*
Y108500D01*
X107034Y261072D02*
Y262666D01*
X172139Y261072D02*
Y262561D01*
X156540Y280000D02*
Y299063D01*
X106400Y167200D02*
X110900D01*
X104900Y168700D02*
X106400Y167200D01*
X104900Y168700D02*
Y173151D01*
X112400Y168700D02*
Y185000D01*
X110900Y167200D02*
X112400Y168700D01*
X66960Y273040D02*
Y299263D01*
X58500D02*
X59363D01*
X74337Y307137D02*
X75420D01*
X83037D02*
X83880D01*
X78400Y302500D02*
X83037Y307137D01*
X203000Y183300D02*
Y192100D01*
X202990Y179991D02*
Y183210D01*
X206979Y174100D02*
X217300D01*
X204958Y176120D02*
X206979Y174100D01*
X206927Y176273D02*
X207600Y175600D01*
X216300D01*
X206927Y176273D02*
Y179991D01*
X227400Y220400D02*
X231376D01*
X224500Y223300D02*
X227400Y220400D01*
X193147Y179991D02*
Y195000D01*
X204958Y176120D02*
Y179991D01*
X223741Y205400D02*
X231376D01*
X223166Y204825D02*
X223741Y205400D01*
X221725Y204825D02*
X223166D01*
X206941Y171900D02*
X208800Y170041D01*
X183382Y171900D02*
X206941D01*
X181336Y173946D02*
X183382Y171900D01*
X201021Y177051D02*
Y179991D01*
X196800Y175100D02*
X199071D01*
X201021Y177051D01*
X193100Y180038D02*
X193147Y179991D01*
X211500Y157300D02*
X213300D01*
X211300D02*
X211500D01*
X261835Y141000D02*
X262035Y141200D01*
X244300Y141000D02*
X261835D01*
X242000Y138700D02*
X244300Y141000D01*
X218690Y144605D02*
X223795D01*
X218690Y146573D02*
X224727D01*
X218690Y150510D02*
X225611D01*
X226271Y149850D01*
X231050D01*
X218690Y148542D02*
X225458D01*
X262035Y141200D02*
X262100D01*
X247821Y162321D02*
X249700Y164200D01*
X218690Y162321D02*
X247821D01*
X252900Y154200D02*
Y155500D01*
X218862Y160524D02*
X247876D01*
X108463Y185863D02*
X111000Y188400D01*
X173000D01*
X170700Y186600D02*
X177600Y179700D01*
X114000Y186600D02*
X170700D01*
X112400Y185000D02*
X114000Y186600D01*
X177600Y179600D02*
Y179700D01*
X181336Y173946D02*
Y175364D01*
X187242Y176658D02*
X188900Y175000D01*
X187242Y176658D02*
Y179991D01*
X185273Y176374D02*
Y179991D01*
X183911Y175012D02*
X185273Y176374D01*
X181336Y175364D02*
Y179991D01*
X214537Y156416D02*
X218690D01*
X211721Y153600D02*
X214537Y156416D01*
X208800Y143200D02*
Y170041D01*
X210922Y172164D01*
X214384Y158384D02*
X218690D01*
X213300Y157300D02*
X214384Y158384D01*
X274937Y122437D02*
X279239D01*
X273000Y120500D02*
X274937Y122437D01*
X264658D02*
X271063D01*
X242000Y110300D02*
Y138700D01*
X279600Y103500D02*
X301336D01*
X272975Y110125D02*
X279600Y103500D01*
X188300Y139400D02*
Y139800D01*
X187242Y138342D02*
X188300Y139400D01*
X187242Y134809D02*
Y138342D01*
X109900Y136049D02*
Y138600D01*
X34041Y105200D02*
X130100D01*
X177409Y134809D02*
X181336D01*
X175100Y132500D02*
X177409Y134809D01*
X175100Y120200D02*
Y132500D01*
X168400Y115700D02*
X173509Y120809D01*
X160600Y115700D02*
X168400D01*
X155300Y110400D02*
X160600Y115700D01*
X173509Y120809D02*
Y142636D01*
X165300Y110400D02*
X175100Y120200D01*
X179200Y149900D02*
X181000D01*
X176621Y152479D02*
X179200Y149900D01*
X173509Y152479D02*
X176621D01*
X180800Y153600D02*
X181000Y153800D01*
X178600Y153600D02*
X180800D01*
X177753Y154447D02*
X178600Y153600D01*
X173509Y154447D02*
X177753D01*
X180800Y157500D02*
X180900Y157600D01*
X178500Y157500D02*
X180800D01*
X177416Y156416D02*
X178500Y157500D01*
X173509Y158384D02*
X176684D01*
X173509Y148542D02*
X177158D01*
X176927Y146573D02*
X178300Y145200D01*
X173509Y146573D02*
X176927D01*
X178300Y139400D02*
Y145200D01*
X173509Y156416D02*
X177416D01*
X173509Y154447D02*
X173647Y154309D01*
X108463Y182100D02*
Y185863D01*
X168200Y156500D02*
Y158600D01*
X169953Y160353D01*
X173509D01*
Y172164D02*
Y177909D01*
X181336Y179991D02*
Y183764D01*
X180200Y184900D02*
X181336Y183764D01*
X180200Y184900D02*
Y185700D01*
X160800Y154441D02*
X168680Y162321D01*
X160800Y154358D02*
Y154441D01*
X168680Y162321D02*
X173509D01*
X168710Y164290D02*
X173509D01*
X160800Y172200D02*
X168710Y164290D01*
X170205Y170195D02*
X173509D01*
X169100Y171300D02*
X170205Y170195D01*
X169100Y171300D02*
Y179500D01*
X170600Y181000D01*
X171300D01*
X109900Y173151D02*
Y175700D01*
X108063Y177537D02*
X109900Y175700D01*
X116337Y177537D02*
Y182100D01*
X114900Y176100D02*
X116337Y177537D01*
X114900Y173151D02*
Y176100D01*
X107087Y223358D02*
X142913D01*
X213776Y314060D02*
X242900D01*
X228047Y321700D02*
X242740D01*
X26561Y105200D02*
Y141455D01*
Y171133D02*
Y207400D01*
Y237067D02*
Y273345D01*
Y303000D02*
Y339290D01*
X222100Y215400D02*
X231376D01*
X274579Y62300D02*
X276100D01*
X185273Y129300D02*
Y134809D01*
X225350Y174250D02*
X226300D01*
X223264Y172164D02*
X225350Y174250D01*
X218690Y172164D02*
X223264D01*
X191179Y131411D02*
Y134809D01*
X189210Y131258D02*
Y134809D01*
X327300Y68253D02*
X328495Y67058D01*
Y64913D02*
Y67058D01*
X341487Y64913D02*
Y69713D01*
X337157Y64913D02*
Y71922D01*
X332826Y64913D02*
Y74131D01*
X324165Y64913D02*
Y78550D01*
X315503Y64913D02*
Y85090D01*
X311172Y64913D02*
Y87300D01*
X306842Y64913D02*
Y89509D01*
X287519Y114563D02*
X288437D01*
X295800D02*
X296637D01*
X256378D02*
X257237D01*
X279239D02*
X280137D01*
X247900Y108700D02*
Y114760D01*
X264658Y108842D02*
Y114563D01*
X279239Y108400D02*
Y114563D01*
X288800Y107500D02*
X289800Y106500D01*
X279239Y108400D02*
X282619Y105019D01*
X259100Y97500D02*
X298851D01*
X306842Y89509D01*
X265878Y99000D02*
X299472D01*
X311172Y87300D01*
X273000Y100500D02*
X300093D01*
X315503Y85090D01*
X300715Y102000D02*
X324165Y78550D01*
X301336Y103500D02*
X327300Y77536D01*
X282619Y105000D02*
X301957D01*
X332826Y74131D01*
X289800Y106500D02*
X302579D01*
X337157Y71922D01*
X296637Y114563D02*
X341487Y69713D01*
X248200Y108400D02*
X259100Y97500D01*
X270400Y108400D02*
X276800Y102000D01*
X300715D01*
X193147Y131564D02*
Y134809D01*
X189210Y131258D02*
X191525Y128943D01*
Y121900D02*
Y128943D01*
X200425Y104975D02*
X200500Y104900D01*
X259182Y58460D02*
X259282D01*
X249340Y58660D02*
X250700D01*
X247200Y60800D02*
X249340Y58660D01*
X258240Y65940D02*
X259282D01*
X254600Y62300D02*
X258240Y65940D01*
X279239Y122437D02*
X287519D01*
X295800D01*
X287519Y108400D02*
Y114563D01*
X208700Y60800D02*
X247200D01*
X203082Y68718D02*
Y75500D01*
Y68718D02*
X209500Y62300D01*
X254600D01*
X98900Y97452D02*
X126852D01*
X134300Y104900D01*
X34610Y75510D02*
X109210D01*
X149050Y115350D01*
X149100Y115300D01*
X206927Y134809D02*
Y139073D01*
X193600Y139500D02*
X195116Y137984D01*
Y134809D02*
Y137984D01*
X206200Y139800D02*
X206927Y139073D01*
X197700Y139800D02*
X199700D01*
X201021Y134809D02*
Y138479D01*
X199700Y139800D02*
X201021Y138479D01*
X203000Y118600D02*
Y122500D01*
X200425Y104975D02*
Y122953D01*
X197084Y126294D02*
Y134809D01*
X197775Y111600D02*
Y123483D01*
X199025Y134782D02*
X199053Y134809D01*
X199025Y126475D02*
Y134782D01*
Y126475D02*
X203000Y122500D01*
X201600Y127900D02*
X204958Y131258D01*
Y134809D01*
X203600Y139800D02*
X206200D01*
X149400Y115600D02*
X149500Y115500D01*
X185273Y140415D02*
X187359Y142500D01*
X195200Y121700D02*
Y121867D01*
X193500Y123566D02*
X195200Y121867D01*
X193500Y123566D02*
Y129090D01*
X191179Y131411D02*
X193500Y129090D01*
X195200Y126057D02*
X197775Y123483D01*
X195200Y126057D02*
Y129511D01*
X193147Y131564D02*
X195200Y129511D01*
X197084Y126294D02*
X200425Y122953D01*
X170042Y148542D02*
X173509D01*
X165350Y143850D02*
X170042Y148542D01*
X170105Y144605D02*
X173509D01*
X165350Y139600D02*
Y143850D01*
Y132200D02*
Y139600D01*
X168500Y143000D02*
X170105Y144605D01*
X168500Y128600D02*
Y143000D01*
X148400Y129700D02*
X150700Y127400D01*
X167300D01*
X168500Y128600D01*
X164099Y145100D02*
X165350Y143850D01*
X177158Y148542D02*
X185273Y140427D01*
X325500Y50300D02*
X328495Y53295D01*
Y64913D01*
X283060Y66040D02*
X284421D01*
X254060Y69500D02*
X279600D01*
X250700Y66140D02*
X254060Y69500D01*
X279450Y69650D02*
X282550Y72750D01*
Y73700D01*
X284421Y66040D02*
X287860D01*
X293600Y50300D02*
X325500D01*
X291000Y52900D02*
X293600Y50300D01*
X291000Y52900D02*
Y62900D01*
X287860Y66040D02*
X291000Y62900D01*
X287860Y66040D02*
X291000Y69180D01*
X256300Y96000D02*
X287400D01*
X291000Y92400D01*
Y69180D02*
Y92400D01*
X242000Y110300D02*
X256300Y96000D01*
X187359Y142500D02*
X208000D01*
X210864Y139636D01*
Y134809D02*
Y139636D01*
X336402Y129000D02*
Y144909D01*
X329512Y144888D02*
Y145500D01*
X208000Y142500D02*
X208100D01*
X210922Y172164D02*
X218690D01*
X212900Y169400D02*
X214100D01*
X215273Y168227D01*
X218690D01*
X214568Y166258D02*
X218690D01*
X214100Y165790D02*
X214568Y166258D01*
X211690Y165790D02*
X214100D01*
X211500Y165600D02*
X211690Y165790D01*
X214390Y164290D02*
X218690D01*
X222600Y200400D02*
X231376D01*
X191823Y241800D02*
X203900D01*
X192123Y256500D02*
X198600D01*
X213177Y241800D02*
X217050D01*
X221300Y246050D01*
X212977Y246600D02*
X213177Y246800D01*
X206700Y246600D02*
X212977D01*
X213077Y251900D02*
X213177Y251800D01*
X204100Y251900D02*
X213077D01*
X193008Y321700D02*
X204100D01*
X228300Y284329D02*
Y284739D01*
X227239Y295800D02*
X238300Y284739D01*
Y284329D02*
Y284739D01*
X225439Y292600D02*
X233300Y284739D01*
X221329Y286300D02*
X223300Y284329D01*
X223639Y289400D02*
X228300Y284739D01*
X204253Y295824D02*
X227215D01*
X204253Y292675D02*
X225365D01*
X204253Y289525D02*
X223514D01*
X204253Y286376D02*
X221253D01*
X223400Y299471D02*
X228400D01*
X233400D01*
X238400D01*
X223400Y275800D02*
Y283329D01*
X228400Y275800D02*
Y283329D01*
X233400Y275800D02*
Y283329D01*
X238400Y275800D02*
Y283329D01*
X218690Y160353D02*
X218862Y160524D01*
X218690Y154447D02*
X222147D01*
X222700Y155000D01*
X231050Y149850D02*
X231600Y150400D01*
X222700Y155000D02*
X225800D01*
X218690Y152425D02*
Y152479D01*
X208100Y142500D02*
X208800Y143200D01*
X58500Y277600D02*
Y299263D01*
X138937Y306937D02*
X139820D01*
X131460Y299063D02*
X132463D01*
X147137Y306937D02*
X148180D01*
X128696Y261466D02*
X137434D01*
X150398D02*
X157900D01*
X92340Y280200D02*
Y299263D01*
X100800Y280200D02*
Y299263D01*
X164900Y280000D02*
Y299063D01*
X168900Y265800D02*
X172139Y262561D01*
X160531Y265200D02*
X164659Y261072D01*
X146619Y269734D02*
X158466D01*
X162400Y265800D01*
X168900D01*
X104300Y265400D02*
X107034Y262666D01*
X59812Y268788D02*
X63000Y265600D01*
X124917Y268783D02*
Y269734D01*
Y268783D02*
X128500Y265200D01*
X160531D01*
X74114Y269934D02*
X81514D01*
X94566D02*
X99100Y265400D01*
X104300D01*
X63000Y265600D02*
X96700D01*
X99554Y262746D01*
Y261072D02*
Y262746D01*
X85293Y261466D02*
X94097D01*
X139820Y299063D02*
X149163D01*
X75420Y299263D02*
X83880D01*
X84763D01*
X88200Y302700D01*
X149163Y299063D02*
X152400Y302300D01*
X92340Y307137D02*
X100800D01*
X174400Y205700D02*
Y210560D01*
Y205700D02*
X178950Y201150D01*
Y187850D02*
Y201150D01*
X63591Y261466D02*
X72395D01*
X156540Y306937D02*
X175763D01*
X180300Y264000D02*
X182100Y265800D01*
X180400Y267600D02*
X182200Y265800D01*
X199050D01*
X180400Y267600D02*
Y357400D01*
X198700Y90400D02*
X203082D01*
X196400Y73100D02*
X208700Y60800D01*
X196400Y73100D02*
Y88100D01*
X198700Y90400D01*
X198800Y180243D02*
X199053Y179991D01*
X208895D02*
Y194195D01*
X210864Y193964D02*
X221725Y204825D01*
X210864Y179991D02*
Y193964D01*
X208895Y194195D02*
X222100Y207400D01*
X198800Y180243D02*
Y191541D01*
X195116Y179991D02*
Y189978D01*
X203000Y192100D02*
X207700Y196800D01*
X210864Y139636D02*
X212228Y141000D01*
X239700D01*
X242000Y138700D01*
X217300Y174100D02*
X236800Y193600D01*
X274579Y66040D02*
X278060D01*
X280500Y63600D01*
X216300Y175600D02*
X235900Y195200D01*
X262100Y141200D02*
X271300Y150400D01*
X235900Y195200D02*
X262300D01*
X236800Y193600D02*
X259000D01*
X261100Y191500D01*
X217500Y196800D02*
X259600D01*
X261300Y198500D01*
X278626Y328943D02*
X289867D01*
X278626D02*
Y357534D01*
X268784Y328510D02*
Y357534D01*
X257133Y328510D02*
X268784D01*
X256700Y328943D02*
X257133Y328510D01*
X323340Y329140D02*
X349000Y354800D01*
X268784Y315116D02*
Y322290D01*
Y315116D02*
X279184Y304716D01*
Y289509D02*
Y304716D01*
X281153Y289509D02*
Y304653D01*
X290300Y313800D01*
Y322290D01*
X263800Y284784D02*
X272491D01*
X267153Y280847D02*
X272491D01*
X281153Y276094D02*
Y278091D01*
X288000Y272036D02*
Y286300D01*
X285300Y271457D02*
Y276400D01*
X282100Y270379D02*
Y273400D01*
X275247Y275847D02*
Y278091D01*
X283909Y284784D02*
Y286753D01*
X287547D01*
X288000Y286753D02*
X293800D01*
X304300D01*
X292500Y238700D02*
X341456D01*
X349000Y231156D01*
X290440Y240760D02*
Y245800D01*
X289850Y231010D02*
Y235850D01*
X292600Y238600D01*
X288000Y272036D02*
X298736Y261300D01*
X316460D01*
X349000Y354800D02*
X357200Y346600D01*
X268300Y256579D02*
X282100Y270379D01*
X269800Y255957D02*
X285300Y271457D01*
X271300Y255336D02*
X288000Y272036D01*
X261100Y253800D02*
X263700Y251200D01*
X272900Y245800D02*
X282960D01*
X271300Y247400D02*
X272900Y245800D01*
X271300Y247400D02*
Y255336D01*
Y244200D02*
X272900Y245800D01*
X271300Y150400D02*
X276200Y145500D01*
X336402Y129000D02*
X340600D01*
X346047Y123553D01*
Y118300D02*
Y123553D01*
X322400Y206934D02*
X329472D01*
X272800Y162700D02*
X274900Y160600D01*
X285863D01*
X272800Y162700D02*
Y204600D01*
X275134Y206934D01*
X322400D01*
X340535Y165802D02*
X353002D01*
X356151Y168951D01*
X357200D01*
X353002Y165802D02*
X354400Y164403D01*
X337032Y206934D02*
Y208068D01*
X334000Y211100D02*
X337032Y208068D01*
X271300Y212900D02*
X273000Y211200D01*
X271300Y212900D02*
Y244200D01*
Y150400D02*
Y209500D01*
X269800Y151086D02*
Y255957D01*
X268300Y151708D02*
Y256579D01*
X266800Y152329D02*
Y257200D01*
X265300Y152950D02*
Y257900D01*
X223743Y212943D02*
X259943D01*
X263700Y216700D01*
Y251200D01*
X271300Y209500D02*
X272900Y211100D01*
X273000Y211200D01*
X293737Y147137D02*
Y160600D01*
X292100Y145500D02*
X293737Y147137D01*
X276200Y145500D02*
X292100D01*
X293737Y147137D02*
X295300Y145574D01*
Y145500D02*
Y145574D01*
Y145500D02*
X329512D01*
X352900Y154400D02*
X354400Y155900D01*
Y164403D01*
X352900Y154400D02*
X354400Y152900D01*
X243447Y286753D02*
X256600D01*
X354400Y16000D02*
Y152900D01*
X178463Y257563D02*
Y304237D01*
X121137Y258037D02*
Y261466D01*
X142839Y258039D02*
Y261466D01*
X121137Y258037D02*
X123375Y255800D01*
X140600D01*
X142800Y258000D01*
X77734Y258166D02*
Y261466D01*
Y258166D02*
X80100Y255800D01*
X118900D02*
X121137Y258037D01*
X56032Y258068D02*
Y261466D01*
Y258068D02*
X58300Y255800D01*
X75368D01*
X77734Y258166D01*
X351600Y13200D02*
X354400Y16000D01*
X265300Y257900D02*
X271100Y263700D01*
X273433Y274075D02*
X273475D01*
X275247Y275847D01*
X266800Y257200D02*
X278600Y269000D01*
Y273541D02*
X281153Y276094D01*
X271100Y271741D02*
X273433Y274075D01*
X271100Y263700D02*
Y271741D01*
X274200Y268600D02*
Y271263D01*
X277216Y274278D01*
X278600Y269000D02*
Y271271D01*
Y273541D01*
X256700Y276200D02*
Y278879D01*
Y276200D02*
X258700Y274200D01*
X265200D01*
X142913Y223358D02*
X165742D01*
X168200Y220900D01*
Y217500D02*
Y220900D01*
X170600Y223300D01*
X224500D01*
X241100Y284406D02*
X243447Y286753D01*
X241100Y239900D02*
Y284406D01*
X34041Y171133D02*
X50100D01*
X34041Y237067D02*
X50100D01*
X34041Y303000D02*
X50100D01*
X272491Y282816D02*
X277216D01*
X279184Y278091D02*
Y282816D01*
X247400Y200400D02*
X258200D01*
X262200Y204400D01*
Y210000D01*
X198800Y191541D02*
X217659Y210400D01*
X231376D01*
X195116Y189978D02*
X217037Y211900D01*
X222700D01*
X223743Y212943D01*
X237000Y235800D02*
X241100Y239900D01*
X180300Y249600D02*
Y264000D01*
Y249600D02*
X183100Y246800D01*
X191823D01*
X213177Y237577D02*
Y241800D01*
X211400Y235800D02*
X213177Y237577D01*
X214954Y235800D01*
X237000D01*
X315000Y180800D02*
Y193100D01*
X320566Y198666D01*
X333252D01*
X312900Y178700D02*
X315000Y180800D01*
X312900Y178700D02*
X315000Y176600D01*
X294000Y178700D02*
X312900D01*
X317520Y165802D02*
X324000D01*
X315000Y168321D02*
X317520Y165802D01*
X315000Y168321D02*
Y176600D01*
X30400Y79900D02*
Y253700D01*
X247876Y160524D02*
X252900Y155500D01*
X249700Y164200D02*
X252900D01*
X264800Y108700D02*
X273000Y100500D01*
X261300Y198500D02*
Y198900D01*
X218690Y152425D02*
X228393D01*
X173647Y154309D02*
X173738Y154400D01*
X176684Y158384D02*
X179400Y161100D01*
X108063Y177537D02*
Y182100D01*
X304200Y329140D02*
X323340D01*
X160800Y172200D02*
Y174042D01*
X168200Y217500D02*
X184900D01*
X256378Y108500D02*
X265878Y99000D01*
X212100Y168600D02*
X212900Y169400D01*
X212000Y161900D02*
X214390Y164290D01*
X25800Y39000D02*
X26400Y39600D01*
Y75900D01*
X30400Y79900D01*
X30401Y55899D02*
Y71460D01*
Y55899D02*
X34041Y52259D01*
Y39000D02*
Y52259D01*
X30481Y71381D02*
X34610Y75510D01*
X33450Y21500D02*
Y30650D01*
X34100Y31300D01*
Y37541D01*
X34800Y38241D01*
X177539Y360261D02*
X180400Y357400D01*
X158768Y360261D02*
X177539D01*
X66960Y299263D02*
X67963D01*
X71200Y302500D01*
X78400D01*
X59363Y299263D02*
X64200Y304100D01*
X71300D01*
X74337Y307137D01*
X88200Y302700D02*
Y349092D01*
X99370Y360262D01*
X66960Y337695D02*
X89528Y360262D01*
X66960Y307137D02*
Y337695D01*
X58500Y339077D02*
X79685Y360262D01*
X58500Y307137D02*
Y339077D01*
X66960Y273040D02*
X70066Y269934D01*
X74400D01*
X53865Y255900D02*
X56032Y258068D01*
X32600Y255900D02*
X53865D01*
X30400Y253700D02*
X32600Y255900D01*
X81514Y269934D02*
X94566D01*
X58500Y277600D02*
X59812Y276288D01*
Y269734D02*
Y276288D01*
X132463Y299063D02*
X136000Y302600D01*
X142800D01*
X147137Y306937D01*
X136100Y304100D02*
X138937Y306937D01*
X129100Y304100D02*
X136100D01*
X124063Y299063D02*
X129100Y304100D01*
X123100Y279900D02*
X124917Y278083D01*
Y269734D02*
Y278083D01*
X123100Y279900D02*
Y299063D01*
Y299263D01*
Y299063D02*
X124063D01*
X131460Y273340D02*
Y299063D01*
Y273340D02*
X135066Y269734D01*
X146619D01*
X123100Y344278D02*
X139083Y360261D01*
X123100Y307137D02*
Y344278D01*
X131460Y342795D02*
X148925Y360261D01*
X131460Y307137D02*
Y342795D01*
X152400Y353893D02*
X158768Y360261D01*
X152400Y302300D02*
Y353893D01*
X175763Y306937D02*
X178463Y304237D01*
X142800Y258000D02*
X145000Y255800D01*
X176700D01*
X176800Y255900D02*
X178463Y257563D01*
X176800Y255900D02*
X178700Y254000D01*
Y239200D02*
Y254000D01*
Y239200D02*
X182100Y235800D01*
X211400D01*
X286000Y177500D02*
X309100Y154400D01*
X352900D01*
X65500Y161096D02*
X113196D01*
X114900Y162800D01*
Y173151D01*
Y162800D02*
X119950Y157750D01*
X128600D01*
X118700Y156200D02*
X120100Y157600D01*
X118700Y146500D02*
Y156200D01*
Y146500D02*
X120100Y145100D01*
X164099D01*
X277216Y274278D02*
Y278091D01*
X340897Y297575D02*
Y317575D01*
X357200Y287400D02*
Y346600D01*
X274200Y253800D02*
X323600D01*
X357200Y287400D01*
X350897Y283397D02*
Y297575D01*
X323940Y261300D02*
X328800D01*
X350897Y283397D01*
X323940Y269900D02*
X335100D01*
X336100Y270900D01*
Y322778D01*
X213776Y314060D02*
Y360261D01*
X204100Y321700D02*
Y360094D01*
X288000Y286753D02*
Y291000D01*
X304200Y307200D01*
Y321660D01*
X125400Y122400D02*
X154700D01*
X119900Y127900D02*
X125400Y122400D01*
X119900Y127900D02*
Y136049D01*
X114900Y130621D02*
Y136049D01*
X65500Y131400D02*
Y148104D01*
X109900Y130400D02*
Y136049D01*
Y130400D02*
X112200Y128100D01*
X114900Y130621D02*
X126621Y118900D01*
X152100D01*
X112200Y128100D02*
X115200D01*
X134300Y109000D01*
Y104900D02*
Y109000D01*
X65500Y131400D02*
X68800Y128100D01*
X107600D02*
X109900Y130400D01*
X102050Y116900D02*
Y125650D01*
X99600Y128100D02*
X102050Y125650D01*
X68800Y128100D02*
X99600D01*
X102050Y125650D02*
X104400Y128001D01*
Y128100D01*
X107600D01*
X183305Y179991D02*
Y184905D01*
X185300Y186900D01*
X191179Y179991D02*
Y183721D01*
X190000Y184900D02*
X191179Y183721D01*
X190000Y184900D02*
Y188000D01*
X185300Y186900D02*
X189210Y182990D01*
Y179991D02*
Y182990D01*
X218690Y170195D02*
X223005D01*
X225250Y167950D01*
X226300D01*
X180450Y127200D02*
Y128150D01*
X183305Y131005D01*
Y134809D01*
X207350Y127200D02*
Y128350D01*
X208895Y131770D02*
Y134809D01*
X207350Y130225D02*
X208895Y131770D01*
X207350Y127200D02*
Y130225D01*
X210864Y130836D02*
Y134809D01*
Y130836D02*
X213050Y128650D01*
Y127200D02*
Y128650D01*
X267500Y65350D02*
X268550D01*
X271600Y62300D01*
X274579D01*
X319834Y64913D02*
Y66634D01*
X321015Y67815D01*
Y72400D01*
X280500Y63600D02*
X287900D01*
X289500Y62000D01*
X268843Y13200D02*
X287100D01*
X289500Y15600D01*
X291900Y13200D02*
X351600D01*
X289500Y15600D02*
X291900Y13200D01*
X259282Y58460D02*
X273879D01*
X110700Y255800D02*
X112900Y258000D01*
X80100Y255800D02*
X110700D01*
X112900Y258000D02*
X115100Y255800D01*
X118900D01*
X100800Y307137D02*
X109763D01*
X112900Y304000D01*
Y258000D02*
Y304000D01*
X185250Y188050D02*
Y195500D01*
X159050Y132200D02*
Y139600D01*
X84900Y173151D02*
X89900D01*
X94900D01*
X99900D01*
X84900Y136049D02*
X89900D01*
X94900D01*
X99900D01*
X104900D01*
X274579Y46979D02*
Y58560D01*
Y46979D02*
X276958Y44600D01*
X287900D01*
X289500Y46200D01*
Y62000D01*
Y15600D02*
Y43000D01*
X287900Y44600D02*
X289500Y43000D01*
X218690Y142636D02*
X261350D01*
X269800Y151086D01*
X223795Y144605D02*
X224264Y144136D01*
X260729D01*
X268300Y151708D01*
X224727Y146573D02*
X225664Y145636D01*
X260107D01*
X266800Y152329D01*
X225458Y148542D02*
X226864Y147136D01*
X259486D01*
X265300Y152950D01*
D43*
X362779Y247692D02*
D03*
X303724Y223282D02*
D03*
Y346926D02*
D03*
X362779Y371335D02*
D03*
D44*
X317504Y231156D02*
D03*
X333252D02*
D03*
X349000D02*
D03*
Y354800D02*
D03*
X333252D02*
D03*
X317504D02*
D03*
D45*
X346047Y118300D02*
D03*
D46*
X320457D02*
D03*
X346047Y100584D02*
D03*
X320457D02*
D03*
D47*
X330897Y297575D02*
D03*
X340897D02*
D03*
X350897D02*
D03*
X360897D02*
D03*
X330897Y327575D02*
D03*
X340897D02*
D03*
X350897D02*
D03*
X360897D02*
D03*
D48*
X268784Y360312D02*
D03*
X194091Y360261D02*
D03*
X259000Y13100D02*
D03*
X156800D02*
D03*
X129240Y360261D02*
D03*
D49*
X278626Y360312D02*
D03*
X223618Y360261D02*
D03*
X213776D02*
D03*
X203933D02*
D03*
X268843Y13100D02*
D03*
X215855D02*
D03*
X206013D02*
D03*
X196170D02*
D03*
X186328D02*
D03*
X176485D02*
D03*
X166642D02*
D03*
X158768Y360261D02*
D03*
X148925D02*
D03*
X139083D02*
D03*
D50*
X99370Y360262D02*
D03*
X89528D02*
D03*
X79685D02*
D03*
X69842D02*
D03*
X60000D02*
D03*
D51*
X319834Y19953D02*
D03*
X345818D02*
D03*
D52*
X252100Y156200D02*
D03*
D53*
Y166200D02*
D03*
X165300Y110400D02*
D03*
D54*
X155300D02*
D03*
D55*
X26561Y339290D02*
D03*
Y273345D02*
D03*
Y207400D02*
D03*
Y141455D02*
D03*
D56*
X36403Y339290D02*
D03*
Y273345D02*
D03*
Y207400D02*
D03*
Y141455D02*
D03*
D57*
X40401Y71460D02*
D03*
X30401D02*
D03*
D58*
X20401D02*
D03*
D59*
X160900Y153657D02*
D03*
Y163500D02*
D03*
Y173343D02*
D03*
D60*
X72395Y261466D02*
D03*
X94097D02*
D03*
X193147Y195000D02*
D03*
X222100Y207400D02*
D03*
X196200Y175000D02*
D03*
X190000Y188000D02*
D03*
X173000Y188400D02*
D03*
X177600Y179600D02*
D03*
X188900Y175000D02*
D03*
X183911Y175012D02*
D03*
X211500Y153600D02*
D03*
Y157300D02*
D03*
X148400Y129700D02*
D03*
X188300Y139800D02*
D03*
X181000Y149900D02*
D03*
X178800Y160600D02*
D03*
X181000Y157600D02*
D03*
Y153800D02*
D03*
X168200Y217500D02*
D03*
Y156500D02*
D03*
X173509Y177909D02*
D03*
X171300Y181000D02*
D03*
X222100Y215400D02*
D03*
X178300Y139400D02*
D03*
X279239Y108400D02*
D03*
X247900D02*
D03*
X256378D02*
D03*
X264658D02*
D03*
X287519D02*
D03*
X270400D02*
D03*
X200500Y104900D02*
D03*
X191525Y121900D02*
D03*
X195200Y121700D02*
D03*
X203000Y118600D02*
D03*
X197775Y111600D02*
D03*
X134300Y104900D02*
D03*
X197700Y139800D02*
D03*
X193600D02*
D03*
X201600Y127900D02*
D03*
X203600Y139800D02*
D03*
X149500Y115500D02*
D03*
X152100Y118900D02*
D03*
X154700Y122400D02*
D03*
X212100Y169300D02*
D03*
X211500Y165600D02*
D03*
X212100Y161900D02*
D03*
X222100Y200400D02*
D03*
X198600Y256500D02*
D03*
X203900Y241800D02*
D03*
X206700Y246600D02*
D03*
X204100Y251900D02*
D03*
Y321700D02*
D03*
X213776Y314060D02*
D03*
X223400Y275800D02*
D03*
X228400D02*
D03*
X233400D02*
D03*
X238400D02*
D03*
X228447Y152479D02*
D03*
X231600Y150400D02*
D03*
X225800Y155000D02*
D03*
X137500Y261400D02*
D03*
X159202Y261466D02*
D03*
X100800Y280200D02*
D03*
X155640D02*
D03*
X164000D02*
D03*
X92340D02*
D03*
X207700Y196800D02*
D03*
X217500D02*
D03*
X262300Y195200D02*
D03*
X261100Y191500D02*
D03*
Y198900D02*
D03*
X266900Y280800D02*
D03*
X263800Y284784D02*
D03*
X282100Y273400D02*
D03*
X285300Y276400D02*
D03*
X288000Y286753D02*
D03*
X274200Y253800D02*
D03*
X261100D02*
D03*
X322400Y206934D02*
D03*
X273000Y211200D02*
D03*
X262200D02*
D03*
X278600Y271271D02*
D03*
X274200Y268600D02*
D03*
X265200Y274200D02*
D03*
X130100Y105200D02*
D03*
X238500Y291900D02*
D03*
X50100Y303000D02*
D03*
Y237067D02*
D03*
Y171133D02*
D03*
X182750Y167200D02*
D03*
X187250Y149200D02*
D03*
X185000Y153700D02*
D03*
X187250Y158200D02*
D03*
X185000Y162700D02*
D03*
X187250Y167200D02*
D03*
X191750Y149200D02*
D03*
X189500Y153700D02*
D03*
X191750Y158200D02*
D03*
X189500Y162700D02*
D03*
X191750Y167200D02*
D03*
X196250Y149200D02*
D03*
X194000Y153700D02*
D03*
X196250Y158200D02*
D03*
X194000Y162700D02*
D03*
X196250Y167200D02*
D03*
X200750Y149200D02*
D03*
X198500Y153700D02*
D03*
X200750Y158200D02*
D03*
X198500Y162700D02*
D03*
X200750Y167200D02*
D03*
X205250Y149200D02*
D03*
X203000Y153700D02*
D03*
Y162700D02*
D03*
X160900Y178935D02*
D03*
X165123Y176990D02*
D03*
X159082Y168058D02*
D03*
X155707Y171256D02*
D03*
X155939Y175900D02*
D03*
X166155Y151696D02*
D03*
X162869Y148406D02*
D03*
X158232Y148751D02*
D03*
X155460Y152485D02*
D03*
X156459Y157026D02*
D03*
X173900Y270128D02*
D03*
X238000Y167950D02*
D03*
X295500Y54600D02*
D03*
X131400Y116100D02*
D03*
X271300Y73500D02*
D03*
X281700Y47600D02*
D03*
X216200Y48600D02*
D03*
X122000Y151200D02*
D03*
X94900Y164700D02*
D03*
X132500Y48600D02*
D03*
X125000Y193900D02*
D03*
X44100Y48600D02*
D03*
X238000Y109500D02*
D03*
X257300Y220400D02*
D03*
Y208000D02*
D03*
X182200Y203200D02*
D03*
X202100Y246600D02*
D03*
X225100Y226500D02*
D03*
X109900Y270100D02*
D03*
Y295000D02*
D03*
Y253000D02*
D03*
Y244900D02*
D03*
X283200Y312100D02*
D03*
X262400Y265400D02*
D03*
Y295000D02*
D03*
X298300Y200800D02*
D03*
Y189800D02*
D03*
X324000Y185400D02*
D03*
M02*
