G04 Layer_Color=128*
%FSLAX25Y25*%
%MOIN*%
G70*
G01*
G75*
%ADD121C,0.00200*%
D121*
X57327Y108500D02*
X60673D01*
X59000Y106827D02*
Y110173D01*
X57327Y98500D02*
X60673D01*
X59000Y96827D02*
Y100173D01*
X57327Y88500D02*
X60673D01*
X59000Y86827D02*
Y90173D01*
X355572Y125000D02*
X366990D01*
X361281Y119291D02*
Y130709D01*
X355572Y265000D02*
X366990D01*
X361281Y259291D02*
Y270709D01*
X4291Y369841D02*
X15709D01*
X10000Y364133D02*
Y375550D01*
X4291Y10000D02*
X15709D01*
X10000Y4291D02*
Y15709D01*
X276461Y360312D02*
X280791D01*
X278626Y358147D02*
Y362478D01*
X266618Y360312D02*
X270949D01*
X268784Y358147D02*
Y362478D01*
X191925Y360261D02*
X196256D01*
X194091Y358095D02*
Y362426D01*
X201768Y360261D02*
X206099D01*
X203933Y358095D02*
Y362426D01*
X211610Y360261D02*
X215941D01*
X213776Y358095D02*
Y362426D01*
X221453Y360261D02*
X225783D01*
X223618Y358095D02*
Y362426D01*
X266677Y13100D02*
X271008D01*
X268843Y10935D02*
Y15265D01*
X256835Y13100D02*
X261165D01*
X259000Y10935D02*
Y15265D01*
X154635Y13100D02*
X158965D01*
X156800Y10935D02*
Y15265D01*
X164477Y13100D02*
X168808D01*
X166642Y10935D02*
Y15265D01*
X174320Y13100D02*
X178650D01*
X176485Y10935D02*
Y15265D01*
X184162Y13100D02*
X188493D01*
X186328Y10935D02*
Y15265D01*
X194005Y13100D02*
X198335D01*
X196170Y10935D02*
Y15265D01*
X203847Y13100D02*
X208178D01*
X206013Y10935D02*
Y15265D01*
X213690Y13100D02*
X218021D01*
X215855Y10935D02*
Y15265D01*
X127075Y360261D02*
X131405D01*
X129240Y358095D02*
Y362426D01*
X136917Y360261D02*
X141248D01*
X139083Y358095D02*
Y362426D01*
X146760Y360261D02*
X151091D01*
X148925Y358095D02*
Y362426D01*
X156602Y360261D02*
X160933D01*
X158768Y358095D02*
Y362426D01*
X57638Y360262D02*
X62362D01*
X60000Y357900D02*
Y362624D01*
X67480Y360262D02*
X72205D01*
X69842Y357900D02*
Y362624D01*
X77323Y360262D02*
X82047D01*
X79685Y357900D02*
Y362624D01*
X87165Y360262D02*
X91890D01*
X89528Y357900D02*
Y362624D01*
X97008Y360262D02*
X101732D01*
X99370Y357900D02*
Y362624D01*
X343948Y19953D02*
X347688D01*
X345818Y18083D02*
Y21823D01*
X317964Y19953D02*
X321704D01*
X319834Y18083D02*
Y21823D01*
X249836Y166200D02*
X254364D01*
X252100Y163936D02*
Y168464D01*
X249836Y156200D02*
X254364D01*
X252100Y153936D02*
Y158464D01*
X163036Y110400D02*
X167564D01*
X165300Y108136D02*
Y112664D01*
X153036Y110400D02*
X157564D01*
X155300Y108136D02*
Y112664D01*
X24769Y339290D02*
X28352D01*
X26561Y337499D02*
Y341081D01*
X34612Y339290D02*
X38195D01*
X36403Y337499D02*
Y341081D01*
X24621Y273345D02*
X28203D01*
X26412Y271554D02*
Y275136D01*
X34463Y273345D02*
X38046D01*
X36254Y271554D02*
Y275136D01*
X25420Y207400D02*
X29003D01*
X27212Y205609D02*
Y209191D01*
X35263Y207400D02*
X38846D01*
X37054Y205609D02*
Y209191D01*
X25321Y141455D02*
X28903D01*
X27112Y139664D02*
Y143246D01*
X35163Y141455D02*
X38746D01*
X36954Y139664D02*
Y143246D01*
X347228Y231156D02*
X350772D01*
X349000Y229385D02*
Y232928D01*
X331480Y231156D02*
X335024D01*
X333252Y229385D02*
Y232928D01*
X315732Y231156D02*
X319276D01*
X317504Y229385D02*
Y232928D01*
X300969Y223282D02*
X306480D01*
X303724Y220526D02*
Y226038D01*
X360024Y247692D02*
X365535D01*
X362779Y244936D02*
Y250448D01*
X359499Y327575D02*
X362295D01*
X360897Y326177D02*
Y328972D01*
X349499Y327575D02*
X352295D01*
X350897Y326177D02*
Y328972D01*
X339499Y327575D02*
X342295D01*
X340897Y326177D02*
Y328972D01*
X329499Y327575D02*
X332295D01*
X330897Y326177D02*
Y328972D01*
X359499Y297575D02*
X362295D01*
X360897Y296177D02*
Y298972D01*
X349499Y297575D02*
X352295D01*
X350897Y296177D02*
Y298972D01*
X339499Y297575D02*
X342295D01*
X340897Y296177D02*
Y298972D01*
X329499Y297575D02*
X332295D01*
X330897Y296177D02*
Y298972D01*
X318488Y100584D02*
X322425D01*
X320457Y98615D02*
Y102552D01*
X344079Y100584D02*
X348016D01*
X346047Y98615D02*
Y102552D01*
X318488Y118300D02*
X322425D01*
X320457Y116332D02*
Y120268D01*
X344079Y118300D02*
X348016D01*
X346047Y116332D02*
Y120268D01*
X18826Y71460D02*
X21976D01*
X20401Y69885D02*
Y73035D01*
X28826Y71460D02*
X31976D01*
X30401Y69885D02*
Y73035D01*
X38826Y71460D02*
X41976D01*
X40401Y69885D02*
Y73035D01*
X347228Y354800D02*
X350772D01*
X349000Y353028D02*
Y356572D01*
X331480Y354800D02*
X335024D01*
X333252Y353028D02*
Y356572D01*
X315732Y354800D02*
X319276D01*
X317504Y353028D02*
Y356572D01*
X300969Y346926D02*
X306480D01*
X303724Y344170D02*
Y349682D01*
X360024Y371335D02*
X365535D01*
X362779Y368580D02*
Y374091D01*
X159463Y173343D02*
X162337D01*
X160900Y171906D02*
Y174779D01*
X159463Y163500D02*
X162337D01*
X160900Y162063D02*
Y164937D01*
X159463Y153657D02*
X162337D01*
X160900Y152220D02*
Y155095D01*
X273389Y355780D02*
X274964D01*
X274177Y354993D02*
Y356568D01*
X277668Y353961D02*
X279243D01*
X278455Y353174D02*
Y354749D01*
X281569Y351431D02*
X283144D01*
X282356Y350643D02*
Y352218D01*
X282613Y346900D02*
X284188D01*
X283401Y346113D02*
Y347688D01*
X282613Y342250D02*
X284188D01*
X283401Y341463D02*
Y343038D01*
X282613Y337601D02*
X284188D01*
X283401Y336813D02*
Y338388D01*
X282613Y332951D02*
X284188D01*
X283401Y332164D02*
Y333739D01*
X282613Y328302D02*
X284188D01*
X283401Y327514D02*
Y329089D01*
X282613Y323652D02*
X284188D01*
X283401Y322865D02*
Y324440D01*
X282613Y319002D02*
X284188D01*
X283401Y318215D02*
Y319790D01*
X282613Y314353D02*
X284188D01*
X283401Y313565D02*
Y315140D01*
X286155Y295303D02*
X287730D01*
X286942Y294516D02*
Y296091D01*
X290550Y296821D02*
X292125D01*
X291337Y296033D02*
Y297608D01*
X290991Y301449D02*
X292566D01*
X291778Y300662D02*
Y302237D01*
X291621Y306056D02*
X293196D01*
X292408Y305269D02*
Y306844D01*
X291621Y310706D02*
X293196D01*
X292408Y309918D02*
Y311493D01*
X289898Y315024D02*
X291473D01*
X290686Y314237D02*
Y315812D01*
X289898Y319674D02*
X291473D01*
X290686Y318887D02*
Y320462D01*
X289898Y324324D02*
X291473D01*
X290686Y323536D02*
Y325111D01*
X289898Y328973D02*
X291473D01*
X290686Y328186D02*
Y329761D01*
X289898Y333623D02*
X291473D01*
X290686Y332836D02*
Y334410D01*
X289898Y338273D02*
X291473D01*
X290686Y337485D02*
Y339060D01*
X289898Y342922D02*
X291473D01*
X290686Y342135D02*
Y343710D01*
X289898Y347572D02*
X291473D01*
X290686Y346784D02*
Y348359D01*
X289872Y352221D02*
X291447D01*
X290659Y351434D02*
Y353009D01*
X287245Y356058D02*
X288820D01*
X288032Y355270D02*
Y356845D01*
X284138Y359517D02*
X285713D01*
X284926Y358730D02*
Y360304D01*
X282994Y364024D02*
X284569D01*
X283781Y363236D02*
Y364811D01*
X279091Y366551D02*
X280666D01*
X279879Y365764D02*
Y367339D01*
X130613Y108700D02*
X132187D01*
X131400Y107913D02*
Y109487D01*
X264413Y366617D02*
X265988D01*
X265200Y365830D02*
Y367405D01*
X261647Y362880D02*
X263222D01*
X262434Y362093D02*
Y363667D01*
X261398Y358237D02*
X262973D01*
X262186Y357450D02*
Y359024D01*
X258192Y354870D02*
X259767D01*
X258980Y354082D02*
Y355657D01*
X257627Y350254D02*
X259202D01*
X258414Y349467D02*
Y351042D01*
X257627Y345605D02*
X259202D01*
X258414Y344817D02*
Y346392D01*
X257627Y340955D02*
X259202D01*
X258414Y340168D02*
Y341743D01*
X257627Y336306D02*
X259202D01*
X258414Y335518D02*
Y337093D01*
X257627Y331656D02*
X259202D01*
X258414Y330869D02*
Y332443D01*
X257627Y327006D02*
X259202D01*
X258414Y326219D02*
Y327794D01*
X257627Y322357D02*
X259202D01*
X258414Y321569D02*
Y323144D01*
X257627Y317707D02*
X259202D01*
X258414Y316920D02*
Y318495D01*
X256408Y313220D02*
X257983D01*
X257195Y312433D02*
Y314007D01*
X255904Y308598D02*
X257479D01*
X256692Y307810D02*
Y309385D01*
X256534Y303991D02*
X258109D01*
X257322Y303204D02*
Y304779D01*
X256534Y299342D02*
X258109D01*
X257322Y298554D02*
Y300129D01*
X258983Y295389D02*
X260558D01*
X259771Y294602D02*
Y296177D01*
X264912Y316971D02*
X266487D01*
X265699Y316183D02*
Y317758D01*
X264912Y321620D02*
X266487D01*
X265699Y320833D02*
Y322408D01*
X264912Y326270D02*
X266487D01*
X265699Y325483D02*
Y327057D01*
X264912Y330920D02*
X266487D01*
X265699Y330132D02*
Y331707D01*
X264912Y335569D02*
X266487D01*
X265699Y334782D02*
Y336356D01*
X264912Y340219D02*
X266487D01*
X265699Y339431D02*
Y341006D01*
X264912Y344868D02*
X266487D01*
X265699Y344081D02*
Y345656D01*
X264912Y349518D02*
X266487D01*
X265699Y348730D02*
Y350305D01*
X267090Y353626D02*
X268665D01*
X267877Y352838D02*
Y354413D01*
X272047Y366556D02*
X273622D01*
X272834Y365769D02*
Y367343D01*
X219113Y187400D02*
X220687D01*
X219900Y186613D02*
Y188187D01*
X58213Y59300D02*
X59787D01*
X59000Y58513D02*
Y60087D01*
X130513Y115300D02*
X132087D01*
X131300Y114513D02*
Y116087D01*
X109113Y128300D02*
X110687D01*
X109900Y127513D02*
Y129087D01*
X323213Y185400D02*
X324787D01*
X324000Y184613D02*
Y186187D01*
X297513Y189800D02*
X299087D01*
X298300Y189013D02*
Y190587D01*
X297513Y200800D02*
X299087D01*
X298300Y200013D02*
Y201587D01*
X273763Y308700D02*
X275337D01*
X274550Y307913D02*
Y309487D01*
X259013Y265400D02*
X260587D01*
X259800Y264613D02*
Y266187D01*
X152513Y326228D02*
X154087D01*
X153300Y325440D02*
Y327015D01*
X87713Y326228D02*
X89287D01*
X88500Y325440D02*
Y327015D01*
X224313Y226500D02*
X225887D01*
X225100Y225713D02*
Y227287D01*
X201313Y246600D02*
X202887D01*
X202100Y245813D02*
Y247387D01*
X256513Y208000D02*
X258087D01*
X257300Y207213D02*
Y208787D01*
X256513Y220400D02*
X258087D01*
X257300Y219613D02*
Y221187D01*
X237213Y109500D02*
X238787D01*
X238000Y108713D02*
Y110287D01*
X124213Y193900D02*
X125787D01*
X125000Y193113D02*
Y194687D01*
X131713Y48600D02*
X133287D01*
X132500Y47813D02*
Y49387D01*
X94113Y165800D02*
X95687D01*
X94900Y165013D02*
Y166587D01*
X121213Y151200D02*
X122787D01*
X122000Y150413D02*
Y151987D01*
X215413Y48600D02*
X216987D01*
X216200Y47813D02*
Y49387D01*
X278713Y47600D02*
X280287D01*
X279500Y46813D02*
Y48387D01*
X270513Y73500D02*
X272087D01*
X271300Y72713D02*
Y74287D01*
X314716Y57039D02*
X316290D01*
X315503Y56252D02*
Y57827D01*
X224613Y163700D02*
X226187D01*
X225400Y162913D02*
Y164487D01*
X155672Y157026D02*
X157246D01*
X156459Y156238D02*
Y157813D01*
X154673Y152485D02*
X156248D01*
X155460Y151697D02*
Y153272D01*
X157445Y148751D02*
X159019D01*
X158232Y147964D02*
Y149539D01*
X162081Y148406D02*
X163656D01*
X162869Y147619D02*
Y149194D01*
X165367Y151696D02*
X166942D01*
X166155Y150909D02*
Y152483D01*
X155152Y175900D02*
X156727D01*
X155939Y175112D02*
Y176687D01*
X154920Y171256D02*
X156494D01*
X155707Y170468D02*
Y172043D01*
X158295Y168058D02*
X159870D01*
X159082Y167271D02*
Y168846D01*
X164336Y176990D02*
X165911D01*
X165123Y176203D02*
Y177777D01*
X160113Y178935D02*
X161687D01*
X160900Y178147D02*
Y179722D01*
X202213Y162700D02*
X203787D01*
X203000Y161913D02*
Y163487D01*
X202213Y153700D02*
X203787D01*
X203000Y152913D02*
Y154487D01*
X204463Y149200D02*
X206037D01*
X205250Y148413D02*
Y149987D01*
X199963Y167200D02*
X201537D01*
X200750Y166413D02*
Y167987D01*
X197713Y162700D02*
X199287D01*
X198500Y161913D02*
Y163487D01*
X199963Y158200D02*
X201537D01*
X200750Y157413D02*
Y158987D01*
X197713Y153700D02*
X199287D01*
X198500Y152913D02*
Y154487D01*
X199963Y149200D02*
X201537D01*
X200750Y148413D02*
Y149987D01*
X195463Y167200D02*
X197037D01*
X196250Y166413D02*
Y167987D01*
X193213Y162700D02*
X194787D01*
X194000Y161913D02*
Y163487D01*
X195463Y158200D02*
X197037D01*
X196250Y157413D02*
Y158987D01*
X193213Y153700D02*
X194787D01*
X194000Y152913D02*
Y154487D01*
X195463Y149200D02*
X197037D01*
X196250Y148413D02*
Y149987D01*
X190963Y158200D02*
X192537D01*
X191750Y157413D02*
Y158987D01*
X188713Y153700D02*
X190287D01*
X189500Y152913D02*
Y154487D01*
X190963Y149200D02*
X192537D01*
X191750Y148413D02*
Y149987D01*
X186463Y149200D02*
X188037D01*
X187250Y148413D02*
Y149987D01*
X49313Y171133D02*
X50887D01*
X50100Y170346D02*
Y171921D01*
X49313Y237067D02*
X50887D01*
X50100Y236279D02*
Y237854D01*
X49313Y303000D02*
X50887D01*
X50100Y302213D02*
Y303787D01*
X237713Y291900D02*
X239287D01*
X238500Y291113D02*
Y292687D01*
X259013Y274200D02*
X260587D01*
X259800Y273413D02*
Y274987D01*
X268013Y266400D02*
X269587D01*
X268800Y265613D02*
Y267187D01*
X272413Y271271D02*
X273987D01*
X273200Y270483D02*
Y272058D01*
X261413Y211200D02*
X262987D01*
X262200Y210413D02*
Y211987D01*
X272213Y211200D02*
X273787D01*
X273000Y210413D02*
Y211987D01*
X321613Y206934D02*
X323187D01*
X322400Y206147D02*
Y207721D01*
X260313Y253800D02*
X261887D01*
X261100Y253013D02*
Y254587D01*
X273413Y253800D02*
X274987D01*
X274200Y253013D02*
Y254587D01*
X281813Y286753D02*
X283387D01*
X282600Y285965D02*
Y287540D01*
X279113Y276400D02*
X280687D01*
X279900Y275613D02*
Y277187D01*
X275913Y273400D02*
X277487D01*
X276700Y272613D02*
Y274187D01*
X257613Y284784D02*
X259187D01*
X258400Y283997D02*
Y285572D01*
X260713Y280800D02*
X262287D01*
X261500Y280013D02*
Y281587D01*
X260313Y198900D02*
X261887D01*
X261100Y198113D02*
Y199687D01*
X260313Y191500D02*
X261887D01*
X261100Y190713D02*
Y192287D01*
X261513Y195200D02*
X263087D01*
X262300Y194413D02*
Y195987D01*
X216713Y196800D02*
X218287D01*
X217500Y196013D02*
Y197587D01*
X206913Y196800D02*
X208487D01*
X207700Y196013D02*
Y197587D01*
X237613Y275800D02*
X239187D01*
X238400Y275013D02*
Y276587D01*
X232613Y275800D02*
X234187D01*
X233400Y275013D02*
Y276587D01*
X227613Y275800D02*
X229187D01*
X228400Y275013D02*
Y276587D01*
X222613Y275800D02*
X224187D01*
X223400Y275013D02*
Y276587D01*
X212988Y314060D02*
X214563D01*
X213776Y313272D02*
Y314847D01*
X203313Y321700D02*
X204887D01*
X204100Y320913D02*
Y322487D01*
X203313Y251900D02*
X204887D01*
X204100Y251113D02*
Y252687D01*
X205913Y246600D02*
X207487D01*
X206700Y245813D02*
Y247387D01*
X203113Y241800D02*
X204687D01*
X203900Y241013D02*
Y242587D01*
X197813Y256500D02*
X199387D01*
X198600Y255713D02*
Y257287D01*
X211313Y161900D02*
X212887D01*
X212100Y161113D02*
Y162687D01*
X211313Y165600D02*
X212887D01*
X212100Y164813D02*
Y166387D01*
X211313Y169300D02*
X212887D01*
X212100Y168513D02*
Y170087D01*
X153913Y122400D02*
X155487D01*
X154700Y121613D02*
Y123187D01*
X151313Y118900D02*
X152887D01*
X152100Y118113D02*
Y119687D01*
X148713Y115500D02*
X150287D01*
X149500Y114713D02*
Y116287D01*
X202813Y139800D02*
X204387D01*
X203600Y139013D02*
Y140587D01*
X192813Y139800D02*
X194387D01*
X193600Y139013D02*
Y140587D01*
X196913Y139800D02*
X198487D01*
X197700Y139013D02*
Y140587D01*
X196987Y111600D02*
X198562D01*
X197775Y110813D02*
Y112387D01*
X199713Y104900D02*
X201287D01*
X200500Y104113D02*
Y105687D01*
X269613Y108400D02*
X271187D01*
X270400Y107613D02*
Y109187D01*
X286732Y108400D02*
X288307D01*
X287519Y107613D02*
Y109187D01*
X263871Y108400D02*
X265445D01*
X264658Y107613D02*
Y109187D01*
X255590Y108400D02*
X257165D01*
X256378Y107613D02*
Y109187D01*
X247113Y108400D02*
X248687D01*
X247900Y107613D02*
Y109187D01*
X278451Y108400D02*
X280026D01*
X279239Y107613D02*
Y109187D01*
X221313Y215400D02*
X222887D01*
X222100Y214613D02*
Y216187D01*
X167413Y217500D02*
X168987D01*
X168200Y216713D02*
Y218287D01*
X187513Y139800D02*
X189087D01*
X188300Y139013D02*
Y140587D01*
X147613Y129700D02*
X149187D01*
X148400Y128913D02*
Y130487D01*
X211313Y157300D02*
X212887D01*
X212100Y156513D02*
Y158087D01*
X211313Y153600D02*
X212887D01*
X212100Y152813D02*
Y154387D01*
X189213Y188000D02*
X190787D01*
X190000Y187213D02*
Y188787D01*
X196013Y175000D02*
X197587D01*
X196800Y174213D02*
Y175787D01*
X221313Y207400D02*
X222887D01*
X222100Y206613D02*
Y208187D01*
X192360Y195000D02*
X193935D01*
X193147Y194213D02*
Y195787D01*
X130613Y98900D02*
X132187D01*
X131400Y98113D02*
Y99687D01*
X188713Y162700D02*
X190287D01*
X189500Y161913D02*
Y163487D01*
X186463Y158200D02*
X188037D01*
X187250Y157413D02*
Y158987D01*
X180213Y149900D02*
X181787D01*
X181000Y149113D02*
Y150687D01*
X184213Y153700D02*
X185787D01*
X185000Y152913D02*
Y154487D01*
X181413Y203200D02*
X182987D01*
X182200Y202413D02*
Y203987D01*
X190963Y167200D02*
X192537D01*
X191750Y166413D02*
Y167987D01*
X180213Y153800D02*
X181787D01*
X181000Y153013D02*
Y154587D01*
X180213Y157600D02*
X181787D01*
X181000Y156813D02*
Y158387D01*
X181963Y167200D02*
X183537D01*
X182750Y166413D02*
Y167987D01*
X184213Y162700D02*
X185787D01*
X185000Y161913D02*
Y163487D01*
X150313Y183200D02*
X151887D01*
X151100Y182413D02*
Y183987D01*
X146913Y185700D02*
X148487D01*
X147700Y184913D02*
Y186487D01*
X174213Y188500D02*
X175787D01*
X175000Y187713D02*
Y189287D01*
X171713Y191300D02*
X173287D01*
X172500Y190513D02*
Y192087D01*
X171713Y185500D02*
X173287D01*
X172500Y184713D02*
Y186287D01*
X230813Y150400D02*
X232387D01*
X231600Y149613D02*
Y151187D01*
X227659Y152479D02*
X229234D01*
X228447Y151691D02*
Y153266D01*
X221313Y200400D02*
X222887D01*
X222100Y199613D02*
Y201187D01*
X225013Y155000D02*
X226587D01*
X225800Y154213D02*
Y155787D01*
X208113Y141500D02*
X209687D01*
X208900Y140713D02*
Y142287D01*
X180613Y140400D02*
X182187D01*
X181400Y139613D02*
Y141187D01*
X202213Y118600D02*
X203787D01*
X203000Y117813D02*
Y119387D01*
X200813Y127900D02*
X202387D01*
X201600Y127113D02*
Y128687D01*
X190738Y115000D02*
X192313D01*
X191525Y114213D02*
Y115787D01*
X169013Y119000D02*
X170587D01*
X169800Y118213D02*
Y119787D01*
X194413Y118000D02*
X195987D01*
X195200Y117213D02*
Y118787D01*
X183613Y173000D02*
X185187D01*
X184400Y172213D02*
Y173787D01*
X178913Y164800D02*
X180487D01*
X179700Y164013D02*
Y165587D01*
X180213Y161300D02*
X181787D01*
X181000Y160513D02*
Y162087D01*
X153213Y142900D02*
X154787D01*
X154000Y142113D02*
Y143687D01*
X94113Y143400D02*
X95687D01*
X94900Y142613D02*
Y144187D01*
X188013Y172400D02*
X189587D01*
X188800Y171613D02*
Y173187D01*
X186463Y167200D02*
X188037D01*
X187250Y166413D02*
Y167987D01*
X190613Y175000D02*
X192187D01*
X191400Y174213D02*
Y175787D01*
X82613Y290394D02*
X84187D01*
X83400Y289607D02*
Y291182D01*
X86413Y281741D02*
X87987D01*
X87200Y280954D02*
Y282529D01*
X151179Y281741D02*
X152754D01*
X151966Y280954D02*
Y282529D01*
X147379Y290394D02*
X148954D01*
X148166Y289607D02*
Y291182D01*
X272013Y283800D02*
X273587D01*
X272800Y283013D02*
Y284587D01*
X264813Y296000D02*
X266387D01*
X265600Y295213D02*
Y296787D01*
X282713Y296000D02*
X284287D01*
X283500Y295213D02*
Y296787D01*
X273763Y301200D02*
X275337D01*
X274550Y300413D02*
Y301987D01*
X30613Y97700D02*
X32187D01*
X31400Y96913D02*
Y98487D01*
M02*
