G04 Layer_Color=16711935*
%FSLAX25Y25*%
%MOIN*%
G70*
G01*
G75*
%ADD97C,0.05725*%
%ADD98R,0.05918X0.05918*%
%ADD99C,0.05918*%
%ADD100R,0.06375X0.06375*%
%ADD101C,0.06375*%
%ADD102C,0.07591*%
%ADD103R,0.07591X0.07591*%
%ADD104R,0.07591X0.07591*%
%ADD105C,0.02670*%
%ADD106C,0.07887*%
%ADD107R,0.07296X0.07296*%
%ADD108C,0.07296*%
%ADD109C,0.05591*%
%ADD110C,0.09068*%
%ADD111C,0.06312*%
%ADD112C,0.06706*%
%ADD113R,0.06706X0.06706*%
%ADD114C,0.00800*%
D97*
X160900Y173343D02*
D03*
Y163500D02*
D03*
Y153657D02*
D03*
D98*
X20401Y71460D02*
D03*
D99*
X30401D02*
D03*
X40401D02*
D03*
D100*
X26561Y141455D02*
D03*
Y207400D02*
D03*
Y273345D02*
D03*
Y339290D02*
D03*
D101*
X36403Y141455D02*
D03*
Y207400D02*
D03*
Y273345D02*
D03*
Y339290D02*
D03*
D102*
X165300Y110400D02*
D03*
X252100Y166200D02*
D03*
D103*
X155300Y110400D02*
D03*
D104*
X252100Y156200D02*
D03*
D105*
X345818Y19953D02*
D03*
X319834D02*
D03*
D106*
X60000Y360262D02*
D03*
X69842D02*
D03*
X79685D02*
D03*
X89528D02*
D03*
X99370D02*
D03*
D107*
X129240Y360261D02*
D03*
X156800Y13100D02*
D03*
X259000D02*
D03*
X194091Y360261D02*
D03*
X268784Y360312D02*
D03*
D108*
X139083Y360261D02*
D03*
X148925D02*
D03*
X158768D02*
D03*
X166642Y13100D02*
D03*
X176485D02*
D03*
X186328D02*
D03*
X196170D02*
D03*
X206013D02*
D03*
X215855D02*
D03*
X268843D02*
D03*
X203933Y360261D02*
D03*
X213776D02*
D03*
X223618D02*
D03*
X278626Y360312D02*
D03*
D109*
X360897Y329775D02*
D03*
X350897D02*
D03*
X340897D02*
D03*
X330897D02*
D03*
X360897Y299775D02*
D03*
X350897D02*
D03*
X340897D02*
D03*
X330897D02*
D03*
D110*
X362779Y371335D02*
D03*
X303724Y346926D02*
D03*
Y223282D02*
D03*
X362779Y247692D02*
D03*
D111*
X317504Y354800D02*
D03*
X333252D02*
D03*
X349000D02*
D03*
Y231156D02*
D03*
X333252D02*
D03*
X317504D02*
D03*
D112*
X320457Y100584D02*
D03*
X346047D02*
D03*
X320457Y118300D02*
D03*
D113*
X346047D02*
D03*
D114*
X361281Y125000D02*
D03*
Y265000D02*
D03*
X10000Y369841D02*
D03*
Y10000D02*
D03*
M02*
