G04 Layer_Physical_Order=1*
G04 Layer_Color=255*
%FSLAX25Y25*%
%MOIN*%
G70*
G01*
G75*
%ADD10R,0.03740X0.05709*%
%ADD11R,0.04016X0.05787*%
%ADD12R,0.05709X0.04528*%
%ADD13R,0.05787X0.04016*%
%ADD14R,0.04528X0.05709*%
%ADD15R,0.03600X0.05700*%
%ADD16R,0.02953X0.04921*%
%ADD17R,0.06299X0.05000*%
%ADD18R,0.02362X0.05512*%
%ADD19R,0.04724X0.02100*%
%ADD20R,0.04921X0.04921*%
%ADD21R,0.03347X0.01181*%
%ADD22R,0.01181X0.03347*%
%ADD23R,0.06004X0.02559*%
%ADD24R,0.02559X0.07579*%
%ADD25R,0.05807X0.01181*%
%ADD26R,0.01181X0.05807*%
%ADD27R,0.10236X0.11811*%
%ADD28R,0.14173X0.11811*%
%ADD29R,0.04331X0.09449*%
%ADD30R,0.02441X0.05512*%
%ADD31R,0.10984X0.02913*%
%ADD32R,0.04134X0.05591*%
%ADD33R,0.06890X0.05906*%
%ADD34R,0.02559X0.04724*%
%ADD35R,0.04134X0.05512*%
%ADD36R,0.05709X0.03740*%
%ADD37R,0.05709X0.03937*%
%ADD38R,0.05512X0.04134*%
%ADD39R,0.02756X0.01673*%
%ADD40R,0.05906X0.04331*%
%ADD41R,0.02992X0.05000*%
%ADD42R,0.08268X0.05512*%
%ADD43C,0.01000*%
%ADD44R,0.05020X0.05020*%
%ADD45C,0.05020*%
%ADD46C,0.06496*%
%ADD47R,0.06496X0.06496*%
%ADD48C,0.07087*%
%ADD49C,0.01870*%
%ADD50C,0.06791*%
%ADD51R,0.06791X0.06791*%
%ADD52R,0.06791X0.06791*%
%ADD53R,0.05575X0.05575*%
%ADD54C,0.05575*%
%ADD55C,0.05512*%
%ADD56C,0.08268*%
%ADD57C,0.04791*%
%ADD58C,0.05906*%
%ADD59R,0.05906X0.05906*%
%ADD60R,0.05118X0.05118*%
%ADD61C,0.05118*%
%ADD62C,0.04925*%
%ADD63C,0.03150*%
G36*
X371300Y0D02*
X0D01*
Y379800D01*
X371300D01*
Y0D01*
D02*
G37*
%LPC*%
G36*
X363280Y376448D02*
Y371835D01*
X367892D01*
X367781Y372676D01*
X367264Y373924D01*
X366441Y374997D01*
X365369Y375820D01*
X364120Y376337D01*
X363280Y376448D01*
D02*
G37*
G36*
X362280D02*
X361439Y376337D01*
X360190Y375820D01*
X359118Y374997D01*
X358295Y373924D01*
X357778Y372676D01*
X357667Y371835D01*
X362280D01*
Y376448D01*
D02*
G37*
G36*
X367892Y370835D02*
X363280D01*
Y366223D01*
X364120Y366334D01*
X365369Y366851D01*
X366441Y367674D01*
X367264Y368746D01*
X367781Y369995D01*
X367892Y370835D01*
D02*
G37*
G36*
X362280D02*
X357667D01*
X357778Y369995D01*
X358295Y368746D01*
X359118Y367674D01*
X360190Y366851D01*
X361439Y366334D01*
X362280Y366223D01*
Y370835D01*
D02*
G37*
G36*
X278823Y365084D02*
X278626Y365071D01*
X278429Y365084D01*
X277581Y364973D01*
X277394Y364909D01*
X277201Y364871D01*
X276411Y364544D01*
X276247Y364434D01*
X276069Y364347D01*
X275391Y363826D01*
X275261Y363678D01*
X275112Y363547D01*
X274592Y362869D01*
X274504Y362692D01*
X274395Y362528D01*
X274068Y361738D01*
X274063Y361715D01*
X274041Y361713D01*
X273541Y362158D01*
Y363560D01*
X273426Y364138D01*
X273099Y364627D01*
X272609Y364954D01*
X272032Y365069D01*
X265536D01*
X264958Y364954D01*
X264469Y364627D01*
X264141Y364138D01*
X264027Y363560D01*
Y357826D01*
X260607Y354406D01*
X260280Y353917D01*
X260121Y353534D01*
X260006Y352957D01*
X260006Y352957D01*
Y313063D01*
X259793D01*
X259215Y312948D01*
X258726Y312621D01*
X258399Y312132D01*
X258284Y311554D01*
Y305846D01*
X258399Y305268D01*
X258726Y304779D01*
X259030Y304575D01*
X259029Y304573D01*
X258914Y303995D01*
Y298405D01*
X259029Y297827D01*
X259356Y297338D01*
X259845Y297011D01*
X260423Y296896D01*
X264557D01*
X265134Y297011D01*
X265624Y297338D01*
X265781Y297573D01*
X266081Y297848D01*
X266437Y297905D01*
X269753D01*
X272765Y294893D01*
Y292182D01*
X272316D01*
Y289509D01*
X271316D01*
Y292182D01*
X270225D01*
Y291682D01*
X268757D01*
Y287843D01*
X264918D01*
Y285804D01*
X260214D01*
X259896Y286280D01*
X259209Y286739D01*
X258400Y286900D01*
X257591Y286739D01*
X256904Y286280D01*
X256446Y285594D01*
X256284Y284784D01*
X256446Y283975D01*
X256904Y283288D01*
X257591Y282830D01*
X258400Y282669D01*
X259209Y282830D01*
X259896Y283288D01*
X260214Y283765D01*
X264418D01*
Y283316D01*
X267091D01*
Y282316D01*
X264418D01*
Y281867D01*
X263282D01*
X262996Y282296D01*
X262310Y282754D01*
X261500Y282915D01*
X260690Y282754D01*
X260004Y282296D01*
X259546Y281610D01*
X259384Y280800D01*
X259546Y279991D01*
X260004Y279304D01*
X260690Y278846D01*
X261500Y278684D01*
X262310Y278846D01*
X262996Y279304D01*
X263346Y279828D01*
X264918D01*
Y279757D01*
X268757D01*
Y276199D01*
X267437Y274879D01*
X267313Y274796D01*
X264579Y272062D01*
X264358Y271731D01*
X264280Y271341D01*
Y252715D01*
X263819Y252523D01*
X263104Y253238D01*
X263215Y253800D01*
X263054Y254609D01*
X262596Y255296D01*
X261910Y255754D01*
X261100Y255915D01*
X260291Y255754D01*
X259604Y255296D01*
X259146Y254609D01*
X258984Y253800D01*
X259146Y252991D01*
X259604Y252304D01*
X260291Y251846D01*
X261100Y251684D01*
X261662Y251796D01*
X262680Y250778D01*
Y217122D01*
X259521Y213963D01*
X253392D01*
Y217357D01*
X241408D01*
Y213963D01*
X237368D01*
Y217357D01*
X225384D01*
Y216420D01*
X223914D01*
X223596Y216896D01*
X222909Y217354D01*
X222100Y217515D01*
X221290Y217354D01*
X220604Y216896D01*
X220146Y216210D01*
X219985Y215400D01*
X220146Y214591D01*
X220604Y213904D01*
X221290Y213446D01*
X221421Y213420D01*
X221372Y212920D01*
X217037D01*
X216647Y212842D01*
X216316Y212621D01*
X194667Y190971D01*
X194167Y191179D01*
Y193186D01*
X194643Y193504D01*
X195102Y194191D01*
X195263Y195000D01*
X195102Y195809D01*
X194643Y196496D01*
X193957Y196954D01*
X193147Y197116D01*
X192338Y196954D01*
X191651Y196496D01*
X191193Y195809D01*
X191032Y195000D01*
X191193Y194191D01*
X191651Y193504D01*
X192128Y193186D01*
Y189450D01*
X191628Y189299D01*
X191496Y189496D01*
X190810Y189954D01*
X190000Y190115D01*
X189190Y189954D01*
X188600Y189560D01*
X188100Y189723D01*
Y191606D01*
X188258D01*
Y195000D01*
X185250D01*
X182242D01*
Y191606D01*
X182500D01*
Y188500D01*
X185300D01*
Y187500D01*
X182500D01*
Y185500D01*
X182363Y185295D01*
X182295Y184954D01*
X182151Y184865D01*
X181785Y184757D01*
X181220Y185322D01*
Y185700D01*
X181200Y185799D01*
Y191350D01*
X179970D01*
Y192106D01*
X181458D01*
Y198894D01*
X179970D01*
Y201150D01*
X179892Y201540D01*
X179671Y201871D01*
X175420Y206122D01*
Y207993D01*
X177656D01*
Y213127D01*
X171144D01*
Y207993D01*
X173380D01*
Y205700D01*
X173458Y205310D01*
X173679Y204979D01*
X177931Y200727D01*
Y198894D01*
X176443D01*
Y192106D01*
X177931D01*
Y191350D01*
X176600D01*
Y190528D01*
X176100Y190260D01*
X175810Y190454D01*
X175000Y190615D01*
X174899Y190595D01*
X174546Y190949D01*
X174616Y191300D01*
X174454Y192110D01*
X173996Y192796D01*
X173310Y193254D01*
X172500Y193415D01*
X171690Y193254D01*
X171004Y192796D01*
X170686Y192320D01*
X110500D01*
X110110Y192242D01*
X109779Y192021D01*
X104179Y186421D01*
X103958Y186090D01*
X103880Y185700D01*
Y177441D01*
X103121D01*
Y168862D01*
X106679D01*
Y176956D01*
X106679Y176976D01*
X106764Y177009D01*
X106871Y177022D01*
Y177022D01*
X106871D01*
D01*
X107324Y176843D01*
X107342Y176816D01*
X108121Y176038D01*
Y168862D01*
X111679D01*
Y177441D01*
X109601D01*
X109083Y177959D01*
Y178746D01*
X110833D01*
Y185454D01*
X110150D01*
X109958Y185916D01*
X111522Y187480D01*
X145799D01*
X146060Y186980D01*
X145746Y186510D01*
X145584Y185700D01*
X145746Y184890D01*
X146204Y184204D01*
X146890Y183746D01*
X147700Y183584D01*
X148510Y183746D01*
X148595Y183802D01*
X149045Y183502D01*
X148985Y183200D01*
X149146Y182390D01*
X149604Y181704D01*
X150291Y181246D01*
X151100Y181085D01*
X151909Y181246D01*
X152596Y181704D01*
X152914Y182180D01*
X167978D01*
X172490Y177668D01*
Y173254D01*
X170106D01*
Y171073D01*
Y166340D01*
X169560D01*
X164427Y171472D01*
X164474Y171543D01*
X164700Y172087D01*
X164891Y173048D01*
Y173637D01*
X164700Y174598D01*
X164474Y175142D01*
X163930Y175956D01*
X163514Y176373D01*
X162699Y176917D01*
X162155Y177142D01*
X161194Y177333D01*
X160606D01*
X159645Y177142D01*
X159101Y176917D01*
X158286Y176373D01*
X157870Y175956D01*
X157326Y175142D01*
X157100Y174598D01*
X156909Y173637D01*
Y173048D01*
X157100Y172087D01*
X157326Y171543D01*
X157870Y170729D01*
X158286Y170312D01*
X159101Y169768D01*
X159645Y169543D01*
X160606Y169352D01*
X160749D01*
X166780Y163321D01*
X161108Y157648D01*
X160606D01*
X159645Y157457D01*
X159101Y157232D01*
X158286Y156688D01*
X157870Y156271D01*
X157326Y155457D01*
X157100Y154913D01*
X156909Y153952D01*
Y153363D01*
X157100Y152402D01*
X157326Y151858D01*
X157870Y151044D01*
X158286Y150627D01*
X159101Y150083D01*
X159645Y149858D01*
X160606Y149667D01*
X161194D01*
X162155Y149858D01*
X162699Y150083D01*
X163514Y150627D01*
X163930Y151044D01*
X164474Y151858D01*
X164700Y152402D01*
X164891Y153363D01*
Y153952D01*
X164700Y154913D01*
X164545Y155287D01*
X169529Y160271D01*
X170106D01*
Y155325D01*
Y152101D01*
X169606D01*
Y151010D01*
X177493D01*
X177579Y151080D01*
X178378D01*
X178996Y150462D01*
X178884Y149900D01*
X179046Y149091D01*
X179504Y148404D01*
X180191Y147946D01*
X181000Y147784D01*
X181809Y147946D01*
X182496Y148404D01*
X182954Y149091D01*
X183115Y149900D01*
X182954Y150709D01*
X182496Y151396D01*
X182190Y151600D01*
Y152100D01*
X182496Y152304D01*
X182954Y152990D01*
X183115Y153800D01*
X182954Y154610D01*
X182496Y155296D01*
X182265Y155450D01*
Y155950D01*
X182496Y156104D01*
X182954Y156790D01*
X183115Y157600D01*
X182954Y158410D01*
X182496Y159096D01*
X182340Y159200D01*
Y159700D01*
X182496Y159804D01*
X182954Y160491D01*
X183115Y161300D01*
X182954Y162109D01*
X182496Y162796D01*
X181809Y163254D01*
X181680Y163280D01*
X181489Y163742D01*
X181654Y163990D01*
X181816Y164800D01*
X181654Y165610D01*
X181196Y166296D01*
X180720Y166614D01*
Y170785D01*
X181182Y170976D01*
X183079Y169079D01*
X183410Y168858D01*
X183800Y168780D01*
X207780D01*
Y146422D01*
X206178Y144820D01*
X188659D01*
X188268Y144742D01*
X187938Y144521D01*
X185279Y141863D01*
X177879Y149263D01*
X177549Y149484D01*
X177413Y149511D01*
Y150010D01*
X169606D01*
Y149453D01*
X169321Y149263D01*
X165350Y145291D01*
X164320Y146321D01*
X163989Y146542D01*
X163599Y146620D01*
X121022D01*
X119720Y147922D01*
Y155778D01*
X120672Y156730D01*
X125206D01*
Y155242D01*
X131994D01*
Y160257D01*
X125206D01*
Y158769D01*
X120373D01*
X115920Y163222D01*
Y168862D01*
X116680D01*
Y176438D01*
X117058Y176816D01*
X117279Y177147D01*
X117357Y177537D01*
Y178746D01*
X118707D01*
Y185454D01*
X113967D01*
Y178746D01*
X115317D01*
Y177959D01*
X114799Y177441D01*
X113120D01*
Y168862D01*
X113880D01*
Y162800D01*
X113958Y162410D01*
X114179Y162079D01*
X118658Y157600D01*
X117979Y156921D01*
X117758Y156590D01*
X117680Y156200D01*
Y147500D01*
X117758Y147110D01*
X117979Y146779D01*
X119879Y144879D01*
X120210Y144658D01*
X120600Y144580D01*
X163177D01*
X164264Y143494D01*
X164170Y142994D01*
X162842D01*
Y136206D01*
X164330D01*
Y135594D01*
X162842D01*
Y128806D01*
X162568Y128420D01*
X162058D01*
Y131700D01*
X159050D01*
X156043D01*
Y128420D01*
X151122D01*
X150404Y129138D01*
X150515Y129700D01*
X150354Y130509D01*
X149896Y131196D01*
X149209Y131654D01*
X148400Y131816D01*
X147590Y131654D01*
X146904Y131196D01*
X146446Y130509D01*
X146284Y129700D01*
X146446Y128891D01*
X146904Y128204D01*
X147590Y127746D01*
X148400Y127585D01*
X148962Y127696D01*
X149979Y126679D01*
X150310Y126458D01*
X150700Y126380D01*
X166865D01*
X167256Y126458D01*
X167586Y126679D01*
X168518Y127611D01*
X168980Y127420D01*
Y125522D01*
X157754Y114296D01*
X151792D01*
X151667Y114442D01*
X151475Y114796D01*
X151616Y115500D01*
X151454Y116309D01*
X151382Y116418D01*
X151683Y116867D01*
X152100Y116785D01*
X152910Y116946D01*
X153596Y117404D01*
X154054Y118090D01*
X154216Y118900D01*
X154054Y119710D01*
X153905Y119933D01*
X154206Y120383D01*
X154700Y120284D01*
X155509Y120446D01*
X156196Y120904D01*
X156654Y121590D01*
X156816Y122400D01*
X156654Y123210D01*
X156196Y123896D01*
X155509Y124354D01*
X154700Y124515D01*
X153891Y124354D01*
X153204Y123896D01*
X152886Y123420D01*
X125822D01*
X120920Y128322D01*
Y131759D01*
X121679D01*
Y140338D01*
X118121D01*
Y131759D01*
X118880D01*
Y128736D01*
X118419Y128545D01*
X115920Y131044D01*
Y131759D01*
X116680D01*
Y140338D01*
X113120D01*
Y131759D01*
X113880D01*
Y130621D01*
X113958Y130231D01*
X114179Y129900D01*
X124000Y120079D01*
X124331Y119858D01*
X124721Y119780D01*
X149754D01*
X150086Y119408D01*
X149985Y118900D01*
X150146Y118090D01*
X150218Y117982D01*
X149917Y117533D01*
X149500Y117615D01*
X148690Y117454D01*
X148004Y116996D01*
X147546Y116309D01*
X147385Y115500D01*
X147496Y114938D01*
X138378Y105820D01*
X62010D01*
Y111510D01*
X55990D01*
Y105820D01*
X51100D01*
X50710Y105742D01*
X50379Y105521D01*
X29680Y84822D01*
X29459Y84491D01*
X29381Y84101D01*
Y74349D01*
X28858Y74132D01*
X28219Y73642D01*
X27920Y73251D01*
X27420Y73421D01*
Y92278D01*
X30838Y95696D01*
X31400Y95585D01*
X32210Y95746D01*
X32896Y96204D01*
X33354Y96890D01*
X33515Y97700D01*
X33354Y98510D01*
X32896Y99196D01*
X32420Y99514D01*
Y101543D01*
X32658Y101944D01*
X32920Y101944D01*
X37792D01*
Y106650D01*
X45422Y114280D01*
X129486D01*
X129804Y113804D01*
X130491Y113346D01*
X131300Y113184D01*
X132109Y113346D01*
X132796Y113804D01*
X133254Y114490D01*
X133415Y115300D01*
X133254Y116110D01*
X132796Y116796D01*
X132109Y117254D01*
X131300Y117415D01*
X130491Y117254D01*
X129804Y116796D01*
X129486Y116320D01*
X45000D01*
X44610Y116242D01*
X44279Y116021D01*
X36714Y108456D01*
X32920D01*
X32658Y108456D01*
X32420Y108857D01*
Y167476D01*
X32658Y167877D01*
X32920Y167877D01*
X37792D01*
Y170114D01*
X48286D01*
X48604Y169638D01*
X49290Y169179D01*
X50100Y169018D01*
X50910Y169179D01*
X51596Y169638D01*
X52054Y170324D01*
X52215Y171133D01*
X52054Y171943D01*
X51596Y172629D01*
X50910Y173088D01*
X50100Y173249D01*
X49290Y173088D01*
X48604Y172629D01*
X48286Y172153D01*
X37792D01*
Y174389D01*
X32920D01*
X32658Y174389D01*
X32420Y174791D01*
Y233409D01*
X32658Y233811D01*
X32920Y233811D01*
X37792D01*
Y236047D01*
X48286D01*
X48604Y235571D01*
X49290Y235112D01*
X50100Y234951D01*
X50910Y235112D01*
X51596Y235571D01*
X52054Y236257D01*
X52215Y237067D01*
X52054Y237876D01*
X51596Y238562D01*
X50910Y239021D01*
X50100Y239182D01*
X49290Y239021D01*
X48604Y238562D01*
X48286Y238086D01*
X37792D01*
Y240323D01*
X32920D01*
X32658Y240323D01*
X32420Y240724D01*
Y252278D01*
X35022Y254880D01*
X56800D01*
X57190Y254958D01*
X57521Y255179D01*
X59350Y257008D01*
X61279Y255079D01*
X61610Y254858D01*
X62000Y254780D01*
X89500D01*
X89890Y254858D01*
X90221Y255079D01*
X92375Y257233D01*
X94529Y255079D01*
X94860Y254858D01*
X95250Y254780D01*
X110200D01*
X110590Y254858D01*
X110921Y255079D01*
X112900Y257058D01*
X114879Y255079D01*
X115210Y254858D01*
X115600Y254780D01*
X121400D01*
X121790Y254858D01*
X122121Y255079D01*
X124200Y257158D01*
X126279Y255079D01*
X126610Y254858D01*
X127000Y254780D01*
X154600D01*
X154990Y254858D01*
X155321Y255079D01*
X157250Y257008D01*
X159179Y255079D01*
X159510Y254858D01*
X159900Y254780D01*
X176478D01*
X177680Y253578D01*
Y239200D01*
X177758Y238810D01*
X177979Y238479D01*
X181379Y235079D01*
X181710Y234858D01*
X182100Y234780D01*
X211400D01*
X211790Y234858D01*
X212121Y235079D01*
X213177Y236135D01*
X214233Y235079D01*
X214564Y234858D01*
X214954Y234780D01*
X237000D01*
X237390Y234858D01*
X237721Y235079D01*
X241821Y239179D01*
X242042Y239510D01*
X242120Y239900D01*
Y288878D01*
X247759Y294517D01*
X249146D01*
Y293167D01*
X255854D01*
Y297907D01*
X249146D01*
Y296557D01*
X247337D01*
X246947Y296479D01*
X246616Y296258D01*
X241100Y290742D01*
X240504Y291338D01*
X240616Y291900D01*
X240454Y292709D01*
X239996Y293396D01*
X239420Y293781D01*
Y296471D01*
X240396D01*
Y302471D01*
X236404D01*
Y300490D01*
X235396D01*
Y302471D01*
X231404D01*
Y300490D01*
X230396D01*
Y302471D01*
X226404D01*
Y300490D01*
X225396D01*
Y302471D01*
X221404D01*
Y296844D01*
X206131D01*
Y297161D01*
X202375D01*
Y294488D01*
X202375D01*
Y294011D01*
X202375D01*
Y291338D01*
X202375D01*
Y290862D01*
X202375D01*
Y288189D01*
X202375D01*
Y287712D01*
X202375D01*
Y285039D01*
X206131D01*
Y285356D01*
X220831D01*
X221404Y284783D01*
Y280329D01*
X222380D01*
Y277614D01*
X221904Y277296D01*
X221446Y276609D01*
X221285Y275800D01*
X221446Y274991D01*
X221904Y274304D01*
X222590Y273846D01*
X223400Y273685D01*
X224209Y273846D01*
X224896Y274304D01*
X225354Y274991D01*
X225516Y275800D01*
X225354Y276609D01*
X224896Y277296D01*
X224420Y277614D01*
Y280329D01*
X225396D01*
Y285548D01*
X225858Y285739D01*
X226404Y285194D01*
Y280329D01*
X227380D01*
Y277614D01*
X226904Y277296D01*
X226446Y276609D01*
X226285Y275800D01*
X226446Y274991D01*
X226904Y274304D01*
X227590Y273846D01*
X228400Y273685D01*
X229209Y273846D01*
X229896Y274304D01*
X230354Y274991D01*
X230516Y275800D01*
X230354Y276609D01*
X229896Y277296D01*
X229420Y277614D01*
Y280329D01*
X230396D01*
Y285548D01*
X230858Y285739D01*
X231404Y285194D01*
Y280329D01*
X232380D01*
Y277614D01*
X231904Y277296D01*
X231446Y276609D01*
X231284Y275800D01*
X231446Y274991D01*
X231904Y274304D01*
X232591Y273846D01*
X233400Y273685D01*
X234209Y273846D01*
X234896Y274304D01*
X235354Y274991D01*
X235515Y275800D01*
X235354Y276609D01*
X234896Y277296D01*
X234420Y277614D01*
Y280329D01*
X235396D01*
Y285548D01*
X235858Y285739D01*
X236404Y285194D01*
Y280329D01*
X237380D01*
Y277614D01*
X236904Y277296D01*
X236446Y276609D01*
X236284Y275800D01*
X236446Y274991D01*
X236904Y274304D01*
X237591Y273846D01*
X238400Y273685D01*
X239210Y273846D01*
X239580Y274093D01*
X240080Y273826D01*
Y240322D01*
X236578Y236820D01*
X215377D01*
X214197Y238000D01*
Y240020D01*
X216679D01*
Y240780D01*
X217050D01*
X217440Y240858D01*
X217771Y241079D01*
X220334Y243642D01*
X225194D01*
Y248658D01*
X218406D01*
Y244599D01*
X217141Y243333D01*
X216679Y243525D01*
Y243580D01*
X209675D01*
Y240020D01*
X212158D01*
Y238000D01*
X210978Y236820D01*
X182522D01*
X179720Y239622D01*
Y248085D01*
X180182Y248276D01*
X182379Y246079D01*
X182710Y245858D01*
X183100Y245780D01*
X188321D01*
Y245021D01*
X195325D01*
Y248580D01*
X188321D01*
Y247820D01*
X183522D01*
X181320Y250022D01*
Y263578D01*
X182522Y264780D01*
X196543D01*
Y262406D01*
X201558D01*
Y269194D01*
X196543D01*
Y266820D01*
X182622D01*
X181420Y268022D01*
Y358000D01*
X181342Y358390D01*
X181121Y358721D01*
X178860Y360982D01*
X178530Y361203D01*
X178139Y361280D01*
X162402D01*
X162042Y362151D01*
X161441Y362934D01*
X160658Y363534D01*
X159746Y363912D01*
X158768Y364041D01*
X157789Y363912D01*
X156878Y363534D01*
X156095Y362934D01*
X155494Y362151D01*
X155116Y361239D01*
X154987Y360261D01*
X155116Y359282D01*
X155494Y358370D01*
X156095Y357588D01*
X156878Y356987D01*
X157789Y356609D01*
X158768Y356480D01*
X159746Y356609D01*
X160658Y356987D01*
X161441Y357588D01*
X162042Y358370D01*
X162402Y359241D01*
X177717D01*
X179380Y357578D01*
Y280532D01*
X178880Y280325D01*
X176742Y282463D01*
X176412Y282683D01*
X176022Y282761D01*
X167410D01*
Y285096D01*
X166060D01*
Y287040D01*
X167410D01*
Y293749D01*
X162998D01*
X162791Y294249D01*
X164235Y295693D01*
X167410D01*
Y302401D01*
X162670D01*
Y297012D01*
X160950Y295292D01*
X160621Y295621D01*
X160290Y295842D01*
X159900Y295920D01*
X159536D01*
Y302401D01*
X158186D01*
Y304346D01*
X159536D01*
Y311054D01*
X158186D01*
Y314934D01*
X158108Y315324D01*
X157887Y315655D01*
X155649Y317893D01*
X155318Y318114D01*
X154928Y318192D01*
X149917D01*
Y320428D01*
X146555D01*
Y313916D01*
X149917D01*
Y316153D01*
X154505D01*
X156147Y314511D01*
Y311054D01*
X154796D01*
Y304346D01*
X156147D01*
Y302401D01*
X154796D01*
Y295920D01*
X141700D01*
X141310Y295842D01*
X140979Y295621D01*
X139379Y294021D01*
X139158Y293690D01*
X139080Y293300D01*
Y283922D01*
X137919Y282761D01*
X134196D01*
Y285096D01*
X129456D01*
Y278387D01*
X134196D01*
Y280722D01*
X138341D01*
X138732Y280800D01*
X139062Y281020D01*
X140821Y282779D01*
X141042Y283110D01*
X141120Y283500D01*
Y292878D01*
X142122Y293880D01*
X154351D01*
X154796Y293749D01*
X154796Y293380D01*
Y291414D01*
X149980D01*
X149662Y291890D01*
X148976Y292349D01*
X148166Y292510D01*
X147357Y292349D01*
X146670Y291890D01*
X146212Y291204D01*
X146051Y290394D01*
X146212Y289585D01*
X146670Y288898D01*
X147147Y288580D01*
Y265589D01*
X145144Y263586D01*
X133546D01*
Y265428D01*
X129987D01*
Y259704D01*
X133546D01*
Y261546D01*
X145566D01*
X145956Y261624D01*
X146287Y261845D01*
X148887Y264445D01*
X149108Y264776D01*
X149186Y265166D01*
Y288580D01*
X149662Y288898D01*
X149980Y289375D01*
X154796D01*
Y287040D01*
X159485D01*
X159536Y287040D01*
X159985Y286917D01*
Y285219D01*
X159536Y285096D01*
X159485Y285096D01*
X154796D01*
Y282761D01*
X153780D01*
X153462Y283237D01*
X152776Y283696D01*
X151966Y283857D01*
X151157Y283696D01*
X150470Y283237D01*
X150012Y282551D01*
X149851Y281741D01*
X150012Y280932D01*
X150470Y280246D01*
X150947Y279927D01*
Y268734D01*
X151024Y268343D01*
X151245Y268013D01*
X153079Y266179D01*
X153410Y265958D01*
X153800Y265880D01*
X155330D01*
X155446Y265428D01*
X155446Y265380D01*
Y259704D01*
X156206D01*
Y258848D01*
X154178Y256820D01*
X127422D01*
X125227Y259015D01*
Y259704D01*
X125987D01*
Y265428D01*
X122428D01*
Y259704D01*
X123188D01*
Y259030D01*
X120978Y256820D01*
X116022D01*
X113920Y258922D01*
Y278500D01*
X113842Y278890D01*
X113621Y279221D01*
X110380Y282463D01*
X110049Y282683D01*
X109659Y282761D01*
X102560D01*
Y285096D01*
X101209D01*
Y287040D01*
X102560D01*
Y293749D01*
X98198D01*
X97991Y294249D01*
X99435Y295693D01*
X102560D01*
Y302401D01*
X97820D01*
Y296962D01*
X96154Y295296D01*
X95830Y295621D01*
X95499Y295842D01*
X95109Y295920D01*
X94686D01*
Y302401D01*
X93335D01*
Y304346D01*
X94686D01*
Y311054D01*
X93335D01*
Y314984D01*
X93258Y315374D01*
X93037Y315705D01*
X90848Y317893D01*
X90518Y318114D01*
X90128Y318192D01*
X85067D01*
Y320428D01*
X81705D01*
Y313916D01*
X85067D01*
Y316153D01*
X89705D01*
X91296Y314562D01*
Y311054D01*
X89946D01*
Y304346D01*
X91296D01*
Y302401D01*
X89946D01*
Y295920D01*
X75100D01*
X74710Y295842D01*
X74379Y295621D01*
X72979Y294221D01*
X72758Y293890D01*
X72680Y293500D01*
Y284022D01*
X71419Y282761D01*
X69245D01*
Y285096D01*
X64656D01*
X64505Y285096D01*
X64156Y285451D01*
Y286684D01*
X64505Y287040D01*
X64656Y287040D01*
X69245D01*
Y293749D01*
X67895D01*
Y295693D01*
X69245D01*
Y302401D01*
X67895D01*
Y304346D01*
X69245D01*
Y311054D01*
X67895D01*
Y314353D01*
X69695Y316153D01*
X74224D01*
Y313916D01*
X77587D01*
Y320428D01*
X74224D01*
Y318192D01*
X69272D01*
X68882Y318114D01*
X68551Y317893D01*
X66154Y315496D01*
X65934Y315166D01*
X65856Y314775D01*
Y311054D01*
X64505D01*
Y304346D01*
X65856D01*
Y302401D01*
X64505D01*
Y295693D01*
X65856D01*
Y294102D01*
X65502Y293749D01*
X64517Y293749D01*
X64410Y293843D01*
X64150Y294097D01*
X64079Y294453D01*
X63858Y294784D01*
X61371Y297270D01*
Y302401D01*
X56631D01*
Y295693D01*
X60065D01*
X61607Y294151D01*
X61302Y293749D01*
X60900Y293749D01*
X56631D01*
Y291414D01*
X53528D01*
X51120Y293822D01*
Y301186D01*
X51596Y301504D01*
X52054Y302190D01*
X52215Y303000D01*
X52054Y303809D01*
X51596Y304496D01*
X50910Y304954D01*
X50100Y305115D01*
X49290Y304954D01*
X48604Y304496D01*
X48286Y304020D01*
X37392D01*
Y306256D01*
X32258D01*
Y299744D01*
X37392D01*
Y301980D01*
X48286D01*
X48604Y301504D01*
X49080Y301186D01*
Y293400D01*
X49158Y293010D01*
X49379Y292679D01*
X52385Y289673D01*
X52715Y289452D01*
X53106Y289375D01*
X56631D01*
Y287040D01*
X57982D01*
Y285096D01*
X56631D01*
Y278387D01*
X61371D01*
Y285096D01*
X60021D01*
Y287040D01*
X61371D01*
Y293254D01*
X61371Y293679D01*
X61774Y293984D01*
X62117Y293641D01*
Y273696D01*
X61357D01*
Y267972D01*
X64916D01*
Y273696D01*
X64156D01*
Y278032D01*
X64505Y278387D01*
X64656Y278387D01*
X69245D01*
Y280722D01*
X71842D01*
X72232Y280800D01*
X72562Y281021D01*
X74421Y282879D01*
X74642Y283210D01*
X74720Y283600D01*
Y293078D01*
X75522Y293880D01*
X89500D01*
X89946Y293749D01*
X89946Y293380D01*
Y291414D01*
X85214D01*
X84896Y291890D01*
X84210Y292349D01*
X83400Y292510D01*
X82590Y292349D01*
X81904Y291890D01*
X81446Y291204D01*
X81285Y290394D01*
X81446Y289585D01*
X81904Y288898D01*
X82380Y288580D01*
Y265022D01*
X80944Y263586D01*
X68696D01*
Y265428D01*
X65137D01*
Y259704D01*
X68696D01*
Y261546D01*
X81366D01*
X81756Y261624D01*
X82087Y261845D01*
X84121Y263879D01*
X84342Y264210D01*
X84420Y264600D01*
Y288580D01*
X84896Y288898D01*
X85214Y289375D01*
X89946D01*
Y287040D01*
X94635D01*
X94686Y287040D01*
X95135Y286917D01*
Y285219D01*
X94686Y285096D01*
X94635Y285096D01*
X89946D01*
Y282761D01*
X89014D01*
X88696Y283237D01*
X88010Y283696D01*
X87200Y283857D01*
X86390Y283696D01*
X85704Y283237D01*
X85246Y282551D01*
X85085Y281741D01*
X85246Y280932D01*
X85704Y280246D01*
X86180Y279927D01*
Y267900D01*
X86258Y267510D01*
X86479Y267179D01*
X87979Y265679D01*
X88310Y265458D01*
X88700Y265380D01*
X90595D01*
Y259704D01*
X91355D01*
Y259097D01*
X89078Y256820D01*
X62422D01*
X60377Y258865D01*
Y259704D01*
X61137D01*
Y265428D01*
X57578D01*
Y259704D01*
X58338D01*
Y258880D01*
X56378Y256920D01*
X34600D01*
X34210Y256842D01*
X33879Y256621D01*
X30679Y253421D01*
X30458Y253090D01*
X30380Y252700D01*
Y240794D01*
X30311Y240323D01*
X29880Y240323D01*
X27580D01*
Y270058D01*
X29699D01*
Y276632D01*
X23124D01*
Y270058D01*
X25541D01*
Y240323D01*
X25177D01*
Y233811D01*
X30311Y233811D01*
X30380Y233339D01*
Y210687D01*
X23924D01*
Y204113D01*
X25541D01*
Y174389D01*
X25177D01*
Y167877D01*
X30311D01*
X30380Y167406D01*
Y144742D01*
X23824D01*
Y138168D01*
X25541D01*
Y108456D01*
X25177D01*
Y101944D01*
X30311D01*
X30380Y101473D01*
Y99514D01*
X29904Y99196D01*
X29446Y98510D01*
X29285Y97700D01*
X29396Y97138D01*
X25679Y93421D01*
X25458Y93090D01*
X25380Y92700D01*
Y32556D01*
X23994D01*
Y26044D01*
X29128D01*
Y32556D01*
X27420D01*
Y69499D01*
X27920Y69669D01*
X28219Y69278D01*
X28858Y68788D01*
X29381Y68571D01*
Y42499D01*
X29459Y42109D01*
X29680Y41778D01*
X33022Y38437D01*
Y32556D01*
X31474D01*
Y26044D01*
X33022D01*
Y24894D01*
X30943D01*
Y18106D01*
X35958D01*
Y24894D01*
X35061D01*
Y26044D01*
X36608D01*
Y32556D01*
X35061D01*
Y38859D01*
X34983Y39249D01*
X34762Y39580D01*
X31420Y42921D01*
Y68571D01*
X31944Y68788D01*
X32583Y69278D01*
X33073Y69917D01*
X33381Y70661D01*
X33486Y71460D01*
X33381Y72259D01*
X33073Y73003D01*
X32583Y73642D01*
X31944Y74132D01*
X31420Y74349D01*
Y83679D01*
X51522Y103780D01*
X93413D01*
Y98472D01*
X67152D01*
X66762Y98394D01*
X66431Y98173D01*
X63600Y95342D01*
X61726Y97216D01*
X61932Y97714D01*
X62036Y98500D01*
X61932Y99286D01*
X61629Y100018D01*
X61147Y100647D01*
X60518Y101129D01*
X59786Y101432D01*
X59000Y101536D01*
X58214Y101432D01*
X57482Y101129D01*
X56853Y100647D01*
X56371Y100018D01*
X56068Y99286D01*
X55964Y98500D01*
X56068Y97714D01*
X56371Y96982D01*
X56853Y96353D01*
X57482Y95871D01*
X58214Y95568D01*
X59000Y95464D01*
X59786Y95568D01*
X60284Y95774D01*
X62580Y93478D01*
Y80322D01*
X61476Y79218D01*
X60976Y79425D01*
Y80857D01*
X57024D01*
Y74935D01*
X60976D01*
Y76648D01*
X61476Y76782D01*
X62480Y75778D01*
Y40222D01*
X60916Y38658D01*
X55606D01*
Y33642D01*
X62394D01*
Y37252D01*
X64221Y39079D01*
X64442Y39410D01*
X64520Y39800D01*
Y76200D01*
X64442Y76590D01*
X64221Y76921D01*
X63142Y78000D01*
X64321Y79179D01*
X64542Y79510D01*
X64620Y79900D01*
Y93478D01*
X67574Y96432D01*
X93413D01*
Y91047D01*
X108587D01*
Y103780D01*
X138800D01*
X139190Y103858D01*
X139521Y104079D01*
X148938Y113496D01*
X149500Y113384D01*
X150310Y113546D01*
X150904Y113943D01*
X151237Y113837D01*
X151404Y113722D01*
Y106504D01*
X159196D01*
Y112854D01*
X168298Y121956D01*
X168335Y121952D01*
X168780Y121731D01*
Y120814D01*
X168304Y120496D01*
X167846Y119809D01*
X167684Y119000D01*
X167846Y118191D01*
X168304Y117504D01*
X168991Y117046D01*
X169800Y116885D01*
X170609Y117046D01*
X171296Y117504D01*
X171754Y118191D01*
X171915Y119000D01*
X171754Y119809D01*
X171296Y120496D01*
X170820Y120814D01*
Y121478D01*
X172321Y122979D01*
X172542Y123310D01*
X172620Y123700D01*
Y133856D01*
X179421Y140658D01*
X179642Y140989D01*
X179720Y141379D01*
Y143885D01*
X180182Y144077D01*
X184101Y140157D01*
X184063Y139886D01*
X183533Y139708D01*
X182121Y141121D01*
X181790Y141342D01*
X181400Y141420D01*
X181010Y141342D01*
X180679Y141121D01*
X180458Y140790D01*
X180380Y140400D01*
X180458Y140010D01*
X180679Y139679D01*
X181645Y138713D01*
X181547Y138213D01*
X180246D01*
Y135829D01*
X179809D01*
X179419Y135751D01*
X179088Y135530D01*
X176579Y133021D01*
X176358Y132690D01*
X176280Y132300D01*
Y113722D01*
X173978Y111420D01*
X169094D01*
X168703Y112365D01*
X168078Y113178D01*
X167265Y113803D01*
X166317Y114195D01*
X165300Y114329D01*
X164283Y114195D01*
X163335Y113803D01*
X162522Y113178D01*
X161897Y112365D01*
X161505Y111417D01*
X161371Y110400D01*
X161505Y109383D01*
X161897Y108435D01*
X162522Y107622D01*
X163335Y106997D01*
X164283Y106605D01*
X165300Y106471D01*
X166317Y106605D01*
X167265Y106997D01*
X168078Y107622D01*
X168703Y108435D01*
X169094Y109380D01*
X174400D01*
X174790Y109458D01*
X175121Y109679D01*
X178021Y112579D01*
X178242Y112910D01*
X178320Y113300D01*
Y123306D01*
X179950D01*
Y127200D01*
X180450D01*
Y127700D01*
X183458D01*
Y129630D01*
X183780Y129886D01*
X184242Y129684D01*
Y123806D01*
X189258D01*
Y129116D01*
X189719Y129307D01*
X190506Y128521D01*
Y116814D01*
X190029Y116496D01*
X189571Y115810D01*
X189410Y115000D01*
X189571Y114190D01*
X190029Y113504D01*
X190716Y113046D01*
X191525Y112884D01*
X192335Y113046D01*
X193021Y113504D01*
X193480Y114190D01*
X193641Y115000D01*
X193480Y115810D01*
X193021Y116496D01*
X192545Y116814D01*
Y124306D01*
X193045Y124513D01*
X194180Y123378D01*
Y119814D01*
X193704Y119496D01*
X193246Y118809D01*
X193085Y118000D01*
X193246Y117191D01*
X193704Y116504D01*
X194390Y116046D01*
X195200Y115884D01*
X196010Y116046D01*
X196255Y116210D01*
X196755Y115943D01*
Y113414D01*
X196279Y113096D01*
X195820Y112409D01*
X195659Y111600D01*
X195820Y110791D01*
X196279Y110104D01*
X196965Y109646D01*
X197775Y109485D01*
X198584Y109646D01*
X198906Y109860D01*
X199406Y109593D01*
Y106664D01*
X199004Y106396D01*
X198546Y105710D01*
X198384Y104900D01*
X198546Y104090D01*
X199004Y103404D01*
X199690Y102946D01*
X200500Y102785D01*
X201309Y102946D01*
X201996Y103404D01*
X202454Y104090D01*
X202615Y104900D01*
X202454Y105710D01*
X201996Y106396D01*
X201445Y106764D01*
Y116542D01*
X201945Y116810D01*
X202190Y116646D01*
X203000Y116484D01*
X203809Y116646D01*
X204496Y117104D01*
X204954Y117790D01*
X205116Y118600D01*
X204954Y119410D01*
X204496Y120096D01*
X204020Y120414D01*
Y122500D01*
X203942Y122890D01*
X203721Y123221D01*
X201635Y125306D01*
X201821Y125828D01*
X202410Y125946D01*
X203096Y126404D01*
X203554Y127091D01*
X203715Y127900D01*
X203628Y128338D01*
X203842Y128532D01*
X204343Y128311D01*
Y127700D01*
X207350D01*
X210358D01*
Y129197D01*
X210800Y129387D01*
X211142Y129106D01*
Y123806D01*
X216158D01*
Y130594D01*
X212548D01*
X212154Y130988D01*
X211954Y131406D01*
Y137712D01*
X214222Y139980D01*
X239278D01*
X240980Y138278D01*
Y108858D01*
X241058Y108468D01*
X241279Y108137D01*
X253387Y96029D01*
X249979Y92621D01*
X249758Y92290D01*
X249680Y91900D01*
Y68609D01*
X247346D01*
Y63820D01*
X247346Y63672D01*
X246991Y63320D01*
X209922D01*
X204101Y69140D01*
Y72047D01*
X207027D01*
Y78953D01*
X199137D01*
Y72047D01*
X202062D01*
Y68718D01*
X202140Y68328D01*
X202361Y67997D01*
X208077Y62282D01*
X207885Y61820D01*
X201722D01*
X197120Y66422D01*
Y87978D01*
X198522Y89380D01*
X199137D01*
Y86947D01*
X207027D01*
Y93853D01*
X199137D01*
Y91420D01*
X198100D01*
X197710Y91342D01*
X197379Y91121D01*
X195379Y89121D01*
X195158Y88790D01*
X195080Y88400D01*
Y66000D01*
X195158Y65610D01*
X195379Y65279D01*
X200579Y60079D01*
X200910Y59858D01*
X201300Y59780D01*
X246778D01*
X247346Y59212D01*
Y56191D01*
X254054D01*
Y61128D01*
X254491Y61280D01*
X254600D01*
X254990Y61358D01*
X255321Y61579D01*
X257214Y63472D01*
X262636D01*
Y68409D01*
X255928D01*
Y65070D01*
X254554Y63696D01*
X254054Y63903D01*
Y68609D01*
X251720D01*
Y91478D01*
X255222Y94980D01*
X286978D01*
X289980Y91978D01*
Y69603D01*
X287784Y67406D01*
X287283Y67590D01*
Y67590D01*
X285441D01*
Y68679D01*
X285363Y69069D01*
X285142Y69400D01*
X284698Y69844D01*
X284889Y70306D01*
X285057D01*
Y77094D01*
X280042D01*
Y70306D01*
X281579D01*
X281608Y70160D01*
X281829Y69829D01*
X283402Y68256D01*
Y67590D01*
X281559D01*
Y64620D01*
X280922D01*
X278781Y66761D01*
X278450Y66982D01*
X278060Y67060D01*
X277441D01*
Y67590D01*
X271894D01*
X271716Y67590D01*
X271394Y67956D01*
Y68357D01*
X268000D01*
Y65350D01*
Y62342D01*
X270030D01*
X270286Y62020D01*
X270084Y61558D01*
X264106D01*
Y59479D01*
X262636D01*
Y60928D01*
X255928D01*
Y55991D01*
X262636D01*
Y57440D01*
X264106D01*
Y56542D01*
X270894D01*
Y57440D01*
X271716D01*
Y57010D01*
X273559D01*
Y46979D01*
X273637Y46589D01*
X273858Y46258D01*
X276237Y43879D01*
X276568Y43658D01*
X276958Y43580D01*
X287478D01*
X288480Y42578D01*
Y16022D01*
X286678Y14220D01*
X272436D01*
X272116Y14990D01*
X271516Y15773D01*
X270733Y16374D01*
X269821Y16752D01*
X268843Y16880D01*
X267864Y16752D01*
X266952Y16374D01*
X266169Y15773D01*
X265569Y14990D01*
X265191Y14078D01*
X265062Y13100D01*
X265191Y12122D01*
X265569Y11210D01*
X266169Y10427D01*
X266952Y9826D01*
X267864Y9448D01*
X268843Y9320D01*
X269821Y9448D01*
X270733Y9826D01*
X271516Y10427D01*
X272116Y11210D01*
X272494Y12122D01*
X272502Y12180D01*
X287100D01*
X287490Y12258D01*
X287821Y12479D01*
X289500Y14158D01*
X291179Y12479D01*
X291510Y12258D01*
X291900Y12180D01*
X351600D01*
X351990Y12258D01*
X352321Y12479D01*
X355121Y15279D01*
X355342Y15610D01*
X355420Y16000D01*
Y121735D01*
X355920Y121860D01*
X356094Y121534D01*
X356870Y120589D01*
X357815Y119813D01*
X358894Y119236D01*
X360064Y118881D01*
X361281Y118761D01*
X362498Y118881D01*
X363669Y119236D01*
X364747Y119813D01*
X365692Y120589D01*
X366468Y121534D01*
X367045Y122613D01*
X367400Y123783D01*
X367520Y125000D01*
X367400Y126217D01*
X367045Y127387D01*
X366468Y128466D01*
X365692Y129411D01*
X364747Y130187D01*
X363669Y130764D01*
X362498Y131119D01*
X361281Y131239D01*
X360064Y131119D01*
X358894Y130764D01*
X357815Y130187D01*
X356870Y129411D01*
X356094Y128466D01*
X355920Y128140D01*
X355420Y128265D01*
Y152900D01*
X355342Y153290D01*
X355121Y153621D01*
X354342Y154400D01*
X355121Y155179D01*
X355342Y155510D01*
X355420Y155900D01*
Y164403D01*
X355342Y164793D01*
X355121Y165124D01*
X354444Y165802D01*
X355085Y166443D01*
X360594D01*
Y171459D01*
X353806D01*
Y168048D01*
X352579Y166821D01*
X344185D01*
Y168601D01*
X344185Y169101D01*
X344185Y169302D01*
Y174900D01*
X344185Y175400D01*
X344185Y175601D01*
Y181400D01*
X336886D01*
Y175601D01*
X336886Y175101D01*
X336886Y174900D01*
Y169302D01*
X336886Y168802D01*
X336886Y168601D01*
Y162802D01*
X344185D01*
Y164782D01*
X352579D01*
X353380Y163981D01*
Y156322D01*
X352478Y155420D01*
X309522D01*
X288233Y176709D01*
Y182154D01*
X283493D01*
Y175446D01*
X286612D01*
X308379Y153679D01*
X308710Y153458D01*
X309100Y153380D01*
X352478D01*
X353380Y152478D01*
Y16422D01*
X351178Y14220D01*
X292322D01*
X290520Y16022D01*
Y43000D01*
X290442Y43390D01*
X290221Y43721D01*
X289342Y44600D01*
X290221Y45479D01*
X290442Y45810D01*
X290520Y46200D01*
Y48785D01*
X290982Y48976D01*
X292179Y47779D01*
X292510Y47558D01*
X292900Y47480D01*
X326900D01*
X327290Y47558D01*
X327621Y47779D01*
X329216Y49374D01*
X329437Y49705D01*
X329515Y50095D01*
Y61658D01*
X330216D01*
Y68169D01*
X328825D01*
X328488Y68506D01*
X328696Y69006D01*
X329822D01*
Y75040D01*
X330284Y75231D01*
X331806Y73709D01*
Y68169D01*
X331105D01*
Y61658D01*
X334546D01*
Y68169D01*
X333846D01*
Y73138D01*
X334308Y73329D01*
X336137Y71500D01*
Y68169D01*
X335436D01*
Y61658D01*
X338877D01*
Y68169D01*
X338176D01*
Y70929D01*
X338638Y71120D01*
X340468Y69290D01*
Y68169D01*
X339767D01*
Y61658D01*
X343208D01*
Y68169D01*
X342507D01*
Y69713D01*
X342429Y70103D01*
X342208Y70434D01*
X299154Y113488D01*
Y116933D01*
X292446D01*
Y112193D01*
X297565D01*
X301777Y107982D01*
X301585Y107520D01*
X290222D01*
X289586Y108156D01*
X289635Y108400D01*
X289474Y109210D01*
X289015Y109896D01*
X288539Y110214D01*
Y112193D01*
X290874D01*
Y116933D01*
X284165D01*
Y112193D01*
X286500D01*
Y110214D01*
X286023Y109896D01*
X285565Y109210D01*
X285404Y108400D01*
X285565Y107590D01*
X286023Y106904D01*
X286599Y106520D01*
X286484Y106020D01*
X283061D01*
X281242Y107838D01*
X281354Y108400D01*
X281193Y109210D01*
X280734Y109896D01*
X280258Y110214D01*
Y112193D01*
X282593D01*
Y116933D01*
X275884D01*
Y112193D01*
X278219D01*
Y110214D01*
X277743Y109896D01*
X277284Y109210D01*
X277123Y108400D01*
X277284Y107590D01*
X277743Y106904D01*
X278429Y106446D01*
X279239Y106284D01*
X279801Y106396D01*
X281215Y104982D01*
X281024Y104520D01*
X277822D01*
X274820Y107522D01*
Y117878D01*
X277009Y120067D01*
X282593D01*
Y121417D01*
X284165D01*
Y120067D01*
X290874D01*
Y121417D01*
X292446D01*
Y120067D01*
X299154D01*
Y124807D01*
X292446D01*
Y123457D01*
X290874D01*
Y124807D01*
X284165D01*
Y123457D01*
X282593D01*
Y124807D01*
X275884D01*
Y121826D01*
X273800Y119742D01*
X270384Y123158D01*
X270053Y123379D01*
X269663Y123457D01*
X268012D01*
Y124807D01*
X261304D01*
Y123260D01*
X259732D01*
Y124807D01*
X253023D01*
Y123260D01*
X251156D01*
Y124807D01*
X244644D01*
Y119673D01*
X251156D01*
Y121221D01*
X253023D01*
Y120067D01*
X259732D01*
Y121221D01*
X261304D01*
Y120067D01*
X268012D01*
Y121417D01*
X269241D01*
X272780Y117878D01*
Y109436D01*
X272280Y109320D01*
X271896Y109896D01*
X271210Y110354D01*
X270400Y110515D01*
X269590Y110354D01*
X268904Y109896D01*
X268446Y109210D01*
X268285Y108400D01*
X268446Y107590D01*
X268904Y106904D01*
X269590Y106446D01*
X270400Y106284D01*
X270944Y106393D01*
X275355Y101981D01*
X275164Y101520D01*
X273422D01*
X266735Y108207D01*
X266774Y108400D01*
X266613Y109210D01*
X266154Y109896D01*
X265678Y110214D01*
Y112193D01*
X268012D01*
Y116933D01*
X261304D01*
Y112193D01*
X263638D01*
Y110214D01*
X263162Y109896D01*
X262704Y109210D01*
X262543Y108400D01*
X262704Y107590D01*
X263162Y106904D01*
X263848Y106446D01*
X264658Y106284D01*
X265468Y106446D01*
X265554Y106504D01*
X271576Y100481D01*
X271385Y100020D01*
X266300D01*
X258398Y107922D01*
X258493Y108400D01*
X258332Y109210D01*
X257873Y109896D01*
X257397Y110214D01*
Y112193D01*
X259732D01*
Y116933D01*
X253023D01*
Y112193D01*
X255358D01*
Y110214D01*
X254882Y109896D01*
X254423Y109210D01*
X254262Y108400D01*
X254423Y107590D01*
X254882Y106904D01*
X255568Y106446D01*
X256378Y106284D01*
X257023Y106413D01*
X264454Y98981D01*
X264263Y98520D01*
X259522D01*
X249954Y108088D01*
X250015Y108400D01*
X249854Y109210D01*
X249396Y109896D01*
X248920Y110214D01*
Y112193D01*
X251156D01*
Y117327D01*
X244644D01*
Y112193D01*
X246880D01*
Y110214D01*
X246404Y109896D01*
X245946Y109210D01*
X245784Y108400D01*
X245946Y107590D01*
X246404Y106904D01*
X247091Y106446D01*
X247900Y106284D01*
X248710Y106446D01*
X248711Y106447D01*
X257677Y97482D01*
X257485Y97020D01*
X255280D01*
X243020Y109280D01*
Y138278D01*
X244722Y139980D01*
X261835D01*
X262225Y140058D01*
X262556Y140279D01*
X262625Y140348D01*
X262821Y140479D01*
X271300Y148958D01*
X275479Y144779D01*
X275810Y144558D01*
X276200Y144480D01*
X292100D01*
X292490Y144558D01*
X292821Y144779D01*
X293737Y145695D01*
X294430Y145002D01*
X294579Y144779D01*
X294910Y144558D01*
X295300Y144480D01*
X326945D01*
Y142244D01*
X332079D01*
Y148756D01*
X326945D01*
Y146520D01*
X295796D01*
X294757Y147559D01*
Y157246D01*
X296107D01*
Y163954D01*
X291367D01*
Y157246D01*
X292717D01*
Y147559D01*
X291678Y146520D01*
X276622D01*
X272320Y150822D01*
Y161085D01*
X272781Y161276D01*
X274179Y159879D01*
X274510Y159658D01*
X274900Y159580D01*
X283493D01*
Y157246D01*
X288233D01*
Y163954D01*
X283493D01*
Y161620D01*
X275322D01*
X273820Y163122D01*
Y204178D01*
X275556Y205914D01*
X320586D01*
X320904Y205438D01*
X321590Y204979D01*
X322400Y204818D01*
X323210Y204979D01*
X323896Y205438D01*
X324214Y205914D01*
X327693D01*
Y204072D01*
X331252D01*
Y209796D01*
X331634Y210080D01*
X333578D01*
X335252Y208406D01*
Y204072D01*
X338811D01*
Y209796D01*
X336746D01*
X334721Y211821D01*
X334390Y212042D01*
X334000Y212120D01*
X274881D01*
X274496Y212696D01*
X273810Y213154D01*
X273000Y213316D01*
X272800Y213276D01*
X272320Y213680D01*
Y243778D01*
X273322Y244780D01*
X280393D01*
Y242544D01*
X285527D01*
Y249056D01*
X280393D01*
Y246820D01*
X273322D01*
X272320Y247822D01*
Y252048D01*
X272820Y252227D01*
X273391Y251846D01*
X274200Y251684D01*
X275009Y251846D01*
X275696Y252304D01*
X276014Y252780D01*
X329500D01*
X329890Y252858D01*
X330221Y253079D01*
X356221Y279079D01*
X356442Y279410D01*
X356520Y279800D01*
Y348300D01*
X356442Y348690D01*
X356221Y349021D01*
X351914Y353328D01*
X352172Y353950D01*
X352284Y354800D01*
X352172Y355650D01*
X351844Y356442D01*
X351322Y357122D01*
X350642Y357644D01*
X349850Y357972D01*
X349000Y358084D01*
X348150Y357972D01*
X347358Y357644D01*
X346678Y357122D01*
X346156Y356442D01*
X345828Y355650D01*
X345716Y354800D01*
X345828Y353950D01*
X346086Y353328D01*
X322918Y330160D01*
X316594D01*
Y331058D01*
X309806D01*
Y330160D01*
X307456D01*
Y331707D01*
X300944D01*
Y326573D01*
X307456D01*
Y328121D01*
X309806D01*
Y326042D01*
X316594D01*
Y328121D01*
X323340D01*
X323730Y328198D01*
X324061Y328419D01*
X347528Y351886D01*
X348150Y351628D01*
X349000Y351516D01*
X349850Y351628D01*
X350472Y351886D01*
X354480Y347878D01*
Y280222D01*
X329078Y254820D01*
X276014D01*
X275696Y255296D01*
X275009Y255754D01*
X274200Y255915D01*
X273986Y255873D01*
X273740Y256334D01*
X282600Y265194D01*
X287215Y260579D01*
X287546Y260358D01*
X287936Y260280D01*
X313893D01*
Y258044D01*
X319027D01*
Y264556D01*
X313893D01*
Y262320D01*
X288358D01*
X283620Y267058D01*
Y284939D01*
X284096Y285257D01*
X284414Y285733D01*
X285046D01*
Y283989D01*
X291754D01*
Y285733D01*
X295506D01*
Y284245D01*
X302294D01*
Y289261D01*
X295506D01*
Y287772D01*
X291754D01*
Y289517D01*
X285542D01*
X285439Y289517D01*
X285002Y289973D01*
X285005Y290121D01*
X285464Y290580D01*
X296300D01*
X296690Y290658D01*
X297021Y290879D01*
X304200Y298058D01*
X305404Y296854D01*
X305735Y296633D01*
X306125Y296555D01*
X328185D01*
X328368Y296114D01*
X328832Y295510D01*
X329437Y295045D01*
X330141Y294754D01*
X330897Y294654D01*
X331653Y294754D01*
X332357Y295045D01*
X332962Y295510D01*
X333426Y296114D01*
X333718Y296819D01*
X333818Y297575D01*
X333718Y298331D01*
X333426Y299035D01*
X332962Y299640D01*
X332357Y300104D01*
X331653Y300396D01*
X330897Y300496D01*
X330141Y300396D01*
X329437Y300104D01*
X328832Y299640D01*
X328368Y299035D01*
X328185Y298594D01*
X306547D01*
X305220Y299922D01*
Y319093D01*
X307456D01*
Y324227D01*
X300944D01*
Y319093D01*
X303180D01*
Y299922D01*
X295878Y292620D01*
X285042D01*
X284652Y292542D01*
X284321Y292321D01*
X281879Y289879D01*
X281658Y289548D01*
X281580Y289158D01*
Y288567D01*
X281104Y288249D01*
X281048Y288165D01*
X280682Y287843D01*
X276843D01*
Y291682D01*
X276772D01*
Y294930D01*
X279747Y297905D01*
X282663D01*
X283019Y297848D01*
X283319Y297573D01*
X283476Y297338D01*
X283966Y297011D01*
X284543Y296896D01*
X288677D01*
X289255Y297011D01*
X289744Y297338D01*
X290071Y297827D01*
X290186Y298405D01*
Y303995D01*
X290071Y304573D01*
X290070Y304575D01*
X290374Y304779D01*
X290701Y305268D01*
X290816Y305846D01*
Y311554D01*
X290701Y312132D01*
X290374Y312621D01*
X289885Y312948D01*
X289307Y313063D01*
X289093D01*
Y351895D01*
X288979Y352472D01*
X288979Y352472D01*
X288820Y352855D01*
X288493Y353345D01*
X283116Y358721D01*
X283185Y358887D01*
X283223Y359080D01*
X283287Y359267D01*
X283398Y360115D01*
X283385Y360312D01*
X283398Y360509D01*
X283287Y361357D01*
X283223Y361544D01*
X283185Y361738D01*
X282857Y362528D01*
X282748Y362692D01*
X282660Y362869D01*
X282140Y363547D01*
X281991Y363678D01*
X281861Y363826D01*
X281183Y364347D01*
X281006Y364434D01*
X280842Y364544D01*
X280051Y364871D01*
X279858Y364909D01*
X279671Y364973D01*
X278823Y365084D01*
D02*
G37*
G36*
X10000Y376080D02*
X8783Y375960D01*
X7613Y375605D01*
X6534Y375029D01*
X5589Y374253D01*
X4813Y373307D01*
X4236Y372229D01*
X3881Y371059D01*
X3761Y369841D01*
X3881Y368624D01*
X4236Y367454D01*
X4813Y366375D01*
X5589Y365430D01*
X6534Y364654D01*
X7613Y364078D01*
X8783Y363723D01*
X10000Y363603D01*
X11217Y363723D01*
X12387Y364078D01*
X13466Y364654D01*
X14411Y365430D01*
X15187Y366375D01*
X15764Y367454D01*
X16119Y368624D01*
X16239Y369841D01*
X16119Y371059D01*
X15764Y372229D01*
X15187Y373307D01*
X14411Y374253D01*
X13466Y375029D01*
X12387Y375605D01*
X11217Y375960D01*
X10000Y376080D01*
D02*
G37*
G36*
X60500Y364779D02*
Y360762D01*
X64517D01*
X64426Y361448D01*
X63969Y362554D01*
X63240Y363503D01*
X62291Y364231D01*
X61186Y364689D01*
X60500Y364779D01*
D02*
G37*
G36*
X59500D02*
X58814Y364689D01*
X57709Y364231D01*
X56760Y363503D01*
X56031Y362554D01*
X55574Y361448D01*
X55483Y360762D01*
X59500D01*
Y364779D01*
D02*
G37*
G36*
X198339Y364509D02*
X194591D01*
Y360761D01*
X198339D01*
Y364509D01*
D02*
G37*
G36*
X193591D02*
X189843D01*
Y360761D01*
X193591D01*
Y364509D01*
D02*
G37*
G36*
X133488D02*
X129740D01*
Y360761D01*
X133488D01*
Y364509D01*
D02*
G37*
G36*
X128740D02*
X124992D01*
Y360761D01*
X128740D01*
Y364509D01*
D02*
G37*
G36*
X139083Y364041D02*
X138104Y363912D01*
X137192Y363534D01*
X136410Y362934D01*
X135809Y362151D01*
X135431Y361239D01*
X135302Y360261D01*
X135431Y359282D01*
X135792Y358412D01*
X133950Y356570D01*
X133488Y356761D01*
Y359761D01*
X129740D01*
Y356013D01*
X132739D01*
X132931Y355551D01*
X123231Y345851D01*
X123010Y345520D01*
X122932Y345130D01*
Y311054D01*
X121582D01*
Y304346D01*
X126322D01*
Y311054D01*
X124971D01*
Y344707D01*
X137234Y356970D01*
X138104Y356609D01*
X139083Y356480D01*
X140061Y356609D01*
X140973Y356987D01*
X141756Y357588D01*
X142357Y358370D01*
X142734Y359282D01*
X142863Y360261D01*
X142734Y361239D01*
X142357Y362151D01*
X141756Y362934D01*
X140973Y363534D01*
X140061Y363912D01*
X139083Y364041D01*
D02*
G37*
G36*
X223618D02*
X222640Y363912D01*
X221728Y363534D01*
X220945Y362934D01*
X220344Y362151D01*
X219967Y361239D01*
X219838Y360261D01*
X219967Y359282D01*
X220344Y358370D01*
X220945Y357588D01*
X221728Y356987D01*
X222640Y356609D01*
X223618Y356480D01*
X224597Y356609D01*
X225508Y356987D01*
X226291Y357588D01*
X226892Y358370D01*
X227270Y359282D01*
X227399Y360261D01*
X227270Y361239D01*
X226892Y362151D01*
X226291Y362934D01*
X225508Y363534D01*
X224597Y363912D01*
X223618Y364041D01*
D02*
G37*
G36*
X79685Y364340D02*
X78629Y364201D01*
X77646Y363794D01*
X76801Y363146D01*
X76153Y362301D01*
X75746Y361318D01*
X75607Y360262D01*
X75746Y359207D01*
X76153Y358223D01*
X76175Y358194D01*
X58280Y340300D01*
X58059Y339969D01*
X57982Y339579D01*
Y311054D01*
X56631D01*
Y304346D01*
X61371D01*
Y311054D01*
X60021D01*
Y339156D01*
X77617Y356752D01*
X77646Y356730D01*
X78629Y356323D01*
X79685Y356184D01*
X80740Y356323D01*
X81724Y356730D01*
X82569Y357379D01*
X83217Y358223D01*
X83624Y359207D01*
X83763Y360262D01*
X83624Y361318D01*
X83217Y362301D01*
X82569Y363146D01*
X81724Y363794D01*
X80740Y364201D01*
X79685Y364340D01*
D02*
G37*
G36*
X69842D02*
X68787Y364201D01*
X67803Y363794D01*
X66959Y363146D01*
X66311Y362301D01*
X65903Y361318D01*
X65764Y360262D01*
X65903Y359207D01*
X66311Y358223D01*
X66959Y357379D01*
X67803Y356730D01*
X68787Y356323D01*
X69842Y356184D01*
X70898Y356323D01*
X71882Y356730D01*
X72726Y357379D01*
X73374Y358223D01*
X73782Y359207D01*
X73921Y360262D01*
X73782Y361318D01*
X73374Y362301D01*
X72726Y363146D01*
X71882Y363794D01*
X70898Y364201D01*
X69842Y364340D01*
D02*
G37*
G36*
X198339Y359761D02*
X194591D01*
Y356013D01*
X198339D01*
Y359761D01*
D02*
G37*
G36*
X193591D02*
X189843D01*
Y356013D01*
X193591D01*
Y359761D01*
D02*
G37*
G36*
X128740D02*
X124992D01*
Y356013D01*
X128740D01*
Y359761D01*
D02*
G37*
G36*
X64517Y359762D02*
X60500D01*
Y355746D01*
X61186Y355836D01*
X62291Y356294D01*
X63240Y357022D01*
X63969Y357971D01*
X64426Y359076D01*
X64517Y359762D01*
D02*
G37*
G36*
X59500D02*
X55483D01*
X55574Y359076D01*
X56031Y357971D01*
X56760Y357022D01*
X57709Y356294D01*
X58814Y355836D01*
X59500Y355746D01*
Y359762D01*
D02*
G37*
G36*
X333752Y358523D02*
Y355300D01*
X336974D01*
X336911Y355781D01*
X336533Y356694D01*
X335931Y357479D01*
X335146Y358081D01*
X334232Y358459D01*
X333752Y358523D01*
D02*
G37*
G36*
X332752D02*
X332272Y358459D01*
X331358Y358081D01*
X330573Y357479D01*
X329971Y356694D01*
X329593Y355781D01*
X329530Y355300D01*
X332752D01*
Y358523D01*
D02*
G37*
G36*
X317504Y358084D02*
X316654Y357972D01*
X315862Y357644D01*
X315182Y357122D01*
X314660Y356442D01*
X314332Y355650D01*
X314220Y354800D01*
X314332Y353950D01*
X314660Y353158D01*
X315182Y352478D01*
X315862Y351956D01*
X316654Y351628D01*
X317504Y351516D01*
X318354Y351628D01*
X319146Y351956D01*
X319826Y352478D01*
X320348Y353158D01*
X320676Y353950D01*
X320788Y354800D01*
X320676Y355650D01*
X320348Y356442D01*
X319826Y357122D01*
X319146Y357644D01*
X318354Y357972D01*
X317504Y358084D01*
D02*
G37*
G36*
X336974Y354300D02*
X333752D01*
Y351078D01*
X334232Y351141D01*
X335146Y351519D01*
X335931Y352121D01*
X336533Y352906D01*
X336911Y353819D01*
X336974Y354300D01*
D02*
G37*
G36*
X332752D02*
X329530D01*
X329593Y353819D01*
X329971Y352906D01*
X330573Y352121D01*
X331358Y351519D01*
X332272Y351141D01*
X332752Y351078D01*
Y354300D01*
D02*
G37*
G36*
X304224Y352038D02*
Y347426D01*
X308837D01*
X308726Y348266D01*
X308209Y349515D01*
X307386Y350588D01*
X306313Y351410D01*
X305065Y351928D01*
X304224Y352038D01*
D02*
G37*
G36*
X303224D02*
X302384Y351928D01*
X301135Y351410D01*
X300063Y350588D01*
X299240Y349515D01*
X298723Y348266D01*
X298612Y347426D01*
X303224D01*
Y352038D01*
D02*
G37*
G36*
X308837Y346426D02*
X304224D01*
Y341814D01*
X305065Y341924D01*
X306313Y342442D01*
X307386Y343265D01*
X308209Y344337D01*
X308726Y345586D01*
X308837Y346426D01*
D02*
G37*
G36*
X303224D02*
X298612D01*
X298723Y345586D01*
X299240Y344337D01*
X300063Y343265D01*
X301135Y342442D01*
X302384Y341924D01*
X303224Y341814D01*
Y346426D01*
D02*
G37*
G36*
X36903Y343044D02*
Y339790D01*
X40157D01*
X40093Y340279D01*
X39712Y341200D01*
X39105Y341991D01*
X38313Y342598D01*
X37392Y342980D01*
X36903Y343044D01*
D02*
G37*
G36*
X35903D02*
X35415Y342980D01*
X34493Y342598D01*
X33702Y341991D01*
X33095Y341200D01*
X32713Y340279D01*
X32649Y339790D01*
X35903D01*
Y343044D01*
D02*
G37*
G36*
X40157Y338790D02*
X36903D01*
Y335536D01*
X37392Y335600D01*
X38313Y335982D01*
X39105Y336589D01*
X39712Y337380D01*
X40093Y338301D01*
X40157Y338790D01*
D02*
G37*
G36*
X35903D02*
X32649D01*
X32713Y338301D01*
X33095Y337380D01*
X33702Y336589D01*
X34493Y335982D01*
X35415Y335600D01*
X35903Y335536D01*
Y338790D01*
D02*
G37*
G36*
X331397Y330934D02*
Y328075D01*
X334256D01*
X334205Y328461D01*
X333863Y329287D01*
X333319Y329997D01*
X332610Y330541D01*
X331783Y330883D01*
X331397Y330934D01*
D02*
G37*
G36*
X330397Y330934D02*
X330011Y330883D01*
X329185Y330541D01*
X328475Y329997D01*
X327931Y329287D01*
X327589Y328461D01*
X327538Y328075D01*
X330397D01*
Y330934D01*
D02*
G37*
G36*
X81827Y329983D02*
X80146D01*
Y326728D01*
X81827D01*
Y329983D01*
D02*
G37*
G36*
X79146D02*
X77465D01*
Y326728D01*
X79146D01*
Y329983D01*
D02*
G37*
G36*
X146677D02*
X144996D01*
Y326728D01*
X146677D01*
Y329983D01*
D02*
G37*
G36*
X143996D02*
X142315D01*
Y326728D01*
X143996D01*
Y329983D01*
D02*
G37*
G36*
X360897Y330496D02*
X360141Y330396D01*
X359437Y330104D01*
X358832Y329640D01*
X358368Y329035D01*
X358076Y328331D01*
X357976Y327575D01*
X358076Y326819D01*
X358368Y326115D01*
X358832Y325510D01*
X359437Y325045D01*
X360141Y324754D01*
X360897Y324654D01*
X361653Y324754D01*
X362357Y325045D01*
X362962Y325510D01*
X363426Y326115D01*
X363718Y326819D01*
X363818Y327575D01*
X363718Y328331D01*
X363426Y329035D01*
X362962Y329640D01*
X362357Y330104D01*
X361653Y330396D01*
X360897Y330496D01*
D02*
G37*
G36*
X350897D02*
X350141Y330396D01*
X349437Y330104D01*
X348832Y329640D01*
X348368Y329035D01*
X348076Y328331D01*
X347976Y327575D01*
X348076Y326819D01*
X348258Y326378D01*
X340176Y318296D01*
X339955Y317965D01*
X339877Y317575D01*
Y300287D01*
X339437Y300104D01*
X338832Y299640D01*
X338368Y299035D01*
X338076Y298331D01*
X337976Y297575D01*
X338076Y296819D01*
X338368Y296114D01*
X338832Y295510D01*
X339437Y295045D01*
X340141Y294754D01*
X340897Y294654D01*
X341653Y294754D01*
X342357Y295045D01*
X342962Y295510D01*
X343426Y296114D01*
X343718Y296819D01*
X343818Y297575D01*
X343718Y298331D01*
X343426Y299035D01*
X342962Y299640D01*
X342357Y300104D01*
X341917Y300287D01*
Y317153D01*
X349700Y324936D01*
X350141Y324754D01*
X350897Y324654D01*
X351653Y324754D01*
X352357Y325045D01*
X352962Y325510D01*
X353426Y326115D01*
X353718Y326819D01*
X353818Y327575D01*
X353718Y328331D01*
X353426Y329035D01*
X352962Y329640D01*
X352357Y330104D01*
X351653Y330396D01*
X350897Y330496D01*
D02*
G37*
G36*
X340897D02*
X340141Y330396D01*
X339437Y330104D01*
X338832Y329640D01*
X338368Y329035D01*
X338076Y328331D01*
X337976Y327575D01*
X338076Y326819D01*
X338258Y326378D01*
X335379Y323499D01*
X335158Y323168D01*
X335080Y322778D01*
Y272764D01*
X333236Y270920D01*
X326507D01*
Y273156D01*
X321373D01*
Y266644D01*
X326507D01*
Y268880D01*
X333658D01*
X334048Y268958D01*
X334379Y269179D01*
X336821Y271621D01*
X337042Y271952D01*
X337120Y272342D01*
Y322356D01*
X339700Y324936D01*
X340141Y324754D01*
X340897Y324654D01*
X341653Y324754D01*
X342357Y325045D01*
X342962Y325510D01*
X343426Y326115D01*
X343718Y326819D01*
X343818Y327575D01*
X343718Y328331D01*
X343426Y329035D01*
X342962Y329640D01*
X342357Y330104D01*
X341653Y330396D01*
X340897Y330496D01*
D02*
G37*
G36*
X330397Y327075D02*
X327538D01*
X327589Y326688D01*
X327931Y325862D01*
X328475Y325153D01*
X329185Y324609D01*
X330011Y324267D01*
X330397Y324216D01*
Y327075D01*
D02*
G37*
G36*
X334256D02*
X331397D01*
Y324216D01*
X331783Y324267D01*
X332610Y324609D01*
X333319Y325153D01*
X333863Y325862D01*
X334205Y326688D01*
X334256Y327075D01*
D02*
G37*
G36*
X317094Y325258D02*
X313700D01*
Y322750D01*
X317094D01*
Y325258D01*
D02*
G37*
G36*
X312700D02*
X309306D01*
Y322750D01*
X312700D01*
Y325258D01*
D02*
G37*
G36*
X203933Y364041D02*
X202955Y363912D01*
X202043Y363534D01*
X201260Y362934D01*
X200659Y362151D01*
X200282Y361239D01*
X200153Y360261D01*
X200282Y359282D01*
X200659Y358370D01*
X201260Y357588D01*
X202043Y356987D01*
X202955Y356609D01*
X203080Y356592D01*
Y323514D01*
X202604Y323196D01*
X202286Y322720D01*
X196461D01*
Y324365D01*
X189555D01*
Y319035D01*
X196461D01*
Y320680D01*
X202286D01*
X202604Y320204D01*
X203291Y319746D01*
X204100Y319584D01*
X204909Y319746D01*
X205596Y320204D01*
X206054Y320890D01*
X206216Y321700D01*
X206054Y322510D01*
X205596Y323196D01*
X205120Y323514D01*
Y356695D01*
X205823Y356987D01*
X206606Y357588D01*
X207207Y358370D01*
X207585Y359282D01*
X207714Y360261D01*
X207585Y361239D01*
X207207Y362151D01*
X206606Y362934D01*
X205823Y363534D01*
X204912Y363912D01*
X203933Y364041D01*
D02*
G37*
G36*
X146677Y325728D02*
X144996D01*
Y322472D01*
X146677D01*
Y325728D01*
D02*
G37*
G36*
X143996D02*
X142315D01*
Y322472D01*
X143996D01*
Y325728D01*
D02*
G37*
G36*
X81827Y325728D02*
X80146D01*
Y322472D01*
X81827D01*
Y325728D01*
D02*
G37*
G36*
X79146D02*
X77465D01*
Y322472D01*
X79146D01*
Y325728D01*
D02*
G37*
G36*
X317094Y321750D02*
X313700D01*
Y319243D01*
X317094D01*
Y321750D01*
D02*
G37*
G36*
X312700D02*
X309306D01*
Y319243D01*
X312700D01*
Y321750D01*
D02*
G37*
G36*
X231500Y324365D02*
X224595D01*
Y319035D01*
X231500D01*
Y320680D01*
X239546D01*
Y319072D01*
X246254D01*
Y324009D01*
X239546D01*
Y322720D01*
X231500D01*
Y324365D01*
D02*
G37*
G36*
X142437Y320428D02*
X139075D01*
Y318192D01*
X134072D01*
X133682Y318114D01*
X133352Y317893D01*
X131105Y315647D01*
X130884Y315316D01*
X130806Y314926D01*
Y311054D01*
X129456D01*
Y304346D01*
X130806D01*
Y302401D01*
X129456D01*
Y295693D01*
X130806D01*
Y293749D01*
X129456D01*
Y287040D01*
X134196D01*
Y293749D01*
X132845D01*
Y295693D01*
X134196D01*
Y302401D01*
X132845D01*
Y304346D01*
X134196D01*
Y311054D01*
X132845D01*
Y314504D01*
X134495Y316153D01*
X139075D01*
Y313916D01*
X142437D01*
Y320428D01*
D02*
G37*
G36*
X213776Y364041D02*
X212797Y363912D01*
X211885Y363534D01*
X211103Y362934D01*
X210502Y362151D01*
X210124Y361239D01*
X209995Y360261D01*
X210124Y359282D01*
X210502Y358370D01*
X211103Y357588D01*
X211885Y356987D01*
X212756Y356626D01*
Y315874D01*
X212280Y315556D01*
X211821Y314869D01*
X211660Y314060D01*
X211821Y313250D01*
X212280Y312564D01*
X212966Y312105D01*
X213776Y311944D01*
X214585Y312105D01*
X215271Y312564D01*
X215590Y313040D01*
X239546D01*
Y311591D01*
X246254D01*
Y316528D01*
X239546D01*
Y315079D01*
X215590D01*
X215271Y315556D01*
X214795Y315874D01*
Y356626D01*
X215666Y356987D01*
X216449Y357588D01*
X217050Y358370D01*
X217427Y359282D01*
X217556Y360261D01*
X217427Y361239D01*
X217050Y362151D01*
X216449Y362934D01*
X215666Y363534D01*
X214754Y363912D01*
X213776Y364041D01*
D02*
G37*
G36*
X148925D02*
X147947Y363912D01*
X147035Y363534D01*
X146252Y362934D01*
X145651Y362151D01*
X145274Y361239D01*
X145145Y360261D01*
X145274Y359282D01*
X145651Y358370D01*
X146252Y357588D01*
X147035Y356987D01*
X147947Y356609D01*
X148925Y356480D01*
X149904Y356609D01*
X150774Y356970D01*
X164021Y343723D01*
Y311054D01*
X162670D01*
Y304346D01*
X167410D01*
Y311054D01*
X166060D01*
Y344145D01*
X165982Y344536D01*
X165761Y344866D01*
X152216Y358412D01*
X152577Y359282D01*
X152706Y360261D01*
X152577Y361239D01*
X152199Y362151D01*
X151598Y362934D01*
X150815Y363534D01*
X149904Y363912D01*
X148925Y364041D01*
D02*
G37*
G36*
X89528Y364340D02*
X88472Y364201D01*
X87489Y363794D01*
X86644Y363146D01*
X85996Y362301D01*
X85588Y361318D01*
X85449Y360262D01*
X85588Y359207D01*
X85996Y358223D01*
X86644Y357379D01*
X87489Y356730D01*
X88472Y356323D01*
X89528Y356184D01*
X90583Y356323D01*
X91453Y356683D01*
X99170Y348966D01*
Y311054D01*
X97820D01*
Y304346D01*
X102560D01*
Y311054D01*
X101209D01*
Y349389D01*
X101132Y349779D01*
X100911Y350110D01*
X92946Y358075D01*
X93059Y358223D01*
X93467Y359207D01*
X93606Y360262D01*
X93467Y361318D01*
X93059Y362301D01*
X92411Y363146D01*
X91567Y363794D01*
X90583Y364201D01*
X89528Y364340D01*
D02*
G37*
G36*
X29848Y342578D02*
X23273D01*
Y336003D01*
X25541D01*
Y306256D01*
X24778D01*
Y299744D01*
X29911D01*
Y306256D01*
X27580D01*
Y336003D01*
X29848D01*
Y342578D01*
D02*
G37*
G36*
X200725Y297661D02*
X198847D01*
Y296324D01*
X200725D01*
Y297661D01*
D02*
G37*
G36*
X197847D02*
X195969D01*
Y296324D01*
X197847D01*
Y297661D01*
D02*
G37*
G36*
X360897Y300496D02*
X360141Y300396D01*
X359437Y300104D01*
X358832Y299640D01*
X358368Y299035D01*
X358076Y298331D01*
X357976Y297575D01*
X358076Y296819D01*
X358368Y296114D01*
X358832Y295510D01*
X359437Y295045D01*
X360141Y294754D01*
X360897Y294654D01*
X361653Y294754D01*
X362357Y295045D01*
X362962Y295510D01*
X363426Y296114D01*
X363718Y296819D01*
X363818Y297575D01*
X363718Y298331D01*
X363426Y299035D01*
X362962Y299640D01*
X362357Y300104D01*
X361653Y300396D01*
X360897Y300496D01*
D02*
G37*
G36*
X200725Y295324D02*
X195969D01*
Y293988D01*
Y293175D01*
X200725D01*
Y293988D01*
Y295324D01*
D02*
G37*
G36*
Y292175D02*
X195969D01*
Y290838D01*
Y290025D01*
X200725D01*
Y290838D01*
Y292175D01*
D02*
G37*
G36*
Y289025D02*
X195969D01*
Y287689D01*
Y286876D01*
X200725D01*
Y287689D01*
Y289025D01*
D02*
G37*
G36*
Y285876D02*
X198847D01*
Y284539D01*
X200725D01*
Y285876D01*
D02*
G37*
G36*
X197847D02*
X195969D01*
Y284539D01*
X197847D01*
Y285876D01*
D02*
G37*
G36*
X302794Y283461D02*
X299400D01*
Y280954D01*
X302794D01*
Y283461D01*
D02*
G37*
G36*
X298400D02*
X295006D01*
Y280954D01*
X298400D01*
Y283461D01*
D02*
G37*
G36*
X292254Y282930D02*
X288900D01*
Y280166D01*
X292254D01*
Y282930D01*
D02*
G37*
G36*
X287900D02*
X284546D01*
Y280166D01*
X287900D01*
Y282930D01*
D02*
G37*
G36*
X302794Y279954D02*
X299400D01*
Y277446D01*
X302794D01*
Y279954D01*
D02*
G37*
G36*
X298400D02*
X295006D01*
Y277446D01*
X298400D01*
Y279954D01*
D02*
G37*
G36*
X292254Y279166D02*
X288900D01*
Y276402D01*
X292254D01*
Y279166D01*
D02*
G37*
G36*
X287900D02*
X284546D01*
Y276402D01*
X287900D01*
Y279166D01*
D02*
G37*
G36*
X36754Y277099D02*
Y273845D01*
X40009D01*
X39944Y274334D01*
X39563Y275255D01*
X38956Y276046D01*
X38164Y276653D01*
X37243Y277035D01*
X36754Y277099D01*
D02*
G37*
G36*
X35754D02*
X35266Y277035D01*
X34344Y276653D01*
X33553Y276046D01*
X32946Y275255D01*
X32564Y274334D01*
X32500Y273845D01*
X35754D01*
Y277099D01*
D02*
G37*
G36*
X255854Y290033D02*
X249146D01*
Y285293D01*
X251480D01*
Y276500D01*
X251558Y276110D01*
X251779Y275779D01*
X254079Y273479D01*
X254410Y273258D01*
X254800Y273180D01*
X257986D01*
X258304Y272704D01*
X258991Y272246D01*
X259800Y272084D01*
X260610Y272246D01*
X261296Y272704D01*
X261754Y273391D01*
X261915Y274200D01*
X261754Y275009D01*
X261296Y275696D01*
X260610Y276154D01*
X259800Y276315D01*
X258991Y276154D01*
X258304Y275696D01*
X257986Y275220D01*
X255222D01*
X253520Y276922D01*
Y285293D01*
X255854D01*
Y290033D01*
D02*
G37*
G36*
X319527Y273656D02*
X316960D01*
Y270400D01*
X319527D01*
Y273656D01*
D02*
G37*
G36*
X315960D02*
X313393D01*
Y270400D01*
X315960D01*
Y273656D01*
D02*
G37*
G36*
X40009Y272845D02*
X36754D01*
Y269591D01*
X37243Y269655D01*
X38164Y270037D01*
X38956Y270644D01*
X39563Y271435D01*
X39944Y272356D01*
X40009Y272845D01*
D02*
G37*
G36*
X35754D02*
X32500D01*
X32564Y272356D01*
X32946Y271435D01*
X33553Y270644D01*
X34344Y270037D01*
X35266Y269655D01*
X35754Y269591D01*
Y272845D01*
D02*
G37*
G36*
X99370Y364340D02*
X98315Y364201D01*
X97331Y363794D01*
X96486Y363146D01*
X95838Y362301D01*
X95431Y361318D01*
X95292Y360262D01*
X95431Y359207D01*
X95838Y358223D01*
X96486Y357379D01*
X97331Y356730D01*
X98315Y356323D01*
X99370Y356184D01*
X100426Y356323D01*
X101409Y356730D01*
X102254Y357379D01*
X102902Y358223D01*
X103309Y359207D01*
X103314Y359243D01*
X112215D01*
X113680Y357778D01*
Y293800D01*
X113758Y293410D01*
X113979Y293079D01*
X117385Y289673D01*
X117716Y289452D01*
X118106Y289375D01*
X121582D01*
Y287040D01*
X122932D01*
Y285096D01*
X121582D01*
Y278387D01*
X126280D01*
X126322Y278387D01*
X126780Y278287D01*
Y273696D01*
X126208D01*
Y267972D01*
X129767D01*
Y273696D01*
X128820D01*
Y295199D01*
X128742Y295589D01*
X128521Y295920D01*
X126322Y298119D01*
Y302401D01*
X121582D01*
Y295693D01*
X125864D01*
X126780Y294777D01*
Y293849D01*
X126322Y293749D01*
X126280Y293749D01*
X121582D01*
Y291414D01*
X118528D01*
X115720Y294222D01*
Y358200D01*
X115642Y358590D01*
X115421Y358921D01*
X113359Y360983D01*
X113028Y361204D01*
X112638Y361282D01*
X103314D01*
X103309Y361318D01*
X102902Y362301D01*
X102254Y363146D01*
X101409Y363794D01*
X100426Y364201D01*
X99370Y364340D01*
D02*
G37*
G36*
X208358Y269694D02*
X205850D01*
Y266300D01*
X208358D01*
Y269694D01*
D02*
G37*
G36*
X204850D02*
X202342D01*
Y266300D01*
X204850D01*
Y269694D01*
D02*
G37*
G36*
X319527Y269400D02*
X316960D01*
Y266144D01*
X319527D01*
Y269400D01*
D02*
G37*
G36*
X315960D02*
X313393D01*
Y266144D01*
X315960D01*
Y269400D01*
D02*
G37*
G36*
X350897Y300496D02*
X350141Y300396D01*
X349437Y300104D01*
X348832Y299640D01*
X348368Y299035D01*
X348076Y298331D01*
X347976Y297575D01*
X348076Y296819D01*
X348368Y296114D01*
X348832Y295510D01*
X349437Y295045D01*
X349877Y294863D01*
Y282319D01*
X329878Y262320D01*
X326507D01*
Y264556D01*
X321373D01*
Y258044D01*
X326507D01*
Y260280D01*
X330300D01*
X330690Y260358D01*
X331021Y260579D01*
X351618Y281176D01*
X351839Y281507D01*
X351917Y281897D01*
Y294863D01*
X352357Y295045D01*
X352962Y295510D01*
X353426Y296114D01*
X353718Y296819D01*
X353818Y297575D01*
X353718Y298331D01*
X353426Y299035D01*
X352962Y299640D01*
X352357Y300104D01*
X351653Y300396D01*
X350897Y300496D01*
D02*
G37*
G36*
X208358Y265300D02*
X205850D01*
Y261906D01*
X208358D01*
Y265300D01*
D02*
G37*
G36*
X204850D02*
X202342D01*
Y261906D01*
X204850D01*
Y265300D01*
D02*
G37*
G36*
X361281Y271239D02*
X360064Y271119D01*
X358894Y270764D01*
X357815Y270187D01*
X356870Y269411D01*
X356094Y268466D01*
X355517Y267387D01*
X355162Y266217D01*
X355042Y265000D01*
X355162Y263783D01*
X355517Y262613D01*
X356094Y261534D01*
X356870Y260589D01*
X357815Y259813D01*
X358894Y259236D01*
X360064Y258881D01*
X361281Y258761D01*
X362498Y258881D01*
X363669Y259236D01*
X364747Y259813D01*
X365692Y260589D01*
X366468Y261534D01*
X367045Y262613D01*
X367400Y263783D01*
X367520Y265000D01*
X367400Y266217D01*
X367045Y267387D01*
X366468Y268466D01*
X365692Y269411D01*
X364747Y270187D01*
X363669Y270764D01*
X362498Y271119D01*
X361281Y271239D01*
D02*
G37*
G36*
X198600Y258615D02*
X197791Y258454D01*
X197104Y257996D01*
X196786Y257520D01*
X195325D01*
Y258579D01*
X188321D01*
Y255020D01*
X195325D01*
Y255480D01*
X196786D01*
X197104Y255004D01*
X197791Y254546D01*
X198600Y254384D01*
X199409Y254546D01*
X200096Y255004D01*
X200554Y255691D01*
X200715Y256500D01*
X200554Y257310D01*
X200096Y257996D01*
X199409Y258454D01*
X198600Y258615D01*
D02*
G37*
G36*
X217179Y259080D02*
X213677D01*
Y257300D01*
X217179D01*
Y259080D01*
D02*
G37*
G36*
X212677D02*
X209175D01*
Y257300D01*
X212677D01*
Y259080D01*
D02*
G37*
G36*
X217179Y256300D02*
X213677D01*
Y254521D01*
X217179D01*
Y256300D01*
D02*
G37*
G36*
X212677D02*
X209175D01*
Y254521D01*
X212677D01*
Y256300D01*
D02*
G37*
G36*
X225694Y255457D02*
X222300D01*
Y252950D01*
X225694D01*
Y255457D01*
D02*
G37*
G36*
X221300D02*
X217906D01*
Y252950D01*
X221300D01*
Y255457D01*
D02*
G37*
G36*
X195825Y254080D02*
X192323D01*
Y252300D01*
X195825D01*
Y254080D01*
D02*
G37*
G36*
X191323D02*
X187821D01*
Y252300D01*
X191323D01*
Y254080D01*
D02*
G37*
G36*
X204100Y254015D02*
X203291Y253854D01*
X202604Y253396D01*
X202146Y252710D01*
X201985Y251900D01*
X202146Y251091D01*
X202604Y250404D01*
X203291Y249946D01*
X204100Y249784D01*
X204909Y249946D01*
X205596Y250404D01*
X205914Y250880D01*
X209675D01*
Y250021D01*
X216679D01*
Y253579D01*
X209675D01*
Y252920D01*
X205914D01*
X205596Y253396D01*
X204909Y253854D01*
X204100Y254015D01*
D02*
G37*
G36*
X195825Y251300D02*
X192323D01*
Y249520D01*
X195825D01*
Y251300D01*
D02*
G37*
G36*
X191323D02*
X187821D01*
Y249520D01*
X191323D01*
Y251300D01*
D02*
G37*
G36*
X225694Y251950D02*
X222300D01*
Y249442D01*
X225694D01*
Y251950D01*
D02*
G37*
G36*
X221300D02*
X217906D01*
Y249442D01*
X221300D01*
Y251950D01*
D02*
G37*
G36*
X363280Y252804D02*
Y248192D01*
X367892D01*
X367781Y249032D01*
X367264Y250281D01*
X366441Y251353D01*
X365369Y252176D01*
X364120Y252693D01*
X363280Y252804D01*
D02*
G37*
G36*
X362280D02*
X361439Y252693D01*
X360190Y252176D01*
X359118Y251353D01*
X358295Y250281D01*
X357778Y249032D01*
X357667Y248192D01*
X362280D01*
Y252804D01*
D02*
G37*
G36*
X206700Y248715D02*
X205890Y248554D01*
X205204Y248096D01*
X204746Y247410D01*
X204585Y246600D01*
X204746Y245791D01*
X205204Y245104D01*
X205890Y244646D01*
X206700Y244484D01*
X207509Y244646D01*
X208196Y245104D01*
X208514Y245580D01*
X209675D01*
Y245021D01*
X216679D01*
Y248580D01*
X209675D01*
Y247620D01*
X208514D01*
X208196Y248096D01*
X207509Y248554D01*
X206700Y248715D01*
D02*
G37*
G36*
X203900Y243916D02*
X203091Y243754D01*
X202404Y243296D01*
X202086Y242820D01*
X195325D01*
Y243580D01*
X188321D01*
Y240020D01*
X195325D01*
Y240780D01*
X202086D01*
X202404Y240304D01*
X203091Y239846D01*
X203900Y239685D01*
X204710Y239846D01*
X205396Y240304D01*
X205854Y240990D01*
X206015Y241800D01*
X205854Y242610D01*
X205396Y243296D01*
X204710Y243754D01*
X203900Y243916D01*
D02*
G37*
G36*
X367892Y247192D02*
X363280D01*
Y242579D01*
X364120Y242690D01*
X365369Y243207D01*
X366441Y244030D01*
X367264Y245103D01*
X367781Y246352D01*
X367892Y247192D01*
D02*
G37*
G36*
X362280D02*
X357667D01*
X357778Y246352D01*
X358295Y245103D01*
X359118Y244030D01*
X360190Y243207D01*
X361439Y242690D01*
X362280Y242579D01*
Y247192D01*
D02*
G37*
G36*
X333752Y234879D02*
Y231656D01*
X336974D01*
X336911Y232137D01*
X336533Y233050D01*
X335931Y233835D01*
X335146Y234437D01*
X334232Y234816D01*
X333752Y234879D01*
D02*
G37*
G36*
X332752D02*
X332272Y234816D01*
X331358Y234437D01*
X330573Y233835D01*
X329971Y233050D01*
X329593Y232137D01*
X329530Y231656D01*
X332752D01*
Y234879D01*
D02*
G37*
G36*
X286558Y232794D02*
X284050D01*
Y229400D01*
X286558D01*
Y232794D01*
D02*
G37*
G36*
X283050D02*
X280542D01*
Y229400D01*
X283050D01*
Y232794D01*
D02*
G37*
G36*
X293007Y249056D02*
X287873D01*
Y242544D01*
X289421D01*
Y240760D01*
X289498Y240370D01*
X289719Y240039D01*
X291158Y238600D01*
X289129Y236571D01*
X288908Y236240D01*
X288830Y235850D01*
Y232294D01*
X287342D01*
Y225506D01*
X292357D01*
Y232294D01*
X290869D01*
Y235427D01*
X293122Y237680D01*
X341034D01*
X346086Y232629D01*
X345828Y232006D01*
X345716Y231156D01*
X345828Y230306D01*
X346156Y229514D01*
X346678Y228834D01*
X347358Y228312D01*
X348150Y227984D01*
X349000Y227872D01*
X349850Y227984D01*
X350642Y228312D01*
X351322Y228834D01*
X351844Y229514D01*
X352172Y230306D01*
X352284Y231156D01*
X352172Y232006D01*
X351844Y232798D01*
X351322Y233478D01*
X350642Y234000D01*
X349850Y234328D01*
X349000Y234440D01*
X348150Y234328D01*
X347528Y234071D01*
X342177Y239421D01*
X341846Y239642D01*
X341456Y239720D01*
X292922D01*
X291460Y241182D01*
Y242544D01*
X293007D01*
Y249056D01*
D02*
G37*
G36*
X317504Y234440D02*
X316654Y234328D01*
X315862Y234000D01*
X315182Y233478D01*
X314660Y232798D01*
X314332Y232006D01*
X314220Y231156D01*
X314332Y230306D01*
X314660Y229514D01*
X315182Y228834D01*
X315862Y228312D01*
X316654Y227984D01*
X317504Y227872D01*
X318354Y227984D01*
X319146Y228312D01*
X319826Y228834D01*
X320348Y229514D01*
X320676Y230306D01*
X320788Y231156D01*
X320676Y232006D01*
X320348Y232798D01*
X319826Y233478D01*
X319146Y234000D01*
X318354Y234328D01*
X317504Y234440D01*
D02*
G37*
G36*
X336974Y230656D02*
X333752D01*
Y227434D01*
X334232Y227497D01*
X335146Y227875D01*
X335931Y228478D01*
X336533Y229262D01*
X336911Y230176D01*
X336974Y230656D01*
D02*
G37*
G36*
X332752D02*
X329530D01*
X329593Y230176D01*
X329971Y229262D01*
X330573Y228478D01*
X331358Y227875D01*
X332272Y227497D01*
X332752Y227434D01*
Y230656D01*
D02*
G37*
G36*
X286558Y228400D02*
X284050D01*
Y225006D01*
X286558D01*
Y228400D01*
D02*
G37*
G36*
X283050D02*
X280542D01*
Y225006D01*
X283050D01*
Y228400D01*
D02*
G37*
G36*
X147547Y226614D02*
X138279D01*
Y224378D01*
X111721D01*
Y226614D01*
X102453D01*
Y220102D01*
X111721D01*
Y222339D01*
X138279D01*
Y220102D01*
X147547D01*
Y222339D01*
X165319D01*
X167180Y220478D01*
Y219314D01*
X166704Y218996D01*
X166246Y218309D01*
X166085Y217500D01*
X166246Y216690D01*
X166704Y216004D01*
X167391Y215546D01*
X168200Y215385D01*
X169009Y215546D01*
X169696Y216004D01*
X170014Y216480D01*
X171144D01*
Y215473D01*
X177656D01*
Y216480D01*
X180706D01*
Y214942D01*
X187494D01*
Y219957D01*
X180706D01*
Y218520D01*
X177656D01*
Y220607D01*
X171144D01*
Y218520D01*
X170014D01*
X169696Y218996D01*
X169220Y219314D01*
Y220478D01*
X171022Y222280D01*
X224078D01*
X225384Y220974D01*
Y218443D01*
X237368D01*
Y222357D01*
X226885D01*
X225221Y224021D01*
X224890Y224242D01*
X224500Y224320D01*
X170600D01*
X170210Y224242D01*
X169879Y224021D01*
X168200Y222342D01*
X166463Y224079D01*
X166132Y224300D01*
X165742Y224378D01*
X147547D01*
Y226614D01*
D02*
G37*
G36*
X304224Y228395D02*
Y223782D01*
X308837D01*
X308726Y224623D01*
X308209Y225871D01*
X307386Y226944D01*
X306313Y227767D01*
X305065Y228284D01*
X304224Y228395D01*
D02*
G37*
G36*
X303224D02*
X302384Y228284D01*
X301135Y227767D01*
X300063Y226944D01*
X299240Y225871D01*
X298723Y224623D01*
X298612Y223782D01*
X303224D01*
Y228395D01*
D02*
G37*
G36*
X253892Y222857D02*
X247900D01*
Y220900D01*
X253892D01*
Y222857D01*
D02*
G37*
G36*
X246900D02*
X240908D01*
Y220900D01*
X246900D01*
Y222857D01*
D02*
G37*
G36*
X308837Y222782D02*
X304224D01*
Y218170D01*
X305065Y218281D01*
X306313Y218798D01*
X307386Y219621D01*
X308209Y220693D01*
X308726Y221942D01*
X308837Y222782D01*
D02*
G37*
G36*
X303224D02*
X298612D01*
X298723Y221942D01*
X299240Y220693D01*
X300063Y219621D01*
X301135Y218798D01*
X302384Y218281D01*
X303224Y218170D01*
Y222782D01*
D02*
G37*
G36*
X253892Y219900D02*
X247900D01*
Y217943D01*
X253892D01*
Y219900D01*
D02*
G37*
G36*
X246900D02*
X240908D01*
Y217943D01*
X246900D01*
Y219900D01*
D02*
G37*
G36*
X187994Y214158D02*
X184600D01*
Y211650D01*
X187994D01*
Y214158D01*
D02*
G37*
G36*
X183600D02*
X180206D01*
Y211650D01*
X183600D01*
Y214158D01*
D02*
G37*
G36*
X187994Y210650D02*
X184600D01*
Y208142D01*
X187994D01*
Y210650D01*
D02*
G37*
G36*
X183600D02*
X180206D01*
Y208142D01*
X183600D01*
Y210650D01*
D02*
G37*
G36*
X37554Y211154D02*
Y207900D01*
X40809D01*
X40744Y208389D01*
X40363Y209310D01*
X39756Y210101D01*
X38964Y210708D01*
X38043Y211090D01*
X37554Y211154D01*
D02*
G37*
G36*
X36554D02*
X36066Y211090D01*
X35144Y210708D01*
X34353Y210101D01*
X33746Y209310D01*
X33364Y208389D01*
X33300Y207900D01*
X36554D01*
Y211154D01*
D02*
G37*
G36*
X148047Y209398D02*
X143413D01*
Y206142D01*
X148047D01*
Y209398D01*
D02*
G37*
G36*
X112221D02*
X107587D01*
Y206142D01*
X112221D01*
Y209398D01*
D02*
G37*
G36*
X106587D02*
X101953D01*
Y206142D01*
X106587D01*
Y209398D01*
D02*
G37*
G36*
X142413D02*
X137779D01*
Y206142D01*
X142413D01*
Y209398D01*
D02*
G37*
G36*
X40809Y206900D02*
X37554D01*
Y203646D01*
X38043Y203710D01*
X38964Y204092D01*
X39756Y204699D01*
X40363Y205490D01*
X40744Y206411D01*
X40809Y206900D01*
D02*
G37*
G36*
X36554D02*
X33300D01*
X33364Y206411D01*
X33746Y205490D01*
X34353Y204699D01*
X35144Y204092D01*
X36066Y203710D01*
X36554Y203646D01*
Y206900D01*
D02*
G37*
G36*
X148047Y205142D02*
X143413D01*
Y201886D01*
X148047D01*
Y205142D01*
D02*
G37*
G36*
X142413D02*
X137779D01*
Y201886D01*
X142413D01*
Y205142D01*
D02*
G37*
G36*
X112221D02*
X107587D01*
Y201886D01*
X112221D01*
Y205142D01*
D02*
G37*
G36*
X106587D02*
X101953D01*
Y201886D01*
X106587D01*
Y205142D01*
D02*
G37*
G36*
X188258Y199394D02*
X185750D01*
Y196000D01*
X188258D01*
Y199394D01*
D02*
G37*
G36*
X184750D02*
X182242D01*
Y196000D01*
X184750D01*
Y199394D01*
D02*
G37*
G36*
X335032Y201528D02*
X331472D01*
Y199686D01*
X320566D01*
X320176Y199608D01*
X319845Y199387D01*
X314279Y193821D01*
X314058Y193490D01*
X313980Y193100D01*
Y181222D01*
X312478Y179720D01*
X296107D01*
Y182154D01*
X291367D01*
Y175446D01*
X296107D01*
Y177680D01*
X312478D01*
X313980Y176178D01*
Y168321D01*
X314058Y167931D01*
X314279Y167600D01*
X316799Y165081D01*
X317130Y164860D01*
X317520Y164782D01*
X320350D01*
Y162802D01*
X327650D01*
Y168601D01*
X327650Y169101D01*
X327650Y169302D01*
Y174900D01*
X328150D01*
Y177900D01*
X319850D01*
Y174900D01*
X320350D01*
Y169302D01*
X320350Y168802D01*
X320350Y168601D01*
Y166821D01*
X317942D01*
X316020Y168744D01*
Y176600D01*
X315942Y176990D01*
X315721Y177321D01*
X314342Y178700D01*
X315721Y180079D01*
X315942Y180410D01*
X316020Y180800D01*
Y192678D01*
X320988Y197647D01*
X331472D01*
Y195804D01*
X335032D01*
Y201528D01*
D02*
G37*
G36*
X328150Y181900D02*
X324500D01*
Y178900D01*
X328150D01*
Y181900D01*
D02*
G37*
G36*
X323500D02*
X319850D01*
Y178900D01*
X323500D01*
Y181900D01*
D02*
G37*
G36*
X361094Y178258D02*
X357700D01*
Y175750D01*
X361094D01*
Y178258D01*
D02*
G37*
G36*
X356700D02*
X353306D01*
Y175750D01*
X356700D01*
Y178258D01*
D02*
G37*
G36*
X102180Y177941D02*
X100400D01*
Y173651D01*
X102180D01*
Y177941D01*
D02*
G37*
G36*
X84400D02*
X82621D01*
Y173651D01*
X84400D01*
Y177941D01*
D02*
G37*
G36*
X361094Y174750D02*
X357700D01*
Y172242D01*
X361094D01*
Y174750D01*
D02*
G37*
G36*
X356700D02*
X353306D01*
Y172242D01*
X356700D01*
Y174750D01*
D02*
G37*
G36*
X121679Y177441D02*
X118121D01*
Y168862D01*
X121679D01*
Y177441D01*
D02*
G37*
G36*
X102180Y172651D02*
X100400D01*
Y168362D01*
X102180D01*
Y172651D01*
D02*
G37*
G36*
X84400D02*
X82621D01*
Y168362D01*
X84400D01*
Y172651D01*
D02*
G37*
G36*
X97180Y177941D02*
X97180Y177941D01*
X97135Y177941D01*
X95400D01*
Y173151D01*
Y168362D01*
X97180D01*
Y168362D01*
X97620D01*
Y168362D01*
X99400D01*
Y173151D01*
Y177941D01*
X97665D01*
X97620Y177941D01*
Y177941D01*
X97180D01*
D02*
G37*
G36*
X92180D02*
Y177941D01*
X90400D01*
Y173151D01*
Y168362D01*
X92180D01*
Y168362D01*
X92620D01*
Y168362D01*
X94400D01*
Y173151D01*
Y177941D01*
X92620D01*
Y177941D01*
X92180D01*
D02*
G37*
G36*
X87179D02*
Y177941D01*
X85400D01*
Y173151D01*
Y168362D01*
X87179D01*
Y168362D01*
X87621D01*
Y168362D01*
X89400D01*
Y173151D01*
Y177941D01*
X87621D01*
Y177941D01*
X87179D01*
D02*
G37*
G36*
X161400Y166927D02*
Y164000D01*
X164327D01*
X164274Y164404D01*
X163925Y165246D01*
X163370Y165970D01*
X162646Y166525D01*
X161804Y166874D01*
X161400Y166927D01*
D02*
G37*
G36*
X160400D02*
X159996Y166874D01*
X159154Y166525D01*
X158430Y165970D01*
X157875Y165246D01*
X157527Y164404D01*
X157473Y164000D01*
X160400D01*
Y166927D01*
D02*
G37*
G36*
X164327Y163000D02*
X161400D01*
Y160073D01*
X161804Y160126D01*
X162646Y160475D01*
X163370Y161030D01*
X163925Y161754D01*
X164274Y162596D01*
X164327Y163000D01*
D02*
G37*
G36*
X160400D02*
X157473D01*
X157527Y162596D01*
X157875Y161754D01*
X158430Y161030D01*
X159154Y160475D01*
X159996Y160126D01*
X160400Y160073D01*
Y163000D01*
D02*
G37*
G36*
X132494Y154458D02*
X129100D01*
Y151950D01*
X132494D01*
Y154458D01*
D02*
G37*
G36*
X128100D02*
X124706D01*
Y151950D01*
X128100D01*
Y154458D01*
D02*
G37*
G36*
X132494Y150950D02*
X129100D01*
Y148442D01*
X132494D01*
Y150950D01*
D02*
G37*
G36*
X128100D02*
X124706D01*
Y148442D01*
X128100D01*
Y150950D01*
D02*
G37*
G36*
X37454Y145209D02*
Y141955D01*
X40709D01*
X40644Y142444D01*
X40263Y143365D01*
X39656Y144156D01*
X38864Y144763D01*
X37943Y145145D01*
X37454Y145209D01*
D02*
G37*
G36*
X36454D02*
X35966Y145145D01*
X35044Y144763D01*
X34253Y144156D01*
X33646Y143365D01*
X33264Y142444D01*
X33200Y141955D01*
X36454D01*
Y145209D01*
D02*
G37*
G36*
X162058Y143494D02*
X159550D01*
Y140100D01*
X162058D01*
Y143494D01*
D02*
G37*
G36*
X158550D02*
X156043D01*
Y140100D01*
X158550D01*
Y143494D01*
D02*
G37*
G36*
X40709Y140955D02*
X37454D01*
Y137701D01*
X37943Y137765D01*
X38864Y138147D01*
X39656Y138754D01*
X40263Y139545D01*
X40644Y140466D01*
X40709Y140955D01*
D02*
G37*
G36*
X36454D02*
X33200D01*
X33264Y140466D01*
X33646Y139545D01*
X34253Y138754D01*
X35044Y138147D01*
X35966Y137765D01*
X36454Y137701D01*
Y140955D01*
D02*
G37*
G36*
X107179Y140838D02*
X105400D01*
Y136549D01*
X107179D01*
Y140838D01*
D02*
G37*
G36*
X84400D02*
X82621D01*
Y136549D01*
X84400D01*
Y140838D01*
D02*
G37*
G36*
X162058Y139100D02*
X159050D01*
X156043D01*
Y135706D01*
Y132700D01*
X159050D01*
X162058D01*
Y135706D01*
Y139100D01*
D02*
G37*
G36*
X107179Y135549D02*
X105400D01*
Y131259D01*
X107179D01*
Y135549D01*
D02*
G37*
G36*
X84400D02*
X82621D01*
Y131259D01*
X84400D01*
Y135549D01*
D02*
G37*
G36*
X102180Y140838D02*
X102180Y140838D01*
X102135Y140838D01*
X100400D01*
Y136049D01*
Y131259D01*
X102180D01*
Y131259D01*
X102620D01*
Y131259D01*
X104400D01*
Y136049D01*
Y140838D01*
X102665D01*
X102620Y140838D01*
Y140838D01*
X102180D01*
D02*
G37*
G36*
X97180D02*
Y140838D01*
X95400D01*
Y136049D01*
Y131259D01*
X97180D01*
Y131259D01*
X97620D01*
Y131259D01*
X99400D01*
Y136049D01*
Y140838D01*
X97620D01*
Y140838D01*
X97180D01*
D02*
G37*
G36*
X92180D02*
Y140838D01*
X90400D01*
Y136049D01*
Y131259D01*
X92180D01*
Y131259D01*
X92620D01*
Y131259D01*
X94400D01*
Y136049D01*
Y140838D01*
X92620D01*
Y140838D01*
X92180D01*
D02*
G37*
G36*
X87179D02*
Y140838D01*
X85400D01*
Y136049D01*
Y131259D01*
X87179D01*
Y131259D01*
X87621D01*
Y131259D01*
X89400D01*
Y136049D01*
Y140838D01*
X87621D01*
Y140838D01*
X87179D01*
D02*
G37*
G36*
X333110Y132894D02*
X330602D01*
Y129500D01*
X333110D01*
Y132894D01*
D02*
G37*
G36*
X329602D02*
X327095D01*
Y129500D01*
X329602D01*
Y132894D01*
D02*
G37*
G36*
X111679Y140338D02*
X108121D01*
Y131759D01*
X108880D01*
Y130114D01*
X108404Y129796D01*
X107946Y129110D01*
X107784Y128300D01*
X107946Y127490D01*
X108404Y126804D01*
X109090Y126346D01*
X109900Y126184D01*
X110710Y126346D01*
X111396Y126804D01*
X111854Y127490D01*
X112015Y128300D01*
X111854Y129110D01*
X111396Y129796D01*
X110920Y130114D01*
Y131759D01*
X111679D01*
Y140338D01*
D02*
G37*
G36*
X333110Y128500D02*
X330602D01*
Y125106D01*
X333110D01*
Y128500D01*
D02*
G37*
G36*
X329602D02*
X327095D01*
Y125106D01*
X329602D01*
Y128500D01*
D02*
G37*
G36*
X210358Y126700D02*
X207850D01*
Y123306D01*
X210358D01*
Y126700D01*
D02*
G37*
G36*
X206850D02*
X204343D01*
Y123306D01*
X206850D01*
Y126700D01*
D02*
G37*
G36*
X183458D02*
X180950D01*
Y123306D01*
X183458D01*
Y126700D01*
D02*
G37*
G36*
X339559Y148756D02*
X334425D01*
Y142244D01*
X335382D01*
Y132394D01*
X333894D01*
Y125606D01*
X338909D01*
Y127980D01*
X340178D01*
X345028Y123130D01*
Y121753D01*
X342595D01*
Y114847D01*
X349500D01*
Y121753D01*
X347067D01*
Y123553D01*
X346989Y123943D01*
X346768Y124274D01*
X341321Y129721D01*
X340990Y129942D01*
X340600Y130020D01*
X338909D01*
Y132394D01*
X337421D01*
Y142244D01*
X339559D01*
Y148756D01*
D02*
G37*
G36*
X320457Y121783D02*
X319555Y121664D01*
X318715Y121316D01*
X317994Y120763D01*
X317441Y120041D01*
X317093Y119201D01*
X316974Y118300D01*
X317093Y117399D01*
X317441Y116559D01*
X317994Y115838D01*
X318715Y115284D01*
X319555Y114936D01*
X320457Y114818D01*
X321358Y114936D01*
X322198Y115284D01*
X322919Y115838D01*
X323473Y116559D01*
X323821Y117399D01*
X323939Y118300D01*
X323821Y119201D01*
X323473Y120041D01*
X322919Y120763D01*
X322198Y121316D01*
X321358Y121664D01*
X320457Y121783D01*
D02*
G37*
G36*
X346547Y104505D02*
Y101084D01*
X349968D01*
X349898Y101615D01*
X349500Y102577D01*
X348866Y103403D01*
X348041Y104036D01*
X347079Y104435D01*
X346547Y104505D01*
D02*
G37*
G36*
X345547Y104505D02*
X345015Y104435D01*
X344054Y104036D01*
X343228Y103403D01*
X342595Y102577D01*
X342196Y101615D01*
X342126Y101084D01*
X345547D01*
Y104505D01*
D02*
G37*
G36*
X320457Y104066D02*
X319555Y103947D01*
X318715Y103599D01*
X317994Y103046D01*
X317441Y102325D01*
X317093Y101485D01*
X316974Y100584D01*
X317093Y99682D01*
X317441Y98842D01*
X317994Y98121D01*
X318715Y97567D01*
X319555Y97220D01*
X320457Y97101D01*
X321358Y97220D01*
X322198Y97567D01*
X322919Y98121D01*
X323473Y98842D01*
X323821Y99682D01*
X323939Y100584D01*
X323821Y101485D01*
X323473Y102325D01*
X322919Y103046D01*
X322198Y103599D01*
X321358Y103947D01*
X320457Y104066D01*
D02*
G37*
G36*
X345547Y100084D02*
X342126D01*
X342196Y99552D01*
X342595Y98590D01*
X343228Y97764D01*
X344054Y97131D01*
X345015Y96732D01*
X345547Y96662D01*
Y100084D01*
D02*
G37*
G36*
X349968D02*
X346547D01*
Y96662D01*
X347079Y96732D01*
X348041Y97131D01*
X348866Y97764D01*
X349500Y98590D01*
X349898Y99552D01*
X349968Y100084D01*
D02*
G37*
G36*
X192763Y94353D02*
X188818D01*
Y90900D01*
X192763D01*
Y94353D01*
D02*
G37*
G36*
X187818D02*
X183873D01*
Y90900D01*
X187818D01*
Y94353D01*
D02*
G37*
G36*
X192763Y89900D02*
X188818D01*
Y86447D01*
X192763D01*
Y89900D01*
D02*
G37*
G36*
X187818D02*
X183873D01*
Y86447D01*
X187818D01*
Y89900D01*
D02*
G37*
G36*
X59000Y91536D02*
X58214Y91432D01*
X57482Y91129D01*
X56853Y90647D01*
X56371Y90018D01*
X56068Y89286D01*
X55964Y88500D01*
X56068Y87714D01*
X56371Y86982D01*
X56853Y86353D01*
X57482Y85871D01*
X58214Y85568D01*
X59000Y85464D01*
X59786Y85568D01*
X60518Y85871D01*
X61147Y86353D01*
X61629Y86982D01*
X61932Y87714D01*
X62036Y88500D01*
X61932Y89286D01*
X61629Y90018D01*
X61147Y90647D01*
X60518Y91129D01*
X59786Y91432D01*
X59000Y91536D01*
D02*
G37*
G36*
X192763Y79453D02*
X188818D01*
Y76000D01*
X192763D01*
Y79453D01*
D02*
G37*
G36*
X187818D02*
X183873D01*
Y76000D01*
X187818D01*
Y79453D01*
D02*
G37*
G36*
X279258Y77594D02*
X276750D01*
Y74200D01*
X279258D01*
Y77594D01*
D02*
G37*
G36*
X275750D02*
X273242D01*
Y74200D01*
X275750D01*
Y77594D01*
D02*
G37*
G36*
X23960Y75019D02*
X20901D01*
Y71960D01*
X23960D01*
Y75019D01*
D02*
G37*
G36*
X19901D02*
X16842D01*
Y71960D01*
X19901D01*
Y75019D01*
D02*
G37*
G36*
X192763Y75000D02*
X188818D01*
Y71547D01*
X192763D01*
Y75000D01*
D02*
G37*
G36*
X187818D02*
X183873D01*
Y71547D01*
X187818D01*
Y75000D01*
D02*
G37*
G36*
X279258Y73200D02*
X276750D01*
Y69806D01*
X279258D01*
Y73200D01*
D02*
G37*
G36*
X275750D02*
X273242D01*
Y69806D01*
X275750D01*
Y73200D01*
D02*
G37*
G36*
X40401Y74546D02*
X39602Y74440D01*
X38858Y74132D01*
X38219Y73642D01*
X37729Y73003D01*
X37421Y72259D01*
X37315Y71460D01*
X37421Y70661D01*
X37729Y69917D01*
X38219Y69278D01*
X38858Y68788D01*
X39602Y68480D01*
X40401Y68375D01*
X41199Y68480D01*
X41944Y68788D01*
X42583Y69278D01*
X43073Y69917D01*
X43381Y70661D01*
X43486Y71460D01*
X43381Y72259D01*
X43073Y73003D01*
X42583Y73642D01*
X41944Y74132D01*
X41199Y74440D01*
X40401Y74546D01*
D02*
G37*
G36*
X23960Y70960D02*
X20901D01*
Y67901D01*
X23960D01*
Y70960D01*
D02*
G37*
G36*
X19901D02*
X16842D01*
Y67901D01*
X19901D01*
Y70960D01*
D02*
G37*
G36*
X267000Y68357D02*
X263606D01*
Y65850D01*
X267000D01*
Y68357D01*
D02*
G37*
G36*
Y64850D02*
X263606D01*
Y62342D01*
X267000D01*
Y64850D01*
D02*
G37*
G36*
X368157Y62764D02*
X365491D01*
Y57539D01*
X368157D01*
Y62764D01*
D02*
G37*
G36*
X364491D02*
X361826D01*
Y57539D01*
X364491D01*
Y62764D01*
D02*
G37*
G36*
X60976Y67865D02*
X57024D01*
Y61943D01*
X57980D01*
Y61114D01*
X57504Y60796D01*
X57046Y60110D01*
X56885Y59300D01*
X57046Y58490D01*
X57504Y57804D01*
X58190Y57346D01*
X59000Y57185D01*
X59810Y57346D01*
X60496Y57804D01*
X60954Y58490D01*
X61115Y59300D01*
X60954Y60110D01*
X60496Y60796D01*
X60020Y61114D01*
Y61943D01*
X60976D01*
Y67865D01*
D02*
G37*
G36*
X368157Y56539D02*
X365491D01*
Y51315D01*
X368157D01*
Y56539D01*
D02*
G37*
G36*
X364491D02*
X361826D01*
Y51315D01*
X364491D01*
Y56539D01*
D02*
G37*
G36*
X62894Y32858D02*
X59500D01*
Y30350D01*
X62894D01*
Y32858D01*
D02*
G37*
G36*
X58500D02*
X55106D01*
Y30350D01*
X58500D01*
Y32858D01*
D02*
G37*
G36*
X62894Y29350D02*
X59500D01*
Y26842D01*
X62894D01*
Y29350D01*
D02*
G37*
G36*
X58500D02*
X55106D01*
Y26842D01*
X58500D01*
Y29350D01*
D02*
G37*
G36*
X304574Y27331D02*
X301909D01*
Y22106D01*
X304574D01*
Y27331D01*
D02*
G37*
G36*
X300909D02*
X298243D01*
Y22106D01*
X300909D01*
Y27331D01*
D02*
G37*
G36*
X368157D02*
X365491D01*
Y22106D01*
X368157D01*
Y27331D01*
D02*
G37*
G36*
X364491D02*
X361826D01*
Y22106D01*
X364491D01*
Y27331D01*
D02*
G37*
G36*
X30159Y25394D02*
X27651D01*
Y22000D01*
X30159D01*
Y25394D01*
D02*
G37*
G36*
X26651D02*
X24144D01*
Y22000D01*
X26651D01*
Y25394D01*
D02*
G37*
G36*
X30159Y21000D02*
X27651D01*
Y17606D01*
X30159D01*
Y21000D01*
D02*
G37*
G36*
X26651D02*
X24144D01*
Y17606D01*
X26651D01*
Y21000D01*
D02*
G37*
G36*
X345818Y22369D02*
X344893Y22185D01*
X344109Y21662D01*
X343586Y20877D01*
X343402Y19953D01*
X343586Y19028D01*
X344109Y18244D01*
X344893Y17720D01*
X345818Y17536D01*
X346743Y17720D01*
X347527Y18244D01*
X348051Y19028D01*
X348235Y19953D01*
X348051Y20877D01*
X347527Y21662D01*
X346743Y22185D01*
X345818Y22369D01*
D02*
G37*
G36*
X319834D02*
X318909Y22185D01*
X318125Y21662D01*
X317601Y20877D01*
X317417Y19953D01*
X317601Y19028D01*
X318125Y18244D01*
X318909Y17720D01*
X319834Y17536D01*
X320759Y17720D01*
X321543Y18244D01*
X322066Y19028D01*
X322250Y19953D01*
X322066Y20877D01*
X321543Y21662D01*
X320759Y22185D01*
X319834Y22369D01*
D02*
G37*
G36*
X368157Y21106D02*
X365491D01*
Y15882D01*
X368157D01*
Y21106D01*
D02*
G37*
G36*
X364491D02*
X361826D01*
Y15882D01*
X364491D01*
Y21106D01*
D02*
G37*
G36*
X304574Y21106D02*
X301909D01*
Y15882D01*
X304574D01*
Y21106D01*
D02*
G37*
G36*
X300909D02*
X298243D01*
Y15882D01*
X300909D01*
Y21106D01*
D02*
G37*
G36*
X107118Y20106D02*
X101500D01*
Y13700D01*
X107118D01*
Y20106D01*
D02*
G37*
G36*
X100500D02*
X94882D01*
Y13700D01*
X100500D01*
Y20106D01*
D02*
G37*
G36*
X263248Y17348D02*
X259500D01*
Y13600D01*
X263248D01*
Y17348D01*
D02*
G37*
G36*
X258500D02*
X254752D01*
Y13600D01*
X258500D01*
Y17348D01*
D02*
G37*
G36*
X160548Y16848D02*
X153052D01*
Y9352D01*
X160548D01*
Y16848D01*
D02*
G37*
G36*
X215855Y16880D02*
X214877Y16752D01*
X213965Y16374D01*
X213182Y15773D01*
X212581Y14990D01*
X212204Y14078D01*
X212075Y13100D01*
X212204Y12122D01*
X212581Y11210D01*
X213182Y10427D01*
X213965Y9826D01*
X214877Y9448D01*
X215855Y9320D01*
X216834Y9448D01*
X217745Y9826D01*
X218528Y10427D01*
X219129Y11210D01*
X219507Y12122D01*
X219636Y13100D01*
X219507Y14078D01*
X219129Y14990D01*
X218528Y15773D01*
X217745Y16374D01*
X216834Y16752D01*
X215855Y16880D01*
D02*
G37*
G36*
X206013D02*
X205034Y16752D01*
X204122Y16374D01*
X203340Y15773D01*
X202739Y14990D01*
X202361Y14078D01*
X202232Y13100D01*
X202361Y12122D01*
X202739Y11210D01*
X203340Y10427D01*
X204122Y9826D01*
X205034Y9448D01*
X206013Y9320D01*
X206991Y9448D01*
X207903Y9826D01*
X208686Y10427D01*
X209286Y11210D01*
X209664Y12122D01*
X209793Y13100D01*
X209664Y14078D01*
X209286Y14990D01*
X208686Y15773D01*
X207903Y16374D01*
X206991Y16752D01*
X206013Y16880D01*
D02*
G37*
G36*
X196170D02*
X195192Y16752D01*
X194280Y16374D01*
X193497Y15773D01*
X192896Y14990D01*
X192518Y14078D01*
X192390Y13100D01*
X192518Y12122D01*
X192896Y11210D01*
X193497Y10427D01*
X194280Y9826D01*
X195192Y9448D01*
X196170Y9320D01*
X197149Y9448D01*
X198060Y9826D01*
X198843Y10427D01*
X199444Y11210D01*
X199822Y12122D01*
X199951Y13100D01*
X199822Y14078D01*
X199444Y14990D01*
X198843Y15773D01*
X198060Y16374D01*
X197149Y16752D01*
X196170Y16880D01*
D02*
G37*
G36*
X186328D02*
X185349Y16752D01*
X184437Y16374D01*
X183654Y15773D01*
X183054Y14990D01*
X182676Y14078D01*
X182547Y13100D01*
X182676Y12122D01*
X183054Y11210D01*
X183654Y10427D01*
X184437Y9826D01*
X185349Y9448D01*
X186328Y9320D01*
X187306Y9448D01*
X188218Y9826D01*
X189001Y10427D01*
X189602Y11210D01*
X189979Y12122D01*
X190108Y13100D01*
X189979Y14078D01*
X189602Y14990D01*
X189001Y15773D01*
X188218Y16374D01*
X187306Y16752D01*
X186328Y16880D01*
D02*
G37*
G36*
X176485D02*
X175507Y16752D01*
X174595Y16374D01*
X173812Y15773D01*
X173211Y14990D01*
X172834Y14078D01*
X172705Y13100D01*
X172834Y12122D01*
X173211Y11210D01*
X173812Y10427D01*
X174595Y9826D01*
X175507Y9448D01*
X176485Y9320D01*
X177463Y9448D01*
X178375Y9826D01*
X179158Y10427D01*
X179759Y11210D01*
X180137Y12122D01*
X180265Y13100D01*
X180137Y14078D01*
X179759Y14990D01*
X179158Y15773D01*
X178375Y16374D01*
X177463Y16752D01*
X176485Y16880D01*
D02*
G37*
G36*
X166642D02*
X165664Y16752D01*
X164752Y16374D01*
X163969Y15773D01*
X163369Y14990D01*
X162991Y14078D01*
X162862Y13100D01*
X162991Y12122D01*
X163369Y11210D01*
X163969Y10427D01*
X164752Y9826D01*
X165664Y9448D01*
X166642Y9320D01*
X167621Y9448D01*
X168533Y9826D01*
X169316Y10427D01*
X169916Y11210D01*
X170294Y12122D01*
X170423Y13100D01*
X170294Y14078D01*
X169916Y14990D01*
X169316Y15773D01*
X168533Y16374D01*
X167621Y16752D01*
X166642Y16880D01*
D02*
G37*
G36*
X263248Y12600D02*
X259500D01*
Y8852D01*
X263248D01*
Y12600D01*
D02*
G37*
G36*
X258500D02*
X254752D01*
Y8852D01*
X258500D01*
Y12600D01*
D02*
G37*
G36*
X107118Y12700D02*
X101500D01*
Y6295D01*
X107118D01*
Y12700D01*
D02*
G37*
G36*
X100500D02*
X94882D01*
Y6295D01*
X100500D01*
Y12700D01*
D02*
G37*
G36*
X10000Y16239D02*
X8783Y16119D01*
X7613Y15764D01*
X6534Y15187D01*
X5589Y14411D01*
X4813Y13466D01*
X4236Y12387D01*
X3881Y11217D01*
X3761Y10000D01*
X3881Y8783D01*
X4236Y7613D01*
X4813Y6534D01*
X5589Y5589D01*
X6534Y4813D01*
X7613Y4236D01*
X8783Y3881D01*
X10000Y3761D01*
X11217Y3881D01*
X12387Y4236D01*
X13466Y4813D01*
X14411Y5589D01*
X15187Y6534D01*
X15764Y7613D01*
X16119Y8783D01*
X16239Y10000D01*
X16119Y11217D01*
X15764Y12387D01*
X15187Y13466D01*
X14411Y14411D01*
X13466Y15187D01*
X12387Y15764D01*
X11217Y16119D01*
X10000Y16239D01*
D02*
G37*
%LPD*%
G36*
X274063Y358909D02*
X274068Y358887D01*
X274395Y358097D01*
X274504Y357933D01*
X274592Y357756D01*
X275112Y357077D01*
X275261Y356947D01*
X275391Y356799D01*
X276069Y356278D01*
X276247Y356191D01*
X276411Y356081D01*
X277201Y355754D01*
X277394Y355715D01*
X277581Y355652D01*
X278429Y355540D01*
X278626Y355553D01*
X278823Y355540D01*
X279671Y355652D01*
X279858Y355715D01*
X280051Y355754D01*
X280217Y355822D01*
X284993Y351046D01*
Y313063D01*
X284780D01*
X284202Y312948D01*
X283713Y312621D01*
X283700Y312603D01*
X283221Y312554D01*
X283066Y312554D01*
X280457D01*
Y308700D01*
X279957D01*
Y308200D01*
X276693D01*
Y304846D01*
X277468D01*
X277823Y304495D01*
X277823Y304346D01*
Y298865D01*
X275062Y296104D01*
X275000Y296072D01*
X274781Y296056D01*
X274446Y296096D01*
X271277Y299265D01*
Y304346D01*
X271277Y304495D01*
X271632Y304846D01*
X272407D01*
Y308200D01*
X269143D01*
Y308700D01*
X268643D01*
Y312554D01*
X266034D01*
X265880Y312554D01*
X265400Y312603D01*
X265388Y312621D01*
X264898Y312948D01*
X264320Y313063D01*
X264107D01*
Y352108D01*
X267483Y355484D01*
X268784D01*
X269143Y355555D01*
X272032D01*
X272609Y355670D01*
X273099Y355997D01*
X273426Y356487D01*
X273541Y357064D01*
Y358467D01*
X274041Y358912D01*
X274063Y358909D01*
D02*
G37*
G36*
X97820Y292927D02*
Y287040D01*
X99170D01*
Y285096D01*
X97820D01*
Y278387D01*
X102560D01*
Y280722D01*
X109236D01*
X111880Y278078D01*
Y258922D01*
X109778Y256820D01*
X95672D01*
X93395Y259097D01*
Y259704D01*
X94155D01*
Y265380D01*
X96778D01*
X98154Y264004D01*
Y259704D01*
X101714D01*
Y265428D01*
X99614D01*
X97921Y267121D01*
X97590Y267342D01*
X97200Y267420D01*
X89122D01*
X88220Y268322D01*
Y279927D01*
X88696Y280246D01*
X89014Y280722D01*
X89946D01*
Y278387D01*
X94635D01*
X94686Y278387D01*
X95135Y278264D01*
Y273696D01*
X94375D01*
Y267972D01*
X97934D01*
Y273696D01*
X97174D01*
Y293097D01*
X97320Y293195D01*
X97820Y292927D01*
D02*
G37*
G36*
X154796Y278387D02*
X159485D01*
X159536Y278387D01*
X159985Y278264D01*
Y273696D01*
X159225D01*
X159225Y267972D01*
X158747Y267920D01*
X154222D01*
X152986Y269156D01*
Y279927D01*
X153462Y280246D01*
X153780Y280722D01*
X154796D01*
Y278387D01*
D02*
G37*
G36*
X162670Y292978D02*
Y287040D01*
X164021D01*
Y285096D01*
X162670D01*
Y278387D01*
X167410D01*
Y280722D01*
X175599D01*
X177443Y278878D01*
Y257985D01*
X176278Y256820D01*
X160322D01*
X158245Y258897D01*
Y259704D01*
X159005D01*
Y265380D01*
X159005Y265428D01*
X159121Y265880D01*
X160878D01*
X163005Y263753D01*
Y259704D01*
X166564D01*
Y265428D01*
X164214D01*
X162170Y267472D01*
X162377Y267972D01*
X162784D01*
Y273696D01*
X162024D01*
Y293147D01*
X162170Y293245D01*
X162670Y292978D01*
D02*
G37*
G36*
X260146Y211508D02*
X260085Y211200D01*
X260246Y210390D01*
X260704Y209704D01*
X261180Y209386D01*
Y204822D01*
X257778Y201420D01*
X253392D01*
Y202357D01*
X241408D01*
Y198443D01*
X253392D01*
Y199380D01*
X258200D01*
X258590Y199458D01*
X259035Y199154D01*
X258984Y198900D01*
X259100Y198320D01*
X258803Y197868D01*
X258729Y197820D01*
X222325D01*
X222276Y198320D01*
X222909Y198446D01*
X223596Y198904D01*
X223914Y199380D01*
X225384D01*
Y198443D01*
X237368D01*
Y202357D01*
X225384D01*
Y201420D01*
X223914D01*
X223596Y201896D01*
X222909Y202354D01*
X222100Y202516D01*
X221431Y202382D01*
X221174Y202832D01*
X222147Y203806D01*
X223166D01*
X223557Y203883D01*
X223887Y204104D01*
X224164Y204380D01*
X225384D01*
Y203443D01*
X237368D01*
Y207357D01*
X225384D01*
Y206420D01*
X224496D01*
X224120Y206920D01*
X224216Y207400D01*
X224054Y208209D01*
X223606Y208880D01*
X223624Y208975D01*
X223771Y209380D01*
X225384D01*
Y208443D01*
X237368D01*
Y211924D01*
X240908D01*
Y210900D01*
X247400D01*
X253892D01*
Y211924D01*
X259719D01*
X260146Y211508D01*
D02*
G37*
G36*
X327693Y209796D02*
Y207954D01*
X324214D01*
X323896Y208430D01*
X323210Y208888D01*
X322400Y209049D01*
X321590Y208888D01*
X320904Y208430D01*
X320586Y207954D01*
X275134D01*
X274744Y207876D01*
X274413Y207655D01*
X272781Y206024D01*
X272320Y206215D01*
Y208720D01*
X272800Y209124D01*
X273000Y209085D01*
X273810Y209246D01*
X274496Y209704D01*
X274747Y210080D01*
X327311D01*
X327693Y209796D01*
D02*
G37*
G36*
X263875Y193676D02*
X264280Y193529D01*
Y153373D01*
X259064Y148156D01*
X232876D01*
X232724Y148656D01*
X233096Y148904D01*
X233554Y149591D01*
X233716Y150400D01*
X233554Y151209D01*
X233096Y151896D01*
X232410Y152354D01*
X231600Y152515D01*
X231047Y152406D01*
X230721Y152455D01*
X230505Y152765D01*
X230401Y153288D01*
X229942Y153974D01*
X229256Y154433D01*
X228447Y154594D01*
X228251Y154555D01*
X227897Y154909D01*
X227916Y155000D01*
X227754Y155809D01*
X227296Y156496D01*
X226609Y156954D01*
X225800Y157115D01*
X224991Y156954D01*
X224304Y156496D01*
X223986Y156020D01*
X222700D01*
X222594Y155999D01*
X222094Y156353D01*
Y159015D01*
X222594Y159201D01*
X222891Y158904D01*
X223222Y158683D01*
X223612Y158606D01*
X240153D01*
X243279Y155479D01*
X243610Y155258D01*
X244000Y155180D01*
X248204D01*
Y152304D01*
X255996D01*
Y160096D01*
X248204D01*
Y157220D01*
X244422D01*
X241296Y160346D01*
X241292Y160950D01*
X245522Y165180D01*
X248306D01*
X248697Y164235D01*
X249322Y163422D01*
X250135Y162797D01*
X251083Y162405D01*
X252100Y162271D01*
X253117Y162405D01*
X254065Y162797D01*
X254878Y163422D01*
X255503Y164235D01*
X255895Y165183D01*
X256029Y166200D01*
X255895Y167217D01*
X255503Y168165D01*
X254878Y168978D01*
X254065Y169603D01*
X253117Y169995D01*
X252100Y170129D01*
X251083Y169995D01*
X250135Y169603D01*
X249322Y168978D01*
X248697Y168165D01*
X248306Y167220D01*
X245100D01*
X244710Y167142D01*
X244379Y166921D01*
X239603Y162145D01*
X224656D01*
X223758Y163042D01*
X223428Y163263D01*
X223037Y163341D01*
X222094D01*
Y164572D01*
X222406Y164943D01*
X225800D01*
Y167950D01*
Y170958D01*
X224259D01*
X224069Y171421D01*
X224151Y171530D01*
X224378Y171742D01*
X229694D01*
Y176758D01*
X222906D01*
Y173248D01*
X222841Y173183D01*
X222094D01*
Y173254D01*
X218603D01*
X218396Y173754D01*
X237222Y192580D01*
X258578D01*
X259096Y192062D01*
X258984Y191500D01*
X259146Y190691D01*
X259604Y190004D01*
X260291Y189546D01*
X261100Y189384D01*
X261910Y189546D01*
X262596Y190004D01*
X263054Y190691D01*
X263215Y191500D01*
X263054Y192309D01*
X262809Y192676D01*
X263040Y193232D01*
X263109Y193246D01*
X263780Y193694D01*
X263875Y193676D01*
D02*
G37*
G36*
X215462Y196413D02*
X215546Y195991D01*
X216004Y195304D01*
X216690Y194846D01*
X217500Y194685D01*
X218309Y194846D01*
X218996Y195304D01*
X219314Y195780D01*
X234385D01*
X234577Y195318D01*
X215878Y176620D01*
X211954D01*
Y183394D01*
X211883D01*
Y193542D01*
X214919Y196577D01*
X215462Y196413D01*
D02*
G37*
G36*
X30380Y174861D02*
X30311Y174389D01*
X27580D01*
Y204113D01*
X30380D01*
Y174861D01*
D02*
G37*
G36*
X203939Y176342D02*
X204016Y175952D01*
X204237Y175621D01*
X206479Y173379D01*
X206810Y173158D01*
X207200Y173080D01*
X209831D01*
X210038Y172580D01*
X208278Y170820D01*
X190841D01*
X190573Y171320D01*
X190754Y171590D01*
X190916Y172400D01*
X190883Y172564D01*
X191236Y172917D01*
X191400Y172885D01*
X192209Y173046D01*
X192896Y173504D01*
X193354Y174190D01*
X193516Y175000D01*
X193354Y175810D01*
X193169Y176087D01*
X193436Y176587D01*
X194764D01*
X195031Y176087D01*
X194846Y175810D01*
X194685Y175000D01*
X194846Y174190D01*
X195304Y173504D01*
X195991Y173046D01*
X196800Y172885D01*
X197609Y173046D01*
X198296Y173504D01*
X198681Y174080D01*
X199071D01*
X199461Y174158D01*
X199792Y174379D01*
X201742Y176330D01*
X201914Y176587D01*
X203939D01*
Y176342D01*
D02*
G37*
G36*
X30380Y108927D02*
X30311Y108456D01*
X27580D01*
Y138168D01*
X30380D01*
Y108927D01*
D02*
G37*
G36*
X305822Y89087D02*
Y68169D01*
X305121D01*
Y61658D01*
X308562D01*
Y68169D01*
X307861D01*
Y88516D01*
X308323Y88707D01*
X310153Y86877D01*
Y68169D01*
X309452D01*
Y61658D01*
X312893D01*
Y68169D01*
X312192D01*
Y86306D01*
X312654Y86497D01*
X314484Y84668D01*
Y68169D01*
X313783D01*
Y61658D01*
X317224D01*
X317613Y61391D01*
Y61158D01*
X319334D01*
Y64913D01*
X320334D01*
Y61158D01*
X322054D01*
Y61391D01*
X322444Y61658D01*
X325885D01*
Y67509D01*
X325965Y67564D01*
X326579Y67532D01*
X326775Y67336D01*
Y61658D01*
X327476D01*
Y50518D01*
X326478Y49520D01*
X293322D01*
X292020Y50822D01*
Y62900D01*
X291942Y63290D01*
X291721Y63621D01*
X289302Y66040D01*
X291721Y68459D01*
X291942Y68790D01*
X292020Y69180D01*
Y92400D01*
X291942Y92790D01*
X291721Y93121D01*
X288824Y96018D01*
X289015Y96480D01*
X298428D01*
X305822Y89087D01*
D02*
G37*
G36*
X279779Y62879D02*
X280110Y62658D01*
X280500Y62580D01*
X287478D01*
X288480Y61578D01*
Y46622D01*
X287478Y45620D01*
X277380D01*
X275598Y47402D01*
Y57010D01*
X277441D01*
X277441Y60110D01*
X277883Y60250D01*
X277941D01*
Y61800D01*
X274579D01*
Y62800D01*
X277941D01*
Y64010D01*
X278441Y64217D01*
X279779Y62879D01*
D02*
G37*
%LPC*%
G36*
X269643Y312554D02*
Y309200D01*
X272407D01*
Y312554D01*
X269643D01*
D02*
G37*
G36*
X279457D02*
X276693D01*
Y309200D01*
X279457D01*
Y312554D01*
D02*
G37*
G36*
X253892Y209900D02*
X247400D01*
X240908D01*
Y207943D01*
X240908D01*
Y207857D01*
X240908D01*
Y205900D01*
X247400D01*
X253892D01*
Y207857D01*
X253892D01*
Y207943D01*
X253892D01*
Y209900D01*
D02*
G37*
G36*
Y204900D02*
X247900D01*
Y202943D01*
X253892D01*
Y204900D01*
D02*
G37*
G36*
X246900D02*
X240908D01*
Y202943D01*
X246900D01*
Y204900D01*
D02*
G37*
G36*
X230194Y170958D02*
X226800D01*
Y168450D01*
X230194D01*
Y170958D01*
D02*
G37*
G36*
Y167450D02*
X226800D01*
Y164943D01*
X230194D01*
Y167450D01*
D02*
G37*
G36*
X304574Y62764D02*
X301909D01*
Y57539D01*
X304574D01*
Y62764D01*
D02*
G37*
G36*
X300909D02*
X298243D01*
Y57539D01*
X300909D01*
Y62764D01*
D02*
G37*
G36*
X304574Y56539D02*
X301909D01*
Y51315D01*
X304574D01*
Y56539D01*
D02*
G37*
G36*
X300909D02*
X298243D01*
Y51315D01*
X300909D01*
Y56539D01*
D02*
G37*
G36*
X287283Y60110D02*
X281559D01*
Y57010D01*
X287283D01*
Y60110D01*
D02*
G37*
%LPD*%
D10*
X293737Y178800D02*
D03*
X285863D02*
D03*
Y160600D02*
D03*
X293737D02*
D03*
X157166Y281741D02*
D03*
X165040D02*
D03*
X157166Y290394D02*
D03*
X165040D02*
D03*
X131826Y281741D02*
D03*
X123952D02*
D03*
X131826Y290394D02*
D03*
X123952D02*
D03*
X157166Y299047D02*
D03*
X165040D02*
D03*
Y307700D02*
D03*
X157166D02*
D03*
X131826Y299047D02*
D03*
X123952D02*
D03*
Y307700D02*
D03*
X131826D02*
D03*
X92316Y281741D02*
D03*
X100190D02*
D03*
X92316Y290394D02*
D03*
X100190D02*
D03*
X66875Y281741D02*
D03*
X59001D02*
D03*
X66875Y290394D02*
D03*
X59001D02*
D03*
X92316Y299047D02*
D03*
X100190D02*
D03*
Y307700D02*
D03*
X92316D02*
D03*
X66875Y299047D02*
D03*
X59001D02*
D03*
Y307700D02*
D03*
X66875D02*
D03*
X116337Y182100D02*
D03*
X108463D02*
D03*
D11*
X289850Y228900D02*
D03*
X283550D02*
D03*
X199050Y265800D02*
D03*
X205350D02*
D03*
X276250Y73700D02*
D03*
X282550D02*
D03*
X336402Y129000D02*
D03*
X330102D02*
D03*
X33450Y21500D02*
D03*
X27151D02*
D03*
X327314Y72400D02*
D03*
X321015D02*
D03*
X186750Y127200D02*
D03*
X180450D02*
D03*
X213650D02*
D03*
X207350D02*
D03*
X178950Y195500D02*
D03*
X185250D02*
D03*
X159050Y139600D02*
D03*
X165350D02*
D03*
Y132200D02*
D03*
X159050D02*
D03*
D12*
X288400Y286753D02*
D03*
Y279666D02*
D03*
D13*
X298900Y286753D02*
D03*
Y280454D02*
D03*
X221800Y246150D02*
D03*
Y252450D02*
D03*
X267500Y65350D02*
D03*
Y59050D02*
D03*
X59000Y36150D02*
D03*
Y29850D02*
D03*
X357200Y168951D02*
D03*
Y175250D02*
D03*
X313200Y328550D02*
D03*
Y322250D02*
D03*
X128600Y157750D02*
D03*
Y151450D02*
D03*
X226300Y174250D02*
D03*
Y167950D02*
D03*
X184100Y217450D02*
D03*
Y211150D02*
D03*
D14*
X269143Y308700D02*
D03*
X262057D02*
D03*
X279957D02*
D03*
X287043D02*
D03*
D15*
X185300Y188000D02*
D03*
X178900D02*
D03*
D16*
X59000Y64904D02*
D03*
Y77896D02*
D03*
D17*
X340535Y165802D02*
D03*
Y172101D02*
D03*
Y178400D02*
D03*
X324000Y165802D02*
D03*
Y172101D02*
D03*
Y178400D02*
D03*
D18*
X144496Y326228D02*
D03*
X148236Y317172D02*
D03*
X140756D02*
D03*
X79646Y326228D02*
D03*
X83386Y317172D02*
D03*
X75906D02*
D03*
D19*
X284421Y66040D02*
D03*
Y58560D02*
D03*
X274579D02*
D03*
Y62300D02*
D03*
Y66040D02*
D03*
D20*
X272800Y283800D02*
D03*
D21*
X267091Y280847D02*
D03*
Y282816D02*
D03*
Y284784D02*
D03*
Y286753D02*
D03*
X278509D02*
D03*
Y284784D02*
D03*
Y282816D02*
D03*
Y280847D02*
D03*
D22*
X269847Y289509D02*
D03*
X271816D02*
D03*
X273784D02*
D03*
X275753D02*
D03*
Y278091D02*
D03*
X273784D02*
D03*
X271816D02*
D03*
X269847D02*
D03*
D23*
X191823Y256800D02*
D03*
Y251800D02*
D03*
Y246800D02*
D03*
Y241800D02*
D03*
X213177D02*
D03*
Y246800D02*
D03*
Y251800D02*
D03*
Y256800D02*
D03*
D24*
X119900Y136049D02*
D03*
X114900D02*
D03*
X109900D02*
D03*
X104900D02*
D03*
X99900D02*
D03*
X94900D02*
D03*
X89900D02*
D03*
X84900D02*
D03*
Y173151D02*
D03*
X89900D02*
D03*
X94900D02*
D03*
X99900D02*
D03*
X104900D02*
D03*
X109900D02*
D03*
X114900D02*
D03*
X119900D02*
D03*
D25*
X173509Y172164D02*
D03*
Y170195D02*
D03*
Y168227D02*
D03*
Y166258D02*
D03*
Y164290D02*
D03*
Y162321D02*
D03*
Y160353D02*
D03*
Y158384D02*
D03*
Y156416D02*
D03*
Y154447D02*
D03*
Y152479D02*
D03*
Y150510D02*
D03*
Y148542D02*
D03*
Y146573D02*
D03*
Y144605D02*
D03*
Y142636D02*
D03*
X218690D02*
D03*
Y144605D02*
D03*
Y146573D02*
D03*
Y148542D02*
D03*
Y150510D02*
D03*
Y152479D02*
D03*
Y154447D02*
D03*
Y156416D02*
D03*
Y158384D02*
D03*
Y160353D02*
D03*
Y162321D02*
D03*
Y164290D02*
D03*
Y166258D02*
D03*
Y168227D02*
D03*
Y170195D02*
D03*
Y172164D02*
D03*
D26*
X181336Y134809D02*
D03*
X183305D02*
D03*
X185273D02*
D03*
X187242D02*
D03*
X189210D02*
D03*
X191179D02*
D03*
X193147D02*
D03*
X195116D02*
D03*
X197084D02*
D03*
X199053D02*
D03*
X201021D02*
D03*
X202990D02*
D03*
X204958D02*
D03*
X206927D02*
D03*
X208895D02*
D03*
X210864D02*
D03*
Y179991D02*
D03*
X208895D02*
D03*
X206927D02*
D03*
X204958D02*
D03*
X202990D02*
D03*
X201021D02*
D03*
X199053D02*
D03*
X197084D02*
D03*
X195116D02*
D03*
X193147D02*
D03*
X191179D02*
D03*
X189210D02*
D03*
X187242D02*
D03*
X185273D02*
D03*
X183305D02*
D03*
X181336D02*
D03*
D27*
X101000Y13200D02*
D03*
D28*
Y97452D02*
D03*
D29*
X364991Y57039D02*
D03*
Y21606D02*
D03*
X301409D02*
D03*
Y57039D02*
D03*
D30*
X306842Y64913D02*
D03*
X311172D02*
D03*
X315503D02*
D03*
X319834D02*
D03*
X324165D02*
D03*
X328495D02*
D03*
X332826D02*
D03*
X337157D02*
D03*
X341487D02*
D03*
D31*
X247400Y200400D02*
D03*
X231376D02*
D03*
X247400Y205400D02*
D03*
X231376D02*
D03*
X247400Y210400D02*
D03*
X231376D02*
D03*
X247400Y215400D02*
D03*
X231376D02*
D03*
X247400Y220400D02*
D03*
X231376D02*
D03*
D32*
X268710Y301200D02*
D03*
X262490D02*
D03*
X280390D02*
D03*
X286610D02*
D03*
D33*
X203082Y75500D02*
D03*
X188318D02*
D03*
X203082Y90400D02*
D03*
X188318D02*
D03*
D34*
X333252Y198666D02*
D03*
X329472Y206934D02*
D03*
X337032D02*
D03*
X161005Y270834D02*
D03*
X164784Y262566D02*
D03*
X157225D02*
D03*
X127987Y270834D02*
D03*
X131767Y262566D02*
D03*
X124208D02*
D03*
X96154Y270834D02*
D03*
X99934Y262566D02*
D03*
X92375D02*
D03*
X63137Y270834D02*
D03*
X66916Y262566D02*
D03*
X59357D02*
D03*
D35*
X290440Y245800D02*
D03*
X282960D02*
D03*
X323940Y261300D02*
D03*
X316460D02*
D03*
Y269900D02*
D03*
X323940D02*
D03*
X336992Y145500D02*
D03*
X329512D02*
D03*
X34041Y29300D02*
D03*
X26561D02*
D03*
X27344Y303000D02*
D03*
X34825D02*
D03*
X27744Y237067D02*
D03*
X35225D02*
D03*
X27744Y171133D02*
D03*
X35225D02*
D03*
X27744Y105200D02*
D03*
X35225D02*
D03*
D36*
X252500Y295537D02*
D03*
Y287663D02*
D03*
X295800Y114563D02*
D03*
Y122437D02*
D03*
X287519Y114563D02*
D03*
Y122437D02*
D03*
X279239Y114563D02*
D03*
Y122437D02*
D03*
X264658Y114563D02*
D03*
Y122437D02*
D03*
X256378Y114563D02*
D03*
Y122437D02*
D03*
D37*
X242900Y314060D02*
D03*
Y321540D02*
D03*
X259282Y58460D02*
D03*
Y65940D02*
D03*
X250700Y66140D02*
D03*
Y58660D02*
D03*
D38*
X304200Y329140D02*
D03*
Y321660D02*
D03*
X247900Y114760D02*
D03*
Y122240D02*
D03*
X174400Y218040D02*
D03*
Y210560D02*
D03*
D39*
X198347Y295824D02*
D03*
Y292675D02*
D03*
Y289525D02*
D03*
Y286376D02*
D03*
X204253D02*
D03*
Y289525D02*
D03*
Y292675D02*
D03*
Y295824D02*
D03*
D40*
X228047Y321700D02*
D03*
X193008D02*
D03*
D41*
X238400Y283329D02*
D03*
X233400D02*
D03*
X228400D02*
D03*
X223400D02*
D03*
Y299471D02*
D03*
X228400D02*
D03*
X233400D02*
D03*
X238400D02*
D03*
D42*
X142913Y205642D02*
D03*
X107087D02*
D03*
X142913Y223358D02*
D03*
X107087D02*
D03*
D43*
X273800Y107100D02*
Y118300D01*
Y107100D02*
X277400Y103500D01*
X269663Y122437D02*
X273800Y118300D01*
X276779Y102000D02*
X300715D01*
X270400Y108379D02*
X276779Y102000D01*
X270400Y108379D02*
Y108400D01*
X277400Y103500D02*
X301336D01*
X273800Y118300D02*
X277937Y122437D01*
X264658D02*
X269663D01*
X277937D02*
X279239D01*
X242000Y108858D02*
X254829Y96029D01*
X250700Y91900D02*
X254829Y96029D01*
X250700Y66140D02*
Y91900D01*
X242000Y108858D02*
Y138700D01*
X118106Y290394D02*
X123952D01*
X114700Y293800D02*
X118106Y290394D01*
X114700Y293800D02*
Y358200D01*
X63137Y270834D02*
Y294063D01*
X59001Y298199D02*
X63137Y294063D01*
X59001Y298199D02*
Y299047D01*
X53106Y290394D02*
X59001D01*
X50100Y293400D02*
X53106Y290394D01*
X50100Y293400D02*
Y303000D01*
X252500Y276500D02*
Y287663D01*
X185273Y128676D02*
Y134809D01*
X187150Y127200D02*
Y128450D01*
X67152Y97452D02*
X101000D01*
X63600Y93900D02*
X67152Y97452D01*
X63600Y79900D02*
Y93900D01*
X59000Y98500D02*
X63600Y93900D01*
X59000Y100200D02*
X60600Y98600D01*
X63500Y39800D02*
Y76200D01*
X61700Y78000D02*
X63500Y76200D01*
X61950Y78250D02*
X63600Y79900D01*
X59000Y77896D02*
X61596D01*
X138800Y104800D02*
X149500Y115500D01*
X51100Y104800D02*
X138800D01*
X30401Y84101D02*
X51100Y104800D01*
X282550Y70550D02*
Y73700D01*
X284421Y66040D02*
Y68679D01*
X282550Y70550D02*
X284421Y68679D01*
X349000Y354800D02*
X355500Y348300D01*
Y279800D02*
Y348300D01*
X329500Y253800D02*
X355500Y279800D01*
X350897Y281897D02*
Y297575D01*
X330300Y261300D02*
X350897Y281897D01*
X323940Y261300D02*
X330300D01*
X336100Y272342D02*
Y322778D01*
X333658Y269900D02*
X336100Y272342D01*
X323940Y269900D02*
X333658D01*
X274200Y253800D02*
X329500D01*
X296300Y291600D02*
X304200Y299500D01*
X285042Y291600D02*
X296300D01*
X282600Y289158D02*
X285042Y291600D01*
X278626Y360312D02*
X287043Y351895D01*
Y308700D02*
Y351895D01*
X266634Y357534D02*
X268784D01*
X262057Y352957D02*
X266634Y357534D01*
X262057Y308700D02*
Y352957D01*
X282600Y286753D02*
Y289158D01*
X69272Y317172D02*
X75906D01*
X66875Y314775D02*
X69272Y317172D01*
X66875Y307700D02*
Y314775D01*
X92316Y307700D02*
Y314984D01*
X90128Y317172D02*
X92316Y314984D01*
X83386Y317172D02*
X90128D01*
X148236D02*
X154928D01*
X157166Y314934D01*
X134072Y317172D02*
X140756D01*
X131826Y314926D02*
X134072Y317172D01*
X183305Y134809D02*
Y138495D01*
X181400Y140400D02*
X183305Y138495D01*
X185273Y175948D02*
X188800Y172421D01*
Y172400D02*
Y172421D01*
X185273Y175948D02*
Y179991D01*
X184400Y173000D02*
Y174700D01*
X183305Y175795D02*
X184400Y174700D01*
X183305Y175795D02*
Y179991D01*
X151966Y281741D02*
X157166D01*
X151966Y268734D02*
Y281741D01*
Y268734D02*
X153800Y266900D01*
X87200Y281741D02*
X92316D01*
X87200Y267900D02*
Y281741D01*
Y267900D02*
X88700Y266400D01*
X208895Y134809D02*
Y141495D01*
X30401Y71460D02*
Y84101D01*
X282600Y266636D02*
X287936Y261300D01*
X59000Y59300D02*
Y64904D01*
X59850Y36150D02*
X63500Y39800D01*
X59000Y36150D02*
X59850D01*
X34041Y22091D02*
Y29300D01*
Y38859D01*
X30401Y42499D02*
X34041Y38859D01*
X30401Y42499D02*
Y71460D01*
X149100Y115300D02*
X149400Y115600D01*
X109900Y128300D02*
Y136049D01*
X259486Y147136D02*
X265300Y152950D01*
X225458Y148542D02*
X226864Y147136D01*
X260107Y145636D02*
X266800Y152329D01*
X224727Y146573D02*
X225664Y145636D01*
X260729Y144136D02*
X268300Y151708D01*
X223795Y144605D02*
X224264Y144136D01*
X261350Y142636D02*
X269800Y151086D01*
X287900Y44600D02*
X289500Y43000D01*
Y15600D02*
Y43000D01*
Y46200D02*
Y62000D01*
X287900Y44600D02*
X289500Y46200D01*
X276958Y44600D02*
X287900D01*
X274579Y46979D02*
X276958Y44600D01*
X274579Y46979D02*
Y58560D01*
X99900Y136049D02*
X104900D01*
X94900D02*
X99900D01*
X89900D02*
X94900D01*
X84900D02*
X89900D01*
X94900Y173151D02*
X99900D01*
X89900D02*
X94900D01*
X84900D02*
X89900D01*
X159050Y132200D02*
Y139600D01*
X185250Y188050D02*
Y195500D01*
X289500Y15600D02*
X291900Y13200D01*
X351600D01*
X287100D02*
X289500Y15600D01*
X287900Y63600D02*
X289500Y62000D01*
X280500Y63600D02*
X287900D01*
X321015Y67815D02*
Y72400D01*
X319834Y66634D02*
X321015Y67815D01*
X319834Y64913D02*
Y66634D01*
X271600Y62300D02*
X274579D01*
X268550Y65350D02*
X271600Y62300D01*
X267500Y65350D02*
X268550D01*
X210864Y130836D02*
X213050Y128650D01*
X210864Y130836D02*
Y134809D01*
X207350Y130225D02*
X208895Y131770D01*
Y134809D01*
X207350Y127200D02*
Y130225D01*
X183305Y131005D02*
Y134809D01*
X180450Y128150D02*
X183305Y131005D01*
X180450Y127200D02*
Y128150D01*
X225250Y167950D02*
X226300D01*
X223005Y170195D02*
X225250Y167950D01*
X218690Y170195D02*
X223005D01*
X183305Y179991D02*
Y184905D01*
X114900Y130621D02*
Y136049D01*
X119900Y127900D02*
Y136049D01*
X204100Y321700D02*
Y360094D01*
X213776Y314060D02*
Y360261D01*
X340897Y297575D02*
Y317575D01*
X271816Y274278D02*
Y278091D01*
X118700Y156200D02*
X120100Y157600D01*
X119950Y157750D02*
X128600D01*
X114900Y162800D02*
X119950Y157750D01*
X114900Y162800D02*
Y173151D01*
X309100Y154400D02*
X352900D01*
X286000Y177500D02*
X309100Y154400D01*
X182100Y235800D02*
X211400D01*
X178700Y239200D02*
X182100Y235800D01*
X178700Y239200D02*
Y254000D01*
X176800Y255900D02*
X178700Y254000D01*
X176800Y255900D02*
X178463Y257563D01*
X123952Y345130D02*
X139083Y360261D01*
X315000Y168321D02*
Y176600D01*
Y168321D02*
X317520Y165802D01*
X324000D01*
X294000Y178700D02*
X312900D01*
X315000Y176600D01*
X312900Y178700D02*
X315000Y180800D01*
X320566Y198666D02*
X333252D01*
X315000Y193100D02*
X320566Y198666D01*
X315000Y180800D02*
Y193100D01*
X214954Y235800D02*
X237000D01*
X213177Y237577D02*
X214954Y235800D01*
X211400D02*
X213177Y237577D01*
Y241800D01*
X183100Y246800D02*
X191823D01*
X180300Y249600D02*
X183100Y246800D01*
X180300Y249600D02*
Y264000D01*
X237000Y235800D02*
X241100Y239900D01*
X222700Y211900D02*
X223743Y212943D01*
X217037Y211900D02*
X222700D01*
X195116Y189978D02*
X217037Y211900D01*
X217659Y210400D02*
X231376D01*
X262200Y204400D02*
Y210000D01*
X258200Y200400D02*
X262200Y204400D01*
X247400Y200400D02*
X258200D01*
X273784Y278091D02*
Y282816D01*
X267091D02*
X271816D01*
X34041Y303000D02*
X50100D01*
X34041Y237067D02*
X50100D01*
X34041Y171133D02*
X50100D01*
X241100Y239900D02*
Y289300D01*
X170600Y223300D02*
X224500D01*
X168200Y220900D02*
X170600Y223300D01*
X168200Y217500D02*
Y220900D01*
X165742Y223358D02*
X168200Y220900D01*
X142913Y223358D02*
X165742D01*
X273200Y271271D02*
Y273541D01*
X268800Y271263D02*
X271816Y274278D01*
X268800Y266400D02*
Y271263D01*
X273200Y273541D02*
X275753Y276094D01*
X266800Y257200D02*
X273200Y263600D01*
X268075Y274075D02*
X269847Y275847D01*
X268034Y274075D02*
X268075D01*
X351600Y13200D02*
X354400Y16000D01*
Y152900D01*
X352900Y154400D02*
X354400Y152900D01*
Y155900D02*
Y164403D01*
X352900Y154400D02*
X354400Y155900D01*
X295300Y145500D02*
X329512D01*
X295300D02*
Y145574D01*
X293737Y147137D02*
X295300Y145574D01*
X276200Y145500D02*
X292100D01*
X293737Y147137D01*
Y160600D01*
X272900Y211100D02*
X273000Y211200D01*
X271300Y209500D02*
X272900Y211100D01*
X263700Y216700D02*
Y251200D01*
X259943Y212943D02*
X263700Y216700D01*
X223743Y212943D02*
X259943D01*
X266800Y152329D02*
Y257200D01*
X268300Y151708D02*
Y256579D01*
X269800Y151086D02*
Y255957D01*
X271300Y150400D02*
Y209500D01*
Y212900D02*
Y244200D01*
Y212900D02*
X273000Y211200D01*
X334000Y211100D02*
X337032Y208068D01*
Y206934D02*
Y208068D01*
X353002Y165802D02*
X354400Y164403D01*
X356151Y168951D02*
X357200D01*
X353002Y165802D02*
X356151Y168951D01*
X340535Y165802D02*
X353002D01*
X275134Y206934D02*
X322400D01*
X272800Y204600D02*
X275134Y206934D01*
X272800Y162700D02*
Y204600D01*
X274900Y160600D02*
X285863D01*
X272800Y162700D02*
X274900Y160600D01*
X322400Y206934D02*
X329472D01*
X346047Y118300D02*
Y123553D01*
X340600Y129000D02*
X346047Y123553D01*
X336402Y129000D02*
X340600D01*
X271300Y150400D02*
X276200Y145500D01*
X271300Y244200D02*
X272900Y245800D01*
X271300Y247400D02*
Y255336D01*
Y247400D02*
X272900Y245800D01*
X282960D01*
X261100Y253800D02*
X263700Y251200D01*
X271300Y255336D02*
X282600Y266636D01*
X269800Y255957D02*
X279900Y266057D01*
X268300Y256579D02*
X276700Y264979D01*
X287936Y261300D02*
X316460D01*
X289850Y235850D02*
X292600Y238600D01*
X289850Y231010D02*
Y235850D01*
X290440Y240760D02*
Y245800D01*
X341456Y238700D02*
X349000Y231156D01*
X292500Y238700D02*
X341456D01*
X288400Y286753D02*
X298900D01*
X282600D02*
X288400D01*
X278509Y284784D02*
Y286753D01*
X269847Y275847D02*
Y278091D01*
X276700Y270379D02*
Y273400D01*
X279900Y271457D02*
Y276400D01*
X275753Y276094D02*
Y278091D01*
X261753Y280847D02*
X267091D01*
X258400Y284784D02*
X267091D01*
X323340Y329140D02*
X349000Y354800D01*
X259600Y196800D02*
X261300Y198500D01*
X217500Y196800D02*
X259600D01*
X259000Y193600D02*
X261100Y191500D01*
X236800Y193600D02*
X259000D01*
X235900Y195200D02*
X262300D01*
X262100Y141200D02*
X271300Y150400D01*
X216300Y175600D02*
X235900Y195200D01*
X278060Y66040D02*
X280500Y63600D01*
X274579Y66040D02*
X278060D01*
X217300Y174100D02*
X236800Y193600D01*
X239700Y141000D02*
X242000Y138700D01*
X203000Y192100D02*
X207700Y196800D01*
X195116Y179991D02*
Y189978D01*
X208895Y194195D02*
X222100Y207400D01*
X210864Y179991D02*
Y193964D01*
X221725Y204825D01*
X208895Y179991D02*
Y194195D01*
X182200Y265800D02*
X199050D01*
X180400Y267600D02*
X182200Y265800D01*
X180300Y264000D02*
X182100Y265800D01*
X174400Y205700D02*
X178950Y201150D01*
X174400Y205700D02*
Y210560D01*
X218690Y152425D02*
Y152479D01*
X222147Y154447D02*
X222700Y155000D01*
X218690Y154447D02*
X222147D01*
X238400Y275800D02*
Y283329D01*
X233400Y275800D02*
Y283329D01*
X228400Y275800D02*
Y283329D01*
X223400Y275800D02*
Y283329D01*
X233400Y299471D02*
X238400D01*
X228400D02*
X233400D01*
X223400D02*
X228400D01*
X204253Y286376D02*
X221253D01*
X204253Y289525D02*
X223514D01*
X204253Y292675D02*
X225365D01*
X204253Y295824D02*
X227215D01*
X223639Y289400D02*
X228300Y284739D01*
X221329Y286300D02*
X223300Y284329D01*
X225439Y292600D02*
X233300Y284739D01*
X238300Y284329D02*
Y284739D01*
X227239Y295800D02*
X238300Y284739D01*
X228300Y284329D02*
Y284739D01*
X193008Y321700D02*
X204100D01*
Y251900D02*
X213077D01*
X213177Y251800D01*
X206700Y246600D02*
X212977D01*
X213177Y246800D01*
X217050Y241800D02*
X221300Y246050D01*
X213177Y241800D02*
X217050D01*
X192123Y256500D02*
X198600D01*
X191823Y241800D02*
X203900D01*
X222600Y200400D02*
X231376D01*
X211500Y165600D02*
X211690Y165790D01*
X215273Y168227D02*
X218690D01*
X214100Y169400D02*
X215273Y168227D01*
X212900Y169400D02*
X214100D01*
X329512Y144888D02*
Y145500D01*
X336402Y129000D02*
Y144909D01*
X291000Y69180D02*
Y92400D01*
X287400Y96000D02*
X291000Y92400D01*
X255029Y96000D02*
X287400D01*
X287860Y66040D02*
X291000Y69180D01*
X287860Y66040D02*
X291000Y62900D01*
X284421Y66040D02*
X287860D01*
X148400Y129700D02*
X150700Y127400D01*
X165350Y132200D02*
Y139600D01*
Y143850D01*
X170105Y144605D02*
X173509D01*
X165350Y143850D02*
X170042Y148542D01*
X173509D01*
X193147Y131564D02*
X195200Y129511D01*
X191179Y131411D02*
X193500Y129090D01*
X149400Y115600D02*
X149500Y115500D01*
X203600Y139800D02*
X206200D01*
X204958Y131258D02*
Y134809D01*
X199025Y134782D02*
X199053Y134809D01*
X199700Y139800D02*
X201021Y138479D01*
Y134809D02*
Y138479D01*
X197700Y139800D02*
X199700D01*
X195116Y134809D02*
Y137984D01*
X193600Y139500D02*
X195116Y137984D01*
X209500Y62300D02*
X254600D01*
X203082Y68718D02*
X209500Y62300D01*
X203082Y68718D02*
Y75500D01*
X287519Y108400D02*
Y114563D01*
Y122437D02*
X295800D01*
X279239D02*
X287519D01*
X254600Y62300D02*
X258240Y65940D01*
X259282D01*
X247200Y60800D02*
X249340Y58660D01*
X250700D01*
X259182Y58460D02*
X259282D01*
X200425Y104975D02*
X200500Y104900D01*
X189210Y131258D02*
X191525Y128943D01*
X193147Y131564D02*
Y134809D01*
X248200Y108400D02*
X259100Y97500D01*
X296637Y114563D02*
X341487Y69713D01*
X302579Y106500D02*
X337157Y71922D01*
X289800Y106500D02*
X302579D01*
X301957Y105000D02*
X332826Y74131D01*
X282619Y105000D02*
X301957D01*
X301336Y103500D02*
X327300Y77536D01*
X300715Y102000D02*
X324165Y78550D01*
X300093Y100500D02*
X315503Y85090D01*
X273000Y100500D02*
X300093D01*
X299472Y99000D02*
X311172Y87300D01*
X265878Y99000D02*
X299472D01*
X298851Y97500D02*
X306842Y89509D01*
X259100Y97500D02*
X298851D01*
X279239Y108400D02*
X282619Y105019D01*
X288800Y107500D02*
X289800Y106500D01*
X279239Y108400D02*
Y114563D01*
X264658Y108842D02*
Y114563D01*
X247900Y108700D02*
Y114760D01*
X279239Y114563D02*
X280137D01*
X256378D02*
X257237D01*
X295800D02*
X296637D01*
X287519D02*
X288437D01*
X306842Y64913D02*
Y89509D01*
X311172Y64913D02*
Y87300D01*
X315503Y64913D02*
Y85090D01*
X324165Y64913D02*
Y78550D01*
X332826Y64913D02*
Y74131D01*
X337157Y64913D02*
Y71922D01*
X341487Y64913D02*
Y69713D01*
X328495Y64913D02*
Y67058D01*
X327300Y68253D02*
X328495Y67058D01*
X189210Y131258D02*
Y134809D01*
X191179Y131411D02*
Y134809D01*
X218690Y172164D02*
X223264D01*
X225350Y174250D01*
X226300D01*
X274579Y62300D02*
X276100D01*
X222100Y215400D02*
X231376D01*
X26561Y303000D02*
Y339290D01*
Y237067D02*
Y273345D01*
Y171133D02*
Y207400D01*
Y105200D02*
Y141455D01*
X228047Y321700D02*
X242740D01*
X213776Y314060D02*
X242900D01*
X107087Y223358D02*
X142913D01*
X114900Y173151D02*
Y176100D01*
X116337Y177537D01*
Y182100D01*
X108063Y177537D02*
X109900Y175700D01*
Y173151D02*
Y175700D01*
X180200Y184900D02*
Y185700D01*
Y184900D02*
X181336Y183764D01*
Y179991D02*
Y183764D01*
X108463Y182100D02*
Y185863D01*
X173509Y154447D02*
X173647Y154309D01*
X180800Y157500D02*
X180900Y157600D01*
X187242Y134809D02*
Y138342D01*
X188300Y139400D01*
Y139800D01*
X181336Y175364D02*
Y179991D01*
X252900Y154200D02*
Y155500D01*
X262035Y141200D02*
X262100D01*
X218690Y148542D02*
X225458D01*
X218690Y146573D02*
X224727D01*
X218690Y144605D02*
X223795D01*
X242000Y138700D02*
X244300Y141000D01*
X261835D01*
X262035Y141200D01*
X193100Y180038D02*
X193147Y179991D01*
X199071Y175100D02*
X201021Y177051D01*
X196800Y175100D02*
X199071D01*
X201021Y177051D02*
Y179991D01*
X221725Y204825D02*
X223166D01*
X223741Y205400D01*
X231376D01*
X193147Y179991D02*
Y195000D01*
X224500Y223300D02*
X227400Y220400D01*
X231376D01*
X202990Y179991D02*
Y183210D01*
X203000Y183300D02*
Y192100D01*
X256378Y108400D02*
Y108500D01*
Y114563D01*
X290440Y240760D02*
X292500Y238700D01*
X292600Y238600D01*
X185273Y134809D02*
Y140415D01*
X178700Y187200D02*
X180200Y185700D01*
X340897Y317575D02*
X350897Y327575D01*
X336100Y322778D02*
X340897Y327575D01*
X268843Y13200D02*
X287100D01*
X259282Y58460D02*
X273879D01*
X212100Y168600D02*
X212900Y169400D01*
X256378Y108500D02*
X265878Y99000D01*
X160800Y172200D02*
Y174042D01*
X304200Y329140D02*
X323340D01*
X108063Y177537D02*
Y182100D01*
X173647Y154309D02*
X173738Y154400D01*
X218690Y152425D02*
X228393D01*
X261300Y198500D02*
Y198900D01*
X196200Y174500D02*
X196800Y175100D01*
X264800Y108700D02*
X273000Y100500D01*
X213050Y127200D02*
Y128650D01*
X178950Y187850D02*
Y195500D01*
Y201150D01*
X247900Y122240D02*
X264461D01*
X327300Y68253D02*
Y77536D01*
X238400Y291800D02*
Y299471D01*
X272900Y211100D02*
X334000D01*
X199053Y179991D02*
Y191794D01*
X217659Y210400D01*
X160800Y172200D02*
X168710Y164290D01*
X173509D01*
X180800Y153600D02*
X181000Y153800D01*
X168680Y162321D02*
X173509D01*
X160800Y154358D02*
Y154441D01*
X168680Y162321D01*
X173509Y160353D02*
X177007D01*
X177922Y161268D01*
X111100Y188500D02*
X175000D01*
X108463Y185863D02*
X111100Y188500D01*
X110500Y191300D02*
X172500D01*
X104900Y185700D02*
X110500Y191300D01*
X104900Y173151D02*
Y185700D01*
X151100Y183200D02*
X168400D01*
X173509Y178091D01*
Y172164D02*
Y178091D01*
X147700Y185700D02*
X147775Y185775D01*
X153325D01*
X154400Y184700D01*
X169100D01*
X173509Y170195D02*
X176795D01*
X177700Y171100D01*
Y176100D01*
X169100Y184700D02*
X177700Y176100D01*
X172500Y185500D02*
X179700Y178300D01*
X168200Y217500D02*
X184900D01*
X179809Y134809D02*
X181336D01*
X206927Y176673D02*
Y179991D01*
Y176673D02*
X208000Y175600D01*
X216300D01*
X204958Y176342D02*
Y179991D01*
Y176342D02*
X207200Y174100D01*
X217300D01*
X218690Y150510D02*
X225611D01*
X226271Y149850D01*
X231050D01*
X218690Y142636D02*
X261350D01*
X224264Y144136D02*
X260729D01*
X225664Y145636D02*
X260107D01*
X226864Y147136D02*
X259486D01*
X231050Y149850D02*
X231600Y150400D01*
X222700Y155000D02*
X225800D01*
X218690Y162321D02*
X223037D01*
X224234Y161125D01*
X240025D01*
X245100Y166200D01*
X252100D01*
X218690Y160353D02*
X222885D01*
X223612Y159625D01*
X240575D01*
X244000Y156200D01*
X252100D01*
X206927Y134809D02*
Y139073D01*
X206200Y139800D02*
X206927Y139073D01*
X185273Y140415D02*
X188659Y143800D01*
X206600D01*
X210864Y134809D02*
Y138064D01*
X208800Y146000D02*
X213800Y141000D01*
X239700D01*
X210864Y138064D02*
X213800Y141000D01*
X206600Y143800D02*
X208800Y146000D01*
X176927Y146573D02*
X178700Y144800D01*
X173509Y146573D02*
X176927D01*
X185273Y140415D02*
Y140427D01*
X173509Y148542D02*
X177158D01*
X185273Y140427D01*
X195200Y126057D02*
Y129511D01*
X203000Y118600D02*
Y122500D01*
X200425Y104975D02*
Y122953D01*
X195200Y126057D02*
X197775Y123483D01*
X199025Y126475D02*
X203000Y122500D01*
X199025Y126475D02*
Y134782D01*
X201600Y127900D02*
X204958Y131258D01*
X197084Y126294D02*
X200425Y122953D01*
X197084Y126294D02*
Y134809D01*
X191525Y115000D02*
Y128943D01*
X168358Y128892D02*
Y142858D01*
X150700Y127400D02*
X166865D01*
X168358Y128892D01*
Y142858D02*
X170105Y144605D01*
X197775Y111600D02*
Y123483D01*
X193500Y125500D02*
Y129090D01*
Y125500D02*
X195200Y123800D01*
Y118000D02*
Y123800D01*
X191179Y179991D02*
Y183721D01*
X190000Y184900D02*
Y188000D01*
Y184900D02*
X191179Y183721D01*
X183305Y184905D02*
X185500Y187100D01*
X189210Y183390D01*
Y179991D02*
Y183390D01*
X187242Y176358D02*
Y179991D01*
X212000Y161900D02*
X213125Y163025D01*
X213166D01*
X214431Y164290D01*
X218690D01*
X211300Y157300D02*
X212500D01*
X213584Y158384D01*
X218690D01*
X214916Y156416D02*
X218690D01*
X212100Y153600D02*
X214916Y156416D01*
X211690Y165790D02*
X214490D01*
X214958Y166258D01*
X218690D01*
X173509Y154447D02*
X177353D01*
X178200Y153600D01*
X180800D01*
X173509Y152479D02*
X177200D01*
X177579Y152100D01*
X178800D01*
X181000Y149900D01*
X173509Y156416D02*
X178116D01*
X179200Y157500D01*
X180800D01*
X173509Y158384D02*
X177963D01*
X180879Y161300D01*
X179700Y164800D02*
Y178300D01*
X180879Y161300D02*
X181000D01*
X177922Y161268D02*
Y163022D01*
X179700Y164800D01*
X163599Y145600D02*
X165350Y143850D01*
X118700Y147500D02*
Y156200D01*
Y147500D02*
X120600Y145600D01*
X163599D01*
X99900Y133300D02*
Y136049D01*
X187242Y176358D02*
X188600Y175000D01*
X191400D01*
X208800Y146000D02*
Y169900D01*
X211064Y172164D01*
X218690D01*
X181336Y172264D02*
Y175364D01*
Y172264D02*
X183800Y169800D01*
X208800D01*
X66875Y290394D02*
Y299047D01*
Y307700D01*
X59001D02*
Y339579D01*
X79685Y360262D01*
X59001Y281741D02*
Y290394D01*
X92316Y299047D02*
Y307700D01*
X96154Y270834D02*
Y293854D01*
X100190Y297890D01*
Y299047D01*
X88700Y266400D02*
X97200D01*
X99934Y263666D01*
Y262566D02*
Y263666D01*
X83400Y290394D02*
X92316D01*
X100190Y281741D02*
Y290394D01*
X66875Y281741D02*
X71842D01*
X73700Y283600D01*
Y293500D01*
X66916Y262566D02*
X81366D01*
X83400Y264600D02*
Y290394D01*
X81366Y262566D02*
X83400Y264600D01*
X100190Y281741D02*
X109659D01*
X112900Y278500D01*
X56800Y255900D02*
X59350Y258450D01*
X62000Y255800D02*
X89500D01*
X59357Y258457D02*
Y262566D01*
X59350Y258450D02*
X62000Y255800D01*
X89500D02*
X92375Y258675D01*
Y262566D01*
Y258675D02*
X95250Y255800D01*
X110200D01*
X112900Y258500D01*
Y278500D01*
Y258500D02*
X115600Y255800D01*
X123952Y307700D02*
Y345130D01*
X148925Y360261D02*
X165040Y344145D01*
Y307700D02*
Y344145D01*
X131826Y307700D02*
Y314926D01*
X157166Y307700D02*
Y314934D01*
X131826Y290394D02*
Y299047D01*
Y307700D01*
X123952Y299047D02*
X127800Y295199D01*
Y271021D02*
Y295199D01*
Y271021D02*
X127987Y270834D01*
X123952Y281741D02*
Y290394D01*
X100190Y307700D02*
Y349389D01*
X89528Y360051D02*
Y360262D01*
Y360051D02*
X100190Y349389D01*
X157166Y299047D02*
Y307700D01*
X165040Y281741D02*
Y290394D01*
Y281741D02*
X176022D01*
X178463Y279300D01*
Y257563D02*
Y279300D01*
X161005Y270834D02*
Y293850D01*
X164130Y297030D02*
X165040D01*
X159900Y294900D02*
X160950Y293850D01*
X164130Y297030D01*
X131826Y281741D02*
X138341D01*
X140100Y283500D01*
X161300Y266900D02*
X164784Y263416D01*
Y262566D02*
Y263416D01*
X153800Y266900D02*
X161300D01*
X115600Y255800D02*
X121400D01*
X124200Y258600D01*
X124208Y258608D02*
Y262566D01*
X124200Y258600D02*
X127000Y255800D01*
X154600D01*
X157250Y258450D02*
X159900Y255800D01*
X176700D01*
X157225Y258475D02*
Y262566D01*
X154600Y255800D02*
X157250Y258450D01*
X148166Y290394D02*
X157166D01*
X131767Y262566D02*
X145566D01*
X148166Y265166D01*
Y290394D01*
X73700Y293500D02*
X75100Y294900D01*
X95109D01*
X96154Y293854D01*
X140100Y283500D02*
Y293300D01*
X141700Y294900D01*
X159900D01*
X99370Y360262D02*
X112638D01*
X114700Y358200D01*
X158768Y360261D02*
X178139D01*
X180400Y358000D01*
Y267600D02*
Y358000D01*
X238500Y291900D02*
X241100Y289300D01*
X265300Y152950D02*
Y271341D01*
X268034Y274075D01*
X273200Y263600D02*
Y271271D01*
X276700Y264979D02*
Y270379D01*
X279900Y266057D02*
Y271457D01*
X282600Y266636D02*
Y286300D01*
X262057Y301633D02*
Y308700D01*
X268710Y300390D02*
Y301200D01*
Y300390D02*
X273784Y295316D01*
Y289509D02*
Y295316D01*
X275753Y289509D02*
Y295353D01*
X280390Y299990D01*
Y301200D01*
X287043Y301633D02*
Y308700D01*
X304200Y299500D02*
Y321660D01*
Y299500D02*
X306125Y297575D01*
X330897D01*
X278509Y286753D02*
X282600D01*
X241100Y289300D02*
X247337Y295537D01*
X251500D01*
X252500Y276500D02*
X254800Y274200D01*
X259800D01*
X31400Y98300D02*
Y252700D01*
X34600Y255900D01*
X56800D01*
X26400Y29300D02*
Y92700D01*
X31400Y97700D01*
X177300Y132300D02*
X179809Y134809D01*
X165300Y110400D02*
X174400D01*
X177300Y113300D01*
Y132300D01*
X155300Y110400D02*
X170000Y125100D01*
X169800Y119000D02*
Y121900D01*
X171600Y123700D01*
X170000Y125100D02*
Y134800D01*
X173509Y138309D01*
Y142636D01*
X171600Y123700D02*
Y134279D01*
X178700Y141379D01*
Y144800D01*
X247400Y205400D02*
Y210400D01*
X119900Y127900D02*
X125400Y122400D01*
X154700D01*
X114900Y130621D02*
X124721Y120800D01*
X150200D01*
X152100Y118900D01*
X34041Y105200D02*
X34900D01*
X45000Y115300D01*
X131300D01*
X201300Y60800D02*
X247200D01*
X196100Y66000D02*
X201300Y60800D01*
X196100Y66000D02*
Y88400D01*
X198100Y90400D01*
X203082D01*
X291000Y50400D02*
Y62900D01*
Y50400D02*
X292900Y48500D01*
X326900D01*
X328495Y50095D01*
Y64913D01*
D44*
X59000Y108500D02*
D03*
D45*
Y98500D02*
D03*
Y88500D02*
D03*
D46*
X278626Y360312D02*
D03*
X203933Y360261D02*
D03*
X213776D02*
D03*
X223618D02*
D03*
X268843Y13100D02*
D03*
X166642D02*
D03*
X176485D02*
D03*
X186328D02*
D03*
X196170D02*
D03*
X206013D02*
D03*
X215855D02*
D03*
X139083Y360261D02*
D03*
X148925D02*
D03*
X158768D02*
D03*
D47*
X268784Y360312D02*
D03*
X194091Y360261D02*
D03*
X259000Y13100D02*
D03*
X156800D02*
D03*
X129240Y360261D02*
D03*
D48*
X60000Y360262D02*
D03*
X69842D02*
D03*
X79685D02*
D03*
X89528D02*
D03*
X99370D02*
D03*
D49*
X345818Y19953D02*
D03*
X319834D02*
D03*
D50*
X252100Y166200D02*
D03*
X165300Y110400D02*
D03*
D51*
X252100Y156200D02*
D03*
D52*
X155300Y110400D02*
D03*
D53*
X26561Y339290D02*
D03*
X26412Y273345D02*
D03*
X27212Y207400D02*
D03*
X27112Y141455D02*
D03*
D54*
X36403Y339290D02*
D03*
X36254Y273345D02*
D03*
X37054Y207400D02*
D03*
X36954Y141455D02*
D03*
D55*
X349000Y231156D02*
D03*
X333252D02*
D03*
X317504D02*
D03*
X349000Y354800D02*
D03*
X333252D02*
D03*
X317504D02*
D03*
D56*
X303724Y223282D02*
D03*
X362779Y247692D02*
D03*
X303724Y346926D02*
D03*
X362779Y371335D02*
D03*
D57*
X360897Y327575D02*
D03*
X350897D02*
D03*
X340897D02*
D03*
X330897D02*
D03*
X360897Y297575D02*
D03*
X350897D02*
D03*
X340897D02*
D03*
X330897D02*
D03*
D58*
X320457Y100584D02*
D03*
X346047D02*
D03*
X320457Y118300D02*
D03*
D59*
X346047D02*
D03*
D60*
X20401Y71460D02*
D03*
D61*
X30401D02*
D03*
X40401D02*
D03*
D62*
X160900Y173343D02*
D03*
Y163500D02*
D03*
Y153657D02*
D03*
D63*
X274177Y355780D02*
D03*
X278455Y353961D02*
D03*
X282356Y351431D02*
D03*
X283401Y346900D02*
D03*
Y342250D02*
D03*
Y337601D02*
D03*
Y332951D02*
D03*
Y328302D02*
D03*
Y323652D02*
D03*
Y319002D02*
D03*
Y314353D02*
D03*
X286942Y295303D02*
D03*
X291337Y296821D02*
D03*
X291778Y301449D02*
D03*
X292408Y306056D02*
D03*
Y310706D02*
D03*
X290686Y315024D02*
D03*
Y319674D02*
D03*
Y324324D02*
D03*
Y328973D02*
D03*
Y333623D02*
D03*
Y338273D02*
D03*
Y342922D02*
D03*
Y347572D02*
D03*
X290659Y352221D02*
D03*
X288032Y356058D02*
D03*
X284926Y359517D02*
D03*
X283781Y364024D02*
D03*
X279879Y366551D02*
D03*
X131400Y108700D02*
D03*
X265200Y366617D02*
D03*
X262434Y362880D02*
D03*
X262186Y358237D02*
D03*
X258980Y354870D02*
D03*
X258414Y350254D02*
D03*
Y345605D02*
D03*
Y340955D02*
D03*
Y336306D02*
D03*
Y331656D02*
D03*
Y327006D02*
D03*
Y322357D02*
D03*
Y317707D02*
D03*
X257195Y313220D02*
D03*
X256692Y308598D02*
D03*
X257322Y303991D02*
D03*
Y299342D02*
D03*
X259771Y295389D02*
D03*
X265699Y316971D02*
D03*
Y321620D02*
D03*
Y326270D02*
D03*
Y330920D02*
D03*
Y335569D02*
D03*
Y340219D02*
D03*
Y344868D02*
D03*
Y349518D02*
D03*
X267877Y353626D02*
D03*
X272834Y366556D02*
D03*
X219900Y187400D02*
D03*
X59000Y59300D02*
D03*
X131300Y115300D02*
D03*
X109900Y128300D02*
D03*
X324000Y185400D02*
D03*
X298300Y189800D02*
D03*
Y200800D02*
D03*
X274550Y308700D02*
D03*
X259800Y265400D02*
D03*
X153300Y326228D02*
D03*
X88500D02*
D03*
X225100Y226500D02*
D03*
X202100Y246600D02*
D03*
X257300Y208000D02*
D03*
Y220400D02*
D03*
X238000Y109500D02*
D03*
X125000Y193900D02*
D03*
X132500Y48600D02*
D03*
X94900Y165800D02*
D03*
X122000Y151200D02*
D03*
X216200Y48600D02*
D03*
X279500Y47600D02*
D03*
X271300Y73500D02*
D03*
X315503Y57039D02*
D03*
X225400Y163700D02*
D03*
X156459Y157026D02*
D03*
X155460Y152485D02*
D03*
X158232Y148751D02*
D03*
X162869Y148406D02*
D03*
X166155Y151696D02*
D03*
X155939Y175900D02*
D03*
X155707Y171256D02*
D03*
X159082Y168058D02*
D03*
X165123Y176990D02*
D03*
X160900Y178935D02*
D03*
X203000Y162700D02*
D03*
Y153700D02*
D03*
X205250Y149200D02*
D03*
X200750Y167200D02*
D03*
X198500Y162700D02*
D03*
X200750Y158200D02*
D03*
X198500Y153700D02*
D03*
X200750Y149200D02*
D03*
X196250Y167200D02*
D03*
X194000Y162700D02*
D03*
X196250Y158200D02*
D03*
X194000Y153700D02*
D03*
X196250Y149200D02*
D03*
X191750Y158200D02*
D03*
X189500Y153700D02*
D03*
X191750Y149200D02*
D03*
X187250D02*
D03*
X50100Y171133D02*
D03*
Y237067D02*
D03*
Y303000D02*
D03*
X238500Y291900D02*
D03*
X259800Y274200D02*
D03*
X268800Y266400D02*
D03*
X273200Y271271D02*
D03*
X262200Y211200D02*
D03*
X273000D02*
D03*
X322400Y206934D02*
D03*
X261100Y253800D02*
D03*
X274200D02*
D03*
X282600Y286753D02*
D03*
X279900Y276400D02*
D03*
X276700Y273400D02*
D03*
X258400Y284784D02*
D03*
X261500Y280800D02*
D03*
X261100Y198900D02*
D03*
Y191500D02*
D03*
X262300Y195200D02*
D03*
X217500Y196800D02*
D03*
X207700D02*
D03*
X238400Y275800D02*
D03*
X233400D02*
D03*
X228400D02*
D03*
X223400D02*
D03*
X213776Y314060D02*
D03*
X204100Y321700D02*
D03*
Y251900D02*
D03*
X206700Y246600D02*
D03*
X203900Y241800D02*
D03*
X198600Y256500D02*
D03*
X212100Y161900D02*
D03*
Y165600D02*
D03*
Y169300D02*
D03*
X154700Y122400D02*
D03*
X152100Y118900D02*
D03*
X149500Y115500D02*
D03*
X203600Y139800D02*
D03*
X193600D02*
D03*
X197700D02*
D03*
X197775Y111600D02*
D03*
X200500Y104900D02*
D03*
X270400Y108400D02*
D03*
X287519D02*
D03*
X264658D02*
D03*
X256378D02*
D03*
X247900D02*
D03*
X279239D02*
D03*
X222100Y215400D02*
D03*
X168200Y217500D02*
D03*
X188300Y139800D02*
D03*
X148400Y129700D02*
D03*
X212100Y157300D02*
D03*
Y153600D02*
D03*
X190000Y188000D02*
D03*
X196800Y175000D02*
D03*
X222100Y207400D02*
D03*
X193147Y195000D02*
D03*
X131400Y98900D02*
D03*
X189500Y162700D02*
D03*
X187250Y158200D02*
D03*
X181000Y149900D02*
D03*
X185000Y153700D02*
D03*
X182200Y203200D02*
D03*
X191750Y167200D02*
D03*
X181000Y153800D02*
D03*
Y157600D02*
D03*
X182750Y167200D02*
D03*
X185000Y162700D02*
D03*
X151100Y183200D02*
D03*
X147700Y185700D02*
D03*
X175000Y188500D02*
D03*
X172500Y191300D02*
D03*
Y185500D02*
D03*
X231600Y150400D02*
D03*
X228447Y152479D02*
D03*
X222100Y200400D02*
D03*
X225800Y155000D02*
D03*
X208900Y141500D02*
D03*
X181400Y140400D02*
D03*
X203000Y118600D02*
D03*
X201600Y127900D02*
D03*
X191525Y115000D02*
D03*
X169800Y119000D02*
D03*
X195200Y118000D02*
D03*
X184400Y173000D02*
D03*
X179700Y164800D02*
D03*
X181000Y161300D02*
D03*
X154000Y142900D02*
D03*
X94900Y143400D02*
D03*
X188800Y172400D02*
D03*
X187250Y167200D02*
D03*
X191400Y175000D02*
D03*
X83400Y290394D02*
D03*
X87200Y281741D02*
D03*
X151966D02*
D03*
X148166Y290394D02*
D03*
X272800Y283800D02*
D03*
X265600Y296000D02*
D03*
X283500D02*
D03*
X274550Y301200D02*
D03*
X31400Y97700D02*
D03*
M02*
