G04 Layer_Color=16711935*
%FSLAX25Y25*%
%MOIN*%
G70*
G01*
G75*
%ADD97C,0.09068*%
%ADD98C,0.06312*%
%ADD99C,0.00800*%
%ADD100R,0.06706X0.06706*%
%ADD101C,0.06706*%
%ADD102C,0.05591*%
%ADD103R,0.07296X0.07296*%
%ADD104C,0.07296*%
%ADD105C,0.07887*%
%ADD106C,0.02670*%
%ADD107R,0.07591X0.07591*%
%ADD108C,0.07591*%
%ADD109R,0.07591X0.07591*%
%ADD110R,0.06375X0.06375*%
%ADD111C,0.06375*%
%ADD112C,0.05918*%
%ADD113R,0.05918X0.05918*%
%ADD114C,0.05725*%
D97*
X362779Y247692D02*
D03*
X303724Y223282D02*
D03*
Y346926D02*
D03*
X362779Y371335D02*
D03*
D98*
X317504Y231156D02*
D03*
X333252D02*
D03*
X349000D02*
D03*
Y354800D02*
D03*
X333252D02*
D03*
X317504D02*
D03*
D99*
X10000Y10000D02*
D03*
Y369841D02*
D03*
X361281Y265000D02*
D03*
Y125000D02*
D03*
D100*
X346047Y118300D02*
D03*
D101*
X320457D02*
D03*
X346047Y100584D02*
D03*
X320457D02*
D03*
D102*
X330897Y297575D02*
D03*
X340897D02*
D03*
X350897D02*
D03*
X360897D02*
D03*
X330897Y327575D02*
D03*
X340897D02*
D03*
X350897D02*
D03*
X360897D02*
D03*
D103*
X268784Y360312D02*
D03*
X194091Y360261D02*
D03*
X259000Y13100D02*
D03*
X156800D02*
D03*
X129240Y360261D02*
D03*
D104*
X278626Y360312D02*
D03*
X223618Y360261D02*
D03*
X213776D02*
D03*
X203933D02*
D03*
X268843Y13100D02*
D03*
X215855D02*
D03*
X206013D02*
D03*
X196170D02*
D03*
X186328D02*
D03*
X176485D02*
D03*
X166642D02*
D03*
X158768Y360261D02*
D03*
X148925D02*
D03*
X139083D02*
D03*
D105*
X99370Y360262D02*
D03*
X89528D02*
D03*
X79685D02*
D03*
X69842D02*
D03*
X60000D02*
D03*
D106*
X319834Y19953D02*
D03*
X345818D02*
D03*
D107*
X252100Y156200D02*
D03*
D108*
Y166200D02*
D03*
X165300Y110400D02*
D03*
D109*
X155300D02*
D03*
D110*
X26561Y339290D02*
D03*
Y273345D02*
D03*
Y207400D02*
D03*
Y141455D02*
D03*
D111*
X36403Y339290D02*
D03*
Y273345D02*
D03*
Y207400D02*
D03*
Y141455D02*
D03*
D112*
X40401Y71460D02*
D03*
X30401D02*
D03*
D113*
X20401D02*
D03*
D114*
X160900Y153657D02*
D03*
Y163500D02*
D03*
Y173343D02*
D03*
M02*
