G04 Layer_Color=32896*
%FSLAX25Y25*%
%MOIN*%
G70*
G01*
G75*
%ADD61C,0.00787*%
%ADD62C,0.00394*%
%ADD64C,0.00800*%
G36*
X357249Y207300D02*
X309255D01*
Y220602D01*
X357249D01*
Y207300D01*
D02*
G37*
G36*
Y338395D02*
Y331400D01*
X309255D01*
Y338395D01*
Y344702D01*
X357249D01*
Y338395D01*
D02*
G37*
G36*
X363951Y89257D02*
Y84328D01*
Y77400D01*
X302553D01*
Y84328D01*
Y89257D01*
Y95490D01*
X363951D01*
Y89257D01*
D02*
G37*
G36*
X149300Y39037D02*
Y29560D01*
Y12300D01*
X22591D01*
Y29560D01*
Y39037D01*
Y55119D01*
X149300D01*
Y39037D01*
D02*
G37*
%LPC*%
G36*
X331602Y216034D02*
X326629D01*
Y214983D01*
X328457D01*
Y211927D01*
X329774D01*
Y214983D01*
X331602D01*
Y216034D01*
D02*
G37*
G36*
X326340D02*
X321789D01*
Y215065D01*
X325105D01*
Y214480D01*
X321959D01*
Y213577D01*
X325105D01*
Y212911D01*
X321767D01*
Y211927D01*
X326340D01*
Y216034D01*
D02*
G37*
G36*
X337211D02*
X335960D01*
Y214147D01*
Y214140D01*
Y214117D01*
Y214088D01*
Y214043D01*
Y213992D01*
X335953Y213932D01*
Y213799D01*
X335946Y213659D01*
X335938Y213525D01*
X335931Y213459D01*
Y213407D01*
X335923Y213355D01*
X335916Y213318D01*
Y213311D01*
X335901Y213281D01*
X335886Y213237D01*
X335864Y213192D01*
X335820Y213141D01*
X335768Y213089D01*
X335701Y213044D01*
X335613Y213007D01*
X335598D01*
X335583Y213000D01*
X335561Y212993D01*
X335524D01*
X335487Y212985D01*
X335435Y212978D01*
X335376Y212970D01*
X335309Y212963D01*
X335235Y212956D01*
X335146Y212948D01*
X335050D01*
X334939Y212941D01*
X334813Y212933D01*
X334317D01*
X334184Y212941D01*
X334036D01*
X333881Y212948D01*
X333748Y212956D01*
X333688Y212963D01*
X333637Y212970D01*
X333622D01*
X333592Y212978D01*
X333548Y212985D01*
X333496Y213000D01*
X333378Y213052D01*
X333326Y213081D01*
X333282Y213118D01*
X333267Y213133D01*
X333244Y213170D01*
X333208Y213229D01*
X333185Y213303D01*
Y213311D01*
X333178Y213326D01*
Y213355D01*
X333171Y213400D01*
X333163Y213451D01*
X333156Y213518D01*
X333148Y213592D01*
X333141Y213688D01*
Y213703D01*
X333134Y213733D01*
Y213784D01*
X333126Y213851D01*
Y213925D01*
X333119Y213999D01*
Y214073D01*
Y214147D01*
Y216034D01*
X331868D01*
Y214147D01*
Y214140D01*
Y214103D01*
Y214051D01*
X331876Y213992D01*
Y213910D01*
Y213821D01*
X331883Y213725D01*
Y213614D01*
X331890Y213400D01*
X331905Y213192D01*
X331913Y213089D01*
X331920Y213000D01*
X331927Y212926D01*
X331935Y212859D01*
Y212852D01*
X331942Y212837D01*
Y212808D01*
X331949Y212778D01*
X331964Y212734D01*
X331979Y212682D01*
X332024Y212571D01*
X332090Y212445D01*
X332172Y212319D01*
X332290Y212201D01*
X332357Y212149D01*
X332431Y212097D01*
X332438Y212090D01*
X332475Y212075D01*
X332527Y212053D01*
X332601Y212023D01*
X332697Y211994D01*
X332815Y211964D01*
X332948Y211942D01*
X333104Y211920D01*
X333126D01*
X333148Y211912D01*
X333185D01*
X333237Y211905D01*
X333289D01*
X333363Y211897D01*
X333444D01*
X333533Y211890D01*
X333637Y211883D01*
X333755D01*
X333881Y211875D01*
X334021D01*
X334177Y211868D01*
X334865D01*
X334946Y211875D01*
X335132D01*
X335324Y211883D01*
X335509Y211890D01*
X335598D01*
X335679Y211897D01*
X335716D01*
X335746Y211905D01*
X335820Y211912D01*
X335916Y211920D01*
X336027Y211934D01*
X336138Y211949D01*
X336256Y211964D01*
X336375Y211986D01*
X336382D01*
X336404Y211994D01*
X336434Y212008D01*
X336478Y212023D01*
X336530Y212045D01*
X336589Y212068D01*
X336649Y212105D01*
X336715Y212142D01*
X336782Y212193D01*
X336848Y212253D01*
X336915Y212312D01*
X336974Y212386D01*
X337033Y212475D01*
X337078Y212563D01*
X337115Y212667D01*
X337144Y212785D01*
Y212793D01*
X337152Y212822D01*
X337159Y212874D01*
X337167Y212926D01*
X337181Y212993D01*
X337189Y213067D01*
X337204Y213222D01*
Y213229D01*
Y213266D01*
Y213289D01*
Y213326D01*
Y213363D01*
Y213414D01*
X337211Y213466D01*
Y213533D01*
Y213614D01*
Y213696D01*
Y213792D01*
Y213903D01*
Y214014D01*
Y214147D01*
Y216034D01*
D02*
G37*
G36*
X344737D02*
X342472D01*
X341251Y213363D01*
X340030Y216034D01*
X337766D01*
Y211927D01*
X339002D01*
X338972Y214998D01*
X339179D01*
X340726Y211927D01*
X341769D01*
X343316Y214998D01*
X343538D01*
X343508Y211927D01*
X344737D01*
Y216034D01*
D02*
G37*
G36*
X331935Y337574D02*
X328679D01*
X328494Y337566D01*
X328205D01*
X328116Y337559D01*
X327961D01*
X327909Y337551D01*
X327828D01*
X327798Y337544D01*
X327732Y337537D01*
X327643Y337529D01*
X327547Y337507D01*
X327443Y337485D01*
X327354Y337448D01*
X327273Y337411D01*
X327265Y337403D01*
X327243Y337389D01*
X327206Y337359D01*
X327169Y337322D01*
X327125Y337278D01*
X327080Y337218D01*
X327043Y337152D01*
X327006Y337078D01*
X326999Y337070D01*
X326992Y337041D01*
X326977Y336996D01*
X326962Y336930D01*
X326947Y336848D01*
X326940Y336745D01*
X326925Y336634D01*
Y336501D01*
Y336493D01*
Y336478D01*
Y336456D01*
Y336427D01*
X326932Y336353D01*
X326940Y336256D01*
X326955Y336145D01*
X326977Y336042D01*
X327006Y335938D01*
X327051Y335849D01*
X327058Y335842D01*
X327073Y335812D01*
X327110Y335783D01*
X327154Y335738D01*
X327214Y335687D01*
X327288Y335635D01*
X327376Y335590D01*
X327487Y335553D01*
X327473D01*
X327443Y335546D01*
X327391Y335531D01*
X327332Y335516D01*
X327199Y335472D01*
X327132Y335442D01*
X327080Y335413D01*
X327065Y335405D01*
X327036Y335368D01*
X326984Y335317D01*
X326955Y335280D01*
X326925Y335235D01*
X326903Y335183D01*
X326873Y335117D01*
X326844Y335050D01*
X326821Y334976D01*
X326807Y334887D01*
X326792Y334791D01*
X326777Y334688D01*
Y334569D01*
Y334562D01*
Y334547D01*
Y334525D01*
Y334488D01*
X326784Y334399D01*
X326799Y334288D01*
X326814Y334162D01*
X326844Y334044D01*
X326888Y333925D01*
X326940Y333822D01*
X326947Y333814D01*
X326962Y333792D01*
X326984Y333770D01*
X327014Y333733D01*
X327058Y333696D01*
X327103Y333652D01*
X327162Y333615D01*
X327228Y333585D01*
X327236D01*
X327258Y333570D01*
X327302Y333563D01*
X327354Y333548D01*
X327428Y333526D01*
X327517Y333511D01*
X327613Y333496D01*
X327732Y333481D01*
X327813D01*
X327850Y333474D01*
X328131D01*
X328227Y333467D01*
X331935D01*
Y337574D01*
D02*
G37*
G36*
X326340D02*
X325023D01*
Y334517D01*
X322100D01*
Y333467D01*
X326340D01*
Y337574D01*
D02*
G37*
G36*
X349266D02*
X344715D01*
Y336604D01*
X348030D01*
Y336020D01*
X344885D01*
Y335117D01*
X348030D01*
Y334451D01*
X344692D01*
Y333467D01*
X349266D01*
Y337574D01*
D02*
G37*
G36*
X336219D02*
X334273D01*
X332127Y333467D01*
X333548D01*
X333896Y334162D01*
X336619D01*
X336967Y333467D01*
X338388D01*
X336219Y337574D01*
D02*
G37*
G36*
X324501Y342569D02*
X323184D01*
Y341103D01*
X320365D01*
Y342569D01*
X319048D01*
Y338462D01*
X320365D01*
Y339956D01*
X323184D01*
Y338462D01*
X324501D01*
Y342569D01*
D02*
G37*
G36*
X336978D02*
X335661D01*
Y338462D01*
X336978D01*
Y342569D01*
D02*
G37*
G36*
X335372D02*
X330399D01*
Y341518D01*
X332227D01*
Y338462D01*
X333544D01*
Y341518D01*
X335372D01*
Y342569D01*
D02*
G37*
G36*
X341507D02*
X340189D01*
Y339512D01*
X337266D01*
Y338462D01*
X341507D01*
Y342569D01*
D02*
G37*
G36*
X327543Y342635D02*
X326899D01*
X326810Y342628D01*
X326625D01*
X326433Y342620D01*
X326255Y342613D01*
X326174Y342606D01*
X326100Y342598D01*
X326085D01*
X326041Y342591D01*
X325974Y342583D01*
X325893Y342569D01*
X325797Y342546D01*
X325700Y342524D01*
X325611Y342495D01*
X325523Y342458D01*
X325508Y342450D01*
X325478Y342435D01*
X325427Y342398D01*
X325367Y342361D01*
X325301Y342302D01*
X325241Y342236D01*
X325182Y342154D01*
X325131Y342065D01*
X325123Y342051D01*
X325108Y342014D01*
X325093Y341954D01*
X325071Y341873D01*
X325049Y341762D01*
X325027Y341629D01*
X325020Y341473D01*
X325012Y341296D01*
Y341288D01*
Y341281D01*
Y341266D01*
Y341237D01*
Y341200D01*
X325020Y341155D01*
Y341096D01*
X326270D01*
Y341103D01*
Y341126D01*
X326277Y341163D01*
Y341207D01*
X326285Y341296D01*
X326292Y341333D01*
X326300Y341362D01*
Y341377D01*
X326314Y341407D01*
X326337Y341444D01*
X326366Y341481D01*
X326381Y341496D01*
X326403Y341503D01*
X326440Y341518D01*
X326492Y341533D01*
X326551Y341547D01*
X326633Y341562D01*
X326736Y341577D01*
X326751D01*
X326788Y341584D01*
X326862D01*
X326951Y341592D01*
X327077Y341599D01*
X327232D01*
X327410Y341607D01*
X327935D01*
X328076Y341599D01*
X328209Y341592D01*
X328327Y341584D01*
X328386D01*
X328431Y341577D01*
X328438D01*
X328468Y341570D01*
X328505D01*
X328557Y341555D01*
X328660Y341525D01*
X328705Y341503D01*
X328749Y341473D01*
X328756Y341466D01*
X328764Y341459D01*
X328786Y341436D01*
X328808Y341399D01*
X328838Y341362D01*
X328860Y341311D01*
X328882Y341244D01*
X328904Y341170D01*
Y341163D01*
X328912Y341133D01*
X328919Y341081D01*
Y341007D01*
X328927Y340918D01*
X328934Y340800D01*
X328941Y340659D01*
Y340497D01*
Y340489D01*
Y340474D01*
Y340452D01*
Y340423D01*
Y340341D01*
X328934Y340238D01*
Y340134D01*
X328927Y340023D01*
X328919Y339919D01*
X328904Y339838D01*
Y339831D01*
X328897Y339808D01*
X328890Y339771D01*
X328875Y339734D01*
X328823Y339638D01*
X328793Y339601D01*
X328756Y339564D01*
X328749D01*
X328734Y339549D01*
X328712Y339535D01*
X328675Y339520D01*
X328631Y339505D01*
X328572Y339483D01*
X328505Y339468D01*
X328424Y339453D01*
X328379D01*
X328320Y339446D01*
X328231D01*
X328120Y339438D01*
X327979D01*
X327898Y339431D01*
X327217D01*
X327054Y339438D01*
X326899D01*
X326825Y339446D01*
X326758D01*
X326699Y339453D01*
X326640D01*
X326610Y339461D01*
X326566Y339468D01*
X326514Y339475D01*
X326411Y339505D01*
X326359Y339527D01*
X326322Y339557D01*
X326314Y339564D01*
X326307Y339579D01*
X326285Y339609D01*
X326263Y339660D01*
X326240Y339720D01*
X326226Y339808D01*
X326211Y339912D01*
X326203Y340045D01*
X324953D01*
Y340030D01*
Y339993D01*
X324945Y339942D01*
Y339882D01*
Y339816D01*
X324938Y339749D01*
Y339697D01*
Y339653D01*
Y339646D01*
Y339631D01*
Y339609D01*
Y339572D01*
X324945Y339490D01*
X324953Y339387D01*
X324975Y339261D01*
X324997Y339142D01*
X325034Y339024D01*
X325086Y338913D01*
X325093Y338898D01*
X325116Y338861D01*
X325160Y338809D01*
X325219Y338750D01*
X325301Y338676D01*
X325412Y338610D01*
X325545Y338550D01*
X325700Y338499D01*
X325708D01*
X325722Y338491D01*
X325752D01*
X325789Y338484D01*
X325841Y338476D01*
X325900Y338469D01*
X325974Y338454D01*
X326063Y338447D01*
X326166Y338439D01*
X326277Y338425D01*
X326411Y338417D01*
X326551Y338410D01*
X326707Y338402D01*
X326877D01*
X327062Y338395D01*
X327661D01*
X327780Y338402D01*
X328187D01*
X328468Y338417D01*
X328601D01*
X328727Y338425D01*
X328838Y338432D01*
X328941Y338439D01*
X328964D01*
X328986Y338447D01*
X329023D01*
X329112Y338462D01*
X329223Y338476D01*
X329341Y338499D01*
X329467Y338528D01*
X329585Y338565D01*
X329689Y338610D01*
X329696Y338617D01*
X329726Y338632D01*
X329763Y338661D01*
X329815Y338691D01*
X329866Y338743D01*
X329926Y338795D01*
X329977Y338854D01*
X330022Y338928D01*
X330029Y338935D01*
X330037Y338965D01*
X330059Y339009D01*
X330081Y339068D01*
X330103Y339150D01*
X330133Y339246D01*
X330155Y339350D01*
X330170Y339475D01*
Y339490D01*
Y339505D01*
Y339535D01*
X330177Y339564D01*
Y339601D01*
Y339653D01*
Y339705D01*
X330185Y339771D01*
Y339845D01*
Y339927D01*
Y340023D01*
X330192Y340127D01*
Y340238D01*
Y340356D01*
Y340489D01*
Y340497D01*
Y340519D01*
Y340556D01*
Y340608D01*
Y340667D01*
Y340733D01*
Y340881D01*
X330185Y341052D01*
Y341222D01*
X330177Y341385D01*
X330170Y341451D01*
Y341518D01*
Y341525D01*
Y341533D01*
X330162Y341570D01*
X330155Y341629D01*
X330148Y341695D01*
X330133Y341777D01*
X330111Y341858D01*
X330088Y341940D01*
X330066Y342006D01*
Y342014D01*
X330059Y342021D01*
X330029Y342073D01*
X329985Y342139D01*
X329911Y342221D01*
X329815Y342302D01*
X329696Y342391D01*
X329630Y342428D01*
X329548Y342458D01*
X329467Y342495D01*
X329371Y342517D01*
X329363D01*
X329341Y342524D01*
X329311Y342532D01*
X329267Y342539D01*
X329201Y342546D01*
X329119Y342554D01*
X329023Y342569D01*
X328912Y342576D01*
X328779Y342591D01*
X328623Y342598D01*
X328453Y342606D01*
X328253Y342620D01*
X328039Y342628D01*
X327802D01*
X327543Y342635D01*
D02*
G37*
G36*
X344851Y342628D02*
X344260D01*
X344171Y342620D01*
X343971D01*
X343771Y342613D01*
X343571Y342598D01*
X343475Y342591D01*
X343386Y342583D01*
X343364D01*
X343342Y342576D01*
X343312D01*
X343231Y342569D01*
X343120Y342554D01*
X343009Y342539D01*
X342883Y342517D01*
X342757Y342487D01*
X342639Y342458D01*
X342631D01*
X342617Y342450D01*
X342595Y342443D01*
X342565Y342428D01*
X342483Y342384D01*
X342387Y342324D01*
X342291Y342236D01*
X342195Y342125D01*
X342158Y342058D01*
X342121Y341991D01*
X342091Y341910D01*
X342069Y341821D01*
Y341814D01*
X342062Y341777D01*
X342054Y341725D01*
X342039Y341644D01*
X342032Y341555D01*
X342025Y341436D01*
X342017Y341303D01*
Y341155D01*
X343268D01*
Y341163D01*
Y341185D01*
Y341214D01*
X343275Y341251D01*
X343283Y341325D01*
X343290Y341355D01*
X343297Y341385D01*
Y341392D01*
X343312Y341422D01*
X343335Y341451D01*
X343364Y341488D01*
X343372D01*
X343386Y341503D01*
X343416Y341510D01*
X343460Y341525D01*
X343519Y341540D01*
X343601Y341555D01*
X343690Y341570D01*
X343808Y341577D01*
X343823D01*
X343867Y341584D01*
X343941D01*
X344045Y341592D01*
X344171D01*
X344326Y341599D01*
X344948D01*
X345088Y341592D01*
X345236D01*
X345392Y341584D01*
X345540Y341577D01*
X345599Y341570D01*
X345658Y341562D01*
X345673D01*
X345702Y341555D01*
X345747Y341547D01*
X345806Y341540D01*
X345932Y341503D01*
X345991Y341481D01*
X346035Y341451D01*
X346043D01*
X346050Y341436D01*
X346072Y341414D01*
X346095Y341385D01*
X346117Y341348D01*
X346139Y341303D01*
X346161Y341244D01*
X346176Y341177D01*
Y341170D01*
X346183Y341140D01*
Y341096D01*
X346191Y341029D01*
X346198Y340941D01*
Y340822D01*
X346206Y340689D01*
Y340526D01*
Y340519D01*
Y340504D01*
Y340474D01*
Y340445D01*
Y340349D01*
X346198Y340245D01*
Y340119D01*
X346191Y340001D01*
X346183Y339890D01*
X346176Y339801D01*
Y339794D01*
X346169Y339771D01*
X346161Y339734D01*
X346146Y339690D01*
X346102Y339601D01*
X346072Y339557D01*
X346035Y339520D01*
X346028D01*
X346013Y339505D01*
X345991Y339490D01*
X345961Y339475D01*
X345924Y339461D01*
X345880Y339438D01*
X345769Y339416D01*
X345702D01*
X345673Y339409D01*
X345517D01*
X345443Y339401D01*
X345147D01*
X345022Y339394D01*
X343927D01*
X343852Y339401D01*
X343660D01*
X343623Y339409D01*
X343586Y339416D01*
X343490Y339431D01*
X343394Y339461D01*
X343386D01*
X343379Y339468D01*
X343342Y339490D01*
X343305Y339527D01*
X343268Y339586D01*
Y339594D01*
X343260Y339601D01*
X343253Y339623D01*
X343246Y339653D01*
X343238Y339690D01*
X343231Y339734D01*
X343224Y339794D01*
Y339853D01*
Y339860D01*
Y339882D01*
Y339912D01*
X343231Y339971D01*
X344874D01*
Y340793D01*
X342017D01*
Y340785D01*
Y340778D01*
X342010Y340741D01*
X342002Y340696D01*
Y340682D01*
Y340674D01*
Y340667D01*
Y340637D01*
Y340593D01*
Y340534D01*
Y340460D01*
Y340378D01*
X342010Y340282D01*
Y340186D01*
X342017Y339971D01*
X342025Y339757D01*
X342039Y339549D01*
X342047Y339453D01*
X342054Y339364D01*
Y339357D01*
X342062Y339335D01*
Y339298D01*
X342076Y339253D01*
X342091Y339194D01*
X342113Y339135D01*
X342143Y339061D01*
X342180Y338994D01*
X342224Y338920D01*
X342284Y338846D01*
X342343Y338772D01*
X342424Y338706D01*
X342513Y338639D01*
X342617Y338587D01*
X342728Y338543D01*
X342861Y338506D01*
X342876D01*
X342913Y338499D01*
X342979Y338491D01*
X343068Y338476D01*
X343172Y338469D01*
X343297Y338454D01*
X343438Y338439D01*
X343586Y338432D01*
X343631D01*
X343660Y338425D01*
X343756D01*
X343823Y338417D01*
X343978D01*
X344067Y338410D01*
X344282D01*
X344408Y338402D01*
X345184D01*
X345295Y338410D01*
X345414D01*
X345658Y338417D01*
X345910Y338425D01*
X346028Y338432D01*
X346139Y338439D01*
X346243Y338454D01*
X346331Y338462D01*
X346354D01*
X346376Y338469D01*
X346406D01*
X346479Y338484D01*
X346583Y338506D01*
X346694Y338536D01*
X346812Y338580D01*
X346923Y338624D01*
X347027Y338684D01*
X347035Y338691D01*
X347057Y338706D01*
X347086Y338728D01*
X347123Y338765D01*
X347168Y338809D01*
X347212Y338861D01*
X347256Y338920D01*
X347293Y338987D01*
X347301Y338994D01*
X347308Y339024D01*
X347323Y339061D01*
X347345Y339120D01*
X347368Y339187D01*
X347390Y339268D01*
X347412Y339364D01*
X347427Y339468D01*
Y339483D01*
Y339498D01*
X347434Y339527D01*
Y339557D01*
Y339601D01*
X347441Y339653D01*
Y339712D01*
Y339786D01*
X347449Y339860D01*
Y339956D01*
Y340053D01*
X347456Y340171D01*
Y340289D01*
Y340430D01*
Y340578D01*
Y340585D01*
Y340600D01*
Y340630D01*
Y340674D01*
Y340719D01*
Y340770D01*
X347449Y340896D01*
Y341029D01*
X347441Y341170D01*
X347434Y341303D01*
X347427Y341422D01*
Y341436D01*
X347419Y341473D01*
X347412Y341525D01*
X347404Y341592D01*
X347390Y341673D01*
X347368Y341762D01*
X347316Y341932D01*
Y341940D01*
X347308Y341954D01*
X347293Y341977D01*
X347279Y342006D01*
X347227Y342088D01*
X347153Y342184D01*
X347108Y342236D01*
X347049Y342287D01*
X346990Y342332D01*
X346916Y342376D01*
X346842Y342421D01*
X346753Y342458D01*
X346657Y342487D01*
X346553Y342509D01*
X346546D01*
X346524Y342517D01*
X346487Y342524D01*
X346435Y342532D01*
X346368Y342539D01*
X346287Y342546D01*
X346191Y342561D01*
X346072Y342569D01*
X345947Y342583D01*
X345806Y342591D01*
X345643Y342598D01*
X345473Y342613D01*
X345281Y342620D01*
X345074D01*
X344851Y342628D01*
D02*
G37*
G36*
X344300Y337574D02*
X342110D01*
X339956Y334510D01*
X339830D01*
X339860Y337574D01*
X338580D01*
Y333467D01*
X340763D01*
X342924Y336530D01*
X343057D01*
X343027Y333467D01*
X344300D01*
Y337574D01*
D02*
G37*
G36*
X321812D02*
X317261D01*
Y336604D01*
X320576D01*
Y336020D01*
X317431D01*
Y335117D01*
X320576D01*
Y334451D01*
X317238D01*
Y333467D01*
X321812D01*
Y337574D01*
D02*
G37*
%LPD*%
G36*
X330743Y334451D02*
X328471D01*
X328427Y334458D01*
X328316D01*
X328272Y334466D01*
X328213Y334473D01*
X328153Y334488D01*
X328146D01*
X328131Y334503D01*
X328101Y334525D01*
X328072Y334554D01*
X328042Y334591D01*
X328013Y334651D01*
X327998Y334717D01*
X327991Y334806D01*
Y334821D01*
Y334850D01*
X327998Y334887D01*
X328013Y334939D01*
X328035Y334991D01*
X328072Y335043D01*
X328116Y335087D01*
X328183Y335109D01*
X328205D01*
X328242Y335117D01*
X328353D01*
X328405Y335124D01*
X328634D01*
X328731Y335132D01*
X330743D01*
Y334451D01*
D02*
G37*
G36*
Y335953D02*
X328790D01*
X328679Y335960D01*
X328560D01*
X328442Y335975D01*
X328398D01*
X328353Y335983D01*
X328316Y335990D01*
X328287Y335997D01*
X328279D01*
X328264Y336012D01*
X328242Y336027D01*
X328213Y336057D01*
X328183Y336094D01*
X328161Y336138D01*
X328146Y336205D01*
X328138Y336286D01*
Y336293D01*
Y336323D01*
X328146Y336367D01*
X328161Y336412D01*
X328183Y336464D01*
X328220Y336515D01*
X328264Y336552D01*
X328324Y336582D01*
X328346D01*
X328375Y336589D01*
X328471D01*
X328516Y336597D01*
X328701D01*
X328782Y336604D01*
X330743D01*
Y335953D01*
D02*
G37*
G36*
X336168Y335065D02*
X334340D01*
X335132Y336619D01*
X335376D01*
X336168Y335065D01*
D02*
G37*
%LPC*%
G36*
X348255Y93423D02*
X346938D01*
Y89316D01*
X348255D01*
Y93423D01*
D02*
G37*
G36*
X322629D02*
X317656D01*
Y92372D01*
X319484D01*
Y89316D01*
X320801D01*
Y92372D01*
X322629D01*
Y93423D01*
D02*
G37*
G36*
X317368D02*
X312817D01*
Y92454D01*
X316132D01*
Y91869D01*
X312987D01*
Y90966D01*
X316132D01*
Y90300D01*
X312795D01*
Y89316D01*
X317368D01*
Y93423D01*
D02*
G37*
G36*
X346361D02*
X344097D01*
X342876Y90752D01*
X341655Y93423D01*
X339390D01*
Y89316D01*
X340626D01*
X340597Y92387D01*
X340804D01*
X342350Y89316D01*
X343394D01*
X344940Y92387D01*
X345162D01*
X345133Y89316D01*
X346361D01*
Y93423D01*
D02*
G37*
G36*
X338835D02*
X337585D01*
Y91536D01*
Y91529D01*
Y91506D01*
Y91477D01*
Y91432D01*
Y91381D01*
X337577Y91321D01*
Y91188D01*
X337570Y91048D01*
X337562Y90914D01*
X337555Y90848D01*
Y90796D01*
X337548Y90744D01*
X337540Y90707D01*
Y90700D01*
X337526Y90670D01*
X337511Y90626D01*
X337489Y90581D01*
X337444Y90530D01*
X337392Y90478D01*
X337326Y90433D01*
X337237Y90396D01*
X337222D01*
X337207Y90389D01*
X337185Y90382D01*
X337148D01*
X337111Y90374D01*
X337059Y90367D01*
X337000Y90359D01*
X336933Y90352D01*
X336859Y90345D01*
X336771Y90337D01*
X336674D01*
X336563Y90330D01*
X336438Y90322D01*
X335942D01*
X335809Y90330D01*
X335661D01*
X335505Y90337D01*
X335372Y90345D01*
X335313Y90352D01*
X335261Y90359D01*
X335246D01*
X335217Y90367D01*
X335172Y90374D01*
X335121Y90389D01*
X335002Y90441D01*
X334950Y90470D01*
X334906Y90507D01*
X334891Y90522D01*
X334869Y90559D01*
X334832Y90618D01*
X334810Y90692D01*
Y90700D01*
X334802Y90715D01*
Y90744D01*
X334795Y90789D01*
X334788Y90840D01*
X334780Y90907D01*
X334773Y90981D01*
X334765Y91077D01*
Y91092D01*
X334758Y91122D01*
Y91173D01*
X334751Y91240D01*
Y91314D01*
X334743Y91388D01*
Y91462D01*
Y91536D01*
Y93423D01*
X333492D01*
Y91536D01*
Y91529D01*
Y91492D01*
Y91440D01*
X333500Y91381D01*
Y91299D01*
Y91210D01*
X333507Y91114D01*
Y91003D01*
X333515Y90789D01*
X333529Y90581D01*
X333537Y90478D01*
X333544Y90389D01*
X333552Y90315D01*
X333559Y90248D01*
Y90241D01*
X333566Y90226D01*
Y90197D01*
X333574Y90167D01*
X333589Y90123D01*
X333604Y90071D01*
X333648Y89960D01*
X333715Y89834D01*
X333796Y89708D01*
X333914Y89590D01*
X333981Y89538D01*
X334055Y89486D01*
X334062Y89479D01*
X334099Y89464D01*
X334151Y89442D01*
X334225Y89412D01*
X334321Y89383D01*
X334440Y89353D01*
X334573Y89331D01*
X334728Y89309D01*
X334751D01*
X334773Y89301D01*
X334810D01*
X334861Y89294D01*
X334913D01*
X334987Y89286D01*
X335069D01*
X335157Y89279D01*
X335261Y89272D01*
X335380D01*
X335505Y89264D01*
X335646D01*
X335801Y89257D01*
X336490D01*
X336571Y89264D01*
X336756D01*
X336948Y89272D01*
X337133Y89279D01*
X337222D01*
X337303Y89286D01*
X337340D01*
X337370Y89294D01*
X337444Y89301D01*
X337540Y89309D01*
X337651Y89323D01*
X337762Y89338D01*
X337881Y89353D01*
X337999Y89375D01*
X338006D01*
X338029Y89383D01*
X338058Y89397D01*
X338103Y89412D01*
X338155Y89434D01*
X338214Y89457D01*
X338273Y89494D01*
X338339Y89531D01*
X338406Y89582D01*
X338473Y89642D01*
X338539Y89701D01*
X338598Y89775D01*
X338658Y89864D01*
X338702Y89952D01*
X338739Y90056D01*
X338769Y90174D01*
Y90182D01*
X338776Y90211D01*
X338784Y90263D01*
X338791Y90315D01*
X338806Y90382D01*
X338813Y90456D01*
X338828Y90611D01*
Y90618D01*
Y90655D01*
Y90678D01*
Y90715D01*
Y90752D01*
Y90803D01*
X338835Y90855D01*
Y90922D01*
Y91003D01*
Y91085D01*
Y91181D01*
Y91292D01*
Y91403D01*
Y91536D01*
Y93423D01*
D02*
G37*
G36*
X332938D02*
X331620D01*
Y90367D01*
X328697D01*
Y89498D01*
X326625Y93423D01*
X324679D01*
X322533Y89316D01*
X323954D01*
X324302Y90012D01*
X327025D01*
X327373Y89316D01*
X332938D01*
Y93423D01*
D02*
G37*
G36*
X351549Y93490D02*
X350801D01*
X350705Y93482D01*
X350609D01*
X350394Y93475D01*
X350187Y93467D01*
X350083Y93460D01*
X349994Y93453D01*
X349906Y93445D01*
X349832Y93438D01*
X349824D01*
X349810Y93430D01*
X349780D01*
X349735Y93423D01*
X349691Y93416D01*
X349639Y93401D01*
X349521Y93371D01*
X349388Y93327D01*
X349262Y93268D01*
X349151Y93201D01*
X349099Y93164D01*
X349055Y93120D01*
X349047Y93112D01*
X349018Y93075D01*
X348988Y93016D01*
X348944Y92935D01*
X348907Y92824D01*
X348870Y92683D01*
X348848Y92520D01*
X348840Y92431D01*
Y92328D01*
Y92320D01*
Y92283D01*
Y92261D01*
Y92224D01*
X348848Y92187D01*
Y92135D01*
X350061D01*
Y92143D01*
Y92165D01*
Y92195D01*
Y92232D01*
X350068Y92306D01*
X350076Y92335D01*
X350083Y92365D01*
X350091Y92380D01*
X350106Y92402D01*
X350128Y92439D01*
X350172Y92468D01*
X350187Y92476D01*
X350209Y92483D01*
X350239Y92498D01*
X350276Y92505D01*
X350327Y92520D01*
X350387Y92528D01*
X350461Y92535D01*
X350505D01*
X350564Y92542D01*
X350764D01*
X350831Y92550D01*
X351586D01*
X351748Y92542D01*
X351919Y92535D01*
X352074Y92528D01*
X352148Y92520D01*
X352207Y92513D01*
X352266Y92505D01*
X352303Y92498D01*
X352311D01*
X352333Y92483D01*
X352355Y92468D01*
X352385Y92446D01*
X352422Y92409D01*
X352444Y92357D01*
X352466Y92298D01*
X352473Y92224D01*
Y92217D01*
Y92187D01*
X352466Y92150D01*
X352451Y92106D01*
X352429Y92061D01*
X352399Y92017D01*
X352362Y91980D01*
X352303Y91958D01*
X352296D01*
X352281Y91950D01*
X352229D01*
X352192Y91943D01*
X352140Y91936D01*
X352081D01*
X352007Y91928D01*
X351911Y91921D01*
X351807Y91913D01*
X351682Y91906D01*
X351534Y91899D01*
X351371D01*
X351179Y91891D01*
X350971Y91884D01*
X350875D01*
X350809Y91876D01*
X350734D01*
X350638Y91869D01*
X350542Y91862D01*
X350431D01*
X350209Y91847D01*
X349994Y91832D01*
X349891Y91825D01*
X349802Y91817D01*
X349713Y91810D01*
X349647Y91802D01*
X349632D01*
X349587Y91795D01*
X349528Y91788D01*
X349454Y91773D01*
X349365Y91751D01*
X349277Y91721D01*
X349188Y91691D01*
X349107Y91654D01*
X349099Y91647D01*
X349069Y91632D01*
X349032Y91603D01*
X348981Y91558D01*
X348929Y91506D01*
X348877Y91440D01*
X348833Y91366D01*
X348788Y91284D01*
X348781Y91277D01*
X348774Y91240D01*
X348759Y91188D01*
X348737Y91114D01*
X348722Y91018D01*
X348707Y90900D01*
X348699Y90759D01*
X348692Y90604D01*
Y90596D01*
Y90581D01*
Y90544D01*
Y90507D01*
X348699Y90463D01*
Y90404D01*
X348714Y90278D01*
X348729Y90137D01*
X348759Y89989D01*
X348803Y89856D01*
X348855Y89738D01*
X348862Y89730D01*
X348877Y89701D01*
X348899Y89664D01*
X348936Y89619D01*
X348981Y89568D01*
X349040Y89523D01*
X349107Y89471D01*
X349181Y89427D01*
X349188Y89420D01*
X349218Y89412D01*
X349269Y89390D01*
X349328Y89375D01*
X349417Y89346D01*
X349514Y89331D01*
X349632Y89309D01*
X349765Y89294D01*
X349810D01*
X349847Y89286D01*
X349891D01*
X349950Y89279D01*
X350106D01*
X350202Y89272D01*
X350313D01*
X350438Y89264D01*
X350579D01*
X350727Y89257D01*
X351600D01*
X351696Y89264D01*
X351800D01*
X352022Y89272D01*
X352252Y89279D01*
X352466Y89294D01*
X352562Y89301D01*
X352651Y89309D01*
X352673D01*
X352695Y89316D01*
X352725D01*
X352799Y89331D01*
X352895Y89346D01*
X353006Y89368D01*
X353110Y89397D01*
X353221Y89427D01*
X353310Y89471D01*
X353317Y89479D01*
X353347Y89494D01*
X353391Y89523D01*
X353435Y89568D01*
X353495Y89612D01*
X353547Y89671D01*
X353598Y89745D01*
X353635Y89819D01*
Y89827D01*
X353650Y89864D01*
X353658Y89915D01*
X353672Y89982D01*
X353687Y90078D01*
X353702Y90189D01*
X353709Y90322D01*
X353717Y90478D01*
X353724Y90678D01*
X352510D01*
Y90663D01*
Y90626D01*
X352503Y90574D01*
X352496Y90515D01*
X352481Y90448D01*
X352459Y90382D01*
X352429Y90330D01*
X352385Y90285D01*
X352377D01*
X352370Y90278D01*
X352348Y90263D01*
X352326Y90256D01*
X352252Y90226D01*
X352155Y90211D01*
X351993D01*
X351933Y90204D01*
X350520D01*
X350453Y90211D01*
X350276D01*
X350246Y90219D01*
X350209D01*
X350128Y90234D01*
X350046Y90256D01*
X350039D01*
X350024Y90271D01*
X350002Y90285D01*
X349972Y90315D01*
X349950Y90359D01*
X349928Y90411D01*
X349913Y90478D01*
X349906Y90567D01*
Y90574D01*
Y90596D01*
X349913Y90626D01*
X349921Y90670D01*
X349950Y90752D01*
X349972Y90781D01*
X350009Y90811D01*
X350017D01*
X350031Y90818D01*
X350054Y90833D01*
X350098Y90848D01*
X350150Y90855D01*
X350217Y90870D01*
X350305Y90877D01*
X350564D01*
X350616Y90885D01*
X350749D01*
X350831Y90892D01*
X350920D01*
X351016Y90900D01*
X351127D01*
X351253Y90907D01*
X351386Y90914D01*
X351460D01*
X351512Y90922D01*
X351571D01*
X351645Y90929D01*
X351800Y90937D01*
X351970Y90944D01*
X352133Y90951D01*
X352274D01*
X352333Y90959D01*
X352459D01*
X352540Y90966D01*
X352644Y90974D01*
X352755Y90988D01*
X352866Y91003D01*
X352977Y91018D01*
X353080Y91040D01*
X353088Y91048D01*
X353117Y91055D01*
X353162Y91070D01*
X353221Y91099D01*
X353280Y91129D01*
X353339Y91173D01*
X353406Y91218D01*
X353458Y91277D01*
X353465Y91292D01*
X353495Y91329D01*
X353532Y91395D01*
X353569Y91484D01*
X353591Y91543D01*
X353613Y91603D01*
X353635Y91677D01*
X353650Y91758D01*
X353665Y91847D01*
X353680Y91943D01*
X353687Y92047D01*
Y92158D01*
Y92165D01*
Y92187D01*
Y92224D01*
X353680Y92269D01*
Y92328D01*
X353672Y92394D01*
X353658Y92542D01*
X353621Y92705D01*
X353576Y92868D01*
X353517Y93016D01*
X353472Y93083D01*
X353428Y93142D01*
X353421Y93149D01*
X353391Y93179D01*
X353339Y93216D01*
X353273Y93260D01*
X353184Y93305D01*
X353080Y93356D01*
X352955Y93393D01*
X352806Y93423D01*
X352784D01*
X352762Y93430D01*
X352718D01*
X352666Y93438D01*
X352607Y93445D01*
X352525Y93453D01*
X352436Y93460D01*
X352326D01*
X352207Y93467D01*
X352066Y93475D01*
X351911Y93482D01*
X351733D01*
X351549Y93490D01*
D02*
G37*
G36*
X335842Y83507D02*
X331291D01*
Y82538D01*
X334606D01*
Y81953D01*
X331461D01*
Y81050D01*
X334606D01*
Y80384D01*
X331269D01*
Y79400D01*
X335842D01*
Y83507D01*
D02*
G37*
G36*
X324868D02*
X319895D01*
Y82456D01*
X321723D01*
Y79400D01*
X323040D01*
Y82456D01*
X324868D01*
Y83507D01*
D02*
G37*
G36*
X346609D02*
X342058D01*
Y82538D01*
X345373D01*
Y81953D01*
X342228D01*
Y81050D01*
X345373D01*
Y80384D01*
X342036D01*
Y79400D01*
X346609D01*
Y83507D01*
D02*
G37*
G36*
X330877D02*
X328686D01*
X326533Y80443D01*
X326407D01*
X326437Y83507D01*
X325156D01*
Y79400D01*
X327339D01*
X329500Y82464D01*
X329633D01*
X329604Y79400D01*
X330877D01*
Y83507D01*
D02*
G37*
G36*
X342006D02*
X340645D01*
X339142Y80436D01*
X338906D01*
X337426Y83507D01*
X336057D01*
X338062Y79400D01*
X339986D01*
X342006Y83507D01*
D02*
G37*
G36*
X359655Y88435D02*
X354682D01*
Y87385D01*
X356510D01*
Y84328D01*
X357827D01*
Y87385D01*
X359655D01*
Y88435D01*
D02*
G37*
G36*
X354394D02*
X353077D01*
Y84328D01*
X354394D01*
Y88435D01*
D02*
G37*
G36*
X322219D02*
X320857D01*
X319355Y85364D01*
X319118D01*
X317638Y88435D01*
X316269D01*
X318274Y84328D01*
X320198D01*
X322219Y88435D01*
D02*
G37*
G36*
X352499D02*
X350235D01*
X349014Y85764D01*
X347793Y88435D01*
X345529D01*
Y84328D01*
X346764D01*
X346735Y87399D01*
X346942D01*
X348489Y84328D01*
X349532D01*
X351079Y87399D01*
X351301D01*
X351271Y84328D01*
X352499D01*
Y88435D01*
D02*
G37*
G36*
X344951D02*
X340400D01*
Y87466D01*
X343716D01*
Y86881D01*
X340571D01*
Y85979D01*
X343716D01*
Y85313D01*
X340378D01*
Y84328D01*
X344951D01*
Y88435D01*
D02*
G37*
G36*
X316054D02*
X311503D01*
Y87466D01*
X314819D01*
Y86881D01*
X311674D01*
Y85979D01*
X314819D01*
Y85313D01*
X311481D01*
Y84328D01*
X316054D01*
Y88435D01*
D02*
G37*
G36*
X311089D02*
X309772D01*
Y85379D01*
X306849D01*
Y84328D01*
X311089D01*
Y88435D01*
D02*
G37*
G36*
X326141D02*
X324194D01*
X322048Y84328D01*
X323469D01*
X323817Y85024D01*
X326540D01*
X326888Y84328D01*
X328309D01*
X326141Y88435D01*
D02*
G37*
G36*
X338735D02*
X333763D01*
Y87385D01*
X335590D01*
Y84328D01*
X336908D01*
Y87385D01*
X338735D01*
Y88435D01*
D02*
G37*
G36*
X333474D02*
X330107D01*
X330003Y88428D01*
X329678D01*
X329567Y88421D01*
X329374D01*
X329293Y88413D01*
X329234D01*
X329182Y88406D01*
X329175D01*
X329145Y88398D01*
X329101D01*
X329049Y88384D01*
X328990Y88369D01*
X328923Y88347D01*
X328849Y88310D01*
X328775Y88273D01*
X328768Y88265D01*
X328738Y88243D01*
X328694Y88213D01*
X328642Y88169D01*
X328590Y88110D01*
X328538Y88043D01*
X328486Y87962D01*
X328449Y87873D01*
X328442Y87858D01*
X328435Y87829D01*
X328420Y87769D01*
X328405Y87688D01*
X328390Y87577D01*
X328375Y87444D01*
X328361Y87281D01*
Y87096D01*
Y87089D01*
Y87074D01*
Y87052D01*
Y87022D01*
Y86948D01*
X328368Y86844D01*
X328375Y86741D01*
X328383Y86630D01*
X328398Y86526D01*
X328420Y86437D01*
Y86430D01*
X328435Y86400D01*
X328449Y86363D01*
X328464Y86319D01*
X328494Y86267D01*
X328531Y86208D01*
X328575Y86156D01*
X328627Y86104D01*
X328634Y86097D01*
X328657Y86082D01*
X328701Y86060D01*
X328753Y86030D01*
X328827Y86001D01*
X328908Y85971D01*
X329012Y85942D01*
X329130Y85919D01*
X329115D01*
X329093Y85912D01*
X329064D01*
X328997Y85897D01*
X328908Y85882D01*
X328812Y85853D01*
X328723Y85808D01*
X328634Y85757D01*
X328560Y85690D01*
X328553Y85683D01*
X328546Y85668D01*
X328531Y85646D01*
X328509Y85609D01*
X328486Y85564D01*
X328464Y85520D01*
X328435Y85401D01*
Y85394D01*
X328427Y85364D01*
Y85320D01*
X328420Y85253D01*
X328412Y85157D01*
Y85105D01*
Y85039D01*
X328405Y84965D01*
Y84891D01*
Y84802D01*
Y84706D01*
Y84328D01*
X329641D01*
Y84543D01*
Y84550D01*
Y84558D01*
Y84602D01*
Y84661D01*
Y84735D01*
X329656Y84891D01*
X329663Y84965D01*
X329670Y85031D01*
Y85039D01*
X329678Y85054D01*
Y85083D01*
X329693Y85113D01*
X329722Y85187D01*
X329767Y85253D01*
X329781Y85268D01*
X329818Y85290D01*
X329878Y85327D01*
X329959Y85350D01*
X329966D01*
X329981Y85357D01*
X330018D01*
X330063Y85364D01*
X330137D01*
X330218Y85372D01*
X332223D01*
Y84328D01*
X333474D01*
Y88435D01*
D02*
G37*
%LPD*%
G36*
X326573Y90914D02*
X324746D01*
X325537Y92468D01*
X325782D01*
X326573Y90914D01*
D02*
G37*
G36*
X326089Y85927D02*
X324261D01*
X325053Y87481D01*
X325297D01*
X326089Y85927D01*
D02*
G37*
G36*
X332223Y86400D02*
X330322D01*
X330225Y86408D01*
X330048D01*
X329974Y86415D01*
X329907D01*
X329870Y86423D01*
X329818Y86437D01*
X329767Y86460D01*
X329759D01*
X329752Y86467D01*
X329722Y86497D01*
X329685Y86541D01*
X329656Y86608D01*
Y86615D01*
X329648Y86630D01*
X329641Y86652D01*
X329633Y86689D01*
Y86726D01*
X329626Y86785D01*
X329619Y86844D01*
Y86918D01*
Y86926D01*
Y86948D01*
Y86985D01*
X329626Y87029D01*
X329633Y87126D01*
X329648Y87177D01*
X329663Y87214D01*
Y87222D01*
X329670Y87229D01*
X329693Y87266D01*
X329730Y87318D01*
X329789Y87355D01*
X329804Y87362D01*
X329833Y87370D01*
X329885Y87385D01*
X329952Y87392D01*
X330003D01*
X330048Y87399D01*
X330211D01*
X330322Y87407D01*
X332223D01*
Y86400D01*
D02*
G37*
%LPC*%
G36*
X69986Y26493D02*
X68353D01*
Y22116D01*
X69986D01*
Y26493D01*
D02*
G37*
G36*
X44066Y28282D02*
X42433D01*
Y22116D01*
X44066D01*
Y28282D01*
D02*
G37*
G36*
X41689D02*
X40056D01*
Y22116D01*
X41689D01*
Y28282D01*
D02*
G37*
G36*
X90750Y26493D02*
X89029D01*
X88029Y23305D01*
X86862Y26493D01*
X85318D01*
X84129Y23360D01*
X83107Y26493D01*
X81363D01*
X82985Y22116D01*
X85207D01*
X86073Y24683D01*
X86951Y22116D01*
X89140D01*
X90750Y26493D01*
D02*
G37*
G36*
X131835Y28282D02*
X128436D01*
X126602Y24272D01*
X124769Y28282D01*
X121370D01*
Y22116D01*
X123225D01*
X123181Y26727D01*
X123492D01*
X125814Y22116D01*
X127380D01*
X129702Y26727D01*
X130035D01*
X129991Y22116D01*
X131835D01*
Y28282D01*
D02*
G37*
G36*
X47566Y26605D02*
X46933D01*
X46711Y26594D01*
X46466Y26582D01*
X46222Y26571D01*
X46011Y26549D01*
X45911Y26527D01*
X45833Y26516D01*
X45811D01*
X45766Y26505D01*
X45688Y26471D01*
X45599Y26438D01*
X45488Y26393D01*
X45377Y26338D01*
X45266Y26260D01*
X45155Y26160D01*
X45144Y26149D01*
X45122Y26127D01*
X45088Y26083D01*
X45044Y26016D01*
X44988Y25938D01*
X44944Y25849D01*
X44900Y25749D01*
X44866Y25638D01*
Y25627D01*
X44855Y25583D01*
X44833Y25516D01*
X44822Y25416D01*
X44800Y25282D01*
X44789Y25127D01*
X44777Y24949D01*
Y24738D01*
Y22116D01*
X46355D01*
Y22716D01*
X46433D01*
X46444Y22694D01*
X46466Y22649D01*
X46510Y22583D01*
X46566Y22505D01*
X46644Y22405D01*
X46744Y22316D01*
X46866Y22227D01*
X46999Y22161D01*
X47010D01*
X47033Y22150D01*
X47088Y22138D01*
X47155Y22116D01*
X47233Y22105D01*
X47333Y22083D01*
X47455Y22061D01*
X47588Y22050D01*
X47610D01*
X47655Y22038D01*
X47744D01*
X47877Y22027D01*
X48044Y22016D01*
X48244D01*
X48488Y22005D01*
X48999D01*
X49155Y22016D01*
X49310Y22027D01*
X49488Y22038D01*
X49655Y22061D01*
X49799Y22094D01*
X49810D01*
X49855Y22105D01*
X49921Y22127D01*
X49999Y22161D01*
X50188Y22250D01*
X50277Y22305D01*
X50366Y22372D01*
X50377Y22383D01*
X50410Y22427D01*
X50466Y22505D01*
X50521Y22605D01*
X50577Y22749D01*
X50632Y22916D01*
X50666Y23116D01*
X50677Y23360D01*
Y23372D01*
Y23394D01*
Y23438D01*
X50666Y23483D01*
X50655Y23616D01*
X50632Y23783D01*
X50588Y23960D01*
X50521Y24138D01*
X50432Y24316D01*
X50310Y24460D01*
X50299Y24472D01*
X50255Y24505D01*
X50188Y24549D01*
X50099Y24605D01*
X49988Y24660D01*
X49855Y24716D01*
X49699Y24771D01*
X49521Y24805D01*
X49499D01*
X49466Y24816D01*
X49421D01*
X49366Y24827D01*
X49299Y24838D01*
X49210D01*
X49110Y24849D01*
X48999Y24860D01*
X48866Y24871D01*
X48721D01*
X48555Y24883D01*
X48377D01*
X48177Y24894D01*
X47533D01*
X47410Y24883D01*
X47277D01*
X47144Y24871D01*
X47022Y24849D01*
X46922Y24827D01*
X46911D01*
X46877Y24816D01*
X46833Y24794D01*
X46777Y24771D01*
X46711Y24727D01*
X46633Y24683D01*
X46566Y24627D01*
X46488Y24549D01*
X46411D01*
Y24771D01*
Y24783D01*
Y24794D01*
Y24849D01*
X46422Y24938D01*
X46433Y25049D01*
X46455Y25149D01*
X46499Y25260D01*
X46544Y25349D01*
X46611Y25416D01*
X46622Y25427D01*
X46655Y25438D01*
X46711Y25460D01*
X46799Y25482D01*
X46922Y25505D01*
X47088Y25527D01*
X47177Y25538D01*
X47288Y25549D01*
X47833D01*
X48010Y25538D01*
X48199Y25527D01*
X48377Y25516D01*
X48521Y25494D01*
X48588Y25482D01*
X48632Y25471D01*
X48644D01*
X48666Y25460D01*
X48699Y25438D01*
X48744Y25405D01*
X48788Y25360D01*
X48821Y25294D01*
X48855Y25216D01*
X48877Y25116D01*
X50510D01*
Y25127D01*
Y25138D01*
X50499Y25194D01*
X50488Y25294D01*
X50466Y25405D01*
X50444Y25527D01*
X50399Y25649D01*
X50355Y25771D01*
X50288Y25883D01*
X50277Y25905D01*
X50232Y25949D01*
X50166Y26027D01*
X50066Y26116D01*
X49944Y26205D01*
X49788Y26305D01*
X49599Y26382D01*
X49388Y26449D01*
X49377D01*
X49355Y26460D01*
X49321D01*
X49266Y26471D01*
X49199Y26482D01*
X49110Y26493D01*
X49010Y26516D01*
X48888Y26527D01*
X48755Y26538D01*
X48599Y26560D01*
X48432Y26571D01*
X48244Y26582D01*
X48033Y26594D01*
X47810D01*
X47566Y26605D01*
D02*
G37*
G36*
X113593Y27505D02*
X111960D01*
Y26493D01*
X109371D01*
Y25327D01*
X111960D01*
Y24049D01*
Y24027D01*
Y23972D01*
Y23883D01*
X111948Y23783D01*
Y23672D01*
X111926Y23561D01*
X111915Y23472D01*
X111893Y23405D01*
X111882Y23394D01*
X111871Y23372D01*
X111826Y23338D01*
X111771Y23294D01*
X111693Y23249D01*
X111593Y23216D01*
X111471Y23194D01*
X111315Y23183D01*
X111237D01*
X111160Y23194D01*
X111060Y23205D01*
X110960Y23238D01*
X110860Y23272D01*
X110782Y23327D01*
X110726Y23394D01*
X110715Y23405D01*
X110704Y23449D01*
X110682Y23505D01*
X110671Y23561D01*
Y23583D01*
Y23605D01*
X110660Y23649D01*
Y23705D01*
Y23783D01*
Y23872D01*
Y23994D01*
X109171D01*
Y23983D01*
Y23972D01*
Y23938D01*
Y23894D01*
X109182Y23783D01*
Y23638D01*
X109193Y23494D01*
X109204Y23338D01*
X109227Y23205D01*
X109249Y23083D01*
Y23072D01*
X109260Y23038D01*
X109271Y22983D01*
X109304Y22916D01*
X109338Y22838D01*
X109371Y22749D01*
X109426Y22649D01*
X109493Y22561D01*
X109504Y22549D01*
X109537Y22505D01*
X109593Y22461D01*
X109671Y22394D01*
X109771Y22316D01*
X109882Y22250D01*
X110015Y22183D01*
X110171Y22127D01*
X110193D01*
X110249Y22105D01*
X110349Y22094D01*
X110493Y22072D01*
X110671Y22050D01*
X110893Y22027D01*
X111149Y22016D01*
X111449Y22005D01*
X111715D01*
X111893Y22016D01*
X112082Y22027D01*
X112282Y22038D01*
X112460Y22061D01*
X112626Y22094D01*
X112637D01*
X112693Y22105D01*
X112759Y22127D01*
X112848Y22161D01*
X112937Y22205D01*
X113048Y22261D01*
X113148Y22327D01*
X113237Y22405D01*
X113248Y22416D01*
X113270Y22438D01*
X113293Y22472D01*
X113337Y22516D01*
X113415Y22638D01*
X113493Y22783D01*
Y22794D01*
X113504Y22816D01*
X113515Y22861D01*
X113537Y22927D01*
X113548Y23005D01*
X113570Y23105D01*
X113582Y23216D01*
X113593Y23338D01*
Y23349D01*
Y23372D01*
Y23416D01*
Y23483D01*
Y23572D01*
Y23694D01*
Y23849D01*
Y24049D01*
Y25327D01*
X114459D01*
Y26493D01*
X113593D01*
Y27505D01*
D02*
G37*
G36*
X73352Y28327D02*
X70475D01*
X74041Y25249D01*
X70175Y22116D01*
X73030D01*
X75797Y24472D01*
X76819D01*
Y22116D01*
X78696D01*
Y28282D01*
X76819D01*
Y26049D01*
X75797D01*
X73352Y28327D01*
D02*
G37*
G36*
X94072Y26616D02*
X93484D01*
X93239Y26605D01*
X92995Y26594D01*
X92739Y26582D01*
X92495Y26560D01*
X92395Y26549D01*
X92306Y26538D01*
X92295D01*
X92273Y26527D01*
X92228D01*
X92173Y26505D01*
X92106Y26493D01*
X92039Y26471D01*
X91873Y26405D01*
X91684Y26327D01*
X91506Y26216D01*
X91339Y26083D01*
X91273Y26016D01*
X91206Y25927D01*
X91195Y25905D01*
X91173Y25883D01*
X91162Y25838D01*
X91139Y25794D01*
X91106Y25727D01*
X91084Y25649D01*
X91050Y25560D01*
X91028Y25460D01*
X91006Y25349D01*
X90973Y25227D01*
X90951Y25094D01*
X90928Y24938D01*
X90917Y24771D01*
X90906Y24594D01*
Y24394D01*
Y24372D01*
Y24338D01*
Y24294D01*
Y24238D01*
X90917Y24160D01*
Y24060D01*
X90928Y23949D01*
X95206D01*
Y23938D01*
Y23894D01*
Y23838D01*
X95195Y23761D01*
X95183Y23594D01*
X95172Y23527D01*
X95161Y23460D01*
Y23449D01*
X95150Y23438D01*
X95128Y23383D01*
X95072Y23305D01*
X94995Y23227D01*
X94983Y23216D01*
X94939Y23205D01*
X94872Y23172D01*
X94761Y23138D01*
X94617Y23105D01*
X94528Y23094D01*
X94428Y23083D01*
X94317Y23072D01*
X94183Y23061D01*
X94050Y23049D01*
X93584D01*
X93450Y23061D01*
X93317D01*
X93184Y23072D01*
X93072Y23083D01*
X93061D01*
X93028Y23094D01*
X92984Y23105D01*
X92917Y23116D01*
X92795Y23160D01*
X92739Y23194D01*
X92695Y23227D01*
X92684Y23249D01*
X92650Y23294D01*
X92617Y23383D01*
X92584Y23516D01*
X90951D01*
Y23505D01*
Y23483D01*
X90962Y23449D01*
Y23394D01*
X90995Y23272D01*
X91028Y23116D01*
X91084Y22949D01*
X91162Y22772D01*
X91262Y22616D01*
X91384Y22483D01*
X91395Y22472D01*
X91439Y22438D01*
X91517Y22394D01*
X91617Y22338D01*
X91739Y22272D01*
X91895Y22216D01*
X92084Y22161D01*
X92284Y22116D01*
X92306D01*
X92339Y22105D01*
X92395Y22094D01*
X92450D01*
X92528Y22083D01*
X92617Y22072D01*
X92717Y22061D01*
X92828Y22050D01*
X92961Y22038D01*
X93106Y22027D01*
X93261D01*
X93428Y22016D01*
X93606Y22005D01*
X94350D01*
X94561Y22016D01*
X94795Y22027D01*
X95039Y22038D01*
X95272Y22061D01*
X95483Y22094D01*
X95506D01*
X95572Y22116D01*
X95661Y22138D01*
X95772Y22172D01*
X95906Y22216D01*
X96039Y22272D01*
X96172Y22338D01*
X96294Y22416D01*
X96306Y22427D01*
X96350Y22461D01*
X96394Y22516D01*
X96461Y22583D01*
X96539Y22672D01*
X96605Y22783D01*
X96672Y22905D01*
X96728Y23049D01*
Y23072D01*
X96750Y23127D01*
X96761Y23216D01*
X96783Y23349D01*
X96806Y23527D01*
X96817Y23738D01*
X96839Y23994D01*
Y24283D01*
Y24294D01*
Y24305D01*
Y24338D01*
Y24383D01*
Y24494D01*
X96828Y24638D01*
Y24783D01*
X96817Y24938D01*
X96806Y25083D01*
X96794Y25216D01*
Y25227D01*
X96783Y25271D01*
X96772Y25327D01*
X96761Y25405D01*
X96739Y25494D01*
X96706Y25594D01*
X96628Y25794D01*
Y25805D01*
X96617Y25816D01*
X96572Y25883D01*
X96505Y25971D01*
X96406Y26071D01*
X96272Y26194D01*
X96117Y26305D01*
X95906Y26393D01*
X95672Y26471D01*
X95661D01*
X95639Y26482D01*
X95606D01*
X95561Y26493D01*
X95495Y26505D01*
X95417Y26516D01*
X95328Y26527D01*
X95228Y26549D01*
X95106Y26560D01*
X94972Y26571D01*
X94817Y26582D01*
X94650Y26594D01*
X94472Y26605D01*
X94283D01*
X94072Y26616D01*
D02*
G37*
G36*
X108227Y27505D02*
X106593D01*
Y26493D01*
X104005D01*
Y25327D01*
X106593D01*
Y24049D01*
Y24027D01*
Y23972D01*
Y23883D01*
X106582Y23783D01*
Y23672D01*
X106560Y23561D01*
X106549Y23472D01*
X106527Y23405D01*
X106516Y23394D01*
X106504Y23372D01*
X106460Y23338D01*
X106404Y23294D01*
X106327Y23249D01*
X106227Y23216D01*
X106105Y23194D01*
X105949Y23183D01*
X105871D01*
X105793Y23194D01*
X105693Y23205D01*
X105594Y23238D01*
X105493Y23272D01*
X105416Y23327D01*
X105360Y23394D01*
X105349Y23405D01*
X105338Y23449D01*
X105316Y23505D01*
X105305Y23561D01*
Y23583D01*
Y23605D01*
X105294Y23649D01*
Y23705D01*
Y23783D01*
Y23872D01*
Y23994D01*
X103805D01*
Y23983D01*
Y23972D01*
Y23938D01*
Y23894D01*
X103816Y23783D01*
Y23638D01*
X103827Y23494D01*
X103838Y23338D01*
X103860Y23205D01*
X103883Y23083D01*
Y23072D01*
X103894Y23038D01*
X103905Y22983D01*
X103938Y22916D01*
X103971Y22838D01*
X104005Y22749D01*
X104060Y22649D01*
X104127Y22561D01*
X104138Y22549D01*
X104171Y22505D01*
X104227Y22461D01*
X104305Y22394D01*
X104405Y22316D01*
X104516Y22250D01*
X104649Y22183D01*
X104805Y22127D01*
X104827D01*
X104882Y22105D01*
X104982Y22094D01*
X105127Y22072D01*
X105305Y22050D01*
X105527Y22027D01*
X105782Y22016D01*
X106082Y22005D01*
X106349D01*
X106527Y22016D01*
X106716Y22027D01*
X106916Y22038D01*
X107093Y22061D01*
X107260Y22094D01*
X107271D01*
X107327Y22105D01*
X107393Y22127D01*
X107482Y22161D01*
X107571Y22205D01*
X107682Y22261D01*
X107782Y22327D01*
X107871Y22405D01*
X107882Y22416D01*
X107904Y22438D01*
X107927Y22472D01*
X107971Y22516D01*
X108049Y22638D01*
X108127Y22783D01*
Y22794D01*
X108138Y22816D01*
X108149Y22861D01*
X108171Y22927D01*
X108182Y23005D01*
X108204Y23105D01*
X108215Y23216D01*
X108227Y23338D01*
Y23349D01*
Y23372D01*
Y23416D01*
Y23483D01*
Y23572D01*
Y23694D01*
Y23849D01*
Y24049D01*
Y25327D01*
X109093D01*
Y26493D01*
X108227D01*
Y27505D01*
D02*
G37*
G36*
X103149Y43525D02*
X101516D01*
Y39148D01*
X103149D01*
Y43525D01*
D02*
G37*
G36*
X97461Y43636D02*
X97372D01*
X97305Y43625D01*
X97216D01*
X97128Y43614D01*
X96917Y43592D01*
X96694Y43536D01*
X96461Y43470D01*
X96250Y43381D01*
X96161Y43314D01*
X96083Y43247D01*
X96061Y43225D01*
X96017Y43170D01*
X95961Y43070D01*
X95928Y43003D01*
X95883Y42925D01*
X95850Y42836D01*
X95817Y42736D01*
X95783Y42625D01*
X95750Y42503D01*
X95728Y42370D01*
X95706Y42214D01*
X95695Y42048D01*
Y41870D01*
Y41859D01*
Y41814D01*
Y41770D01*
Y41725D01*
X95706Y41659D01*
Y41581D01*
X97250D01*
Y41603D01*
Y41648D01*
Y41714D01*
X97261Y41792D01*
X97283Y41970D01*
X97305Y42048D01*
X97328Y42114D01*
X97339Y42125D01*
X97361Y42159D01*
X97405Y42203D01*
X97483Y42259D01*
X97583Y42314D01*
X97716Y42359D01*
X97894Y42392D01*
X98105Y42403D01*
X98205D01*
X98305Y42392D01*
X98427Y42359D01*
X98572Y42325D01*
X98705Y42270D01*
X98827Y42192D01*
X98939Y42081D01*
Y42070D01*
X98961Y42059D01*
X98983Y42014D01*
X99005Y41970D01*
X99061Y41848D01*
X99105Y41692D01*
Y41681D01*
Y41648D01*
X99116Y41592D01*
Y41514D01*
X99128Y41414D01*
Y41281D01*
X99139Y41137D01*
Y40959D01*
Y39148D01*
X100772D01*
Y43525D01*
X99239D01*
Y42870D01*
X99161D01*
X99150Y42892D01*
X99116Y42936D01*
X99072Y43014D01*
X98994Y43103D01*
X98905Y43192D01*
X98805Y43292D01*
X98683Y43381D01*
X98550Y43459D01*
X98527Y43470D01*
X98483Y43492D01*
X98394Y43514D01*
X98272Y43547D01*
X98116Y43581D01*
X97928Y43614D01*
X97705Y43625D01*
X97461Y43636D01*
D02*
G37*
G36*
X132957Y43525D02*
X131324D01*
Y39148D01*
X132957D01*
Y43525D01*
D02*
G37*
G36*
X117659Y43647D02*
X117070D01*
X116826Y43636D01*
X116581Y43625D01*
X116326Y43614D01*
X116081Y43592D01*
X115981Y43581D01*
X115893Y43570D01*
X115881D01*
X115859Y43558D01*
X115815D01*
X115759Y43536D01*
X115692Y43525D01*
X115626Y43503D01*
X115459Y43436D01*
X115270Y43358D01*
X115093Y43247D01*
X114926Y43114D01*
X114859Y43047D01*
X114793Y42959D01*
X114781Y42936D01*
X114759Y42914D01*
X114748Y42870D01*
X114726Y42825D01*
X114693Y42759D01*
X114670Y42681D01*
X114637Y42592D01*
X114615Y42492D01*
X114593Y42381D01*
X114559Y42259D01*
X114537Y42125D01*
X114515Y41970D01*
X114504Y41803D01*
X114493Y41625D01*
Y41425D01*
Y41403D01*
Y41370D01*
Y41325D01*
Y41270D01*
X114504Y41192D01*
Y41092D01*
X114515Y40981D01*
X118792D01*
Y40970D01*
Y40925D01*
Y40870D01*
X118781Y40792D01*
X118770Y40626D01*
X118759Y40559D01*
X118748Y40492D01*
Y40481D01*
X118737Y40470D01*
X118714Y40414D01*
X118659Y40337D01*
X118581Y40259D01*
X118570Y40248D01*
X118526Y40237D01*
X118459Y40203D01*
X118348Y40170D01*
X118203Y40137D01*
X118114Y40126D01*
X118015Y40114D01*
X117903Y40103D01*
X117770Y40092D01*
X117637Y40081D01*
X117170D01*
X117037Y40092D01*
X116903D01*
X116770Y40103D01*
X116659Y40114D01*
X116648D01*
X116615Y40126D01*
X116570Y40137D01*
X116504Y40148D01*
X116381Y40192D01*
X116326Y40225D01*
X116281Y40259D01*
X116270Y40281D01*
X116237Y40325D01*
X116203Y40414D01*
X116170Y40548D01*
X114537D01*
Y40537D01*
Y40514D01*
X114548Y40481D01*
Y40426D01*
X114582Y40303D01*
X114615Y40148D01*
X114670Y39981D01*
X114748Y39803D01*
X114848Y39648D01*
X114970Y39514D01*
X114981Y39503D01*
X115026Y39470D01*
X115104Y39426D01*
X115204Y39370D01*
X115326Y39303D01*
X115481Y39248D01*
X115670Y39192D01*
X115870Y39148D01*
X115893D01*
X115926Y39137D01*
X115981Y39126D01*
X116037D01*
X116115Y39114D01*
X116203Y39103D01*
X116304Y39092D01*
X116415Y39081D01*
X116548Y39070D01*
X116692Y39059D01*
X116848D01*
X117015Y39048D01*
X117192Y39037D01*
X117937D01*
X118148Y39048D01*
X118381Y39059D01*
X118625Y39070D01*
X118859Y39092D01*
X119070Y39126D01*
X119092D01*
X119159Y39148D01*
X119248Y39170D01*
X119359Y39203D01*
X119492Y39248D01*
X119625Y39303D01*
X119759Y39370D01*
X119881Y39448D01*
X119892Y39459D01*
X119937Y39492D01*
X119981Y39548D01*
X120048Y39614D01*
X120125Y39703D01*
X120192Y39814D01*
X120259Y39937D01*
X120314Y40081D01*
Y40103D01*
X120336Y40159D01*
X120348Y40248D01*
X120370Y40381D01*
X120392Y40559D01*
X120403Y40770D01*
X120425Y41025D01*
Y41314D01*
Y41325D01*
Y41337D01*
Y41370D01*
Y41414D01*
Y41525D01*
X120414Y41670D01*
Y41814D01*
X120403Y41970D01*
X120392Y42114D01*
X120381Y42248D01*
Y42259D01*
X120370Y42303D01*
X120359Y42359D01*
X120348Y42436D01*
X120325Y42525D01*
X120292Y42625D01*
X120214Y42825D01*
Y42836D01*
X120203Y42847D01*
X120159Y42914D01*
X120092Y43003D01*
X119992Y43103D01*
X119859Y43225D01*
X119703Y43336D01*
X119492Y43425D01*
X119259Y43503D01*
X119248D01*
X119226Y43514D01*
X119192D01*
X119148Y43525D01*
X119081Y43536D01*
X119003Y43547D01*
X118914Y43558D01*
X118814Y43581D01*
X118692Y43592D01*
X118559Y43603D01*
X118403Y43614D01*
X118237Y43625D01*
X118059Y43636D01*
X117870D01*
X117659Y43647D01*
D02*
G37*
G36*
X140790Y45314D02*
X133324D01*
Y43736D01*
X136068D01*
Y39148D01*
X138046D01*
Y43736D01*
X140790D01*
Y45314D01*
D02*
G37*
G36*
X82140Y43525D02*
X80507D01*
Y39148D01*
X82140D01*
Y43525D01*
D02*
G37*
G36*
X60953Y43636D02*
X60309D01*
X60187Y43625D01*
X60065D01*
X59787Y43614D01*
X59509Y43603D01*
X59254Y43581D01*
X59131Y43558D01*
X59020Y43547D01*
X58998D01*
X58931Y43525D01*
X58832Y43503D01*
X58698Y43470D01*
X58565Y43425D01*
X58420Y43370D01*
X58276Y43303D01*
X58154Y43225D01*
X58143Y43214D01*
X58098Y43181D01*
X58043Y43136D01*
X57976Y43058D01*
X57898Y42970D01*
X57832Y42870D01*
X57765Y42748D01*
X57709Y42614D01*
X57698Y42592D01*
X57687Y42548D01*
X57665Y42448D01*
X57643Y42325D01*
X57621Y42159D01*
X57609Y41947D01*
X57587Y41703D01*
Y41414D01*
Y41403D01*
Y41392D01*
Y41359D01*
Y41314D01*
Y41203D01*
Y41070D01*
X57598Y40925D01*
X57609Y40770D01*
X57621Y40626D01*
X57632Y40492D01*
Y40481D01*
X57643Y40437D01*
Y40381D01*
X57654Y40314D01*
X57676Y40225D01*
X57698Y40137D01*
X57754Y39948D01*
Y39937D01*
X57765Y39926D01*
X57776Y39892D01*
X57798Y39848D01*
X57865Y39748D01*
X57965Y39625D01*
X58087Y39492D01*
X58254Y39359D01*
X58465Y39248D01*
X58576Y39203D01*
X58709Y39170D01*
X58732D01*
X58776Y39159D01*
X58820Y39148D01*
X58887Y39137D01*
X58965Y39126D01*
X59065Y39114D01*
X59176Y39103D01*
X59309Y39092D01*
X59454Y39081D01*
X59609Y39070D01*
X59787Y39059D01*
X59987Y39048D01*
X60198D01*
X60431Y39037D01*
X61098D01*
X61231Y39048D01*
X61365D01*
X61653Y39059D01*
X61942Y39070D01*
X62209Y39092D01*
X62331Y39114D01*
X62442Y39126D01*
X62464D01*
X62531Y39148D01*
X62620Y39170D01*
X62742Y39203D01*
X62875Y39248D01*
X63020Y39303D01*
X63153Y39381D01*
X63287Y39470D01*
X63298Y39481D01*
X63331Y39514D01*
X63387Y39570D01*
X63453Y39648D01*
X63520Y39737D01*
X63587Y39848D01*
X63642Y39970D01*
X63687Y40114D01*
Y40137D01*
X63698Y40192D01*
X63720Y40292D01*
X63731Y40437D01*
X63742Y40525D01*
X63753Y40626D01*
X63764Y40736D01*
X63775Y40859D01*
Y40992D01*
X63787Y41137D01*
Y41303D01*
Y41470D01*
Y41481D01*
Y41492D01*
Y41559D01*
Y41659D01*
Y41781D01*
X63775Y41914D01*
Y42048D01*
X63764Y42181D01*
X63753Y42292D01*
Y42303D01*
X63742Y42336D01*
X63731Y42392D01*
X63720Y42470D01*
X63664Y42636D01*
X63587Y42814D01*
Y42825D01*
X63576Y42836D01*
X63542Y42892D01*
X63476Y42970D01*
X63387Y43070D01*
X63264Y43181D01*
X63120Y43292D01*
X62942Y43381D01*
X62742Y43459D01*
X62731D01*
X62709Y43470D01*
X62676D01*
X62631Y43481D01*
X62564Y43503D01*
X62476Y43514D01*
X62376Y43525D01*
X62265Y43547D01*
X62131Y43558D01*
X61987Y43581D01*
X61809Y43592D01*
X61631Y43603D01*
X61420Y43614D01*
X61198Y43625D01*
X60953Y43636D01*
D02*
G37*
G36*
X36723D02*
X36078D01*
X35956Y43625D01*
X35834D01*
X35556Y43614D01*
X35278Y43603D01*
X35023Y43581D01*
X34901Y43558D01*
X34789Y43547D01*
X34767D01*
X34701Y43525D01*
X34601Y43503D01*
X34467Y43470D01*
X34334Y43425D01*
X34190Y43370D01*
X34045Y43303D01*
X33923Y43225D01*
X33912Y43214D01*
X33867Y43181D01*
X33812Y43136D01*
X33745Y43058D01*
X33667Y42970D01*
X33601Y42870D01*
X33534Y42748D01*
X33479Y42614D01*
X33467Y42592D01*
X33456Y42548D01*
X33434Y42448D01*
X33412Y42325D01*
X33390Y42159D01*
X33378Y41947D01*
X33356Y41703D01*
Y41414D01*
Y41403D01*
Y41392D01*
Y41359D01*
Y41314D01*
Y41203D01*
Y41070D01*
X33367Y40925D01*
X33378Y40770D01*
X33390Y40626D01*
X33401Y40492D01*
Y40481D01*
X33412Y40437D01*
Y40381D01*
X33423Y40314D01*
X33445Y40225D01*
X33467Y40137D01*
X33523Y39948D01*
Y39937D01*
X33534Y39926D01*
X33545Y39892D01*
X33567Y39848D01*
X33634Y39748D01*
X33734Y39625D01*
X33856Y39492D01*
X34023Y39359D01*
X34234Y39248D01*
X34345Y39203D01*
X34478Y39170D01*
X34501D01*
X34545Y39159D01*
X34589Y39148D01*
X34656Y39137D01*
X34734Y39126D01*
X34834Y39114D01*
X34945Y39103D01*
X35078Y39092D01*
X35223Y39081D01*
X35378Y39070D01*
X35556Y39059D01*
X35756Y39048D01*
X35967D01*
X36200Y39037D01*
X36867D01*
X37000Y39048D01*
X37134D01*
X37422Y39059D01*
X37711Y39070D01*
X37978Y39092D01*
X38100Y39114D01*
X38211Y39126D01*
X38234D01*
X38300Y39148D01*
X38389Y39170D01*
X38511Y39203D01*
X38645Y39248D01*
X38789Y39303D01*
X38922Y39381D01*
X39056Y39470D01*
X39067Y39481D01*
X39100Y39514D01*
X39156Y39570D01*
X39222Y39648D01*
X39289Y39737D01*
X39356Y39848D01*
X39411Y39970D01*
X39456Y40114D01*
Y40137D01*
X39467Y40192D01*
X39489Y40292D01*
X39500Y40437D01*
X39511Y40525D01*
X39522Y40626D01*
X39533Y40736D01*
X39544Y40859D01*
Y40992D01*
X39556Y41137D01*
Y41303D01*
Y41470D01*
Y41481D01*
Y41492D01*
Y41559D01*
Y41659D01*
Y41781D01*
X39544Y41914D01*
Y42048D01*
X39533Y42181D01*
X39522Y42292D01*
Y42303D01*
X39511Y42336D01*
X39500Y42392D01*
X39489Y42470D01*
X39433Y42636D01*
X39356Y42814D01*
Y42825D01*
X39345Y42836D01*
X39311Y42892D01*
X39245Y42970D01*
X39156Y43070D01*
X39033Y43181D01*
X38889Y43292D01*
X38711Y43381D01*
X38511Y43459D01*
X38500D01*
X38478Y43470D01*
X38445D01*
X38400Y43481D01*
X38334Y43503D01*
X38245Y43514D01*
X38145Y43525D01*
X38034Y43547D01*
X37900Y43558D01*
X37756Y43581D01*
X37578Y43592D01*
X37400Y43603D01*
X37189Y43614D01*
X36967Y43625D01*
X36723Y43636D01*
D02*
G37*
G36*
X32734Y45314D02*
X31101D01*
Y39148D01*
X32734D01*
Y45314D01*
D02*
G37*
G36*
X53488Y43636D02*
X53288D01*
X53210Y43625D01*
X53032D01*
X52843Y43603D01*
X52632Y43581D01*
X52432Y43547D01*
X52254Y43503D01*
X52232D01*
X52177Y43481D01*
X52099Y43447D01*
X51988Y43403D01*
X51877Y43347D01*
X51743Y43270D01*
X51621Y43181D01*
X51510Y43081D01*
X51499Y43070D01*
X51466Y43025D01*
X51410Y42959D01*
X51343Y42881D01*
X51288Y42781D01*
X51221Y42659D01*
X51166Y42536D01*
X51121Y42403D01*
Y42381D01*
X51110Y42336D01*
X51088Y42236D01*
X51066Y42103D01*
X51055Y41936D01*
X51043Y41825D01*
X51032Y41714D01*
Y41592D01*
X51021Y41448D01*
Y41303D01*
Y41137D01*
Y39148D01*
X52654D01*
Y41137D01*
Y41148D01*
Y41159D01*
Y41225D01*
Y41314D01*
Y41425D01*
X52665Y41537D01*
X52677Y41659D01*
X52688Y41759D01*
X52699Y41848D01*
Y41859D01*
X52710Y41881D01*
X52721Y41914D01*
X52732Y41959D01*
X52788Y42059D01*
X52865Y42159D01*
X52877Y42170D01*
X52921Y42192D01*
X52988Y42236D01*
X53099Y42281D01*
X53243Y42325D01*
X53332Y42347D01*
X53432Y42370D01*
X53543Y42381D01*
X53676Y42392D01*
X53810Y42403D01*
X54099D01*
X54176Y42392D01*
X54254D01*
X54432Y42370D01*
X54621Y42336D01*
X54799Y42281D01*
X54965Y42214D01*
X55043Y42170D01*
X55098Y42114D01*
X55110Y42103D01*
X55121Y42081D01*
X55143Y42048D01*
X55176Y42003D01*
X55243Y41881D01*
X55287Y41714D01*
Y41703D01*
X55299Y41670D01*
Y41614D01*
X55310Y41525D01*
X55321Y41414D01*
Y41270D01*
X55332Y41103D01*
Y40892D01*
Y39148D01*
X56965D01*
Y43525D01*
X55432D01*
Y42859D01*
X55343D01*
X55332Y42881D01*
X55299Y42925D01*
X55254Y43003D01*
X55176Y43092D01*
X55087Y43192D01*
X54976Y43292D01*
X54843Y43381D01*
X54699Y43459D01*
X54676Y43470D01*
X54621Y43492D01*
X54521Y43514D01*
X54387Y43547D01*
X54221Y43581D01*
X54010Y43614D01*
X53765Y43625D01*
X53488Y43636D01*
D02*
G37*
G36*
X41633D02*
X41544D01*
X41478Y43625D01*
X41389D01*
X41300Y43614D01*
X41089Y43592D01*
X40867Y43536D01*
X40633Y43470D01*
X40422Y43381D01*
X40333Y43314D01*
X40256Y43247D01*
X40233Y43225D01*
X40189Y43170D01*
X40133Y43070D01*
X40100Y43003D01*
X40056Y42925D01*
X40022Y42836D01*
X39989Y42736D01*
X39956Y42625D01*
X39922Y42503D01*
X39900Y42370D01*
X39878Y42214D01*
X39867Y42048D01*
Y41870D01*
Y41859D01*
Y41814D01*
Y41770D01*
Y41725D01*
X39878Y41659D01*
Y41581D01*
X41422D01*
Y41603D01*
Y41648D01*
Y41714D01*
X41433Y41792D01*
X41456Y41970D01*
X41478Y42048D01*
X41500Y42114D01*
X41511Y42125D01*
X41533Y42159D01*
X41578Y42203D01*
X41655Y42259D01*
X41755Y42314D01*
X41889Y42359D01*
X42066Y42392D01*
X42278Y42403D01*
X42378D01*
X42478Y42392D01*
X42600Y42359D01*
X42744Y42325D01*
X42878Y42270D01*
X43000Y42192D01*
X43111Y42081D01*
Y42070D01*
X43133Y42059D01*
X43155Y42014D01*
X43178Y41970D01*
X43233Y41848D01*
X43277Y41692D01*
Y41681D01*
Y41648D01*
X43289Y41592D01*
Y41514D01*
X43300Y41414D01*
Y41281D01*
X43311Y41137D01*
Y40959D01*
Y39148D01*
X44944D01*
Y43525D01*
X43411D01*
Y42870D01*
X43333D01*
X43322Y42892D01*
X43289Y42936D01*
X43244Y43014D01*
X43166Y43103D01*
X43077Y43192D01*
X42977Y43292D01*
X42855Y43381D01*
X42722Y43459D01*
X42700Y43470D01*
X42655Y43492D01*
X42566Y43514D01*
X42444Y43547D01*
X42289Y43581D01*
X42100Y43614D01*
X41878Y43625D01*
X41633Y43636D01*
D02*
G37*
G36*
X49810Y44536D02*
X48177D01*
Y43525D01*
X45588D01*
Y42359D01*
X48177D01*
Y41081D01*
Y41059D01*
Y41003D01*
Y40914D01*
X48166Y40814D01*
Y40703D01*
X48144Y40592D01*
X48133Y40503D01*
X48110Y40437D01*
X48099Y40426D01*
X48088Y40403D01*
X48044Y40370D01*
X47988Y40325D01*
X47910Y40281D01*
X47810Y40248D01*
X47688Y40225D01*
X47533Y40214D01*
X47455D01*
X47377Y40225D01*
X47277Y40237D01*
X47177Y40270D01*
X47077Y40303D01*
X46999Y40359D01*
X46944Y40426D01*
X46933Y40437D01*
X46922Y40481D01*
X46899Y40537D01*
X46888Y40592D01*
Y40614D01*
Y40637D01*
X46877Y40681D01*
Y40736D01*
Y40814D01*
Y40903D01*
Y41025D01*
X45388D01*
Y41014D01*
Y41003D01*
Y40970D01*
Y40925D01*
X45399Y40814D01*
Y40670D01*
X45411Y40525D01*
X45422Y40370D01*
X45444Y40237D01*
X45466Y40114D01*
Y40103D01*
X45477Y40070D01*
X45488Y40014D01*
X45522Y39948D01*
X45555Y39870D01*
X45588Y39781D01*
X45644Y39681D01*
X45711Y39592D01*
X45722Y39581D01*
X45755Y39537D01*
X45811Y39492D01*
X45888Y39426D01*
X45988Y39348D01*
X46099Y39281D01*
X46233Y39215D01*
X46388Y39159D01*
X46411D01*
X46466Y39137D01*
X46566Y39126D01*
X46711Y39103D01*
X46888Y39081D01*
X47110Y39059D01*
X47366Y39048D01*
X47666Y39037D01*
X47933D01*
X48110Y39048D01*
X48299Y39059D01*
X48499Y39070D01*
X48677Y39092D01*
X48844Y39126D01*
X48855D01*
X48910Y39137D01*
X48977Y39159D01*
X49066Y39192D01*
X49155Y39237D01*
X49266Y39292D01*
X49366Y39359D01*
X49455Y39437D01*
X49466Y39448D01*
X49488Y39470D01*
X49510Y39503D01*
X49555Y39548D01*
X49632Y39670D01*
X49710Y39814D01*
Y39825D01*
X49721Y39848D01*
X49732Y39892D01*
X49755Y39959D01*
X49766Y40037D01*
X49788Y40137D01*
X49799Y40248D01*
X49810Y40370D01*
Y40381D01*
Y40403D01*
Y40448D01*
Y40514D01*
Y40603D01*
Y40725D01*
Y40881D01*
Y41081D01*
Y42359D01*
X50677D01*
Y43525D01*
X49810D01*
Y44536D01*
D02*
G37*
G36*
X127191Y43636D02*
X127058D01*
X126991Y43625D01*
X126914D01*
X126736Y43614D01*
X126536Y43581D01*
X126325Y43547D01*
X126125Y43492D01*
X125936Y43414D01*
X125914Y43403D01*
X125858Y43370D01*
X125769Y43325D01*
X125669Y43247D01*
X125547Y43147D01*
X125425Y43025D01*
X125314Y42881D01*
X125203Y42714D01*
Y42725D01*
X125191Y42736D01*
X125169Y42792D01*
X125114Y42881D01*
X125047Y42981D01*
X124958Y43103D01*
X124847Y43214D01*
X124714Y43325D01*
X124558Y43414D01*
X124536Y43425D01*
X124480Y43447D01*
X124369Y43481D01*
X124236Y43525D01*
X124058Y43570D01*
X123836Y43603D01*
X123592Y43625D01*
X123303Y43636D01*
X123192D01*
X123070Y43625D01*
X122914D01*
X122736Y43603D01*
X122547Y43581D01*
X122359Y43547D01*
X122192Y43503D01*
X122170Y43492D01*
X122114Y43481D01*
X122036Y43447D01*
X121936Y43403D01*
X121825Y43336D01*
X121714Y43270D01*
X121592Y43170D01*
X121481Y43070D01*
X121470Y43058D01*
X121436Y43014D01*
X121392Y42959D01*
X121325Y42870D01*
X121270Y42781D01*
X121203Y42659D01*
X121159Y42536D01*
X121114Y42403D01*
Y42381D01*
X121103Y42336D01*
X121081Y42248D01*
X121059Y42114D01*
X121047Y41947D01*
X121025Y41737D01*
X121014Y41492D01*
Y41348D01*
Y41192D01*
Y39148D01*
X122647D01*
Y41192D01*
Y41203D01*
Y41214D01*
Y41270D01*
Y41359D01*
Y41459D01*
X122670Y41670D01*
X122681Y41781D01*
X122692Y41859D01*
Y41870D01*
X122703Y41892D01*
Y41925D01*
X122725Y41970D01*
X122770Y42070D01*
X122836Y42159D01*
X122847Y42170D01*
X122881Y42192D01*
X122947Y42236D01*
X123047Y42281D01*
X123170Y42325D01*
X123336Y42370D01*
X123536Y42392D01*
X123769Y42403D01*
X123881D01*
X124014Y42392D01*
X124158Y42370D01*
X124325Y42336D01*
X124480Y42281D01*
X124625Y42214D01*
X124680Y42170D01*
X124736Y42125D01*
X124747Y42114D01*
X124758Y42103D01*
X124780Y42059D01*
X124814Y42014D01*
X124847Y41959D01*
X124880Y41892D01*
X124936Y41725D01*
Y41714D01*
X124947Y41681D01*
Y41625D01*
X124958Y41537D01*
X124969Y41425D01*
Y41292D01*
X124980Y41137D01*
Y40948D01*
Y39148D01*
X126614D01*
Y41192D01*
Y41203D01*
Y41214D01*
Y41270D01*
Y41359D01*
Y41470D01*
X126625Y41581D01*
Y41692D01*
X126636Y41792D01*
X126647Y41870D01*
Y41881D01*
X126658Y41903D01*
X126680Y41970D01*
X126725Y42059D01*
X126791Y42159D01*
X126803Y42170D01*
X126836Y42192D01*
X126902Y42236D01*
X126991Y42281D01*
X127114Y42325D01*
X127269Y42370D01*
X127469Y42392D01*
X127702Y42403D01*
X127825D01*
X127947Y42392D01*
X128102Y42370D01*
X128269Y42336D01*
X128436Y42292D01*
X128580Y42225D01*
X128702Y42136D01*
X128713Y42125D01*
X128725Y42114D01*
X128747Y42081D01*
X128780Y42036D01*
X128813Y41981D01*
X128847Y41903D01*
X128880Y41825D01*
X128902Y41737D01*
Y41725D01*
X128913Y41692D01*
Y41625D01*
X128925Y41548D01*
X128936Y41436D01*
Y41303D01*
X128947Y41137D01*
Y40948D01*
Y39148D01*
X130580D01*
Y43525D01*
X129047D01*
Y42870D01*
X128969D01*
Y42881D01*
X128947Y42903D01*
X128925Y42936D01*
X128891Y42992D01*
X128847Y43047D01*
X128780Y43114D01*
X128702Y43181D01*
X128613Y43259D01*
X128502Y43325D01*
X128380Y43392D01*
X128236Y43459D01*
X128069Y43514D01*
X127880Y43570D01*
X127680Y43603D01*
X127447Y43625D01*
X127191Y43636D01*
D02*
G37*
G36*
X107649Y45414D02*
X106682D01*
X106549Y45403D01*
X106271D01*
X105982Y45392D01*
X105716Y45380D01*
X105594Y45369D01*
X105482Y45358D01*
X105460D01*
X105394Y45347D01*
X105294Y45336D01*
X105171Y45314D01*
X105027Y45281D01*
X104882Y45247D01*
X104749Y45203D01*
X104616Y45147D01*
X104594Y45136D01*
X104549Y45114D01*
X104471Y45058D01*
X104383Y45003D01*
X104282Y44914D01*
X104194Y44814D01*
X104105Y44692D01*
X104027Y44558D01*
X104016Y44536D01*
X103994Y44481D01*
X103971Y44392D01*
X103938Y44269D01*
X103905Y44103D01*
X103871Y43903D01*
X103860Y43670D01*
X103849Y43403D01*
Y43392D01*
Y43381D01*
Y43358D01*
Y43314D01*
Y43259D01*
X103860Y43192D01*
Y43103D01*
X105738D01*
Y43114D01*
Y43147D01*
X105749Y43203D01*
Y43270D01*
X105760Y43403D01*
X105771Y43459D01*
X105782Y43503D01*
Y43525D01*
X105805Y43570D01*
X105838Y43625D01*
X105882Y43681D01*
X105905Y43703D01*
X105938Y43714D01*
X105993Y43736D01*
X106071Y43758D01*
X106160Y43781D01*
X106282Y43803D01*
X106438Y43825D01*
X106460D01*
X106516Y43836D01*
X106627D01*
X106760Y43847D01*
X106949Y43859D01*
X107182D01*
X107449Y43870D01*
X108238D01*
X108449Y43859D01*
X108649Y43847D01*
X108826Y43836D01*
X108915D01*
X108982Y43825D01*
X108993D01*
X109038Y43814D01*
X109093D01*
X109171Y43792D01*
X109326Y43747D01*
X109393Y43714D01*
X109460Y43670D01*
X109471Y43659D01*
X109482Y43647D01*
X109515Y43614D01*
X109549Y43558D01*
X109593Y43503D01*
X109626Y43425D01*
X109660Y43325D01*
X109693Y43214D01*
Y43203D01*
X109704Y43159D01*
X109715Y43081D01*
Y42970D01*
X109726Y42836D01*
X109738Y42659D01*
X109749Y42448D01*
Y42203D01*
Y42192D01*
Y42170D01*
Y42136D01*
Y42092D01*
Y41970D01*
X109738Y41814D01*
Y41659D01*
X109726Y41492D01*
X109715Y41337D01*
X109693Y41214D01*
Y41203D01*
X109682Y41170D01*
X109671Y41114D01*
X109649Y41059D01*
X109571Y40914D01*
X109526Y40859D01*
X109471Y40803D01*
X109460D01*
X109438Y40781D01*
X109404Y40759D01*
X109349Y40736D01*
X109282Y40714D01*
X109193Y40681D01*
X109093Y40659D01*
X108971Y40637D01*
X108904D01*
X108815Y40626D01*
X108682D01*
X108515Y40614D01*
X108304D01*
X108182Y40603D01*
X107160D01*
X106916Y40614D01*
X106682D01*
X106571Y40626D01*
X106471D01*
X106382Y40637D01*
X106293D01*
X106249Y40648D01*
X106182Y40659D01*
X106105Y40670D01*
X105949Y40714D01*
X105871Y40748D01*
X105816Y40792D01*
X105805Y40803D01*
X105793Y40825D01*
X105760Y40870D01*
X105727Y40948D01*
X105693Y41036D01*
X105671Y41170D01*
X105649Y41325D01*
X105638Y41525D01*
X103760D01*
Y41503D01*
Y41448D01*
X103749Y41370D01*
Y41281D01*
Y41181D01*
X103738Y41081D01*
Y41003D01*
Y40936D01*
Y40925D01*
Y40903D01*
Y40870D01*
Y40814D01*
X103749Y40692D01*
X103760Y40537D01*
X103794Y40348D01*
X103827Y40170D01*
X103883Y39992D01*
X103960Y39825D01*
X103971Y39803D01*
X104005Y39748D01*
X104071Y39670D01*
X104160Y39581D01*
X104282Y39470D01*
X104449Y39370D01*
X104649Y39281D01*
X104882Y39203D01*
X104894D01*
X104916Y39192D01*
X104960D01*
X105016Y39181D01*
X105094Y39170D01*
X105182Y39159D01*
X105294Y39137D01*
X105427Y39126D01*
X105582Y39114D01*
X105749Y39092D01*
X105949Y39081D01*
X106160Y39070D01*
X106393Y39059D01*
X106649D01*
X106927Y39048D01*
X107827D01*
X108004Y39059D01*
X108615D01*
X109038Y39081D01*
X109238D01*
X109426Y39092D01*
X109593Y39103D01*
X109749Y39114D01*
X109782D01*
X109815Y39126D01*
X109871D01*
X110004Y39148D01*
X110171Y39170D01*
X110349Y39203D01*
X110537Y39248D01*
X110715Y39303D01*
X110871Y39370D01*
X110882Y39381D01*
X110926Y39403D01*
X110982Y39448D01*
X111060Y39492D01*
X111137Y39570D01*
X111226Y39648D01*
X111304Y39737D01*
X111371Y39848D01*
X111382Y39859D01*
X111393Y39903D01*
X111426Y39970D01*
X111460Y40059D01*
X111493Y40181D01*
X111537Y40325D01*
X111571Y40481D01*
X111593Y40670D01*
Y40692D01*
Y40714D01*
Y40759D01*
X111604Y40803D01*
Y40859D01*
Y40936D01*
Y41014D01*
X111615Y41114D01*
Y41225D01*
Y41348D01*
Y41492D01*
X111626Y41648D01*
Y41814D01*
Y41992D01*
Y42192D01*
Y42203D01*
Y42236D01*
Y42292D01*
Y42370D01*
Y42459D01*
Y42559D01*
Y42781D01*
X111615Y43036D01*
Y43292D01*
X111604Y43536D01*
X111593Y43636D01*
Y43736D01*
Y43747D01*
Y43758D01*
X111582Y43814D01*
X111571Y43903D01*
X111560Y44003D01*
X111537Y44125D01*
X111504Y44247D01*
X111471Y44370D01*
X111437Y44469D01*
Y44481D01*
X111426Y44492D01*
X111382Y44570D01*
X111315Y44669D01*
X111204Y44792D01*
X111060Y44914D01*
X110882Y45047D01*
X110782Y45103D01*
X110660Y45147D01*
X110537Y45203D01*
X110393Y45236D01*
X110382D01*
X110349Y45247D01*
X110304Y45258D01*
X110238Y45269D01*
X110137Y45281D01*
X110015Y45292D01*
X109871Y45314D01*
X109704Y45325D01*
X109504Y45347D01*
X109271Y45358D01*
X109015Y45369D01*
X108715Y45392D01*
X108393Y45403D01*
X108038D01*
X107649Y45414D01*
D02*
G37*
G36*
X82140Y45314D02*
X80507D01*
Y44081D01*
X82140D01*
Y45314D01*
D02*
G37*
G36*
X132957D02*
X131324D01*
Y44081D01*
X132957D01*
Y45314D01*
D02*
G37*
G36*
X103149D02*
X101516D01*
Y44081D01*
X103149D01*
Y45314D01*
D02*
G37*
G36*
X68164Y45414D02*
X67197D01*
X67064Y45403D01*
X66786D01*
X66497Y45392D01*
X66231Y45380D01*
X66109Y45369D01*
X65997Y45358D01*
X65975D01*
X65909Y45347D01*
X65809Y45336D01*
X65686Y45314D01*
X65542Y45281D01*
X65398Y45247D01*
X65264Y45203D01*
X65131Y45147D01*
X65109Y45136D01*
X65064Y45114D01*
X64986Y45058D01*
X64898Y45003D01*
X64798Y44914D01*
X64709Y44814D01*
X64620Y44692D01*
X64542Y44558D01*
X64531Y44536D01*
X64509Y44481D01*
X64486Y44392D01*
X64453Y44269D01*
X64420Y44103D01*
X64386Y43903D01*
X64375Y43670D01*
X64364Y43403D01*
Y43392D01*
Y43381D01*
Y43358D01*
Y43314D01*
Y43259D01*
X64375Y43192D01*
Y43103D01*
X66253D01*
Y43114D01*
Y43147D01*
X66264Y43203D01*
Y43270D01*
X66275Y43403D01*
X66286Y43459D01*
X66297Y43503D01*
Y43525D01*
X66320Y43570D01*
X66353Y43625D01*
X66397Y43681D01*
X66420Y43703D01*
X66453Y43714D01*
X66509Y43736D01*
X66586Y43758D01*
X66675Y43781D01*
X66797Y43803D01*
X66953Y43825D01*
X66975D01*
X67031Y43836D01*
X67142D01*
X67275Y43847D01*
X67464Y43859D01*
X67697D01*
X67964Y43870D01*
X68753D01*
X68964Y43859D01*
X69164Y43847D01*
X69342Y43836D01*
X69430D01*
X69497Y43825D01*
X69508D01*
X69553Y43814D01*
X69608D01*
X69686Y43792D01*
X69841Y43747D01*
X69908Y43714D01*
X69975Y43670D01*
X69986Y43659D01*
X69997Y43647D01*
X70030Y43614D01*
X70064Y43558D01*
X70108Y43503D01*
X70142Y43425D01*
X70175Y43325D01*
X70208Y43214D01*
Y43203D01*
X70219Y43159D01*
X70230Y43081D01*
Y42970D01*
X70241Y42836D01*
X70253Y42659D01*
X70264Y42448D01*
Y42203D01*
Y42192D01*
Y42170D01*
Y42136D01*
Y42092D01*
Y41970D01*
X70253Y41814D01*
Y41659D01*
X70241Y41492D01*
X70230Y41337D01*
X70208Y41214D01*
Y41203D01*
X70197Y41170D01*
X70186Y41114D01*
X70164Y41059D01*
X70086Y40914D01*
X70042Y40859D01*
X69986Y40803D01*
X69975D01*
X69953Y40781D01*
X69919Y40759D01*
X69864Y40736D01*
X69797Y40714D01*
X69708Y40681D01*
X69608Y40659D01*
X69486Y40637D01*
X69419D01*
X69330Y40626D01*
X69197D01*
X69030Y40614D01*
X68819D01*
X68697Y40603D01*
X67675D01*
X67431Y40614D01*
X67197D01*
X67086Y40626D01*
X66986D01*
X66897Y40637D01*
X66808D01*
X66764Y40648D01*
X66697Y40659D01*
X66620Y40670D01*
X66464Y40714D01*
X66386Y40748D01*
X66331Y40792D01*
X66320Y40803D01*
X66308Y40825D01*
X66275Y40870D01*
X66242Y40948D01*
X66208Y41036D01*
X66186Y41170D01*
X66164Y41325D01*
X66153Y41525D01*
X64275D01*
Y41503D01*
Y41448D01*
X64264Y41370D01*
Y41281D01*
Y41181D01*
X64253Y41081D01*
Y41003D01*
Y40936D01*
Y40925D01*
Y40903D01*
Y40870D01*
Y40814D01*
X64264Y40692D01*
X64275Y40537D01*
X64309Y40348D01*
X64342Y40170D01*
X64398Y39992D01*
X64475Y39825D01*
X64486Y39803D01*
X64520Y39748D01*
X64587Y39670D01*
X64675Y39581D01*
X64798Y39470D01*
X64964Y39370D01*
X65164Y39281D01*
X65398Y39203D01*
X65409D01*
X65431Y39192D01*
X65475D01*
X65531Y39181D01*
X65609Y39170D01*
X65697Y39159D01*
X65809Y39137D01*
X65942Y39126D01*
X66097Y39114D01*
X66264Y39092D01*
X66464Y39081D01*
X66675Y39070D01*
X66909Y39059D01*
X67164D01*
X67442Y39048D01*
X68342D01*
X68519Y39059D01*
X69130D01*
X69553Y39081D01*
X69753D01*
X69942Y39092D01*
X70108Y39103D01*
X70264Y39114D01*
X70297D01*
X70330Y39126D01*
X70386D01*
X70519Y39148D01*
X70686Y39170D01*
X70864Y39203D01*
X71052Y39248D01*
X71230Y39303D01*
X71386Y39370D01*
X71397Y39381D01*
X71441Y39403D01*
X71497Y39448D01*
X71575Y39492D01*
X71652Y39570D01*
X71741Y39648D01*
X71819Y39737D01*
X71886Y39848D01*
X71897Y39859D01*
X71908Y39903D01*
X71941Y39970D01*
X71975Y40059D01*
X72008Y40181D01*
X72052Y40325D01*
X72086Y40481D01*
X72108Y40670D01*
Y40692D01*
Y40714D01*
Y40759D01*
X72119Y40803D01*
Y40859D01*
Y40936D01*
Y41014D01*
X72130Y41114D01*
Y41225D01*
Y41348D01*
Y41492D01*
X72141Y41648D01*
Y41814D01*
Y41992D01*
Y42192D01*
Y42203D01*
Y42236D01*
Y42292D01*
Y42370D01*
Y42459D01*
Y42559D01*
Y42781D01*
X72130Y43036D01*
Y43292D01*
X72119Y43536D01*
X72108Y43636D01*
Y43736D01*
Y43747D01*
Y43758D01*
X72097Y43814D01*
X72086Y43903D01*
X72075Y44003D01*
X72052Y44125D01*
X72019Y44247D01*
X71986Y44370D01*
X71952Y44469D01*
Y44481D01*
X71941Y44492D01*
X71897Y44570D01*
X71830Y44669D01*
X71719Y44792D01*
X71575Y44914D01*
X71397Y45047D01*
X71297Y45103D01*
X71175Y45147D01*
X71052Y45203D01*
X70908Y45236D01*
X70897D01*
X70864Y45247D01*
X70819Y45258D01*
X70753Y45269D01*
X70653Y45281D01*
X70530Y45292D01*
X70386Y45314D01*
X70219Y45325D01*
X70019Y45347D01*
X69786Y45358D01*
X69530Y45369D01*
X69231Y45392D01*
X68908Y45403D01*
X68553D01*
X68164Y45414D01*
D02*
G37*
G36*
X79263Y44536D02*
X77630D01*
Y43525D01*
X75041D01*
Y42359D01*
X77630D01*
Y41081D01*
Y41059D01*
Y41003D01*
Y40914D01*
X77618Y40814D01*
Y40703D01*
X77596Y40592D01*
X77585Y40503D01*
X77563Y40437D01*
X77552Y40426D01*
X77541Y40403D01*
X77496Y40370D01*
X77441Y40325D01*
X77363Y40281D01*
X77263Y40248D01*
X77141Y40225D01*
X76985Y40214D01*
X76907D01*
X76830Y40225D01*
X76730Y40237D01*
X76630Y40270D01*
X76530Y40303D01*
X76452Y40359D01*
X76396Y40426D01*
X76385Y40437D01*
X76374Y40481D01*
X76352Y40537D01*
X76341Y40592D01*
Y40614D01*
Y40637D01*
X76330Y40681D01*
Y40736D01*
Y40814D01*
Y40903D01*
Y41025D01*
X74841D01*
Y41014D01*
Y41003D01*
Y40970D01*
Y40925D01*
X74852Y40814D01*
Y40670D01*
X74863Y40525D01*
X74874Y40370D01*
X74897Y40237D01*
X74919Y40114D01*
Y40103D01*
X74930Y40070D01*
X74941Y40014D01*
X74974Y39948D01*
X75008Y39870D01*
X75041Y39781D01*
X75096Y39681D01*
X75163Y39592D01*
X75174Y39581D01*
X75208Y39537D01*
X75263Y39492D01*
X75341Y39426D01*
X75441Y39348D01*
X75552Y39281D01*
X75685Y39215D01*
X75841Y39159D01*
X75863D01*
X75919Y39137D01*
X76019Y39126D01*
X76163Y39103D01*
X76341Y39081D01*
X76563Y39059D01*
X76819Y39048D01*
X77119Y39037D01*
X77385D01*
X77563Y39048D01*
X77752Y39059D01*
X77952Y39070D01*
X78130Y39092D01*
X78296Y39126D01*
X78307D01*
X78363Y39137D01*
X78430Y39159D01*
X78518Y39192D01*
X78607Y39237D01*
X78718Y39292D01*
X78818Y39359D01*
X78907Y39437D01*
X78918Y39448D01*
X78941Y39470D01*
X78963Y39503D01*
X79007Y39548D01*
X79085Y39670D01*
X79163Y39814D01*
Y39825D01*
X79174Y39848D01*
X79185Y39892D01*
X79207Y39959D01*
X79218Y40037D01*
X79241Y40137D01*
X79252Y40248D01*
X79263Y40370D01*
Y40381D01*
Y40403D01*
Y40448D01*
Y40514D01*
Y40603D01*
Y40725D01*
Y40881D01*
Y41081D01*
Y42359D01*
X80129D01*
Y43525D01*
X79263D01*
Y44536D01*
D02*
G37*
G36*
X92784Y43636D02*
X92017D01*
X91906Y43625D01*
X91784D01*
X91517Y43614D01*
X91239Y43592D01*
X90984Y43570D01*
X90862Y43558D01*
X90750Y43536D01*
X90728D01*
X90662Y43514D01*
X90562Y43492D01*
X90428Y43459D01*
X90295Y43403D01*
X90151Y43347D01*
X90006Y43270D01*
X89884Y43181D01*
X89873Y43170D01*
X89840Y43147D01*
X89795Y43103D01*
X89740Y43036D01*
X89684Y42959D01*
X89617Y42870D01*
X89562Y42770D01*
X89517Y42659D01*
Y42647D01*
X89495Y42603D01*
X89484Y42536D01*
X89462Y42436D01*
X89439Y42303D01*
X89417Y42147D01*
X89395Y41959D01*
X89384Y41748D01*
X91050D01*
Y41759D01*
X91062Y41803D01*
X91084Y41870D01*
X91106Y41947D01*
X91150Y42036D01*
X91217Y42114D01*
X91295Y42192D01*
X91395Y42259D01*
X91406Y42270D01*
X91451Y42281D01*
X91528Y42303D01*
X91628Y42336D01*
X91761Y42359D01*
X91939Y42381D01*
X92150Y42392D01*
X92395Y42403D01*
X92517D01*
X92639Y42392D01*
X92795Y42381D01*
X92961Y42370D01*
X93128Y42347D01*
X93284Y42303D01*
X93406Y42259D01*
X93417D01*
X93439Y42236D01*
X93506Y42192D01*
X93550Y42147D01*
X93595Y42092D01*
X93639Y42025D01*
X93673Y41947D01*
Y41936D01*
X93684Y41903D01*
X93695Y41859D01*
X93706Y41792D01*
X93717Y41703D01*
X93728Y41592D01*
X93739Y41459D01*
Y41303D01*
Y41281D01*
Y41236D01*
Y41159D01*
X93728Y41070D01*
X93706Y40870D01*
X93684Y40781D01*
X93661Y40692D01*
Y40681D01*
X93650Y40659D01*
X93628Y40626D01*
X93595Y40581D01*
X93561Y40537D01*
X93506Y40481D01*
X93450Y40437D01*
X93372Y40403D01*
X93361D01*
X93317Y40381D01*
X93239Y40359D01*
X93139Y40337D01*
X92995Y40314D01*
X92828Y40292D01*
X92617Y40281D01*
X92373Y40270D01*
X92250D01*
X92128Y40281D01*
X91973D01*
X91817Y40303D01*
X91650Y40325D01*
X91506Y40348D01*
X91384Y40392D01*
X91373Y40403D01*
X91339Y40414D01*
X91295Y40459D01*
X91239Y40503D01*
X91184Y40581D01*
X91139Y40670D01*
X91095Y40770D01*
X91062Y40903D01*
X89395D01*
Y40892D01*
Y40881D01*
Y40814D01*
X89406Y40714D01*
X89417Y40592D01*
X89428Y40459D01*
X89451Y40314D01*
X89473Y40181D01*
X89506Y40059D01*
Y40048D01*
X89528Y40014D01*
X89551Y39959D01*
X89573Y39892D01*
X89673Y39737D01*
X89728Y39648D01*
X89806Y39559D01*
X89817Y39548D01*
X89862Y39514D01*
X89928Y39459D01*
X90028Y39392D01*
X90151Y39326D01*
X90295Y39259D01*
X90462Y39192D01*
X90650Y39148D01*
X90673D01*
X90706Y39137D01*
X90750Y39126D01*
X90817D01*
X90884Y39114D01*
X90973Y39103D01*
X91073Y39092D01*
X91195Y39081D01*
X91328Y39070D01*
X91484Y39059D01*
X91639D01*
X91828Y39048D01*
X92028Y39037D01*
X92817D01*
X93050Y39048D01*
X93295Y39059D01*
X93550Y39070D01*
X93784Y39092D01*
X93895Y39114D01*
X93995Y39126D01*
X94017D01*
X94072Y39137D01*
X94172Y39159D01*
X94283Y39192D01*
X94417Y39237D01*
X94561Y39292D01*
X94695Y39359D01*
X94828Y39437D01*
X94839Y39448D01*
X94884Y39481D01*
X94939Y39526D01*
X95006Y39603D01*
X95072Y39692D01*
X95150Y39803D01*
X95217Y39926D01*
X95272Y40070D01*
Y40092D01*
X95294Y40148D01*
X95306Y40248D01*
X95328Y40392D01*
X95350Y40570D01*
X95361Y40792D01*
X95383Y41059D01*
Y41359D01*
Y41370D01*
Y41392D01*
Y41436D01*
Y41492D01*
Y41559D01*
X95372Y41625D01*
Y41803D01*
X95361Y41992D01*
X95339Y42192D01*
X95306Y42381D01*
X95272Y42548D01*
X95261Y42570D01*
X95250Y42614D01*
X95217Y42692D01*
X95183Y42781D01*
X95128Y42881D01*
X95061Y42992D01*
X94972Y43103D01*
X94872Y43192D01*
X94861Y43203D01*
X94817Y43236D01*
X94750Y43270D01*
X94650Y43325D01*
X94528Y43381D01*
X94395Y43436D01*
X94228Y43492D01*
X94039Y43536D01*
X94017D01*
X93984Y43547D01*
X93939D01*
X93884Y43558D01*
X93817Y43570D01*
X93728Y43581D01*
X93628Y43592D01*
X93528D01*
X93406Y43603D01*
X93273Y43614D01*
X93117Y43625D01*
X92961D01*
X92784Y43636D01*
D02*
G37*
G36*
X88806Y43525D02*
X87173D01*
Y41514D01*
Y41492D01*
Y41436D01*
Y41348D01*
X87162Y41248D01*
X87151Y41025D01*
X87140Y40925D01*
X87129Y40837D01*
Y40825D01*
X87118Y40803D01*
X87106Y40770D01*
X87084Y40725D01*
X87040Y40614D01*
X86951Y40503D01*
X86940D01*
X86929Y40481D01*
X86895Y40459D01*
X86851Y40426D01*
X86740Y40370D01*
X86595Y40314D01*
X86584D01*
X86551Y40303D01*
X86495D01*
X86418Y40292D01*
X86318Y40281D01*
X86207D01*
X86062Y40270D01*
X85762D01*
X85629Y40281D01*
X85462Y40303D01*
X85284Y40325D01*
X85107Y40370D01*
X84940Y40426D01*
X84873Y40459D01*
X84818Y40503D01*
X84807Y40514D01*
X84785Y40537D01*
X84762Y40570D01*
X84718Y40614D01*
X84684Y40670D01*
X84640Y40736D01*
X84607Y40814D01*
X84584Y40903D01*
Y40914D01*
X84573Y40948D01*
X84562Y41014D01*
X84551Y41103D01*
X84540Y41214D01*
X84529Y41370D01*
X84518Y41548D01*
Y41759D01*
Y43525D01*
X82885D01*
Y39148D01*
X84418D01*
Y39803D01*
X84507D01*
X84518Y39781D01*
X84540Y39737D01*
X84596Y39659D01*
X84662Y39570D01*
X84751Y39470D01*
X84851Y39370D01*
X84984Y39281D01*
X85129Y39203D01*
X85151Y39192D01*
X85207Y39181D01*
X85307Y39148D01*
X85440Y39126D01*
X85618Y39092D01*
X85840Y39059D01*
X86095Y39048D01*
X86384Y39037D01*
X86573D01*
X86651Y39048D01*
X86818D01*
X87006Y39070D01*
X87218Y39092D01*
X87418Y39114D01*
X87595Y39159D01*
X87617Y39170D01*
X87673Y39181D01*
X87751Y39215D01*
X87851Y39259D01*
X87973Y39314D01*
X88095Y39392D01*
X88217Y39481D01*
X88328Y39581D01*
X88340Y39592D01*
X88373Y39637D01*
X88428Y39703D01*
X88484Y39781D01*
X88551Y39881D01*
X88617Y40003D01*
X88673Y40126D01*
X88717Y40259D01*
Y40281D01*
X88728Y40325D01*
X88740Y40426D01*
X88762Y40559D01*
X88773Y40725D01*
X88784Y40825D01*
X88795Y40948D01*
Y41070D01*
X88806Y41203D01*
Y41359D01*
Y41514D01*
Y43525D01*
D02*
G37*
G36*
X106854Y37726D02*
X103932D01*
X100711Y31560D01*
X102844D01*
X103366Y32604D01*
X107454D01*
X107977Y31560D01*
X110110D01*
X106854Y37726D01*
D02*
G37*
G36*
X117109Y37804D02*
X115887D01*
X115709Y37792D01*
X115509D01*
X115098Y37781D01*
X114687Y37759D01*
X114498Y37748D01*
X114309Y37726D01*
X114143Y37715D01*
X113998Y37692D01*
X113987D01*
X113965Y37681D01*
X113920D01*
X113865Y37659D01*
X113798Y37648D01*
X113721Y37626D01*
X113543Y37559D01*
X113354Y37459D01*
X113165Y37337D01*
X112998Y37170D01*
X112920Y37081D01*
X112854Y36970D01*
X112843Y36959D01*
X112832Y36915D01*
X112798Y36859D01*
X112765Y36770D01*
X112732Y36681D01*
X112698Y36559D01*
X112676Y36437D01*
X112654Y36304D01*
Y36281D01*
Y36259D01*
X112643Y36226D01*
Y36182D01*
Y36126D01*
X112632Y36048D01*
Y35959D01*
Y35859D01*
X112621Y35737D01*
Y35604D01*
Y35448D01*
X112610Y35282D01*
Y35082D01*
Y34870D01*
Y34637D01*
Y34626D01*
Y34593D01*
Y34537D01*
Y34470D01*
Y34393D01*
Y34304D01*
Y34093D01*
Y33871D01*
X112621Y33648D01*
Y33560D01*
Y33471D01*
X112632Y33393D01*
Y33326D01*
Y33315D01*
Y33282D01*
Y33226D01*
X112643Y33160D01*
X112654Y33071D01*
Y32982D01*
X112687Y32782D01*
Y32771D01*
X112698Y32748D01*
Y32715D01*
X112709Y32671D01*
X112754Y32548D01*
X112821Y32393D01*
X112909Y32226D01*
X113032Y32060D01*
X113187Y31915D01*
X113387Y31782D01*
X113398D01*
X113432Y31760D01*
X113487Y31738D01*
X113554Y31704D01*
X113632Y31682D01*
X113732Y31649D01*
X113843Y31615D01*
X113965Y31593D01*
X113976D01*
X114020Y31582D01*
X114098Y31571D01*
X114198Y31560D01*
X114331Y31549D01*
X114487Y31538D01*
X114676Y31526D01*
X114887Y31515D01*
X115009D01*
X115076Y31504D01*
X115354D01*
X115598Y31493D01*
X115865D01*
X116165Y31482D01*
X116920D01*
X117087Y31493D01*
X117464D01*
X117876Y31504D01*
X118287Y31526D01*
X118475Y31538D01*
X118664Y31549D01*
X118831Y31560D01*
X118975Y31582D01*
X118987D01*
X119009Y31593D01*
X119053D01*
X119109Y31615D01*
X119176Y31626D01*
X119253Y31649D01*
X119431Y31715D01*
X119620Y31815D01*
X119809Y31937D01*
X119975Y32104D01*
X120053Y32193D01*
X120120Y32304D01*
X120131Y32315D01*
X120142Y32360D01*
X120175Y32415D01*
X120209Y32504D01*
X120242Y32604D01*
X120275Y32715D01*
X120298Y32837D01*
X120320Y32971D01*
Y32993D01*
Y33015D01*
Y33048D01*
X120331Y33093D01*
Y33160D01*
Y33237D01*
Y33326D01*
X120342Y33437D01*
Y33560D01*
Y33704D01*
Y33871D01*
X120353Y34048D01*
Y34248D01*
Y34482D01*
Y34726D01*
Y34737D01*
Y34771D01*
Y34815D01*
Y34882D01*
Y34948D01*
Y35037D01*
Y35226D01*
Y35437D01*
Y35626D01*
X120342Y35804D01*
Y35882D01*
Y35937D01*
Y35948D01*
Y35982D01*
X120331Y36048D01*
Y36115D01*
X120320Y36204D01*
X120309Y36292D01*
X120287Y36492D01*
Y36504D01*
X120275Y36526D01*
Y36559D01*
X120253Y36604D01*
X120220Y36726D01*
X120153Y36881D01*
X120064Y37048D01*
X119942Y37215D01*
X119787Y37359D01*
X119587Y37492D01*
X119575Y37503D01*
X119542Y37515D01*
X119487Y37537D01*
X119420Y37570D01*
X119342Y37592D01*
X119242Y37626D01*
X119131Y37659D01*
X119020Y37681D01*
X119009D01*
X118953Y37692D01*
X118887Y37703D01*
X118775Y37715D01*
X118642Y37737D01*
X118487Y37748D01*
X118298Y37759D01*
X118087Y37770D01*
X118020D01*
X117964Y37781D01*
X117720D01*
X117620Y37792D01*
X117387D01*
X117109Y37804D01*
D02*
G37*
G36*
X54649D02*
X53426D01*
X53249Y37792D01*
X53049D01*
X52638Y37781D01*
X52227Y37759D01*
X52038Y37748D01*
X51849Y37726D01*
X51682Y37715D01*
X51538Y37692D01*
X51527D01*
X51504Y37681D01*
X51460D01*
X51405Y37659D01*
X51338Y37648D01*
X51260Y37626D01*
X51082Y37559D01*
X50893Y37459D01*
X50704Y37337D01*
X50538Y37170D01*
X50460Y37081D01*
X50393Y36970D01*
X50382Y36959D01*
X50371Y36915D01*
X50338Y36859D01*
X50305Y36770D01*
X50271Y36681D01*
X50238Y36559D01*
X50216Y36437D01*
X50194Y36304D01*
Y36281D01*
Y36259D01*
X50182Y36226D01*
Y36182D01*
Y36126D01*
X50171Y36048D01*
Y35959D01*
Y35859D01*
X50160Y35737D01*
Y35604D01*
Y35448D01*
X50149Y35282D01*
Y35082D01*
Y34870D01*
Y34637D01*
Y34626D01*
Y34593D01*
Y34537D01*
Y34470D01*
Y34393D01*
Y34304D01*
Y34093D01*
Y33871D01*
X50160Y33648D01*
Y33560D01*
Y33471D01*
X50171Y33393D01*
Y33326D01*
Y33315D01*
Y33282D01*
Y33226D01*
X50182Y33160D01*
X50194Y33071D01*
Y32982D01*
X50227Y32782D01*
Y32771D01*
X50238Y32748D01*
Y32715D01*
X50249Y32671D01*
X50293Y32548D01*
X50360Y32393D01*
X50449Y32226D01*
X50571Y32060D01*
X50727Y31915D01*
X50927Y31782D01*
X50938D01*
X50971Y31760D01*
X51027Y31738D01*
X51093Y31704D01*
X51171Y31682D01*
X51271Y31649D01*
X51382Y31615D01*
X51504Y31593D01*
X51516D01*
X51560Y31582D01*
X51638Y31571D01*
X51738Y31560D01*
X51871Y31549D01*
X52027Y31538D01*
X52215Y31526D01*
X52427Y31515D01*
X52549D01*
X52615Y31504D01*
X52893D01*
X53138Y31493D01*
X53404D01*
X53704Y31482D01*
X54460D01*
X54626Y31493D01*
X55004D01*
X55415Y31504D01*
X55826Y31526D01*
X56015Y31538D01*
X56204Y31549D01*
X56371Y31560D01*
X56515Y31582D01*
X56526D01*
X56548Y31593D01*
X56593D01*
X56648Y31615D01*
X56715Y31626D01*
X56793Y31649D01*
X56971Y31715D01*
X57160Y31815D01*
X57348Y31937D01*
X57515Y32104D01*
X57593Y32193D01*
X57659Y32304D01*
X57670Y32315D01*
X57682Y32360D01*
X57715Y32415D01*
X57748Y32504D01*
X57782Y32604D01*
X57815Y32715D01*
X57837Y32837D01*
X57859Y32971D01*
Y32993D01*
Y33015D01*
Y33048D01*
X57871Y33093D01*
Y33160D01*
Y33237D01*
Y33326D01*
X57882Y33437D01*
Y33560D01*
Y33704D01*
Y33871D01*
X57893Y34048D01*
Y34248D01*
Y34482D01*
Y34726D01*
Y34737D01*
Y34771D01*
Y34815D01*
Y34882D01*
Y34948D01*
Y35037D01*
Y35226D01*
Y35437D01*
Y35626D01*
X57882Y35804D01*
Y35882D01*
Y35937D01*
Y35948D01*
Y35982D01*
X57871Y36048D01*
Y36115D01*
X57859Y36204D01*
X57848Y36292D01*
X57826Y36492D01*
Y36504D01*
X57815Y36526D01*
Y36559D01*
X57793Y36604D01*
X57759Y36726D01*
X57693Y36881D01*
X57604Y37048D01*
X57482Y37215D01*
X57326Y37359D01*
X57126Y37492D01*
X57115Y37503D01*
X57082Y37515D01*
X57026Y37537D01*
X56959Y37570D01*
X56882Y37592D01*
X56782Y37626D01*
X56671Y37659D01*
X56559Y37681D01*
X56548D01*
X56493Y37692D01*
X56426Y37703D01*
X56315Y37715D01*
X56182Y37737D01*
X56026Y37748D01*
X55837Y37759D01*
X55626Y37770D01*
X55560D01*
X55504Y37781D01*
X55260D01*
X55160Y37792D01*
X54926D01*
X54649Y37804D01*
D02*
G37*
G36*
X87101Y35937D02*
X85468D01*
Y33926D01*
Y33904D01*
Y33848D01*
Y33759D01*
X85457Y33659D01*
X85445Y33437D01*
X85434Y33337D01*
X85423Y33248D01*
Y33237D01*
X85412Y33215D01*
X85401Y33182D01*
X85379Y33137D01*
X85334Y33026D01*
X85246Y32915D01*
X85234D01*
X85223Y32893D01*
X85190Y32871D01*
X85145Y32837D01*
X85034Y32782D01*
X84890Y32726D01*
X84879D01*
X84846Y32715D01*
X84790D01*
X84712Y32704D01*
X84612Y32693D01*
X84501D01*
X84357Y32682D01*
X84057D01*
X83923Y32693D01*
X83757Y32715D01*
X83579Y32737D01*
X83401Y32782D01*
X83235Y32837D01*
X83168Y32871D01*
X83112Y32915D01*
X83101Y32926D01*
X83079Y32948D01*
X83057Y32982D01*
X83012Y33026D01*
X82979Y33082D01*
X82935Y33148D01*
X82901Y33226D01*
X82879Y33315D01*
Y33326D01*
X82868Y33360D01*
X82857Y33426D01*
X82846Y33515D01*
X82835Y33626D01*
X82824Y33782D01*
X82812Y33959D01*
Y34170D01*
Y35937D01*
X81179D01*
Y31560D01*
X82713D01*
Y32215D01*
X82801D01*
X82812Y32193D01*
X82835Y32149D01*
X82890Y32071D01*
X82957Y31982D01*
X83046Y31882D01*
X83146Y31782D01*
X83279Y31693D01*
X83424Y31615D01*
X83446Y31604D01*
X83501Y31593D01*
X83601Y31560D01*
X83735Y31538D01*
X83912Y31504D01*
X84135Y31471D01*
X84390Y31460D01*
X84679Y31449D01*
X84868D01*
X84946Y31460D01*
X85112D01*
X85301Y31482D01*
X85512Y31504D01*
X85712Y31526D01*
X85890Y31571D01*
X85912Y31582D01*
X85968Y31593D01*
X86045Y31626D01*
X86145Y31671D01*
X86268Y31726D01*
X86390Y31804D01*
X86512Y31893D01*
X86623Y31993D01*
X86634Y32004D01*
X86668Y32048D01*
X86723Y32115D01*
X86779Y32193D01*
X86845Y32293D01*
X86912Y32415D01*
X86968Y32537D01*
X87012Y32671D01*
Y32693D01*
X87023Y32737D01*
X87034Y32837D01*
X87056Y32971D01*
X87068Y33137D01*
X87079Y33237D01*
X87090Y33360D01*
Y33482D01*
X87101Y33615D01*
Y33771D01*
Y33926D01*
Y35937D01*
D02*
G37*
G36*
X73425Y36948D02*
X71791D01*
Y35937D01*
X69203D01*
Y34771D01*
X71791D01*
Y33493D01*
Y33471D01*
Y33415D01*
Y33326D01*
X71780Y33226D01*
Y33115D01*
X71758Y33004D01*
X71747Y32915D01*
X71725Y32849D01*
X71714Y32837D01*
X71702Y32815D01*
X71658Y32782D01*
X71602Y32737D01*
X71525Y32693D01*
X71425Y32660D01*
X71302Y32637D01*
X71147Y32626D01*
X71069D01*
X70991Y32637D01*
X70891Y32649D01*
X70791Y32682D01*
X70691Y32715D01*
X70614Y32771D01*
X70558Y32837D01*
X70547Y32849D01*
X70536Y32893D01*
X70514Y32948D01*
X70503Y33004D01*
Y33026D01*
Y33048D01*
X70491Y33093D01*
Y33148D01*
Y33226D01*
Y33315D01*
Y33437D01*
X69003D01*
Y33426D01*
Y33415D01*
Y33382D01*
Y33337D01*
X69014Y33226D01*
Y33082D01*
X69025Y32937D01*
X69036Y32782D01*
X69058Y32649D01*
X69081Y32526D01*
Y32515D01*
X69092Y32482D01*
X69103Y32426D01*
X69136Y32360D01*
X69169Y32282D01*
X69203Y32193D01*
X69258Y32093D01*
X69325Y32004D01*
X69336Y31993D01*
X69369Y31949D01*
X69425Y31904D01*
X69503Y31837D01*
X69603Y31760D01*
X69714Y31693D01*
X69847Y31626D01*
X70003Y31571D01*
X70025D01*
X70080Y31549D01*
X70180Y31538D01*
X70325Y31515D01*
X70503Y31493D01*
X70725Y31471D01*
X70980Y31460D01*
X71280Y31449D01*
X71547D01*
X71725Y31460D01*
X71913Y31471D01*
X72114Y31482D01*
X72291Y31504D01*
X72458Y31538D01*
X72469D01*
X72525Y31549D01*
X72591Y31571D01*
X72680Y31604D01*
X72769Y31649D01*
X72880Y31704D01*
X72980Y31771D01*
X73069Y31849D01*
X73080Y31860D01*
X73102Y31882D01*
X73124Y31915D01*
X73169Y31960D01*
X73247Y32082D01*
X73325Y32226D01*
Y32237D01*
X73336Y32260D01*
X73347Y32304D01*
X73369Y32371D01*
X73380Y32449D01*
X73402Y32548D01*
X73413Y32660D01*
X73425Y32782D01*
Y32793D01*
Y32815D01*
Y32860D01*
Y32926D01*
Y33015D01*
Y33137D01*
Y33293D01*
Y33493D01*
Y34771D01*
X74291D01*
Y35937D01*
X73425D01*
Y36948D01*
D02*
G37*
G36*
X123175Y33204D02*
X121197D01*
Y31560D01*
X123175D01*
Y33204D01*
D02*
G37*
G36*
X103360Y28282D02*
X101727D01*
Y25827D01*
X101661D01*
X101649Y25849D01*
X101627Y25894D01*
X101572Y25971D01*
X101505Y26060D01*
X101416Y26149D01*
X101305Y26249D01*
X101183Y26338D01*
X101027Y26416D01*
X101005Y26427D01*
X100950Y26449D01*
X100849Y26471D01*
X100716Y26516D01*
X100538Y26549D01*
X100338Y26571D01*
X100094Y26594D01*
X99816Y26605D01*
X99627D01*
X99561Y26594D01*
X99394D01*
X99205Y26571D01*
X99005Y26549D01*
X98816Y26516D01*
X98639Y26471D01*
X98616D01*
X98561Y26449D01*
X98483Y26416D01*
X98383Y26371D01*
X98272Y26316D01*
X98150Y26238D01*
X98028Y26149D01*
X97917Y26049D01*
X97905Y26038D01*
X97872Y25994D01*
X97816Y25938D01*
X97761Y25860D01*
X97694Y25760D01*
X97628Y25649D01*
X97572Y25516D01*
X97528Y25383D01*
Y25360D01*
X97517Y25316D01*
X97494Y25227D01*
X97472Y25105D01*
X97461Y24949D01*
X97439Y24749D01*
X97428Y24516D01*
Y24249D01*
Y22116D01*
X99061D01*
Y24249D01*
Y24272D01*
Y24316D01*
Y24383D01*
Y24460D01*
X99083Y24638D01*
X99094Y24727D01*
X99105Y24805D01*
Y24816D01*
X99116Y24838D01*
Y24871D01*
X99139Y24916D01*
X99183Y25016D01*
X99250Y25105D01*
X99261Y25116D01*
X99294Y25149D01*
X99372Y25194D01*
X99472Y25238D01*
X99538Y25260D01*
X99616Y25282D01*
X99705Y25305D01*
X99805Y25327D01*
X99916Y25349D01*
X100050Y25360D01*
X100183Y25371D01*
X100483D01*
X100549Y25360D01*
X100627D01*
X100805Y25338D01*
X100994Y25305D01*
X101183Y25249D01*
X101349Y25183D01*
X101427Y25138D01*
X101483Y25083D01*
X101494Y25071D01*
X101505Y25060D01*
X101527Y25027D01*
X101561Y24983D01*
X101627Y24871D01*
X101683Y24716D01*
Y24705D01*
X101694Y24671D01*
Y24616D01*
X101705Y24538D01*
X101716Y24438D01*
Y24305D01*
X101727Y24160D01*
Y23983D01*
Y22116D01*
X103360D01*
Y28282D01*
D02*
G37*
G36*
X64220Y26605D02*
X64087D01*
X64020Y26594D01*
X63942D01*
X63764Y26582D01*
X63564Y26549D01*
X63353Y26516D01*
X63153Y26460D01*
X62964Y26382D01*
X62942Y26371D01*
X62887Y26338D01*
X62798Y26294D01*
X62698Y26216D01*
X62576Y26116D01*
X62453Y25994D01*
X62342Y25849D01*
X62231Y25683D01*
Y25694D01*
X62220Y25705D01*
X62198Y25760D01*
X62142Y25849D01*
X62076Y25949D01*
X61987Y26071D01*
X61876Y26182D01*
X61742Y26294D01*
X61587Y26382D01*
X61565Y26393D01*
X61509Y26416D01*
X61398Y26449D01*
X61265Y26493D01*
X61087Y26538D01*
X60865Y26571D01*
X60620Y26594D01*
X60331Y26605D01*
X60220D01*
X60098Y26594D01*
X59943D01*
X59765Y26571D01*
X59576Y26549D01*
X59387Y26516D01*
X59220Y26471D01*
X59198Y26460D01*
X59143Y26449D01*
X59065Y26416D01*
X58965Y26371D01*
X58854Y26305D01*
X58743Y26238D01*
X58620Y26138D01*
X58509Y26038D01*
X58498Y26027D01*
X58465Y25982D01*
X58420Y25927D01*
X58354Y25838D01*
X58298Y25749D01*
X58232Y25627D01*
X58187Y25505D01*
X58143Y25371D01*
Y25349D01*
X58132Y25305D01*
X58109Y25216D01*
X58087Y25083D01*
X58076Y24916D01*
X58054Y24705D01*
X58043Y24460D01*
Y24316D01*
Y24160D01*
Y22116D01*
X59676D01*
Y24160D01*
Y24171D01*
Y24183D01*
Y24238D01*
Y24327D01*
Y24427D01*
X59698Y24638D01*
X59709Y24749D01*
X59720Y24827D01*
Y24838D01*
X59731Y24860D01*
Y24894D01*
X59754Y24938D01*
X59798Y25038D01*
X59865Y25127D01*
X59876Y25138D01*
X59909Y25160D01*
X59976Y25205D01*
X60076Y25249D01*
X60198Y25294D01*
X60365Y25338D01*
X60565Y25360D01*
X60798Y25371D01*
X60909D01*
X61042Y25360D01*
X61187Y25338D01*
X61353Y25305D01*
X61509Y25249D01*
X61653Y25183D01*
X61709Y25138D01*
X61765Y25094D01*
X61776Y25083D01*
X61787Y25071D01*
X61809Y25027D01*
X61842Y24983D01*
X61876Y24927D01*
X61909Y24860D01*
X61964Y24694D01*
Y24683D01*
X61976Y24649D01*
Y24594D01*
X61987Y24505D01*
X61998Y24394D01*
Y24260D01*
X62009Y24105D01*
Y23916D01*
Y22116D01*
X63642D01*
Y24160D01*
Y24171D01*
Y24183D01*
Y24238D01*
Y24327D01*
Y24438D01*
X63653Y24549D01*
Y24660D01*
X63664Y24760D01*
X63675Y24838D01*
Y24849D01*
X63687Y24871D01*
X63709Y24938D01*
X63753Y25027D01*
X63820Y25127D01*
X63831Y25138D01*
X63864Y25160D01*
X63931Y25205D01*
X64020Y25249D01*
X64142Y25294D01*
X64298Y25338D01*
X64498Y25360D01*
X64731Y25371D01*
X64853D01*
X64975Y25360D01*
X65131Y25338D01*
X65298Y25305D01*
X65464Y25260D01*
X65609Y25194D01*
X65731Y25105D01*
X65742Y25094D01*
X65753Y25083D01*
X65775Y25049D01*
X65809Y25005D01*
X65842Y24949D01*
X65875Y24871D01*
X65909Y24794D01*
X65931Y24705D01*
Y24694D01*
X65942Y24660D01*
Y24594D01*
X65953Y24516D01*
X65964Y24405D01*
Y24272D01*
X65975Y24105D01*
Y23916D01*
Y22116D01*
X67608D01*
Y26493D01*
X66075D01*
Y25838D01*
X65997D01*
Y25849D01*
X65975Y25871D01*
X65953Y25905D01*
X65920Y25960D01*
X65875Y26016D01*
X65809Y26083D01*
X65731Y26149D01*
X65642Y26227D01*
X65531Y26294D01*
X65409Y26360D01*
X65264Y26427D01*
X65097Y26482D01*
X64909Y26538D01*
X64709Y26571D01*
X64475Y26594D01*
X64220Y26605D01*
D02*
G37*
G36*
X117592D02*
X116959D01*
X116737Y26594D01*
X116492Y26582D01*
X116248Y26571D01*
X116037Y26549D01*
X115937Y26527D01*
X115859Y26516D01*
X115837D01*
X115793Y26505D01*
X115715Y26471D01*
X115626Y26438D01*
X115515Y26393D01*
X115404Y26338D01*
X115293Y26260D01*
X115181Y26160D01*
X115170Y26149D01*
X115148Y26127D01*
X115115Y26083D01*
X115070Y26016D01*
X115015Y25938D01*
X114970Y25849D01*
X114926Y25749D01*
X114893Y25638D01*
Y25627D01*
X114881Y25583D01*
X114859Y25516D01*
X114848Y25416D01*
X114826Y25282D01*
X114815Y25127D01*
X114804Y24949D01*
Y24738D01*
Y22116D01*
X116381D01*
Y22716D01*
X116459D01*
X116470Y22694D01*
X116492Y22649D01*
X116537Y22583D01*
X116592Y22505D01*
X116670Y22405D01*
X116770Y22316D01*
X116892Y22227D01*
X117026Y22161D01*
X117037D01*
X117059Y22150D01*
X117115Y22138D01*
X117181Y22116D01*
X117259Y22105D01*
X117359Y22083D01*
X117481Y22061D01*
X117614Y22050D01*
X117637D01*
X117681Y22038D01*
X117770D01*
X117903Y22027D01*
X118070Y22016D01*
X118270D01*
X118514Y22005D01*
X119026D01*
X119181Y22016D01*
X119337Y22027D01*
X119514Y22038D01*
X119681Y22061D01*
X119825Y22094D01*
X119836D01*
X119881Y22105D01*
X119948Y22127D01*
X120025Y22161D01*
X120214Y22250D01*
X120303Y22305D01*
X120392Y22372D01*
X120403Y22383D01*
X120436Y22427D01*
X120492Y22505D01*
X120548Y22605D01*
X120603Y22749D01*
X120659Y22916D01*
X120692Y23116D01*
X120703Y23360D01*
Y23372D01*
Y23394D01*
Y23438D01*
X120692Y23483D01*
X120681Y23616D01*
X120659Y23783D01*
X120614Y23960D01*
X120548Y24138D01*
X120459Y24316D01*
X120336Y24460D01*
X120325Y24472D01*
X120281Y24505D01*
X120214Y24549D01*
X120125Y24605D01*
X120014Y24660D01*
X119881Y24716D01*
X119725Y24771D01*
X119548Y24805D01*
X119525D01*
X119492Y24816D01*
X119448D01*
X119392Y24827D01*
X119325Y24838D01*
X119237D01*
X119137Y24849D01*
X119026Y24860D01*
X118892Y24871D01*
X118748D01*
X118581Y24883D01*
X118403D01*
X118203Y24894D01*
X117559D01*
X117437Y24883D01*
X117303D01*
X117170Y24871D01*
X117048Y24849D01*
X116948Y24827D01*
X116937D01*
X116903Y24816D01*
X116859Y24794D01*
X116804Y24771D01*
X116737Y24727D01*
X116659Y24683D01*
X116592Y24627D01*
X116515Y24549D01*
X116437D01*
Y24771D01*
Y24783D01*
Y24794D01*
Y24849D01*
X116448Y24938D01*
X116459Y25049D01*
X116481Y25149D01*
X116526Y25260D01*
X116570Y25349D01*
X116637Y25416D01*
X116648Y25427D01*
X116681Y25438D01*
X116737Y25460D01*
X116826Y25482D01*
X116948Y25505D01*
X117115Y25527D01*
X117203Y25538D01*
X117315Y25549D01*
X117859D01*
X118037Y25538D01*
X118226Y25527D01*
X118403Y25516D01*
X118548Y25494D01*
X118614Y25482D01*
X118659Y25471D01*
X118670D01*
X118692Y25460D01*
X118726Y25438D01*
X118770Y25405D01*
X118814Y25360D01*
X118848Y25294D01*
X118881Y25216D01*
X118903Y25116D01*
X120536D01*
Y25127D01*
Y25138D01*
X120525Y25194D01*
X120514Y25294D01*
X120492Y25405D01*
X120470Y25527D01*
X120425Y25649D01*
X120381Y25771D01*
X120314Y25883D01*
X120303Y25905D01*
X120259Y25949D01*
X120192Y26027D01*
X120092Y26116D01*
X119970Y26205D01*
X119814Y26305D01*
X119625Y26382D01*
X119414Y26449D01*
X119403D01*
X119381Y26460D01*
X119348D01*
X119292Y26471D01*
X119226Y26482D01*
X119137Y26493D01*
X119037Y26516D01*
X118914Y26527D01*
X118781Y26538D01*
X118625Y26560D01*
X118459Y26571D01*
X118270Y26582D01*
X118059Y26594D01*
X117837D01*
X117592Y26605D01*
D02*
G37*
G36*
X77835Y36059D02*
X77146D01*
X76902Y36048D01*
X76635Y36037D01*
X76369Y36026D01*
X76113Y36004D01*
X76002Y35982D01*
X75902Y35970D01*
X75880D01*
X75813Y35948D01*
X75724Y35926D01*
X75613Y35893D01*
X75480Y35848D01*
X75358Y35793D01*
X75224Y35726D01*
X75113Y35648D01*
X75102Y35637D01*
X75091Y35626D01*
X75058Y35593D01*
X75024Y35548D01*
X74936Y35437D01*
X74869Y35293D01*
Y35282D01*
X74858Y35259D01*
X74847Y35204D01*
X74824Y35148D01*
X74802Y35059D01*
X74791Y34959D01*
X74769Y34837D01*
X74758Y34704D01*
X76424D01*
Y34715D01*
X76435Y34726D01*
X76458Y34793D01*
X76491Y34859D01*
X76513Y34893D01*
X76535Y34915D01*
X76546Y34926D01*
X76580Y34937D01*
X76646Y34959D01*
X76746Y34982D01*
X76880Y35004D01*
X76969Y35015D01*
X77057Y35026D01*
X77169Y35037D01*
X77291Y35048D01*
X77824D01*
X77991Y35037D01*
X78157Y35026D01*
X78335Y35015D01*
X78491Y34993D01*
X78557Y34982D01*
X78613Y34971D01*
X78624D01*
X78657Y34959D01*
X78702Y34937D01*
X78746Y34904D01*
X78802Y34870D01*
X78846Y34815D01*
X78879Y34759D01*
X78891Y34682D01*
Y34670D01*
X78879Y34637D01*
X78868Y34593D01*
X78846Y34548D01*
X78791Y34493D01*
X78724Y34448D01*
X78635Y34415D01*
X78502Y34393D01*
X78368D01*
X78302Y34382D01*
X78113D01*
X77980Y34370D01*
X77435D01*
X77202Y34359D01*
X76924D01*
X76624Y34348D01*
X76124D01*
X76058Y34337D01*
X75969D01*
X75769Y34315D01*
X75546Y34271D01*
X75324Y34215D01*
X75124Y34137D01*
X75024Y34093D01*
X74947Y34037D01*
X74924Y34026D01*
X74880Y33982D01*
X74813Y33904D01*
X74735Y33793D01*
X74658Y33648D01*
X74591Y33471D01*
X74547Y33248D01*
X74524Y32982D01*
Y32960D01*
Y32904D01*
X74536Y32804D01*
X74547Y32693D01*
X74569Y32560D01*
X74591Y32426D01*
X74635Y32293D01*
X74691Y32171D01*
X74702Y32160D01*
X74724Y32115D01*
X74758Y32060D01*
X74813Y31993D01*
X74891Y31926D01*
X74980Y31849D01*
X75080Y31782D01*
X75202Y31715D01*
X75213D01*
X75235Y31704D01*
X75269Y31693D01*
X75324Y31671D01*
X75391Y31649D01*
X75480Y31626D01*
X75591Y31604D01*
X75724Y31582D01*
X75880Y31560D01*
X76058Y31538D01*
X76257Y31515D01*
X76480Y31493D01*
X76735Y31471D01*
X77013Y31460D01*
X77324Y31449D01*
X78069D01*
X78191Y31460D01*
X78324D01*
X78602Y31471D01*
X78891Y31482D01*
X79157Y31504D01*
X79268Y31526D01*
X79379Y31538D01*
X79402D01*
X79468Y31560D01*
X79557Y31582D01*
X79668Y31615D01*
X79802Y31660D01*
X79935Y31726D01*
X80068Y31804D01*
X80190Y31893D01*
X80202Y31904D01*
X80246Y31960D01*
X80313Y32037D01*
X80379Y32149D01*
X80446Y32293D01*
X80513Y32482D01*
X80557Y32693D01*
X80579Y32948D01*
X78913D01*
Y32937D01*
X78902Y32904D01*
X78891Y32849D01*
X78868Y32793D01*
X78824Y32726D01*
X78768Y32660D01*
X78702Y32604D01*
X78602Y32560D01*
X78591D01*
X78546Y32548D01*
X78468Y32526D01*
X78357Y32515D01*
X78213Y32493D01*
X78035Y32471D01*
X77813Y32460D01*
X77280D01*
X77113Y32471D01*
X76924Y32482D01*
X76746Y32493D01*
X76591Y32515D01*
X76513Y32526D01*
X76458Y32537D01*
X76446D01*
X76413Y32560D01*
X76369Y32582D01*
X76313Y32615D01*
X76257Y32660D01*
X76213Y32715D01*
X76180Y32782D01*
X76169Y32860D01*
Y32871D01*
Y32893D01*
X76180Y32937D01*
X76202Y32982D01*
X76235Y33037D01*
X76291Y33093D01*
X76358Y33137D01*
X76446Y33171D01*
X76458D01*
X76491Y33182D01*
X76602D01*
X76669Y33193D01*
X76846D01*
X76957Y33204D01*
X77246D01*
X77424Y33215D01*
X78235D01*
X78468Y33226D01*
X78724D01*
X78957Y33237D01*
X79068D01*
X79157Y33248D01*
X79235D01*
X79302Y33259D01*
X79335D01*
X79368Y33271D01*
X79424Y33282D01*
X79557Y33315D01*
X79713Y33360D01*
X79891Y33426D01*
X80057Y33515D01*
X80213Y33626D01*
X80279Y33693D01*
X80335Y33759D01*
X80346Y33771D01*
X80368Y33815D01*
X80402Y33882D01*
X80435Y33971D01*
X80468Y34093D01*
X80502Y34226D01*
X80524Y34393D01*
X80535Y34571D01*
Y34582D01*
Y34615D01*
Y34659D01*
X80524Y34726D01*
X80513Y34804D01*
X80502Y34893D01*
X80446Y35093D01*
X80357Y35304D01*
X80302Y35415D01*
X80235Y35515D01*
X80157Y35604D01*
X80057Y35693D01*
X79946Y35770D01*
X79824Y35837D01*
X79813D01*
X79802Y35848D01*
X79757Y35859D01*
X79713Y35870D01*
X79646Y35893D01*
X79557Y35904D01*
X79457Y35926D01*
X79335Y35948D01*
X79191Y35970D01*
X79024Y35993D01*
X78835Y36004D01*
X78624Y36026D01*
X78391Y36037D01*
X78135Y36048D01*
X77835Y36059D01*
D02*
G37*
G36*
X69986Y28282D02*
X68353D01*
Y27049D01*
X69986D01*
Y28282D01*
D02*
G37*
G36*
X57332D02*
X55699D01*
Y25905D01*
X55632D01*
X55621Y25927D01*
X55587Y25971D01*
X55532Y26038D01*
X55465Y26127D01*
X55376Y26216D01*
X55265Y26305D01*
X55143Y26382D01*
X55010Y26449D01*
X54987Y26460D01*
X54932Y26471D01*
X54843Y26493D01*
X54710Y26527D01*
X54543Y26560D01*
X54332Y26582D01*
X54088Y26594D01*
X53799Y26605D01*
X53521D01*
X53332Y26594D01*
X53121Y26582D01*
X52910Y26560D01*
X52699Y26538D01*
X52499Y26505D01*
X52477D01*
X52421Y26482D01*
X52332Y26460D01*
X52221Y26427D01*
X52099Y26382D01*
X51965Y26327D01*
X51832Y26271D01*
X51721Y26194D01*
X51710Y26182D01*
X51666Y26149D01*
X51621Y26094D01*
X51554Y26027D01*
X51477Y25927D01*
X51410Y25816D01*
X51343Y25694D01*
X51288Y25549D01*
X51277Y25527D01*
X51266Y25471D01*
X51243Y25383D01*
X51221Y25249D01*
X51199Y25083D01*
X51188Y24860D01*
X51166Y24616D01*
Y24316D01*
Y24305D01*
Y24294D01*
Y24227D01*
Y24127D01*
Y24005D01*
X51177Y23872D01*
X51188Y23727D01*
X51199Y23594D01*
X51210Y23472D01*
Y23460D01*
X51221Y23427D01*
Y23372D01*
X51232Y23294D01*
X51254Y23216D01*
X51277Y23116D01*
X51332Y22927D01*
X51343Y22905D01*
X51366Y22849D01*
X51421Y22749D01*
X51499Y22649D01*
X51599Y22527D01*
X51721Y22405D01*
X51877Y22294D01*
X52065Y22205D01*
X52077D01*
X52088Y22194D01*
X52121Y22183D01*
X52166Y22172D01*
X52221Y22161D01*
X52299Y22138D01*
X52388Y22127D01*
X52477Y22105D01*
X52588Y22083D01*
X52721Y22072D01*
X52854Y22050D01*
X53010Y22038D01*
X53176Y22027D01*
X53354Y22016D01*
X53543Y22005D01*
X53943D01*
X54032Y22016D01*
X54143D01*
X54376Y22038D01*
X54643Y22072D01*
X54899Y22116D01*
X55021Y22138D01*
X55143Y22172D01*
X55243Y22216D01*
X55332Y22261D01*
X55343Y22272D01*
X55365Y22283D01*
X55410Y22316D01*
X55454Y22361D01*
X55510Y22416D01*
X55576Y22494D01*
X55643Y22583D01*
X55710Y22694D01*
X55787D01*
Y22116D01*
X57332D01*
Y28282D01*
D02*
G37*
G36*
X91489Y36048D02*
X91078D01*
X91000Y36037D01*
X90812Y36026D01*
X90612Y36015D01*
X90412Y35993D01*
X90212Y35948D01*
X90134Y35926D01*
X90056Y35904D01*
X90034Y35893D01*
X89990Y35882D01*
X89923Y35837D01*
X89834Y35781D01*
X89734Y35715D01*
X89623Y35615D01*
X89512Y35504D01*
X89412Y35359D01*
X89323D01*
Y35937D01*
X87790D01*
Y31904D01*
Y31893D01*
Y31882D01*
Y31815D01*
Y31726D01*
Y31604D01*
X87801Y31482D01*
Y31371D01*
X87812Y31260D01*
X87823Y31171D01*
Y31160D01*
Y31137D01*
X87834Y31093D01*
X87845Y31038D01*
X87856Y30971D01*
X87879Y30893D01*
X87934Y30704D01*
Y30693D01*
X87956Y30649D01*
X87979Y30593D01*
X88023Y30515D01*
X88068Y30438D01*
X88134Y30338D01*
X88212Y30238D01*
X88301Y30149D01*
X88312Y30138D01*
X88345Y30104D01*
X88390Y30071D01*
X88467Y30015D01*
X88545Y29960D01*
X88645Y29893D01*
X88745Y29838D01*
X88867Y29793D01*
X88879D01*
X88901Y29782D01*
X88934Y29771D01*
X89001Y29760D01*
X89067Y29738D01*
X89156Y29715D01*
X89267Y29693D01*
X89390Y29682D01*
X89534Y29660D01*
X89689Y29638D01*
X89867Y29615D01*
X90056Y29593D01*
X90267Y29582D01*
X90501Y29571D01*
X90745Y29560D01*
X91267D01*
X91367Y29571D01*
X91589D01*
X91845Y29582D01*
X92100Y29604D01*
X92345Y29638D01*
X92456Y29649D01*
X92556Y29671D01*
X92578D01*
X92645Y29693D01*
X92734Y29715D01*
X92845Y29760D01*
X92978Y29804D01*
X93123Y29871D01*
X93256Y29949D01*
X93378Y30049D01*
X93400Y30071D01*
X93445Y30115D01*
X93511Y30204D01*
X93589Y30327D01*
X93678Y30482D01*
X93756Y30671D01*
X93822Y30893D01*
X93867Y31160D01*
X92189D01*
X92178Y31115D01*
Y31104D01*
X92167Y31071D01*
X92145Y31026D01*
X92111Y30982D01*
X92078Y30926D01*
X92023Y30871D01*
X91956Y30815D01*
X91878Y30782D01*
X91867D01*
X91834Y30771D01*
X91767Y30760D01*
X91678Y30738D01*
X91556Y30726D01*
X91400Y30704D01*
X91201Y30693D01*
X90756D01*
X90623Y30704D01*
X90467D01*
X90312Y30726D01*
X90178Y30738D01*
X90056Y30760D01*
X90045D01*
X90012Y30771D01*
X89956Y30793D01*
X89890Y30815D01*
X89745Y30882D01*
X89678Y30926D01*
X89612Y30982D01*
Y30993D01*
X89590Y31004D01*
X89556Y31071D01*
X89501Y31171D01*
X89467Y31293D01*
Y31304D01*
X89456Y31326D01*
Y31371D01*
X89445Y31438D01*
X89434Y31515D01*
Y31626D01*
X89423Y31749D01*
Y31904D01*
Y32293D01*
X89490D01*
X89501Y32271D01*
X89534Y32226D01*
X89590Y32160D01*
X89667Y32071D01*
X89756Y31982D01*
X89867Y31893D01*
X89990Y31815D01*
X90123Y31749D01*
X90145D01*
X90189Y31726D01*
X90278Y31704D01*
X90412Y31682D01*
X90567Y31660D01*
X90778Y31637D01*
X91012Y31626D01*
X91300Y31615D01*
X91589D01*
X91778Y31626D01*
X91989Y31637D01*
X92212Y31649D01*
X92434Y31671D01*
X92623Y31693D01*
X92645D01*
X92700Y31715D01*
X92789Y31738D01*
X92889Y31760D01*
X93011Y31804D01*
X93134Y31849D01*
X93267Y31915D01*
X93378Y31982D01*
X93389Y31993D01*
X93434Y32026D01*
X93489Y32082D01*
X93567Y32160D01*
X93645Y32248D01*
X93722Y32360D01*
X93789Y32482D01*
X93845Y32626D01*
Y32649D01*
X93867Y32704D01*
X93878Y32804D01*
X93900Y32937D01*
X93922Y33115D01*
X93945Y33326D01*
X93956Y33582D01*
X93967Y33882D01*
Y33893D01*
Y33926D01*
Y33982D01*
Y34048D01*
X93956Y34126D01*
Y34226D01*
X93934Y34448D01*
X93900Y34682D01*
X93856Y34915D01*
X93800Y35126D01*
X93756Y35226D01*
X93711Y35304D01*
X93700Y35326D01*
X93667Y35370D01*
X93600Y35448D01*
X93511Y35537D01*
X93411Y35626D01*
X93267Y35726D01*
X93111Y35815D01*
X92923Y35882D01*
X92911D01*
X92900Y35893D01*
X92867D01*
X92823Y35904D01*
X92767Y35926D01*
X92700Y35937D01*
X92611Y35948D01*
X92523Y35970D01*
X92412Y35982D01*
X92289Y35993D01*
X92156Y36015D01*
X92011Y36026D01*
X91845Y36037D01*
X91678D01*
X91489Y36048D01*
D02*
G37*
G36*
X128886Y37726D02*
X125908D01*
Y31560D01*
X127786D01*
Y36115D01*
X128275D01*
X130097Y34571D01*
X131141Y35781D01*
X128886Y37726D01*
D02*
G37*
G36*
X37850Y37804D02*
X36406D01*
X35995Y37792D01*
X35795D01*
X35606Y37781D01*
X35417D01*
X35262Y37770D01*
X35117D01*
X35006Y37759D01*
X34984D01*
X34917Y37748D01*
X34817Y37737D01*
X34706Y37715D01*
X34573Y37681D01*
X34428Y37648D01*
X34295Y37592D01*
X34173Y37537D01*
X34162Y37526D01*
X34117Y37503D01*
X34062Y37459D01*
X33984Y37392D01*
X33917Y37315D01*
X33840Y37215D01*
X33762Y37104D01*
X33706Y36970D01*
X33695Y36948D01*
X33684Y36904D01*
X33662Y36815D01*
X33640Y36693D01*
X33617Y36537D01*
X33595Y36348D01*
X33573Y36115D01*
Y35848D01*
Y35837D01*
Y35826D01*
Y35759D01*
Y35659D01*
X33584Y35537D01*
Y35404D01*
X33595Y35259D01*
X33617Y35115D01*
X33640Y34993D01*
Y34982D01*
X33651Y34937D01*
X33662Y34882D01*
X33684Y34815D01*
X33751Y34637D01*
X33851Y34459D01*
X33862Y34448D01*
X33884Y34415D01*
X33928Y34359D01*
X33995Y34304D01*
X34062Y34237D01*
X34151Y34159D01*
X34262Y34104D01*
X34373Y34048D01*
X34384D01*
X34395Y34037D01*
X34428Y34026D01*
X34473Y34015D01*
X34528Y34004D01*
X34595Y33982D01*
X34751Y33948D01*
X34951Y33904D01*
X35184Y33860D01*
X35451Y33826D01*
X35739Y33804D01*
X35828D01*
X35917Y33793D01*
X36051Y33782D01*
X36206D01*
X36384Y33771D01*
X36573Y33759D01*
X36773Y33737D01*
X37195Y33715D01*
X37406Y33704D01*
X37606Y33682D01*
X37795Y33671D01*
X37973Y33659D01*
X38117Y33648D01*
X38239Y33637D01*
X38261D01*
X38328Y33626D01*
X38428Y33615D01*
X38539Y33604D01*
X38661Y33582D01*
X38772Y33560D01*
X38861Y33537D01*
X38928Y33504D01*
X38950Y33493D01*
X38984Y33459D01*
X39039Y33404D01*
X39072Y33337D01*
Y33315D01*
X39083Y33293D01*
Y33259D01*
X39095Y33215D01*
Y33148D01*
X39106Y33071D01*
X39117Y32982D01*
X33473D01*
Y31560D01*
X40839D01*
Y31571D01*
Y31626D01*
Y31693D01*
Y31782D01*
X40850Y31882D01*
Y32004D01*
Y32260D01*
Y32271D01*
Y32304D01*
Y32360D01*
Y32437D01*
Y32526D01*
Y32626D01*
X40839Y32849D01*
Y33104D01*
X40817Y33348D01*
X40806Y33582D01*
X40794Y33693D01*
X40783Y33782D01*
Y33793D01*
X40772Y33815D01*
X40761Y33860D01*
X40750Y33926D01*
X40728Y33993D01*
X40694Y34071D01*
X40606Y34237D01*
X40550Y34337D01*
X40483Y34426D01*
X40406Y34515D01*
X40306Y34604D01*
X40206Y34682D01*
X40083Y34748D01*
X39950Y34815D01*
X39794Y34859D01*
X39783D01*
X39739Y34870D01*
X39672Y34882D01*
X39583Y34904D01*
X39494Y34926D01*
X39383Y34937D01*
X39172Y34971D01*
X39161D01*
X39106Y34982D01*
X39072D01*
X39017Y34993D01*
X38950D01*
X38861Y35004D01*
X38772Y35015D01*
X38661Y35026D01*
X38528Y35037D01*
X38372Y35048D01*
X38206Y35059D01*
X38017Y35082D01*
X37795Y35093D01*
X37561Y35115D01*
X37506D01*
X37439Y35126D01*
X37350D01*
X37250Y35137D01*
X37139Y35148D01*
X36873Y35159D01*
X36606Y35181D01*
X36484Y35193D01*
X36362Y35204D01*
X36250D01*
X36150Y35215D01*
X36073Y35226D01*
X36006D01*
X35973Y35237D01*
X35928D01*
X35873Y35248D01*
X35739Y35282D01*
X35606Y35315D01*
X35595D01*
X35584Y35326D01*
X35517Y35359D01*
X35439Y35404D01*
X35384Y35470D01*
X35373Y35493D01*
X35362Y35515D01*
X35350Y35548D01*
Y35604D01*
X35339Y35659D01*
X35328Y35737D01*
Y35826D01*
Y35837D01*
Y35870D01*
Y35915D01*
X35339Y35970D01*
X35350Y36104D01*
X35373Y36159D01*
X35395Y36204D01*
Y36215D01*
X35406Y36226D01*
X35439Y36270D01*
X35517Y36326D01*
X35617Y36370D01*
X35628D01*
X35662Y36381D01*
X35695Y36393D01*
X35739D01*
X35795Y36404D01*
X35873Y36415D01*
X35950D01*
X36051Y36426D01*
X36162D01*
X36295Y36437D01*
X36450D01*
X36617Y36448D01*
X37606D01*
X37839Y36437D01*
X38084Y36426D01*
X38306Y36415D01*
X38395D01*
X38484Y36404D01*
X38506D01*
X38550Y36393D01*
X38617D01*
X38706Y36381D01*
X38783Y36359D01*
X38872Y36337D01*
X38939Y36315D01*
X38995Y36281D01*
X39006Y36270D01*
X39039Y36226D01*
X39072Y36159D01*
X39095Y36070D01*
Y36059D01*
Y36037D01*
Y36004D01*
Y35937D01*
X39106Y35859D01*
Y35748D01*
Y35604D01*
Y35437D01*
X40928D01*
Y35448D01*
Y35470D01*
Y35504D01*
Y35559D01*
Y35693D01*
X40917Y35848D01*
Y36037D01*
X40905Y36215D01*
X40894Y36404D01*
X40872Y36559D01*
Y36570D01*
X40861Y36593D01*
Y36626D01*
X40850Y36670D01*
X40806Y36792D01*
X40750Y36937D01*
X40672Y37093D01*
X40561Y37248D01*
X40428Y37392D01*
X40250Y37503D01*
X40239Y37515D01*
X40183Y37526D01*
X40106Y37559D01*
X39994Y37592D01*
X39861Y37637D01*
X39694Y37670D01*
X39506Y37703D01*
X39283Y37737D01*
X39250D01*
X39217Y37748D01*
X39106D01*
X39017Y37759D01*
X38928D01*
X38817Y37770D01*
X38695Y37781D01*
X38550D01*
X38406Y37792D01*
X38050D01*
X37850Y37804D01*
D02*
G37*
G36*
X63048D02*
X61603D01*
X61192Y37792D01*
X60992D01*
X60804Y37781D01*
X60615D01*
X60459Y37770D01*
X60315D01*
X60204Y37759D01*
X60181D01*
X60115Y37748D01*
X60015Y37737D01*
X59904Y37715D01*
X59770Y37681D01*
X59626Y37648D01*
X59493Y37592D01*
X59370Y37537D01*
X59359Y37526D01*
X59315Y37503D01*
X59259Y37459D01*
X59181Y37392D01*
X59115Y37315D01*
X59037Y37215D01*
X58959Y37104D01*
X58904Y36970D01*
X58893Y36948D01*
X58881Y36904D01*
X58859Y36815D01*
X58837Y36693D01*
X58815Y36537D01*
X58793Y36348D01*
X58770Y36115D01*
Y35848D01*
Y35837D01*
Y35826D01*
Y35759D01*
Y35659D01*
X58781Y35537D01*
Y35404D01*
X58793Y35259D01*
X58815Y35115D01*
X58837Y34993D01*
Y34982D01*
X58848Y34937D01*
X58859Y34882D01*
X58881Y34815D01*
X58948Y34637D01*
X59048Y34459D01*
X59059Y34448D01*
X59082Y34415D01*
X59126Y34359D01*
X59193Y34304D01*
X59259Y34237D01*
X59348Y34159D01*
X59459Y34104D01*
X59570Y34048D01*
X59581D01*
X59592Y34037D01*
X59626Y34026D01*
X59670Y34015D01*
X59726Y34004D01*
X59793Y33982D01*
X59948Y33948D01*
X60148Y33904D01*
X60381Y33860D01*
X60648Y33826D01*
X60937Y33804D01*
X61026D01*
X61115Y33793D01*
X61248Y33782D01*
X61404D01*
X61581Y33771D01*
X61770Y33759D01*
X61970Y33737D01*
X62392Y33715D01*
X62603Y33704D01*
X62803Y33682D01*
X62992Y33671D01*
X63170Y33659D01*
X63314Y33648D01*
X63437Y33637D01*
X63459D01*
X63525Y33626D01*
X63626Y33615D01*
X63737Y33604D01*
X63859Y33582D01*
X63970Y33560D01*
X64059Y33537D01*
X64125Y33504D01*
X64148Y33493D01*
X64181Y33459D01*
X64236Y33404D01*
X64270Y33337D01*
Y33315D01*
X64281Y33293D01*
Y33259D01*
X64292Y33215D01*
Y33148D01*
X64303Y33071D01*
X64314Y32982D01*
X58670D01*
Y31560D01*
X66036D01*
Y31571D01*
Y31626D01*
Y31693D01*
Y31782D01*
X66048Y31882D01*
Y32004D01*
Y32260D01*
Y32271D01*
Y32304D01*
Y32360D01*
Y32437D01*
Y32526D01*
Y32626D01*
X66036Y32849D01*
Y33104D01*
X66014Y33348D01*
X66003Y33582D01*
X65992Y33693D01*
X65981Y33782D01*
Y33793D01*
X65970Y33815D01*
X65959Y33860D01*
X65948Y33926D01*
X65925Y33993D01*
X65892Y34071D01*
X65803Y34237D01*
X65747Y34337D01*
X65681Y34426D01*
X65603Y34515D01*
X65503Y34604D01*
X65403Y34682D01*
X65281Y34748D01*
X65148Y34815D01*
X64992Y34859D01*
X64981D01*
X64937Y34870D01*
X64870Y34882D01*
X64781Y34904D01*
X64692Y34926D01*
X64581Y34937D01*
X64370Y34971D01*
X64359D01*
X64303Y34982D01*
X64270D01*
X64214Y34993D01*
X64148D01*
X64059Y35004D01*
X63970Y35015D01*
X63859Y35026D01*
X63726Y35037D01*
X63570Y35048D01*
X63403Y35059D01*
X63214Y35082D01*
X62992Y35093D01*
X62759Y35115D01*
X62703D01*
X62637Y35126D01*
X62548D01*
X62448Y35137D01*
X62337Y35148D01*
X62070Y35159D01*
X61803Y35181D01*
X61681Y35193D01*
X61559Y35204D01*
X61448D01*
X61348Y35215D01*
X61270Y35226D01*
X61203D01*
X61170Y35237D01*
X61126D01*
X61070Y35248D01*
X60937Y35282D01*
X60804Y35315D01*
X60792D01*
X60781Y35326D01*
X60715Y35359D01*
X60637Y35404D01*
X60581Y35470D01*
X60570Y35493D01*
X60559Y35515D01*
X60548Y35548D01*
Y35604D01*
X60537Y35659D01*
X60526Y35737D01*
Y35826D01*
Y35837D01*
Y35870D01*
Y35915D01*
X60537Y35970D01*
X60548Y36104D01*
X60570Y36159D01*
X60592Y36204D01*
Y36215D01*
X60603Y36226D01*
X60637Y36270D01*
X60715Y36326D01*
X60815Y36370D01*
X60826D01*
X60859Y36381D01*
X60892Y36393D01*
X60937D01*
X60992Y36404D01*
X61070Y36415D01*
X61148D01*
X61248Y36426D01*
X61359D01*
X61492Y36437D01*
X61648D01*
X61814Y36448D01*
X62803D01*
X63037Y36437D01*
X63281Y36426D01*
X63503Y36415D01*
X63592D01*
X63681Y36404D01*
X63703D01*
X63748Y36393D01*
X63814D01*
X63903Y36381D01*
X63981Y36359D01*
X64070Y36337D01*
X64136Y36315D01*
X64192Y36281D01*
X64203Y36270D01*
X64236Y36226D01*
X64270Y36159D01*
X64292Y36070D01*
Y36059D01*
Y36037D01*
Y36004D01*
Y35937D01*
X64303Y35859D01*
Y35748D01*
Y35604D01*
Y35437D01*
X66125D01*
Y35448D01*
Y35470D01*
Y35504D01*
Y35559D01*
Y35693D01*
X66114Y35848D01*
Y36037D01*
X66103Y36215D01*
X66092Y36404D01*
X66070Y36559D01*
Y36570D01*
X66059Y36593D01*
Y36626D01*
X66048Y36670D01*
X66003Y36792D01*
X65948Y36937D01*
X65870Y37093D01*
X65759Y37248D01*
X65625Y37392D01*
X65447Y37503D01*
X65436Y37515D01*
X65381Y37526D01*
X65303Y37559D01*
X65192Y37592D01*
X65059Y37637D01*
X64892Y37670D01*
X64703Y37703D01*
X64481Y37737D01*
X64448D01*
X64414Y37748D01*
X64303D01*
X64214Y37759D01*
X64125D01*
X64014Y37770D01*
X63892Y37781D01*
X63748D01*
X63603Y37792D01*
X63248D01*
X63048Y37804D01*
D02*
G37*
G36*
X46249D02*
X44805D01*
X44394Y37792D01*
X44194D01*
X44005Y37781D01*
X43816D01*
X43661Y37770D01*
X43516D01*
X43405Y37759D01*
X43383D01*
X43316Y37748D01*
X43216Y37737D01*
X43105Y37715D01*
X42972Y37681D01*
X42828Y37648D01*
X42694Y37592D01*
X42572Y37537D01*
X42561Y37526D01*
X42516Y37503D01*
X42461Y37459D01*
X42383Y37392D01*
X42316Y37315D01*
X42239Y37215D01*
X42161Y37104D01*
X42105Y36970D01*
X42094Y36948D01*
X42083Y36904D01*
X42061Y36815D01*
X42039Y36693D01*
X42017Y36537D01*
X41994Y36348D01*
X41972Y36115D01*
Y35848D01*
Y35837D01*
Y35826D01*
Y35759D01*
Y35659D01*
X41983Y35537D01*
Y35404D01*
X41994Y35259D01*
X42017Y35115D01*
X42039Y34993D01*
Y34982D01*
X42050Y34937D01*
X42061Y34882D01*
X42083Y34815D01*
X42150Y34637D01*
X42250Y34459D01*
X42261Y34448D01*
X42283Y34415D01*
X42328Y34359D01*
X42394Y34304D01*
X42461Y34237D01*
X42550Y34159D01*
X42661Y34104D01*
X42772Y34048D01*
X42783D01*
X42794Y34037D01*
X42828Y34026D01*
X42872Y34015D01*
X42928Y34004D01*
X42994Y33982D01*
X43150Y33948D01*
X43350Y33904D01*
X43583Y33860D01*
X43850Y33826D01*
X44139Y33804D01*
X44227D01*
X44316Y33793D01*
X44450Y33782D01*
X44605D01*
X44783Y33771D01*
X44972Y33759D01*
X45172Y33737D01*
X45594Y33715D01*
X45805Y33704D01*
X46005Y33682D01*
X46194Y33671D01*
X46372Y33659D01*
X46516Y33648D01*
X46638Y33637D01*
X46661D01*
X46727Y33626D01*
X46827Y33615D01*
X46938Y33604D01*
X47060Y33582D01*
X47172Y33560D01*
X47260Y33537D01*
X47327Y33504D01*
X47349Y33493D01*
X47383Y33459D01*
X47438Y33404D01*
X47471Y33337D01*
Y33315D01*
X47483Y33293D01*
Y33259D01*
X47494Y33215D01*
Y33148D01*
X47505Y33071D01*
X47516Y32982D01*
X41872D01*
Y31560D01*
X49238D01*
Y31571D01*
Y31626D01*
Y31693D01*
Y31782D01*
X49249Y31882D01*
Y32004D01*
Y32260D01*
Y32271D01*
Y32304D01*
Y32360D01*
Y32437D01*
Y32526D01*
Y32626D01*
X49238Y32849D01*
Y33104D01*
X49216Y33348D01*
X49205Y33582D01*
X49194Y33693D01*
X49183Y33782D01*
Y33793D01*
X49171Y33815D01*
X49160Y33860D01*
X49149Y33926D01*
X49127Y33993D01*
X49094Y34071D01*
X49005Y34237D01*
X48949Y34337D01*
X48882Y34426D01*
X48805Y34515D01*
X48705Y34604D01*
X48605Y34682D01*
X48482Y34748D01*
X48349Y34815D01*
X48194Y34859D01*
X48183D01*
X48138Y34870D01*
X48072Y34882D01*
X47983Y34904D01*
X47894Y34926D01*
X47783Y34937D01*
X47572Y34971D01*
X47560D01*
X47505Y34982D01*
X47471D01*
X47416Y34993D01*
X47349D01*
X47260Y35004D01*
X47172Y35015D01*
X47060Y35026D01*
X46927Y35037D01*
X46772Y35048D01*
X46605Y35059D01*
X46416Y35082D01*
X46194Y35093D01*
X45961Y35115D01*
X45905D01*
X45838Y35126D01*
X45750D01*
X45649Y35137D01*
X45538Y35148D01*
X45272Y35159D01*
X45005Y35181D01*
X44883Y35193D01*
X44761Y35204D01*
X44650D01*
X44550Y35215D01*
X44472Y35226D01*
X44405D01*
X44372Y35237D01*
X44327D01*
X44272Y35248D01*
X44139Y35282D01*
X44005Y35315D01*
X43994D01*
X43983Y35326D01*
X43916Y35359D01*
X43839Y35404D01*
X43783Y35470D01*
X43772Y35493D01*
X43761Y35515D01*
X43750Y35548D01*
Y35604D01*
X43739Y35659D01*
X43727Y35737D01*
Y35826D01*
Y35837D01*
Y35870D01*
Y35915D01*
X43739Y35970D01*
X43750Y36104D01*
X43772Y36159D01*
X43794Y36204D01*
Y36215D01*
X43805Y36226D01*
X43839Y36270D01*
X43916Y36326D01*
X44016Y36370D01*
X44027D01*
X44061Y36381D01*
X44094Y36393D01*
X44139D01*
X44194Y36404D01*
X44272Y36415D01*
X44350D01*
X44450Y36426D01*
X44561D01*
X44694Y36437D01*
X44850D01*
X45016Y36448D01*
X46005D01*
X46238Y36437D01*
X46483Y36426D01*
X46705Y36415D01*
X46794D01*
X46883Y36404D01*
X46905D01*
X46949Y36393D01*
X47016D01*
X47105Y36381D01*
X47183Y36359D01*
X47272Y36337D01*
X47338Y36315D01*
X47394Y36281D01*
X47405Y36270D01*
X47438Y36226D01*
X47471Y36159D01*
X47494Y36070D01*
Y36059D01*
Y36037D01*
Y36004D01*
Y35937D01*
X47505Y35859D01*
Y35748D01*
Y35604D01*
Y35437D01*
X49327D01*
Y35448D01*
Y35470D01*
Y35504D01*
Y35559D01*
Y35693D01*
X49316Y35848D01*
Y36037D01*
X49305Y36215D01*
X49294Y36404D01*
X49271Y36559D01*
Y36570D01*
X49260Y36593D01*
Y36626D01*
X49249Y36670D01*
X49205Y36792D01*
X49149Y36937D01*
X49071Y37093D01*
X48960Y37248D01*
X48827Y37392D01*
X48649Y37503D01*
X48638Y37515D01*
X48583Y37526D01*
X48505Y37559D01*
X48394Y37592D01*
X48260Y37637D01*
X48094Y37670D01*
X47905Y37703D01*
X47683Y37737D01*
X47649D01*
X47616Y37748D01*
X47505D01*
X47416Y37759D01*
X47327D01*
X47216Y37770D01*
X47094Y37781D01*
X46949D01*
X46805Y37792D01*
X46449D01*
X46249Y37804D01*
D02*
G37*
G36*
X138396Y35937D02*
X136551D01*
X135185Y32826D01*
X133841Y35937D01*
X131985D01*
X134141Y31560D01*
X136251D01*
X138396Y35937D01*
D02*
G37*
G36*
X100511D02*
X98878D01*
Y33926D01*
Y33904D01*
Y33848D01*
Y33759D01*
X98866Y33659D01*
X98855Y33437D01*
X98844Y33337D01*
X98833Y33248D01*
Y33237D01*
X98822Y33215D01*
X98811Y33182D01*
X98789Y33137D01*
X98744Y33026D01*
X98655Y32915D01*
X98644D01*
X98633Y32893D01*
X98600Y32871D01*
X98555Y32837D01*
X98444Y32782D01*
X98300Y32726D01*
X98289D01*
X98255Y32715D01*
X98200D01*
X98122Y32704D01*
X98022Y32693D01*
X97911D01*
X97767Y32682D01*
X97466D01*
X97333Y32693D01*
X97167Y32715D01*
X96989Y32737D01*
X96811Y32782D01*
X96644Y32837D01*
X96578Y32871D01*
X96522Y32915D01*
X96511Y32926D01*
X96489Y32948D01*
X96467Y32982D01*
X96422Y33026D01*
X96389Y33082D01*
X96344Y33148D01*
X96311Y33226D01*
X96289Y33315D01*
Y33326D01*
X96278Y33360D01*
X96267Y33426D01*
X96255Y33515D01*
X96244Y33626D01*
X96233Y33782D01*
X96222Y33959D01*
Y34170D01*
Y35937D01*
X94589D01*
Y31560D01*
X96122D01*
Y32215D01*
X96211D01*
X96222Y32193D01*
X96244Y32149D01*
X96300Y32071D01*
X96367Y31982D01*
X96456Y31882D01*
X96556Y31782D01*
X96689Y31693D01*
X96833Y31615D01*
X96855Y31604D01*
X96911Y31593D01*
X97011Y31560D01*
X97144Y31538D01*
X97322Y31504D01*
X97544Y31471D01*
X97800Y31460D01*
X98089Y31449D01*
X98278D01*
X98355Y31460D01*
X98522D01*
X98711Y31482D01*
X98922Y31504D01*
X99122Y31526D01*
X99300Y31571D01*
X99322Y31582D01*
X99377Y31593D01*
X99455Y31626D01*
X99555Y31671D01*
X99677Y31726D01*
X99800Y31804D01*
X99922Y31893D01*
X100033Y31993D01*
X100044Y32004D01*
X100077Y32048D01*
X100133Y32115D01*
X100189Y32193D01*
X100255Y32293D01*
X100322Y32415D01*
X100377Y32537D01*
X100422Y32671D01*
Y32693D01*
X100433Y32737D01*
X100444Y32837D01*
X100466Y32971D01*
X100477Y33137D01*
X100488Y33237D01*
X100500Y33360D01*
Y33482D01*
X100511Y33615D01*
Y33771D01*
Y33926D01*
Y35937D01*
D02*
G37*
%LPD*%
G36*
X48210Y23949D02*
X48388Y23938D01*
X48555Y23916D01*
X48699Y23894D01*
X48755Y23883D01*
X48799Y23860D01*
X48810D01*
X48832Y23838D01*
X48877Y23805D01*
X48910Y23772D01*
X48999Y23661D01*
X49021Y23583D01*
X49033Y23505D01*
Y23494D01*
Y23460D01*
X49021Y23416D01*
X48999Y23360D01*
X48977Y23294D01*
X48932Y23238D01*
X48877Y23183D01*
X48799Y23138D01*
X48788D01*
X48755Y23127D01*
X48688Y23116D01*
X48599Y23094D01*
X48477Y23083D01*
X48321Y23061D01*
X48133Y23049D01*
X47699D01*
X47622Y23061D01*
X47444D01*
X47255Y23072D01*
X47066Y23094D01*
X46888Y23116D01*
X46822Y23127D01*
X46755Y23149D01*
X46744D01*
X46711Y23172D01*
X46655Y23194D01*
X46599Y23238D01*
X46544Y23294D01*
X46488Y23360D01*
X46455Y23438D01*
X46444Y23538D01*
Y23549D01*
Y23583D01*
X46455Y23627D01*
X46477Y23683D01*
X46510Y23749D01*
X46555Y23805D01*
X46622Y23860D01*
X46711Y23905D01*
X46722D01*
X46744Y23916D01*
X46799D01*
X46888Y23927D01*
X46955Y23938D01*
X47110D01*
X47210Y23949D01*
X47333D01*
X47455Y23960D01*
X48044D01*
X48210Y23949D01*
D02*
G37*
G36*
X94106Y25594D02*
X94272Y25583D01*
X94450Y25571D01*
X94639Y25538D01*
X94795Y25505D01*
X94861Y25471D01*
X94917Y25449D01*
X94928Y25438D01*
X94961Y25416D01*
X95006Y25383D01*
X95050Y25316D01*
X95106Y25238D01*
X95150Y25138D01*
X95183Y25005D01*
X95206Y24849D01*
X92562D01*
Y24860D01*
Y24894D01*
Y24938D01*
X92573Y24994D01*
X92584Y25105D01*
Y25160D01*
X92595Y25205D01*
Y25227D01*
X92617Y25260D01*
X92650Y25327D01*
X92695Y25383D01*
X92706Y25394D01*
X92739Y25416D01*
X92806Y25449D01*
X92917Y25494D01*
X92984Y25516D01*
X93061Y25538D01*
X93161Y25549D01*
X93261Y25571D01*
X93384Y25583D01*
X93517Y25594D01*
X93661Y25605D01*
X94028D01*
X94106Y25594D01*
D02*
G37*
G36*
X117692Y42625D02*
X117859Y42614D01*
X118037Y42603D01*
X118226Y42570D01*
X118381Y42536D01*
X118448Y42503D01*
X118503Y42481D01*
X118514Y42470D01*
X118548Y42448D01*
X118592Y42414D01*
X118637Y42347D01*
X118692Y42270D01*
X118737Y42170D01*
X118770Y42036D01*
X118792Y41881D01*
X116148D01*
Y41892D01*
Y41925D01*
Y41970D01*
X116159Y42025D01*
X116170Y42136D01*
Y42192D01*
X116181Y42236D01*
Y42259D01*
X116203Y42292D01*
X116237Y42359D01*
X116281Y42414D01*
X116292Y42425D01*
X116326Y42448D01*
X116392Y42481D01*
X116504Y42525D01*
X116570Y42548D01*
X116648Y42570D01*
X116748Y42581D01*
X116848Y42603D01*
X116970Y42614D01*
X117103Y42625D01*
X117248Y42636D01*
X117614D01*
X117692Y42625D01*
D02*
G37*
G36*
X60942Y42392D02*
X61120D01*
X61298Y42370D01*
X61476Y42347D01*
X61642Y42314D01*
X61709Y42292D01*
X61765Y42270D01*
X61776D01*
X61798Y42248D01*
X61831Y42225D01*
X61876Y42203D01*
X61931Y42159D01*
X61976Y42103D01*
X62031Y42036D01*
X62064Y41959D01*
Y41947D01*
X62076Y41914D01*
X62087Y41870D01*
X62098Y41792D01*
X62120Y41703D01*
X62131Y41592D01*
X62142Y41459D01*
Y41303D01*
Y41281D01*
Y41236D01*
Y41159D01*
X62131Y41059D01*
X62109Y40859D01*
X62098Y40759D01*
X62076Y40681D01*
Y40670D01*
X62064Y40648D01*
X62020Y40581D01*
X61976Y40537D01*
X61931Y40492D01*
X61865Y40448D01*
X61798Y40403D01*
X61787D01*
X61731Y40381D01*
X61653Y40359D01*
X61542Y40337D01*
X61387Y40314D01*
X61198Y40292D01*
X61076Y40281D01*
X60953D01*
X60820Y40270D01*
X60531D01*
X60454Y40281D01*
X60365D01*
X60187Y40292D01*
X59987Y40314D01*
X59787Y40348D01*
X59620Y40392D01*
X59554Y40426D01*
X59498Y40459D01*
X59487Y40470D01*
X59454Y40503D01*
X59409Y40559D01*
X59365Y40637D01*
X59320Y40759D01*
X59276Y40914D01*
X59243Y41114D01*
X59232Y41225D01*
Y41348D01*
Y41370D01*
Y41414D01*
Y41492D01*
X59243Y41581D01*
X59265Y41792D01*
X59287Y41881D01*
X59320Y41970D01*
Y41981D01*
X59331Y42003D01*
X59354Y42036D01*
X59387Y42081D01*
X59420Y42125D01*
X59476Y42181D01*
X59531Y42225D01*
X59609Y42259D01*
X59620Y42270D01*
X59665Y42281D01*
X59742Y42303D01*
X59854Y42336D01*
X60009Y42359D01*
X60187Y42381D01*
X60409Y42392D01*
X60676Y42403D01*
X60876D01*
X60942Y42392D01*
D02*
G37*
G36*
X36711D02*
X36889D01*
X37067Y42370D01*
X37245Y42347D01*
X37411Y42314D01*
X37478Y42292D01*
X37534Y42270D01*
X37545D01*
X37567Y42248D01*
X37600Y42225D01*
X37645Y42203D01*
X37700Y42159D01*
X37745Y42103D01*
X37800Y42036D01*
X37834Y41959D01*
Y41947D01*
X37845Y41914D01*
X37856Y41870D01*
X37867Y41792D01*
X37889Y41703D01*
X37900Y41592D01*
X37911Y41459D01*
Y41303D01*
Y41281D01*
Y41236D01*
Y41159D01*
X37900Y41059D01*
X37878Y40859D01*
X37867Y40759D01*
X37845Y40681D01*
Y40670D01*
X37834Y40648D01*
X37789Y40581D01*
X37745Y40537D01*
X37700Y40492D01*
X37634Y40448D01*
X37567Y40403D01*
X37556D01*
X37500Y40381D01*
X37422Y40359D01*
X37311Y40337D01*
X37156Y40314D01*
X36967Y40292D01*
X36845Y40281D01*
X36723D01*
X36589Y40270D01*
X36300D01*
X36223Y40281D01*
X36134D01*
X35956Y40292D01*
X35756Y40314D01*
X35556Y40348D01*
X35389Y40392D01*
X35323Y40426D01*
X35267Y40459D01*
X35256Y40470D01*
X35223Y40503D01*
X35178Y40559D01*
X35134Y40637D01*
X35089Y40759D01*
X35045Y40914D01*
X35012Y41114D01*
X35001Y41225D01*
Y41348D01*
Y41370D01*
Y41414D01*
Y41492D01*
X35012Y41581D01*
X35034Y41792D01*
X35056Y41881D01*
X35089Y41970D01*
Y41981D01*
X35100Y42003D01*
X35123Y42036D01*
X35156Y42081D01*
X35189Y42125D01*
X35245Y42181D01*
X35300Y42225D01*
X35378Y42259D01*
X35389Y42270D01*
X35434Y42281D01*
X35512Y42303D01*
X35623Y42336D01*
X35778Y42359D01*
X35956Y42381D01*
X36178Y42392D01*
X36445Y42403D01*
X36645D01*
X36711Y42392D01*
D02*
G37*
G36*
X106777Y33959D02*
X104033D01*
X105221Y36292D01*
X105588D01*
X106777Y33959D01*
D02*
G37*
G36*
X117020Y36193D02*
X117276Y36182D01*
X117542Y36159D01*
X117798Y36126D01*
X117920Y36104D01*
X118020Y36081D01*
X118098Y36059D01*
X118165Y36026D01*
X118176D01*
X118198Y36004D01*
X118220Y35982D01*
X118264Y35937D01*
X118298Y35882D01*
X118342Y35815D01*
X118376Y35726D01*
X118409Y35626D01*
Y35615D01*
X118420Y35570D01*
X118431Y35493D01*
X118442Y35393D01*
X118453Y35259D01*
X118464Y35093D01*
X118475Y34904D01*
Y34670D01*
Y34659D01*
Y34637D01*
Y34593D01*
Y34548D01*
Y34415D01*
X118464Y34248D01*
X118453Y34071D01*
X118442Y33893D01*
X118420Y33737D01*
X118398Y33604D01*
Y33593D01*
X118387Y33560D01*
X118364Y33504D01*
X118331Y33448D01*
X118287Y33382D01*
X118231Y33315D01*
X118165Y33248D01*
X118087Y33204D01*
X118076D01*
X118053Y33193D01*
X118031Y33182D01*
X117987Y33171D01*
X117865Y33137D01*
X117720Y33115D01*
X117676D01*
X117609Y33104D01*
X117431D01*
X117353Y33093D01*
X117042D01*
X116920Y33082D01*
X116420D01*
X116331Y33093D01*
X116009D01*
X115776Y33104D01*
X115465D01*
X115387Y33115D01*
X115254D01*
X115198Y33126D01*
X115109Y33148D01*
X115009Y33182D01*
X114898Y33215D01*
X114798Y33271D01*
X114698Y33348D01*
X114631Y33437D01*
X114620Y33448D01*
X114609Y33493D01*
X114587Y33571D01*
X114554Y33693D01*
X114543Y33771D01*
X114532Y33848D01*
X114520Y33948D01*
X114509Y34059D01*
X114498Y34182D01*
Y34326D01*
X114487Y34470D01*
Y34637D01*
Y34648D01*
Y34670D01*
Y34704D01*
Y34759D01*
Y34882D01*
X114498Y35037D01*
X114509Y35204D01*
X114520Y35381D01*
X114543Y35537D01*
X114576Y35659D01*
Y35670D01*
X114587Y35704D01*
X114609Y35759D01*
X114643Y35826D01*
X114687Y35893D01*
X114732Y35959D01*
X114798Y36026D01*
X114876Y36070D01*
X114887D01*
X114909Y36081D01*
X114943Y36093D01*
X114987Y36115D01*
X115120Y36137D01*
X115276Y36159D01*
X115320D01*
X115398Y36170D01*
X115520D01*
X115598Y36182D01*
X115798D01*
X115920Y36193D01*
X116220D01*
X116398Y36204D01*
X116909D01*
X117020Y36193D01*
D02*
G37*
G36*
X54560D02*
X54815Y36182D01*
X55082Y36159D01*
X55337Y36126D01*
X55460Y36104D01*
X55560Y36081D01*
X55637Y36059D01*
X55704Y36026D01*
X55715D01*
X55737Y36004D01*
X55760Y35982D01*
X55804Y35937D01*
X55837Y35882D01*
X55882Y35815D01*
X55915Y35726D01*
X55949Y35626D01*
Y35615D01*
X55960Y35570D01*
X55971Y35493D01*
X55982Y35393D01*
X55993Y35259D01*
X56004Y35093D01*
X56015Y34904D01*
Y34670D01*
Y34659D01*
Y34637D01*
Y34593D01*
Y34548D01*
Y34415D01*
X56004Y34248D01*
X55993Y34071D01*
X55982Y33893D01*
X55960Y33737D01*
X55937Y33604D01*
Y33593D01*
X55926Y33560D01*
X55904Y33504D01*
X55871Y33448D01*
X55826Y33382D01*
X55771Y33315D01*
X55704Y33248D01*
X55626Y33204D01*
X55615D01*
X55593Y33193D01*
X55571Y33182D01*
X55526Y33171D01*
X55404Y33137D01*
X55260Y33115D01*
X55215D01*
X55149Y33104D01*
X54971D01*
X54893Y33093D01*
X54582D01*
X54460Y33082D01*
X53960D01*
X53871Y33093D01*
X53549D01*
X53315Y33104D01*
X53004D01*
X52926Y33115D01*
X52793D01*
X52738Y33126D01*
X52649Y33148D01*
X52549Y33182D01*
X52438Y33215D01*
X52338Y33271D01*
X52238Y33348D01*
X52171Y33437D01*
X52160Y33448D01*
X52149Y33493D01*
X52127Y33571D01*
X52093Y33693D01*
X52082Y33771D01*
X52071Y33848D01*
X52060Y33948D01*
X52049Y34059D01*
X52038Y34182D01*
Y34326D01*
X52027Y34470D01*
Y34637D01*
Y34648D01*
Y34670D01*
Y34704D01*
Y34759D01*
Y34882D01*
X52038Y35037D01*
X52049Y35204D01*
X52060Y35381D01*
X52082Y35537D01*
X52115Y35659D01*
Y35670D01*
X52127Y35704D01*
X52149Y35759D01*
X52182Y35826D01*
X52227Y35893D01*
X52271Y35959D01*
X52338Y36026D01*
X52416Y36070D01*
X52427D01*
X52449Y36081D01*
X52482Y36093D01*
X52527Y36115D01*
X52660Y36137D01*
X52815Y36159D01*
X52860D01*
X52938Y36170D01*
X53060D01*
X53138Y36182D01*
X53338D01*
X53460Y36193D01*
X53760D01*
X53938Y36204D01*
X54449D01*
X54560Y36193D01*
D02*
G37*
G36*
X118237Y23949D02*
X118414Y23938D01*
X118581Y23916D01*
X118726Y23894D01*
X118781Y23883D01*
X118825Y23860D01*
X118837D01*
X118859Y23838D01*
X118903Y23805D01*
X118937Y23772D01*
X119026Y23661D01*
X119048Y23583D01*
X119059Y23505D01*
Y23494D01*
Y23460D01*
X119048Y23416D01*
X119026Y23360D01*
X119003Y23294D01*
X118959Y23238D01*
X118903Y23183D01*
X118825Y23138D01*
X118814D01*
X118781Y23127D01*
X118714Y23116D01*
X118625Y23094D01*
X118503Y23083D01*
X118348Y23061D01*
X118159Y23049D01*
X117726D01*
X117648Y23061D01*
X117470D01*
X117281Y23072D01*
X117092Y23094D01*
X116915Y23116D01*
X116848Y23127D01*
X116781Y23149D01*
X116770D01*
X116737Y23172D01*
X116681Y23194D01*
X116626Y23238D01*
X116570Y23294D01*
X116515Y23360D01*
X116481Y23438D01*
X116470Y23538D01*
Y23549D01*
Y23583D01*
X116481Y23627D01*
X116504Y23683D01*
X116537Y23749D01*
X116581Y23805D01*
X116648Y23860D01*
X116737Y23905D01*
X116748D01*
X116770Y23916D01*
X116826D01*
X116915Y23927D01*
X116981Y23938D01*
X117137D01*
X117237Y23949D01*
X117359D01*
X117481Y23960D01*
X118070D01*
X118237Y23949D01*
D02*
G37*
G36*
X54532Y25360D02*
X54710Y25349D01*
X54899Y25338D01*
X55076Y25305D01*
X55243Y25271D01*
X55321Y25238D01*
X55376Y25216D01*
X55387D01*
X55410Y25194D01*
X55476Y25138D01*
X55565Y25038D01*
X55598Y24983D01*
X55632Y24905D01*
Y24894D01*
X55643Y24871D01*
X55654Y24816D01*
X55665Y24749D01*
X55676Y24660D01*
X55687Y24560D01*
X55699Y24427D01*
Y24283D01*
Y24260D01*
Y24205D01*
Y24127D01*
X55687Y24027D01*
X55665Y23805D01*
X55643Y23705D01*
X55621Y23627D01*
Y23616D01*
X55610Y23594D01*
X55587Y23561D01*
X55554Y23527D01*
X55510Y23472D01*
X55454Y23427D01*
X55387Y23383D01*
X55299Y23349D01*
X55287D01*
X55232Y23327D01*
X55154Y23316D01*
X55043Y23294D01*
X54887Y23272D01*
X54699Y23260D01*
X54476Y23238D01*
X54088D01*
X54010Y23249D01*
X53932D01*
X53754Y23260D01*
X53565Y23283D01*
X53377Y23316D01*
X53210Y23360D01*
X53132Y23383D01*
X53076Y23416D01*
X53065D01*
X53054Y23438D01*
X52999Y23483D01*
X52932Y23583D01*
X52899Y23638D01*
X52877Y23716D01*
Y23727D01*
X52865Y23761D01*
X52854Y23805D01*
X52843Y23872D01*
X52832Y23960D01*
X52821Y24071D01*
X52810Y24194D01*
Y24338D01*
Y24360D01*
Y24405D01*
Y24483D01*
X52821Y24583D01*
X52843Y24783D01*
X52865Y24883D01*
X52899Y24960D01*
Y24972D01*
X52910Y24994D01*
X52965Y25071D01*
X52999Y25116D01*
X53054Y25160D01*
X53110Y25205D01*
X53188Y25238D01*
X53199Y25249D01*
X53254Y25260D01*
X53332Y25282D01*
X53443Y25305D01*
X53588Y25327D01*
X53776Y25349D01*
X53999Y25371D01*
X54454D01*
X54532Y25360D01*
D02*
G37*
G36*
X91134Y34804D02*
X91323Y34793D01*
X91523Y34771D01*
X91723Y34748D01*
X91900Y34704D01*
X91967Y34682D01*
X92034Y34648D01*
X92045D01*
X92056Y34626D01*
X92123Y34571D01*
X92189Y34482D01*
X92256Y34359D01*
Y34348D01*
X92267Y34326D01*
X92278Y34282D01*
X92289Y34226D01*
X92300Y34148D01*
X92312Y34059D01*
X92323Y33948D01*
Y33826D01*
Y33804D01*
Y33759D01*
Y33682D01*
X92312Y33593D01*
X92289Y33393D01*
X92267Y33293D01*
X92234Y33215D01*
Y33204D01*
X92212Y33182D01*
X92189Y33148D01*
X92156Y33115D01*
X92111Y33059D01*
X92056Y33015D01*
X91989Y32971D01*
X91900Y32937D01*
X91889D01*
X91845Y32926D01*
X91767Y32915D01*
X91667Y32893D01*
X91523Y32882D01*
X91356Y32860D01*
X91156Y32849D01*
X90756D01*
X90689Y32860D01*
X90601D01*
X90412Y32871D01*
X90201Y32893D01*
X90001Y32926D01*
X89823Y32971D01*
X89745Y33004D01*
X89689Y33037D01*
X89678D01*
X89667Y33059D01*
X89612Y33104D01*
X89545Y33193D01*
X89490Y33304D01*
Y33315D01*
X89478Y33337D01*
X89467Y33382D01*
X89456Y33437D01*
Y33515D01*
X89445Y33604D01*
X89434Y33704D01*
Y33826D01*
Y33848D01*
Y33893D01*
Y33959D01*
X89445Y34048D01*
X89467Y34226D01*
X89490Y34315D01*
X89512Y34393D01*
Y34404D01*
X89523Y34426D01*
X89567Y34504D01*
X89645Y34593D01*
X89701Y34637D01*
X89767Y34670D01*
X89778Y34682D01*
X89823Y34693D01*
X89901Y34715D01*
X90012Y34748D01*
X90156Y34771D01*
X90334Y34793D01*
X90556Y34804D01*
X90689Y34815D01*
X91045D01*
X91134Y34804D01*
D02*
G37*
D61*
X325378Y121253D02*
X341126D01*
X325378Y97631D02*
X341126D01*
X345063Y105505D02*
Y113379D01*
X321441Y105505D02*
Y113379D01*
D62*
X351165Y118300D02*
G03*
X350772Y118300I-197J0D01*
G01*
D02*
G03*
X351165Y118300I197J0D01*
G01*
X301756Y248676D02*
X352937D01*
X301756Y231156D02*
Y248676D01*
X364748Y222298D02*
Y239424D01*
X309630Y222298D02*
X364748D01*
X309630Y345942D02*
X364748D01*
Y363068D01*
X301756Y354800D02*
Y372320D01*
X352937D01*
D64*
X298932Y367666D02*
X299599Y366999D01*
Y365666D01*
X298932Y365000D01*
X298266D01*
X297599Y365666D01*
Y366999D01*
X296933Y367666D01*
X296266D01*
X295600Y366999D01*
Y365666D01*
X296266Y365000D01*
X299599Y368999D02*
Y371665D01*
X298932D01*
X296266Y368999D01*
X295600D01*
X314332Y116766D02*
X314999Y116099D01*
Y114767D01*
X314332Y114100D01*
X313666D01*
X312999Y114767D01*
Y116099D01*
X312333Y116766D01*
X311666D01*
X311000Y116099D01*
Y114767D01*
X311666Y114100D01*
X314999Y120765D02*
Y118099D01*
X312999D01*
X313666Y119432D01*
Y120098D01*
X312999Y120765D01*
X311666D01*
X311000Y120098D01*
Y118765D01*
X311666Y118099D01*
X299232Y245366D02*
X299899Y244699D01*
Y243366D01*
X299232Y242700D01*
X298566D01*
X297899Y243366D01*
Y244699D01*
X297233Y245366D01*
X296566D01*
X295900Y244699D01*
Y243366D01*
X296566Y242700D01*
X295900Y246699D02*
Y248032D01*
Y247365D01*
X299899D01*
X299232Y246699D01*
M02*
