M48
;Layer_Color=9474304
;FILE_FORMAT=2:5
INCH,LZ
;TYPE=PLATED
T1F00S00C0.01575
T2F00S00C0.02795
T3F00S00C0.02874
T4F00S00C0.03150
T5F00S00C0.03346
T6F00S00C0.03543
T7F00S00C0.03583
T8F00S00C0.03937
T9F00S00C0.04331
T10F00S00C0.04528
T11F00S00C0.04724
T12F00S00C0.05512
;TYPE=NON_PLATED
T13F00S00C0.03740
T14F00S00C0.11417
%
T01
X01325Y00486
X02162
X02795Y00476
X02713Y00735
X02704Y01084
X0264658
X0256378
X02479
X0238Y01095
X0279239Y01084
X0287519
X0315503Y0057039
X0324Y01854
X03224Y0206934
X02983Y02008
Y01898
X02611Y01915
X02623Y01952
X02611Y01989
X02573Y0208
X02221Y02074
Y02004
X02175Y01968
X02077
X02199Y01874
X02121Y01693
Y01656
Y01619
Y01573
Y01536
X0203Y01537
X020525Y01492
X020075
Y01582
X0203Y01627
X020075Y01672
X02254Y01637
X02258Y0155
X0228447Y0152479
X02316Y01504
X02089Y01415
X02036Y01398
X02016Y01279
X0203Y01186
X01952Y0118
X0191525Y0115
X0197775Y01116
X02005Y01049
X01977Y01398
X01936
X01883
X01814Y01404
X0181Y01499
Y01538
Y01576
Y01613
X01797Y01648
X018275Y01672
X018725
X019175
X019625
X01985Y01627
X0194
X01895
X0185
X018725Y01582
X019175
X019625
X01985Y01537
X0194
X01895
X0185
X018725Y01492
X019175
X019625
X01968Y0175
X01914
X01888Y01724
X01844Y0173
X019Y0188
X0193147Y0195
X01822Y02032
X01725Y01913
X0175Y01885
X01725Y01855
X0165123Y017699
X01609Y0178935
X0155939Y01759
X0155707Y0171256
X0159082Y0168058
X0156459Y0157026
X015546Y0152485
X0158232Y0148751
X0162869Y0148406
X0166155Y0151696
X0154Y01429
X01484Y01297
X01547Y01224
X01521Y01189
X01495Y01155
X01313Y01153
X01314Y01087
Y00989
X01099Y01283
X00949Y01434
Y01658
X0122Y01512
X0125Y01939
X01477Y01857
X01511Y01832
X01698Y0119
X0059Y00593
X00501Y0171133
X00314Y00977
X00501Y0237067
Y0303
X00834Y0290394
X00872Y0281741
X00885Y0326228
X01533
X0148166Y0290394
X0151966Y0281741
X01986Y02565
X01682Y02175
X02221Y02154
X02251Y02265
X02039Y02418
X02021Y02466
X02067
X02041Y02519
X02234Y02758
X02284
X02334
X02384
X02385Y02919
X0259771Y0295389
X0257322Y0299342
Y0303991
X0256692Y0308598
X0257195Y031322
X0258414Y0317707
Y0322357
Y0327006
Y0331656
Y0336306
Y0340955
Y0345605
Y0350254
X025898Y035487
X0262186Y0358237
X0262434Y036288
X0267877Y0353626
X0265699Y0349518
Y0344868
Y0340219
Y0335569
Y033092
Y032627
Y032162
Y0316971
X027455Y03087
Y03012
X02656Y0296
X02835
X0286942Y0295303
X0291337Y0296821
X0291778Y0301449
X0292408Y0306056
Y0310706
X0290686Y0315024
Y0319674
Y0324324
Y0328973
Y0333623
Y0338273
Y0342922
Y0347572
X0290659Y0352221
X0288032Y0356058
X0284926Y0359517
X0283781Y0364024
X0282356Y0351431
X0283401Y03469
Y034225
Y0337601
Y0332951
Y0328302
Y0323652
Y0319002
Y0314353
X02826Y0286753
X02728Y02838
X02732Y0271271
X02767Y02734
X02799Y02764
X02688Y02664
X02598Y02654
Y02742
X02615Y02808
X02584Y0284784
X02611Y02538
X02742
X0273Y02112
X02622
X02573Y02204
X0213776Y031406
X02041Y03217
X0274177Y035578
X0278455Y0353961
X0279879Y0366551
X0272834Y0366556
X02652Y0366617
T02
X0330897Y0297575
X0340897
X0350897
Y0327575
X0340897
X0330897
X0360897
Y0297575
T03
X01609Y0153657
Y01635
Y0173343
T04
X0020401Y007146
X0030401
X0040401
T05
X0059Y00885
Y00985
Y01085
T06
X0317504Y0231156
X0333252
X0349
Y03548
X0333252
X0317504
T07
X0027112Y0141455
X0036954
X0037054Y02074
X0027212
X0026412Y0273345
X0036254
X0036403Y033929
X0026561
T08
X0320457Y0100584
Y01183
X0346047
Y0100584
T09
X01568Y00131
X0166642
X0176485
X0186328
X019617
X0206013
X0215855
X0259
X0268843
X0194091Y0360261
X0158768
X0148925
X0139083
X012924
X0203933
X0213776
X0223618
X0268784Y0360312
X0278626
T10
X02521Y01562
Y01662
X01653Y01104
X01553
T11
X006Y0360262
X0069842
X0079685
X0089528
X009937
T12
X0303724Y0223282
Y0346926
X0362779Y0247692
Y0371335
T13
X0319834Y0019953
X0345818
T14
X001Y001
X0361281Y0125
Y0265
X001Y0369841
M30
